<?xml version="1.0" encoding="UTF-8"?>
<svg id="Calque_2" data-name="Calque 2" xmlns="http://www.w3.org/2000/svg" viewBox="0 0 355 195.9">
  <defs>
    <style>
      .cls-1 {
        fill: #ed7b3b;
      }

      .cls-2 {
        fill: #a5613f;
      }

      .cls-3 {
        fill: #c96939;
      }
    </style>
  </defs>
  <g id="logo">
    <g id="logo-2" data-name="logo">
      <path class="cls-3" d="m126.7,0v64.2c0,3.5.6,7,1.7,10.3,3.9,11.2,14.2,35.9,30.8,35.9V29.8c0-1.7-.3-3.4-.8-5-2.1-6.5-9.4-21.7-31.8-24.7Z"/>
      <path class="cls-1" d="m126.7,81.4v32.3c0,11.8,5.2,23.1,14.5,30.4s.7.5,1.1.8c5.1,3.7,11.4,5.5,17.7,5.5h68.3s-8.7-12-18.3-21.3-16.1-10.4-25.8-10.7l-25-.6s-25.1.9-32.5-36.5Z"/>
      <path class="cls-2" d="m205.9,118.8s25,18.5,28.5,31.7c0,0,.6-26.8-28.5-31.7Z"/>
      <g>
        <path d="m17.4,188.8c-.9,0-1.9-.2-2.9-.6-1.1-.4-2.2-.8-3.3-1.4-1.1-.5-2.3-1-3.4-1.5-.6.7-1.3,1.2-1.9,1.6-.7.4-1.4.6-2.2.6s-1.5-.2-2-.6c-.6-.4-1-.8-1.3-1.3-.3-.5-.4-1-.4-1.4s.2-.8.6-1.1c.4-.3,1.1-.5,2.1-.5s1.4,0,2.1.2c.8.1,1.6.3,2.4.6.6-1,1.1-2.2,1.6-3.6.5-1.4,1-2.8,1.5-4.4.5-1.6,1-3.1,1.5-4.7-1.1-.4-2-.9-2.7-1.6-.7-.7-1-1.5-1-2.3s0-.9.3-1.3c.2-.4.4-.8.8-1.1.3-.3.8-.5,1.2-.5-.2.2-.3.6-.4,1.1,0,.5-.1.9-.1,1.2,0,.9.2,1.7.6,2.3.4.6.9,1.1,1.5,1.5.5-1.5,1-2.9,1.5-4.2.5-1.3,1.1-2.5,1.8-3.5.6-1,1.3-1.9,2.1-2.4s1.6-.9,2.6-.9,1,.1,1.6.3c.6.2,1,.6,1.4,1.1.4.5.6,1.3.6,2.3s-.2,1.7-.5,2.7c-.3,1-.9,1.9-1.6,2.8-.7.9-1.6,1.6-2.7,2.1-1.1.6-2.4.8-3.9.9h-.7c-.5,1.5-1,3-1.6,4.6-.6,1.6-1.1,3-1.8,4.4-.6,1.4-1.3,2.6-2,3.7,1.1.3,2.3.7,3.4,1.1,1.2.4,2.3.7,3.4.9,1.1.2,2.1.4,3,.4s1,0,1.4-.1c.4,0,.8-.2,1.2-.4-.4,1.1-.9,1.9-1.6,2.4-.7.5-1.4.7-2.3.7Zm-13.9-2.3c.5,0,1.1-.1,1.5-.4s.9-.7,1.3-1.3c-.8-.3-1.5-.6-2.2-.8-.7-.2-1.4-.3-2-.3s-.8,0-1,.2c-.2.1-.3.3-.3.5,0,.4.2.9.7,1.4s1.1.7,1.9.7Zm10.9-15.9c1.1,0,2.1-.3,3-.9.9-.6,1.7-1.4,2.3-2.4s1.1-1.9,1.4-2.9c.3-1,.5-1.8.5-2.6s-.1-1.2-.4-1.5c-.3-.3-.6-.4-.9-.4-.8,0-1.5.5-2.1,1.5-.7,1-1.3,2.3-1.9,3.9-.6,1.6-1.2,3.4-1.9,5.3Z"/>
        <path d="m27.3,187.2c-1.5,0-2.6-.4-3.4-1.2-.8-.8-1.1-1.8-1.1-3.1s.3-2.3.8-3.5,1.3-2.4,2.2-3.5c.9-1.1,1.9-2,3.1-2.6,1.1-.7,2.2-1,3.3-1s1.1.1,1.6.4.7.9.7,1.8-.3,1.8-.8,2.6c-.6.8-1.3,1.6-2.2,2.2-.9.6-1.9,1.2-3,1.6-1.1.4-2.1.7-3.2.8,0,.2,0,.5-.1.7,0,.2,0,.4,0,.6,0,.4,0,.7.1,1.1,0,.4.2.7.5,1,.2.3.5.5.9.7.4.2.9.3,1.4.3,1.1,0,2.1-.3,3.1-.9s2-1.4,2.9-2.4c.9-1,1.6-2.1,2.3-3.3l.4.3c-.7,1.5-1.5,2.8-2.5,3.8-1,1.1-2.1,1.9-3.3,2.5-1.2.6-2.4.9-3.6.9Zm-1.8-6.2c.7-.2,1.4-.5,2.3-1,.8-.4,1.6-.9,2.4-1.5.8-.6,1.4-1.2,1.9-2,.5-.7.8-1.5.8-2.3s0-.5-.1-.6c0-.1-.3-.2-.6-.2-.6,0-1.2.2-1.9.7s-1.3,1.1-1.9,1.8c-.6.7-1.2,1.6-1.7,2.4-.5.9-.9,1.8-1.1,2.7Z"/>
        <path d="m39.5,187.5c-1.2,0-2.1-.3-2.8-.8-.7-.5-1.2-1.1-1.4-1.9-.3-.7-.4-1.5-.4-2.2s0-1.3.3-1.7c.2-.4.4-.7.7-.9s.6-.3.8-.4c.3,0,.4-.2.5-.3.7-.8,1.4-1.7,2-2.6.6-.9,1.2-1.8,1.6-2.8v-.4c0-.9.2-1.6.5-1.9.3-.4.6-.6,1-.6s.3,0,.4.1c0,0,.1.2.1.3s0,.3-.1.6c0,.3-.1.6-.1,1,0,.8.2,1.7.5,2.6.3,1,.6,1.9,1,3,.3,1,.5,2.1.5,3.3s0,.6,0,.9c0,.3,0,.6-.2.9.9-.1,1.7-.5,2.4-1.2.8-.6,1.5-1.6,2.2-3l.3.4c-.5,1.4-1.2,2.4-2.1,3.1-.9.7-2,1.1-3.1,1.3-.4,1.1-1,1.8-1.9,2.3-.9.5-1.8.7-2.9.7Zm0-1.3c.3,0,.7,0,1.2-.3.5-.2.9-.7,1.1-1.5-1-.2-2-.6-2.8-1.2-.8-.6-1.4-1.2-1.8-1.8-.5,0-.8.5-.8,1.3s.3,1.7.8,2.5c.5.8,1.3,1.1,2.2,1.1Zm2.5-2.4c0-.2,0-.5.1-.8,0-.3,0-.6,0-1,0-1.2-.1-2.3-.4-3.5-.3-1.1-.5-2.2-.7-3.2-.6.9-1.2,1.8-1.8,2.7-.6.9-1.2,1.6-1.8,2.1.4.8.9,1.5,1.7,2.2s1.7,1.2,2.9,1.4Z"/>
        <path d="m61,186.7c-1.1,0-1.8-.4-2.3-1.1-.5-.7-.7-1.6-.7-2.7s.2-2.6.7-4.2c.4-1.6,1-3.3,1.8-5.1.7-1.8,1.5-3.6,2.4-5.3.9-1.7,1.7-3.3,2.6-4.7.9-1.4,1.7-2.5,2.4-3.4.7-.8,1.3-1.3,1.7-1.3s.5.2.7.5c.2.3.3.7.4,1.1,0,.4.1.8.1,1.2,0,.7-.2,1.5-.5,2.6-.3,1.1-.8,2.3-1.4,3.6-.6,1.3-1.3,2.7-2.1,4-.8,1.3-1.7,2.6-2.7,3.9-1,1.2-2,2.3-3.1,3.2-.1.7-.3,1.3-.4,1.9,0,.6-.1,1.2-.1,1.8,0,1,.1,1.7.4,2.1.3.5.7.7,1.2.7s1.3-.3,2-.9c.7-.6,1.3-1.3,1.9-2.2.6-.9,1.1-1.8,1.5-2.8l.6.3c-1,2.1-2.1,3.8-3.2,5-1.2,1.2-2.4,1.8-3.7,1.8Zm.3-9c.9-.9,1.7-1.9,2.5-3,.8-1.1,1.6-2.3,2.3-3.5.7-1.2,1.3-2.4,1.9-3.5.5-1.1,1-2.2,1.3-3.1.3-.9.4-1.6.4-2.1s0-.4,0-.5c0,0-.1-.1-.2-.1-.2,0-.5.3-1,.9s-1,1.5-1.7,2.5c-.6,1.1-1.3,2.3-2,3.6s-1.3,2.8-1.9,4.3c-.6,1.5-1.1,2.9-1.5,4.4Z"/>
        <path d="m68.5,187.3c-.8,0-1.4-.3-1.9-.8-.5-.5-.8-1.3-.8-2.3s.2-1.8.6-2.9c.4-1,.9-2,1.6-3s1.5-1.9,2.3-2.7c.9-.8,1.8-1.5,2.8-2,1-.5,1.9-.7,2.9-.7s1.8.3,2.4.8c.6.5,1,1.2,1,2s-.2,1-.5,1.3c-.3.2-.8.3-1.3.3,0-.2,0-.4.1-.6,0-.2,0-.4,0-.6,0-.6-.1-1.1-.4-1.5-.3-.4-.7-.6-1.4-.6s-1.4.2-2.1.7c-.7.5-1.4,1.1-2.1,1.9-.7.8-1.3,1.7-1.8,2.6-.5.9-.9,1.9-1.2,2.8-.3.9-.4,1.7-.4,2.4s.3,1.4,1,1.4,1.2-.3,1.9-.8,1.4-1.2,2.1-2c.7-.8,1.4-1.7,2-2.6.6-.9,1.2-1.7,1.7-2.4,0-.1.2-.2.2-.2.1,0,.3,0,.6.1.2,0,.4.2.6.3.2.1.3.3.3.5s-.1.5-.3.9c-.2.4-.5.8-.7,1.3-.3.5-.5,1-.7,1.5-.2.5-.3,1-.3,1.4s0,.7.3,1.1c.2.4.5.5,1,.5.7,0,1.5-.5,2.6-1.5,1.1-1,2.2-2.4,3.3-4.4l.4.4c-.5,1.3-1.2,2.5-2,3.5-.8,1-1.7,1.8-2.6,2.4-.9.6-1.8.9-2.7.9s-1.6-.3-2-.8c-.4-.5-.6-1.1-.6-1.8s0-.3,0-.5c0-.2,0-.4,0-.6-1.1,1.4-2,2.5-2.9,3.2-.9.7-1.8,1.1-2.7,1.1Z"/>
        <path d="m94.8,186.3c-.9,0-1.5-.2-1.9-.7-.4-.4-.6-1-.6-1.7s0-1.1.3-1.6c.2-.6.4-1.2.5-1.8.2-.6.3-1.2.3-1.8s-.1-1.2-.4-1.4c-.3-.3-.6-.4-1.1-.4-.8,0-1.5.3-2.3.9-.8.6-1.6,1.4-2.3,2.4-.7,1-1.4,2-2.1,3-.6,1-1.2,2-1.7,2.8-.4,0-.8,0-1.1-.2-.4-.1-.6-.3-.8-.6,0-.1.1-.5.4-1.1.3-.6.6-1.4.9-2.4.3-.9.7-1.9.9-2.9.3-1,.4-1.9.4-2.7.1-.2.4-.3.7-.5.3-.2.7-.3,1-.3.7,0,1,.3,1,1s-.1,1.1-.3,2c-.2.9-.5,1.9-.9,2.9.7-1,1.4-2,2.2-3,.8-1,1.7-1.8,2.6-2.5.9-.7,1.9-1,2.8-1s1.7.3,2.1,1,.6,1.5.6,2.3-.1,1.5-.4,2.1c-.2.7-.5,1.3-.8,1.9-.3.6-.4,1.2-.4,1.8s.1.9.3,1.1c.2.2.5.3.8.3.6,0,1.2-.3,1.9-.9.6-.6,1.2-1.3,1.8-2.2.6-.9,1.1-1.8,1.5-2.7l.4.5c-.5,1.2-1.1,2.3-1.7,3.2-.6.9-1.3,1.7-2.1,2.2-.8.5-1.6.8-2.6.8Z"/>
        <path d="m101.5,195.9c-.5,0-1-.2-1.5-.5-.4-.3-.7-.9-.7-1.6s.2-1.4.7-2.1,1-1.2,1.8-1.7c.7-.5,1.5-1,2.3-1.5.9-.4,1.7-.9,2.4-1.3.3-.9.7-1.8,1-2.8s.6-2.1.9-3.3c-.9,1.4-1.9,2.5-2.9,3.4-1,.9-2.1,1.4-3.1,1.4s-1.6-.3-2.1-1c-.5-.7-.7-1.5-.7-2.6s.3-2.5.9-3.7c.6-1.2,1.4-2.2,2.5-3.1,1-.9,2.1-1.6,3.2-2.1s2.2-.8,3.2-.8,1.2.1,1.5.4.5.5.5.8,0,.4-.2.5c-.1.1-.2.2-.3.2-.1-.2-.3-.3-.6-.4-.2,0-.6-.1-.9-.1-1,0-1.9.3-2.8.9s-1.7,1.3-2.4,2.2c-.7.9-1.2,1.8-1.6,2.8-.4,1-.6,1.8-.6,2.6s.1,1,.4,1.4c.2.3.5.5.9.5.7,0,1.6-.5,2.6-1.4,1-.9,2-2.1,2.9-3.5,0-.3.1-.7.2-.9,0-.3.1-.6.2-1,0-.3.3-.7.5-1.2.3-.5.7-.7,1.4-.7s.2,0,.4,0c.1,0,.3,0,.4,0,0,.4-.1,1.1-.4,2.2-.2,1-.6,2.3-1,3.7-.4,1.4-.9,2.8-1.5,4.3.8-.4,1.6-.9,2.4-1.5.8-.6,1.5-1.3,2.1-2.1.6-.8,1.1-1.7,1.5-2.6l.5.4c-.4,1.1-1,2.1-1.8,3-.8.9-1.7,1.7-2.6,2.4s-1.8,1.2-2.5,1.6c-.7,1.7-1.4,3.2-2.2,4.5-.8,1.4-1.6,2.5-2.4,3.3-.8.8-1.7,1.2-2.6,1.2Zm-.1-1.2c.5,0,1.2-.5,2-1.5.9-1,1.8-2.6,2.8-5-1,.5-1.9,1-2.8,1.5s-1.5,1.1-2.1,1.7-.8,1.2-.8,2,0,.7.3.9c.2.2.4.4.6.4Z"/>
        <path d="m117.3,186.7c-.8,0-1.5-.4-2-1.1-.5-.8-.8-1.6-.8-2.6s.1-1.5.4-2.5c.2-.9.5-1.9.9-2.8.3-.9.7-1.7,1.1-2.3.4-.6.7-.9,1-.9s.3,0,.6.2.5.3.7.5c-.3.4-.6,1.1-1,1.9-.4.9-.7,1.8-1,2.8s-.4,1.9-.4,2.7,0,.5,0,.9.2.8.4,1.1.5.5.9.5,1-.2,1.4-.7c.5-.5,1-1.1,1.5-1.9.5-.8,1-1.6,1.5-2.5.5-.9.9-1.7,1.3-2.6.4-.8.7-1.5,1-2,.1,0,.4,0,.6.1.3,0,.5.2.8.3.2.1.4.3.4.5s-.1.4-.4,1c-.2.6-.5,1.2-.9,2-.3.8-.6,1.6-.9,2.4-.2.8-.4,1.5-.4,2.1s0,.8.3,1.1c.2.3.5.4.9.4s1.1-.2,1.9-.7c.7-.5,1.5-1.2,2.3-2.1.8-.9,1.4-2,2-3.2l.5.3c-.5,1.3-1.2,2.5-2,3.5-.8,1-1.7,1.8-2.7,2.4-.9.6-1.9.9-2.7.9s-1.2-.1-1.5-.4c-.4-.2-.7-.6-.8-1-.2-.4-.2-.9-.2-1.4s0-.6,0-.9c0-.3.1-.6.2-.9-.4.8-.9,1.6-1.4,2.3-.5.7-1.1,1.3-1.6,1.7-.6.4-1.2.6-1.8.6Z"/>
        <path d="m134.7,187.2c-1.5,0-2.6-.4-3.4-1.2s-1.1-1.8-1.1-3.1.3-2.3.8-3.5,1.3-2.4,2.2-3.5c.9-1.1,1.9-2,3.1-2.6,1.1-.7,2.2-1,3.3-1s1.1.1,1.6.4c.5.3.7.9.7,1.8s-.3,1.8-.8,2.6c-.6.8-1.3,1.6-2.2,2.2s-1.9,1.2-3,1.6c-1.1.4-2.1.7-3.2.8,0,.2,0,.5-.1.7,0,.2,0,.4,0,.6,0,.4,0,.7.1,1.1,0,.4.2.7.5,1,.2.3.5.5.9.7.4.2.9.3,1.4.3,1.1,0,2.1-.3,3.1-.9s2-1.4,2.9-2.4c.9-1,1.6-2.1,2.3-3.3l.4.3c-.7,1.5-1.5,2.8-2.5,3.8-1,1.1-2.1,1.9-3.3,2.5-1.2.6-2.4.9-3.6.9Zm-1.8-6.2c.7-.2,1.4-.5,2.3-1,.8-.4,1.6-.9,2.4-1.5.8-.6,1.4-1.2,1.9-2,.5-.7.8-1.5.8-2.3s0-.5-.1-.6c0-.1-.3-.2-.6-.2-.6,0-1.2.2-1.9.7s-1.3,1.1-1.9,1.8c-.6.7-1.2,1.6-1.7,2.4-.5.9-.9,1.8-1.1,2.7Z"/>
        <path d="m146.9,187.5c-1.2,0-2.1-.3-2.8-.8-.7-.5-1.2-1.1-1.4-1.9-.3-.7-.4-1.5-.4-2.2s0-1.3.3-1.7c.2-.4.4-.7.7-.9s.6-.3.8-.4c.3,0,.4-.2.5-.3.7-.8,1.4-1.7,2-2.6.6-.9,1.2-1.8,1.6-2.8v-.4c0-.9.2-1.6.5-1.9.3-.4.6-.6,1-.6s.3,0,.4.1.1.2.1.3,0,.3-.1.6-.1.6-.1,1c0,.8.2,1.7.5,2.6.3,1,.6,1.9,1,3s.5,2.1.5,3.3,0,.6,0,.9,0,.6-.2.9c.9-.1,1.7-.5,2.4-1.2s1.5-1.6,2.2-3l.3.4c-.5,1.4-1.2,2.4-2.1,3.1-.9.7-2,1.1-3.1,1.3-.4,1.1-1,1.8-1.9,2.3-.9.5-1.8.7-2.9.7Zm0-1.3c.3,0,.7,0,1.2-.3s.9-.7,1.1-1.5c-1-.2-2-.6-2.8-1.2-.8-.6-1.4-1.2-1.8-1.8-.5,0-.8.5-.8,1.3s.3,1.7.8,2.5c.5.8,1.3,1.1,2.2,1.1Zm2.5-2.4c0-.2,0-.5.1-.8s0-.6,0-1c0-1.2-.1-2.3-.4-3.5-.3-1.1-.5-2.2-.7-3.2-.6.9-1.2,1.8-1.8,2.7-.6.9-1.2,1.6-1.8,2.1.4.8.9,1.5,1.7,2.2s1.7,1.2,2.9,1.4Z"/>
        <path d="m167.6,186.7c-.4,0-.8-.1-1.3-.3-.4-.2-.8-.5-1.1-1-.3-.5-.4-1.1-.4-1.8s.2-1.7.6-2.7c.4-1,.9-2,1.6-3s1.4-1.9,2.3-2.8c.9-.9,1.8-1.5,2.7-2,.9-.5,1.9-.8,2.8-.8s.9,0,1.2.3c.3.2.4.5.4.9s0,.2,0,.3c0,0,0,.2,0,.3-.1-.2-.3-.3-.5-.4-.2,0-.5-.1-.9-.1-.8,0-1.6.2-2.3.7-.8.5-1.4,1.1-2.1,1.9-.6.8-1.2,1.6-1.6,2.5-.5.9-.8,1.7-1.1,2.6s-.4,1.5-.4,2.1.1,1,.4,1.3c.2.3.6.5,1,.5.7,0,1.5-.4,2.4-1.3.9-.8,1.9-2,2.9-3.6,1-1.5,1.9-3.3,2.7-5.4.5-1.4,1.1-2.9,1.7-4.4.6-1.5,1.2-2.9,1.8-4.3.6-1.4,1.2-2.6,1.7-3.7s1.1-1.9,1.6-2.6,1-.9,1.4-.9.4,0,.5.2c.1.2.2.4.2.6,0,.4-.2,1.1-.6,2-.4,1-.9,2.1-1.6,3.4-.7,1.3-1.3,2.8-2.1,4.3-.7,1.6-1.4,3.1-2.1,4.7-.7,1.6-1.2,3.2-1.6,4.6-.4,1.5-.6,2.9-.6,4.1s0,1.2.1,1.6c0,.3.3.5.7.5s1.1-.2,1.8-.7c.7-.4,1.4-1.1,2.1-1.9.7-.8,1.3-1.8,1.8-2.9l.4.3c-.5,1.3-1.1,2.4-1.9,3.4-.8,1-1.7,1.8-2.6,2.4s-1.8.9-2.6.9-1.5-.3-1.9-.9c-.4-.6-.5-1.2-.5-1.9s0-1,.2-1.7c.1-.7.3-1.5.5-2.3-.8,1.3-1.6,2.5-2.5,3.5s-1.8,1.9-2.6,2.5c-.9.6-1.7.9-2.4.9Z"/>
        <path d="m184.7,187.3c-.8,0-1.4-.3-1.9-.8-.5-.5-.8-1.3-.8-2.3s.2-1.8.6-2.9.9-2,1.6-3,1.5-1.9,2.3-2.7c.9-.8,1.8-1.5,2.8-2,1-.5,1.9-.7,2.9-.7s1.8.3,2.4.8c.6.5,1,1.2,1,2s-.2,1-.5,1.3c-.3.2-.8.3-1.3.3,0-.2,0-.4.1-.6,0-.2,0-.4,0-.6,0-.6-.1-1.1-.4-1.5-.3-.4-.7-.6-1.4-.6s-1.4.2-2.1.7c-.7.5-1.4,1.1-2.1,1.9-.7.8-1.3,1.7-1.8,2.6-.5.9-.9,1.9-1.2,2.8-.3.9-.4,1.7-.4,2.4s.3,1.4,1,1.4,1.2-.3,1.9-.8,1.3-1.2,2.1-2c.7-.8,1.4-1.7,2-2.6.6-.9,1.2-1.7,1.7-2.4,0-.1.2-.2.2-.2.1,0,.3,0,.6.1.2,0,.4.2.6.3.2.1.3.3.3.5s-.1.5-.3.9c-.2.4-.5.8-.7,1.3-.3.5-.5,1-.7,1.5-.2.5-.3,1-.3,1.4s0,.7.3,1.1c.2.4.5.5,1,.5.7,0,1.5-.5,2.6-1.5,1.1-1,2.2-2.4,3.3-4.4l.4.4c-.5,1.3-1.2,2.5-2,3.5-.8,1-1.7,1.8-2.6,2.4s-1.8.9-2.7.9-1.6-.3-2-.8-.6-1.1-.6-1.8,0-.3,0-.5c0-.2,0-.4,0-.6-1.1,1.4-2,2.5-2.9,3.2-.9.7-1.8,1.1-2.7,1.1Z"/>
        <path d="m211,186.3c-.9,0-1.5-.2-1.9-.7-.4-.4-.6-1-.6-1.7s0-1.1.3-1.6c.2-.6.4-1.2.5-1.8.2-.6.3-1.2.3-1.8s-.1-1.2-.4-1.4c-.3-.3-.6-.4-1.1-.4-.8,0-1.5.3-2.3.9-.8.6-1.6,1.4-2.3,2.4s-1.4,2-2.1,3-1.2,2-1.7,2.8c-.4,0-.8,0-1.1-.2-.4-.1-.6-.3-.8-.6,0-.1.1-.5.4-1.1.3-.6.6-1.4.9-2.4.3-.9.7-1.9.9-2.9.3-1,.4-1.9.4-2.7.1-.2.4-.3.7-.5s.7-.3,1-.3c.7,0,1,.3,1,1s-.1,1.1-.3,2-.5,1.9-.9,2.9c.7-1,1.4-2,2.2-3,.8-1,1.7-1.8,2.6-2.5s1.9-1,2.8-1,1.7.3,2.1,1,.6,1.5.6,2.3-.1,1.5-.4,2.1c-.2.7-.5,1.3-.8,1.9-.3.6-.4,1.2-.4,1.8s.1.9.3,1.1c.2.2.5.3.8.3.6,0,1.2-.3,1.9-.9.6-.6,1.2-1.3,1.8-2.2.6-.9,1.1-1.8,1.5-2.7l.4.5c-.5,1.2-1.1,2.3-1.7,3.2-.6.9-1.3,1.7-2.1,2.2-.8.5-1.6.8-2.6.8Z"/>
        <path d="m220.1,187.5c-1.2,0-2.1-.3-2.8-.8-.7-.5-1.2-1.1-1.4-1.9-.3-.7-.4-1.5-.4-2.2s0-1.3.3-1.7c.2-.4.4-.7.7-.9s.6-.3.8-.4c.3,0,.4-.2.5-.3.7-.8,1.4-1.7,2-2.6.6-.9,1.2-1.8,1.6-2.8v-.4c0-.9.2-1.6.5-1.9.3-.4.6-.6,1-.6s.3,0,.4.1.1.2.1.3,0,.3-.1.6-.1.6-.1,1c0,.8.2,1.7.5,2.6.3,1,.6,1.9,1,3s.5,2.1.5,3.3,0,.6,0,.9,0,.6-.2.9c.9-.1,1.7-.5,2.4-1.2s1.5-1.6,2.2-3l.3.4c-.5,1.4-1.2,2.4-2.1,3.1-.9.7-2,1.1-3.1,1.3-.4,1.1-1,1.8-1.9,2.3-.9.5-1.8.7-2.9.7Zm0-1.3c.3,0,.7,0,1.2-.3s.9-.7,1.1-1.5c-1-.2-2-.6-2.8-1.2-.8-.6-1.4-1.2-1.8-1.8-.5,0-.8.5-.8,1.3s.3,1.7.8,2.5c.5.8,1.3,1.1,2.2,1.1Zm2.5-2.4c0-.2,0-.5.1-.8s0-.6,0-1c0-1.2-.1-2.3-.4-3.5-.3-1.1-.5-2.2-.7-3.2-.6.9-1.2,1.8-1.8,2.7-.6.9-1.2,1.6-1.8,2.1.4.8.9,1.5,1.7,2.2s1.7,1.2,2.9,1.4Z"/>
        <path d="m241.7,186.7c-1.1,0-1.8-.4-2.3-1.1-.5-.7-.7-1.6-.7-2.7s.2-2.6.7-4.2c.4-1.6,1-3.3,1.8-5.1s1.5-3.6,2.4-5.3c.9-1.7,1.7-3.3,2.6-4.7.9-1.4,1.7-2.5,2.4-3.4s1.3-1.3,1.7-1.3.5.2.7.5c.2.3.3.7.4,1.1,0,.4.1.8.1,1.2,0,.7-.2,1.5-.5,2.6-.3,1.1-.8,2.3-1.4,3.6s-1.3,2.7-2.1,4c-.8,1.3-1.7,2.6-2.7,3.9-1,1.2-2,2.3-3.1,3.2-.1.7-.3,1.3-.4,1.9,0,.6-.1,1.2-.1,1.8,0,1,.1,1.7.4,2.1.3.5.7.7,1.2.7s1.3-.3,2-.9,1.3-1.3,1.9-2.2c.6-.9,1.1-1.8,1.5-2.8l.6.3c-1,2.1-2.1,3.8-3.2,5s-2.4,1.8-3.7,1.8Zm.3-9c.9-.9,1.7-1.9,2.5-3,.8-1.1,1.6-2.3,2.3-3.5.7-1.2,1.3-2.4,1.9-3.5.5-1.1,1-2.2,1.3-3.1.3-.9.4-1.6.4-2.1s0-.4,0-.5-.1-.1-.2-.1c-.2,0-.5.3-1,.9-.5.6-1,1.5-1.7,2.5-.6,1.1-1.3,2.3-2,3.6-.7,1.4-1.3,2.8-1.9,4.3-.6,1.5-1.1,2.9-1.5,4.4Z"/>
        <path d="m251.4,187.2c-1.5,0-2.6-.4-3.4-1.2s-1.1-1.8-1.1-3.1.3-2.3.8-3.5,1.3-2.4,2.2-3.5c.9-1.1,1.9-2,3.1-2.6,1.1-.7,2.2-1,3.3-1s1.1.1,1.6.4c.5.3.7.9.7,1.8s-.3,1.8-.8,2.6c-.6.8-1.3,1.6-2.2,2.2s-1.9,1.2-3,1.6c-1.1.4-2.1.7-3.2.8,0,.2,0,.5-.1.7,0,.2,0,.4,0,.6,0,.4,0,.7.1,1.1,0,.4.2.7.5,1,.2.3.5.5.9.7.4.2.9.3,1.4.3,1.1,0,2.1-.3,3.1-.9s2-1.4,2.9-2.4c.9-1,1.6-2.1,2.3-3.3l.4.3c-.7,1.5-1.5,2.8-2.5,3.8-1,1.1-2.1,1.9-3.3,2.5-1.2.6-2.4.9-3.6.9Zm-1.8-6.2c.7-.2,1.4-.5,2.3-1,.8-.4,1.6-.9,2.4-1.5.8-.6,1.4-1.2,1.9-2,.5-.7.8-1.5.8-2.3s0-.5-.1-.6c0-.1-.3-.2-.6-.2-.6,0-1.2.2-1.9.7s-1.3,1.1-1.9,1.8c-.6.7-1.2,1.6-1.7,2.4-.5.9-.9,1.8-1.1,2.7Z"/>
        <path d="m288,186.7c-.9,0-1.5-.3-1.9-.8s-.6-1.2-.6-1.9,0-1.2.3-1.9c.2-.6.4-1.2.6-1.8.2-.6.3-1.1.3-1.6s-.1-.8-.3-1c-.2-.2-.5-.3-.7-.3-.6,0-1.3.5-2,1.4s-1.7,2.3-2.8,4.1c-.4.6-.7,1.2-1,1.8-.3.6-.5,1.2-.8,1.6-.2,0-.4,0-.7,0-.3,0-.6-.1-.8-.2-.2-.1-.4-.3-.4-.4s.1-.6.4-1.2c.2-.7.5-1.4.8-2.3.3-.9.6-1.8.8-2.7.2-.9.4-1.7.4-2.3s0-.8-.2-1c-.1-.3-.4-.4-.7-.4-.5,0-1.2.3-2,1s-1.6,1.5-2.4,2.6c-.8,1.1-1.6,2.2-2.3,3.5-.7,1.3-1.3,2.5-1.8,3.8-.2,0-.5,0-.8-.1-.3,0-.6-.2-.8-.3s-.4-.2-.4-.4.1-.6.4-1.3c.3-.7.6-1.6.9-2.6.3-1,.6-2.1.9-3.1.3-1.1.4-2,.4-2.8.1-.2.4-.3.7-.5s.7-.3,1-.3.6,0,.8.3c.2.2.2.4.2.7s0,.9-.3,1.6c-.2.8-.4,1.6-.7,2.6.5-.8,1.1-1.6,1.7-2.4.6-.8,1.3-1.6,2-2.3s1.4-1.3,2.1-1.7c.7-.4,1.4-.6,2.1-.6s1.3.3,1.6.8c.3.6.4,1.2.4,2s0,1.3-.2,1.9c-.1.7-.3,1.3-.5,1.9-.2.6-.3,1-.5,1.4.5-.9,1.1-1.8,1.7-2.7.6-.9,1.3-1.6,2.1-2.1.7-.6,1.5-.8,2.4-.8s1.3.2,1.6.7.5,1,.5,1.7-.1,1.3-.3,2.1c-.2.8-.5,1.5-.7,2.2-.2.7-.4,1.3-.4,1.8s0,.6.2.9c.2.3.5.4.9.4.7,0,1.3-.3,1.9-.9.6-.6,1.2-1.4,1.7-2.3.5-.9,1-1.8,1.3-2.6l.4.5c-.4,1-.9,2.1-1.5,3.1-.6,1-1.3,1.9-2.2,2.5s-1.7,1-2.7,1Z"/>
        <path d="m295.8,186.7c-1.1,0-1.8-.3-2.3-1s-.7-1.4-.7-2.4.1-1.6.4-2.4c.2-.8.6-1.6,1-2.3s.9-1.3,1.4-1.7c.5-.4,1-.7,1.5-.7s.3,0,.4,0,.3,0,.4.1c-.2.2-.5.6-.8,1.1-.3.5-.6,1.1-.9,1.8s-.5,1.4-.7,2-.3,1.2-.3,1.7c0,.7.1,1.3.4,1.6.2.3.6.5,1,.5s1.1-.3,1.8-.8c.7-.6,1.4-1.3,2.1-2.1-.7-.6-1.2-1.3-1.6-2.2-.4-.9-.6-1.9-.6-2.8s.1-1.6.4-2.3c.3-.7.7-1.3,1.2-1.7.5-.4,1.2-.6,2-.6s1.7.3,2,.8c.3.5.5,1.2.5,2s-.2,2-.7,3.2c-.5,1.2-1.1,2.3-1.8,3.4.4.2.9.4,1.4.4s.8,0,1.3-.2c.5-.2,1-.4,1.5-.8.5-.4.9-.9,1.2-1.6l.4.4c-.5,1.2-1.2,2-2.1,2.5-.9.5-1.8.7-2.6.7s-.6,0-.9,0c-.3,0-.6-.2-.9-.3-.8,1.1-1.8,2-2.8,2.8-1,.7-2,1.1-2.9,1.1Zm5.4-5.4c.6-.9,1.1-1.9,1.5-2.9s.6-1.9.6-2.8-.1-1.2-.3-1.6-.5-.5-.8-.5c-.5,0-1,.4-1.5,1.1-.5.7-.8,1.6-.8,2.7s.1,1.4.3,2.2c.2.7.5,1.3.9,1.8Z"/>
        <path d="m318.7,186.3c-.9,0-1.5-.2-1.9-.7-.4-.4-.6-1-.6-1.7s0-1.1.3-1.6c.2-.6.4-1.2.5-1.8.2-.6.3-1.2.3-1.8s-.1-1.2-.4-1.4c-.3-.3-.6-.4-1.1-.4-.8,0-1.5.3-2.3.9-.8.6-1.6,1.4-2.3,2.4s-1.4,2-2.1,3-1.2,2-1.7,2.8c-.4,0-.8,0-1.1-.2-.4-.1-.6-.3-.8-.6,0-.1.1-.5.4-1.1.3-.6.6-1.4.9-2.4.3-.9.7-1.9.9-2.9.3-1,.4-1.9.4-2.7.1-.2.4-.3.7-.5s.7-.3,1-.3c.7,0,1,.3,1,1s-.1,1.1-.3,2-.5,1.9-.9,2.9c.7-1,1.4-2,2.2-3,.8-1,1.7-1.8,2.6-2.5s1.9-1,2.8-1,1.7.3,2.1,1,.6,1.5.6,2.3-.1,1.5-.4,2.1c-.2.7-.5,1.3-.8,1.9-.3.6-.4,1.2-.4,1.8s.1.9.3,1.1c.2.2.5.3.8.3.6,0,1.2-.3,1.9-.9.6-.6,1.2-1.3,1.8-2.2.6-.9,1.1-1.8,1.5-2.7l.4.5c-.5,1.2-1.1,2.3-1.7,3.2-.6.9-1.3,1.7-2.1,2.2-.8.5-1.6.8-2.6.8Z"/>
        <path d="m326.1,186.7c-.4,0-.8-.1-1.3-.3-.4-.2-.8-.5-1.1-1-.3-.5-.4-1.1-.4-1.8s.2-1.7.6-2.7c.4-1,.9-2,1.6-3s1.4-1.9,2.3-2.8c.9-.9,1.8-1.5,2.7-2,.9-.5,1.9-.8,2.8-.8s.9,0,1.2.3c.3.2.4.5.4.9s0,.2,0,.3c0,0,0,.2,0,.3-.1-.2-.3-.3-.5-.4-.2,0-.5-.1-.9-.1-.8,0-1.6.2-2.3.7-.8.5-1.4,1.1-2.1,1.9-.6.8-1.2,1.6-1.6,2.5-.5.9-.8,1.7-1.1,2.6s-.4,1.5-.4,2.1.1,1,.4,1.3c.2.3.6.5,1,.5.7,0,1.5-.4,2.4-1.3.9-.8,1.9-2,2.9-3.6,1-1.5,1.9-3.3,2.7-5.4.5-1.4,1.1-2.9,1.7-4.4.6-1.5,1.2-2.9,1.8-4.3.6-1.4,1.2-2.6,1.7-3.7s1.1-1.9,1.6-2.6,1-.9,1.4-.9.4,0,.5.2c.1.2.2.4.2.6,0,.4-.2,1.1-.6,2-.4,1-.9,2.1-1.6,3.4-.7,1.3-1.3,2.8-2.1,4.3-.7,1.6-1.4,3.1-2.1,4.7-.7,1.6-1.2,3.2-1.6,4.6-.4,1.5-.6,2.9-.6,4.1s0,1.2.1,1.6c0,.3.3.5.7.5s1.1-.2,1.8-.7c.7-.4,1.4-1.1,2.1-1.9.7-.8,1.3-1.8,1.8-2.9l.4.3c-.5,1.3-1.1,2.4-1.9,3.4-.8,1-1.7,1.8-2.6,2.4s-1.8.9-2.6.9-1.5-.3-1.9-.9c-.4-.6-.5-1.2-.5-1.9s0-1,.2-1.7c.1-.7.3-1.5.5-2.3-.8,1.3-1.6,2.5-2.5,3.5s-1.8,1.9-2.6,2.5c-.9.6-1.7.9-2.4.9Z"/>
        <path d="m345.5,187.2c-1.5,0-2.6-.4-3.4-1.2s-1.1-1.8-1.1-3.1.3-2.3.8-3.5,1.3-2.4,2.2-3.5c.9-1.1,1.9-2,3.1-2.6,1.1-.7,2.2-1,3.3-1s1.1.1,1.6.4c.5.3.7.9.7,1.8s-.3,1.8-.8,2.6c-.6.8-1.3,1.6-2.2,2.2s-1.9,1.2-3,1.6c-1.1.4-2.1.7-3.2.8,0,.2,0,.5-.1.7,0,.2,0,.4,0,.6,0,.4,0,.7.1,1.1,0,.4.2.7.5,1,.2.3.5.5.9.7.4.2.9.3,1.4.3,1.1,0,2.1-.3,3.1-.9s2-1.4,2.9-2.4c.9-1,1.6-2.1,2.3-3.3l.4.3c-.7,1.5-1.5,2.8-2.5,3.8-1,1.1-2.1,1.9-3.3,2.5-1.2.6-2.4.9-3.6.9Zm-1.8-6.2c.7-.2,1.4-.5,2.3-1,.8-.4,1.6-.9,2.4-1.5.8-.6,1.4-1.2,1.9-2,.5-.7.8-1.5.8-2.3s0-.5-.1-.6c0-.1-.3-.2-.6-.2-.6,0-1.2.2-1.9.7s-1.3,1.1-1.9,1.8c-.6.7-1.2,1.6-1.7,2.4-.5.9-.9,1.8-1.1,2.7Z"/>
      </g>
    </g>
  </g>
</svg>