<?xml version="1.0" encoding="UTF-8"?>
<svg id="Calque_2" data-name="Calque 2" xmlns="http://www.w3.org/2000/svg" viewBox="0 0 186.75 256.46">
  <defs>
    <style>
      .cls-1intro {
        fill: #ce4323;
        stroke: #710000;
        stroke-width: 8px;
      }

      .cls-1intro, .cls-2intro, .cls-3intro {
        stroke-miterlimit: 10;
      }

      .cls-2intro {
        stroke-width: 5px;
      }

      .cls-2intro, .cls-3intro {
        fill: #e49886;
        stroke: #da7058;
      }

      .cls-3intro {
        stroke-width: 6px;
      }
    </style>
  </defs>
  <g id="goutteSang">
    <path class="cls-1intro" d="m129.29,183.19c4.85,47.09-28.05,69.28-62.65,69.28S4,221.45,4,183.19,64.33.88,66.65,41.2c5.13,89.43,58.05,97.32,62.65,141.98Z"/>
    <path class="cls-1intro" d="m106.4,89.65c-2.95,27.06,17.09,39.81,38.17,39.81s38.17-17.82,38.17-39.81S145.98-15.12,144.57,8.05c-3.13,51.39-35.37,55.93-38.17,81.59Z"/>
    <path class="cls-3intro" d="m39.49,193.31c8.83,28.23,33.35,54.68-5.03,27.97-3.89-2.7-13.02-19.04-13.02-35.62s3.84-30.01,8.57-30.01,4.53,21.83,9.48,37.65Z"/>
    <path class="cls-3intro" d="m82.22,239.66c-5.34,2.23-11.27.21-13.25-4.52s.75-10.37,6.09-12.6,14.07-5.77,16.04-1.04c1.98,4.73-3.55,15.94-8.89,18.17Z"/>
    <path class="cls-2intro" d="m160.73,95.22c-5.52,14.4-20.83,27.88,3.14,14.27,2.43-1.38,8.13-9.71,8.13-18.16s-2.4-15.3-5.36-15.3-2.83,11.13-5.92,19.2Z"/>
    <path class="cls-2intro" d="m134.03,119.09c3.34,1.14,7.04.11,8.27-2.31s-.47-5.29-3.81-6.43-8.79-2.94-10.02-.53,2.22,8.13,5.55,9.26Z"/>
  </g>
</svg>