<?xml version="1.0" encoding="UTF-8"?>
<svg xmlns="http://www.w3.org/2000/svg" viewBox="0 0 362.16 265.55" aria-labelledby="libelleRetro1">
  <title id="libelleRetro1"> Composition du sang. Plasma: 55%. Globules blancs et plaquettes: 1%. Érythrocytes: 44% </title>
  <defs>
    <style>
      .cls-1rr0 {
        fill: #3f4247;
      }

      .cls-2rr0 {
        fill: #fff3c9;
        stroke: #edb550;
      }

      .cls-2rr0, .cls-3rr0, .cls-4rr0, .cls-5rr0, .cls-6rr0, .cls-7rr0, .cls-8rr0 {
        stroke-miterlimit: 10;
        stroke-width: 6px;
      }

      .cls-3rr0 {
        fill: #295cc0;
      }

      .cls-3rr0, .cls-5rr0 {
        stroke: #003474;
      }

      .cls-4rr0 {
        fill: #ce4323;
        stroke: #710000;
      }

      .cls-5rr0, .cls-7rr0, .cls-8rr0 {
        fill: none;
      }

      .cls-6rr0 {
        fill: #f0f2f9;
        stroke: #95a5d5;
      }

      .cls-7rr0 {
        stroke: #b3b3b3;
      }

      .cls-8rr0 {
        stroke: #3f4247;
      }
    </style>
  </defs>
  <g id="composantFiole">
    <line class="cls-7rr0" x1=".76" y1="219.54" x2="138.78" y2="219.54"/>
    <line class="cls-7rr0" x1="69.34" y1="106.14" x2="138.78" y2="106.14"/>
    <line class="cls-7rr0" x1="222.33" y1="165.56" x2="362.16" y2="165.56"/>
    <rect class="cls-2rr0" x="146.11" y="64.97" width="67.52" height="107.12"/>
    <rect class="cls-6rr0" x="145.64" y="159.2" width="68.64" height="19.22"/>
    <path class="cls-4rr0" d="m145.64,172.08h68.47v57.7c0,18.09-14.68,32.77-32.77,32.77h-2.93c-18.09,0-32.77-14.68-32.77-32.77v-57.7h0Z"/>
    <path class="cls-8rr0" d="m179.87,262.55h0c-18.83,0-34.24-15.41-34.24-34.24V49.76s68.47.52,68.47.52v178.55c0,18.3-15.41,33.71-34.24,33.71Z"/>
    <rect class="cls-3rr0" x="133.38" y="3" width="93.13" height="46.76" rx="12" ry="12"/>
    <path class="cls-5rr0" d="m163.09,4.07c0,25.79-.18,43.38-.54,46.5"/>
    <path class="cls-5rr0" d="m148.38,4.6c0,25.26-1.65,44.62-4.69,44.62"/>
    <path class="cls-5rr0" d="m211.77,5.4c0,25.26,1.61,43.82,3.61,43.82"/>
    <path class="cls-5rr0" d="m197.32,4.6c0,23.4-.07,44.08-.14,44.08"/>
    <path class="cls-5rr0" d="m179.94,5.4v44.89"/>
    <g>
      <path class="cls-1rr0" d="m83.22,89.66c0,1.59-.42,2.88-1.25,3.86-.89,1.04-2.12,1.57-3.69,1.57-.26,0-.66-.01-1.19-.04-.53-.03-.92-.04-1.19-.04-.28,0-.42.12-.42.36,0,.3.03.75.09,1.35.06.6.09,1.04.09,1.34,0,.15-.07.23-.21.23-.4,0-1-.01-1.8-.03-.8-.02-1.4-.03-1.8-.03-.19,0-.29-.1-.29-.29,0-.73.01-1.82.03-3.28.02-1.46.03-2.55.03-3.28,0-2.06-.09-4.23-.27-6.5v-.14c-.02-.12.08-.2.29-.23.51-.07,1.64-.1,3.39-.1,1.03,0,2.02.01,2.96.04,1.56.05,2.81.54,3.76,1.47.97.96,1.46,2.21,1.46,3.76Zm-3.93.16c0-1.53-.75-2.29-2.24-2.29-1.05,0-1.6.06-1.65.18-.05.09-.07.84-.07,2.27,0,.2,0,.5.02.9.02.4.02.7.02.9,0,.13.59.2,1.77.2,1.42,0,2.14-.72,2.14-2.16Z"/>
      <path class="cls-1rr0" d="m88.09,92.28c0,1.79,0,3.17.02,4.13,0,.15,0,.41.03.78.02.33.03.59.03.78,0,.14-.08.22-.25.25-.3.05-.83.08-1.6.08s-1.29-.03-1.51-.08c-.14-.03-.23-.12-.25-.27v-.42c0-.58,0-1.46.02-2.62.01-1.16.02-2.04.02-2.61,0-2.76,0-4.01,0-3.77-.02-1.45-.1-2.7-.25-3.75-.01-.07-.02-.13-.02-.17,0-.14.09-.22.26-.22h3.52c.16,0,.24.07.23.21v.18c-.18,2.84-.27,5.34-.27,7.52Z"/>
      <path class="cls-1rr0" d="m99.78,93.28c0,.51.03,1.26.09,2.25.06,1,.09,1.75.09,2.24,0,.26-.12.4-.34.42-.81.06-1.75.09-2.8.09-.12,0-.21-.19-.25-.57-.04-.38-.09-.57-.15-.58-.05.03-.12.08-.21.17-.74.74-1.52,1.11-2.36,1.11-1.28,0-2.34-.51-3.18-1.52-.79-.95-1.19-2.07-1.19-3.39,0-1.52.41-2.74,1.23-3.66.85-.96,2.02-1.44,3.51-1.44,1.03,0,1.84.36,2.44,1.08.03.03.05.05.07.05.06,0,.13-.16.2-.48.08-.32.17-.48.27-.48.24,0,.71.07,1.39.21.65.13,1.12.24,1.4.33.1.04.15.09.15.16,0,.03,0,.1-.03.21-.21,1.19-.32,2.45-.32,3.77Zm-3.17.06c0-.56-.18-1.02-.53-1.38-.35-.36-.81-.55-1.37-.55s-1.02.18-1.37.54c-.35.36-.52.82-.52,1.39,0,.53.18.99.55,1.37.37.38.81.57,1.34.57.56,0,1.01-.18,1.37-.55.35-.36.53-.83.53-1.39Z"/>
      <path class="cls-1rr0" d="m107.5,90.24c0,.07-.05.15-.15.27-.18-.05-.37-.07-.55-.07-.39,0-.71.09-.97.26-.32.2-.47.48-.47.84,0,.23.17.52.5.88.51.53.82.89.94,1.07.33.5.5,1.03.5,1.6,0,.33-.07.69-.2,1.06-.15.41-.34.72-.57.91-.49.42-1.05.77-1.7,1.06-.7.3-1.35.45-1.94.45-.13,0-.43-.36-.88-1.07-.46-.71-.68-1.15-.68-1.3,0-.06.04-.1.11-.11.46-.09.92-.17,1.39-.26.58-.18.87-.49.87-.91,0-.29-.17-.62-.5-1-.6-.66-.91-1.01-.94-1.05-.33-.47-.5-.97-.5-1.5,0-.98.5-1.82,1.5-2.51.89-.61,1.85-.92,2.87-.92.1,0,.36.35.78,1.06.41.71.62,1.12.62,1.24Z"/>
      <path class="cls-1rr0" d="m124.66,97.84c0,.23-.1.36-.3.38s-.68.04-1.46.04-1.3-.02-1.5-.06-.3-.2-.3-.48c0-.3,0-.75.03-1.35.02-.6.03-1.05.03-1.35,0-1.15-.01-1.97-.04-2.45-.04-.78-.41-1.17-1.11-1.17-.31,0-.62.13-.92.39-.31.26-.47.55-.51.86-.03.28-.04,1.08-.04,2.42,0,.31,0,.78.03,1.4.02.63.03,1.1.03,1.41,0,.22-.1.32-.29.32h-2.98c-.18,0-.28-.13-.28-.4,0-.31,0-.77.03-1.39.02-.62.03-1.08.03-1.4,0-.24,0-.61-.02-1.1-.01-.49-.02-.86-.02-1.11,0-.94-.36-1.41-1.07-1.41-.29,0-.6.11-.94.33-.37.24-.55.5-.55.77,0,.6,0,1.49,0,2.68,0,1.19,0,2.08,0,2.67,0,.16-.02.27-.06.31s-.14.07-.31.08c-.3.03-.76.04-1.4.04-.41,0-.88-.02-1.41-.06-.16-.01-.25-.04-.28-.07-.03-.03-.04-.13-.04-.3,0-.52,0-1.31,0-2.36,0-1.05,0-1.83,0-2.36,0-1.08-.08-2.29-.24-3.63-.01-.08-.02-.14-.02-.18,0-.11.05-.19.14-.23.14-.06.42-.11.82-.15.49-.05.78-.08.88-.09.07-.01.32-.08.78-.21.32-.09.58-.14.78-.14.12,0,.19.23.2.68,0,.46.03.68.08.68.07-.03.14-.07.23-.14.59-.46,1.06-.77,1.4-.95.51-.24,1.05-.36,1.64-.36s1.14.13,1.61.4c.53.3.88.73,1.03,1.27.35-.47.83-.87,1.44-1.19.61-.32,1.2-.48,1.78-.48.87,0,1.57.2,2.12.6.62.45.93,1.1.93,1.94,0,.35,0,.87-.03,1.57-.02.7-.03,1.22-.03,1.57,0,.41,0,1.04.03,1.87.02.83.03,1.45.03,1.87Z"/>
      <path class="cls-1rr0" d="m136.42,93.28c0,.51.03,1.26.09,2.25.06,1,.09,1.75.09,2.24,0,.26-.12.4-.34.42-.81.06-1.75.09-2.8.09-.12,0-.21-.19-.25-.57-.04-.38-.09-.57-.15-.58-.05.03-.12.08-.21.17-.74.74-1.52,1.11-2.36,1.11-1.28,0-2.34-.51-3.18-1.52-.79-.95-1.19-2.07-1.19-3.39,0-1.52.41-2.74,1.23-3.66.85-.96,2.02-1.44,3.51-1.44,1.03,0,1.84.36,2.44,1.08.03.03.05.05.07.05.06,0,.13-.16.2-.48.08-.32.17-.48.27-.48.24,0,.71.07,1.39.21.65.13,1.12.24,1.4.33.1.04.15.09.15.16,0,.03,0,.1-.03.21-.21,1.19-.32,2.45-.32,3.77Zm-3.17.06c0-.56-.18-1.02-.53-1.38-.35-.36-.81-.55-1.37-.55s-1.02.18-1.37.54c-.35.36-.52.82-.52,1.39,0,.53.18.99.55,1.37.37.38.81.57,1.34.57.56,0,1.01-.18,1.37-.55.35-.36.53-.83.53-1.39Z"/>
    </g>
    <g>
      <path class="cls-1rr0" d="m13.32,211.96c.01.18-.08.27-.28.27-.12,0-.48-.07-1.08-.22-.59-.14-.96-.24-1.1-.3-1.37.54-2.69.81-3.95.81-2.03,0-3.69-.68-4.99-2.03-1.29-1.33-1.93-3.02-1.93-5.05s.62-3.81,1.87-5.18c1.29-1.42,2.96-2.13,5.01-2.13,1,0,1.94.19,2.82.57.95.42,1.7,1.01,2.24,1.77.11.16.17.27.17.33,0,.21-.29.68-.88,1.41-.59.73-.97,1.1-1.14,1.1-.04,0-.19-.13-.45-.4-.32-.32-.65-.57-.98-.75-.5-.27-1.05-.4-1.65-.4-.98,0-1.77.37-2.34,1.1-.54.68-.81,1.52-.81,2.53,0,1.07.28,1.92.84,2.54.58.64,1.39.96,2.45.96.67,0,1.42-.17,2.24-.5-.02-.22-.08-.77-.18-1.65-.09-.68-.13-1.23-.13-1.65,0-.12.04-.2.13-.23.03-.01.09-.02.16-.02.19,0,.48.02.86.05.38.04.67.05.87.05.21,0,.52-.02.95-.04.42-.03.74-.04.95-.04.16,0,.25.11.25.33,0,.32-.02.79-.05,1.43-.04.64-.05,1.11-.05,1.43,0,.85.06,2.11.19,3.8v.11Z"/>
      <path class="cls-1rr0" d="m18.22,206.35c0,1.79,0,3.17.02,4.13,0,.15,0,.41.03.78.02.33.03.59.03.78,0,.14-.08.22-.25.25-.3.05-.83.08-1.6.08s-1.29-.03-1.51-.08c-.14-.03-.23-.12-.25-.27v-.42c0-.58,0-1.46.02-2.62.01-1.16.02-2.04.02-2.61,0-2.76,0-4.01,0-3.77-.02-1.45-.1-2.7-.25-3.75-.01-.07-.02-.13-.02-.17,0-.14.09-.22.26-.22h3.52c.16,0,.24.07.23.21v.18c-.18,2.84-.27,5.34-.27,7.52Z"/>
      <path class="cls-1rr0" d="m29.49,207.43c0,1.5-.46,2.71-1.37,3.64-.92.93-2.12,1.4-3.61,1.4s-2.63-.46-3.56-1.38c-.93-.92-1.4-2.1-1.4-3.54,0-1.52.45-2.76,1.34-3.71.89-.95,2.1-1.42,3.62-1.42s2.68.46,3.6,1.39c.92.93,1.38,2.14,1.38,3.62Zm-3.23,0c0-.52-.16-.98-.48-1.37-.32-.4-.74-.6-1.25-.6s-.95.2-1.28.61c-.32.38-.47.83-.47,1.36s.16.99.47,1.37c.33.41.76.61,1.28.61s.94-.2,1.27-.61c.31-.38.46-.84.46-1.37Z"/>
      <path class="cls-1rr0" d="m41.35,207.46c0,1.38-.39,2.53-1.18,3.46-.84.98-1.94,1.48-3.29,1.48-.98,0-1.78-.28-2.38-.85-.05-.04-.09-.06-.12-.06-.07,0-.13.12-.18.36-.06.24-.12.38-.2.4-.11.03-1.05.05-2.81.05-.41,0-.62-.08-.62-.23,0-.02,0-.07.02-.15.13-1.04.2-3.03.2-5.97s-.1-5.24-.3-7.32v-.11c0-.11.09-.16.3-.18.14,0,.72-.06,1.71-.15.7-.07,1.27-.1,1.71-.1.12,0,.19.11.19.33,0,.26-.02.59-.05,1.01-.04.52-.06.86-.07,1.02-.03.65-.05,1.54-.05,2.66,0,.2.05.31.16.31.05,0,.1-.03.15-.08.59-.63,1.37-.95,2.32-.95,1.44,0,2.56.49,3.37,1.47.75.91,1.12,2.1,1.12,3.57Zm-3.56-.11c0-.54-.17-1.01-.5-1.38-.33-.38-.77-.57-1.31-.57s-.99.19-1.3.57c-.32.38-.48.85-.48,1.4s.15,1.04.46,1.4c.33.37.77.56,1.34.56s1-.19,1.33-.58c.31-.36.46-.83.46-1.4Z"/>
      <path class="cls-1rr0" d="m52.69,203.33c0,.49-.02,1.21-.07,2.19-.05.97-.07,1.7-.07,2.19s.02,1.18.05,2.13c.03.95.05,1.65.05,2.12,0,.18-.08.29-.25.33-.25.07-.78.1-1.59.1-.72,0-1.21-.02-1.5-.06-.12-.02-.2-.1-.24-.24l-.06-.59c-.03-.3-.08-.45-.14-.45.09,0-.24.22-.99.67-.76.45-1.44.67-2.06.67-1.74,0-2.77-.78-3.09-2.35-.14-.73-.22-1.79-.22-3.17,0-1.5.12-2.68.36-3.54.07-.27.21-.4.4-.4.3,0,.76,0,1.38.01.62,0,1.08,0,1.38,0,.2,0,.31.09.31.26,0,.05,0,.12-.02.21-.14.89-.21,1.8-.21,2.72,0,1.14.04,1.92.11,2.34.12.72.55,1.08,1.29,1.08.29,0,.6-.13.94-.38s.51-.52.53-.8c.01-.24.02-1.89.02-4.94,0-.22.02-.34.05-.38.04-.07.16-.1.35-.1.32,0,.81,0,1.45.01s1.13,0,1.45,0c.2,0,.31.05.34.15.01.05.02.13.02.24Z"/>
      <path class="cls-1rr0" d="m57.9,206.35c0,1.79,0,3.17.02,4.13,0,.15,0,.41.03.78.02.33.03.59.03.78,0,.14-.08.22-.25.25-.3.05-.83.08-1.6.08s-1.29-.03-1.51-.08c-.14-.03-.23-.12-.25-.27v-.42c0-.58,0-1.46.02-2.62.01-1.16.02-2.04.02-2.61,0-2.76,0-4.01,0-3.77-.02-1.45-.1-2.7-.25-3.75-.01-.07-.02-.13-.02-.17,0-.14.09-.22.26-.22h3.52c.16,0,.24.07.23.21v.18c-.18,2.84-.27,5.34-.27,7.52Z"/>
      <path class="cls-1rr0" d="m68.72,206.93c0,.66-.21,1.04-.64,1.13-.07.01-.75.09-2.04.22-.77.09-1.93.19-3.47.31.09.43.37.75.84.97.38.18.81.28,1.3.28.58,0,1.17-.16,1.76-.47.25-.16.5-.32.75-.47.14.07.37.4.69,1,.33.6.49.99.49,1.15,0,.05-.05.12-.15.23-.8.86-2.04,1.29-3.73,1.29-1.56,0-2.82-.46-3.78-1.37-.98-.93-1.48-2.16-1.48-3.71s.44-2.75,1.32-3.71c.91-1,2.11-1.5,3.6-1.5,1.26,0,2.33.46,3.21,1.38.88.92,1.32,2.01,1.32,3.28Zm-3.45-.6c0-.41-.14-.76-.43-1.07-.29-.31-.63-.46-1.03-.46s-.76.17-1.02.52c-.25.32-.37.7-.37,1.13,0,.18.09.27.28.27.49,0,1.24-.08,2.26-.23.22-.03.32-.08.32-.16Z"/>
      <path class="cls-1rr0" d="m75.56,204.31c0,.07-.05.15-.15.27-.18-.05-.37-.07-.55-.07-.39,0-.71.09-.97.26-.32.2-.47.48-.47.84,0,.23.17.52.5.88.51.53.82.89.94,1.07.33.5.5,1.03.5,1.61,0,.33-.07.69-.2,1.06-.15.41-.34.72-.57.91-.49.42-1.05.77-1.7,1.06-.7.3-1.35.45-1.94.45-.13,0-.43-.36-.88-1.07s-.68-1.15-.68-1.3c0-.06.04-.1.11-.11.46-.09.92-.17,1.39-.26.58-.18.87-.49.87-.91,0-.29-.17-.62-.5-1-.6-.66-.91-1.01-.94-1.05-.33-.47-.5-.97-.5-1.5,0-.98.5-1.82,1.5-2.51.89-.61,1.85-.92,2.87-.92.1,0,.36.35.78,1.06.41.71.62,1.12.62,1.24Z"/>
      <path class="cls-1rr0" d="m88.55,206.14c0,.26-.14.38-.42.38-.12,0-.31,0-.55-.02-.24-.02-.42-.02-.54-.02-.54,0-.92.09-1.11.26s-.3.52-.3,1.03c0,.28,0,.71.01,1.29.01.57.01,1,.01,1.29,0,.19.01.47.04.85.03.38.04.66.04.84,0,.16-.11.25-.32.27-.32.03-.8.04-1.45.04s-1.12-.02-1.5-.06c-.22-.03-.32-.13-.32-.32,0-.52,0-1.31,0-2.36,0-1.05,0-1.83,0-2.36,0-1.54-.14-2.81-.42-3.81-.01-.06-.02-.11-.02-.15,0-.1.05-.16.15-.2.36-.04.89-.11,1.59-.22,1.04-.2,1.57-.3,1.6-.3.12,0,.19.21.23.62.03.41.09.62.18.62-.09,0,.18-.17.81-.52.63-.34,1.24-.52,1.82-.52.37,0,.55.08.55.24,0,.19-.02.46-.06.81-.04.37-.06.64-.07.81,0,.19,0,.44,0,.76.01.39.02.64.02.77Z"/>
      <path class="cls-1rr0" d="m99.17,207.43c0,1.5-.46,2.71-1.37,3.64-.92.93-2.12,1.4-3.61,1.4s-2.63-.46-3.56-1.38c-.93-.92-1.4-2.1-1.4-3.54,0-1.52.45-2.76,1.34-3.71.89-.95,2.1-1.42,3.62-1.42s2.68.46,3.6,1.39c.92.93,1.38,2.14,1.38,3.62Zm-3.23,0c0-.52-.16-.98-.48-1.37-.32-.4-.74-.6-1.25-.6s-.95.2-1.28.61c-.32.38-.47.83-.47,1.36s.16.99.47,1.37c.33.41.76.61,1.28.61s.94-.2,1.27-.61c.31-.38.46-.84.46-1.37Z"/>
      <path class="cls-1rr0" d="m110.5,203.33c0,.49-.02,1.21-.07,2.19-.05.97-.07,1.7-.07,2.19s.02,1.18.05,2.13c.03.95.05,1.65.05,2.12,0,.18-.08.29-.25.33-.25.07-.78.1-1.59.1-.72,0-1.21-.02-1.5-.06-.12-.02-.2-.1-.24-.24l-.06-.59c-.03-.3-.08-.45-.14-.45.09,0-.24.22-.99.67-.76.45-1.44.67-2.06.67-1.74,0-2.77-.78-3.09-2.35-.14-.73-.22-1.79-.22-3.17,0-1.5.12-2.68.36-3.54.07-.27.21-.4.4-.4.3,0,.76,0,1.38.01.62,0,1.08,0,1.38,0,.2,0,.31.09.31.26,0,.05,0,.12-.02.21-.14.89-.21,1.8-.21,2.72,0,1.14.04,1.92.11,2.34.12.72.55,1.08,1.29,1.08.29,0,.6-.13.94-.38s.51-.52.53-.8c.01-.24.02-1.89.02-4.94,0-.22.02-.34.05-.38.04-.07.16-.1.35-.1.32,0,.81,0,1.45.01s1.13,0,1.45,0c.2,0,.31.05.34.15.01.05.02.13.02.24Z"/>
      <path class="cls-1rr0" d="m121.93,209.72c0,1.87-.39,3.21-1.18,4.03-.81.83-2.17,1.25-4.06,1.25-.55,0-1.3-.09-2.25-.27-1.21-.22-1.82-.49-1.82-.79,0-.12.14-.77.42-1.93.05-.18.12-.28.22-.28.03,0,.07.02.11.04,1.01.5,1.95.75,2.81.75.47,0,.94-.12,1.41-.35.56-.28.85-.64.85-1.06v-.66c-.67.63-1.53.95-2.58.95-1.23,0-2.25-.44-3.04-1.33-.77-.85-1.15-1.9-1.15-3.15s.37-2.29,1.1-3.12c.77-.86,1.77-1.29,3.01-1.29.99,0,1.75.35,2.27,1.06.1.14.18.22.22.22.06,0,.09-.12.09-.35,0-.52.06-.79.18-.79.1,0,.67.05,1.7.16,1.03.11,1.57.17,1.6.18.11.04.17.12.17.26,0,.45-.01,1.13-.04,2.03-.03.9-.04,1.58-.04,2.03,0,.27,0,.67,0,1.21,0,.54,0,.94,0,1.21Zm-3.41-2.73c0-.48-.16-.89-.48-1.25-.32-.35-.72-.53-1.2-.53s-.88.18-1.2.54c-.32.36-.48.78-.48,1.26s.16.89.49,1.24c.32.35.72.52,1.19.52s.88-.18,1.2-.53c.32-.35.48-.77.48-1.25Z"/>
      <path class="cls-1rr0" d="m132.65,206.93c0,.66-.21,1.04-.64,1.13-.07.01-.75.09-2.04.22-.77.09-1.93.19-3.47.31.09.43.37.75.84.97.38.18.81.28,1.3.28.58,0,1.17-.16,1.76-.47.25-.16.5-.32.75-.47.14.07.37.4.69,1,.33.6.49.99.49,1.15,0,.05-.05.12-.15.23-.8.86-2.04,1.29-3.73,1.29-1.56,0-2.82-.46-3.78-1.37-.98-.93-1.48-2.16-1.48-3.71s.44-2.75,1.32-3.71c.91-1,2.11-1.5,3.6-1.5,1.26,0,2.33.46,3.21,1.38.88.92,1.32,2.01,1.32,3.28Zm-3.45-.6c0-.41-.14-.76-.43-1.07-.29-.31-.63-.46-1.03-.46s-.76.17-1.02.52c-.25.32-.37.7-.37,1.13,0,.18.09.27.28.27.49,0,1.24-.08,2.26-.23.22-.03.32-.08.32-.16Z"/>
      <path class="cls-1rr0" d="m139.49,204.31c0,.07-.05.15-.15.27-.18-.05-.37-.07-.55-.07-.39,0-.71.09-.97.26-.32.2-.47.48-.47.84,0,.23.17.52.5.88.51.53.82.89.94,1.07.33.5.5,1.03.5,1.61,0,.33-.07.69-.2,1.06-.15.41-.34.72-.57.91-.49.42-1.05.77-1.7,1.06-.7.3-1.35.45-1.94.45-.13,0-.43-.36-.88-1.07s-.68-1.15-.68-1.3c0-.06.04-.1.11-.11.46-.09.92-.17,1.39-.26.58-.18.87-.49.87-.91,0-.29-.17-.62-.5-1-.6-.66-.91-1.01-.94-1.05-.33-.47-.5-.97-.5-1.5,0-.98.5-1.82,1.5-2.51.89-.61,1.85-.92,2.87-.92.1,0,.36.35.78,1.06.41.71.62,1.12.62,1.24Z"/>
    </g>
    <g>
      <path class="cls-1rr0" d="m238.77,159.55c.01.18-.08.27-.28.27-.12,0-.48-.07-1.08-.22-.59-.14-.96-.24-1.1-.3-1.37.54-2.69.81-3.95.81-2.03,0-3.69-.68-4.99-2.03-1.29-1.33-1.93-3.02-1.93-5.05s.62-3.81,1.87-5.18c1.29-1.42,2.96-2.13,5.01-2.13,1,0,1.94.19,2.82.57.95.42,1.7,1.01,2.24,1.77.11.16.17.27.17.33,0,.21-.29.68-.88,1.41s-.97,1.1-1.14,1.1c-.04,0-.19-.13-.45-.4-.32-.32-.65-.57-.98-.75-.5-.27-1.05-.4-1.65-.4-.98,0-1.77.37-2.34,1.1-.54.68-.81,1.52-.81,2.53,0,1.07.28,1.92.84,2.54.58.64,1.39.96,2.45.96.67,0,1.42-.17,2.24-.5-.02-.22-.08-.77-.18-1.65-.09-.68-.13-1.23-.13-1.65,0-.12.04-.2.13-.23.03-.01.09-.02.16-.02.19,0,.48.02.86.05.38.04.67.05.87.05.21,0,.52-.01.95-.04.42-.03.74-.04.95-.04.16,0,.25.11.25.32,0,.32-.02.79-.05,1.43s-.05,1.11-.05,1.43c0,.85.06,2.11.19,3.8v.11Z"/>
      <path class="cls-1rr0" d="m243.66,153.94c0,1.79,0,3.17.02,4.13,0,.15,0,.41.03.78.02.33.03.59.03.78,0,.14-.08.22-.25.25-.3.05-.83.08-1.6.08s-1.29-.03-1.51-.08c-.14-.03-.23-.12-.25-.27v-.42c0-.58,0-1.46.02-2.62s.02-2.04.02-2.61c0-2.76,0-4.01.01-3.77-.02-1.45-.1-2.7-.25-3.75-.01-.07-.02-.13-.02-.17,0-.14.09-.22.26-.22h3.52c.16,0,.24.07.23.21v.18c-.18,2.84-.27,5.34-.27,7.52Z"/>
      <path class="cls-1rr0" d="m254.93,155.02c0,1.5-.46,2.71-1.37,3.64-.92.93-2.12,1.4-3.61,1.4s-2.63-.46-3.56-1.38-1.4-2.1-1.4-3.54c0-1.52.45-2.76,1.34-3.71s2.1-1.42,3.62-1.42,2.68.46,3.6,1.39,1.38,2.13,1.38,3.62Zm-3.23,0c0-.52-.16-.98-.48-1.37-.32-.4-.74-.6-1.25-.6s-.95.2-1.28.61c-.32.38-.47.83-.47,1.36s.16.99.47,1.37c.33.41.76.61,1.28.61s.94-.2,1.27-.61c.31-.38.46-.84.46-1.37Z"/>
      <path class="cls-1rr0" d="m266.8,155.05c0,1.38-.39,2.53-1.18,3.46-.84.98-1.94,1.48-3.29,1.48-.98,0-1.78-.28-2.38-.85-.05-.04-.09-.06-.12-.06-.07,0-.13.12-.18.36-.06.24-.12.38-.2.4-.11.03-1.05.05-2.81.05-.41,0-.62-.08-.62-.23,0-.02,0-.07.02-.15.13-1.04.2-3.03.2-5.97s-.1-5.24-.3-7.32v-.11c0-.1.09-.16.3-.18.14,0,.72-.06,1.71-.15.7-.07,1.27-.1,1.71-.1.12,0,.19.11.19.32,0,.26-.02.59-.05,1.01-.04.52-.06.86-.07,1.02-.03.65-.05,1.54-.05,2.66,0,.2.05.3.16.3.05,0,.1-.03.15-.08.59-.63,1.36-.95,2.32-.95,1.44,0,2.56.49,3.37,1.47.75.91,1.12,2.1,1.12,3.57Zm-3.56-.11c0-.54-.17-1.01-.5-1.38s-.77-.57-1.31-.57-.99.19-1.3.57-.48.85-.48,1.4.15,1.04.46,1.4c.33.37.77.56,1.34.56s1-.19,1.33-.58c.31-.36.46-.83.46-1.4Z"/>
      <path class="cls-1rr0" d="m278.13,150.92c0,.49-.02,1.21-.07,2.19-.05.97-.07,1.7-.07,2.19s.02,1.18.05,2.13c.03.95.05,1.65.05,2.12,0,.18-.08.29-.25.33-.25.07-.78.1-1.59.1-.72,0-1.21-.02-1.5-.06-.12-.02-.2-.1-.24-.24l-.06-.59c-.03-.3-.08-.45-.14-.45.09,0-.24.22-.99.67-.76.45-1.44.67-2.06.67-1.74,0-2.77-.78-3.09-2.35-.14-.73-.22-1.79-.22-3.17,0-1.5.12-2.68.36-3.54.07-.27.21-.4.4-.4.3,0,.76,0,1.38,0,.62,0,1.08.01,1.38.01.2,0,.31.09.31.26,0,.05,0,.11-.02.21-.14.89-.21,1.8-.21,2.72,0,1.14.04,1.92.11,2.34.12.72.55,1.08,1.29,1.08.29,0,.6-.13.94-.38s.51-.52.53-.8c.01-.24.02-1.89.02-4.94,0-.22.02-.34.05-.38.04-.07.16-.1.35-.1.32,0,.81,0,1.45,0,.65,0,1.13.01,1.45.01.2,0,.31.05.34.15.01.05.02.13.02.24Z"/>
      <path class="cls-1rr0" d="m283.34,153.94c0,1.79,0,3.17.02,4.13,0,.15,0,.41.03.78.02.33.03.59.03.78,0,.14-.08.22-.25.25-.3.05-.83.08-1.6.08s-1.29-.03-1.51-.08c-.14-.03-.23-.12-.25-.27v-.42c0-.58,0-1.46.02-2.62s.02-2.04.02-2.61c0-2.76,0-4.01.01-3.77-.02-1.45-.1-2.7-.25-3.75-.01-.07-.02-.13-.02-.17,0-.14.09-.22.26-.22h3.52c.16,0,.24.07.23.21v.18c-.18,2.84-.27,5.34-.27,7.52Z"/>
      <path class="cls-1rr0" d="m294.16,154.52c0,.66-.21,1.04-.64,1.13-.07.01-.75.09-2.04.22-.77.09-1.93.19-3.47.3.09.43.37.75.84.98.38.18.81.28,1.3.28.58,0,1.17-.16,1.76-.47.25-.16.5-.32.75-.47.14.07.37.4.69,1,.33.6.49.99.49,1.15,0,.05-.05.12-.15.23-.8.86-2.05,1.29-3.73,1.29-1.56,0-2.82-.46-3.78-1.37-.98-.93-1.48-2.16-1.48-3.71s.44-2.75,1.32-3.71c.91-1,2.11-1.5,3.6-1.5,1.26,0,2.33.46,3.21,1.38s1.32,2.01,1.32,3.28Zm-3.45-.6c0-.41-.14-.76-.43-1.07-.29-.31-.63-.46-1.03-.46s-.76.17-1.02.52c-.25.32-.37.7-.37,1.13,0,.18.09.27.28.27.49,0,1.24-.08,2.26-.23.22-.03.32-.09.32-.16Z"/>
      <path class="cls-1rr0" d="m301.01,151.9c0,.07-.05.15-.15.27-.18-.05-.37-.07-.55-.07-.39,0-.71.09-.97.26-.32.2-.47.48-.47.84,0,.23.17.52.5.88.51.53.82.89.94,1.07.33.5.5,1.03.5,1.6,0,.33-.07.69-.2,1.06-.15.41-.34.72-.57.91-.49.42-1.05.77-1.7,1.06-.7.3-1.35.45-1.94.45-.13,0-.42-.36-.88-1.07-.46-.71-.68-1.15-.68-1.3,0-.06.04-.1.11-.11.46-.08.92-.17,1.39-.26.58-.18.87-.49.87-.91,0-.29-.17-.62-.5-1-.6-.66-.91-1.01-.94-1.05-.33-.47-.5-.97-.5-1.5,0-.98.5-1.82,1.5-2.51.89-.61,1.85-.92,2.87-.92.1,0,.36.35.78,1.06s.62,1.12.62,1.24Z"/>
      <path class="cls-1rr0" d="m318.14,155.05c0,1.38-.39,2.53-1.18,3.46-.84.98-1.94,1.48-3.29,1.48-.98,0-1.78-.28-2.38-.85-.05-.04-.09-.06-.12-.06-.07,0-.13.12-.18.36-.06.24-.12.38-.2.4-.11.03-1.05.05-2.81.05-.41,0-.62-.08-.62-.23,0-.02,0-.07.02-.15.13-1.04.2-3.03.2-5.97s-.1-5.24-.3-7.32v-.11c0-.1.09-.16.3-.18.14,0,.72-.06,1.71-.15.7-.07,1.27-.1,1.71-.1.12,0,.19.11.19.32,0,.26-.02.59-.05,1.01-.04.52-.06.86-.07,1.02-.03.65-.05,1.54-.05,2.66,0,.2.05.3.16.3.05,0,.1-.03.15-.08.59-.63,1.36-.95,2.32-.95,1.44,0,2.56.49,3.37,1.47.75.91,1.12,2.1,1.12,3.57Zm-3.56-.11c0-.54-.17-1.01-.5-1.38s-.77-.57-1.31-.57-.99.19-1.3.57-.48.85-.48,1.4.15,1.04.46,1.4c.33.37.77.56,1.34.56s1-.19,1.33-.58c.31-.36.46-.83.46-1.4Z"/>
      <path class="cls-1rr0" d="m322.92,153.94c0,1.79,0,3.17.02,4.13,0,.15,0,.41.03.78.02.33.03.59.03.78,0,.14-.08.22-.25.25-.3.05-.83.08-1.6.08s-1.29-.03-1.51-.08c-.14-.03-.23-.12-.25-.27v-.42c0-.58,0-1.46.02-2.62s.02-2.04.02-2.61c0-2.76,0-4.01.01-3.77-.02-1.45-.1-2.7-.25-3.75-.01-.07-.02-.13-.02-.17,0-.14.09-.22.26-.22h3.52c.16,0,.24.07.23.21v.18c-.18,2.84-.27,5.34-.27,7.52Z"/>
      <path class="cls-1rr0" d="m334.62,154.94c0,.51.03,1.26.09,2.25.06,1,.09,1.75.09,2.24,0,.26-.12.4-.34.42-.81.06-1.75.09-2.8.09-.12,0-.21-.19-.25-.57s-.09-.57-.15-.58c-.05.03-.12.08-.21.17-.74.74-1.52,1.11-2.36,1.11-1.28,0-2.34-.51-3.18-1.52-.79-.95-1.19-2.07-1.19-3.39,0-1.52.41-2.74,1.23-3.66.85-.96,2.02-1.44,3.51-1.44,1.03,0,1.84.36,2.44,1.08.03.03.05.05.07.05.06,0,.13-.16.2-.48s.17-.48.27-.48c.24,0,.71.07,1.39.21.65.13,1.12.24,1.4.33.1.04.15.09.15.16,0,.03,0,.1-.03.21-.21,1.19-.32,2.45-.32,3.77Zm-3.17.06c0-.56-.18-1.02-.53-1.38-.35-.36-.81-.55-1.37-.55s-1.02.18-1.37.54c-.35.36-.52.82-.52,1.39,0,.53.18.99.55,1.37.37.38.81.57,1.34.57.56,0,1.01-.18,1.37-.55.35-.36.53-.83.53-1.39Z"/>
      <path class="cls-1rr0" d="m346.37,159.58c0,.18-.09.28-.28.31-.18.03-.66.04-1.44.04-.83,0-1.34-.02-1.54-.06s-.3-.17-.3-.4c0-.31.01-.77.03-1.4.02-.62.03-1.09.03-1.41,0-.24,0-.61-.02-1.09-.01-.48-.02-.85-.02-1.09,0-.9-.39-1.35-1.17-1.35-.26,0-.55.11-.9.33-.37.25-.55.5-.55.74v5.32c0,.22-.1.34-.3.36-.23.03-.7.04-1.41.04-.77,0-1.27-.02-1.5-.06-.2-.03-.3-.14-.3-.33,0-.51,0-1.28,0-2.31s.01-1.8.01-2.32c0-1.63-.13-2.92-.38-3.85-.01-.06-.02-.11-.02-.15,0-.11.05-.18.15-.22.41-.05.96-.12,1.65-.22,1.04-.2,1.63-.31,1.76-.31.07,0,.13.22.17.67.04.44.1.66.17.66-.07,0,.28-.23,1.06-.68.78-.46,1.46-.68,2.04-.68.83,0,1.53.2,2.09.59.62.45.94,1.08.94,1.89v3.14c0,.43,0,1.07.01,1.92,0,.85,0,1.49,0,1.91Z"/>
      <path class="cls-1rr0" d="m354.53,153.39s-.21-.05-.6-.16-.71-.16-.95-.16c-.58,0-1.05.18-1.4.53s-.52.82-.52,1.4.19,1.08.57,1.42c.38.34.88.52,1.49.52.29,0,.61-.07.98-.22.36-.15.53-.22.51-.22.11,0,.26.42.43,1.25.15.76.23,1.27.23,1.52s-.41.46-1.22.64c-.63.14-1.14.21-1.53.21-1.44,0-2.64-.49-3.57-1.46-.94-.97-1.41-2.18-1.41-3.63s.47-2.65,1.41-3.63,2.13-1.47,3.57-1.47c.98,0,1.84.21,2.58.63.17.09.26.18.26.27s-.1.47-.3,1.16c-.18.66-.3,1.06-.36,1.2s-.11.21-.17.21Z"/>
      <path class="cls-1rr0" d="m362.16,151.9c0,.07-.05.15-.15.27-.18-.05-.37-.07-.55-.07-.39,0-.71.09-.98.26-.32.2-.47.48-.47.84,0,.23.17.52.5.88.51.53.82.89.94,1.07.33.5.5,1.03.5,1.6,0,.33-.07.69-.2,1.06-.15.41-.34.72-.57.91-.49.42-1.05.77-1.7,1.06-.7.3-1.35.45-1.94.45-.13,0-.43-.36-.88-1.07-.46-.71-.68-1.15-.68-1.3,0-.06.04-.1.11-.11.46-.08.92-.17,1.39-.26.58-.18.87-.49.87-.91,0-.29-.17-.62-.5-1-.6-.66-.91-1.01-.94-1.05-.33-.47-.5-.97-.5-1.5,0-.98.5-1.82,1.5-2.51.89-.61,1.85-.92,2.87-.92.11,0,.36.35.78,1.06s.62,1.12.62,1.24Z"/>
      <path class="cls-1rr0" d="m244.45,178.72c0,.66-.21,1.04-.64,1.13-.07.01-.75.09-2.04.22-.77.09-1.93.19-3.47.3.09.43.37.75.84.98.38.18.81.28,1.3.28.58,0,1.17-.16,1.76-.47.25-.16.5-.32.75-.47.14.07.37.4.69,1,.33.6.49.99.49,1.15,0,.05-.05.12-.15.23-.8.86-2.04,1.29-3.73,1.29-1.56,0-2.82-.46-3.78-1.37-.98-.93-1.48-2.16-1.48-3.71s.44-2.75,1.32-3.71c.91-1,2.11-1.5,3.6-1.5,1.26,0,2.33.46,3.21,1.38.88.92,1.32,2.01,1.32,3.28Zm-3.45-.6c0-.41-.14-.76-.43-1.07-.29-.31-.63-.46-1.03-.46s-.76.17-1.02.52c-.25.32-.37.7-.37,1.13,0,.18.09.27.28.27.49,0,1.24-.08,2.26-.23.22-.03.33-.09.33-.16Z"/>
      <path class="cls-1rr0" d="m252.12,181.18c0,.2-.02.5-.07.9-.05.4-.07.69-.07.88s-.02.31-.06.36-.15.13-.33.23c-.85.47-1.79.7-2.82.7-1.9,0-2.85-.73-2.85-2.18,0-.43.02-1.08.05-1.95s.05-1.52.05-1.95c0-.29-.17-.43-.5-.43h-.13c-.06,0-.1,0-.13,0-.25,0-.37-.09-.37-.27,0-.11,0-.27.02-.48s.02-.38.02-.48c0-.14,0-.35-.02-.63s-.02-.49-.02-.63.21-.2.63-.22c.24,0,.36-.07.38-.2.04-.25.05-.64.04-1.18-.03-.85-.04-1.25-.04-1.21,0-.76.07-1.14.22-1.14.18,0,.43.04.76.12.37.09.63.14.78.15.33.05.84.11,1.52.19.16.01.25.07.25.17,0,.26-.02.66-.06,1.19s-.06.93-.06,1.2c0,.32.1.48.29.48.23,0,.58-.01,1.04-.03s.82-.03,1.05-.03c.14,0,.22.05.22.15,0,.15-.02.38-.05.68s-.05.53-.05.68,0,.39,0,.69c0,.3.01.53.01.69,0,.14-.1.21-.29.21-.13,0-.35,0-.66-.01-.31-.01-.53-.02-.66-.02h-.74c-.1,0-.15.14-.15.43v.7c0,.32.01.55.01.7,0,.55.06.93.19,1.14.18.28.52.42,1.04.42.16,0,.4-.04.7-.11.31-.08.52-.11.65-.11.14,0,.21.07.21.22Z"/>
      <path class="cls-1rr0" d="m269.05,179.33c0,1.4-.41,2.57-1.24,3.5-.85.96-1.97,1.44-3.36,1.44-.51,0-1.05-.12-1.62-.37s-.84-.37-.79-.37c-.09,0-.13.1-.13.3,0,.33.02.84.05,1.51s.05,1.18.05,1.51c0,.21-.11.32-.33.32h-2.01c-.45.01-.74,0-.88-.04-.2-.05-.3-.17-.3-.36l.02-7.58c0-1.53-.12-2.82-.34-3.87-.01-.07-.02-.12-.02-.17,0-.1.04-.16.12-.2.26-.1.74-.2,1.47-.32.7-.11,1.21-.17,1.53-.17.26,0,.4.17.44.51s.08.51.13.51c-.07,0,.21-.18.84-.54s1.2-.54,1.71-.54c1.42,0,2.56.47,3.42,1.41.83.91,1.24,2.08,1.24,3.53Zm-3.65-.02c0-.52-.16-.98-.48-1.38-.35-.41-.78-.62-1.29-.62s-.95.21-1.26.62c-.28.37-.41.83-.41,1.38s.14,1.02.43,1.39c.31.4.73.6,1.28.6,1.16,0,1.73-.66,1.73-1.99Z"/>
      <path class="cls-1rr0" d="m273.92,178.14c0,1.79,0,3.17.02,4.13,0,.15.01.41.03.78.02.33.03.59.03.78,0,.14-.08.22-.25.25-.3.05-.83.08-1.6.08s-1.29-.03-1.51-.08c-.14-.03-.23-.12-.25-.27v-.42c0-.58,0-1.46.02-2.62.01-1.17.02-2.04.02-2.61,0-2.76,0-4.01,0-3.77-.02-1.45-.1-2.7-.25-3.75-.01-.07-.02-.13-.02-.17,0-.14.08-.22.26-.22h3.51c.16,0,.24.07.23.21v.18c-.18,2.84-.27,5.34-.27,7.52Z"/>
      <path class="cls-1rr0" d="m285.62,179.14c0,.51.03,1.26.09,2.25.06,1,.09,1.75.09,2.24,0,.26-.11.4-.34.42-.81.06-1.75.09-2.8.09-.12,0-.21-.19-.25-.57s-.09-.57-.15-.58c-.05.03-.12.08-.21.17-.74.74-1.52,1.11-2.36,1.11-1.28,0-2.34-.51-3.18-1.52-.79-.95-1.19-2.07-1.19-3.39,0-1.52.41-2.74,1.23-3.66.85-.96,2.02-1.44,3.51-1.44,1.03,0,1.84.36,2.44,1.08.03.03.05.05.07.05.06,0,.13-.16.2-.48s.17-.48.27-.48c.24,0,.71.07,1.39.21.65.13,1.12.24,1.4.33.1.04.15.09.15.16,0,.03-.01.1-.03.21-.21,1.19-.32,2.45-.32,3.77Zm-3.17.06c0-.56-.18-1.02-.53-1.38-.35-.36-.81-.55-1.37-.55s-1.02.18-1.37.54c-.35.36-.52.82-.52,1.39,0,.53.18.99.55,1.37.37.38.81.57,1.34.57.56,0,1.01-.18,1.37-.55.35-.36.53-.83.53-1.39Z"/>
      <path class="cls-1rr0" d="m297.59,180.47v1.4c0,.53.02,1.34.05,2.42.03,1.08.05,1.89.05,2.42,0,.2-.1.3-.3.32-.28.03-.75.04-1.41.04-.18,0-.44.01-.8.04s-.62.04-.8.04c-.13,0-.2-.1-.2-.3,0-.39,0-.97.01-1.75,0-.78,0-1.36,0-1.75,0-.09-.03-.14-.09-.14.1,0-.16.18-.8.54-.64.36-1.25.54-1.84.54-1.3,0-2.36-.51-3.19-1.53-.77-.95-1.16-2.09-1.16-3.42,0-1.42.37-2.61,1.12-3.56.81-1.02,1.9-1.54,3.29-1.54,1.06,0,1.86.3,2.4.91.04.05.1.11.2.18.06-.06.09-.19.1-.39v-.42c.02-.25.13-.37.33-.37.54,0,1.14.03,1.82.1.95.09,1.42.2,1.42.34l-.02.23c-.13,1.76-.2,3.65-.2,5.66Zm-3.45-1.29c0-.57-.15-1.04-.44-1.4-.32-.39-.76-.59-1.32-.59-.53,0-.95.2-1.26.6-.29.37-.43.83-.43,1.37s.16,1.01.48,1.38c.34.39.78.58,1.32.58s.96-.19,1.25-.57c.27-.35.4-.8.4-1.37Z"/>
      <path class="cls-1rr0" d="m309.64,175.11c0,.49-.02,1.21-.07,2.19-.05.97-.07,1.7-.07,2.19s.02,1.18.05,2.13c.03.95.05,1.65.05,2.12,0,.18-.08.29-.25.33-.25.07-.78.1-1.59.1-.72,0-1.21-.02-1.5-.06-.12-.02-.2-.1-.24-.24l-.06-.59c-.03-.3-.08-.45-.14-.45.09,0-.24.22-.99.67-.76.45-1.44.67-2.06.67-1.74,0-2.77-.78-3.09-2.35-.14-.73-.22-1.79-.22-3.17,0-1.5.12-2.68.36-3.54.07-.27.21-.4.4-.4.3,0,.76,0,1.38,0,.62,0,1.08.01,1.38.01.2,0,.31.09.31.26,0,.05,0,.11-.02.21-.14.89-.21,1.8-.21,2.72,0,1.14.04,1.92.11,2.34.12.72.55,1.08,1.29,1.08.29,0,.6-.13.94-.38s.51-.52.53-.8c.01-.24.02-1.89.02-4.94,0-.22.02-.34.05-.38.04-.07.16-.1.35-.1.32,0,.81,0,1.45,0,.65,0,1.13.01,1.45.01.2,0,.31.05.34.15.01.05.02.13.02.24Z"/>
      <path class="cls-1rr0" d="m320.29,178.72c0,.66-.21,1.04-.64,1.13-.07.01-.75.09-2.04.22-.77.09-1.93.19-3.47.3.09.43.37.75.84.98.38.18.81.28,1.3.28.58,0,1.17-.16,1.76-.47.25-.16.5-.32.75-.47.14.07.37.4.69,1,.33.6.49.99.49,1.15,0,.05-.05.12-.15.23-.8.86-2.04,1.29-3.73,1.29-1.56,0-2.82-.46-3.78-1.37-.98-.93-1.48-2.16-1.48-3.71s.44-2.75,1.32-3.71c.91-1,2.11-1.5,3.6-1.5,1.26,0,2.33.46,3.21,1.38.88.92,1.32,2.01,1.32,3.28Zm-3.45-.6c0-.41-.14-.76-.43-1.07-.29-.31-.63-.46-1.03-.46s-.76.17-1.02.52c-.25.32-.37.7-.37,1.13,0,.18.09.27.28.27.49,0,1.24-.08,2.26-.23.22-.03.33-.09.33-.16Z"/>
      <path class="cls-1rr0" d="m327.96,181.18c0,.2-.02.5-.07.9-.05.4-.07.69-.07.88s-.02.31-.06.36-.15.13-.33.23c-.85.47-1.79.7-2.82.7-1.9,0-2.85-.73-2.85-2.18,0-.43.02-1.08.05-1.95s.05-1.52.05-1.95c0-.29-.17-.43-.5-.43h-.13c-.06,0-.1,0-.13,0-.25,0-.37-.09-.37-.27,0-.11,0-.27.02-.48s.02-.38.02-.48c0-.14,0-.35-.02-.63s-.02-.49-.02-.63.21-.2.63-.22c.24,0,.36-.07.38-.2.04-.25.05-.64.04-1.18-.03-.85-.04-1.25-.04-1.21,0-.76.07-1.14.22-1.14.18,0,.43.04.76.12.37.09.63.14.78.15.33.05.84.11,1.52.19.16.01.25.07.25.17,0,.26-.02.66-.06,1.19s-.06.93-.06,1.2c0,.32.1.48.29.48.23,0,.58-.01,1.04-.03s.82-.03,1.05-.03c.14,0,.22.05.22.15,0,.15-.02.38-.05.68s-.05.53-.05.68,0,.39,0,.69c0,.3.01.53.01.69,0,.14-.1.21-.29.21-.13,0-.35,0-.66-.01-.31-.01-.53-.02-.66-.02h-.74c-.1,0-.15.14-.15.43v.7c0,.32.01.55.01.7,0,.55.06.93.19,1.14.18.28.52.42,1.04.42.16,0,.4-.04.7-.11.31-.08.52-.11.65-.11.14,0,.21.07.21.22Z"/>
      <path class="cls-1rr0" d="m335.58,181.18c0,.2-.02.5-.07.9-.05.4-.07.69-.07.88s-.02.31-.06.36-.15.13-.33.23c-.85.47-1.79.7-2.82.7-1.9,0-2.85-.73-2.85-2.18,0-.43.02-1.08.05-1.95s.05-1.52.05-1.95c0-.29-.17-.43-.5-.43h-.13c-.06,0-.1,0-.13,0-.25,0-.37-.09-.37-.27,0-.11,0-.27.02-.48s.02-.38.02-.48c0-.14,0-.35-.02-.63s-.02-.49-.02-.63.21-.2.63-.22c.24,0,.36-.07.38-.2.04-.25.05-.64.04-1.18-.03-.85-.04-1.25-.04-1.21,0-.76.07-1.14.22-1.14.18,0,.43.04.76.12.37.09.63.14.78.15.33.05.84.11,1.52.19.16.01.25.07.25.17,0,.26-.02.66-.06,1.19s-.06.93-.06,1.2c0,.32.1.48.29.48.23,0,.58-.01,1.04-.03s.82-.03,1.05-.03c.14,0,.22.05.22.15,0,.15-.02.38-.05.68s-.05.53-.05.68,0,.39,0,.69c0,.3.01.53.01.69,0,.14-.1.21-.29.21-.13,0-.35,0-.66-.01-.31-.01-.53-.02-.66-.02h-.74c-.1,0-.15.14-.15.43v.7c0,.32.01.55.01.7,0,.55.06.93.19,1.14.18.28.52.42,1.04.42.16,0,.4-.04.7-.11.31-.08.52-.11.65-.11.14,0,.21.07.21.22Z"/>
      <path class="cls-1rr0" d="m345.63,178.72c0,.66-.21,1.04-.64,1.13-.07.01-.75.09-2.04.22-.77.09-1.93.19-3.47.3.09.43.37.75.84.98.38.18.81.28,1.3.28.58,0,1.17-.16,1.76-.47.25-.16.5-.32.75-.47.14.07.37.4.69,1,.33.6.49.99.49,1.15,0,.05-.05.12-.15.23-.8.86-2.04,1.29-3.73,1.29-1.56,0-2.82-.46-3.78-1.37-.98-.93-1.48-2.16-1.48-3.71s.44-2.75,1.32-3.71c.91-1,2.11-1.5,3.6-1.5,1.26,0,2.33.46,3.21,1.38.88.92,1.32,2.01,1.32,3.28Zm-3.45-.6c0-.41-.14-.76-.43-1.07-.29-.31-.63-.46-1.03-.46s-.76.17-1.02.52c-.25.32-.37.7-.37,1.13,0,.18.09.27.28.27.49,0,1.24-.08,2.26-.23.22-.03.33-.09.33-.16Z"/>
      <path class="cls-1rr0" d="m352.47,176.1c0,.07-.05.15-.15.27-.18-.05-.37-.07-.55-.07-.39,0-.71.09-.98.26-.32.2-.47.48-.47.84,0,.23.17.52.5.88.51.53.82.89.94,1.07.33.5.5,1.03.5,1.6,0,.33-.07.69-.2,1.06-.15.41-.34.72-.57.91-.49.42-1.05.77-1.7,1.06-.7.3-1.35.45-1.94.45-.13,0-.43-.36-.88-1.07-.46-.71-.68-1.15-.68-1.3,0-.06.04-.1.11-.11.46-.08.92-.17,1.39-.26.58-.18.87-.49.87-.91,0-.29-.17-.62-.5-1-.6-.66-.91-1.01-.94-1.05-.33-.47-.5-.97-.5-1.5,0-.98.5-1.82,1.5-2.51.89-.61,1.85-.92,2.87-.92.11,0,.36.35.78,1.06s.62,1.12.62,1.24Z"/>
    </g>
  </g>
</svg>