<?xml version="1.0" encoding="UTF-8"?>
<svg xmlns="http://www.w3.org/2000/svg" viewBox="0 0 190.65 269.67" aria-labelledby="libelleRetro2">
  <title id="libelleRetro2">Moelle osseuse rouge créant des érythrocytes</title>
  <defs>
    <style>
      .cls-1rr1 {
        fill: #fff;
      }

      .cls-2rr1 {
        stroke-width: 2px;
      }

      .cls-2rr1, .cls-3rr1, .cls-4rr1, .cls-5rr1, .cls-6rr1 {
        stroke-miterlimit: 10;
      }

      .cls-2rr1, .cls-4rr1 {
        fill: none;
        stroke-linecap: round;
      }

      .cls-2rr1, .cls-4rr1, .cls-5rr1 {
        stroke: #710000;
      }

      .cls-3rr1 {
        fill: #fff3c9;
        stroke: #edb550;
      }

      .cls-3rr1, .cls-6rr1 {
        stroke-width: 6px;
      }

      .cls-7rr1 {
        fill: #710000;
      }

      .cls-4rr1, .cls-5rr1 {
        stroke-width: 3px;
      }

      .cls-5rr1 {
        fill: #ce4323;
      }

      .cls-6rr1 {
        fill: #e49886;
        stroke: #da7058;
      }
    </style>
  </defs>
  <g id="moelleRouge">
    <path class="cls-3rr1" d="m127.74,204.05V65.62c0-1.68,1.29-3.05,2.96-3.22,14.87-1.5,26.48-14.19,26.48-29.63,0-16.44-13.18-29.77-29.44-29.77-10.6,0-19.89,5.67-25.08,14.18-1.27,2.09-4.28,2.09-5.55,0-5.18-8.51-14.47-14.18-25.08-14.18-16.26,0-29.44,13.33-29.44,29.77,0,15.43,11.61,28.12,26.48,29.63,1.67.17,2.96,1.54,2.96,3.22v138.42c0,1.68-1.29,3.05-2.96,3.22-14.87,1.5-26.48,14.19-26.48,29.63,0,16.44,13.18,29.77,29.44,29.77,10.6,0,19.89-5.67,25.08-14.18,1.27-2.09,4.28-2.09,5.55,0,5.18,8.51,14.47,14.18,25.08,14.18,16.26,0,29.44-13.33,29.44-29.77,0-15.43-11.61-28.12-26.48-29.63-1.67-.17-2.96-1.54-2.96-3.22Z"/>
    <path class="cls-6rr1" d="m123.88,216.05c-2.06-.08-4.04.22-5.88.83-1.99.66-4.03-.86-4.03-2.95V53.08c0-1.76,1.8-2.97,3.41-2.27,2.3.99,4.86,1.48,7.56,1.31,8.24-.5,14.95-7.2,15.46-15.44.59-9.6-7.02-17.57-16.49-17.57-7.2,0-13.32,4.6-15.58,11.03-.17.49-.66.78-1.18.74-.18-.01-.36-.02-.54-.02h-13.15c-.13,0,.05-1.34-.08-1.33-2.17-7.23-9.45-11.03-17.53-10.36s-14.57,7.31-15.08,15.4c-.6,9.6,7.01,17.58,16.49,17.58,2.12,0,4.14-.4,6.01-1.13,1.36-.53,2.83.5,2.83,1.96v161.91c0,1.75-1.76,2.97-3.39,2.32-2.27-.91-4.79-1.34-7.42-1.14-8.14.61-14.71,7.27-15.21,15.42-.59,9.6,7.02,17.57,16.49,17.57,6.44,0,12.01-3.68,14.74-9.06.32-.62.96-1.03,1.66-.98.16.01.33.02.5.02h13.15c.21,0,.42-.01.63-.03.45-.04.86.2,1.05.61,2.65,5.58,8.34,9.44,14.93,9.44,9.47,0,17.08-7.97,16.49-17.57-.52-8.37-7.44-15.12-15.82-15.45Z"/>
    <path class="cls-5rr1" d="m3.31,86.87c5.1-8.86,19.38-10.2,31.9-2.99,12.52,7.2,18.54,20.23,13.44,29.09-5.1,8.86-19.38,10.2-31.9,2.99-12.52-7.2-18.54-20.23-13.44-29.09"/>
    <path class="cls-4rr1" d="m28.61,90.35c-6.21-4.88-12.75-2.54-13.87,4.23"/>
    <path class="cls-4rr1" d="m21.72,108.6c5.78,5.48,12.81,4.11,14.82-2.21"/>
    <g>
      <path class="cls-1rr1" d="m36.36,102.29c-.72.05-1.45-.83-2.06-2.01-.47-.91-1.59-3.63-.94-4.06,1.61-1.07,2.33,1.24,2.92,2.36,1.26,2.35.86,3.66.08,3.71Z"/>
      <path class="cls-7rr1" d="m34.15,95.94c-.24,0-.5.08-.79.28-.65.43.46,3.15.94,4.06.6,1.15,1.31,2.01,2.01,2.01.02,0,.04,0,.05,0,.78-.05,1.18-1.36-.08-3.71-.49-.92-1.06-2.64-2.14-2.64h0Z"/>
    </g>
    <path class="cls-5rr1" d="m175.19,150.12c10.04,1.9,16,14.95,13.31,29.14-2.69,14.19-13.01,24.15-23.05,22.25s-16-14.95-13.31-29.14c2.69-14.19,13.01-24.15,23.05-22.25"/>
    <path class="cls-4rr1" d="m179.56,172.23c.21-7.89-5.56-11.75-11.67-8.61"/>
    <path class="cls-4rr1" d="m160.8,177.58c-.95,7.91,4.34,12.73,10.61,10.57"/>
    <g>
      <path class="cls-1rr1" d="m174.6,185.56c-.46-.55-.2-1.66.38-2.85.45-.93,1.96-3.44,2.7-3.18,1.82.65.39,2.61-.15,3.76-1.13,2.41-2.43,2.87-2.93,2.27Z"/>
      <path class="cls-7rr1" d="m177.57,179.51c-.77,0-2.16,2.32-2.59,3.2-.58,1.2-.84,2.31-.38,2.85.13.15.31.24.52.24.63,0,1.56-.71,2.41-2.51.54-1.15,1.98-3.1.15-3.76-.04-.01-.07-.02-.11-.02h0Z"/>
    </g>
    <path class="cls-5rr1" d="m178.84,96.56c4.17,4.14.3,10.62-8.65,14.47s-19.6,3.62-23.77-.52-.3-10.62,8.65-14.47,19.6-3.62,23.77.52"/>
    <path class="cls-2rr1" d="m167.37,104.63c10.65-4.33,4.04-8.04-1.44-6.97"/>
    <path class="cls-2rr1" d="m153.23,101c-5.44,3.53-2.55,8.1,2.09,6.86"/>
    <g>
      <path class="cls-1rr1" d="m157.7,107.41c.05-.35.78-.63,1.72-.83.73-.16,2.85-.48,3.09-.13.59.86-1.19,1.02-2.08,1.22-1.87.42-2.78.13-2.73-.25Z"/>
      <path class="cls-7rr1" d="m161.79,106.29c-.75,0-1.88.18-2.37.29-.94.2-1.66.48-1.72.83-.04.25.34.46,1.13.46.42,0,.95-.06,1.6-.2.89-.2,2.67-.36,2.08-1.22-.08-.11-.36-.15-.72-.15h0Z"/>
    </g>
    <path class="cls-5rr1" d="m51.16,191.23c-1.71,5.62-9.25,5.22-16.84-.89s-12.36-15.63-10.65-21.26c1.71-5.62,9.25-5.22,16.84.89,7.59,6.12,12.36,15.63,10.65,21.26"/>
    <path class="cls-2rr1" d="m38.77,187c4.31,2.61,6.8.24,5.49-4.53"/>
    <path class="cls-2rr1" d="m37.09,173.7c-4.26-3.07-7.26-1.3-6.49,3.26"/>
    <g>
      <path class="cls-1rr1" d="m31.8,179.75c.33-.12.92.4,1.54,1.13.48.57,1.75,2.3,1.56,2.67-.48.93-1.45-.58-2.05-1.27-1.24-1.46-1.41-2.4-1.05-2.53Z"/>
      <path class="cls-7rr1" d="m31.91,179.73s-.07,0-.1.02c-.36.13-.19,1.07,1.05,2.53.46.54,1.15,1.56,1.66,1.56.15,0,.28-.09.39-.29.19-.37-1.08-2.1-1.56-2.67-.56-.66-1.09-1.15-1.43-1.15h0Z"/>
    </g>
  </g>
</svg>