<?xml version="1.0" encoding="UTF-8"?>
<svg xmlns="http://www.w3.org/2000/svg" viewBox="0 0 370.3 372.9" aria-labelledby="libelleRetro3">
    <title id="libelleRetro3">Tableau des groupes sanguins donneurs et receveurs.</title>
  <defs>
    <style>
      .cls-1 {
        fill: #3f4247;
      }

      .cls-2 {
        fill: #295cc0;
      }

      .cls-3 {
        fill: #f2f2f2;
        stroke: #ccc;
        stroke-width: 5px;
      }

      .cls-3, .cls-4 {
        stroke-miterlimit: 10;
      }

      .cls-4 {
        fill: #ce4323;
        stroke: #710000;
        stroke-width: 3px;
      }
    </style>
  </defs>
  <g id="tableauDon">
    <g>
      <path class="cls-3" d="m365.91,94.64c-1.76-2.85-4.59-4.7-7.79-4.7h-2.31c4.81.12,8.18,1.97,10.1,4.7Z"/>
      <path class="cls-3" d="m365.91,94.64c1.19,1.92,1.89,4.29,1.89,6.86v-.61c0-2.29-.63-4.46-1.89-6.25Z"/>
      <path class="cls-3" d="m354.71,89.94h1.1c-.36,0-.73-.01-1.1,0Z"/>
      <rect class="cls-3" x="260.47" y="266.01" width="35.35" height="33.68"/>
      <rect class="cls-3" x="260.47" y="231.48" width="35.35" height="34.53"/>
      <rect class="cls-3" x="192.26" y="299.69" width="34.53" height="35.35"/>
      <rect class="cls-3" x="158.41" y="299.69" width="33.86" height="35.35"/>
      <rect class="cls-3" x="260.47" y="299.69" width="35.35" height="35.35"/>
      <rect class="cls-3" x="226.79" y="299.69" width="33.68" height="35.35"/>
      <rect class="cls-3" x="260.47" y="127.42" width="35.35" height="35.85"/>
      <rect class="cls-3" x="124.05" y="127.42" width="34.35" height="35.85"/>
      <rect class="cls-3" x="88.2" y="127.42" width="35.85" height="35.85"/>
      <rect class="cls-3" x="158.41" y="127.42" width="33.86" height="35.85"/>
      <rect class="cls-3" x="260.47" y="197.63" width="35.35" height="33.86"/>
      <rect class="cls-3" x="88.2" y="163.27" width="35.85" height="34.35"/>
      <rect class="cls-3" x="124.05" y="299.69" width="34.35" height="35.35"/>
      <rect class="cls-3" x="192.26" y="127.42" width="34.53" height="35.85"/>
      <rect class="cls-3" x="260.47" y="163.27" width="35.35" height="34.35"/>
      <rect class="cls-3" x="226.79" y="127.42" width="33.68" height="35.85"/>
      <rect class="cls-3" x="192.26" y="163.27" width="34.53" height="34.35"/>
      <rect class="cls-3" x="158.41" y="266.01" width="33.86" height="33.68"/>
      <rect class="cls-3" x="226.79" y="231.48" width="33.68" height="34.53"/>
      <rect class="cls-3" x="192.26" y="266.01" width="34.53" height="33.68"/>
      <rect class="cls-3" x="226.79" y="266.01" width="33.68" height="33.68"/>
      <rect class="cls-3" x="158.41" y="231.48" width="33.86" height="34.53"/>
      <rect class="cls-3" x="192.26" y="231.48" width="34.53" height="34.53"/>
      <rect class="cls-3" x="158.41" y="197.63" width="33.86" height="33.86"/>
      <rect class="cls-3" x="192.26" y="197.63" width="34.53" height="33.86"/>
      <rect class="cls-3" x="124.05" y="197.63" width="34.35" height="33.86"/>
      <rect class="cls-3" x="124.05" y="266.01" width="34.35" height="33.68"/>
      <rect class="cls-3" x="124.05" y="231.48" width="34.35" height="34.53"/>
      <rect class="cls-3" x="124.05" y="163.27" width="34.35" height="34.35"/>
      <rect class="cls-3" x="158.41" y="163.27" width="33.86" height="34.35"/>
      <rect class="cls-3" x="226.79" y="163.27" width="33.68" height="34.35"/>
      <rect class="cls-3" x="226.79" y="197.63" width="33.68" height="33.86"/>
      <rect class="cls-3" x="88.2" y="197.63" width="35.85" height="33.86"/>
      <rect class="cls-3" x="295.82" y="231.48" width="35.35" height="34.53"/>
      <line class="cls-3" x1="158.41" y1="370.39" x2="124.05" y2="370.39"/>
      <line class="cls-3" x1="192.26" y1="370.39" x2="158.41" y2="370.39"/>
      <rect class="cls-3" x="88.2" y="231.48" width="35.85" height="34.53"/>
      <line class="cls-3" x1="88.2" y1="335.04" x2="88.2" y2="299.69"/>
      <line class="cls-3" x1="88.2" y1="231.48" x2="88.2" y2="197.63"/>
      <line class="cls-3" x1="260.47" y1="370.39" x2="226.79" y2="370.39"/>
      <line class="cls-3" x1="226.79" y1="370.39" x2="192.26" y2="370.39"/>
      <line class="cls-3" x1="88.2" y1="197.63" x2="88.2" y2="163.27"/>
      <line class="cls-3" x1="88.2" y1="299.69" x2="88.2" y2="266.01"/>
      <line class="cls-3" x1="88.2" y1="266.01" x2="88.2" y2="231.48"/>
      <line class="cls-3" x1="295.82" y1="370.39" x2="260.47" y2="370.39"/>
      <line class="cls-3" x1="88.2" y1="127.42" x2="88.2" y2="89.94"/>
      <line class="cls-3" x1="88.2" y1="163.27" x2="88.2" y2="127.42"/>
      <rect class="cls-3" x="331.17" y="127.42" width="36.63" height="35.85"/>
      <path class="cls-3" d="m355.81,89.94h-24.65v37.49h36.63v-25.93c0-2.57-.7-4.94-1.89-6.86,0,0,0,0,0,0-1.91-2.73-5.28-4.58-10.1-4.7Z"/>
      <rect class="cls-3" x="331.17" y="197.63" width="36.63" height="33.86"/>
      <rect class="cls-3" x="331.17" y="163.27" width="36.63" height="34.35"/>
      <line class="cls-3" x1="331.17" y1="370.39" x2="295.82" y2="370.39"/>
      <path class="cls-3" d="m331.17,266.01h34.85-34.85v33.68h34.85-34.85v35.35h33.71-33.71l-.34,35.35h29.4c4.33,0,7.57-3.24,7.57-7.23v-131.67h-36.63v34.53Z"/>
      <rect class="cls-3" x="192.26" y="335.04" width="34.53" height="35.35"/>
      <rect class="cls-3" x="158.41" y="335.04" width="33.86" height="35.35"/>
      <rect class="cls-3" x="226.79" y="335.04" width="33.68" height="35.35"/>
      <rect class="cls-3" x="295.82" y="335.04" width="35.35" height="35.35"/>
      <rect class="cls-3" x="260.47" y="335.04" width="35.35" height="35.35"/>
      <rect class="cls-3" x="88.2" y="266.01" width="35.85" height="33.68"/>
      <rect class="cls-3" x="88.2" y="89.94" width="35.85" height="37.49"/>
      <path class="cls-3" d="m88.2,335.04v30.03c-.09,4.07,3.05,5.44,4.73,5.32h31.11v-35.35h-35.85Z"/>
      <rect class="cls-3" x="124.05" y="335.04" width="34.35" height="35.35"/>
      <rect class="cls-3" x="88.2" y="299.69" width="35.85" height="35.35"/>
      <rect class="cls-3" x="158.41" y="89.94" width="33.86" height="37.49"/>
      <polygon class="cls-3" points="226.79 127.42 226.79 91.72 226.79 127.42 260.47 127.42 260.47 91.72 260.47 127.42 295.82 127.42 295.82 92.86 295.82 127.42 331.17 127.42 331.17 89.94 192.26 89.94 192.26 127.42 226.79 127.42"/>
      <rect class="cls-3" x="295.82" y="127.42" width="35.35" height="35.85"/>
      <rect class="cls-3" x="124.05" y="89.94" width="34.35" height="37.49"/>
      <rect class="cls-3" x="295.82" y="163.27" width="35.35" height="34.35"/>
      <rect class="cls-3" x="295.82" y="266.01" width="35.35" height="33.68"/>
      <rect class="cls-3" x="295.82" y="197.63" width="35.35" height="33.86"/>
      <rect class="cls-3" x="295.82" y="299.69" width="35.35" height="35.35"/>
    </g>
    <g>
      <path class="cls-1" d="m109.24,75.7c0,1.99-.63,3.65-1.9,5-1.29,1.36-2.93,2.05-4.91,2.05s-3.6-.69-4.9-2.06c-1.27-1.34-1.91-3-1.91-4.98s.64-3.65,1.91-5c1.3-1.38,2.93-2.07,4.9-2.07s3.59.69,4.89,2.07c1.28,1.36,1.92,3.03,1.92,5Zm-3.62-.02c0-.96-.29-1.77-.87-2.44-.61-.7-1.38-1.05-2.32-1.05s-1.66.36-2.28,1.09c-.61.7-.91,1.51-.91,2.42,0,.98.28,1.79.85,2.44.6.68,1.38,1.02,2.34,1.02.9,0,1.66-.36,2.29-1.08.6-.69.9-1.49.9-2.4Z"/>
      <path class="cls-1" d="m117.42,75.03c0,.2-.04.46-.13.77-.08.25-.15.51-.22.77-.03.32-.09.78-.18,1.39-.02.09-.1.13-.23.13-.24,0-.61,0-1.09,0-.49,0-.86,0-1.1,0-.67,0-1.57.06-2.7.18-.06,0-.24.03-.52.08-.22.04-.4.06-.53.06-.17,0-.25-.16-.25-.47,0-.17.11-.63.33-1.39.21-.72.36-1.19.46-1.4.04-.1.13-.15.25-.15.25,0,.62.01,1.12.04.5.03.87.04,1.12.04.52,0,1.39-.08,2.59-.23.63-.08.93-.12.89-.12.13,0,.2.11.2.32Z"/>
    </g>
    <g>
      <path class="cls-1" d="m70.17,355.69c0,1.99-.63,3.65-1.9,5-1.29,1.36-2.93,2.05-4.91,2.05s-3.6-.69-4.9-2.06c-1.27-1.34-1.91-3-1.91-4.98s.64-3.65,1.91-5c1.3-1.38,2.93-2.07,4.9-2.07s3.59.69,4.89,2.07c1.28,1.36,1.92,3.03,1.92,5Zm-3.62-.02c0-.96-.29-1.77-.87-2.44-.61-.7-1.38-1.05-2.32-1.05s-1.66.36-2.28,1.09c-.61.7-.91,1.51-.91,2.42,0,.98.28,1.79.85,2.44.6.68,1.38,1.02,2.34,1.02.9,0,1.66-.36,2.29-1.08.6-.69.9-1.49.9-2.4Z"/>
      <path class="cls-1" d="m78.35,355.03c0,.2-.04.46-.13.77-.08.25-.15.51-.22.77-.03.32-.09.78-.18,1.39-.02.09-.1.13-.23.13-.24,0-.61,0-1.09,0-.49,0-.86,0-1.1,0-.67,0-1.57.06-2.7.18-.06,0-.24.03-.52.08-.22.04-.4.06-.53.06-.17,0-.25-.16-.25-.47,0-.17.11-.63.33-1.39.21-.72.36-1.19.46-1.4.04-.1.13-.15.25-.15.25,0,.62.01,1.12.04.5.03.87.04,1.12.04.52,0,1.39-.08,2.59-.23.63-.08.93-.12.89-.12.13,0,.2.11.2.32Z"/>
    </g>
    <g>
      <path class="cls-1" d="m143.09,75.51c0,1.99-.63,3.65-1.9,5-1.29,1.36-2.93,2.05-4.91,2.05s-3.6-.69-4.9-2.06c-1.27-1.34-1.91-3-1.91-4.98s.64-3.65,1.91-5c1.3-1.38,2.93-2.07,4.9-2.07s3.59.69,4.89,2.07c1.28,1.36,1.92,3.03,1.92,5Zm-3.62-.02c0-.96-.29-1.77-.87-2.44-.61-.7-1.38-1.05-2.32-1.05s-1.66.36-2.28,1.09c-.61.7-.91,1.51-.91,2.42,0,.98.28,1.79.85,2.44.6.68,1.38,1.02,2.34,1.02.9,0,1.66-.36,2.29-1.08.6-.69.9-1.49.9-2.4Z"/>
      <path class="cls-1" d="m152.17,77.75c-.33,0-.77-.01-1.35-.04-.65-.03-1.1-.04-1.36-.04,0,.26.02.75.05,1.45.02.61.03,1.09.03,1.44,0,.25-.48.37-1.44.37s-1.4-.08-1.4-.24c0-.4,0-.9.03-1.53.02-.86.03-1.37.04-1.52-1.67.05-2.55.08-2.65.08-.11,0-.17-.1-.17-.3,0-.06.03-.43.1-1.09,0-.38.02-.77.04-1.18.06-.1.14-.14.26-.14.31,0,.72,0,1.21.03.66.02,1.07.03,1.21.04-.01-.56-.02-1.16-.02-1.8v-1.04c0-.12.08-.18.25-.18.24,0,.58,0,1.05-.02.46-.01.81-.02,1.04-.02.31,0,.47.05.47.16,0,.32-.01.8-.03,1.45-.02.65-.03,1.14-.03,1.46,1.36-.03,2.29-.04,2.78-.04.13,0,.2.06.2.17,0,.07-.04.46-.11,1.18.02.27,0,.67-.06,1.19-.03.09-.07.13-.13.13Z"/>
    </g>
    <g>
      <path class="cls-1" d="m68.67,317.38c0,1.99-.63,3.65-1.9,5-1.29,1.36-2.93,2.05-4.91,2.05s-3.6-.69-4.9-2.06c-1.27-1.34-1.91-3-1.91-4.98s.64-3.65,1.91-5c1.3-1.38,2.93-2.07,4.9-2.07s3.59.69,4.89,2.07c1.28,1.36,1.92,3.03,1.92,5Zm-3.62-.02c0-.96-.29-1.77-.87-2.44-.61-.7-1.38-1.05-2.32-1.05s-1.66.36-2.28,1.09c-.61.7-.91,1.51-.91,2.42,0,.98.28,1.79.85,2.44.6.68,1.38,1.02,2.34,1.02.9,0,1.66-.36,2.29-1.08.6-.69.9-1.49.9-2.4Z"/>
      <path class="cls-1" d="m77.76,319.63c-.33,0-.77-.01-1.35-.04-.65-.03-1.1-.04-1.36-.04,0,.26.02.75.05,1.45.02.61.03,1.09.03,1.44,0,.25-.48.37-1.44.37s-1.4-.08-1.4-.24c0-.4,0-.9.03-1.53.02-.86.03-1.37.04-1.52-1.67.05-2.55.08-2.65.08-.11,0-.17-.1-.17-.3,0-.06.03-.43.1-1.09,0-.38.02-.77.04-1.18.06-.1.14-.14.26-.14.31,0,.72,0,1.21.03.66.02,1.07.03,1.21.04-.01-.56-.02-1.16-.02-1.8v-1.04c0-.12.08-.18.25-.18.24,0,.58,0,1.05-.02.46-.01.81-.02,1.04-.02.31,0,.47.05.47.16,0,.32-.01.8-.03,1.45-.02.65-.03,1.14-.03,1.46,1.36-.03,2.29-.04,2.78-.04.13,0,.2.06.2.17,0,.07-.04.46-.11,1.18.02.27,0,.67-.06,1.19-.03.09-.07.13-.13.13Z"/>
    </g>
    <g>
      <path class="cls-1" d="m176.95,78.42c0,1.17-.37,2.14-1.1,2.92-.83.89-2.3,1.33-4.4,1.33-.16,0-.39,0-.69,0h-.68c-2.35,0-3.75-.05-4.2-.14-.18-.04-.28-.14-.28-.3,0-.68.04-1.71.12-3.1.08-1.38.12-2.42.12-3.11,0-.74-.04-2.13-.11-4.17-.02-.52-.05-1.31-.11-2.35v-.13c-.02-.12.08-.19.29-.22.21-.03.94-.04,2.21-.04,2.03,0,3.22,0,3.57.02,1.57.06,2.72.31,3.47.76.99.61,1.48,1.63,1.48,3.07,0,.38-.11.77-.34,1.19-.17.3-.38.6-.65.9-.24.26-.35.38-.35.36,0,.04.08.11.25.21.45.25.8.66,1.05,1.21.23.5.34,1.03.34,1.59Zm-4.11-5.38c0-.55-.27-.91-.82-1.09-.31-.1-.81-.14-1.51-.14s-1.03.05-1.03.15c0,.12-.01.3-.03.55-.02.25-.03.43-.03.55,0,.64.05.99.16,1.07.07.06.47.09,1.21.09,1.37,0,2.06-.39,2.06-1.18Zm.29,5.34c0-.57-.24-.96-.72-1.17-.31-.13-.8-.19-1.49-.19-.82,0-1.27.03-1.34.09-.07.06-.11.45-.11,1.17s.04,1.17.12,1.25c.08.08.54.12,1.38.12.69,0,1.17-.05,1.45-.16.47-.18.7-.55.7-1.11Z"/>
      <path class="cls-1" d="m184.92,75.19c0,.2-.04.46-.13.77-.08.25-.15.51-.22.77-.03.32-.09.78-.18,1.39-.02.09-.1.13-.23.13-.24,0-.61,0-1.09,0-.49,0-.86,0-1.1,0-.67,0-1.57.06-2.7.18-.06,0-.24.03-.52.08-.22.04-.4.06-.53.06-.17,0-.25-.16-.25-.47,0-.17.11-.63.33-1.39.21-.72.36-1.19.46-1.4.04-.1.13-.15.25-.15.25,0,.62.01,1.12.04.5.03.87.04,1.12.04.52,0,1.39-.08,2.59-.23.63-.08.93-.12.89-.12.13,0,.2.11.2.32Z"/>
    </g>
    <g>
      <path class="cls-1" d="m67.45,285.39c0,1.17-.37,2.14-1.1,2.92-.83.89-2.3,1.33-4.4,1.33-.16,0-.39,0-.69,0h-.68c-2.35,0-3.75-.05-4.2-.14-.18-.04-.28-.14-.28-.3,0-.68.04-1.71.12-3.1.08-1.38.12-2.42.12-3.11,0-.74-.04-2.13-.11-4.17-.02-.52-.05-1.31-.11-2.35v-.13c-.02-.12.08-.19.29-.22.21-.03.94-.04,2.21-.04,2.03,0,3.22,0,3.57.02,1.57.06,2.72.31,3.47.76.99.61,1.48,1.63,1.48,3.07,0,.38-.11.77-.34,1.19-.17.3-.38.6-.65.9-.24.26-.35.38-.35.36,0,.04.08.11.25.21.45.25.8.66,1.05,1.21.23.5.34,1.03.34,1.59Zm-4.11-5.38c0-.55-.27-.91-.82-1.09-.31-.1-.81-.14-1.51-.14s-1.03.05-1.03.15c0,.12-.01.3-.03.55-.02.25-.03.43-.03.55,0,.64.05.99.16,1.07.07.06.47.09,1.21.09,1.37,0,2.06-.39,2.06-1.18Zm.29,5.34c0-.57-.24-.96-.72-1.17-.31-.13-.8-.19-1.49-.19-.82,0-1.27.03-1.34.09-.07.06-.11.45-.11,1.17s.04,1.17.12,1.25c.08.08.54.12,1.38.12.69,0,1.17-.05,1.45-.16.47-.18.7-.55.7-1.11Z"/>
      <path class="cls-1" d="m75.42,282.16c0,.2-.04.46-.13.77-.08.25-.15.51-.22.77-.03.32-.09.78-.18,1.39-.02.09-.1.13-.23.13-.24,0-.61,0-1.09,0-.49,0-.86,0-1.1,0-.67,0-1.57.06-2.7.18-.06,0-.24.03-.52.08-.22.04-.4.06-.53.06-.17,0-.25-.16-.25-.47,0-.17.11-.63.33-1.39.21-.72.36-1.19.46-1.4.04-.1.13-.15.25-.15.25,0,.62.01,1.12.04.5.03.87.04,1.12.04.52,0,1.39-.08,2.59-.23.63-.08.93-.12.89-.12.13,0,.2.11.2.32Z"/>
    </g>
    <g>
      <path class="cls-1" d="m211.01,78.07c0,1.17-.37,2.14-1.1,2.92-.83.89-2.3,1.33-4.4,1.33-.16,0-.39,0-.69,0h-.68c-2.35,0-3.75-.05-4.2-.14-.18-.04-.28-.14-.28-.3,0-.68.04-1.71.12-3.1.08-1.38.12-2.42.12-3.11,0-.74-.04-2.13-.11-4.17-.02-.52-.05-1.31-.11-2.35v-.13c-.02-.12.08-.19.29-.22.21-.03.94-.04,2.21-.04,2.03,0,3.22,0,3.57.02,1.57.06,2.72.31,3.47.76.99.61,1.48,1.63,1.48,3.07,0,.38-.11.77-.34,1.19-.17.3-.38.6-.65.9-.24.26-.35.38-.35.36,0,.04.08.11.25.21.45.25.8.66,1.05,1.21.23.5.34,1.03.34,1.59Zm-4.11-5.38c0-.55-.27-.91-.82-1.09-.31-.1-.81-.14-1.51-.14s-1.03.05-1.03.15c0,.12-.01.3-.03.55-.02.25-.03.43-.03.55,0,.64.05.99.16,1.07.07.06.47.09,1.21.09,1.37,0,2.06-.39,2.06-1.18Zm.29,5.34c0-.57-.24-.96-.72-1.17-.31-.13-.8-.19-1.49-.19-.82,0-1.27.03-1.34.09-.07.06-.11.45-.11,1.17s.04,1.17.12,1.25c.08.08.54.12,1.38.12.69,0,1.17-.05,1.45-.16.47-.18.7-.55.7-1.11Z"/>
      <path class="cls-1" d="m219.88,77.75c-.33,0-.77-.01-1.35-.04-.65-.03-1.1-.04-1.36-.04,0,.26.02.75.05,1.45.02.61.03,1.09.03,1.44,0,.25-.48.37-1.44.37s-1.4-.08-1.4-.24c0-.4,0-.9.03-1.53.02-.86.03-1.37.04-1.52-1.67.05-2.55.08-2.65.08-.11,0-.17-.1-.17-.3,0-.06.03-.43.1-1.09,0-.38.02-.77.04-1.18.06-.1.14-.14.26-.14.31,0,.72,0,1.21.03.66.02,1.07.03,1.21.04-.01-.56-.02-1.16-.02-1.8v-1.04c0-.12.08-.18.25-.18.24,0,.58,0,1.05-.02.46-.01.81-.02,1.04-.02.31,0,.47.05.47.16,0,.32-.01.8-.03,1.45-.02.65-.03,1.14-.03,1.46,1.36-.03,2.29-.04,2.78-.04.13,0,.2.06.2.17,0,.07-.04.46-.11,1.18.02.27,0,.67-.06,1.19-.03.09-.07.13-.13.13Z"/>
    </g>
    <g>
      <path class="cls-1" d="m67.63,251.28c0,1.17-.37,2.14-1.1,2.92-.83.89-2.3,1.33-4.4,1.33-.16,0-.39,0-.69,0h-.68c-2.35,0-3.75-.05-4.2-.14-.18-.04-.28-.14-.28-.3,0-.68.04-1.71.12-3.1.08-1.38.12-2.42.12-3.11,0-.74-.04-2.13-.11-4.17-.02-.52-.05-1.31-.11-2.35v-.13c-.02-.12.08-.19.29-.22.21-.03.94-.04,2.21-.04,2.03,0,3.22,0,3.57.02,1.57.06,2.72.31,3.47.76.99.61,1.48,1.63,1.48,3.07,0,.38-.11.77-.34,1.19-.17.3-.38.6-.65.9-.24.26-.35.38-.35.36,0,.04.08.11.25.21.45.25.8.66,1.05,1.21.23.5.34,1.03.34,1.59Zm-4.11-5.38c0-.55-.27-.91-.82-1.09-.31-.1-.81-.14-1.51-.14s-1.03.05-1.03.15c0,.12-.01.3-.03.55-.02.25-.03.43-.03.55,0,.64.05.99.16,1.07.07.06.47.09,1.21.09,1.37,0,2.06-.39,2.06-1.18Zm.29,5.34c0-.57-.24-.96-.72-1.17-.31-.13-.8-.19-1.49-.19-.82,0-1.27.03-1.34.09-.07.06-.11.45-.11,1.17s.04,1.17.12,1.25c.08.08.54.12,1.38.12.69,0,1.17-.05,1.45-.16.47-.18.7-.55.7-1.11Z"/>
      <path class="cls-1" d="m76.5,250.97c-.33,0-.77-.01-1.35-.04-.65-.03-1.1-.04-1.36-.04,0,.26.02.75.05,1.45.02.61.03,1.09.03,1.44,0,.25-.48.37-1.44.37s-1.4-.08-1.4-.24c0-.4,0-.9.03-1.53.02-.86.03-1.37.04-1.52-1.67.05-2.55.08-2.65.08-.11,0-.17-.1-.17-.3,0-.06.03-.43.1-1.09,0-.38.02-.77.04-1.18.06-.1.14-.14.26-.14.31,0,.72,0,1.21.03.66.02,1.07.03,1.21.04-.01-.56-.02-1.16-.02-1.8v-1.04c0-.12.08-.18.25-.18.24,0,.58,0,1.05-.02.46-.01.81-.02,1.04-.02.31,0,.47.05.47.16,0,.32-.01.8-.03,1.45-.02.65-.03,1.14-.03,1.46,1.36-.03,2.29-.04,2.78-.04.13,0,.2.06.2.17,0,.07-.04.46-.11,1.18.02.27,0,.67-.06,1.19-.03.09-.07.13-.13.13Z"/>
    </g>
    <g>
      <path class="cls-1" d="m246.41,82.07c0,.11-.08.19-.24.24-.19.05-.78.08-1.78.08-.91,0-1.5-.03-1.76-.08-.22-.04-.35-.19-.41-.43-.22-.92-.39-1.41-.51-1.47-.1-.04-.96-.07-2.56-.07-1.08,0-1.66.03-1.73.09-.11.1-.23.44-.36,1.02-.12.53-.27.82-.44.86-.22.05-.94.08-2.18.08-.98,0-1.46-.09-1.46-.28,0-.17.72-2.2,2.16-6.11,1.56-4.23,2.41-6.55,2.54-6.97.08-.24.17-.36.27-.36.17,0,.44.02.8.05.36.03.63.05.81.05s.43-.01.76-.03c.33-.02.58-.03.75-.03.12,0,.23.11.33.32.31.67,1.22,2.96,2.73,6.88,1.52,3.94,2.28,6,2.28,6.18Zm-6.78-8.71c-.13.28-.36.89-.68,1.83-.34.99-.52,1.58-.52,1.75,0,.11.19.18.57.19.2.01.52.02.98.02.42,0,.65-.05.7-.15.01-.03.02-.08.02-.13,0-.21-.15-.79-.44-1.74-.29-.92-.5-1.5-.63-1.76Z"/>
      <path class="cls-1" d="m254.14,74.95c0,.2-.04.46-.13.77-.08.25-.15.51-.22.77-.03.32-.09.78-.18,1.39-.02.09-.1.13-.23.13-.24,0-.61,0-1.09,0-.49,0-.86,0-1.1,0-.67,0-1.57.06-2.7.18-.06,0-.24.03-.52.08-.22.04-.4.06-.53.06-.17,0-.25-.16-.25-.47,0-.17.11-.63.33-1.39.21-.72.36-1.19.46-1.4.04-.1.13-.15.25-.15.25,0,.62.01,1.12.04.5.03.87.04,1.12.04.52,0,1.39-.08,2.59-.23.63-.08.93-.12.89-.12.13,0,.2.11.2.32Z"/>
    </g>
    <g>
      <path class="cls-1" d="m69.4,221.1c0,.11-.08.19-.24.24-.19.05-.78.08-1.78.08-.91,0-1.5-.03-1.76-.08-.22-.04-.35-.19-.41-.43-.22-.92-.39-1.41-.51-1.47-.1-.04-.96-.07-2.56-.07-1.08,0-1.66.03-1.73.09-.11.1-.23.44-.36,1.02-.12.53-.27.82-.44.86-.22.05-.94.08-2.18.08-.98,0-1.46-.09-1.46-.28,0-.17.72-2.2,2.16-6.11,1.56-4.23,2.41-6.55,2.54-6.97.08-.24.17-.36.27-.36.17,0,.44.02.8.05.36.03.63.05.81.05s.43-.01.76-.03c.33-.02.58-.03.75-.03.12,0,.23.1.33.32.31.67,1.22,2.96,2.73,6.88,1.52,3.95,2.28,6,2.28,6.18Zm-6.78-8.71c-.13.28-.36.89-.68,1.83-.34.99-.52,1.58-.52,1.75,0,.11.19.18.57.19.2.01.52.02.98.02.42,0,.65-.05.7-.15.01-.03.02-.08.02-.13,0-.21-.15-.79-.44-1.74-.29-.92-.5-1.5-.63-1.76Z"/>
      <path class="cls-1" d="m77.13,213.98c0,.2-.04.46-.13.77-.08.26-.15.51-.22.77-.03.32-.09.78-.18,1.39-.02.09-.1.13-.23.13-.24,0-.61,0-1.09,0-.49,0-.86,0-1.1,0-.67,0-1.57.06-2.7.18-.06,0-.24.03-.52.08-.22.04-.4.06-.53.06-.17,0-.25-.16-.25-.47,0-.17.11-.63.33-1.39.21-.72.36-1.19.46-1.4.04-.1.13-.15.25-.15.25,0,.62.01,1.12.04s.87.04,1.12.04c.52,0,1.39-.08,2.59-.23.63-.08.93-.12.89-.12.13,0,.2.11.2.32Z"/>
    </g>
    <g>
      <path class="cls-1" d="m280.05,82.31c0,.11-.08.19-.24.24-.19.05-.78.08-1.78.08-.91,0-1.5-.03-1.76-.08-.22-.04-.35-.19-.41-.43-.22-.92-.39-1.41-.51-1.47-.1-.04-.96-.07-2.56-.07-1.08,0-1.66.03-1.73.09-.11.1-.23.44-.36,1.02-.12.53-.27.82-.44.86-.22.05-.94.08-2.18.08-.98,0-1.46-.09-1.46-.28,0-.17.72-2.2,2.16-6.11,1.56-4.23,2.41-6.55,2.54-6.97.08-.24.17-.36.27-.36.17,0,.44.02.8.05.36.03.63.05.81.05s.43-.01.76-.03c.33-.02.58-.03.75-.03.12,0,.23.11.33.32.31.67,1.22,2.96,2.73,6.88,1.52,3.94,2.28,6,2.28,6.18Zm-6.78-8.71c-.13.28-.36.89-.68,1.83-.34.99-.52,1.58-.52,1.75,0,.11.19.18.57.19.2.01.52.02.98.02.42,0,.65-.05.7-.15.01-.03.02-.08.02-.13,0-.21-.15-.79-.44-1.74-.29-.92-.5-1.5-.63-1.76Z"/>
      <path class="cls-1" d="m288.68,78.1c-.33,0-.77-.01-1.35-.04-.65-.03-1.1-.04-1.36-.04,0,.26.02.75.05,1.45.02.61.03,1.09.03,1.44,0,.25-.48.37-1.44.37s-1.4-.08-1.4-.24c0-.4,0-.9.03-1.53.02-.86.03-1.37.04-1.52-1.67.05-2.55.08-2.65.08-.11,0-.17-.1-.17-.3,0-.06.03-.43.1-1.09,0-.38.02-.77.04-1.18.06-.1.14-.14.26-.14.31,0,.72,0,1.21.03.66.02,1.07.03,1.21.04-.01-.56-.02-1.16-.02-1.8v-1.04c0-.12.08-.18.25-.18.24,0,.58,0,1.05-.02.46-.01.81-.02,1.04-.02.31,0,.47.05.47.16,0,.32-.01.8-.03,1.45-.02.65-.03,1.14-.03,1.46,1.36-.03,2.29-.04,2.78-.04.13,0,.2.06.2.17,0,.07-.04.46-.11,1.18.02.27,0,.67-.06,1.19-.03.09-.07.13-.13.13Z"/>
    </g>
    <g>
      <path class="cls-1" d="m69.7,186.99c0,.11-.08.19-.24.24-.19.05-.78.08-1.78.08-.91,0-1.5-.03-1.76-.08-.22-.04-.35-.19-.41-.43-.22-.92-.39-1.41-.51-1.47-.1-.04-.96-.07-2.56-.07-1.08,0-1.66.03-1.73.09-.11.1-.23.44-.36,1.02-.12.53-.27.82-.44.86-.22.05-.94.08-2.18.08-.98,0-1.46-.09-1.46-.28,0-.17.72-2.2,2.16-6.11,1.56-4.23,2.41-6.55,2.54-6.97.08-.24.17-.36.27-.36.17,0,.44.02.8.05.36.03.63.05.81.05s.43-.01.76-.03c.33-.02.58-.03.75-.03.12,0,.23.1.33.32.31.67,1.22,2.96,2.73,6.88,1.52,3.95,2.28,6,2.28,6.18Zm-6.78-8.71c-.13.28-.36.89-.68,1.83-.34.99-.52,1.58-.52,1.75,0,.11.19.18.57.19.2.01.52.02.98.02.42,0,.65-.05.7-.15.01-.03.02-.08.02-.13,0-.21-.15-.79-.44-1.74-.29-.92-.5-1.5-.63-1.76Z"/>
      <path class="cls-1" d="m78.33,182.79c-.33,0-.77-.01-1.35-.04-.65-.03-1.1-.04-1.36-.04,0,.26.02.75.05,1.45.02.61.03,1.09.03,1.44,0,.25-.48.37-1.44.37s-1.4-.08-1.4-.24c0-.4,0-.9.03-1.53.02-.86.03-1.37.04-1.52-1.67.05-2.55.08-2.65.08-.11,0-.17-.1-.17-.3,0-.06.03-.43.1-1.09,0-.38.02-.77.04-1.18.06-.1.14-.14.26-.14.31,0,.72,0,1.21.03.66.02,1.07.03,1.21.04-.01-.56-.02-1.16-.02-1.8v-1.04c0-.12.08-.18.25-.18.24,0,.58,0,1.05-.02.46-.01.81-.02,1.04-.02.31,0,.47.05.47.16,0,.32-.01.8-.03,1.45-.02.65-.03,1.14-.03,1.46,1.36-.03,2.29-.04,2.78-.04.13,0,.2.06.2.17,0,.07-.04.46-.11,1.18.02.27,0,.67-.06,1.19-.03.09-.07.13-.13.13Z"/>
    </g>
    <g>
      <path class="cls-1" d="m311.79,82.18c0,.1-.07.17-.21.21-.17.04-.68.07-1.54.07-.79,0-1.3-.02-1.52-.07-.19-.04-.31-.16-.36-.37-.19-.79-.33-1.22-.44-1.27-.09-.04-.83-.06-2.22-.06-.94,0-1.44.02-1.5.07-.09.09-.2.38-.31.88-.11.46-.23.71-.38.74-.19.04-.82.07-1.88.07-.84,0-1.26-.08-1.26-.24,0-.14.62-1.9,1.87-5.28,1.35-3.65,2.08-5.66,2.2-6.03.07-.21.14-.31.23-.31.15,0,.38.01.69.04.31.03.54.04.7.04s.37,0,.66-.03c.29-.02.51-.03.65-.03.1,0,.2.09.29.27.27.58,1.06,2.56,2.36,5.95,1.31,3.41,1.97,5.19,1.97,5.34Zm-5.86-7.53c-.12.24-.31.77-.59,1.58-.3.86-.45,1.36-.45,1.51,0,.1.17.15.5.17.17.01.45.02.84.02.36,0,.56-.04.6-.13.01-.03.02-.07.02-.12,0-.18-.13-.68-.38-1.5-.25-.79-.43-1.3-.55-1.52Z"/>
      <path class="cls-1" d="m322.41,78.82c0,1.01-.32,1.85-.95,2.52-.72.77-1.99,1.15-3.8,1.15-.14,0-.34,0-.6,0h-.59c-2.03,0-3.24-.04-3.63-.12-.16-.03-.24-.12-.24-.26,0-.59.03-1.48.1-2.68.07-1.2.1-2.09.1-2.69,0-.64-.03-1.84-.1-3.6-.02-.45-.05-1.13-.09-2.03v-.12c-.01-.1.07-.17.25-.19.18-.02.82-.03,1.91-.03,1.76,0,2.79,0,3.08.02,1.36.05,2.36.27,3,.66.85.52,1.28,1.41,1.28,2.65,0,.33-.1.67-.3,1.03-.14.26-.33.52-.56.78-.2.23-.31.33-.31.31,0,.04.07.1.21.18.39.22.69.57.91,1.05.2.43.3.89.3,1.37Zm-3.55-4.65c0-.47-.24-.79-.71-.94-.26-.08-.7-.12-1.31-.12s-.89.04-.89.13c0,.1-.01.26-.03.48-.02.21-.03.37-.03.48,0,.55.05.86.14.93.06.05.41.07,1.05.07,1.18,0,1.78-.34,1.78-1.02Zm.25,4.62c0-.5-.21-.83-.62-1.01-.26-.11-.69-.17-1.29-.17-.71,0-1.1.03-1.16.08-.06.05-.09.39-.09,1.01s.04,1.01.11,1.08c.07.07.47.1,1.19.1.6,0,1.01-.05,1.26-.14.4-.16.6-.48.6-.96Z"/>
      <path class="cls-1" d="m329.3,76.02c0,.17-.04.39-.12.67-.07.22-.13.44-.19.67-.02.28-.07.68-.16,1.2-.02.08-.08.12-.2.12-.21,0-.52,0-.95,0-.42,0-.74,0-.95,0-.58,0-1.36.05-2.33.16-.06,0-.2.03-.45.07-.19.03-.35.05-.45.05-.14,0-.21-.13-.21-.41,0-.14.09-.54.28-1.2.18-.62.31-1.03.4-1.21.04-.09.11-.13.21-.13.21,0,.54.01.97.03.43.02.75.03.97.03.45,0,1.2-.07,2.24-.2.55-.07.8-.11.77-.11.12,0,.17.09.17.27Z"/>
    </g>
    <g>
      <path class="cls-1" d="m61.85,150.99c0,.1-.07.17-.21.21-.17.04-.68.07-1.54.07-.79,0-1.3-.02-1.52-.07-.19-.04-.31-.16-.36-.37-.19-.79-.33-1.22-.44-1.27-.09-.04-.83-.06-2.22-.06-.94,0-1.44.02-1.5.07-.09.09-.2.38-.31.88-.1.46-.23.71-.38.74-.19.04-.82.07-1.88.07-.84,0-1.26-.08-1.26-.24,0-.14.62-1.9,1.87-5.28,1.35-3.65,2.08-5.66,2.2-6.03.07-.21.14-.31.23-.31.15,0,.38.01.69.04.31.03.54.04.7.04s.37,0,.66-.03c.29-.02.51-.03.65-.03.1,0,.2.09.29.27.27.58,1.06,2.56,2.36,5.95,1.31,3.41,1.97,5.19,1.97,5.34Zm-5.86-7.53c-.12.24-.31.77-.59,1.58-.3.86-.45,1.36-.45,1.51,0,.1.17.15.5.17.17.01.45.02.84.02.36,0,.56-.04.6-.13.01-.03.02-.07.02-.12,0-.18-.13-.68-.38-1.5-.25-.79-.43-1.3-.55-1.52Z"/>
      <path class="cls-1" d="m72.46,147.63c0,1.01-.32,1.85-.95,2.52-.72.77-1.99,1.15-3.8,1.15-.14,0-.34,0-.6,0h-.59c-2.03,0-3.24-.04-3.63-.12-.16-.03-.24-.12-.24-.26,0-.59.03-1.48.1-2.68.07-1.2.1-2.09.1-2.69,0-.64-.03-1.84-.1-3.6-.02-.45-.05-1.13-.09-2.03v-.12c-.01-.1.07-.17.25-.19.18-.02.82-.03,1.91-.03,1.76,0,2.79,0,3.08.02,1.36.05,2.36.27,3,.66.85.52,1.28,1.41,1.28,2.65,0,.33-.1.67-.3,1.03-.14.26-.33.52-.56.78-.2.23-.31.33-.31.31,0,.04.07.1.21.18.39.22.69.57.91,1.05.2.43.3.89.3,1.37Zm-3.55-4.65c0-.47-.24-.79-.71-.94-.26-.08-.7-.12-1.31-.12s-.89.04-.89.13c0,.1,0,.26-.03.48-.02.21-.03.37-.03.48,0,.55.05.86.14.93.06.05.41.07,1.05.07,1.18,0,1.78-.34,1.78-1.02Zm.25,4.62c0-.5-.21-.83-.62-1.01-.26-.11-.69-.17-1.29-.17-.71,0-1.1.03-1.16.08-.06.05-.09.39-.09,1.01s.04,1.01.11,1.08c.07.07.47.1,1.19.1.6,0,1.01-.05,1.26-.14.4-.16.6-.48.6-.96Z"/>
      <path class="cls-1" d="m79.36,144.83c0,.17-.04.39-.12.67-.07.22-.13.44-.19.67-.02.28-.07.68-.16,1.2-.02.08-.08.12-.2.12-.21,0-.52,0-.95,0-.42,0-.74,0-.95,0-.58,0-1.36.05-2.33.16-.06,0-.2.03-.45.07-.19.03-.34.05-.45.05-.14,0-.21-.13-.21-.41,0-.14.09-.54.28-1.2.18-.62.31-1.03.4-1.21.04-.09.11-.13.21-.13.21,0,.54.01.97.03.43.02.75.03.97.03.45,0,1.2-.07,2.24-.2.55-.07.8-.11.77-.11.12,0,.17.09.17.27Z"/>
    </g>
    <g>
      <path class="cls-1" d="m347.67,81.99c0,.1-.07.17-.21.21-.17.04-.68.07-1.54.07-.79,0-1.3-.02-1.52-.07-.19-.04-.31-.16-.36-.37-.19-.79-.33-1.22-.44-1.27-.09-.04-.83-.06-2.22-.06-.94,0-1.44.02-1.5.07-.09.09-.2.38-.31.88-.1.46-.23.71-.38.74-.19.04-.82.07-1.88.07-.84,0-1.26-.08-1.26-.24,0-.14.62-1.9,1.87-5.28,1.35-3.65,2.08-5.66,2.2-6.03.07-.21.14-.31.23-.31.15,0,.38.01.69.04.31.03.54.04.7.04s.37,0,.66-.03c.29-.02.51-.03.65-.03.1,0,.2.09.29.27.27.58,1.06,2.56,2.36,5.95,1.31,3.41,1.97,5.19,1.97,5.34Zm-5.86-7.53c-.12.24-.31.77-.59,1.58-.3.86-.45,1.36-.45,1.51,0,.1.17.15.5.17.17.01.45.02.84.02.36,0,.56-.04.6-.13.01-.03.02-.07.02-.12,0-.18-.13-.68-.38-1.5-.25-.79-.43-1.3-.55-1.52Z"/>
      <path class="cls-1" d="m358.28,78.63c0,1.01-.32,1.85-.95,2.52-.72.77-1.99,1.15-3.8,1.15-.14,0-.34,0-.6,0h-.59c-2.03,0-3.24-.04-3.63-.12-.16-.03-.24-.12-.24-.26,0-.59.03-1.48.1-2.68.07-1.2.1-2.09.1-2.69,0-.64-.03-1.84-.1-3.6-.02-.45-.05-1.13-.09-2.03v-.12c-.01-.1.07-.17.25-.19.18-.02.82-.03,1.91-.03,1.76,0,2.79,0,3.08.02,1.36.05,2.36.27,3,.66.85.52,1.28,1.41,1.28,2.65,0,.33-.1.67-.3,1.03-.14.26-.33.52-.56.78-.2.23-.31.33-.31.31,0,.04.07.1.21.18.39.22.69.57.91,1.05.2.43.3.89.3,1.37Zm-3.55-4.65c0-.47-.24-.79-.71-.94-.26-.08-.7-.12-1.31-.12s-.89.04-.89.13c0,.1,0,.26-.03.48-.02.21-.03.37-.03.48,0,.55.05.86.14.93.06.05.41.07,1.05.07,1.18,0,1.78-.34,1.78-1.02Zm.25,4.62c0-.5-.21-.83-.62-1.01-.26-.11-.69-.17-1.29-.17-.71,0-1.1.03-1.16.08-.06.05-.09.39-.09,1.01s.04,1.01.11,1.08c.07.07.47.1,1.19.1.6,0,1.01-.05,1.26-.14.4-.16.6-.48.6-.96Z"/>
      <path class="cls-1" d="m365.96,78.35c-.28,0-.67-.01-1.17-.03-.56-.02-.95-.03-1.17-.03,0,.23.02.64.04,1.26.02.52.02.94.02,1.25,0,.21-.42.32-1.25.32s-1.21-.07-1.21-.21c0-.34,0-.78.02-1.32.02-.74.03-1.18.03-1.31-1.44.04-2.21.07-2.29.07-.1,0-.15-.09-.15-.26,0-.06.03-.37.08-.94,0-.33.02-.67.03-1.02.05-.08.12-.12.22-.12.27,0,.62,0,1.05.02.57.02.92.03,1.05.03-.01-.48-.02-1-.02-1.55v-.9c0-.1.07-.16.21-.16.2,0,.51,0,.91-.02.4-.01.7-.02.9-.02.27,0,.41.05.41.14,0,.28,0,.69-.03,1.26s-.03.98-.03,1.26c1.18-.02,1.98-.03,2.41-.03.12,0,.17.05.17.15,0,.06-.03.4-.09,1.02.02.23,0,.58-.05,1.03-.02.08-.06.12-.12.12Z"/>
    </g>
    <g>
      <path class="cls-1" d="m61.59,113.09c0,.1-.07.17-.21.21-.17.04-.68.07-1.54.07-.79,0-1.3-.02-1.52-.07-.19-.04-.31-.16-.36-.37-.19-.79-.33-1.22-.44-1.27-.09-.04-.83-.06-2.22-.06-.94,0-1.44.02-1.5.07-.09.09-.2.38-.31.88-.1.46-.23.71-.38.74-.19.04-.82.07-1.88.07-.84,0-1.26-.08-1.26-.24,0-.14.62-1.9,1.87-5.28,1.35-3.65,2.08-5.66,2.2-6.03.07-.21.14-.31.23-.31.15,0,.38.01.69.04.31.03.54.04.7.04s.37,0,.66-.03.51-.03.65-.03c.1,0,.2.09.29.27.27.58,1.06,2.56,2.36,5.95,1.31,3.41,1.97,5.19,1.97,5.34Zm-5.86-7.53c-.12.24-.31.77-.59,1.58-.3.86-.45,1.36-.45,1.51,0,.1.17.15.5.17.17.01.45.02.84.02.36,0,.56-.04.6-.13.01-.03.02-.07.02-.12,0-.18-.13-.68-.38-1.5-.25-.79-.43-1.3-.55-1.52Z"/>
      <path class="cls-1" d="m72.2,109.72c0,1.01-.32,1.85-.95,2.52-.72.77-1.99,1.15-3.8,1.15-.14,0-.34,0-.6,0h-.59c-2.03,0-3.24-.04-3.63-.12-.16-.03-.24-.12-.24-.26,0-.59.03-1.48.1-2.68.07-1.2.1-2.09.1-2.69,0-.64-.03-1.84-.1-3.6-.02-.45-.05-1.13-.09-2.03v-.12c-.01-.1.07-.17.25-.19.18-.02.82-.03,1.91-.03,1.76,0,2.79,0,3.08.02,1.36.05,2.36.27,3,.66.85.52,1.28,1.41,1.28,2.65,0,.33-.1.67-.3,1.03-.14.26-.33.52-.56.78-.2.23-.31.33-.31.31,0,.04.07.1.21.18.39.22.69.57.91,1.05.2.43.3.89.3,1.37Zm-3.55-4.65c0-.47-.24-.79-.71-.94-.26-.08-.7-.12-1.31-.12s-.89.04-.89.13c0,.1,0,.26-.03.48-.02.21-.03.37-.03.48,0,.55.05.86.14.93.06.05.41.07,1.05.07,1.18,0,1.78-.34,1.78-1.02Zm.25,4.62c0-.5-.21-.83-.62-1.01-.26-.11-.69-.17-1.29-.17-.71,0-1.1.03-1.16.08-.06.05-.09.39-.09,1.01s.04,1.01.11,1.08c.07.07.47.1,1.19.1.6,0,1.01-.05,1.26-.14.4-.16.6-.48.6-.96Z"/>
      <path class="cls-1" d="m79.88,109.45c-.28,0-.67-.01-1.17-.03-.56-.02-.95-.03-1.17-.03,0,.23.02.64.04,1.26.02.52.02.94.02,1.25,0,.21-.42.32-1.25.32s-1.21-.07-1.21-.21c0-.34,0-.78.02-1.32.02-.74.03-1.18.03-1.31-1.44.04-2.21.07-2.29.07-.1,0-.15-.09-.15-.26,0-.06.03-.37.08-.94,0-.33.02-.67.03-1.02.05-.08.12-.12.22-.12.27,0,.62,0,1.05.02.57.02.92.03,1.05.03-.01-.49-.02-1-.02-1.55v-.9c0-.1.07-.16.21-.16.2,0,.51,0,.91-.02.4-.01.7-.02.9-.02.27,0,.41.05.41.14,0,.28,0,.69-.03,1.26-.02.56-.03.98-.03,1.26,1.18-.02,1.98-.03,2.41-.03.12,0,.17.05.17.15,0,.06-.03.4-.09,1.02.02.23,0,.58-.05,1.03-.02.08-.06.12-.12.12Z"/>
    </g>
    <path class="cls-4" d="m112.94,110.59c-.03-.09-.03-.06-.05-.14l-.03-.07c-.21-.45-.42-.86-.68-1.27l-2.74-5.13-3.45-6.48c-.15-.28-.53-.28-.68,0l-3.45,6.48-2.54,4.77c-.79,1.51-1.51,2.85-1.51,4.5,0,4.11,3.5,7.45,7.82,7.45,4.32,0,7.82-3.33,7.82-7.45,0-.92-.18-1.82-.5-2.65Z"/>
    <path class="cls-4" d="m113.45,145.59c-.03-.09-.03-.06-.05-.14l-.03-.07c-.21-.45-.42-.86-.68-1.27l-2.74-5.13-3.45-6.48c-.15-.28-.53-.28-.68,0l-3.45,6.48-2.54,4.77c-.79,1.51-1.51,2.85-1.51,4.5,0,4.11,3.5,7.45,7.82,7.45,4.32,0,7.82-3.33,7.82-7.45,0-.92-.18-1.82-.5-2.65Z"/>
    <path class="cls-4" d="m112.94,182.05c-.03-.09-.03-.06-.05-.14l-.03-.07c-.21-.45-.42-.86-.68-1.27l-2.74-5.13-3.45-6.48c-.15-.28-.53-.28-.68,0l-3.45,6.48-2.54,4.77c-.79,1.51-1.51,2.85-1.51,4.5,0,4.11,3.5,7.45,7.82,7.45,4.32,0,7.82-3.33,7.82-7.45,0-.92-.18-1.82-.5-2.65Z"/>
    <path class="cls-4" d="m148.55,181.78c-.03-.09-.03-.06-.05-.14l-.03-.07c-.21-.45-.42-.86-.68-1.27l-2.74-5.13-3.45-6.48c-.15-.28-.53-.28-.68,0l-3.45,6.48-2.54,4.77c-.79,1.51-1.51,2.85-1.51,4.5,0,4.11,3.5,7.45,7.82,7.45,4.32,0,7.82-3.33,7.82-7.45,0-.92-.18-1.82-.5-2.65Z"/>
    <path class="cls-4" d="m113.45,216.16c-.03-.09-.03-.06-.05-.14l-.03-.07c-.21-.45-.42-.86-.68-1.27l-2.74-5.13-3.45-6.48c-.15-.28-.53-.28-.68,0l-3.45,6.48-2.54,4.77c-.79,1.51-1.51,2.85-1.51,4.5,0,4.11,3.5,7.45,7.82,7.45,4.32,0,7.82-3.33,7.82-7.45,0-.92-.18-1.82-.5-2.65Z"/>
    <path class="cls-4" d="m112.94,250.26c-.03-.09-.03-.06-.05-.14l-.03-.07c-.21-.45-.42-.86-.68-1.27l-2.74-5.13-3.45-6.48c-.15-.28-.53-.28-.68,0l-3.45,6.48-2.54,4.77c-.79,1.51-1.51,2.85-1.51,4.5,0,4.11,3.5,7.45,7.82,7.45,4.32,0,7.82-3.33,7.82-7.45,0-.92-.18-1.82-.5-2.65Z"/>
    <path class="cls-4" d="m148.55,250.35c-.03-.09-.03-.06-.05-.14l-.03-.07c-.21-.45-.42-.86-.68-1.27l-2.74-5.13-3.45-6.48c-.15-.28-.53-.28-.68,0l-3.45,6.48-2.54,4.77c-.79,1.51-1.51,2.85-1.51,4.5,0,4.11,3.5,7.45,7.82,7.45,4.32,0,7.82-3.33,7.82-7.45,0-.92-.18-1.82-.5-2.65Z"/>
    <path class="cls-4" d="m182.65,250.26c-.03-.09-.03-.06-.05-.14l-.03-.07c-.21-.45-.42-.86-.68-1.27l-2.74-5.13-3.45-6.48c-.15-.28-.53-.28-.68,0l-3.45,6.48-2.54,4.77c-.79,1.51-1.51,2.85-1.51,4.5,0,4.11,3.5,7.45,7.82,7.45,4.32,0,7.82-3.33,7.82-7.45,0-.92-.18-1.82-.5-2.65Z"/>
    <path class="cls-4" d="m217.64,250.26c-.03-.09-.03-.06-.05-.14l-.03-.07c-.21-.45-.42-.86-.68-1.27l-2.74-5.13-3.45-6.48c-.15-.28-.53-.28-.68,0l-3.45,6.48-2.54,4.77c-.79,1.51-1.51,2.85-1.51,4.5,0,4.11,3.5,7.45,7.82,7.45,4.32,0,7.82-3.33,7.82-7.45,0-.92-.18-1.82-.5-2.65Z"/>
    <path class="cls-4" d="m112.94,284.61c-.03-.09-.03-.06-.05-.14l-.03-.07c-.21-.45-.42-.86-.68-1.27l-2.74-5.13-3.45-6.48c-.15-.28-.53-.28-.68,0l-3.45,6.48-2.54,4.77c-.79,1.51-1.51,2.85-1.51,4.5,0,4.11,3.5,7.45,7.82,7.45,4.32,0,7.82-3.33,7.82-7.45,0-.92-.18-1.82-.5-2.65Z"/>
    <path class="cls-4" d="m113.45,318.96c-.03-.09-.03-.06-.05-.14l-.03-.07c-.21-.45-.42-.86-.68-1.27l-2.74-5.13-3.45-6.48c-.15-.28-.53-.28-.68,0l-3.45,6.48-2.54,4.77c-.79,1.51-1.51,2.85-1.51,4.5,0,4.11,3.5,7.45,7.82,7.45,4.32,0,7.82-3.33,7.82-7.45,0-.92-.18-1.82-.5-2.65Z"/>
    <path class="cls-4" d="m113.45,353.79c-.03-.09-.03-.06-.05-.14l-.03-.07c-.21-.45-.42-.86-.68-1.27l-2.74-5.13-3.45-6.48c-.15-.28-.53-.28-.68,0l-3.45,6.48-2.54,4.77c-.79,1.51-1.51,2.85-1.51,4.5,0,4.11,3.5,7.45,7.82,7.45,4.32,0,7.82-3.33,7.82-7.45,0-.92-.18-1.82-.5-2.65Z"/>
    <path class="cls-4" d="m148.55,318.97c-.03-.09-.03-.06-.05-.14l-.03-.07c-.21-.45-.42-.86-.68-1.27l-2.74-5.13-3.45-6.48c-.15-.28-.53-.28-.68,0l-3.45,6.48-2.54,4.77c-.79,1.51-1.51,2.85-1.51,4.5,0,4.11,3.5,7.45,7.82,7.45,4.32,0,7.82-3.33,7.82-7.45,0-.92-.18-1.82-.5-2.65Z"/>
    <path class="cls-4" d="m182.65,284.45c-.03-.09-.03-.06-.05-.14l-.03-.07c-.21-.45-.42-.86-.68-1.27l-2.74-5.13-3.45-6.48c-.15-.28-.53-.28-.68,0l-3.45,6.48-2.54,4.77c-.79,1.51-1.51,2.85-1.51,4.5,0,4.11,3.5,7.45,7.82,7.45,4.32,0,7.82-3.33,7.82-7.45,0-.92-.18-1.82-.5-2.65Z"/>
    <path class="cls-4" d="m287.37,182.05c-.03-.09-.03-.06-.05-.14l-.03-.07c-.21-.45-.42-.86-.68-1.27l-2.74-5.13-3.45-6.48c-.15-.28-.53-.28-.68,0l-3.45,6.48-2.54,4.77c-.79,1.51-1.51,2.85-1.51,4.5,0,4.11,3.5,7.45,7.82,7.45,4.32,0,7.82-3.33,7.82-7.45,0-.92-.18-1.82-.5-2.65Z"/>
    <path class="cls-4" d="m320.82,146.7c-.03-.09-.03-.06-.05-.14l-.03-.07c-.21-.45-.42-.86-.68-1.27l-2.74-5.13-3.45-6.48c-.15-.28-.53-.28-.68,0l-3.45,6.48-2.54,4.77c-.79,1.51-1.51,2.85-1.51,4.5,0,4.11,3.5,7.45,7.82,7.45,4.32,0,7.82-3.33,7.82-7.45,0-.92-.18-1.82-.5-2.65Z"/>
    <path class="cls-4" d="m148.55,110.59c-.03-.09-.03-.06-.05-.14l-.03-.07c-.21-.45-.42-.86-.68-1.27l-2.74-5.13-3.45-6.48c-.15-.28-.53-.28-.68,0l-3.45,6.48-2.54,4.77c-.79,1.51-1.51,2.85-1.51,4.5,0,4.11,3.5,7.45,7.82,7.45,4.32,0,7.82-3.33,7.82-7.45,0-.92-.18-1.82-.5-2.65Z"/>
    <path class="cls-4" d="m182.65,109.96c-.03-.09-.03-.06-.05-.14l-.03-.07c-.21-.45-.42-.86-.68-1.27l-2.74-5.13-3.45-6.48c-.15-.28-.53-.28-.68,0l-3.45,6.48-2.54,4.77c-.79,1.51-1.51,2.85-1.51,4.5,0,4.11,3.5,7.45,7.82,7.45,4.32,0,7.82-3.33,7.82-7.45,0-.92-.18-1.82-.5-2.65Z"/>
    <path class="cls-4" d="m182.65,146.93c-.03-.09-.03-.06-.05-.14l-.03-.07c-.21-.45-.42-.86-.68-1.27l-2.74-5.13-3.45-6.48c-.15-.28-.53-.28-.68,0l-3.45,6.48-2.54,4.77c-.79,1.51-1.51,2.85-1.51,4.5,0,4.11,3.5,7.45,7.82,7.45,4.32,0,7.82-3.33,7.82-7.45,0-.92-.18-1.82-.5-2.65Z"/>
    <path class="cls-4" d="m216.85,110.49c-.03-.09-.03-.06-.05-.14l-.03-.07c-.21-.45-.42-.86-.68-1.27l-2.74-5.13-3.45-6.48c-.15-.28-.53-.28-.68,0l-3.45,6.48-2.54,4.77c-.79,1.51-1.51,2.85-1.51,4.5,0,4.11,3.5,7.45,7.82,7.45,4.32,0,7.82-3.33,7.82-7.45,0-.92-.18-1.82-.5-2.65Z"/>
    <path class="cls-4" d="m250.95,110.49c-.03-.09-.03-.06-.05-.14l-.03-.07c-.21-.45-.42-.86-.68-1.27l-2.74-5.13-3.45-6.48c-.15-.28-.53-.28-.68,0l-3.45,6.48-2.54,4.77c-.79,1.51-1.51,2.85-1.51,4.5,0,4.11,3.5,7.45,7.82,7.45,4.32,0,7.82-3.33,7.82-7.45,0-.92-.18-1.82-.5-2.65Z"/>
    <path class="cls-4" d="m250.95,146.95c-.03-.09-.03-.06-.05-.14l-.03-.07c-.21-.45-.42-.86-.68-1.27l-2.74-5.13-3.45-6.48c-.15-.28-.53-.28-.68,0l-3.45,6.48-2.54,4.77c-.79,1.51-1.51,2.85-1.51,4.5,0,4.11,3.5,7.45,7.82,7.45,4.32,0,7.82-3.33,7.82-7.45,0-.92-.18-1.82-.5-2.65Z"/>
    <path class="cls-4" d="m250.95,181.78c-.03-.09-.03-.06-.05-.14l-.03-.07c-.21-.45-.42-.86-.68-1.27l-2.74-5.13-3.45-6.48c-.15-.28-.53-.28-.68,0l-3.45,6.48-2.54,4.77c-.79,1.51-1.51,2.85-1.51,4.5,0,4.11,3.5,7.45,7.82,7.45,4.32,0,7.82-3.33,7.82-7.45,0-.92-.18-1.82-.5-2.65Z"/>
    <path class="cls-4" d="m250.95,215.88c-.03-.09-.03-.06-.05-.14l-.03-.07c-.21-.45-.42-.86-.68-1.27l-2.74-5.13-3.45-6.48c-.15-.28-.53-.28-.68,0l-3.45,6.48-2.54,4.77c-.79,1.51-1.51,2.85-1.51,4.5,0,4.11,3.5,7.45,7.82,7.45,4.32,0,7.82-3.33,7.82-7.45,0-.92-.18-1.82-.5-2.65Z"/>
    <path class="cls-4" d="m285.47,110.49c-.03-.09-.03-.06-.05-.14l-.03-.07c-.21-.45-.42-.86-.68-1.27l-2.74-5.13-3.45-6.48c-.15-.28-.53-.28-.68,0l-3.45,6.48-2.54,4.77c-.79,1.51-1.51,2.85-1.51,4.5,0,4.11,3.5,7.45,7.82,7.45,4.32,0,7.82-3.33,7.82-7.45,0-.92-.18-1.82-.5-2.65Z"/>
    <path class="cls-4" d="m320.82,110.19c-.03-.09-.03-.06-.05-.14l-.03-.07c-.21-.45-.42-.86-.68-1.27l-2.74-5.13-3.45-6.48c-.15-.28-.53-.28-.68,0l-3.45,6.48-2.54,4.77c-.79,1.51-1.51,2.85-1.51,4.5,0,4.11,3.5,7.45,7.82,7.45,4.32,0,7.82-3.33,7.82-7.45,0-.92-.18-1.82-.5-2.65Z"/>
    <path class="cls-4" d="m356.64,109.85c-.03-.09-.03-.06-.05-.14l-.03-.07c-.21-.45-.42-.86-.68-1.27l-2.74-5.13-3.45-6.48c-.15-.28-.53-.28-.68,0l-3.45,6.48-2.54,4.77c-.79,1.51-1.51,2.85-1.51,4.5,0,4.11,3.5,7.45,7.82,7.45,4.32,0,7.82-3.33,7.82-7.45,0-.92-.18-1.82-.5-2.65Z"/>
    <g>
      <path class="cls-1" d="m192.88,39.96c0,1.85-.6,3.46-1.79,4.82-1.05,1.22-2.53,1.85-4.43,1.92-.37.01-1.37.02-3.01.02-.31,0-.77,0-1.39-.03-.62-.02-1.08-.03-1.39-.03-.18,0-.27-.07-.27-.22,0-.69.03-1.73.08-3.12.05-1.39.08-2.43.08-3.12s-.03-1.81-.08-3.25c-.05-1.45-.08-2.53-.08-3.24,0-.13.09-.21.27-.24.45-.05,1.18-.08,2.2-.08,1.94,0,3.2.03,3.77.09,1.49.15,2.66.53,3.5,1.13.79.57,1.42,1.36,1.88,2.38.44.96.66,1.96.66,2.98Zm-3.62,0c0-1.06-.32-1.93-.95-2.61-.64-.7-1.49-1.05-2.55-1.05-.97,0-1.45.13-1.45.39,0,.37,0,.93-.02,1.68-.01.75-.02,1.31-.02,1.68s0,.91.02,1.65c.01.73.02,1.29.02,1.66,0,.27.5.41,1.51.41,1.09,0,1.95-.36,2.57-1.09.59-.69.88-1.59.88-2.71Z"/>
      <path class="cls-1" d="m207.46,40.04c0,1.96-.63,3.61-1.88,4.94-1.28,1.35-2.9,2.02-4.86,2.02s-3.56-.68-4.85-2.04c-1.26-1.33-1.89-2.97-1.89-4.92s.63-3.61,1.89-4.94c1.28-1.37,2.9-2.05,4.85-2.05s3.55.68,4.84,2.05c1.27,1.35,1.9,2.99,1.9,4.94Zm-3.58-.02c0-.94-.29-1.75-.86-2.41-.6-.69-1.36-1.04-2.3-1.04s-1.64.36-2.26,1.08c-.6.69-.9,1.49-.9,2.39,0,.96.28,1.77.84,2.41.59.67,1.36,1.01,2.31,1.01.89,0,1.64-.36,2.27-1.07.59-.68.89-1.47.89-2.37Z"/>
      <path class="cls-1" d="m221.51,33.69c0,.72-.03,1.8-.09,3.24-.06,1.44-.09,2.52-.09,3.24v6.22c0,.17-.09.26-.27.26-.15,0-.38,0-.68.02-.31.01-.53.02-.68.02-.16,0-.41-.01-.74-.04s-.57-.04-.74-.04c-.11,0-.25-.1-.41-.31-.45-.61-1.47-1.96-3.06-4.06-.43-.59-1.1-1.45-1.98-2.59-.03-.04-.07-.08-.14-.11-.05.04-.08.11-.08.21,0,.73.02,1.83.06,3.29.04,1.46.06,2.56.06,3.29,0,.22-.09.33-.26.33h-3.27c-.18,0-.27-.1-.27-.29,0-.68.03-1.71.1-3.08.07-1.37.1-2.4.1-3.09,0-.72-.03-1.81-.09-3.25-.06-1.44-.09-2.52-.09-3.24,0-.14.12-.21.37-.21.37,0,.82-.03,1.35-.08.13-.01.37-.05.75-.12.31-.06.56-.09.75-.09.08,0,.19.11.35.32l3.52,4.83c.31.43.79,1.07,1.43,1.91.16.2.29.29.41.29.08,0,.12-.25.12-.74,0-.66-.04-1.66-.11-2.98-.07-1.33-.11-2.33-.11-2.99,0-.23.07-.35.2-.35.38,0,.95-.02,1.71-.05.76-.03,1.33-.05,1.71-.05.12,0,.18.1.18.29Z"/>
      <path class="cls-1" d="m235.91,33.69c0,.72-.03,1.8-.09,3.24-.06,1.44-.09,2.52-.09,3.24v6.22c0,.17-.09.26-.27.26-.15,0-.38,0-.68.02-.31.01-.53.02-.68.02-.16,0-.41-.01-.74-.04s-.57-.04-.74-.04c-.11,0-.25-.1-.41-.31-.45-.61-1.47-1.96-3.06-4.06-.43-.59-1.1-1.45-1.98-2.59-.03-.04-.07-.08-.14-.11-.05.04-.08.11-.08.21,0,.73.02,1.83.06,3.29.04,1.46.06,2.56.06,3.29,0,.22-.09.33-.26.33h-3.27c-.18,0-.27-.1-.27-.29,0-.68.03-1.71.1-3.08.07-1.37.1-2.4.1-3.09,0-.72-.03-1.81-.09-3.25-.06-1.44-.09-2.52-.09-3.24,0-.14.12-.21.37-.21.37,0,.82-.03,1.35-.08.13-.01.37-.05.75-.12.31-.06.56-.09.75-.09.08,0,.19.11.35.32l3.52,4.83c.31.43.79,1.07,1.43,1.91.16.2.29.29.41.29.08,0,.12-.25.12-.74,0-.66-.04-1.66-.11-2.98-.07-1.33-.11-2.33-.11-2.99,0-.23.07-.35.2-.35.38,0,.95-.02,1.71-.05.76-.03,1.33-.05,1.71-.05.12,0,.18.1.18.29Z"/>
      <path class="cls-1" d="m247.34,43.72c0,.27-.05.77-.16,1.49-.11.79-.21,1.26-.3,1.41-.08.12-.18.18-.31.18-.06,0-.15,0-.28-.03-.46-.06-1.8-.09-4.02-.09-.49,0-1.21,0-2.16,0-.96,0-1.67,0-2.15,0-.21,0-.31-.09-.31-.27,0-.71.04-1.76.12-3.18.08-1.41.12-2.47.12-3.18s-.04-2.06-.11-4.01c-.02-.5-.05-1.26-.1-2.26v-.13c-.02-.14.06-.22.23-.22.47,0,1.17.01,2.1.04.93.03,1.64.04,2.1.04s1.15-.01,2.08-.04c.93-.03,1.62-.04,2.08-.04.33,0,.52.12.57.37.03.14.08.58.15,1.32.07.73.1,1.18.1,1.34,0,.13-.06.2-.19.2-.04,0-.1,0-.2,0-1.68-.14-3.18-.21-4.52-.21-.33,0-.54.08-.61.24-.03.08-.05.32-.05.73s.06.71.19.85c.11.12.31.18.61.18.06,0,.19,0,.37-.01.18,0,.33-.01.45-.01.79,0,1.6-.02,2.41-.07.07,0,.24-.02.52-.05.21-.03.38-.04.51-.04.15,0,.23.07.23.22,0-.13-.06.35-.17,1.45-.05.5-.08,1.01-.08,1.51,0,.13-.09.19-.27.19l-.85-.09c-.36-.04-1.18-.06-2.46-.06h-1c-.26,0-.41.06-.45.19,0,.03,0,.23,0,.59,0,.48.03.79.09.93.11.24.51.38,1.21.43-.01,0,.45,0,1.38,0,.33,0,.83-.03,1.49-.09s1.15-.09,1.48-.09c.14,0,.21.11.21.34Z"/>
      <path class="cls-1" d="m259.87,42.02c0,1.61-.19,2.7-.58,3.29-.71,1.07-2.47,1.61-5.28,1.61-1.27,0-2.25-.1-2.94-.29-1.1-.31-1.81-.92-2.13-1.8-.16-.43-.25-1.21-.25-2.32,0-.26,0-.64.03-1.15s.03-.89.03-1.14c0-.73-.03-1.83-.1-3.29-.07-1.46-.1-2.55-.1-3.28,0-.15.07-.23.2-.23.38,0,.97.02,1.74.05.78.03,1.36.05,1.74.05.16,0,.24.07.24.21,0,.83-.03,2.08-.08,3.74s-.08,2.9-.08,3.74c0,.99.1,1.66.31,2,.28.47.86.71,1.74.71,1.29,0,1.94-.63,1.94-1.88,0-.91-.02-2.28-.07-4.11-.04-1.83-.07-3.2-.07-4.11,0-.2.08-.29.24-.29.37,0,.93-.02,1.68-.05.75-.03,1.31-.05,1.68-.05.18,0,.27.08.27.23,0,.72-.03,1.82-.09,3.28-.06,1.46-.09,2.56-.09,3.29,0,.2,0,.51,0,.91,0,.41,0,.71,0,.91Z"/>
      <path class="cls-1" d="m272.99,46.56s-.06.08-.19.09c-.24.04-.84.06-1.8.06-.82,0-1.39-.02-1.68-.06-.14-.02-.22-.03-.24-.05-.04-.02-.08-.08-.13-.19-.09-.25-.23-.61-.42-1.1-.25-.63-.63-1.56-1.15-2.79-.11-.25-.38-.38-.78-.41.19.01-.14.02-.97.02-.09,0-.14.16-.14.48,0,.43.04,1.07.12,1.92s.12,1.49.12,1.92c0,.11-.03.17-.09.19-.09,0-.18.01-.26.02-.37.03-.95.04-1.74.04-.9,0-1.44-.02-1.62-.06s-.27-.14-.27-.29c0-.69.03-1.74.1-3.14.07-1.4.1-2.45.1-3.15,0-2.66-.06-4.74-.18-6.23v-.13c-.02-.11.08-.18.29-.22.2-.04,1.17-.08,2.89-.11,1.16-.03,2.09-.04,2.79-.04,1.44,0,2.61.32,3.51.97,1.03.73,1.54,1.79,1.54,3.16,0,.92-.13,1.65-.4,2.2s-.75,1.08-1.46,1.6c-.14.1-.22.2-.22.28,0,0,.38.78,1.15,2.37.77,1.59,1.15,2.46,1.15,2.63Zm-3.97-8.47c0-.77-.25-1.3-.76-1.6-.39-.23-1-.34-1.83-.34-.6,0-.92.09-.95.27-.04.21-.06.83-.06,1.85,0,.14,0,.36,0,.64,0,.28,0,.49,0,.63,0,.03.1.06.3.09.38.06.79.09,1.21.09,1.38,0,2.07-.55,2.07-1.64Z"/>
    </g>
    <g>
      <path class="cls-1" d="m22.64,269.47s.08.07.1.2c.04.25.06.89.06,1.91,0,.87-.02,1.47-.06,1.78-.02.15-.04.23-.05.25-.02.04-.09.09-.2.14-.26.1-.65.25-1.16.44-.67.26-1.65.67-2.95,1.22-.26.12-.4.4-.43.83.01-.2.02.14.02,1.03,0,.1.17.15.51.15.45,0,1.13-.04,2.03-.13s1.58-.13,2.03-.13c.11,0,.18.03.2.09,0,.09.01.19.02.28.03.39.04,1.01.04,1.84,0,.95-.02,1.53-.06,1.72-.04.19-.14.29-.31.29-.73,0-1.84-.03-3.32-.11-1.48-.07-2.59-.11-3.33-.11-2.82,0-5.03.06-6.61.19h-.14c-.11.02-.19-.09-.23-.31-.04-.22-.08-1.24-.12-3.06-.03-1.23-.04-2.22-.04-2.95,0-1.52.34-2.76,1.03-3.72.77-1.09,1.89-1.63,3.35-1.63.97,0,1.75.14,2.33.42s1.14.8,1.69,1.55c.11.15.21.23.3.23,0,0,.83-.41,2.51-1.22,1.68-.81,2.61-1.22,2.78-1.22Zm-8.98,4.21c-.81,0-1.38.27-1.69.8-.24.41-.36,1.06-.36,1.94,0,.63.1.97.29,1.01.23.04.88.06,1.96.06.15,0,.38,0,.68-.01.3,0,.52-.01.67-.01.03,0,.07-.11.1-.32.06-.41.09-.83.09-1.28,0-1.46-.58-2.19-1.74-2.19Z"/>
      <path class="cls-1" d="m19.62,258.09c.29,0,.81.06,1.58.17.83.12,1.33.23,1.49.32.13.08.19.19.19.33,0,.06,0,.16-.03.3-.07.49-.1,1.91-.1,4.27,0,.51,0,1.28-.01,2.29,0,1.01,0,1.78,0,2.28,0,.22-.1.33-.29.33-.75,0-1.87-.04-3.37-.13-1.5-.08-2.62-.13-3.37-.13s-2.18.04-4.26.12c-.53.02-1.33.06-2.39.11h-.14c-.15.02-.23-.06-.23-.24,0-.49.01-1.24.04-2.23.03-.99.04-1.73.04-2.23s-.01-1.22-.04-2.2c-.03-.98-.04-1.72-.04-2.2,0-.35.13-.55.39-.6.15-.03.62-.09,1.4-.16.78-.07,1.25-.11,1.42-.11.14,0,.21.07.21.2,0,.04,0,.11-.01.21-.15,1.78-.22,3.37-.22,4.79,0,.35.08.57.25.65.08.03.34.05.77.05s.75-.07.9-.2c.13-.11.19-.33.19-.65,0-.07,0-.2-.01-.39-.01-.19-.02-.35-.02-.48,0-.84-.02-1.69-.07-2.55,0-.07-.02-.26-.05-.55-.03-.23-.04-.41-.04-.54,0-.16.08-.24.23-.24-.14,0,.37.06,1.53.18.53.05,1.07.08,1.6.08.13,0,.2.1.2.29l-.1.9c-.04.38-.06,1.25-.06,2.6v1.06c0,.27.07.43.2.48.03,0,.24.01.62.01.51,0,.83-.03.98-.1.25-.11.4-.54.45-1.28,0,.01,0-.47,0-1.46,0-.35-.03-.88-.1-1.58s-.1-1.22-.1-1.57c0-.15.12-.22.36-.22Z"/>
      <path class="cls-1" d="m20.47,245.06c.11,0,.25.07.42.21,1.46,1.23,2.19,2.86,2.19,4.9s-.71,3.77-2.13,5.07c-1.37,1.26-3.11,1.89-5.21,1.89s-3.75-.62-5.17-1.85c-1.48-1.29-2.22-2.93-2.22-4.92,0-2.16.66-3.86,1.99-5.09.15-.13.28-.2.39-.2.13,0,.6.23,1.41.7.81.46,1.27.76,1.37.88.05.05.08.12.08.2,0,.03-.13.2-.4.5-.32.36-.57.71-.75,1.06-.27.53-.4,1.07-.4,1.64,0,.98.37,1.77,1.1,2.35.68.54,1.52.81,2.52.81s1.87-.27,2.55-.81c.75-.59,1.12-1.37,1.12-2.35,0-.58-.13-1.13-.38-1.65-.17-.34-.4-.69-.7-1.04-.25-.29-.38-.46-.38-.49,0-.07.04-.13.11-.2.12-.11.54-.4,1.25-.87.74-.49,1.15-.73,1.22-.73Z"/>
      <path class="cls-1" d="m19.62,233.72c.29,0,.81.06,1.58.17.83.12,1.33.23,1.49.32.13.08.19.19.19.33,0,.06,0,.16-.03.3-.07.49-.1,1.91-.1,4.27,0,.51,0,1.28-.01,2.29,0,1.01,0,1.78,0,2.28,0,.22-.1.33-.29.33-.75,0-1.87-.04-3.37-.13-1.5-.08-2.62-.13-3.37-.13s-2.18.04-4.26.12c-.53.02-1.33.06-2.39.11h-.14c-.15.02-.23-.06-.23-.24,0-.49.01-1.24.04-2.23.03-.99.04-1.73.04-2.23s-.01-1.22-.04-2.2c-.03-.98-.04-1.72-.04-2.2,0-.35.13-.55.39-.6.15-.03.62-.09,1.4-.16.78-.07,1.25-.11,1.42-.11.14,0,.21.07.21.2,0,.04,0,.11-.01.21-.15,1.78-.22,3.37-.22,4.79,0,.35.08.57.25.65.08.03.34.05.77.05s.75-.07.9-.2c.13-.11.19-.33.19-.65,0-.07,0-.2-.01-.39-.01-.19-.02-.35-.02-.48,0-.84-.02-1.69-.07-2.55,0-.07-.02-.26-.05-.55-.03-.23-.04-.41-.04-.54,0-.16.08-.24.23-.24-.14,0,.37.06,1.53.18.53.05,1.07.08,1.6.08.13,0,.2.1.2.29l-.1.9c-.04.38-.06,1.25-.06,2.6v1.06c0,.27.07.43.2.48.03,0,.24.01.62.01.51,0,.83-.03.98-.1.25-.11.4-.54.45-1.28,0,.01,0-.47,0-1.46,0-.35-.03-.88-.1-1.58s-.1-1.22-.1-1.57c0-.15.12-.22.36-.22Z"/>
      <path class="cls-1" d="m22.78,226.74c0,.9-.01,1.42-.04,1.54-.03.13-.12.23-.29.32-1.5.76-3.01,1.53-4.52,2.29-2.42,1.21-3.8,1.81-4.12,1.81-.53,0-1.32-.02-2.38-.06-1.06-.04-1.85-.05-2.38-.05-.25,0-.37-.07-.37-.2,0-.4.02-1.01.05-1.82.03-.81.05-1.43.05-1.83,0-.17.07-.25.21-.25.54,0,1.35.04,2.44.12,1.08.08,1.9.12,2.44.12.41,0,1.89-.68,4.44-2.03-.66-.37-1.47-.78-2.43-1.25-1.29-.63-2.09-.94-2.38-.94-.49,0-1.22,0-2.2.02-.98.01-1.71.02-2.2.02-.18,0-.28-.03-.3-.09v-.32c0-.37-.02-.92-.05-1.67-.04-.74-.06-1.3-.06-1.67,0-.2.08-.3.24-.3.51,0,1.29,0,2.33.02,1.04.02,1.82.03,2.34.03.41,0,1.94.66,4.57,1.97.95.52,2.38,1.27,4.29,2.25.15.07.23.11.25.14.02.02.03.11.05.26.03.34.04.87.04,1.58Z"/>
      <path class="cls-1" d="m19.62,208.75c.29,0,.81.06,1.58.17.83.12,1.33.23,1.49.32.13.08.19.19.19.33,0,.06,0,.16-.03.3-.07.49-.1,1.91-.1,4.27,0,.51,0,1.28-.01,2.29,0,1.01,0,1.78,0,2.28,0,.22-.1.33-.29.33-.75,0-1.87-.04-3.37-.13-1.5-.08-2.62-.13-3.37-.13s-2.18.04-4.26.12c-.53.02-1.33.06-2.39.11h-.14c-.15.02-.23-.06-.23-.24,0-.49.01-1.24.04-2.23.03-.99.04-1.73.04-2.23s-.01-1.22-.04-2.2c-.03-.98-.04-1.72-.04-2.2,0-.35.13-.55.39-.6.15-.03.62-.09,1.4-.16.78-.07,1.25-.11,1.42-.11.14,0,.21.07.21.2,0,.04,0,.11-.01.21-.15,1.78-.22,3.37-.22,4.79,0,.35.08.57.25.65.08.03.34.05.77.05s.75-.07.9-.2c.13-.11.19-.33.19-.65,0-.07,0-.2-.01-.39-.01-.19-.02-.35-.02-.48,0-.84-.02-1.69-.07-2.55,0-.07-.02-.26-.05-.55-.03-.23-.04-.41-.04-.54,0-.16.08-.24.23-.24-.14,0,.37.06,1.53.18.53.05,1.07.08,1.6.08.13,0,.2.1.2.29l-.1.9c-.04.38-.06,1.25-.06,2.6v1.06c0,.27.07.43.2.48.03,0,.24.01.62.01.51,0,.83-.03.98-.1.25-.11.4-.54.45-1.28,0,.01,0-.47,0-1.46,0-.35-.03-.88-.1-1.58s-.1-1.22-.1-1.57c0-.15.12-.22.36-.22Z"/>
      <path class="cls-1" d="m17.82,195.47c1.7,0,2.86.2,3.48.61,1.14.75,1.7,2.61,1.7,5.6,0,1.35-.1,2.39-.31,3.11-.33,1.16-.97,1.92-1.91,2.26-.46.17-1.28.26-2.46.26-.27,0-.68-.01-1.22-.03s-.94-.03-1.21-.03c-.77,0-1.94.04-3.48.11-1.55.07-2.71.11-3.47.11-.16,0-.24-.07-.24-.21,0-.41.02-1.02.05-1.85.03-.82.05-1.44.05-1.85,0-.17.07-.25.22-.25.88,0,2.2.03,3.96.09s3.08.09,3.96.09c1.05,0,1.76-.11,2.12-.33.5-.29.75-.91.75-1.84,0-1.37-.66-2.05-1.99-2.05-.97,0-2.42.02-4.36.07-1.94.05-3.39.07-4.36.07-.21,0-.31-.08-.31-.25,0-.39-.02-.99-.05-1.78-.03-.79-.05-1.39-.05-1.78,0-.19.08-.29.24-.29.77,0,1.93.03,3.47.1s2.71.1,3.48.1c.21,0,.54,0,.97-.01.43,0,.75-.01.97-.01Z"/>
      <path class="cls-1" d="m22.64,181.56s.08.07.1.2c.04.25.06.89.06,1.91,0,.87-.02,1.47-.06,1.78-.02.15-.04.23-.05.25-.02.04-.09.09-.2.14-.26.1-.65.25-1.16.44-.67.26-1.65.67-2.95,1.22-.26.12-.4.4-.43.83.01-.2.02.14.02,1.03,0,.1.17.15.51.15.45,0,1.13-.04,2.03-.13s1.58-.13,2.03-.13c.11,0,.18.03.2.09,0,.09.01.19.02.28.03.39.04,1.01.04,1.84,0,.95-.02,1.53-.06,1.72-.04.19-.14.29-.31.29-.73,0-1.84-.03-3.32-.11-1.48-.07-2.59-.11-3.33-.11-2.82,0-5.03.06-6.61.19h-.14c-.11.02-.19-.09-.23-.31-.04-.22-.08-1.24-.12-3.06-.03-1.23-.04-2.22-.04-2.95,0-1.52.34-2.76,1.03-3.72.77-1.09,1.89-1.63,3.35-1.63.97,0,1.75.14,2.33.42s1.14.8,1.69,1.55c.11.15.21.23.3.23,0,0,.83-.41,2.51-1.22,1.68-.81,2.61-1.22,2.78-1.22Zm-8.98,4.21c-.81,0-1.38.27-1.69.8-.24.41-.36,1.06-.36,1.94,0,.63.1.97.29,1.01.23.04.88.06,1.96.06.15,0,.38,0,.68-.01.3,0,.52-.01.67-.01.03,0,.07-.11.1-.32.06-.41.09-.83.09-1.28,0-1.46-.58-2.19-1.74-2.19Z"/>
    </g>
    <g>
      <path class="cls-2" d="m19.73,16.79c.02.21-.09.32-.33.32-.15,0-.58-.09-1.3-.26s-1.16-.29-1.33-.36c-1.66.65-3.24.97-4.77.97-2.45,0-4.46-.82-6.03-2.45-1.55-1.61-2.33-3.64-2.33-6.1s.75-4.6,2.26-6.25C7.46.96,9.48.11,11.96.11c1.2,0,2.34.23,3.4.69,1.15.51,2.05,1.22,2.71,2.14.13.19.2.33.2.4,0,.25-.36.82-1.06,1.71-.71.88-1.17,1.33-1.37,1.33-.05,0-.23-.16-.55-.49-.39-.39-.78-.69-1.19-.9-.6-.33-1.27-.49-2-.49-1.19,0-2.13.44-2.83,1.33-.65.82-.97,1.83-.97,3.05,0,1.29.34,2.31,1.01,3.07.7.78,1.68,1.16,2.96,1.16.81,0,1.71-.2,2.71-.61-.02-.26-.1-.93-.21-2-.1-.82-.16-1.49-.16-2,0-.15.05-.24.16-.27.04-.02.1-.02.19-.02.23,0,.58.02,1.04.07.46.04.81.06,1.05.06.25,0,.63-.02,1.14-.05s.89-.05,1.14-.05c.2,0,.3.13.3.39,0,.38-.02.95-.07,1.72-.04.77-.07,1.34-.07,1.72,0,1.02.08,2.55.23,4.59v.13Z"/>
      <path class="cls-2" d="m35.56,17.05c0,.06-.08.09-.24.12-.3.05-1.06.07-2.27.07-1.04,0-1.74-.02-2.12-.07-.17-.02-.27-.04-.3-.06-.05-.02-.1-.1-.17-.24-.12-.31-.29-.77-.52-1.38-.31-.79-.79-1.96-1.45-3.51-.14-.31-.47-.48-.99-.51.24.02-.17.02-1.22.02-.12,0-.18.2-.18.61,0,.54.05,1.34.15,2.41.1,1.07.15,1.87.15,2.41,0,.13-.04.21-.11.24-.11,0-.22.02-.33.02-.47.03-1.2.05-2.19.05-1.13,0-1.81-.02-2.04-.07-.23-.05-.34-.17-.34-.37,0-.87.04-2.19.12-3.95.08-1.76.12-3.08.12-3.96,0-3.35-.08-5.97-.23-7.84v-.17c-.02-.13.1-.23.36-.27.26-.05,1.47-.09,3.63-.14,1.47-.03,2.63-.05,3.51-.05,1.81,0,3.28.41,4.42,1.22,1.29.92,1.94,2.25,1.94,3.98,0,1.16-.17,2.08-.5,2.77s-.95,1.36-1.84,2.01c-.18.13-.27.25-.27.36,0,0,.48.99,1.45,2.98.97,2,1.45,3.1,1.45,3.3Zm-4.99-10.66c0-.97-.32-1.64-.95-2.01-.49-.29-1.26-.43-2.31-.43-.75,0-1.15.12-1.2.34-.05.27-.07,1.05-.07,2.33,0,.18,0,.45.01.81,0,.36.01.62.01.8,0,.04.13.08.38.12.48.07.99.11,1.52.11,1.74,0,2.6-.69,2.6-2.07Z"/>
      <path class="cls-2" d="m53.41,8.85c0,2.47-.79,4.54-2.37,6.22-1.61,1.7-3.64,2.54-6.11,2.54s-4.48-.86-6.1-2.57c-1.58-1.67-2.38-3.74-2.38-6.19s.79-4.54,2.38-6.22C40.45.92,42.49.06,44.93.06s4.46.86,6.08,2.58c1.59,1.7,2.39,3.77,2.39,6.22Zm-4.5-.02c0-1.19-.36-2.2-1.08-3.03-.75-.87-1.71-1.31-2.89-1.31s-2.06.45-2.84,1.35c-.75.87-1.13,1.87-1.13,3.01,0,1.21.35,2.22,1.06,3.03.74.85,1.71,1.27,2.91,1.27,1.12,0,2.07-.45,2.85-1.34.74-.86,1.12-1.85,1.12-2.98Z"/>
      <path class="cls-2" d="m69.37,11.34c0,2.02-.24,3.4-.73,4.14-.89,1.35-3.1,2.02-6.64,2.02-1.6,0-2.83-.12-3.7-.37-1.38-.4-2.27-1.15-2.69-2.27-.21-.55-.31-1.52-.31-2.92,0-.32.01-.81.04-1.45.02-.64.04-1.12.04-1.44,0-.92-.04-2.3-.13-4.14-.09-1.84-.13-3.21-.13-4.12,0-.19.08-.29.25-.29.48,0,1.21.02,2.19.06.98.04,1.71.06,2.19.06.2,0,.3.09.3.26,0,1.05-.03,2.61-.1,4.7-.07,2.09-.1,3.65-.1,4.7,0,1.24.13,2.08.39,2.52.35.59,1.08.89,2.19.89,1.62,0,2.44-.79,2.44-2.37,0-1.15-.03-2.87-.08-5.17-.05-2.3-.08-4.02-.08-5.17,0-.25.1-.37.3-.37.47,0,1.17-.02,2.12-.06.94-.04,1.65-.06,2.12-.06.23,0,.34.1.34.29,0,.91-.04,2.29-.11,4.12-.08,1.84-.11,3.22-.11,4.14,0,.25,0,.64.01,1.15,0,.51.01.89.01,1.15Z"/>
      <path class="cls-2" d="m85.95,6.86c0,1.92-.5,3.47-1.51,4.66-1.08,1.26-2.56,1.89-4.46,1.89-.32,0-.79-.02-1.43-.05s-1.12-.05-1.43-.05c-.34,0-.51.15-.51.44,0,.36.04.91.11,1.63.07.72.11,1.26.11,1.62,0,.18-.08.27-.25.27-.48,0-1.21-.01-2.17-.04s-1.69-.04-2.17-.04c-.23,0-.34-.11-.34-.34,0-.88.01-2.2.04-3.96.03-1.76.04-3.08.04-3.96,0-2.49-.11-5.1-.32-7.84v-.17c-.03-.15.09-.24.34-.27.62-.08,1.98-.12,4.09-.12,1.24,0,2.44.02,3.58.05,1.88.06,3.39.65,4.54,1.77,1.17,1.16,1.76,2.67,1.76,4.54Zm-4.74.19c0-1.85-.9-2.77-2.7-2.77-1.27,0-1.93.07-2,.21-.06.1-.08,1.02-.08,2.75,0,.25,0,.61.03,1.09s.03.84.03,1.09c0,.16.71.24,2.14.24,1.72,0,2.58-.87,2.58-2.6Z"/>
      <path class="cls-2" d="m99.74,13.48c0,.34-.07.97-.2,1.88-.14.99-.27,1.58-.38,1.77-.1.15-.23.23-.39.23-.07,0-.19-.01-.36-.04-.58-.08-2.27-.12-5.06-.12-.61,0-1.52,0-2.72-.01s-2.11-.01-2.71-.01c-.26,0-.39-.11-.39-.34,0-.89.05-2.22.15-4,.1-1.78.15-3.11.15-4s-.05-2.59-.14-5.05c-.02-.63-.07-1.58-.13-2.84v-.17c-.03-.18.07-.27.29-.27.59,0,1.47.02,2.64.05,1.18.03,2.06.05,2.64.05s1.45-.02,2.61-.05c1.16-.03,2.04-.05,2.61-.05.41,0,.65.15.71.46.04.18.1.73.18,1.66.08.92.12,1.48.12,1.68,0,.17-.08.25-.24.25-.05,0-.13,0-.25-.01-2.11-.17-4-.26-5.68-.26-.42,0-.68.1-.77.3-.04.1-.06.4-.06.92s.08.9.24,1.07c.13.15.39.23.77.23.08,0,.23,0,.46-.02.23-.01.42-.02.57-.02,1,0,2.01-.03,3.03-.08.09,0,.31-.03.65-.06.27-.03.48-.05.64-.05.19,0,.29.09.29.27,0-.17-.07.44-.21,1.82-.06.63-.1,1.27-.1,1.9,0,.16-.11.24-.34.24l-1.07-.12c-.45-.05-1.48-.07-3.09-.07h-1.26c-.32,0-.51.08-.57.24,0,.04-.01.29-.01.74,0,.6.04.99.12,1.17.13.3.64.48,1.52.53-.02,0,.56,0,1.74,0,.42,0,1.04-.04,1.87-.11.83-.08,1.45-.11,1.86-.11.17,0,.26.14.26.43Z"/>
      <path class="cls-2" d="m109.43,11.71c0,1.61-.68,2.99-2.03,4.14-1.19,1.01-2.63,1.66-4.34,1.94-.06,0-.11.01-.15.01-.18,0-.59-.56-1.21-1.67s-.94-1.79-.94-2.04c0-.09.06-.14.18-.17,1.15-.26,1.91-.48,2.28-.67.82-.41,1.24-1.02,1.24-1.83,0-.51-.27-1.09-.81-1.72-.94-1.08-1.44-1.68-1.52-1.79-.55-.82-.82-1.74-.82-2.73,0-1.45.67-2.65,2.01-3.61,1.09-.79,2.44-1.31,4.03-1.54.09,0,.15-.01.2-.01.12,0,.21.09.29.29.21.58.69,1.62,1.44,3.14.02.05.04.09.04.12,0,.13-.07.2-.21.2-.06,0-.17-.01-.32-.04-.15-.02-.27-.04-.34-.04-.57,0-1.07.13-1.5.39-.51.3-.77.72-.77,1.26,0,.48.29,1.08.86,1.78,1.01,1.27,1.53,1.93,1.58,2,.56.87.84,1.74.84,2.6Z"/>
      <path class="cls-2" d="m8.68,40.91c0,1.61-.68,2.99-2.03,4.14-1.19,1.01-2.63,1.66-4.34,1.94-.06,0-.11.01-.15.01-.18,0-.59-.56-1.21-1.67s-.94-1.79-.94-2.04c0-.09.06-.14.18-.17,1.15-.26,1.91-.48,2.28-.67.82-.41,1.24-1.02,1.24-1.83,0-.51-.27-1.09-.81-1.72-.94-1.08-1.44-1.68-1.52-1.79-.55-.82-.82-1.74-.82-2.73,0-1.45.67-2.65,2.01-3.61,1.09-.79,2.44-1.31,4.03-1.54.09,0,.15-.01.2-.01.12,0,.21.09.29.29.21.58.69,1.62,1.44,3.14.02.05.04.09.04.12,0,.13-.07.2-.21.2-.06,0-.17-.01-.32-.04-.15-.02-.27-.04-.34-.04-.57,0-1.07.13-1.5.39-.51.3-.77.72-.77,1.26,0,.48.29,1.08.86,1.78,1.01,1.27,1.53,1.93,1.58,2,.56.87.84,1.74.84,2.6Z"/>
      <path class="cls-2" d="m26.32,46.08c0,.14-.1.24-.3.3-.24.06-.97.1-2.21.1-1.13,0-1.86-.03-2.19-.1-.27-.06-.44-.23-.51-.53-.27-1.14-.48-1.75-.63-1.83-.13-.06-1.19-.08-3.19-.08-1.35,0-2.06.04-2.15.11-.13.13-.29.55-.45,1.27-.15.66-.33,1.01-.55,1.07-.27.06-1.17.1-2.71.1-1.21,0-1.82-.11-1.82-.34,0-.21.9-2.74,2.69-7.59,1.94-5.25,3-8.14,3.16-8.66.1-.3.21-.45.33-.45.21,0,.54.02.99.06.45.04.78.06,1,.06s.53-.01.94-.04.73-.04.93-.04c.15,0,.29.13.42.39.39.83,1.52,3.68,3.4,8.56,1.88,4.9,2.83,7.46,2.83,7.68Zm-8.43-10.83c-.17.35-.45,1.11-.84,2.27-.43,1.24-.64,1.96-.64,2.17,0,.14.24.22.71.24.25.02.65.02,1.21.02.52,0,.81-.06.87-.19.02-.04.02-.1.02-.17,0-.26-.18-.98-.55-2.16-.36-1.14-.62-1.87-.78-2.19Z"/>
      <path class="cls-2" d="m43.44,30.07c0,.9-.04,2.26-.11,4.07-.08,1.81-.11,3.17-.11,4.08v7.83c0,.21-.12.32-.34.32-.19,0-.48,0-.86.02-.38.02-.67.02-.86.02-.21,0-.51-.02-.93-.05s-.72-.05-.93-.05c-.14,0-.31-.13-.51-.39-.57-.77-1.85-2.47-3.85-5.11-.55-.74-1.38-1.82-2.5-3.26-.03-.05-.09-.1-.18-.14-.06.06-.1.14-.1.26,0,.92.03,2.3.08,4.14.05,1.84.08,3.22.08,4.14,0,.28-.11.42-.32.42h-4.11c-.23,0-.34-.12-.34-.37,0-.86.04-2.15.12-3.87.08-1.73.12-3.02.12-3.89,0-.91-.04-2.27-.11-4.09-.08-1.81-.11-3.17-.11-4.08,0-.17.15-.26.46-.26.46,0,1.03-.03,1.7-.09.16-.02.47-.07.94-.15.4-.07.71-.11.94-.11.1,0,.24.13.44.4l4.43,6.07c.4.55.99,1.35,1.79,2.4.2.25.37.37.51.37.1,0,.15-.31.15-.93,0-.83-.05-2.08-.14-3.76-.09-1.67-.14-2.93-.14-3.77,0-.29.08-.44.25-.44.47,0,1.19-.02,2.15-.06.96-.04,1.68-.06,2.15-.06.15,0,.23.12.23.37Z"/>
      <path class="cls-2" d="m61.29,46c.02.21-.09.32-.33.32-.15,0-.58-.09-1.3-.26s-1.16-.29-1.33-.36c-1.66.65-3.24.97-4.77.97-2.45,0-4.46-.82-6.03-2.45-1.55-1.61-2.33-3.64-2.33-6.1s.75-4.6,2.26-6.25c1.55-1.71,3.57-2.57,6.05-2.57,1.2,0,2.34.23,3.4.69,1.15.51,2.05,1.22,2.71,2.14.13.19.2.33.2.4,0,.25-.36.82-1.06,1.71-.71.88-1.17,1.33-1.37,1.33-.05,0-.23-.16-.55-.49-.39-.39-.78-.69-1.19-.9-.6-.33-1.27-.49-2-.49-1.19,0-2.13.44-2.83,1.33-.65.82-.97,1.83-.97,3.05,0,1.29.34,2.31,1.01,3.07.7.78,1.68,1.16,2.96,1.16.81,0,1.71-.2,2.71-.61-.02-.26-.1-.93-.21-2-.1-.82-.16-1.49-.16-2,0-.15.05-.24.16-.27.04-.02.1-.02.19-.02.23,0,.58.02,1.04.07.46.04.81.06,1.05.06.25,0,.63-.02,1.14-.05s.89-.05,1.14-.05c.2,0,.3.13.3.39,0,.38-.02.95-.07,1.72-.04.77-.07,1.34-.07,1.72,0,1.02.08,2.55.23,4.59v.13Z"/>
      <path class="cls-2" d="m77.14,40.54c0,2.02-.24,3.4-.73,4.14-.89,1.35-3.1,2.02-6.64,2.02-1.6,0-2.83-.12-3.7-.37-1.38-.4-2.27-1.15-2.69-2.27-.21-.55-.31-1.52-.31-2.92,0-.32.01-.81.04-1.45.02-.64.04-1.12.04-1.44,0-.92-.04-2.3-.13-4.14-.09-1.84-.13-3.21-.13-4.12,0-.19.08-.29.25-.29.48,0,1.21.02,2.19.06.98.04,1.71.06,2.19.06.2,0,.3.09.3.26,0,1.05-.03,2.61-.1,4.7-.07,2.09-.1,3.65-.1,4.7,0,1.24.13,2.08.39,2.52.35.59,1.08.89,2.19.89,1.62,0,2.44-.79,2.44-2.37,0-1.15-.03-2.87-.08-5.17-.05-2.3-.08-4.02-.08-5.17,0-.25.1-.37.3-.37.47,0,1.17-.02,2.12-.06.94-.04,1.65-.06,2.12-.06.23,0,.34.1.34.29,0,.91-.04,2.29-.11,4.12-.08,1.84-.11,3.22-.11,4.14,0,.25,0,.64.01,1.15,0,.51.01.89.01,1.15Z"/>
      <path class="cls-2" d="m84.31,37.6c0,.94.02,2.34.07,4.22.05,1.88.07,3.28.07,4.22,0,.16-.04.26-.11.3-.02,0-.12.02-.31.05-.51.06-1.2.1-2.07.1-1.16,0-1.89-.03-2.21-.1-.23-.05-.34-.17-.34-.37,0,.13.04-.57.11-2.09.14-3.21.21-5.32.21-6.32,0-.85-.03-2.12-.08-3.81s-.08-2.97-.08-3.81c0-.17.09-.26.27-.26.25,0,.62.01,1.11.04s.87.04,1.11.04.61-.01,1.09-.04.84-.04,1.09-.04c.23,0,.34.09.34.26,0,.85-.05,2.12-.14,3.81s-.14,2.97-.14,3.81Z"/>
      <path class="cls-2" d="m102.63,30.07c0,.9-.04,2.26-.11,4.07-.08,1.81-.11,3.17-.11,4.08v7.83c0,.21-.12.32-.34.32-.19,0-.48,0-.86.02-.38.02-.67.02-.86.02-.21,0-.51-.02-.93-.05s-.72-.05-.93-.05c-.14,0-.31-.13-.51-.39-.57-.77-1.85-2.47-3.85-5.11-.55-.74-1.38-1.82-2.5-3.26-.03-.05-.09-.1-.18-.14-.06.06-.1.14-.1.26,0,.92.03,2.3.08,4.14.05,1.84.08,3.22.08,4.14,0,.28-.11.42-.32.42h-4.11c-.23,0-.34-.12-.34-.37,0-.86.04-2.15.12-3.87.08-1.73.12-3.02.12-3.89,0-.91-.04-2.27-.11-4.09-.08-1.81-.11-3.17-.11-4.08,0-.17.15-.26.46-.26.46,0,1.03-.03,1.7-.09.16-.02.47-.07.94-.15.4-.07.71-.11.94-.11.1,0,.24.13.44.4l4.43,6.07c.4.55.99,1.35,1.79,2.4.2.25.37.37.51.37.1,0,.15-.31.15-.93,0-.83-.05-2.08-.14-3.76-.09-1.67-.14-2.93-.14-3.77,0-.29.08-.44.25-.44.47,0,1.19-.02,2.15-.06.96-.04,1.68-.06,2.15-.06.15,0,.23.12.23.37Z"/>
      <path class="cls-2" d="m112.95,40.91c0,1.61-.68,2.99-2.03,4.14-1.19,1.01-2.63,1.66-4.34,1.94-.06,0-.11.01-.15.01-.18,0-.59-.56-1.21-1.67s-.94-1.79-.94-2.04c0-.09.06-.14.18-.17,1.15-.26,1.91-.48,2.28-.67.82-.41,1.24-1.02,1.24-1.83,0-.51-.27-1.09-.81-1.72-.94-1.08-1.44-1.68-1.52-1.79-.55-.82-.82-1.74-.82-2.73,0-1.45.67-2.65,2.01-3.61,1.09-.79,2.44-1.31,4.03-1.54.09,0,.15-.01.2-.01.12,0,.21.09.29.29.21.58.69,1.62,1.44,3.14.02.05.04.09.04.12,0,.13-.07.2-.21.2-.06,0-.17-.01-.32-.04-.15-.02-.27-.04-.34-.04-.57,0-1.07.13-1.5.39-.51.3-.77.72-.77,1.26,0,.48.29,1.08.86,1.78,1.01,1.27,1.53,1.93,1.58,2,.56.87.84,1.74.84,2.6Z"/>
    </g>
    <text/>
  </g>
</svg>