<?xml version="1.0" encoding="UTF-8"?>
<svg id="Calque_2" data-name="Calque 2" xmlns="http://www.w3.org/2000/svg" viewBox="0 0 107 275">
  <defs>
    <style>
      .cls-1 {
        stroke: #3f4247;
      }

      .cls-1, .cls-2, .cls-3, .cls-4 {
        stroke-miterlimit: 10;
        stroke-width: 7px;
      }

      .cls-1, .cls-3, .cls-4 {
        fill: none;
      }

      .cls-2 {
        fill: #295cc0;
        stroke: #003474;
      }

      .cls-5 {
        fill: #ce4323;
      }

      .cls-3 {
        stroke: #710000;
      }

      .cls-3, .cls-4 {
        stroke-linecap: round;
      }

      .cls-4 {
        stroke: #da7058;
      }
    </style>
  </defs>
  <g id="fioleSang">
    <path id="fs6" class="cls-5" d="m20.06,91.22h67.63v145.44c0,18.47-14.99,33.46-33.46,33.46h0c-18.86,0-34.17-15.31-34.17-34.17V91.22h0Z"/>
    <path id="fs5" class="cls-3" d="m18.32,95.23c12.09-15.22,44.6,6.78,69.93-3.04"/>
    <path id="fs4" class="cls-1" d="m53.43,271.5h0c-20.22,0-36.76-15.91-36.76-35.35V51.79s73.53.54,73.53.54v184.36c0,18.9-16.54,34.81-36.76,34.81Z"/>
    <path id="fs3" class="cls-4" d="m25.03,104.22c4.12,20.57,44.22,8.34,54.87,2.54"/>
    <path id="fs2" class="cls-4" d="m29.43,203.06c-.39,28.04-.03,48.33,13.05,53.13"/>
    <path id="fs1" class="cls-2" d="m91.5,3.5H15.5c-6.6,0-12,5.4-12,12v24.29c0,6.6,5.4,12,12,12h19.4c.33-4.81.5-22.3.5-47.18,0,24.88-.17,42.37-.5,47.18h18.6V5.98v45.81h38c6.6,0,12-5.4,12-12V15.5c0-6.6-5.4-12-12-12ZM14.58,51.22c3.26,0,5.04-20,5.04-46.07,0,26.08-1.78,46.07-5.04,46.07Zm57.43-.55c.08,0,.15-21.35.15-45.52,0,24.17-.07,45.52-.15,45.52Zm15.67-44.69c0,26.08,1.73,45.24,3.87,45.24-2.15,0-3.87-19.17-3.87-45.24Z"/>
  </g>
</svg>