<?xml version="1.0" encoding="UTF-8"?>
<svg id="Calque_2" data-name="Calque 2" xmlns="http://www.w3.org/2000/svg" viewBox="0 0 126.35 101.39">
  <defs>
    <style>
      .cls-1gl {
        fill: #95a5d5;
      }

      .cls-2gl {
        stroke-width: 2.75px;
      }

      .cls-2gl, .cls-3gl, .cls-4gl {
        fill: #f0f2f9;
      }

      .cls-2gl, .cls-4gl {
        stroke: #95a5d5;
        stroke-miterlimit: 10;
      }

      .cls-4gl {
        stroke-width: 3px;
      }
    </style>
  </defs>
  <g id="globuleB">
    <g id="gb12">
      <path class="cls-3gl" d="m31.83,60.51c-1.86,0-3.43-2.16-3.43-4.71,0-.35.03-.71.09-1.07l.26-1.51-1.52-.23c-.98-.15-1.96-.34-2.91-.58l-1.28-.33-.48,1.23c-.12.31-.27.61-.44.9-.98,1.67-2.61,2.75-4.13,2.75-.47,0-.9-.11-1.28-.32-.77-.43-1.1-1.17-1.25-1.72-.32-1.21-.06-2.71.71-4.01l.92-1.42-1.23-.82c-.94-.63-1.84-1.31-2.66-2.03l-.79-.69-.92.51c-.95.52-1.98.8-2.96.8-1.34,0-2.39-.5-2.9-1.36-.79-1.33-.1-3.29,1.64-4.65l.94-.74-.51-1.08c-.6-1.26-1.06-2.58-1.38-3.91l-.23-.95-.96-.18c-2.1-.39-3.62-1.74-3.62-3.21s1.5-2.8,3.56-3.2l.97-.19.21-.96c.3-1.35.74-2.68,1.32-3.94l.49-1.08-.93-.73c-1.75-1.37-2.45-3.33-1.66-4.67.51-.86,1.57-1.36,2.9-1.36.96,0,1.96.26,2.89.76l.93.5.78-.71c.83-.75,1.72-1.45,2.65-2.08l1.21-.83-.92-1.43c-.77-1.3-1.03-2.8-.71-4.01.15-.54.48-1.28,1.25-1.72.38-.21.81-.32,1.28-.32,1.52,0,3.14,1.08,4.13,2.75.15.26.29.54.41.84l.5,1.22,1.28-.34c.95-.25,1.93-.46,2.91-.62l1.51-.24-.27-1.51c-.07-.38-.1-.75-.1-1.11,0-2.56,1.57-4.71,3.43-4.71s3.43,2.16,3.43,4.71c0,.35-.03.71-.09,1.08l-.26,1.51,1.52.23c.97.14,1.95.34,2.91.58l1.28.33.48-1.23c.12-.31.27-.62.44-.9.98-1.67,2.61-2.75,4.13-2.75.47,0,.9.11,1.28.32.77.43,1.1,1.17,1.25,1.72.32,1.21.06,2.71-.71,4.01l-.91,1.43,1.22.81c.94.62,1.83,1.31,2.66,2.04l.79.69.92-.51c.95-.52,1.98-.8,2.96-.8,1.33,0,2.39.5,2.9,1.36.79,1.33.1,3.29-1.64,4.65l-.94.74.51,1.08c.6,1.27,1.06,2.58,1.38,3.91l.23.95.96.18c2.1.39,3.62,1.74,3.62,3.21s-1.5,2.8-3.56,3.2l-.97.19-.21.96c-.3,1.35-.74,2.68-1.32,3.94l-.49,1.08.93.73c1.75,1.37,2.45,3.33,1.66,4.67-.51.86-1.57,1.36-2.9,1.36h0c-.96,0-1.96-.26-2.89-.76l-.93-.5-.78.71c-.83.75-1.72,1.45-2.65,2.08l-1.2.82.91,1.43c.77,1.3,1.03,2.8.71,4.01-.15.54-.48,1.28-1.25,1.72-.38.21-.81.32-1.28.32-1.52,0-3.15-1.08-4.13-2.75-.15-.26-.29-.54-.41-.84l-.5-1.22-1.28.34c-.95.25-1.93.46-2.91.62l-1.51.24.27,1.51c.07.38.1.75.1,1.11,0,2.56-1.57,4.71-3.43,4.71Z"/>
      <path class="cls-1gl" d="m31.51,3c.91,0,1.93,1.37,1.93,3.21,0,.27-.02.54-.07.82l-.52,3.03,3.04.45c.93.14,1.86.32,2.76.55l2.56.65.97-2.46c.09-.24.21-.47.34-.69.81-1.38,2.04-2.01,2.84-2.01.21,0,.39.04.54.13.25.14.43.41.54.8.22.83.02,1.9-.56,2.87l-.09.13-1.58,2.48,2.45,1.63c.88.59,1.73,1.23,2.5,1.91l1.58,1.39,1.84-1.02c.72-.4,1.51-.61,2.24-.61.77,0,1.39.24,1.61.62.33.56-.1,1.79-1.27,2.71l-1.88,1.48,1.02,2.16c.55,1.17.98,2.39,1.27,3.61l.45,1.9,1.92.36c1.48.27,2.39,1.11,2.39,1.73s-.9,1.44-2.34,1.72l-1.93.38-.42,1.92c-.28,1.25-.69,2.47-1.22,3.65l-.98,2.15,1.86,1.46c1.19.93,1.62,2.16,1.29,2.72-.23.38-.84.62-1.61.62-.71,0-1.48-.21-2.18-.58l-1.86-1-1.57,1.41c-.78.7-1.62,1.36-2.49,1.96l-2.41,1.64,1.57,2.45.08.13.02.03c.57.96.77,2.03.55,2.86-.1.39-.28.66-.54.8-.15.09-.33.13-.54.13-.8,0-2.02-.63-2.84-2.01-.12-.2-.22-.41-.32-.64l-1-2.45-2.55.68c-.9.24-1.83.44-2.76.58l-3.02.48.54,3.01c.05.29.08.57.08.85,0,1.84-1.02,3.21-1.93,3.21s-1.93-1.37-1.93-3.21c0-.27.02-.54.07-.82l.52-3.03-3.04-.45c-.93-.14-1.86-.32-2.76-.55l-2.56-.65-.97,2.46c-.09.24-.21.47-.34.69-.81,1.38-2.04,2.01-2.84,2.01-.21,0-.39-.04-.54-.13-.25-.14-.43-.41-.54-.8-.22-.83-.02-1.9.56-2.87l.09-.13,1.58-2.48-2.45-1.63c-.88-.59-1.73-1.23-2.5-1.91l-1.58-1.39-1.84,1.02c-.72.4-1.51.61-2.24.61-.77,0-1.39-.24-1.61-.62-.33-.56.1-1.79,1.27-2.71l1.88-1.48-1.02-2.16c-.55-1.17-.98-2.39-1.27-3.61l-.45-1.9-1.92-.36c-1.48-.27-2.39-1.11-2.39-1.73s.9-1.44,2.34-1.72l1.93-.38.42-1.92c.28-1.25.69-2.47,1.22-3.65l.98-2.15-1.86-1.46c-1.19-.93-1.62-2.16-1.29-2.72.23-.38.84-.62,1.61-.62.71,0,1.48.21,2.18.58l1.86,1,1.57-1.41c.78-.7,1.62-1.36,2.49-1.96l2.41-1.64-1.57-2.45-.08-.13-.02-.03c-.57-.96-.77-2.03-.55-2.86.1-.39.28-.66.54-.8.15-.09.33-.13.54-.13.8,0,2.02.63,2.84,2.01.12.2.22.41.32.64l1,2.45,2.55-.68c.9-.24,1.83-.44,2.76-.58l3.02-.48-.54-3.01c-.05-.29-.08-.57-.08-.85,0-1.84,1.02-3.21,1.93-3.21m0-3c-2.72,0-4.93,2.78-4.93,6.21,0,.47.05.93.13,1.38-1.04.17-2.06.38-3.06.65-.14-.35-.31-.7-.51-1.04-1.29-2.19-3.44-3.49-5.42-3.49-.71,0-1.4.17-2.02.52-2.36,1.33-2.85,4.82-1.09,7.79.05.09.11.17.16.25-.99.68-1.93,1.42-2.81,2.2-1.18-.63-2.43-.94-3.6-.94-1.79,0-3.38.72-4.19,2.1-1.2,2.03-.29,4.81,2.03,6.61-.62,1.36-1.09,2.78-1.42,4.24-2.74.53-4.77,2.42-4.77,4.67s2.07,4.17,4.85,4.68c.35,1.45.85,2.86,1.48,4.2-2.29,1.81-3.2,4.57-2,6.6.81,1.37,2.4,2.1,4.2,2.1,1.2,0,2.48-.32,3.69-.99.88.77,1.82,1.49,2.82,2.16-.05.08-.1.15-.15.23-1.75,2.97-1.26,6.46,1.09,7.79.62.35,1.31.52,2.02.52,1.98,0,4.13-1.3,5.42-3.49.22-.37.4-.74.54-1.11,1,.25,2.02.46,3.06.61-.07.43-.12.87-.12,1.33,0,3.43,2.21,6.21,4.93,6.21s4.93-2.78,4.93-6.21c0-.47-.05-.93-.13-1.38,1.04-.17,2.06-.38,3.06-.65.14.35.31.7.51,1.04,1.29,2.19,3.44,3.49,5.42,3.49.71,0,1.4-.17,2.02-.52,2.36-1.33,2.85-4.82,1.09-7.79-.05-.09-.11-.17-.16-.25.99-.68,1.93-1.42,2.81-2.2,1.18.63,2.43.94,3.6.94,1.79,0,3.38-.72,4.19-2.1,1.2-2.03.29-4.81-2.03-6.61.62-1.36,1.09-2.78,1.42-4.24,2.74-.53,4.77-2.42,4.77-4.67s-2.07-4.17-4.85-4.68c-.35-1.45-.85-2.86-1.48-4.2,2.29-1.81,3.2-4.57,2-6.6-.81-1.37-2.4-2.1-4.2-2.1-1.2,0-2.48.32-3.69.99-.88-.77-1.82-1.49-2.82-2.16.05-.08.1-.15.15-.23,1.75-2.97,1.26-6.46-1.09-7.79-.62-.35-1.31-.52-2.02-.52-1.98,0-4.13,1.3-5.42,3.49-.22.37-.4.74-.54,1.11-1-.25-2.02-.46-3.06-.61.07-.43.12-.87.12-1.33,0-3.43-2.21-6.21-4.93-6.21h0Z"/>
    </g>
    <path id="gb11" class="cls-4gl" d="m25.88,27.69c-6.9-2.08-.62-9.84,3.75-4.74"/>
    <path id="gb10" class="cls-4gl" d="m41.11,32.18c2.67-6.57,10.07.2,4.52,4.04"/>
    <path id="gb9" class="cls-4gl" d="m27.68,41.95c-.95-7.01,8.88-4.65,5.96,1.36"/>
    <g id="gb8">
      <path class="cls-3gl" d="m71.33,100.01c-1.09,0-2.18-1.11-2.55-2.59l-.23-.95-.98-.09c-.81-.07-1.63-.2-2.42-.38l-1.26-.28-.4,1.4c-.47,1.42-1.59,2.45-2.68,2.45-.16,0-.32-.02-.46-.07-.54-.17-.85-.59-1.02-.92-.39-.75-.43-1.79-.11-2.76.07-.21.15-.41.25-.6l.56-1.12-1.06-.66c-.6-.38-1.19-.79-1.75-1.23l-1.08-.84-.85,1.07c-.17.21-.35.4-.54.57-.76.68-1.69,1.06-2.56,1.06-.41,0-.99-.09-1.4-.53-.36-.39-.42-.89-.4-1.24.04-.85.54-1.78,1.32-2.48.19-.17.39-.32.61-.46l1.21-.76-.8-1.18c-.39-.58-.76-1.19-1.09-1.81l-.57-1.06-1.13.43c-.22.08-.45.15-.69.2-.32.07-.65.1-.97.1-1.38,0-2.52-.65-2.72-1.55-.11-.5.09-.96.28-1.25.47-.73,1.39-1.31,2.45-1.53l1.46-.26-.19-1.32c-.11-.8-.17-1.59-.18-2.38v-.99s-.95-.31-.95-.31c-1.01-.33-1.85-.98-2.24-1.75-.16-.31-.31-.77-.15-1.26.26-.78,1.24-1.31,2.46-1.31.22,0,.45.02.67.05l1.05.16.42-.98c.4-.92.89-1.8,1.46-2.61l.53-.75-.49-.78c-.74-1.18-.75-2.49-.04-3.13.38-.33.85-.4,1.19-.4.66,0,1.39.26,2.03.73l.72.52.77-.44c.88-.5,1.82-.91,2.8-1.22l1.02-.33-.07-1.07c-.09-1.44.59-2.69,1.58-2.9.1-.02.21-.03.32-.03,1.09,0,2.18,1.11,2.54,2.59l.23.95.98.09c.81.07,1.63.2,2.43.38l1.26.28.4-1.4c.47-1.42,1.59-2.45,2.68-2.45.16,0,.32.02.46.07.54.17.85.59,1.02.92.39.75.43,1.79.11,2.76-.07.21-.15.41-.25.6l-.56,1.12,1.06.66c.6.38,1.19.79,1.75,1.23l1.08.84.85-1.07c.17-.21.35-.4.54-.57.76-.68,1.69-1.06,2.56-1.06.41,0,.99.09,1.4.53.36.39.42.89.4,1.24-.04.85-.54,1.78-1.32,2.48-.19.17-.39.32-.61.46l-1.21.76.8,1.18c.39.58.76,1.19,1.09,1.8l.57,1.06,1.13-.43c.22-.08.45-.15.69-.2.32-.07.65-.1.97-.1,1.38,0,2.52.65,2.72,1.55.11.5-.09.96-.28,1.25-.47.73-1.39,1.31-2.45,1.53l-1.46.27.19,1.31c.11.8.17,1.59.18,2.38v.99s.95.31.95.31c1.01.33,1.85.98,2.24,1.75.16.31.31.77.15,1.26-.26.78-1.24,1.31-2.46,1.31-.22,0-.45-.02-.67-.05l-1.05-.16-.42.98c-.4.92-.89,1.8-1.46,2.61l-.53.75.49.78c.74,1.18.75,2.49.04,3.13-.38.33-.86.41-1.19.41h0c-.66,0-1.39-.26-2.03-.73l-.72-.52-.77.44c-.88.5-1.82.91-2.8,1.22l-1.02.33.07,1.07c.09,1.44-.59,2.69-1.58,2.9-.1.02-.21.03-.32.03Z"/>
      <path class="cls-1gl" d="m62.47,59.61c.29,0,.96.53,1.21,1.54l.47,1.91,1.96.17c.75.07,1.51.18,2.25.35l2.53.57.72-2.49.03-.11c.34-1.05,1.08-1.5,1.37-1.5.03,0,.04,0,.05,0,.07.02.15.14.2.24.17.34.27.96.03,1.7-.04.13-.1.27-.17.41l-1.12,2.23,2.12,1.32c.56.35,1.11.74,1.63,1.14l2.15,1.68,1.69-2.14c.12-.15.24-.28.37-.4.5-.45,1.12-.72,1.64-.72.22,0,.36.05.39.09.02.02.04.1.04.24-.02.38-.26.98-.86,1.52-.13.11-.27.22-.43.32l-2.42,1.51,1.6,2.36c.37.54.71,1.11,1.02,1.68l1.14,2.13,2.26-.85c.16-.06.32-.11.49-.14.23-.05.46-.07.68-.07.83,0,1.33.34,1.38.47,0,.19-.5.89-1.65,1.14l-.13.02-2.62.47.38,2.63c.1.73.16,1.47.17,2.19v1.98s1.9.61,1.9.61c1.11.36,1.53,1.09,1.51,1.27-.02.06-.39.36-1.15.36-.15,0-.31-.01-.46-.04l-2.1-.33-.84,1.95c-.36.84-.81,1.63-1.32,2.36l-1.06,1.5.97,1.55c.45.72.38,1.29.29,1.37-.03.03-.13.06-.28.06-.37,0-.82-.17-1.22-.46l-1.43-1.04-1.54.87c-.8.45-1.66.83-2.54,1.11l-2.04.66.14,2.14c.06.89-.32,1.43-.53,1.47-.29,0-.96-.53-1.21-1.54l-.47-1.91-1.96-.17c-.75-.07-1.51-.18-2.25-.35l-2.53-.57-.72,2.49-.03.11c-.34,1.05-1.08,1.5-1.37,1.5-.03,0-.04,0-.05,0-.07-.02-.15-.14-.2-.24-.17-.34-.27-.96-.03-1.71.04-.13.1-.27.17-.41l1.12-2.23-2.12-1.32c-.56-.35-1.11-.74-1.63-1.14l-2.15-1.68-1.7,2.14c-.12.15-.24.28-.37.4-.5.45-1.12.72-1.64.72-.22,0-.36-.05-.39-.09-.02-.02-.04-.1-.04-.24.02-.38.25-.98.86-1.52.13-.11.27-.22.43-.32l2.42-1.51-1.6-2.36c-.37-.54-.71-1.11-1.02-1.68l-1.14-2.13-2.26.85c-.16.06-.32.11-.49.14-.23.05-.46.07-.68.07-.83,0-1.33-.34-1.38-.47,0-.19.5-.89,1.66-1.14l.13-.02,2.62-.47-.38-2.63c-.1-.73-.16-1.47-.17-2.19v-1.98s-1.9-.61-1.9-.61c-1.11-.36-1.53-1.09-1.51-1.27.02-.06.39-.36,1.15-.36.15,0,.31.01.46.04l2.1.33.84-1.95c.36-.84.81-1.63,1.32-2.36l1.06-1.5-.97-1.55c-.45-.72-.38-1.29-.29-1.37.03-.03.13-.06.28-.06.37,0,.82.17,1.22.46l1.43,1.04,1.54-.87c.8-.45,1.66-.83,2.54-1.11l2.04-.66-.14-2.14c-.06-.89.32-1.43.5-1.47.01,0,.02,0,.03,0m0-2.75c-.2,0-.4.02-.6.06-1.72.36-2.81,2.22-2.67,4.34-1.06.34-2.08.79-3.05,1.34-.89-.65-1.9-.99-2.84-.99-.79,0-1.53.24-2.1.75-1.26,1.12-1.3,3.15-.21,4.89-.64.9-1.17,1.86-1.6,2.86-.3-.05-.59-.07-.88-.07-1.77,0-3.3.85-3.76,2.25-.6,1.85.86,3.96,3.27,4.74,0,.85.07,1.71.19,2.56-.07.01-.13.02-.2.03-2.51.53-4.21,2.51-3.78,4.42.35,1.59,2.05,2.63,4.06,2.63.41,0,.83-.04,1.25-.13.31-.07.6-.15.89-.26.35.65.74,1.3,1.17,1.93-.27.17-.54.37-.8.59-1.9,1.69-2.36,4.24-1.02,5.68.6.65,1.47.97,2.41.97,1.15,0,2.42-.48,3.47-1.41.26-.23.5-.48.7-.75.6.47,1.23.91,1.87,1.31-.12.25-.23.51-.32.78-.79,2.4.12,4.82,2.02,5.42.29.09.58.13.88.13,1.65,0,3.32-1.36,3.99-3.39.02-.07.04-.14.06-.21.87.19,1.74.33,2.61.41.53,2.14,2.17,3.64,3.88,3.64.2,0,.4-.02.6-.06,1.72-.36,2.81-2.22,2.67-4.34,1.06-.34,2.08-.79,3.05-1.34.89.65,1.9.99,2.84.99.79,0,1.53-.24,2.1-.75,1.26-1.12,1.3-3.15.21-4.89.64-.9,1.17-1.86,1.6-2.86.3.05.59.07.88.07,1.77,0,3.3-.85,3.76-2.25.6-1.85-.86-3.96-3.27-4.74,0-.85-.07-1.71-.19-2.56.07-.01.13-.02.2-.03,2.51-.53,4.21-2.51,3.78-4.42-.35-1.59-2.05-2.63-4.06-2.63-.41,0-.83.04-1.25.13-.31.07-.61.15-.89.26-.35-.65-.74-1.3-1.17-1.93.27-.17.54-.37.8-.59,1.9-1.69,2.36-4.24,1.02-5.68-.6-.65-1.47-.97-2.41-.97-1.15,0-2.42.48-3.47,1.41-.26.23-.5.48-.7.75-.6-.47-1.23-.91-1.87-1.31.12-.25.23-.51.32-.78.79-2.4-.12-4.82-2.02-5.42-.29-.09-.58-.13-.88-.13-1.65,0-3.32,1.36-3.99,3.39-.02.07-.04.14-.06.21-.87-.19-1.74-.33-2.61-.41-.53-2.14-2.17-3.64-3.88-3.64h0Z"/>
    </g>
    <path id="gb7" class="cls-2gl" d="m72.01,76.07c4.89-1.47.44-6.97-2.65-3.35"/>
    <path id="gb6" class="cls-2gl" d="m61.23,79.26c-1.89-4.65-7.13.14-3.2,2.86"/>
    <path id="gb5" class="cls-2gl" d="m70.74,86.17c.67-4.96-6.29-3.29-4.22.96"/>
    <g id="gb4">
      <path class="cls-3gl" d="m95.76,56.22c-.08,0-.17,0-.25-.02-.71-.09-1.2-.55-1.48-.92-.63-.83-.91-2.06-.75-3.29.04-.28.1-.55.18-.82l.39-1.3-1.25-.52c-.78-.32-1.55-.69-2.3-1.1l-1.32-.71-.71,1.32c-.15.27-.31.53-.5.76-.9,1.15-2.19,1.86-3.37,1.86-.51,0-.95-.14-1.31-.4-.55-.41-.73-1.03-.79-1.47-.14-1.03.25-2.24,1.03-3.24.19-.24.41-.47.65-.69l1.15-1.04-1.07-1.12c-.59-.61-1.14-1.25-1.65-1.91l-.81-1.04-1.13.66c-.24.14-.48.26-.72.36-.66.27-1.36.41-2.02.41-1.34,0-2.4-.54-2.77-1.41-.26-.61-.11-1.21.06-1.62.41-.98,1.37-1.86,2.58-2.35l1.56-.56-.45-1.38c-.29-.91-.53-1.84-.69-2.77l-.19-1.06-1.06-.16c-2.08-.32-3.67-1.76-3.48-3.15.17-1.23,1.67-2.18,3.51-2.21l1.15-.02.28-1.12c.29-1.16.69-2.29,1.21-3.36l.44-.9-.67-.75c-1.13-1.26-1.42-2.84-.7-3.76.55-.71,1.47-.81,1.97-.81.67,0,1.38.18,2.06.51l.86.43.75-.6c.93-.75,1.95-1.41,3.04-1.96l1.06-.54-.29-1.15c-.43-1.74.11-3.35,1.29-3.83.23-.09.49-.14.75-.14,1.29,0,2.66,1.1,3.35,2.67l.42.98,1.06-.08c.54-.04,1.08-.06,1.63-.06.43,0,.85.01,1.28.04l1.43.08.15-1.55c.27-2.04,1.61-3.6,3.04-3.6.08,0,.17,0,.25.02.71.09,1.2.55,1.48.92.63.83.91,2.06.75,3.29-.04.28-.1.55-.18.82l-.39,1.3,1.25.52c.78.32,1.55.69,2.3,1.1l1.32.71.71-1.32c.15-.27.31-.53.5-.76.9-1.15,2.19-1.86,3.37-1.86.51,0,.95.14,1.31.4.55.41.73,1.03.79,1.47.14,1.03-.25,2.24-1.03,3.24-.19.24-.41.48-.65.69l-1.15,1.04,1.07,1.12c.59.61,1.14,1.25,1.66,1.91l.8,1.03,1.13-.66c.25-.14.48-.26.72-.36.66-.27,1.36-.41,2.02-.41,1.34,0,2.4.54,2.77,1.41.26.61.11,1.21-.06,1.62-.41.98-1.37,1.86-2.58,2.35l-1.56.56.45,1.38c.29.91.53,1.84.69,2.77l.19,1.06,1.06.16c2.08.32,3.67,1.76,3.48,3.15-.17,1.23-1.68,2.17-3.51,2.21l-1.15.02-.28,1.12c-.29,1.16-.69,2.29-1.21,3.36l-.44.9.67.75c1.13,1.26,1.42,2.84.7,3.76-.55.71-1.47.81-1.97.81-.67,0-1.38-.18-2.06-.51l-.86-.42-.75.6c-.93.75-1.95,1.41-3.04,1.96l-1.06.54.29,1.15c.43,1.74-.11,3.35-1.29,3.83-.23.09-.48.14-.75.14-1.29,0-2.66-1.1-3.35-2.67l-.42-.98-1.06.08c-.54.04-1.08.06-1.63.06-.43,0-.85-.01-1.28-.04l-1.43-.08-.16,1.55c-.27,2.04-1.61,3.59-3.04,3.59Z"/>
      <path class="cls-1gl" d="m102.36,7.29s.04,0,.06,0c.2.03.37.2.48.35.31.4.59,1.18.45,2.18-.03.2-.07.4-.13.59l-.78,2.6,2.5,1.04c.73.3,1.46.65,2.16,1.03l2.64,1.43,1.43-2.64c.11-.2.23-.38.36-.55.7-.89,1.6-1.28,2.19-1.28.18,0,.32.03.41.1.13.1.19.31.21.47.06.49-.09,1.31-.73,2.12-.14.17-.3.34-.47.5l-2.31,2.07,2.15,2.24c.55.57,1.07,1.17,1.55,1.79l1.61,2.07,2.27-1.32c.18-.11.35-.19.53-.26.48-.19.98-.3,1.46-.3.81,0,1.3.29,1.39.49.06.14-.02.37-.06.46-.2.48-.76,1.13-1.77,1.53l-.13.05-2.72.99.89,2.75c.27.84.49,1.71.64,2.57l.38,2.12,2.13.32c1.54.23,2.27,1.15,2.22,1.47-.04.3-.8.89-2.05.91l-2.31.04-.55,2.24c-.26,1.06-.63,2.09-1.1,3.07l-.87,1.81,1.34,1.5c.74.82.81,1.62.64,1.84-.11.14-.42.24-.79.24-.43,0-.93-.13-1.39-.36l-1.72-.85-1.49,1.2c-.85.68-1.78,1.29-2.78,1.8l-2.12,1.09.57,2.31c.28,1.12-.06,1.94-.4,2.08-.06.02-.11.03-.18.03-.5,0-1.44-.55-1.97-1.77l-.85-1.95-2.12.16c-.5.04-1.01.06-1.52.06-.4,0-.8-.01-1.2-.03l-2.87-.16-.29,2.86v.13c-.19,1.36-1.05,2.23-1.56,2.23-.02,0-.04,0-.06,0-.2-.03-.37-.2-.48-.35-.31-.4-.59-1.18-.45-2.18.03-.2.07-.4.13-.59l.78-2.6-2.5-1.04c-.73-.3-1.46-.65-2.16-1.03l-2.64-1.43-1.43,2.64c-.11.2-.23.38-.36.55-.7.89-1.6,1.28-2.19,1.28-.18,0-.32-.03-.41-.1-.13-.1-.19-.31-.21-.47-.06-.49.09-1.31.73-2.12.14-.17.3-.34.47-.5l2.31-2.07-2.15-2.24c-.55-.57-1.07-1.17-1.55-1.79l-1.61-2.07-2.27,1.32c-.18.11-.35.19-.53.26-.48.19-.98.3-1.46.3-.81,0-1.3-.29-1.39-.49-.06-.14.02-.37.06-.46.2-.48.76-1.13,1.77-1.53l.13-.05,2.72-.99-.89-2.75c-.27-.84-.49-1.71-.64-2.57l-.38-2.12-2.13-.32c-1.54-.23-2.27-1.15-2.22-1.47.04-.3.8-.89,2.05-.91l2.31-.04.55-2.24c.26-1.06.63-2.09,1.1-3.07l.87-1.81-1.34-1.5c-.74-.82-.81-1.62-.64-1.84.11-.14.42-.24.79-.24.43,0,.93.13,1.39.36l1.72.85,1.49-1.2c.85-.68,1.78-1.29,2.78-1.8l2.12-1.09-.57-2.31c-.28-1.12.06-1.94.4-2.08.06-.02.11-.03.18-.03.5,0,1.44.55,1.97,1.77l.85,1.95,2.12-.16c.5-.04,1.01-.06,1.52-.06.4,0,.8.01,1.2.03l2.87.16.29-2.86v-.13c.19-1.36,1.05-2.23,1.56-2.23m0-3c-2.18,0-4.15,2.06-4.53,4.83-.01.08-.01.16-.02.23-.46-.03-.91-.04-1.37-.04-.58,0-1.16.02-1.74.06-.95-2.18-2.88-3.57-4.72-3.57-.45,0-.89.08-1.31.25-1.92.78-2.79,3.15-2.18,5.58-1.16.6-2.27,1.31-3.29,2.13-.9-.45-1.84-.67-2.72-.67-1.27,0-2.42.46-3.15,1.38-1.22,1.55-.84,3.9.76,5.69-.57,1.18-1.01,2.4-1.32,3.66-2.57.05-4.7,1.48-4.97,3.51-.3,2.25,1.81,4.39,4.74,4.84.18,1,.42,1.99.74,2.97-.08.03-.16.06-.25.09-2.81,1.14-4.36,3.8-3.46,5.94.63,1.48,2.27,2.33,4.15,2.33.84,0,1.72-.17,2.58-.52.32-.13.63-.28.91-.45.54.7,1.13,1.38,1.76,2.03-.29.26-.58.56-.83.88-1.86,2.36-1.84,5.43.04,6.84.63.48,1.4.7,2.21.7,1.58,0,3.32-.87,4.55-2.43.25-.31.46-.64.64-.98.8.43,1.61.82,2.44,1.16-.1.34-.18.69-.23,1.05-.4,2.96,1.18,5.6,3.52,5.9.15.02.3.03.44.03,2.18,0,4.15-2.06,4.53-4.83.01-.08.01-.16.02-.23.46.03.91.04,1.37.04.58,0,1.16-.02,1.74-.06.95,2.18,2.88,3.57,4.72,3.57.45,0,.89-.08,1.31-.25,1.92-.78,2.79-3.15,2.18-5.58,1.16-.6,2.27-1.31,3.29-2.13.9.45,1.84.67,2.72.67,1.27,0,2.42-.46,3.15-1.38,1.22-1.55.84-3.9-.76-5.69.57-1.18,1.01-2.4,1.32-3.66,2.57-.05,4.7-1.48,4.97-3.51.3-2.25-1.81-4.39-4.74-4.84-.18-1-.42-1.99-.74-2.97.08-.03.16-.06.25-.09,2.81-1.14,4.36-3.8,3.46-5.94-.63-1.48-2.27-2.33-4.15-2.33-.84,0-1.72.17-2.58.52-.32.13-.63.28-.91.45-.54-.7-1.13-1.38-1.76-2.03.29-.26.58-.56.83-.88,1.86-2.36,1.84-5.43-.04-6.84-.63-.48-1.4-.7-2.21-.7-1.58,0-3.32.87-4.55,2.43-.25.31-.46.64-.64.98-.8-.43-1.61-.82-2.44-1.16.1-.34.18-.69.23-1.05.4-2.96-1.18-5.6-3.52-5.9-.15-.02-.3-.03-.44-.03h0Z"/>
    </g>
    <path id="gb3" class="cls-4gl" d="m92.14,30.4c-6.03-2.2-5.89,6.63.02,5.34"/>
    <path id="gb2" class="cls-4gl" d="m105.4,35.32c-1.75,6.06,7.22,5.21,5.43-.45"/>
    <path id="gb1" class="cls-4gl" d="m101.32,21.28c-4.56,4.45,3.7,8,4.96,2.21"/>
  </g>
</svg>