<?xml version="1.0" encoding="UTF-8"?>
<svg id="Calque_2" data-name="Calque 2" xmlns="http://www.w3.org/2000/svg" viewBox="0 0 94.26 99.1">
  <defs>
    <style>
      .cls-1pl {
        fill: #fff3c9;
        stroke: #edb550;
        stroke-miterlimit: 10;
        stroke-width: 2px;
      }
    </style>
  </defs>
  <g id="plaquette">
    <path id="plaquette5" class="cls-1pl" d="m77.06,3.51c.33-.91,1.05-1.61,1.95-1.91,1.24-.41,2.69-.7,3.04-.56.3.11,1.26.36,2.05.98.93.74,1.22,2.04.68,3.1l-6.05,11.9,12.11-1.62c.9-.12,1.74.48,1.94,1.38l.44,2.04c.28,3.61-1.75,4.02-5.1,4.37l-13.59,1.25-11.13,9.36c-.75.79-2.02.69-2.64-.2l-.65-.93c-.77-1.1-.7-2.59.16-3.61l11.41-10.52,5.37-15.03Z"/>
    <path id="plaquette4" class="cls-1pl" d="m51.99,47.31c.68-.37,1.49-.41,2.2-.09.97.43,2,1.05,2.15,1.32.12.23.57.9.72,1.71.17.96-.35,1.9-1.24,2.25l-10,3.91,8.21,5.64c.61.42.8,1.24.44,1.89l-.82,1.48c-1.75,2.34-3.2,1.48-5.41-.13l-8.91-6.67-11.73-.4c-.87.07-1.59-.68-1.5-1.57l.1-.92c.12-1.09.95-1.95,2.02-2.1l12.52-.15,11.25-6.18Z"/>
    <path id="plaquette3" class="cls-1pl" d="m33.37,17.33c.94.18,1.73.8,2.16,1.66.59,1.18,1.1,2.59,1.02,2.96-.06.31-.15,1.32-.64,2.2-.57,1.05-1.8,1.54-2.92,1.16l-12.54-4.21,3.45,11.88c.26.88-.2,1.82-1.04,2.15l-1.92.76c-3.47.84-4.18-1.13-5.05-4.43l-3.32-13.42L1.73,8.35c-.88-.63-.99-1.91-.21-2.68l.81-.8c.95-.94,2.41-1.1,3.54-.4l12.02,9.8,15.48,3.05Z"/>
    <path id="plaquette2" class="cls-1pl" d="m16.81,84.8c.24.57.21,1.21-.08,1.75-.4.74-.95,1.51-1.17,1.61-.18.08-.74.39-1.37.45-.75.07-1.44-.41-1.65-1.14l-2.32-8.2-4.93,6.12c-.37.45-1.01.55-1.49.22l-1.09-.75c-1.68-1.55-.92-2.64.48-4.29l5.77-6.6,1.13-9.28c0-.7.64-1.22,1.31-1.08l.7.14c.83.17,1.44.89,1.48,1.75l-.76,9.94,3.98,9.36Z"/>
    <path id="plaquette1" class="cls-1pl" d="m86.77,74.28c.89-.34,1.89-.25,2.7.25,1.11.68,2.28,1.61,2.41,1.97.11.3.55,1.2.6,2.21.06,1.2-.73,2.27-1.88,2.55l-12.84,3.13,9.12,8.24c.68.61.78,1.65.24,2.39l-1.24,1.67c-2.52,2.57-4.14,1.28-6.59-1.06l-9.81-9.62-14.26-2.43c-1.08-.06-1.84-1.1-1.58-2.16l.27-1.11c.32-1.31,1.47-2.23,2.8-2.23l15.31,1.89,14.74-5.69Z"/>
  </g>
</svg>