<?xml version="1.0" encoding="UTF-8"?>
<svg id="Calque_2" data-name="Calque 2" xmlns="http://www.w3.org/2000/svg" viewBox="0 0 81.29 90.84">
  <defs>
    <style>
      .cls-1ll, .cls-2ll {
        stroke-width: 3px;
      }

      .cls-1ll, .cls-2ll, .cls-3ll {
        stroke-miterlimit: 10;
      }

      .cls-1ll, .cls-3ll {
        fill: #fffaf2;
        stroke: #ffdcab;
      }

      .cls-2ll {
        fill: #fff3c9;
        stroke: #edb550;
      }

      .cls-3ll {
        stroke-width: 2px;
      }
    </style>
  </defs>
  <g id="lymphe">
    <path id="lymphe5" class="cls-2ll" d="m49.8,61.71c1.87,18.78-10.81,27.63-24.15,27.63S1.5,76.97,1.5,61.71,24.76-11.01,25.65,5.08c1.98,35.67,22.38,38.82,24.15,56.63Z"/>
    <path id="lymphe5-2" data-name="lymphe5" class="cls-2ll" d="m48.75,36.95c-1.2,11.2,6.95,16.48,15.52,16.48s15.52-7.38,15.52-16.48S64.84-6.41,64.27,3.18c-1.27,21.27-14.38,23.15-15.52,33.77Z"/>
    <path id="lymphe4" class="cls-1ll" d="m15.18,62.03c3.41,11.26,12.86,21.81-1.94,11.16-1.5-1.08-5.02-7.6-5.02-14.21s1.48-11.97,3.31-11.97,1.74,8.71,3.65,15.02Z"/>
    <path id="lymphe3" class="cls-1ll" d="m31.65,80.52c-2.06.89-4.34.08-5.11-1.8s.29-4.14,2.35-5.03,5.42-2.3,6.18-.42-1.37,6.36-3.43,7.25Z"/>
    <path id="lymphe2" class="cls-3ll" d="m70.84,35.39c-2.24,5.96-8.47,11.54,1.28,5.9.99-.57,3.31-4.02,3.31-7.52s-.97-6.33-2.18-6.33-1.15,4.61-2.41,7.95Z"/>
    <path id="lymphe1" class="cls-3ll" d="m59.98,45.27c1.36.47,2.86.04,3.36-.95s-.19-2.19-1.55-2.66-3.57-1.22-4.07-.22.9,3.36,2.26,3.83Z"/>
  </g>
</svg>