<?xml version="1.0" encoding="UTF-8"?>
<svg id="Calque_2" data-name="Calque 2" xmlns="http://www.w3.org/2000/svg" viewBox="0 0 107.08 99.94">
  <defs>
    <style>
      .cls-1ho {
        fill: #b3b3b3;
        stroke: #666;
      }

      .cls-1ho, .cls-2ho .cls-3ho {
        stroke-miterlimit: 10;
        stroke-width: 2px;
      }

      .cls-2ho {
        fill: #f0f2f9;
        stroke: #95a5d5;
      }

      .cls-3ho {
        fill: #fff3c9;
        stroke: #edb550;
      }
    </style>
  </defs>
  <g id="hormone">
    <polygon id="hormone9" class="cls-2ho" points="29.82 49.78 20.58 59.97 7.17 57.03 3 43.91 12.24 33.72 25.65 36.66 29.82 49.78"/>
    <polygon id="hormone8" class="cls-2ho" points="66.19 91.93 53.99 98.25 42.44 90.81 43.09 77.05 55.28 70.73 66.83 78.17 66.19 91.93"/>
    <polygon id="hormone7" class="cls-2ho" points="104.41 19.51 93.79 25.63 83.16 19.51 83.16 7.27 93.79 1.15 104.41 7.27 104.41 19.51"/>
    <polygon id="hormone6" class="cls-3ho" points="61.85 22.14 54.03 21.07 48.72 26.93 47.31 19.14 40.11 15.88 47.07 12.13 47.93 4.25 53.63 9.73 61.36 8.12 57.93 15.26 61.85 22.14"/>
    <polygon id="hormone5" class="cls-3ho" points="101.61 59.46 94.38 56.27 87.67 60.43 88.46 52.55 82.43 47.43 90.15 45.74 93.14 38.41 97.12 45.25 104.99 45.84 99.73 51.76 101.61 59.46"/>
    <polygon id="hormone4" class="cls-3ho" points="12.97 97.68 9.91 90.38 2.18 88.77 8.15 83.59 7.28 75.72 14.04 79.81 21.23 76.55 19.44 84.27 24.75 90.13 16.88 90.8 12.97 97.68"/>
    <path id="hormone3" class="cls-1ho" d="m93.62,78.36c2.56-2.39,6.74-.98,7.33,2.48l.81,4.73.94,5.5c.56,3.29-2.58,5.99-5.74,4.93l-4.65-1.57-4.65-1.57c-3.15-1.07-4.03-5.13-1.6-7.41l4.06-3.8,3.5-3.27Z"/>
    <path id="hormone2" class="cls-1ho" d="m14.29,4.3c3.12-1.58,6.74.96,6.34,4.44l-.55,4.77-.63,5.54c-.38,3.32-4.15,5.03-6.88,3.11l-4.03-2.82-4.03-2.82c-2.73-1.91-2.43-6.06.54-7.56l4.96-2.51,4.27-2.16Z"/>
    <path id="hormone1" class="cls-1ho" d="m47.82,44.09c-.41-3.48,3.2-6.04,6.32-4.47l4.28,2.14,4.97,2.49c2.98,1.49,3.29,5.63.57,7.56l-4.01,2.84-4.01,2.84c-2.72,1.92-6.5.23-6.89-3.09l-.66-5.54-.56-4.77Z"/>
  </g>
</svg>