<?xml version="1.0" encoding="UTF-8"?>
<svg id="Calque_2" data-name="Calque 2" xmlns="http://www.w3.org/2000/svg" viewBox="0 0 183.49 274">
  <defs>
    <style>
      .cls-1sa {
        fill: #295cc0;
        stroke: #003474;
      }

      .cls-1sa, .cls-2sa, .cls-3sa, .cls-4sa {
        stroke-linecap: round;
        stroke-miterlimit: 10;
      }

      .cls-1sa, .cls-3sa, .cls-4sa {
        stroke-width: 6px;
      }

      .cls-2sa {
        stroke-width: 4px;
      }

      .cls-2sa, .cls-3sa, .cls-4sa {
        stroke: #3f4247;
      }

      .cls-2sa, .cls-4sa {
        fill: none;
      }

      .cls-3sa {
        fill: #fff;
      }

      .cls-5sa {
        fill: #3f4247;
      }

      .cls-6sa {
        fill: #ce4323;
      }
    </style>
  </defs>
  <g id="pocheSang">
    <rect class="cls-3sa" x="3" y="23.85" width="177.49" height="209.81" rx="30.27" ry="30.27"/>
    <path class="cls-6sa" d="m160.02,121.79H24.07c-2.94,0-5.35,2.4-5.35,5.34v84.88c0,2.94,2.41,5.34,5.35,5.34h40.35v39.57c0,1.39,1.13,2.51,2.52,2.51h7.56c1.39,0,2.52-1.13,2.52-2.51v-39.57h37.31v37.74c0,1.39,1.13,2.51,2.52,2.51h7.56c1.39,0,2.52-1.13,2.52-2.51v-37.74h33.11c2.94,0,5.35-2.4,5.35-5.34v-84.88c0-2.94-2.41-5.34-5.35-5.34Z"/>
    <path class="cls-4sa" d="m157.96,46.19H26.13c-4.07,0-7.41,3.33-7.41,7.4v156.38c0,4.07,3.33,7.4,7.41,7.4h36.44v38.84c0,2.6,2.13,4.73,4.74,4.73h6.55c2.61,0,4.74-2.13,4.74-4.73v-38.84h34.02v43.57h16.03v-43.57h29.33c4.07,0,7.41-3.33,7.41-7.4V53.58c0-4.07-3.33-7.4-7.41-7.4Z"/>
    <rect class="cls-1sa" x="102.63" y="258.46" width="35.98" height="12.54" rx="6.16" ry="6.16"/>
    <path class="cls-3sa" d="m129.41,23.83H55.49v-9.46c0-2.24,13.67-11.37,16.41-11.37h40.47c2.75,0,17.05,9.13,17.05,11.37v9.46Z"/>
    <rect class="cls-2sa" x="75.79" y="10.16" width="34.84" height="6.51" rx="3.2" ry="3.2"/>
    <rect class="cls-3sa" x="30.36" y="90.36" width="124.17" height="83.32" rx="2.49" ry="2.49"/>
    <g>
      <path class="cls-5sa" d="m85.32,137.11h-5.66c-.62,0-1.17.41-1.35,1.01l-.48,1.63c-.18.6-.73,1.01-1.35,1.01h-3.89c-.98,0-1.66-.98-1.32-1.9l7.26-19.28c.21-.55.73-.91,1.32-.91h5.51c.59,0,1.11.36,1.32.91l7.25,19.28c.35.92-.33,1.9-1.32,1.9h-4.08c-.62,0-1.17-.41-1.35-1l-.5-1.65c-.18-.59-.73-1-1.35-1Zm-.93-6.59l-.53-1.72c-.41-1.33-2.29-1.32-2.69,0l-.52,1.72c-.27.9.4,1.81,1.35,1.81h1.05c.95,0,1.62-.91,1.35-1.82Z"/>
      <path class="cls-5sa" d="m97.87,127.3h2.96c.78,0,1.41-.63,1.41-1.41v-2.99c0-.78.63-1.41,1.41-1.41h2.06c.78,0,1.41.63,1.41,1.41v2.99c0,.78.63,1.41,1.41,1.41h2.99c.78,0,1.41.63,1.41,1.41v2.06c0,.78-.63,1.41-1.41,1.41h-2.99c-.78,0-1.41.63-1.41,1.41v2.96c0,.78-.63,1.41-1.41,1.41h-2.06c-.78,0-1.41-.63-1.41-1.41v-2.96c0-.78-.63-1.41-1.41-1.41h-2.96c-.78,0-1.41-.63-1.41-1.41v-2.06c0-.78.63-1.41,1.41-1.41Z"/>
    </g>
  </g>
</svg>