<?xml version="1.0" encoding="UTF-8"?>
<svg id="Calque_2" data-name="Calque 2" xmlns="http://www.w3.org/2000/svg" viewBox="0 0 46.4 103.65">
  <defs>
    <style>
      .cls-1os {
        fill: #fff3c9;
        stroke: #edb550;
        stroke-miterlimit: 10;
        stroke-width: 3px;
      }
    </style>
  </defs>
  <g id="os">
    <path class="cls-1os" d="m33.75,78.24V25.4c0-.64.49-1.17,1.12-1.23,5.63-.57,10.03-5.42,10.03-11.31,0-6.28-4.99-11.37-11.15-11.37-4.02,0-7.54,2.17-9.5,5.41-.48.8-1.62.8-2.1,0-1.96-3.25-5.48-5.41-9.5-5.41C6.49,1.5,1.5,6.59,1.5,12.87c0,5.89,4.4,10.74,10.03,11.31.63.06,1.12.59,1.12,1.23v52.84c0,.64-.49,1.17-1.12,1.23-5.63.57-10.03,5.42-10.03,11.31,0,6.28,4.99,11.37,11.15,11.37,4.02,0,7.54-2.17,9.5-5.41.48-.8,1.62-.8,2.1,0,1.96,3.25,5.48,5.41,9.5,5.41,6.16,0,11.15-5.09,11.15-11.37,0-5.89-4.4-10.74-10.03-11.31-.63-.06-1.12-.59-1.12-1.23Z"/>
  </g>
</svg>