<?xml version="1.0" encoding="UTF-8"?>
<svg id="Calque_2" data-name="Calque 2" xmlns="http://www.w3.org/2000/svg" viewBox="0 0 112.02 103.65">
  <defs>
    <style>
      .cls-1ar {
        fill: #295cc0;
        stroke: #003474;
      }

      .cls-1ar, .cls-2ar {
        stroke-miterlimit: 10;
        stroke-width: 3px;
      }

      .cls-2ar {
        fill: #ce4323;
        stroke: #710000;
      }
    </style>
  </defs>
  <g id="veineArtere">
    <path class="cls-2ar" d="m55.1,62.27s-18.85-12.07-22.26-22.52v-5.47c3.64-6.77,19.32-7.47,22.18.95.16.47.03-6.09,0-9.13-2.32-3.11-16.31-3.01-22.18-2.82V1.5h-15.29v15.99c-4.9,1.04-12.72,3.13-15.61,6.34-.33.37-.48.87-.43,1.36.26,2.46.51,4.61.7,6.18.15,1.27,1.56,1.98,2.7,1.39,3.25-1.69,9.08-4.26,12.64-3.08v47.04c-3.63.75-10,2.38-12.48,4.94-.35.37-.52.87-.47,1.37.17,1.64.33,3.1.47,4.25.14,1.21,1.48,1.91,2.58,1.34,2.77-1.42,7.4-3.36,9.9-1.94v15.48h15.29v-43.26c8.3,6.55,18.78,14.24,22.26,14.24v-10.86Z"/>
    <path class="cls-1ar" d="m56.92,62.27s18.85-12.07,22.26-22.52v-5.47c-3.64-6.77-19.32-7.47-22.18.95-.16.47-.03-6.09,0-9.13,2.32-3.11,16.31-3.01,22.18-2.82V1.5h15.29v15.99c4.9,1.04,12.72,3.13,15.61,6.34.33.37.48.87.43,1.36-.26,2.46-.51,4.61-.7,6.18-.15,1.27-1.56,1.98-2.7,1.39-3.25-1.69-9.08-4.26-12.64-3.08v47.04c3.63.75,10,2.38,12.48,4.94.35.37.52.87.47,1.37-.17,1.64-.33,3.1-.47,4.25-.14,1.21-1.48,1.91-2.58,1.34-2.77-1.42-7.4-3.36-9.9-1.94v15.48h-15.29v-43.26c-8.3,6.55-18.78,14.24-22.26,14.24v-10.86Z"/>
  </g>
</svg>