<?xml version="1.0" encoding="UTF-8"?>
<svg id="Calque_2" data-name="Calque 2" xmlns="http://www.w3.org/2000/svg" viewBox="0 0 101.96 103.65">
  <defs>
    <style>
      .cls-1ra {
        fill: #e49886;
        stroke: #da7058;
      }

      .cls-1ra, .cls-2ra, .cls-3ra {
        stroke-miterlimit: 10;
        stroke-width: 3px;
      }

      .cls-2ra {
        fill: #295cc0;
        stroke: #003474;
      }

      .cls-3ra {
        fill: #ce4323;
        stroke: #710000;
      }
    </style>
  </defs>
  <g id="rate">
    <path class="cls-3ra" d="m16.16,91.57h0c-2.34-2.41-2.72-6.85-.84-9.86l24.91-39.87c1.88-3.01,5.34-3.5,7.68-1.08h0c2.34,2.41,2.72,6.85.84,9.86l-24.91,39.87c-1.88,3.01-5.34,3.5-7.68,1.08Z"/>
    <path class="cls-2ra" d="m43.15,101.98h0c-2.93-.84-4.79-4.61-4.14-8.38l8.71-49.86c.66-3.76,3.59-6.15,6.53-5.31h0c2.93.84,4.79,4.61,4.14,8.38l-8.71,49.86c-.66,3.76-3.59,6.15-6.53,5.31Z"/>
    <path class="cls-1ra" d="m100.46,32.39c0-6.77-3.02-12.52-7.2-14.58-1.65-5.39-5.37-9.16-9.71-9.16-.13,0-.27,0-.4.01-1.95-3.23-4.81-5.28-8-5.28-2.03,0-3.93.83-5.54,2.26-30.28-12.66-53.11,7.68-53.11,7.68-27.41,20.33-10.8,33.66-.76,37.47,20.85,7.91,15.62.46,24.22-.95,8.6-1.4,5.27,19.32,22.06,15.94,3.61-.73,34.25-10.05,37.36-26.64.69-2.04,1.08-4.34,1.08-6.76Z"/>
  </g>
</svg>