<?xml version="1.0" encoding="UTF-8"?>
<svg id="Calque_2" data-name="Calque 2" xmlns="http://www.w3.org/2000/svg" viewBox="0 0 88.22 103.65">
  <defs>
    <style>
      .cls-1re {
        fill: #e49886;
        stroke: #da7058;
      }

      .cls-1re, .cls-2re, .cls-3re {
        stroke-miterlimit: 10;
        stroke-width: 3px;
      }

      .cls-2re {
        fill: #295cc0;
        stroke: #003474;
      }

      .cls-3re {
        fill: #ce4323;
        stroke: #710000;
      }
    </style>
  </defs>
  <g id="rein">
    <path class="cls-2re" d="m84.39,1.5h-8.23c-1.28,0-2.33,1.2-2.33,2.66v43.24c-7.01-.04-15.63,3.81-19.95,5.87-1.84.88-2.58,3.4-1.56,5.36l3.34,4.31c.79,1.52,2.4,2.21,3.87,1.63,2.17-.86,9.34-1.87,12.87-.37.55.23,1.02.74,1.43,1.47v33.83c0,1.46,1.05,2.66,2.33,2.66h8.23c1.28,0,2.33-1.2,2.33-2.66V4.16c0-1.46-1.05-2.66-2.33-2.66Z"/>
    <path class="cls-3re" d="m66.96,1.5h-8.23c-1.28,0-2.33,1.2-2.33,2.66v43.24c-7.01-.04-15.63,3.81-19.95,5.87-1.84.88-2.58,3.4-1.56,5.36l3.34,4.31c.79,1.52,2.4,2.21,3.87,1.63,2.17-.86,9.34-1.87,12.87-.37.55.23,1.02.74,1.43,1.47v33.83c0,1.46,1.05,2.66,2.33,2.66h8.23c1.28,0,2.33-1.2,2.33-2.66V4.16c0-1.46-1.05-2.66-2.33-2.66Z"/>
    <path class="cls-1re" d="m19.45,88.73s-38.39-29.32-2.9-68.3c26.04-28.61,35.3,11.19,35.31,14.36.02,15.58-16.7,15.38-14.32,22.84,2.38,7.46,14.34,1.02,13.03,20.92-.63,9.58-9.24,26.44-31.12,10.18Z"/>
  </g>
</svg>