<?xml version="1.0" encoding="UTF-8"?>
<svg id="Calque_2" data-name="Calque 2" xmlns="http://www.w3.org/2000/svg" viewBox="0 0 268.7 274">
  <defs>
    <style>
      .cls-1dsg {
        fill: #295cc0;
        stroke: #003474;
      }

      .cls-1dsg, .cls-2dsg, .cls-3dsg, .cls-4dsg, .cls-5dsg, .cls-6dsg, .cls-7dsg, .cls-8dsg {
        stroke-miterlimit: 10;
      }

      .cls-1dsg, .cls-2dsg, .cls-3dsg, .cls-4dsg, .cls-7dsg {
        stroke-width: 6px;
      }

      .cls-1dsg, .cls-3dsg, .cls-5dsg, .cls-6dsg, .cls-8dsg {
        stroke-linecap: round;
      }

      .cls-2dsg {
        fill: #f2f2f2;
        stroke: #f2f2f2;
      }

      .cls-3dsg, .cls-5dsg {
        fill: #fff;
      }

      .cls-3dsg, .cls-5dsg, .cls-6dsg, .cls-7dsg, .cls-8dsg {
        stroke: #3f4247;
      }

      .cls-9dsg {
        fill: #3f4247;
      }

      .cls-10dsg, .cls-4dsg {
        fill: #ce4323;
      }

      .cls-4dsg {
        stroke: #710000;
      }

      .cls-5dsg, .cls-6dsg {
        stroke-width: 5px;
      }

      .cls-6dsg, .cls-7dsg, .cls-8dsg {
        fill: none;
      }

      .cls-8dsg {
        stroke-width: 3px;
      }
    </style>
  </defs>
  <g id="don">
    <path class="cls-7dsg" d="m99.09,197.51s0,2.62,0,22.98c-.01,68.25,88.34,64.83,91.68,4.82s-6.6-79.28,2.67-90.44"/>
    <rect class="cls-3dsg" x="3" y="20.31" width="145.41" height="174.26" rx="18.97" ry="18.97"/>
    <path class="cls-10dsg" d="m131.64,101.66H20.26c-2.41,0-4.38,2-4.38,4.43v70.5c0,2.44,1.97,4.43,4.38,4.43h33.05v32.87c0,1.15.92,2.09,2.06,2.09h6.19c1.14,0,2.06-.93,2.06-2.09v-32.87h30.57v31.34c0,1.15.92,2.09,2.06,2.09h6.19c1.14,0,2.06-.93,2.06-2.09v-31.34h27.12c2.41,0,4.38-2,4.38-4.43v-70.5c0-2.44-1.97-4.43-4.38-4.43Z"/>
    <path class="cls-6dsg" d="m129.95,38.87H21.95c-3.34,0-6.07,2.76-6.07,6.14v129.88c0,3.38,2.73,6.14,6.07,6.14h29.85v32.26c0,2.16,1.75,3.93,3.88,3.93h5.37c2.13,0,3.88-1.77,3.88-3.93v-32.26h27.87v36.19h13.13v-36.19h24.03c3.34,0,6.07-2.76,6.07-6.14V45.01c0-3.38-2.73-6.14-6.07-6.14Z"/>
    <rect class="cls-1dsg" x="84.62" y="215.17" width="29.48" height="10.41" rx="4.88" ry="4.88"/>
    <path class="cls-3dsg" d="m106.57,20.3h-60.57v-7.86c0-1.86,11.2-9.44,13.44-9.44h33.15c2.25,0,13.97,7.58,13.97,9.44v7.86Z"/>
    <rect class="cls-8dsg" x="62.64" y="8.95" width="28.54" height="5.4" rx="2.53" ry="2.53"/>
    <rect class="cls-5dsg" x="25.42" y="75.56" width="101.73" height="69.2" rx="2.49" ry="2.49"/>
    <path class="cls-9dsg" d="m79.9,113.97h-7.55v-1.3c0-1.72.19-2.98.57-3.8.38-.82,1.07-1.45,2.08-1.91l1.38-.62c1.05-.47,1.57-1.13,1.57-1.98,0-.49-.17-.91-.51-1.26-.34-.34-.75-.52-1.24-.52-1.33,0-2,.93-2,2.8h-7.02c0-2.5.57-4.54,1.71-6.12.84-1.17,1.93-2.09,3.28-2.78,1.34-.69,2.73-1.03,4.17-1.03,2.55,0,4.7.86,6.44,2.57s2.62,3.83,2.62,6.36c0,3.12-1.25,5.31-3.75,6.57-.81.41-1.31.77-1.49,1.07-.18.3-.26.95-.26,1.94Zm-3.64,1.09c1.33,0,2.47.49,3.43,1.46.96.98,1.44,2.14,1.44,3.48s-.48,2.49-1.43,3.43c-.95.94-2.1,1.41-3.44,1.41s-2.55-.46-3.45-1.37-1.35-2.08-1.35-3.49.47-2.54,1.4-3.49c.94-.95,2.07-1.43,3.4-1.43Z"/>
    <path class="cls-4dsg" d="m265.7,87.08c0-14.52-11.63-26.29-25.97-26.29-10.86,0-20.15,6.75-24.03,16.32-3.64-10.03-13.16-17.19-24.32-17.21-12.92-.03-23.81,9.91-25.76,22.84-1.5,9.92,3.66,16.58,8.14,23.58h0l21.82,29.36,16.31,22.76c1.83,2.56,5.57,2.65,7.52.19l18.01-23.37,21.28-29.74.11-.21c3.28-5.55,6.89-11.15,6.89-18.23Z"/>
    <polygon class="cls-2dsg" points="229.51 106.32 219.32 106.32 219.32 95.09 212.15 95.09 212.15 106.32 201.54 106.32 201.54 112.46 212.15 112.46 212.15 123.68 219.32 123.68 219.32 112.46 229.51 112.46 229.51 106.32"/>
  </g>
</svg>