<?xml version="1.0" encoding="UTF-8"?>
<svg id="Calque_2" data-name="Calque 2" xmlns="http://www.w3.org/2000/svg" viewBox="0 0 90.22 103.98">
  <defs>
    <style>
      .cls-1abp {
        fill: #3f4247;
      }

      .cls-2abp {
        fill: #ce4323;
        stroke: #710000;
      }

      .cls-2abp, .cls-3abp {
        stroke-miterlimit: 10;
        stroke-width: 3px;
      }

      .cls-3abp {
        fill: #fff3c9;
        stroke: #edb550;
      }
    </style>
  </defs>
  <g id="sangABp">
    <path class="cls-2abp" d="m64.72,58.9c-.13-.38-.11-.27-.22-.6l-.14-.32c-.88-1.95-1.77-3.71-2.82-5.47l-11.43-22.16L35.68,2.41c-.63-1.21-2.19-1.21-2.82,0l-14.42,27.94-10.62,20.58c-3.29,6.53-6.32,12.3-6.32,19.41,0,17.74,14.62,32.13,32.65,32.13,18.03,0,32.65-14.38,32.65-32.13,0-3.98-.74-7.84-2.08-11.45Z"/>
    <rect class="cls-3abp" x="44.87" y="42.72" width="43.85" height="49.44" rx="12" ry="12"/>
    <g>
      <path class="cls-1abp" d="m62.5,75.84c0,.13-.09.23-.27.28-.22.06-.89.09-2.01.09-1.03,0-1.69-.03-1.99-.09-.25-.05-.4-.22-.46-.5-.25-1.07-.44-1.65-.57-1.72-.12-.05-1.08-.08-2.9-.08-1.23,0-1.88.03-1.96.1-.12.12-.26.52-.41,1.2-.14.62-.3.95-.5,1.01-.25.06-1.07.09-2.47.09-1.1,0-1.65-.11-1.65-.32,0-.19.81-2.57,2.44-7.14,1.77-4.94,2.72-7.65,2.88-8.15.09-.28.19-.42.3-.42.19,0,.5.02.9.06.41.04.71.06.91.06s.48-.01.86-.04c.38-.03.66-.04.85-.04.14,0,.26.12.38.37.35.78,1.38,3.46,3.09,8.05,1.72,4.61,2.57,7.02,2.57,7.22Zm-7.67-10.18c-.15.33-.41,1.04-.77,2.13-.39,1.16-.58,1.84-.58,2.04,0,.13.22.21.65.22.22.02.59.02,1.1.02.48,0,.74-.06.79-.18.01-.04.02-.09.02-.16,0-.25-.17-.92-.5-2.03-.32-1.07-.56-1.76-.71-2.06Z"/>
      <path class="cls-1abp" d="m76.39,71.3c0,1.37-.41,2.51-1.24,3.41-.94,1.04-2.6,1.55-4.97,1.55-.18,0-.44,0-.78-.01h-.77c-2.66,0-4.24-.06-4.75-.17-.21-.04-.31-.16-.31-.35,0-.8.04-2,.14-3.62.09-1.62.13-2.83.13-3.63,0-.86-.04-2.49-.13-4.87-.02-.61-.06-1.53-.12-2.75v-.16c-.02-.14.1-.23.33-.26.23-.03,1.07-.04,2.5-.04,2.3,0,3.64,0,4.03.02,1.77.07,3.08.37,3.92.89,1.12.71,1.68,1.9,1.68,3.59,0,.44-.13.91-.39,1.4-.19.35-.43.7-.74,1.05-.27.31-.4.45-.4.42,0,.05.09.13.28.25.5.3.9.77,1.19,1.42.26.58.39,1.2.39,1.85Zm-4.65-6.29c0-.64-.31-1.07-.93-1.27-.35-.11-.92-.17-1.71-.17s-1.17.06-1.17.18c0,.14-.01.36-.04.64-.03.29-.04.5-.04.64,0,.75.06,1.16.18,1.25.08.07.54.1,1.37.1,1.55,0,2.32-.46,2.32-1.37Zm.32,6.25c0-.67-.27-1.12-.81-1.36-.35-.15-.91-.22-1.69-.22-.93,0-1.43.04-1.51.11-.08.07-.12.53-.12,1.37s.05,1.37.14,1.46c.09.09.61.14,1.56.14.78,0,1.33-.06,1.64-.19.53-.22.79-.65.79-1.3Z"/>
      <path class="cls-1abp" d="m86.42,70.93c-.37,0-.88-.01-1.52-.04-.74-.03-1.25-.04-1.54-.04,0,.31.03.87.05,1.7.02.71.03,1.27.03,1.69,0,.29-.54.44-1.63.44s-1.58-.09-1.58-.28c0-.46.01-1.06.03-1.79.02-1.01.04-1.6.04-1.78-1.89.06-2.89.09-2.99.09-.13,0-.19-.12-.19-.35,0-.07.04-.5.11-1.27,0-.45.02-.9.04-1.37.06-.11.16-.17.29-.17.35,0,.81.01,1.37.03.75.02,1.21.04,1.37.04-.01-.66-.02-1.36-.02-2.1v-1.22c0-.14.09-.21.28-.21.27,0,.66,0,1.18-.02.52-.01.91-.02,1.17-.02.35,0,.53.06.53.19,0,.37-.01.94-.04,1.7s-.04,1.33-.04,1.71c1.54-.03,2.59-.04,3.15-.04.15,0,.23.07.23.2,0,.08-.04.54-.12,1.37.02.31,0,.78-.06,1.4-.03.1-.08.16-.15.16Z"/>
    </g>
  </g>
</svg>