<?xml version="1.0" encoding="UTF-8"?>
<svg id="Calque_2" data-name="Calque 2" xmlns="http://www.w3.org/2000/svg" viewBox="0 0 87.05 103.98">
  <defs>
    <style>
      .cls-1abn {
        fill: #3f4247;
      }

      .cls-2abn {
        fill: #ce4323;
        stroke: #710000;
      }

      .cls-2abn, .cls-3abn {
        stroke-miterlimit: 10;
        stroke-width: 3px;
      }

      .cls-3abn {
        fill: #fff3c9;
        stroke: #edb550;
      }
    </style>
  </defs>
  <g id="sangABn">
    <path class="cls-2abn" d="m62.42,58.9c-.13-.38-.1-.27-.21-.6l-.13-.32c-.85-1.95-1.71-3.71-2.72-5.47l-11.02-22.16L34.44,2.41c-.6-1.21-2.11-1.21-2.72,0l-13.9,27.94-10.23,20.58c-3.17,6.53-6.09,12.3-6.09,19.41,0,17.74,14.09,32.13,31.46,32.13,17.38,0,31.46-14.38,31.46-32.13,0-3.98-.71-7.84-2-11.45Z"/>
    <rect class="cls-3abn" x="43.29" y="42.72" width="42.25" height="49.44" rx="12" ry="12"/>
    <g>
      <path class="cls-1abn" d="m60.61,76.34c0,.14-.09.23-.27.29-.21.06-.88.09-2,.09-1.02,0-1.68-.03-1.98-.09-.24-.05-.4-.23-.46-.52-.24-1.11-.43-1.7-.57-1.78-.11-.05-1.07-.08-2.88-.08-1.22,0-1.87.03-1.95.1-.12.12-.26.53-.41,1.23-.14.64-.3.98-.49,1.04-.24.06-1.06.09-2.45.09-1.1,0-1.64-.11-1.64-.33,0-.2.81-2.65,2.43-7.37,1.76-5.09,2.71-7.9,2.86-8.4.09-.29.19-.44.3-.44.19,0,.49.02.9.06.4.04.71.06.91.06s.48-.01.85-.04c.38-.03.66-.04.84-.04.14,0,.26.13.38.38.35.81,1.38,3.57,3.07,8.3,1.71,4.76,2.56,7.24,2.56,7.45Zm-7.62-10.5c-.15.34-.4,1.07-.76,2.2-.39,1.2-.58,1.9-.58,2.11,0,.14.21.22.64.23.22.02.59.02,1.1.02.47,0,.73-.06.78-.18.01-.04.02-.09.02-.16,0-.25-.16-.95-.49-2.1-.32-1.11-.56-1.81-.71-2.12Z"/>
      <path class="cls-1abn" d="m74.41,71.65c0,1.41-.41,2.59-1.24,3.52-.94,1.07-2.59,1.6-4.94,1.6-.18,0-.44,0-.77-.01h-.76c-2.64,0-4.22-.06-4.72-.17-.21-.05-.31-.17-.31-.36,0-.82.04-2.07.13-3.73.09-1.67.13-2.92.13-3.75,0-.89-.04-2.57-.13-5.03-.02-.63-.06-1.58-.12-2.84v-.16c-.02-.15.09-.23.33-.27.23-.03,1.06-.05,2.49-.05,2.29,0,3.62,0,4.01.02,1.76.07,3.06.38,3.9.92,1.11.73,1.67,1.96,1.67,3.7,0,.45-.13.93-.39,1.44-.19.36-.43.72-.73,1.08-.27.32-.4.46-.4.44,0,.05.09.14.28.25.5.31.9.8,1.18,1.46.26.6.39,1.24.39,1.91Zm-4.62-6.49c0-.66-.31-1.1-.92-1.31-.34-.12-.91-.17-1.7-.17s-1.16.06-1.16.18c0,.15-.01.37-.04.66-.03.3-.04.52-.04.66,0,.77.06,1.2.18,1.29.08.07.53.1,1.36.1,1.54,0,2.31-.47,2.31-1.42Zm.32,6.44c0-.69-.27-1.16-.81-1.41-.34-.15-.9-.23-1.68-.23-.92,0-1.43.04-1.5.11-.08.07-.12.54-.12,1.41s.05,1.41.14,1.5c.09.1.61.14,1.55.14.77,0,1.32-.07,1.63-.2.52-.22.78-.67.78-1.34Z"/>
      <path class="cls-1abn" d="m83.38,67.76c0,.24-.05.55-.15.93-.09.31-.17.62-.25.93-.03.38-.1.94-.2,1.67-.02.11-.11.16-.26.16-.27,0-.68,0-1.23-.01-.55,0-.96-.01-1.24-.01-.75,0-1.76.07-3.03.22-.07,0-.27.04-.58.09-.25.05-.45.07-.59.07-.19,0-.28-.19-.28-.56,0-.2.12-.76.37-1.67.24-.87.41-1.43.52-1.68.05-.12.14-.18.28-.18.28,0,.7.02,1.26.05.56.03.98.05,1.26.05.59,0,1.56-.09,2.91-.28.71-.1,1.04-.15,1-.15.15,0,.23.13.23.38Z"/>
    </g>
  </g>
</svg>