<?xml version="1.0" encoding="UTF-8"?>
<svg id="Calque_2" data-name="Calque 2" xmlns="http://www.w3.org/2000/svg" viewBox="0 0 86.14 103.98">
  <defs>
    <style>
      .cls-1op {
        fill: #3f4247;
      }

      .cls-2op  {
        fill: #ce4323;
        stroke: #710000;
      }

      .cls-2op , .cls-3op  {
        stroke-miterlimit: 10;
        stroke-width: 3px;
      }

      .cls-3op  {
        fill: #fff3c9;
        stroke: #edb550;
      }
    </style>
  </defs>
  <g id="sangOp">
    <path class="cls-2op " d="m61.76,58.9c-.13-.38-.1-.27-.21-.6l-.13-.32c-.84-1.95-1.69-3.71-2.69-5.47l-10.9-22.16L34.08,2.41c-.6-1.21-2.09-1.21-2.69,0l-13.75,27.94-10.12,20.58c-3.14,6.53-6.03,12.3-6.03,19.41,0,17.74,13.93,32.13,31.12,32.13,17.19,0,31.12-14.38,31.12-32.13,0-3.98-.7-7.84-1.98-11.45Z"/>
    <rect class="cls-3op " x="42.84" y="42.72" width="41.8" height="49.44" rx="12" ry="12"/>
    <g>
      <path class="cls-1op " d="m67.34,67.29c0,2.64-.78,4.86-2.33,6.64-1.59,1.81-3.59,2.72-6.02,2.72s-4.42-.91-6.01-2.74c-1.56-1.79-2.34-3.99-2.34-6.62s.78-4.85,2.34-6.64c1.59-1.84,3.6-2.76,6.01-2.76s4.4.92,6,2.76c1.57,1.81,2.35,4.03,2.35,6.64Zm-4.44-.03c0-1.27-.36-2.35-1.07-3.24-.74-.93-1.69-1.4-2.85-1.4s-2.03.48-2.8,1.45c-.74.93-1.11,2-1.11,3.21,0,1.3.35,2.38,1.04,3.24.73.91,1.69,1.36,2.87,1.36,1.1,0,2.04-.48,2.81-1.44.73-.91,1.1-1.98,1.1-3.19Z"/>
      <path class="cls-1op " d="m78.47,70.28c-.4,0-.95-.02-1.65-.05-.8-.03-1.35-.05-1.66-.05,0,.35.03.99.06,1.93.02.8.04,1.44.04,1.92,0,.33-.59.5-1.77.5s-1.71-.11-1.71-.32c0-.52.01-1.2.04-2.03.02-1.14.04-1.82.05-2.02-2.05.07-3.13.1-3.25.1-.14,0-.21-.13-.21-.39,0-.08.04-.57.12-1.45,0-.51.02-1.03.05-1.56.07-.13.18-.19.32-.19.38,0,.88.01,1.49.04.81.03,1.31.04,1.49.05-.02-.75-.02-1.54-.02-2.39v-1.38c0-.16.1-.24.3-.24.29,0,.72,0,1.28-.03.57-.02.99-.03,1.27-.03.38,0,.57.07.57.22,0,.42-.01,1.07-.04,1.93s-.04,1.51-.04,1.94c1.67-.03,2.81-.05,3.41-.05.16,0,.25.08.25.23,0,.09-.04.61-.13,1.56.02.36,0,.89-.07,1.59-.03.12-.09.18-.16.18Z"/>
    </g>
  </g>
</svg>