<?xml version="1.0" encoding="UTF-8"?>
<svg id="Calque_2" data-name="Calque 2" xmlns="http://www.w3.org/2000/svg" viewBox="0 0 90.22 103.98">
  <defs>
    <style>
      .cls-1on {
        fill: #3f4247;
      }

      .cls-2on {
        fill: #ce4323;
        stroke: #710000;
      }

      .cls-2on, .cls-3on {
        stroke-miterlimit: 10;
        stroke-width: 3px;
      }

      .cls-3on {
        fill: #fff3c9;
        stroke: #edb550;
      }
    </style>
  </defs>
  <g id="sangOn">
    <path class="cls-2on" d="m64.72,58.9c-.13-.38-.11-.27-.22-.6l-.14-.32c-.88-1.95-1.77-3.71-2.82-5.47l-11.43-22.16L35.68,2.41c-.63-1.21-2.19-1.21-2.82,0l-14.42,27.94-10.62,20.58c-3.29,6.53-6.32,12.3-6.32,19.41,0,17.74,14.62,32.13,32.65,32.13,18.03,0,32.65-14.38,32.65-32.13,0-3.98-.74-7.84-2.08-11.45Z"/>
    <rect class="cls-3on" x="44.87" y="42.72" width="43.85" height="49.44" rx="12" ry="12"/>
    <g>
      <path class="cls-1on" d="m70.61,67.29c0,2.64-.82,4.86-2.45,6.64-1.66,1.81-3.77,2.72-6.32,2.72s-4.63-.91-6.31-2.74c-1.64-1.79-2.46-3.99-2.46-6.62s.82-4.85,2.46-6.64c1.67-1.84,3.77-2.76,6.31-2.76s4.61.92,6.29,2.76c1.65,1.81,2.47,4.03,2.47,6.64Zm-4.66-.03c0-1.27-.37-2.35-1.12-3.24-.78-.93-1.77-1.4-2.99-1.4s-2.13.48-2.94,1.45c-.78.93-1.17,2-1.17,3.21,0,1.3.36,2.38,1.09,3.24.77.91,1.77,1.36,3.01,1.36,1.16,0,2.14-.48,2.95-1.44.77-.91,1.16-1.98,1.16-3.19Z"/>
      <path class="cls-1on" d="m81.14,66.4c0,.26-.06.61-.17,1.03-.1.34-.19.68-.28,1.03-.03.42-.11,1.04-.23,1.84-.02.12-.12.18-.3.18-.31,0-.78,0-1.41-.01-.63,0-1.1-.01-1.42-.01-.86,0-2.02.08-3.47.24-.08,0-.3.04-.66.1-.29.05-.51.08-.68.08-.21,0-.32-.21-.32-.62,0-.22.14-.83.42-1.84.27-.96.47-1.58.59-1.85.06-.14.16-.2.32-.2.32,0,.8.02,1.44.05.64.03,1.12.05,1.44.05.67,0,1.78-.1,3.33-.3.81-.11,1.19-.17,1.14-.17.17,0,.26.14.26.42Z"/>
    </g>
  </g>
</svg>