<?xml version="1.0" encoding="UTF-8"?><svg id="Calque_2" xmlns="http://www.w3.org/2000/svg" xmlns:xlink="http://www.w3.org/1999/xlink" viewBox="0 0 600 600"><defs><style>.cls-1{fill:none;}.cls-2{clip-path:url(#clippath);}.cls-3{fill:#000030;}.cls-4{fill:#ede7df;}.cls-5{fill:#fff;}.cls-6{fill:#b0d236;}.cls-7{fill:#c2e1db;}.cls-8{fill:#154f78;}.cls-9{fill:#0f3754;}.cls-10{fill:#99d2d9;}.cls-11{clip-path:url(#clippath-1);}</style><clipPath id="clippath"><rect class="cls-1" width="600" height="600"/></clipPath><clipPath id="clippath-1"><rect class="cls-1" x="158.9" y="320.06" width="200" height="1002.23"/></clipPath></defs><g id="Calque_1-2"><g id="bravo1point"><g class="cls-2"><rect class="cls-3" width="600" height="600"/><rect class="cls-6" x="8.9" y="10.06" width="85" height="685"/><rect class="cls-6" x="135.9" y="140.06" width="85" height="685"/><g class="cls-11"><path class="cls-5" d="m333.14,424.61c-9.19,0-16.58,7.28-17.19,16.3-.1-.02-.17-.05-.24-.07v-16.23c0-9.58-7.83-17.42-17.43-17.42s-17.42,7.85-17.42,17.42v-17.42c0-9.58-7.83-17.42-17.43-17.42s-17.42,7.85-17.42,17.42v-69.7c0-9.58-7.83-17.42-17.43-17.42s-17.42,7.84-17.42,17.42v117.14c0,2.13-1.94,4.02-3.98,4.63-2.04.61-4.49-.17-5.68-1.95-12.83-16.72-12.01-33.24-30.49-33.24-4.29,0-8.27,2.26-10.45,5.95-2.14,3.7-2.21,8.27-.14,12.01l54.59,117.5c1.53,2.76,4.46,4.48,7.62,4.48h101.79c14.43,0,26.14-11.69,26.14-26.14v-95.84c0-9.58-7.83-17.42-17.42-17.42h0Z"/><path class="cls-8" d="m278.83,574.26h-60.24c-6.34,0-11.48,5.14-11.48,11.48v45.83c0,6.34,5.14,11.48,11.48,11.48h60.24v-68.8h0Z"/><path class="cls-9" d="m339.08,574.26h-60.24v68.8h60.24c6.34,0,11.48-5.14,11.48-11.48v-45.83c0-6.34-5.14-11.48-11.48-11.48h0Z"/><path class="cls-10" d="m347.75,599.27h-69.68v723.02h69.68c6.16,0,11.15-3.44,11.15-7.69v-707.64c0-4.25-4.99-7.69-11.15-7.69Z"/><path class="cls-7" d="m208.38,599.27c-6.16,0-11.15,3.44-11.15,7.69v707.64c0,4.25,4.99,7.69,11.15,7.69h69.68v-723.02h-69.68Z"/></g><path class="cls-5" d="m287.14,331.05c-.66.32-1.35.36-2.06.11-.71-.25-1.23-.7-1.55-1.36l-28.18-58.13c-.32-.66-.36-1.35-.11-2.06.25-.71.7-1.23,1.36-1.55l27.26-13.22c5.46-2.65,10.59-4.14,15.4-4.46,4.83-.42,9.16.48,12.98,2.71,3.85,2.13,6.98,5.69,9.4,10.67s3.25,9.61,2.51,13.89c-.71,4.2-2.74,8.03-6.09,11.51-3.32,3.39-7.71,6.41-13.17,9.05l-6.3,3.05,8.33,17.19c.32.66.36,1.35.11,2.06-.25.71-.7,1.23-1.36,1.55l-18.54,8.99Zm2.94-46.21l6.3-3.05c.96-.47,1.71-1.28,2.27-2.43.52-1.22.36-2.69-.48-4.43-.55-1.14-1.4-2.13-2.56-2.98-1.09-.88-2.45-.93-4.07-.14l-6.3,3.05,4.84,9.99Z"/><path class="cls-5" d="m362.22,363.38c-6.53-.23-12.22-1.43-17.08-3.6-4.79-2.17-8.55-5.3-11.28-9.4-2.65-4.16-4.01-9.21-4.07-15.15.03-2.73.1-5.63.21-8.7.11-3.07.24-6.03.41-8.89.47-5.85,2.18-10.76,5.12-14.73,2.94-3.97,6.91-6.93,11.92-8.89,5.01-1.96,10.77-2.82,17.3-2.59,6.53.23,12.22,1.5,17.08,3.8,4.86,2.31,8.61,5.54,11.27,9.7,2.72,4.17,4.08,9.18,4.07,15.05.03,2.87,0,5.84-.11,8.9-.11,3.06-.28,5.96-.51,8.69-.48,5.92-2.22,10.86-5.22,14.83-2.94,3.9-6.91,6.76-11.91,8.59-4.93,1.83-10.67,2.63-17.2,2.4Zm.68-19.49c2.2.08,3.99-.49,5.36-1.71,1.38-1.29,2.15-3.33,2.32-6.12.23-2.86.4-5.69.5-8.49.1-2.8.13-5.57.09-8.3,0-1.87-.31-3.41-.94-4.64-.56-1.22-1.36-2.11-2.41-2.69-1.05-.64-2.3-.98-3.77-1.03-1.4-.05-2.68.21-3.83.77-1.08.49-1.98,1.33-2.69,2.51-.64,1.18-1.03,2.7-1.16,4.56-.16,2.73-.29,5.49-.39,8.29-.1,2.8-.16,5.63-.2,8.5.04,2.8.66,4.89,1.88,6.27,1.29,1.31,3.03,2.01,5.23,2.09Z"/><path class="cls-5" d="m405.28,300.99c-.54.1-1.04-.01-1.51-.33-.46-.32-.75-.75-.85-1.29l-8.7-47.66c-.1-.54.01-1.04.33-1.51.32-.47.75-.75,1.29-.85l15.05-2.75c.54-.1,1.04.01,1.51.33.46.32.75.75.85,1.29l8.7,47.66c.1.54-.01,1.04-.33,1.51-.32.47-.75.75-1.29.85l-15.05,2.75Z"/><path class="cls-5" d="m437.94,316.5c-.55-.05-1-.3-1.36-.74-.36-.44-.51-.93-.46-1.48l4.77-48.22c.05-.55.3-1,.74-1.36.44-.36.93-.51,1.48-.46l11.79,1.17c1,.1,1.69.39,2.1.89.4.49.67.87.79,1.13l10.57,21.92,2.01-20.38c.05-.55.3-1,.74-1.36.44-.36.93-.51,1.48-.46l13.51,1.33c.55.05,1,.3,1.36.74.36.44.51.93.46,1.48l-4.76,48.21c-.05.55-.3,1-.74,1.36-.44.36-.93.51-1.48.46l-11.79-1.17c-.99-.1-1.69-.39-2.1-.89-.4-.54-.66-.92-.79-1.13l-10.73-20.28-1.85,18.73c-.05.55-.3,1-.74,1.36-.44.36-.93.51-1.48.46l-13.51-1.33Z"/><path class="cls-5" d="m511.95,291.06c-.55.05-1.04-.1-1.48-.46-.44-.36-.68-.81-.74-1.36l-3.33-34.19-12.39,1.21c-.55.05-1.04-.1-1.48-.46-.44-.36-.68-.81-.74-1.36l-1.17-12.02c-.05-.55.1-1.04.46-1.48.36-.44.81-.68,1.36-.74l43.74-4.27c.55-.05,1.04.1,1.48.46.44.36.68.81.74,1.36l1.17,12.02c.05.55-.1,1.04-.46,1.48-.36.44-.81.68-1.36.74l-12.39,1.21,3.33,34.19c.05.55-.1,1.04-.46,1.48-.36.44-.81.68-1.36.74l-14.93,1.46Z"/><path class="cls-4" d="m140.79,119.06l-4.29-25.78h2.88l1.71,10.91,1.46,9.59h.06l1.27-9.59,1.48-10.91h2.86l-3.91,25.78h-3.53Zm14.49.26c-1.04,0-1.88-.18-2.52-.53-.64-.36-1.14-.87-1.49-1.52-.34-.66-.58-1.45-.7-2.37-.13-.93-.19-1.96-.19-3.11v-7.78c0-1.38.13-2.61.39-3.69.26-1.08.75-1.94,1.45-2.56.71-.62,1.73-.94,3.06-.94,1,0,1.81.18,2.45.54.63.35,1.13.85,1.48,1.51.35.64.59,1.41.72,2.29.14.87.21,1.82.21,2.86v7.78c0,1.12-.06,2.14-.18,3.06-.12.92-.35,1.71-.69,2.39-.33.66-.82,1.18-1.46,1.54-.63.36-1.47.54-2.52.54Zm0-2.5c.53,0,.92-.18,1.17-.53.26-.35.44-.84.53-1.46.09-.63.13-1.37.13-2.2v-9.21c0-.82-.04-1.53-.13-2.14-.09-.62-.26-1.09-.53-1.44-.26-.34-.65-.51-1.17-.51-.55,0-.96.17-1.23.51-.27.34-.45.82-.54,1.44-.08.6-.12,1.32-.12,2.14v9.21c0,.83.04,1.56.12,2.2.09.62.27,1.11.54,1.46.27.35.68.53,1.23.53Zm12.32,2.53c-.65,0-1.26-.16-1.82-.48-.56-.32-1.01-.84-1.35-1.55-.34-.72-.51-1.67-.51-2.83v-17.4h3v17.07c0,.85.15,1.49.45,1.93.3.44.78.66,1.44.66.72,0,1.26-.25,1.6-.75.35-.51.53-1.15.53-1.92v-16.99h3.02v21.97h-3.02v-2.24c-.21.68-.6,1.28-1.16,1.79-.56.5-1.28.75-2.18.75Zm14.68,0c-1.56,0-2.75-.49-3.56-1.46-.81-.99-1.21-2.62-1.21-4.89v-1.66h2.91v1.64c0,1.23.13,2.17.4,2.83.27.65.72.98,1.33.98s1.07-.2,1.35-.6c.29-.4.44-1.12.44-2.15,0-.52-.08-1.03-.23-1.54-.16-.52-.4-1.03-.72-1.52-.32-.51-.74-1-1.24-1.48l-1.55-1.48c-.93-.89-1.64-1.83-2.12-2.83-.49-1.01-.73-2.07-.73-3.19,0-1.78.42-3.08,1.26-3.91.84-.84,2-1.26,3.47-1.26.99,0,1.82.21,2.49.64.67.43,1.18,1.14,1.52,2.14.34,1,.51,2.35.51,4.07v1.06h-2.86v-1.52c0-1.23-.12-2.17-.37-2.83-.23-.65-.66-.98-1.27-.98s-1.04.18-1.35.53c-.29.34-.45.97-.48,1.89,0,.47.05.94.18,1.42.14.48.36.95.66,1.42.3.47.69.93,1.17,1.38l1.58,1.48c1.03.95,1.8,1.97,2.32,3.06.53,1.08.79,2.23.79,3.44,0,1.66-.38,2.96-1.14,3.91-.75.95-1.93,1.42-3.53,1.42Zm14.88-.29v-25.78h7.71v2.52h-4.67v8.82h4.42v2.52h-4.42v9.4h4.73v2.52h-7.76Zm-.15-27.83l2.26-4.28h3.4l2.24,4.28h-2.68l-1.26-3-1.26,3h-2.7Zm15.09,27.96c-.94,0-1.65-.11-2.12-.34-.48-.22-.8-.59-.97-1.08s-.25-1.16-.25-1.98v-16.3h-2.01v-2.23h2.01v-3.98h3v3.98h2.37v2.23h-2.37v16.04c0,.37.05.65.15.83.1.18.32.29.66.35.34.06.87.09,1.6.09v2.39h-2.07Zm9.4.13c-1.05,0-1.9-.18-2.55-.54-.64-.37-1.12-.89-1.45-1.57-.33-.67-.56-1.48-.67-2.42-.11-.95-.16-1.99-.16-3.13v-7.76c0-1.03.07-1.98.22-2.84.15-.87.4-1.62.76-2.24.36-.63.86-1.12,1.51-1.46.64-.35,1.47-.53,2.46-.53s1.82.18,2.43.53c.62.35,1.08.85,1.39,1.49.32.63.54,1.4.64,2.28.11.88.16,1.85.16,2.9v4.14h-6.56v4.38c0,1.39.09,2.45.28,3.18.2.72.72,1.08,1.57,1.08.56,0,.95-.17,1.19-.51.24-.35.39-.84.44-1.47.06-.63.09-1.38.09-2.24v-1.77h2.94v.94c0,1.14-.05,2.18-.15,3.11-.09.93-.28,1.72-.58,2.39-.3.66-.77,1.18-1.41,1.54-.62.35-1.47.53-2.55.53Zm-1.83-13.18h3.57v-2.8c0-.88-.03-1.62-.09-2.21-.06-.61-.2-1.06-.43-1.36-.23-.31-.6-.47-1.11-.47-.58,0-1.01.18-1.29.53-.27.35-.46.84-.54,1.46-.08.62-.12,1.33-.12,2.15v2.69Zm14.34,13.21c-1.56,0-2.75-.49-3.56-1.46-.81-.99-1.22-2.62-1.22-4.89v-1.66h2.92v1.64c0,1.23.13,2.17.39,2.83.27.65.72.98,1.33.98s1.07-.2,1.35-.6c.29-.4.44-1.12.44-2.15,0-.52-.08-1.03-.24-1.54-.16-.52-.39-1.03-.72-1.52-.32-.51-.74-1-1.24-1.48l-1.55-1.48c-.93-.89-1.64-1.83-2.12-2.83-.49-1.01-.73-2.07-.73-3.19,0-1.78.42-3.08,1.26-3.91.84-.84,2-1.26,3.47-1.26.99,0,1.82.21,2.49.64.67.43,1.18,1.14,1.52,2.14.34,1,.51,2.35.51,4.07v1.06h-2.86v-1.52c0-1.23-.12-2.17-.37-2.83-.23-.65-.66-.98-1.27-.98s-1.04.18-1.35.53c-.29.34-.45.97-.48,1.89,0,.47.05.94.18,1.42.14.48.36.95.66,1.42.3.47.69.93,1.17,1.38l1.58,1.48c1.02.95,1.8,1.97,2.31,3.06.53,1.08.79,2.23.79,3.44,0,1.66-.38,2.96-1.14,3.91-.75.95-1.93,1.42-3.53,1.42Zm19.79.01c-1.27,0-2.28-.25-3.03-.75-.74-.51-1.27-1.27-1.6-2.3-.32-1.03-.48-2.32-.48-3.88v-19.16h3.03v19.09c0,.93.03,1.72.1,2.39.07.66.25,1.17.54,1.52.29.35.77.53,1.43.53s1.15-.18,1.44-.53c.28-.35.45-.86.51-1.51.07-.66.1-1.46.1-2.39v-19.1h3.02v19.16c0,1.56-.16,2.86-.47,3.88-.31,1.03-.84,1.79-1.58,2.3-.73.5-1.74.75-3.02.75Zm9.05-.31v-21.97h3v2.33c.2-.68.61-1.29,1.24-1.82.65-.53,1.41-.79,2.3-.79,1.1,0,1.96.39,2.58,1.17.61.78.92,1.97.92,3.56v17.52h-3v-17.5c0-.78-.18-1.35-.53-1.7-.35-.35-.8-.53-1.35-.53-.4,0-.77.09-1.1.26-.33.18-.6.45-.79.82-.19.37-.28.85-.28,1.44v17.21h-3Zm21.43,0v-25.78h5.18c1.03,0,1.86.17,2.49.51.65.34,1.14.83,1.48,1.48.34.64.57,1.42.69,2.33.13.91.19,1.93.19,3.06v.4c0,1.73-.14,3.18-.41,4.35-.26,1.17-.75,2.06-1.45,2.65-.69.59-1.69.88-2.99.88h-2.15v10.12h-3.03Zm3.03-12.64h1.85c.6,0,1.05-.17,1.35-.5.3-.34.51-.9.61-1.68.12-.78.18-1.84.18-3.18v-.5c0-1.66-.13-2.89-.38-3.68-.25-.8-.81-1.2-1.68-1.2h-1.92v10.74Zm13.37,12.83c-1.33,0-2.29-.51-2.87-1.54-.59-1.04-.88-2.47-.89-4.29v-2.14c0-.97.17-1.77.5-2.4.33-.64.8-1.18,1.41-1.61.61-.43,1.32-.82,2.14-1.16.82-.35,1.72-.72,2.7-1.11v-1.7c0-.94-.03-1.69-.09-2.27-.06-.59-.21-1.02-.45-1.29-.23-.27-.62-.41-1.14-.41s-.91.14-1.17.41c-.25.27-.42.7-.5,1.29s-.12,1.35-.12,2.28v.76h-2.99v-.63c0-.94.06-1.81.18-2.61.12-.81.34-1.51.67-2.11.33-.6.82-1.06,1.45-1.39.64-.34,1.49-.51,2.54-.51s1.8.16,2.4.48c.61.31,1.08.78,1.41,1.39.33.62.56,1.38.67,2.29.12.9.18,1.94.18,3.12v14.96h-3.02v-1.9c-.09.29-.26.6-.51.94-.25.32-.59.6-1,.82-.41.22-.9.34-1.48.34Zm.85-2.43c.53,0,.98-.17,1.36-.5.38-.34.64-.68.76-1.01v-8.36c-.75.33-1.37.64-1.86.91-.48.26-.85.54-1.13.83-.26.29-.45.64-.56,1.06-.11.41-.16.93-.16,1.55v2.04c0,1.24.11,2.13.32,2.68.21.54.63.81,1.26.81Zm9.1,2.24v-21.97h3.02v2.45c.25-.85.69-1.51,1.32-1.99.64-.48,1.44-.72,2.42-.72.02,0,.03.13.03.4,0,.25.01.55.01.88v1.27c-.47,0-.94.06-1.41.18-.47.11-.91.3-1.32.57-.41.26-.76.62-1.05,1.08v17.86h-3.02Zm10.21,0v-18.91h-1.89v-2.21h1.89v-1.07c0-1.27.27-2.25.81-2.93.55-.69,1.41-1.04,2.59-1.04.58,0,1.07.05,1.49.15.42.09.65.14.69.16v2.09c-.39-.06-.74-.09-1.04-.09-.65,0-1.07.14-1.26.41-.18.27-.28.65-.28,1.13v1.19h2.58v2.21h-2.58v18.91h-3Zm11.72.19c-1.33,0-2.29-.51-2.87-1.54-.59-1.04-.88-2.47-.89-4.29v-2.14c0-.97.17-1.77.5-2.4.33-.64.8-1.18,1.41-1.61.61-.43,1.32-.82,2.14-1.16.82-.35,1.72-.72,2.7-1.11v-1.7c0-.94-.03-1.69-.09-2.27-.06-.59-.21-1.02-.45-1.29-.23-.27-.62-.41-1.14-.41s-.91.14-1.17.41c-.25.27-.42.7-.5,1.29s-.12,1.35-.12,2.28v.76h-2.99v-.63c0-.94.06-1.81.18-2.61.12-.81.34-1.51.67-2.11.33-.6.82-1.06,1.45-1.39.64-.34,1.49-.51,2.54-.51s1.8.16,2.4.48c.61.31,1.08.78,1.41,1.39.33.62.56,1.38.67,2.29.12.9.18,1.94.18,3.12v14.96h-3.02v-1.9c-.09.29-.26.6-.51.94-.25.32-.59.6-1,.82-.41.22-.9.34-1.48.34Zm.85-2.43c.53,0,.98-.17,1.36-.5.38-.34.64-.68.76-1.01v-8.36c-.75.33-1.37.64-1.86.91-.48.26-.85.54-1.13.83-.26.29-.45.64-.56,1.06-.11.41-.16.93-.16,1.55v2.04c0,1.24.11,2.13.32,2.68.21.54.63.81,1.26.81Zm9.13,2.24v-21.97h3.02v21.97h-3.02Zm0-23.99v-2.75h3.02v2.75h-3.02Zm11.18,24.13c-.94,0-1.64-.11-2.12-.34-.48-.22-.8-.59-.97-1.08-.17-.5-.25-1.16-.25-1.98v-16.3h-2.01v-2.23h2.01v-3.98h3v3.98h2.37v2.23h-2.37v16.04c0,.37.05.65.15.83.1.18.32.29.66.35.34.06.87.09,1.6.09v2.39h-2.07Zm16.45.12c-1.49,0-2.64-.61-3.44-1.85-.8-1.23-1.2-3.26-1.2-6.08v-10.81c0-1.13.08-2.16.23-3.08.17-.93.45-1.73.83-2.4.39-.67.92-1.19,1.6-1.55.68-.36,1.54-.54,2.58-.54s1.93.19,2.56.56c.64.36,1.13.88,1.46,1.55.33.67.55,1.48.66,2.42.11.94.16,1.97.16,3.11v1.99h-2.93v-3.35c0-1.25-.13-2.17-.38-2.77-.24-.61-.76-.91-1.54-.91-.83,0-1.41.36-1.73,1.07-.32.71-.48,1.97-.48,3.78v10.84c0,1.97.13,3.38.4,4.23.27.85.85,1.27,1.73,1.27s1.41-.42,1.7-1.27c.3-.86.45-2.29.45-4.29v-3.35h-2.09v-2.34h4.88v13.54h-1.6l-.41-1.99c-.27.72-.71,1.28-1.3,1.67-.59.38-1.3.57-2.14.57Zm9.46-.25v-26.06h3v26.06h-3Zm11.95.26c-1.03,0-1.88-.18-2.52-.53-.65-.36-1.14-.87-1.49-1.52-.34-.66-.58-1.45-.7-2.37-.13-.93-.19-1.96-.19-3.11v-7.78c0-1.38.13-2.61.4-3.69.26-1.08.75-1.94,1.45-2.56.71-.62,1.73-.94,3.06-.94,1,0,1.81.18,2.45.54.63.35,1.13.85,1.48,1.51.35.64.59,1.41.72,2.29.14.87.2,1.82.2,2.86v7.78c0,1.12-.06,2.14-.18,3.06-.12.92-.35,1.71-.69,2.39-.33.66-.82,1.18-1.46,1.54-.64.36-1.48.54-2.52.54Zm0-2.5c.53,0,.92-.18,1.17-.53.26-.35.44-.84.53-1.46.09-.63.13-1.37.13-2.2v-9.21c0-.82-.04-1.53-.13-2.14-.09-.62-.26-1.09-.53-1.44-.26-.34-.65-.51-1.17-.51-.55,0-.96.17-1.23.51-.27.34-.45.82-.54,1.44-.08.6-.12,1.32-.12,2.14v9.21c0,.83.04,1.56.12,2.2.09.62.27,1.11.54,1.46.27.35.68.53,1.23.53Zm14.84,2.43c-.6,0-1.17-.15-1.71-.45-.54-.31-.96-.84-1.27-1.58v1.85h-3v-26.06h3v5.83c.17-.62.52-1.11,1.07-1.46.56-.36,1.13-.54,1.73-.54,1.09,0,1.92.31,2.49.92.57.62.95,1.46,1.16,2.52.21,1.06.32,2.24.32,3.56v8.45c0,1.32-.1,2.5-.31,3.56-.2,1.06-.57,1.89-1.11,2.5-.54.61-1.32.91-2.36.91Zm-1-2.45c.73-.01,1.21-.38,1.42-1.1.23-.72.34-1.87.34-3.43v-8.85c0-.82-.03-1.53-.1-2.14-.07-.62-.23-1.09-.47-1.44-.23-.34-.61-.51-1.13-.51-.44,0-.81.1-1.11.31-.3.2-.54.59-.7,1.17-.16.59-.23,1.46-.23,2.62v8.91c0,1.48.12,2.6.37,3.34.25.74.8,1.11,1.63,1.11Zm13.24,2.52c-1.05,0-1.9-.18-2.55-.54-.64-.37-1.12-.89-1.45-1.57-.33-.67-.56-1.48-.67-2.42-.11-.95-.16-1.99-.16-3.13v-7.76c0-1.03.07-1.98.22-2.84.15-.87.4-1.62.76-2.24.36-.63.86-1.12,1.51-1.46.64-.35,1.46-.53,2.46-.53s1.82.18,2.43.53c.62.35,1.08.85,1.39,1.49.32.63.54,1.4.64,2.28.11.88.16,1.85.16,2.9v4.14h-6.56v4.38c0,1.39.09,2.45.28,3.18.2.72.72,1.08,1.57,1.08.56,0,.95-.17,1.19-.51.24-.35.39-.84.44-1.47.06-.63.09-1.38.09-2.24v-1.77h2.94v.94c0,1.14-.05,2.18-.15,3.11-.09.93-.28,1.72-.58,2.39-.3.66-.77,1.18-1.41,1.54-.62.35-1.47.53-2.55.53Zm-1.83-13.18h3.58v-2.8c0-.88-.03-1.62-.09-2.21-.06-.61-.2-1.06-.42-1.36-.23-.31-.6-.47-1.11-.47-.58,0-1.01.18-1.29.53-.27.35-.45.84-.54,1.46-.08.62-.12,1.33-.12,2.15v2.69Zm9.39,1.74v-2.12h6.62v2.12h-6.62Zm12.1,11.18v-23.26h-2.84v-2.52h8.51v2.52h-2.65v23.26h-3.02Zm8.19,0v-21.97h3.02v2.45c.25-.85.69-1.51,1.32-1.99.64-.48,1.44-.72,2.42-.72.02,0,.03.13.03.4,0,.25.01.55.01.88v1.27c-.47,0-.94.06-1.41.18-.47.11-.91.3-1.32.57-.41.26-.76.62-1.05,1.08v17.86h-3.02Zm13.98.26c-1.04,0-1.88-.18-2.52-.53-.64-.36-1.14-.87-1.49-1.52-.34-.66-.58-1.45-.7-2.37-.13-.93-.19-1.96-.19-3.11v-7.78c0-1.38.13-2.61.4-3.69.26-1.08.75-1.94,1.45-2.56.71-.62,1.73-.94,3.06-.94,1,0,1.81.18,2.45.54.64.35,1.13.85,1.48,1.51.35.64.59,1.41.72,2.29.14.87.2,1.82.2,2.86v7.78c0,1.12-.06,2.14-.17,3.06-.12.92-.35,1.71-.69,2.39-.33.66-.82,1.18-1.46,1.54-.64.36-1.47.54-2.52.54Zm0-2.5c.53,0,.92-.18,1.17-.53.26-.35.44-.84.53-1.46.09-.63.13-1.37.13-2.2v-9.21c0-.82-.04-1.53-.13-2.14-.09-.62-.26-1.09-.53-1.44-.26-.34-.65-.51-1.17-.51-.55,0-.96.17-1.23.51-.27.34-.45.82-.54,1.44-.08.6-.12,1.32-.12,2.14v9.21c0,.83.04,1.56.12,2.2.09.62.27,1.11.54,1.46.27.35.68.53,1.23.53Zm12.64,2.37c-.94,0-1.64-.11-2.12-.34-.48-.22-.8-.59-.97-1.08-.17-.5-.25-1.16-.25-1.98v-16.3h-2.01v-2.23h2.01v-3.98h3v3.98h2.37v2.23h-2.37v16.04c0,.37.05.65.15.83.1.18.32.29.66.35.34.06.87.09,1.6.09v2.39h-2.07Zm8.73,0c-.94,0-1.65-.11-2.12-.34-.48-.22-.8-.59-.97-1.08-.17-.5-.25-1.16-.25-1.98v-16.3h-2.01v-2.23h2.01v-3.98h3v3.98h2.37v2.23h-2.37v16.04c0,.37.05.65.15.83.1.18.32.29.66.35.34.06.87.09,1.6.09v2.39h-2.07Zm9.4.13c-1.05,0-1.9-.18-2.55-.54-.63-.37-1.12-.89-1.45-1.57-.33-.67-.56-1.48-.67-2.42-.11-.95-.16-1.99-.16-3.13v-7.76c0-1.03.07-1.98.22-2.84.15-.87.4-1.62.76-2.24.36-.63.86-1.12,1.51-1.46.64-.35,1.46-.53,2.46-.53s1.82.18,2.43.53c.61.35,1.08.85,1.39,1.49.32.63.54,1.4.64,2.28.11.88.16,1.85.16,2.9v4.14h-6.56v4.38c0,1.39.09,2.45.28,3.18.2.72.72,1.08,1.57,1.08.56,0,.95-.17,1.19-.51.24-.35.39-.84.44-1.47.06-.63.09-1.38.09-2.24v-1.77h2.94v.94c0,1.14-.05,2.18-.15,3.11-.09.93-.28,1.72-.59,2.39-.3.66-.77,1.18-1.41,1.54-.62.35-1.48.53-2.55.53Zm-1.83-13.18h3.57v-2.8c0-.88-.03-1.62-.09-2.21-.06-.61-.2-1.06-.42-1.36-.22-.31-.6-.47-1.11-.47-.58,0-1.01.18-1.29.53-.27.35-.45.84-.54,1.46-.08.62-.12,1.33-.12,2.15v2.69Zm13.76,13.21c-.65,0-1.26-.16-1.82-.48-.56-.32-1.01-.84-1.35-1.55-.34-.72-.51-1.67-.51-2.83v-17.4h3v17.07c0,.85.15,1.49.45,1.93.3.44.78.66,1.44.66.72,0,1.26-.25,1.6-.75.35-.51.53-1.15.53-1.92v-16.99h3.02v21.97h-3.02v-2.24c-.21.68-.6,1.28-1.16,1.79-.56.5-1.29.75-2.18.75Zm10.59-.29v-21.97h3.02v2.45c.25-.85.69-1.51,1.32-1.99.63-.48,1.44-.72,2.42-.72.02,0,.03.13.03.4.01.25.02.55.02.88v1.27c-.47,0-.94.06-1.41.18-.47.11-.91.3-1.32.57-.41.26-.76.62-1.05,1.08v17.86h-3.02Zm9.76,0v-2.9h2.56v2.9h-2.56Zm4.42,0v-2.9h2.56v2.9h-2.56Zm4.44,0v-2.9h2.56v2.9h-2.56Z"/><path class="cls-6" d="m140,47.06c-.37,0-.68-.13-.95-.4-.27-.27-.4-.58-.4-.95V13.41c0-.37.13-.68.4-.95.27-.27.58-.4.95-.4h16.6c3.2,0,5.82.4,7.85,1.2,2.03.77,3.53,1.93,4.5,3.5,1,1.53,1.5,3.47,1.5,5.8,0,1.07-.23,2.03-.7,2.9-.43.83-.97,1.53-1.6,2.1-.6.57-1.17.98-1.7,1.25,1.27.53,2.37,1.47,3.3,2.8.97,1.3,1.45,2.78,1.45,4.45,0,2.5-.55,4.57-1.65,6.2-1.1,1.6-2.7,2.8-4.8,3.6-2.07.8-4.62,1.2-7.65,1.2h-17.1Zm11.15-8.6h4.65c.83,0,1.42-.27,1.75-.8.37-.57.55-1.12.55-1.65,0-.6-.2-1.15-.6-1.65-.37-.53-.93-.8-1.7-.8h-4.65v4.9Zm0-13.25h4.2c.73,0,1.25-.23,1.55-.7.33-.5.5-1.02.5-1.55s-.17-1.05-.5-1.55c-.3-.5-.82-.75-1.55-.75h-4.2v4.55Zm25.57,21.85c-.37,0-.68-.13-.95-.4-.27-.27-.4-.58-.4-.95V13.41c0-.37.13-.68.4-.95.27-.27.58-.4.95-.4h14.8c4.8,0,8.55,1.08,11.25,3.25s4.05,5.13,4.05,8.9c0,2.23-.52,4.18-1.55,5.85-1,1.63-2.28,2.95-3.85,3.95l6.15,11.4c.1.2.15.38.15.55,0,.3-.12.57-.35.8-.2.2-.45.3-.75.3h-10.25c-.67,0-1.17-.17-1.5-.5-.33-.33-.55-.62-.65-.85l-4.3-9.55h-2.05v9.55c0,.37-.13.68-.4.95-.27.27-.58.4-.95.4h-9.8Zm11.15-20.4h3.65c.77,0,1.33-.25,1.7-.75.4-.53.6-1.13.6-1.8s-.18-1.28-.55-1.85c-.33-.6-.92-.9-1.75-.9h-3.65v5.3Zm21.93,20.4c-.3,0-.57-.1-.8-.3-.2-.23-.3-.5-.3-.8,0-.13.02-.25.05-.35l11.15-31.9c.1-.37.33-.73.7-1.1.37-.37.88-.55,1.55-.55h10.85c.67,0,1.18.18,1.55.55.37.37.6.73.7,1.1l11.15,31.9c.03.1.05.22.05.35,0,.3-.12.57-.35.8-.2.2-.45.3-.75.3h-9.25c-.63,0-1.1-.13-1.4-.4-.27-.3-.45-.58-.55-.85l-1.2-3.3h-10.75l-1.2,3.3c-.1.27-.28.55-.55.85-.27.27-.73.4-1.4.4h-9.25Zm14.95-14.3h5.65l-2.85-9.3-2.8,9.3Zm31.12,14.3c-.67,0-1.18-.18-1.55-.55-.37-.37-.6-.73-.7-1.1l-9.4-31.9c-.03-.13-.05-.25-.05-.35,0-.3.1-.55.3-.75.23-.23.5-.35.8-.35h9.3c.67,0,1.18.18,1.55.55.37.37.6.73.7,1.1l4.75,18.6,4.75-18.6c.1-.37.33-.73.7-1.1.37-.37.88-.55,1.55-.55h9.3c.3,0,.55.12.75.35.23.2.35.45.35.75,0,.1-.02.22-.05.35l-9.4,31.9c-.1.37-.33.73-.7,1.1-.37.37-.88.55-1.55.55h-11.4Zm41.26.5c-3.27,0-6.13-.5-8.6-1.5-2.43-1-4.37-2.5-5.8-4.5-1.4-2.03-2.17-4.53-2.3-7.5-.03-1.37-.05-2.82-.05-4.35s.02-3.02.05-4.45c.13-2.93.9-5.42,2.3-7.45,1.4-2.03,3.33-3.58,5.8-4.65,2.47-1.07,5.33-1.6,8.6-1.6s6.13.53,8.6,1.6c2.47,1.07,4.4,2.62,5.8,4.65,1.43,2.03,2.2,4.52,2.3,7.45.07,1.43.1,2.92.1,4.45s-.03,2.98-.1,4.35c-.13,2.97-.92,5.47-2.35,7.5-1.4,2-3.33,3.5-5.8,4.5-2.43,1-5.28,1.5-8.55,1.5Zm0-9.75c1.1,0,1.98-.32,2.65-.95.67-.67,1.02-1.7,1.05-3.1.07-1.43.1-2.85.1-4.25s-.03-2.78-.1-4.15c-.03-.93-.22-1.7-.55-2.3-.3-.6-.72-1.03-1.25-1.3-.53-.3-1.17-.45-1.9-.45s-1.33.15-1.9.45c-.53.27-.97.7-1.3,1.3-.3.6-.47,1.37-.5,2.3-.03,1.37-.05,2.75-.05,4.15s.02,2.82.05,4.25c.07,1.4.42,2.43,1.05,3.1.67.63,1.55.95,2.65.95Zm31.74-4.15c-.37,0-.68-.13-.95-.4-.27-.27-.4-.58-.4-.95V13.41c0-.37.13-.68.4-.95.27-.27.58-.4.95-.4h8.7c.37,0,.68.13.95.4.27.27.4.58.4.95v18.9c0,.37-.13.68-.4.95-.27.27-.58.4-.95.4h-8.7Zm0,13.4c-.37,0-.68-.13-.95-.4-.27-.27-.4-.58-.4-.95v-8.7c0-.37.13-.68.4-.95.27-.27.58-.4.95-.4h8.7c.37,0,.68.13.95.4.27.27.4.58.4.95v8.7c0,.37-.13.68-.4.95-.27.27-.58.4-.95.4h-8.7Z"/></g></g></g></svg>