<?xml version="1.0" encoding="utf-8"?>
<!-- Generator: Adobe Illustrator 27.4.1, SVG Export Plug-In . SVG Version: 6.00 Build 0)  -->
<svg version="1.1" id="Calque_2_00000109708480643574095910000000465535779812117401_"
	 xmlns="http://www.w3.org/2000/svg" xmlns:xlink="http://www.w3.org/1999/xlink" x="0px" y="0px" viewBox="0 0 600 600"
	 style="enable-background:new 0 0 600 600;" xml:space="preserve">
<style type="text/css">
	.st0{clip-path:url(#SVGID_00000111161208472552355630000006639991624992188341_);}
	.st1{fill:#000030;}
	.st2{fill:#B0D236;}
	.st3{clip-path:url(#SVGID_00000060720653007425477290000005411564584432158642_);}
	.st4{fill:#FFFFFF;}
	.st5{fill:#154F78;}
	.st6{fill:#0F3754;}
	.st7{fill:#99D2D9;}
	.st8{fill:#C2E1DB;}
	.st9{display:none;fill:#EDE7DF;}
	.st10{display:none;fill:#B0D236;}
</style>
<g id="Calque_1-2">
	<g id="bravo1point">
		<g>
			<defs>
				<rect id="SVGID_1_" width="600" height="600"/>
			</defs>
			<clipPath id="SVGID_00000126290065927361398780000012490497672387019680_">
				<use xlink:href="#SVGID_1_"  style="overflow:visible;"/>
			</clipPath>
			<g style="clip-path:url(#SVGID_00000126290065927361398780000012490497672387019680_);">
				<rect class="st1" width="600" height="600"/>
				<rect x="8.9" y="10.1" class="st2" width="85" height="685"/>
				<rect x="135.9" y="140.1" class="st2" width="85" height="685"/>
				<g>
					<defs>
						<rect id="SVGID_00000018212985198646262080000007012869862932717490_" x="158.9" y="320.1" width="200" height="1002.2"/>
					</defs>
					<clipPath id="SVGID_00000065060587440732300720000007182457592069183133_">
						<use xlink:href="#SVGID_00000018212985198646262080000007012869862932717490_"  style="overflow:visible;"/>
					</clipPath>
					<g style="clip-path:url(#SVGID_00000065060587440732300720000007182457592069183133_);">
						<path class="st4" d="M333.1,424.6c-9.2,0-16.6,7.3-17.2,16.3c-0.1,0-0.2,0-0.2-0.1v-16.2c0-9.6-7.8-17.4-17.4-17.4
							s-17.4,7.9-17.4,17.4v-17.4c0-9.6-7.8-17.4-17.4-17.4s-17.4,7.9-17.4,17.4v-69.7c0-9.6-7.8-17.4-17.4-17.4
							s-17.4,7.8-17.4,17.4v117.1c0,2.1-1.9,4-4,4.6c-2,0.6-4.5-0.2-5.7-2c-12.8-16.7-12-33.2-30.5-33.2c-4.3,0-8.3,2.3-10.4,6
							c-2.1,3.7-2.2,8.3-0.1,12L215,559.5c1.5,2.8,4.5,4.5,7.6,4.5h101.8c14.4,0,26.1-11.7,26.1-26.1V442
							C350.6,432.4,342.7,424.6,333.1,424.6L333.1,424.6L333.1,424.6z"/>
						<path class="st5" d="M278.8,574.3h-60.2c-6.3,0-11.5,5.1-11.5,11.5v45.8c0,6.3,5.1,11.5,11.5,11.5h60.2V574.3L278.8,574.3
							L278.8,574.3z"/>
						<path class="st6" d="M339.1,574.3h-60.2v68.8h60.2c6.3,0,11.5-5.1,11.5-11.5v-45.8C350.6,579.4,345.4,574.3,339.1,574.3
							L339.1,574.3L339.1,574.3z"/>
						<path class="st7" d="M347.8,599.3h-69.7v723h69.7c6.2,0,11.1-3.4,11.1-7.7V607C358.9,602.7,353.9,599.3,347.8,599.3
							L347.8,599.3z"/>
						<path class="st8" d="M208.4,599.3c-6.2,0-11.1,3.4-11.1,7.7v707.6c0,4.2,5,7.7,11.1,7.7h69.7v-723H208.4z"/>
					</g>
				</g>
				<path class="st4" d="M287.1,331c-0.7,0.3-1.4,0.4-2.1,0.1s-1.2-0.7-1.5-1.4l-28.2-58.1c-0.3-0.7-0.4-1.4-0.1-2.1
					s0.7-1.2,1.4-1.5l27.3-13.2c5.5-2.6,10.6-4.1,15.4-4.5c4.8-0.4,9.2,0.5,13,2.7c3.9,2.1,7,5.7,9.4,10.7s3.2,9.6,2.5,13.9
					c-0.7,4.2-2.7,8-6.1,11.5c-3.3,3.4-7.7,6.4-13.2,9l-6.3,3l8.3,17.2c0.3,0.7,0.4,1.4,0.1,2.1s-0.7,1.2-1.4,1.5L287.1,331
					L287.1,331z M290.1,284.8l6.3-3c1-0.5,1.7-1.3,2.3-2.4c0.5-1.2,0.4-2.7-0.5-4.4c-0.5-1.1-1.4-2.1-2.6-3
					c-1.1-0.9-2.5-0.9-4.1-0.1l-6.3,3L290.1,284.8L290.1,284.8z"/>
				<path class="st4" d="M362.2,363.4c-6.5-0.2-12.2-1.4-17.1-3.6c-4.8-2.2-8.5-5.3-11.3-9.4c-2.6-4.2-4-9.2-4.1-15.1
					c0-2.7,0.1-5.6,0.2-8.7s0.2-6,0.4-8.9c0.5-5.9,2.2-10.8,5.1-14.7s6.9-6.9,11.9-8.9c5-2,10.8-2.8,17.3-2.6s12.2,1.5,17.1,3.8
					c4.9,2.3,8.6,5.5,11.3,9.7c2.7,4.2,4.1,9.2,4.1,15c0,2.9,0,5.8-0.1,8.9s-0.3,6-0.5,8.7c-0.5,5.9-2.2,10.9-5.2,14.8
					c-2.9,3.9-6.9,6.8-11.9,8.6C374.5,362.8,368.7,363.6,362.2,363.4L362.2,363.4z M362.9,343.9c2.2,0.1,4-0.5,5.4-1.7
					c1.4-1.3,2.1-3.3,2.3-6.1c0.2-2.9,0.4-5.7,0.5-8.5s0.1-5.6,0.1-8.3c0-1.9-0.3-3.4-0.9-4.6c-0.6-1.2-1.4-2.1-2.4-2.7
					c-1-0.6-2.3-1-3.8-1c-1.4,0-2.7,0.2-3.8,0.8c-1.1,0.5-2,1.3-2.7,2.5c-0.6,1.2-1,2.7-1.2,4.6c-0.2,2.7-0.3,5.5-0.4,8.3
					c-0.1,2.8-0.2,5.6-0.2,8.5c0,2.8,0.7,4.9,1.9,6.3C358.9,343.1,360.7,343.8,362.9,343.9L362.9,343.9z"/>
				<path class="st4" d="M405.3,301c-0.5,0.1-1,0-1.5-0.3c-0.5-0.3-0.8-0.8-0.9-1.3l-8.7-47.7c-0.1-0.5,0-1,0.3-1.5
					c0.3-0.5,0.8-0.8,1.3-0.9l15-2.8c0.5-0.1,1,0,1.5,0.3c0.5,0.3,0.8,0.8,0.9,1.3l8.7,47.7c0.1,0.5,0,1-0.3,1.5
					c-0.3,0.5-0.8,0.8-1.3,0.9L405.3,301z"/>
				<path class="st4" d="M437.9,316.5c-0.5,0-1-0.3-1.4-0.7s-0.5-0.9-0.5-1.5l4.8-48.2c0-0.5,0.3-1,0.7-1.4s0.9-0.5,1.5-0.5
					l11.8,1.2c1,0.1,1.7,0.4,2.1,0.9c0.4,0.5,0.7,0.9,0.8,1.1l10.6,21.9l2-20.4c0-0.5,0.3-1,0.7-1.4s0.9-0.5,1.5-0.5l13.5,1.3
					c0.5,0,1,0.3,1.4,0.7s0.5,0.9,0.5,1.5l-4.8,48.2c0,0.5-0.3,1-0.7,1.4s-0.9,0.5-1.5,0.5l-11.8-1.2c-1-0.1-1.7-0.4-2.1-0.9
					c-0.4-0.5-0.7-0.9-0.8-1.1l-10.7-20.3l-1.9,18.7c0,0.5-0.3,1-0.7,1.4s-0.9,0.5-1.5,0.5L437.9,316.5L437.9,316.5z"/>
				<path class="st4" d="M512,291.1c-0.5,0-1-0.1-1.5-0.5s-0.7-0.8-0.7-1.4l-3.3-34.2l-12.4,1.2c-0.5,0-1-0.1-1.5-0.5
					s-0.7-0.8-0.7-1.4l-1.2-12c0-0.6,0.1-1,0.5-1.5s0.8-0.7,1.4-0.7l43.7-4.3c0.5-0.1,1,0.1,1.5,0.5s0.7,0.8,0.7,1.4l1.2,12
					c0,0.6-0.1,1-0.5,1.5c-0.4,0.4-0.8,0.7-1.4,0.7l-12.4,1.2l3.3,34.2c0,0.5-0.1,1-0.5,1.5c-0.4,0.4-0.8,0.7-1.4,0.7L512,291.1
					L512,291.1z"/>
				<path class="st9" d="M140.8,119.1l-4.3-25.8h2.9l1.7,10.9l1.5,9.6h0.1l1.3-9.6l1.5-10.9h2.9l-3.9,25.8H140.8L140.8,119.1z
					 M155.3,119.3c-1,0-1.9-0.2-2.5-0.5c-0.6-0.4-1.1-0.9-1.5-1.5c-0.3-0.7-0.6-1.4-0.7-2.4c-0.1-0.9-0.2-2-0.2-3.1V104
					c0-1.4,0.1-2.6,0.4-3.7s0.8-1.9,1.4-2.6c0.7-0.6,1.7-0.9,3.1-0.9c1,0,1.8,0.2,2.4,0.5c0.6,0.3,1.1,0.8,1.5,1.5
					c0.4,0.6,0.6,1.4,0.7,2.3c0.1,0.9,0.2,1.8,0.2,2.9v7.8c0,1.1-0.1,2.1-0.2,3.1s-0.4,1.7-0.7,2.4c-0.3,0.7-0.8,1.2-1.5,1.5
					C157.2,119.2,156.3,119.3,155.3,119.3L155.3,119.3z M155.3,116.8c0.5,0,0.9-0.2,1.2-0.5c0.3-0.3,0.4-0.8,0.5-1.5
					c0.1-0.6,0.1-1.4,0.1-2.2v-9.2c0-0.8,0-1.5-0.1-2.1c-0.1-0.6-0.3-1.1-0.5-1.4c-0.3-0.3-0.6-0.5-1.2-0.5c-0.6,0-1,0.2-1.2,0.5
					c-0.3,0.3-0.4,0.8-0.5,1.4c-0.1,0.6-0.1,1.3-0.1,2.1v9.2c0,0.8,0,1.6,0.1,2.2c0.1,0.6,0.3,1.1,0.5,1.5
					C154.3,116.6,154.7,116.8,155.3,116.8z M167.6,119.3c-0.6,0-1.3-0.2-1.8-0.5c-0.6-0.3-1-0.8-1.4-1.6c-0.3-0.7-0.5-1.7-0.5-2.8
					V97.1h3v17.1c0,0.8,0.1,1.5,0.4,1.9s0.8,0.7,1.4,0.7c0.7,0,1.3-0.2,1.6-0.8c0.4-0.5,0.5-1.2,0.5-1.9v-17h3v22h-3v-2.2
					c-0.2,0.7-0.6,1.3-1.2,1.8C169.2,119.1,168.5,119.4,167.6,119.3L167.6,119.3z M182.3,119.3c-1.6,0-2.8-0.5-3.6-1.5
					c-0.8-1-1.2-2.6-1.2-4.9v-1.7h2.9v1.6c0,1.2,0.1,2.2,0.4,2.8c0.3,0.7,0.7,1,1.3,1s1.1-0.2,1.4-0.6c0.3-0.4,0.4-1.1,0.4-2.2
					c0-0.5-0.1-1-0.2-1.5c-0.2-0.5-0.4-1-0.7-1.5c-0.3-0.5-0.7-1-1.2-1.5l-1.6-1.5c-0.9-0.9-1.6-1.8-2.1-2.8c-0.5-1-0.7-2.1-0.7-3.2
					c0-1.8,0.4-3.1,1.3-3.9c0.8-0.8,2-1.3,3.5-1.3c1,0,1.8,0.2,2.5,0.6s1.2,1.1,1.5,2.1c0.3,1,0.5,2.3,0.5,4.1v1.1h-2.9v-1.5
					c0-1.2-0.1-2.2-0.4-2.8c-0.2-0.7-0.7-1-1.3-1s-1,0.2-1.4,0.5c-0.3,0.3-0.4,1-0.5,1.9c0,0.5,0.1,0.9,0.2,1.4
					c0.1,0.5,0.4,0.9,0.7,1.4s0.7,0.9,1.2,1.4l1.6,1.5c1,0.9,1.8,2,2.3,3.1c0.5,1.1,0.8,2.2,0.8,3.4c0,1.7-0.4,3-1.1,3.9
					C185.1,118.9,183.9,119.4,182.3,119.3L182.3,119.3z M197.2,119.1V93.3h7.7v2.5h-4.7v8.8h4.4v2.5h-4.4v9.4h4.7v2.5L197.2,119.1
					L197.2,119.1z M197,91.2l2.3-4.3h3.4l2.2,4.3h-2.7l-1.3-3l-1.3,3H197L197,91.2z M212.1,119.2c-0.9,0-1.6-0.1-2.1-0.3
					c-0.5-0.2-0.8-0.6-1-1.1s-0.2-1.2-0.2-2V99.5h-2v-2.2h2v-4h3v4h2.4v2.2h-2.4v16c0,0.4,0.1,0.7,0.1,0.8c0.1,0.2,0.3,0.3,0.7,0.3
					s0.9,0.1,1.6,0.1v2.4C214.2,119.2,212.1,119.2,212.1,119.2z M221.5,119.3c-1.1,0-1.9-0.2-2.6-0.5c-0.6-0.4-1.1-0.9-1.4-1.6
					c-0.3-0.7-0.6-1.5-0.7-2.4c-0.1-0.9-0.2-2-0.2-3.1v-7.8c0-1,0.1-2,0.2-2.8c0.1-0.9,0.4-1.6,0.8-2.2c0.4-0.6,0.9-1.1,1.5-1.5
					c0.6-0.3,1.5-0.5,2.5-0.5s1.8,0.2,2.4,0.5c0.6,0.3,1.1,0.8,1.4,1.5c0.3,0.6,0.5,1.4,0.6,2.3c0.1,0.9,0.2,1.8,0.2,2.9v4.1h-6.6
					v4.4c0,1.4,0.1,2.4,0.3,3.2c0.2,0.7,0.7,1.1,1.6,1.1c0.6,0,0.9-0.2,1.2-0.5c0.2-0.3,0.4-0.8,0.4-1.5c0.1-0.6,0.1-1.4,0.1-2.2
					v-1.8h2.9v0.9c0,1.1-0.1,2.2-0.1,3.1c-0.1,0.9-0.3,1.7-0.6,2.4c-0.3,0.7-0.8,1.2-1.4,1.5C223.4,119.2,222.6,119.3,221.5,119.3
					L221.5,119.3z M219.7,106.1h3.6v-2.8c0-0.9,0-1.6-0.1-2.2c-0.1-0.6-0.2-1.1-0.4-1.4c-0.2-0.3-0.6-0.5-1.1-0.5
					c-0.6,0-1,0.2-1.3,0.5c-0.3,0.3-0.5,0.8-0.5,1.5c-0.1,0.6-0.1,1.3-0.1,2.2L219.7,106.1L219.7,106.1z M234,119.3
					c-1.6,0-2.8-0.5-3.6-1.5c-0.8-1-1.2-2.6-1.2-4.9v-1.7h2.9v1.6c0,1.2,0.1,2.2,0.4,2.8c0.3,0.7,0.7,1,1.3,1s1.1-0.2,1.4-0.6
					c0.3-0.4,0.4-1.1,0.4-2.2c0-0.5-0.1-1-0.2-1.5c-0.2-0.5-0.4-1-0.7-1.5c-0.3-0.5-0.7-1-1.2-1.5l-1.6-1.5
					c-0.9-0.9-1.6-1.8-2.1-2.8c-0.5-1-0.7-2.1-0.7-3.2c0-1.8,0.4-3.1,1.3-3.9c0.8-0.8,2-1.3,3.5-1.3c1,0,1.8,0.2,2.5,0.6
					s1.2,1.1,1.5,2.1c0.3,1,0.5,2.3,0.5,4.1v1.1h-2.9v-1.5c0-1.2-0.1-2.2-0.4-2.8c-0.2-0.7-0.7-1-1.3-1s-1,0.2-1.4,0.5
					c-0.3,0.3-0.4,1-0.5,1.9c0,0.5,0.1,0.9,0.2,1.4c0.1,0.5,0.4,0.9,0.7,1.4s0.7,0.9,1.2,1.4l1.6,1.5c1,0.9,1.8,2,2.3,3.1
					c0.5,1.1,0.8,2.2,0.8,3.4c0,1.7-0.4,3-1.1,3.9C236.8,118.9,235.6,119.4,234,119.3L234,119.3z M253.8,119.4c-1.3,0-2.3-0.2-3-0.8
					c-0.7-0.5-1.3-1.3-1.6-2.3c-0.3-1-0.5-2.3-0.5-3.9V93.3h3v19.1c0,0.9,0,1.7,0.1,2.4c0.1,0.7,0.2,1.2,0.5,1.5s0.8,0.5,1.4,0.5
					s1.1-0.2,1.4-0.5c0.3-0.3,0.4-0.9,0.5-1.5c0.1-0.7,0.1-1.5,0.1-2.4V93.3h3v19.2c0,1.6-0.2,2.9-0.5,3.9c-0.3,1-0.8,1.8-1.6,2.3
					C256.1,119.1,255.1,119.4,253.8,119.4L253.8,119.4z M262.8,119v-22h3v2.3c0.2-0.7,0.6-1.3,1.2-1.8c0.6-0.5,1.4-0.8,2.3-0.8
					c1.1,0,2,0.4,2.6,1.2c0.6,0.8,0.9,2,0.9,3.6V119h-3v-17.5c0-0.8-0.2-1.3-0.5-1.7s-0.8-0.5-1.4-0.5c-0.4,0-0.8,0.1-1.1,0.3
					c-0.3,0.2-0.6,0.4-0.8,0.8s-0.3,0.8-0.3,1.4V119H262.8L262.8,119z M284.3,119V93.3h5.2c1,0,1.9,0.2,2.5,0.5
					c0.6,0.3,1.1,0.8,1.5,1.5c0.3,0.6,0.6,1.4,0.7,2.3c0.1,0.9,0.2,1.9,0.2,3.1v0.4c0,1.7-0.1,3.2-0.4,4.3c-0.3,1.2-0.8,2.1-1.5,2.7
					c-0.7,0.6-1.7,0.9-3,0.9h-2.1v10.1C287.3,119.1,284.3,119.1,284.3,119z M287.3,106.4h1.9c0.6,0,1-0.2,1.4-0.5
					c0.3-0.3,0.5-0.9,0.6-1.7c0.1-0.8,0.2-1.8,0.2-3.2v-0.5c0-1.7-0.1-2.9-0.4-3.7c-0.2-0.8-0.8-1.2-1.7-1.2h-1.9L287.3,106.4
					L287.3,106.4z M300.7,119.2c-1.3,0-2.3-0.5-2.9-1.5c-0.6-1-0.9-2.5-0.9-4.3v-2.1c0-1,0.2-1.8,0.5-2.4c0.3-0.6,0.8-1.2,1.4-1.6
					c0.6-0.4,1.3-0.8,2.1-1.2c0.8-0.3,1.7-0.7,2.7-1.1v-1.7c0-0.9,0-1.7-0.1-2.3c-0.1-0.6-0.2-1-0.5-1.3c-0.2-0.3-0.6-0.4-1.1-0.4
					s-0.9,0.1-1.2,0.4c-0.2,0.3-0.4,0.7-0.5,1.3s-0.1,1.3-0.1,2.3v0.8h-3v-0.6c0-0.9,0.1-1.8,0.2-2.6c0.1-0.8,0.3-1.5,0.7-2.1
					c0.3-0.6,0.8-1.1,1.5-1.4c0.6-0.3,1.5-0.5,2.5-0.5s1.8,0.2,2.4,0.5c0.6,0.3,1.1,0.8,1.4,1.4c0.3,0.6,0.6,1.4,0.7,2.3
					c0.1,0.9,0.2,1.9,0.2,3.1v15h-3v-1.9c-0.1,0.3-0.3,0.6-0.5,0.9c-0.2,0.3-0.6,0.6-1,0.8S301.3,119.2,300.7,119.2L300.7,119.2z
					 M301.5,116.8c0.5,0,1-0.2,1.4-0.5c0.4-0.3,0.6-0.7,0.8-1v-8.4c-0.8,0.3-1.4,0.6-1.9,0.9c-0.5,0.3-0.9,0.5-1.1,0.8
					c-0.3,0.3-0.5,0.6-0.6,1.1c-0.1,0.4-0.2,0.9-0.2,1.6v2c0,1.2,0.1,2.1,0.3,2.7C300.5,116.6,300.9,116.8,301.5,116.8L301.5,116.8z
					 M310.6,119v-22h3v2.4c0.2-0.8,0.7-1.5,1.3-2c0.6-0.5,1.4-0.7,2.4-0.7c0,0,0,0.1,0,0.4c0,0.2,0,0.6,0,0.9v1.3
					c-0.5,0-0.9,0.1-1.4,0.2c-0.5,0.1-0.9,0.3-1.3,0.6c-0.4,0.3-0.8,0.6-1,1.1v17.9L310.6,119L310.6,119z M320.8,119v-18.9h-1.9
					v-2.2h1.9v-1.1c0-1.3,0.3-2.2,0.8-2.9c0.5-0.7,1.4-1,2.6-1c0.6,0,1.1,0.1,1.5,0.2c0.4,0.1,0.6,0.1,0.7,0.2v2.1
					c-0.4-0.1-0.7-0.1-1-0.1c-0.6,0-1.1,0.1-1.3,0.4c-0.2,0.3-0.3,0.7-0.3,1.1v1.2h2.6v2.2h-2.6v18.9L320.8,119L320.8,119z
					 M332.6,119.2c-1.3,0-2.3-0.5-2.9-1.5c-0.6-1-0.9-2.5-0.9-4.3v-2.1c0-1,0.2-1.8,0.5-2.4c0.3-0.6,0.8-1.2,1.4-1.6
					c0.6-0.4,1.3-0.8,2.1-1.2c0.8-0.3,1.7-0.7,2.7-1.1v-1.7c0-0.9,0-1.7-0.1-2.3c-0.1-0.6-0.2-1-0.5-1.3c-0.2-0.3-0.6-0.4-1.1-0.4
					s-0.9,0.1-1.2,0.4c-0.2,0.3-0.4,0.7-0.5,1.3s-0.1,1.3-0.1,2.3v0.8h-3v-0.6c0-0.9,0.1-1.8,0.2-2.6c0.1-0.8,0.3-1.5,0.7-2.1
					c0.3-0.6,0.8-1.1,1.5-1.4c0.6-0.3,1.5-0.5,2.5-0.5s1.8,0.2,2.4,0.5c0.6,0.3,1.1,0.8,1.4,1.4c0.3,0.6,0.6,1.4,0.7,2.3
					c0.1,0.9,0.2,1.9,0.2,3.1v15h-3v-1.9c-0.1,0.3-0.3,0.6-0.5,0.9c-0.2,0.3-0.6,0.6-1,0.8S333.2,119.2,332.6,119.2L332.6,119.2z
					 M333.4,116.8c0.5,0,1-0.2,1.4-0.5c0.4-0.3,0.6-0.7,0.8-1v-8.4c-0.8,0.3-1.4,0.6-1.9,0.9c-0.5,0.3-0.9,0.5-1.1,0.8
					c-0.3,0.3-0.5,0.6-0.6,1.1c-0.1,0.4-0.2,0.9-0.2,1.6v2c0,1.2,0.1,2.1,0.3,2.7C332.3,116.6,332.8,116.8,333.4,116.8L333.4,116.8z
					 M342.5,119v-22h3v22H342.5z M342.5,95.1v-2.8h3v2.8H342.5z M353.7,119.2c-0.9,0-1.6-0.1-2.1-0.3c-0.5-0.2-0.8-0.6-1-1.1
					c-0.2-0.5-0.2-1.2-0.2-2V99.5h-2v-2.2h2v-4h3v4h2.4v2.2h-2.4v16c0,0.4,0,0.7,0.1,0.8s0.3,0.3,0.7,0.3s0.9,0.1,1.6,0.1v2.4
					C355.8,119.2,353.7,119.2,353.7,119.2z M370.2,119.3c-1.5,0-2.6-0.6-3.4-1.8c-0.8-1.2-1.2-3.3-1.2-6.1v-10.8
					c0-1.1,0.1-2.2,0.2-3.1c0.2-0.9,0.5-1.7,0.8-2.4c0.4-0.7,0.9-1.2,1.6-1.6s1.5-0.5,2.6-0.5s1.9,0.2,2.6,0.6
					c0.6,0.4,1.1,0.9,1.5,1.6c0.3,0.7,0.5,1.5,0.7,2.4c0.1,0.9,0.2,2,0.2,3.1v2h-2.9v-3.3c0-1.2-0.1-2.2-0.4-2.8
					c-0.2-0.6-0.8-0.9-1.5-0.9c-0.8,0-1.4,0.4-1.7,1.1s-0.5,2-0.5,3.8v10.8c0,2,0.1,3.4,0.4,4.2c0.3,0.8,0.9,1.3,1.7,1.3
					s1.4-0.4,1.7-1.3c0.3-0.9,0.5-2.3,0.5-4.3v-3.3h-2.1v-2.3h4.9v13.5H374l-0.4-2c-0.3,0.7-0.7,1.3-1.3,1.7
					C371.7,119.1,371,119.3,370.2,119.3L370.2,119.3z M379.6,119.1V93h3v26.1H379.6z M391.6,119.3c-1,0-1.9-0.2-2.5-0.5
					c-0.6-0.4-1.1-0.9-1.5-1.5c-0.3-0.7-0.6-1.4-0.7-2.4c-0.1-0.9-0.2-2-0.2-3.1V104c0-1.4,0.1-2.6,0.4-3.7c0.3-1.1,0.8-1.9,1.5-2.6
					c0.7-0.6,1.7-0.9,3.1-0.9c1,0,1.8,0.2,2.5,0.5c0.6,0.3,1.1,0.8,1.5,1.5c0.4,0.6,0.6,1.4,0.7,2.3c0.1,0.9,0.2,1.8,0.2,2.9v7.8
					c0,1.1-0.1,2.1-0.2,3.1s-0.4,1.7-0.7,2.4c-0.3,0.7-0.8,1.2-1.5,1.5C393.5,119.2,392.6,119.3,391.6,119.3L391.6,119.3z
					 M391.6,116.8c0.5,0,0.9-0.2,1.2-0.5c0.3-0.3,0.4-0.8,0.5-1.5c0.1-0.6,0.1-1.4,0.1-2.2v-9.2c0-0.8,0-1.5-0.1-2.1
					c-0.1-0.6-0.3-1.1-0.5-1.4c-0.3-0.3-0.6-0.5-1.2-0.5c-0.5,0-1,0.2-1.2,0.5c-0.3,0.3-0.5,0.8-0.5,1.4c-0.1,0.6-0.1,1.3-0.1,2.1
					v9.2c0,0.8,0,1.6,0.1,2.2c0.1,0.6,0.3,1.1,0.5,1.5C390.6,116.6,391,116.8,391.6,116.8z M406.4,119.2c-0.6,0-1.2-0.2-1.7-0.4
					c-0.5-0.3-1-0.8-1.3-1.6v1.8h-3V93h3v5.8c0.2-0.6,0.5-1.1,1.1-1.5c0.6-0.4,1.1-0.5,1.7-0.5c1.1,0,1.9,0.3,2.5,0.9
					c0.6,0.6,1,1.5,1.2,2.5s0.3,2.2,0.3,3.6v8.4c0,1.3-0.1,2.5-0.3,3.6c-0.2,1.1-0.6,1.9-1.1,2.5C408.3,119,407.5,119.3,406.4,119.2
					L406.4,119.2z M405.4,116.8c0.7,0,1.2-0.4,1.4-1.1c0.2-0.7,0.3-1.9,0.3-3.4v-8.8c0-0.8,0-1.5-0.1-2.1c-0.1-0.6-0.2-1.1-0.5-1.4
					c-0.2-0.3-0.6-0.5-1.1-0.5c-0.4,0-0.8,0.1-1.1,0.3c-0.3,0.2-0.5,0.6-0.7,1.2c-0.2,0.6-0.2,1.5-0.2,2.6v8.9
					c0,1.5,0.1,2.6,0.4,3.3S404.6,116.8,405.4,116.8L405.4,116.8z M418.7,119.3c-1,0-1.9-0.2-2.5-0.5c-0.6-0.4-1.1-0.9-1.5-1.6
					c-0.3-0.7-0.6-1.5-0.7-2.4c-0.1-0.9-0.2-2-0.2-3.1v-7.8c0-1,0.1-2,0.2-2.8c0.1-0.9,0.4-1.6,0.8-2.2c0.4-0.6,0.9-1.1,1.5-1.5
					c0.6-0.3,1.5-0.5,2.5-0.5s1.8,0.2,2.4,0.5c0.6,0.3,1.1,0.8,1.4,1.5c0.3,0.6,0.5,1.4,0.6,2.3c0.1,0.9,0.2,1.8,0.2,2.9v4.1h-6.6
					v4.4c0,1.4,0.1,2.4,0.3,3.2c0.2,0.7,0.7,1.1,1.6,1.1c0.6,0,1-0.2,1.2-0.5c0.2-0.3,0.4-0.8,0.4-1.5c0.1-0.6,0.1-1.4,0.1-2.2v-1.8
					h2.9v0.9c0,1.1,0,2.2-0.1,3.1c-0.1,0.9-0.3,1.7-0.6,2.4c-0.3,0.7-0.8,1.2-1.4,1.5C420.6,119.2,419.7,119.3,418.7,119.3
					L418.7,119.3z M416.8,106.1h3.6v-2.8c0-0.9,0-1.6-0.1-2.2c-0.1-0.6-0.2-1.1-0.4-1.4c-0.2-0.3-0.6-0.5-1.1-0.5
					c-0.6,0-1,0.2-1.3,0.5c-0.3,0.3-0.5,0.8-0.5,1.5c-0.1,0.6-0.1,1.3-0.1,2.2L416.8,106.1L416.8,106.1z M426.2,107.9v-2.1h6.6v2.1
					H426.2z M438.3,119.1V95.8h-2.8v-2.5h8.5v2.5h-2.6v23.3H438.3L438.3,119.1z M446.5,119.1v-22h3v2.4c0.2-0.8,0.7-1.5,1.3-2
					c0.6-0.5,1.4-0.7,2.4-0.7c0,0,0,0.1,0,0.4c0,0.2,0,0.6,0,0.9v1.3c-0.5,0-0.9,0.1-1.4,0.2c-0.5,0.1-0.9,0.3-1.3,0.6
					c-0.4,0.3-0.8,0.6-1,1.1v17.9L446.5,119.1L446.5,119.1z M460.5,119.3c-1,0-1.9-0.2-2.5-0.5c-0.6-0.4-1.1-0.9-1.5-1.5
					c-0.3-0.7-0.6-1.4-0.7-2.4c-0.1-0.9-0.2-2-0.2-3.1V104c0-1.4,0.1-2.6,0.4-3.7c0.3-1.1,0.8-1.9,1.5-2.6c0.7-0.6,1.7-0.9,3.1-0.9
					c1,0,1.8,0.2,2.5,0.5c0.6,0.3,1.1,0.8,1.5,1.5c0.4,0.6,0.6,1.4,0.7,2.3c0.1,0.9,0.2,1.8,0.2,2.9v7.8c0,1.1-0.1,2.1-0.2,3.1
					c-0.1,0.9-0.4,1.7-0.7,2.4c-0.3,0.7-0.8,1.2-1.5,1.5C462.4,119.2,461.6,119.3,460.5,119.3L460.5,119.3z M460.5,116.8
					c0.5,0,0.9-0.2,1.2-0.5c0.3-0.3,0.4-0.8,0.5-1.5c0.1-0.6,0.1-1.4,0.1-2.2v-9.2c0-0.8,0-1.5-0.1-2.1c-0.1-0.6-0.3-1.1-0.5-1.4
					c-0.3-0.3-0.6-0.5-1.2-0.5c-0.5,0-1,0.2-1.2,0.5c-0.3,0.3-0.5,0.8-0.5,1.4c-0.1,0.6-0.1,1.3-0.1,2.1v9.2c0,0.8,0,1.6,0.1,2.2
					c0.1,0.6,0.3,1.1,0.5,1.5C459.5,116.6,459.9,116.8,460.5,116.8z M473.1,119.2c-0.9,0-1.6-0.1-2.1-0.3c-0.5-0.2-0.8-0.6-1-1.1
					c-0.2-0.5-0.2-1.2-0.2-2V99.5h-2v-2.2h2v-4h3v4h2.4v2.2h-2.4v16c0,0.4,0,0.7,0.1,0.8s0.3,0.3,0.7,0.3s0.9,0.1,1.6,0.1v2.4H473.1
					z M481.9,119.2c-0.9,0-1.6-0.1-2.1-0.3c-0.5-0.2-0.8-0.6-1-1.1c-0.2-0.5-0.2-1.2-0.2-2V99.5h-2v-2.2h2v-4h3v4h2.4v2.2h-2.4v16
					c0,0.4,0,0.7,0.1,0.8s0.3,0.3,0.7,0.3s0.9,0.1,1.6,0.1v2.4H481.9z M491.3,119.3c-1,0-1.9-0.2-2.5-0.5c-0.6-0.4-1.1-0.9-1.5-1.6
					c-0.3-0.7-0.6-1.5-0.7-2.4c-0.1-0.9-0.2-2-0.2-3.1v-7.8c0-1,0.1-2,0.2-2.8c0.1-0.9,0.4-1.6,0.8-2.2c0.4-0.6,0.9-1.1,1.5-1.5
					c0.6-0.3,1.5-0.5,2.5-0.5s1.8,0.2,2.4,0.5s1.1,0.8,1.4,1.5c0.3,0.6,0.5,1.4,0.6,2.3c0.1,0.9,0.2,1.8,0.2,2.9v4.1h-6.6v4.4
					c0,1.4,0.1,2.4,0.3,3.2c0.2,0.7,0.7,1.1,1.6,1.1c0.6,0,1-0.2,1.2-0.5c0.2-0.3,0.4-0.8,0.4-1.5c0.1-0.6,0.1-1.4,0.1-2.2v-1.8h2.9
					v0.9c0,1.1,0,2.2-0.1,3.1c-0.1,0.9-0.3,1.7-0.6,2.4c-0.3,0.7-0.8,1.2-1.4,1.5C493.2,119.2,492.3,119.3,491.3,119.3L491.3,119.3z
					 M489.4,106.1h3.6v-2.8c0-0.9,0-1.6-0.1-2.2c-0.1-0.6-0.2-1.1-0.4-1.4c-0.2-0.3-0.6-0.5-1.1-0.5c-0.6,0-1,0.2-1.3,0.5
					c-0.3,0.3-0.5,0.8-0.5,1.5c-0.1,0.6-0.1,1.3-0.1,2.2V106.1L489.4,106.1z M503.2,119.3c-0.6,0-1.3-0.2-1.8-0.5s-1-0.8-1.4-1.6
					c-0.3-0.7-0.5-1.7-0.5-2.8V97.1h3v17.1c0,0.8,0.1,1.5,0.5,1.9c0.3,0.4,0.8,0.7,1.4,0.7c0.7,0,1.3-0.2,1.6-0.8
					c0.4-0.5,0.5-1.2,0.5-1.9v-17h3v22h-3v-2.2c-0.2,0.7-0.6,1.3-1.2,1.8C504.8,119.1,504.1,119.4,503.2,119.3L503.2,119.3z
					 M513.8,119.1v-22h3v2.4c0.2-0.8,0.7-1.5,1.3-2c0.6-0.5,1.4-0.7,2.4-0.7c0,0,0,0.1,0,0.4c0,0.2,0,0.6,0,0.9v1.3
					c-0.5,0-0.9,0.1-1.4,0.2c-0.5,0.1-0.9,0.3-1.3,0.6c-0.4,0.3-0.8,0.6-1,1.1v17.9L513.8,119.1L513.8,119.1z M523.5,119.1v-2.9h2.6
					v2.9H523.5z M528,119.1v-2.9h2.6v2.9H528z M532.4,119.1v-2.9h2.6v2.9H532.4z"/>
				<path class="st10" d="M140,47.1c-0.4,0-0.7-0.1-0.9-0.4s-0.4-0.6-0.4-1V13.4c0-0.4,0.1-0.7,0.4-0.9c0.3-0.3,0.6-0.4,0.9-0.4
					h16.6c3.2,0,5.8,0.4,7.9,1.2c2,0.8,3.5,1.9,4.5,3.5c1,1.5,1.5,3.5,1.5,5.8c0,1.1-0.2,2-0.7,2.9c-0.4,0.8-1,1.5-1.6,2.1
					c-0.6,0.6-1.2,1-1.7,1.2c1.3,0.5,2.4,1.5,3.3,2.8c1,1.3,1.4,2.8,1.4,4.5c0,2.5-0.6,4.6-1.6,6.2c-1.1,1.6-2.7,2.8-4.8,3.6
					c-2.1,0.8-4.6,1.2-7.6,1.2H140L140,47.1z M151.1,38.5h4.6c0.8,0,1.4-0.3,1.8-0.8c0.4-0.6,0.6-1.1,0.6-1.7c0-0.6-0.2-1.2-0.6-1.7
					c-0.4-0.5-0.9-0.8-1.7-0.8h-4.6V38.5z M151.1,25.2h4.2c0.7,0,1.2-0.2,1.6-0.7c0.3-0.5,0.5-1,0.5-1.5s-0.2-1-0.5-1.5
					c-0.3-0.5-0.8-0.8-1.6-0.8h-4.2V25.2z M176.7,47.1c-0.4,0-0.7-0.1-0.9-0.4s-0.4-0.6-0.4-1V13.4c0-0.4,0.1-0.7,0.4-0.9
					c0.3-0.3,0.6-0.4,0.9-0.4h14.8c4.8,0,8.6,1.1,11.2,3.2s4.1,5.1,4.1,8.9c0,2.2-0.5,4.2-1.6,5.9c-1,1.6-2.3,2.9-3.9,3.9l6.1,11.4
					c0.1,0.2,0.1,0.4,0.1,0.5c0,0.3-0.1,0.6-0.4,0.8c-0.2,0.2-0.4,0.3-0.8,0.3h-10.2c-0.7,0-1.2-0.2-1.5-0.5s-0.6-0.6-0.6-0.8
					l-4.3-9.5h-2.1v9.5c0,0.4-0.1,0.7-0.4,1c-0.3,0.3-0.6,0.4-0.9,0.4H176.7L176.7,47.1z M187.9,26.7h3.6c0.8,0,1.3-0.2,1.7-0.8
					c0.4-0.5,0.6-1.1,0.6-1.8s-0.2-1.3-0.6-1.9c-0.3-0.6-0.9-0.9-1.8-0.9h-3.6C187.9,21.4,187.9,26.7,187.9,26.7z M209.8,47.1
					c-0.3,0-0.6-0.1-0.8-0.3c-0.2-0.2-0.3-0.5-0.3-0.8c0-0.1,0-0.2,0.1-0.3l11.1-31.9c0.1-0.4,0.3-0.7,0.7-1.1
					c0.4-0.4,0.9-0.6,1.6-0.6H233c0.7,0,1.2,0.2,1.6,0.6c0.4,0.4,0.6,0.7,0.7,1.1l11.1,31.9c0,0.1,0.1,0.2,0.1,0.3
					c0,0.3-0.1,0.6-0.4,0.8c-0.2,0.2-0.4,0.3-0.8,0.3h-9.2c-0.6,0-1.1-0.1-1.4-0.4c-0.3-0.3-0.4-0.6-0.6-0.8l-1.2-3.3h-10.8
					l-1.2,3.3c-0.1,0.3-0.3,0.5-0.6,0.8c-0.3,0.3-0.7,0.4-1.4,0.4H209.8z M224.7,32.8h5.6l-2.9-9.3L224.7,32.8L224.7,32.8z
					 M255.9,47.1c-0.7,0-1.2-0.2-1.6-0.5c-0.4-0.4-0.6-0.7-0.7-1.1l-9.4-31.9c0-0.1-0.1-0.2-0.1-0.4c0-0.3,0.1-0.6,0.3-0.8
					c0.2-0.2,0.5-0.4,0.8-0.4h9.3c0.7,0,1.2,0.2,1.6,0.6c0.4,0.4,0.6,0.7,0.7,1.1l4.8,18.6l4.8-18.6c0.1-0.4,0.3-0.7,0.7-1.1
					c0.4-0.4,0.9-0.6,1.5-0.6h9.3c0.3,0,0.5,0.1,0.8,0.4c0.2,0.2,0.4,0.4,0.4,0.8c0,0.1,0,0.2,0,0.4l-9.4,31.9
					c-0.1,0.4-0.3,0.7-0.7,1.1c-0.4,0.4-0.9,0.5-1.5,0.5H255.9L255.9,47.1z M297.1,47.6c-3.3,0-6.1-0.5-8.6-1.5
					c-2.4-1-4.4-2.5-5.8-4.5c-1.4-2-2.2-4.5-2.3-7.5c0-1.4,0-2.8,0-4.4s0-3,0-4.4c0.1-2.9,0.9-5.4,2.3-7.5s3.3-3.6,5.8-4.6
					s5.3-1.6,8.6-1.6s6.1,0.5,8.6,1.6s4.4,2.6,5.8,4.6c1.4,2,2.2,4.5,2.3,7.5c0.1,1.4,0.1,2.9,0.1,4.5s0,3-0.1,4.3
					c-0.1,3-0.9,5.5-2.4,7.5c-1.4,2-3.3,3.5-5.8,4.5C303.2,47.1,300.4,47.6,297.1,47.6z M297.1,37.8c1.1,0,2-0.3,2.6-1
					c0.7-0.7,1-1.7,1-3.1c0.1-1.4,0.1-2.9,0.1-4.2s0-2.8-0.1-4.1c0-0.9-0.2-1.7-0.5-2.3c-0.3-0.6-0.7-1-1.2-1.3
					c-0.5-0.3-1.2-0.5-1.9-0.5s-1.3,0.1-1.9,0.5c-0.5,0.3-1,0.7-1.3,1.3c-0.3,0.6-0.5,1.4-0.5,2.3c0,1.4,0,2.8,0,4.1s0,2.8,0,4.2
					c0.1,1.4,0.4,2.4,1,3.1C295.1,37.5,296,37.8,297.1,37.8z M328.9,33.7c-0.4,0-0.7-0.1-1-0.4c-0.3-0.3-0.4-0.6-0.4-1V13.4
					c0-0.4,0.1-0.7,0.4-0.9c0.3-0.3,0.6-0.4,1-0.4h8.7c0.4,0,0.7,0.1,1,0.4c0.3,0.3,0.4,0.6,0.4,0.9v18.9c0,0.4-0.1,0.7-0.4,1
					s-0.6,0.4-1,0.4C337.6,33.7,328.9,33.7,328.9,33.7z M328.9,47.1c-0.4,0-0.7-0.1-1-0.4c-0.3-0.3-0.4-0.6-0.4-1V37
					c0-0.4,0.1-0.7,0.4-1s0.6-0.4,1-0.4h8.7c0.4,0,0.7,0.1,1,0.4c0.3,0.3,0.4,0.6,0.4,1v8.7c0,0.4-0.1,0.7-0.4,1s-0.6,0.4-1,0.4
					H328.9z"/>
			</g>
		</g>
	</g>
</g>
</svg>
