<?xml version="1.0" encoding="UTF-8"?><svg id="Calque_2" xmlns="http://www.w3.org/2000/svg" xmlns:xlink="http://www.w3.org/1999/xlink" viewBox="0 0 600 600"><defs><style>.cls-1{fill:none;}.cls-2{clip-path:url(#clippath);}.cls-3{fill:#000030;}.cls-4{fill:#ede7df;}.cls-5{fill:#fff;}.cls-6{fill:#f5a425;}.cls-7{fill:#ec5039;}.cls-8{fill:#8c2b3d;}.cls-9{fill:#b82025;}.cls-10{fill:#db6a27;}.cls-11{fill:#42130d;}.cls-12{clip-path:url(#clippath-1);}</style><clipPath id="clippath"><rect class="cls-1" width="600" height="600"/></clipPath><clipPath id="clippath-1"><rect class="cls-1" x="166.96" y="249.04" width="197" height="1389"/></clipPath></defs><g id="DESOLE_0_point"><g id="desole"><g class="cls-2"><rect class="cls-3" width="600" height="600"/><rect class="cls-7" x="8.96" y="10.04" width="85" height="685"/><rect class="cls-7" x="135.96" y="140.04" width="85" height="685"/><g class="cls-12"><path class="cls-8" d="m279.33,498.92h-53.07c-5.59,0-10.11,4.49-10.11,10.04v40.05c0,5.54,4.53,10.04,10.11,10.04h53.07v-60.13h0Z"/><path class="cls-11" d="m332.39,498.92h-53.07v60.13h53.07c5.59,0,10.11-4.49,10.11-10.04v-40.05c0-5.54-4.53-10.04-10.11-10.04h0Z"/><path class="cls-10" d="m340.03,520.77h-61.38v1117.26h61.38c5.42,0,9.82-3.01,9.82-6.72V527.5c0-3.71-4.4-6.72-9.82-6.72h0Z"/><path class="cls-6" d="m217.27,520.78c-5.42,0-9.82,3.01-9.82,6.72v1103.82c0,3.71,4.4,6.72,9.82,6.72h61.38V520.78h-61.38Z"/><path class="cls-9" d="m342.51,553.51c0,5.38-4.4,9.74-9.82,9.74s-9.82-4.36-9.82-9.74,4.4-9.74,9.82-9.74,9.82,4.36,9.82,9.74Z"/><path class="cls-9" d="m342.39,607.99c.87-5.31-2.77-10.32-8.12-11.18-5.35-.86-10.4,2.74-11.27,8.06-.87,5.31,2.77,10.32,8.12,11.18,5.35.86,10.4-2.74,11.27-8.06Z"/><path class="cls-9" d="m342.51,579.96c0,5.38-4.4,9.74-9.82,9.74s-9.82-4.36-9.82-9.74,4.4-9.74,9.82-9.74,9.82,4.36,9.82,9.74Z"/><path class="cls-5" d="m360.41,291.55c-2.15-17.6-34.4-11.46-31.44,5.33,1.61,17.33,7.52,36.8-5.65,51.19,0-20.8,11.02-45.33-4.57-63.19-9.94-11.46-18.27-24.53-29.29-34.66-8.23-3.63-18.11,1.58-23,9.15-3.73,5.77-4.57,12.92.42,18.57,5.64,7.33,11.56,14.38,17.35,21.46.79.97,1.58,1.95,2.37,2.92,1.41,1.74,2.82,3.47,4.2,5.22-.34,2.53-.68,5.03-1.01,7.52-.18,1.38-.37,2.76-.54,4.13-.51,4.01-1,8.01-1.4,12.08-6.99-14.4-6.45-34.13-19.62-44.53-4.17-.42-8.34-.64-12.51-.75-.54-.01-1.07-.03-1.61-.04-11.51-.21-23.02.48-34.54.71-2.32.05-4.65.08-6.97.08-20.69-1.33-19.08,35.2,0,35.73,5.2.13,10.4.01,15.63-.11,5.85-.14,11.73-.3,17.69-.16,1.88,5.87,3.76,11.73,5.65,17.6-6.94-5.93-13.24-17.98-23.25-17.17-1.24.1-2.53.38-3.89.91-16.13,9.33-30.63,21.6-45.96,32.53-7.27,4.77-6.88,12.9-2.87,19.37,4.29,6.91,12.7,11.92,20.34,8.89,9.94-5.33,18.81-12.26,28.22-18.39,11.56,13.06,22.31,27.2,27.95,43.46.27,3.1-.18,5.93-1.16,8.48-4.84,12.58-22.96,17.77-34.59,9.12-13.12-3.31-12.04-17.02-16.27-27.11-1.23-2.93-2.9-5.57-5.5-7.55-8.73-5.6-19.85-1.69-24.9,5.89-2.88,4.32-3.8,9.82-1.17,15.44.21,3.19.68,6.27,1.35,9.23,1.3,5.7,3.4,11,6.12,15.96,10.28,18.76,29.29,32.72,46.54,45.46,1.02.58,2.07,1.15,3.13,1.71.49.46.98.93,1.46,1.39l1.69,3.62c1.1,1.96,3.1,3.23,5.33,3.45.22.02.44.04.67.04h79.44c7.36,0,13.83-3.84,17.47-9.62,1.39-4.12,2.39-8.44,3.12-12.81,1.12-6.72,1.62-13.56,1.99-20.04,0-1.8.03-3.6.06-5.41,7.29-28.9,4.57-60.93,19.21-88.19,13.44-20.27,5.91-44.53,4.3-66.93h0Z"/></g><path class="cls-5" d="m287.2,235.02c-.66.32-1.35.36-2.06.11-.71-.25-1.23-.7-1.55-1.36l-28.18-58.13c-.32-.66-.36-1.35-.11-2.06.25-.71.7-1.23,1.36-1.55l27.26-13.22c5.46-2.65,10.59-4.14,15.4-4.46,4.83-.42,9.16.48,12.98,2.71,3.85,2.13,6.98,5.69,9.4,10.67s3.25,9.61,2.51,13.9c-.71,4.2-2.74,8.03-6.09,11.51-3.32,3.39-7.71,6.41-13.17,9.05l-6.3,3.05,8.33,17.19c.32.66.36,1.35.11,2.06-.25.71-.7,1.23-1.36,1.55l-18.54,8.99Zm2.94-46.21l6.3-3.05c.96-.47,1.71-1.28,2.27-2.43.52-1.22.36-2.69-.48-4.43-.55-1.14-1.4-2.13-2.56-2.98-1.09-.88-2.45-.93-4.07-.14l-6.3,3.05,4.84,9.99Z"/><path class="cls-5" d="m362.28,267.35c-6.53-.23-12.22-1.43-17.08-3.6-4.79-2.17-8.55-5.3-11.28-9.4-2.65-4.16-4.01-9.21-4.07-15.15.03-2.73.1-5.63.21-8.7.11-3.07.24-6.03.41-8.89.47-5.85,2.18-10.76,5.12-14.73,2.94-3.97,6.91-6.93,11.92-8.89,5.01-1.96,10.77-2.82,17.3-2.59,6.53.23,12.22,1.5,17.08,3.8,4.86,2.31,8.61,5.54,11.27,9.7,2.72,4.16,4.08,9.18,4.07,15.05.03,2.87,0,5.84-.11,8.9s-.28,5.96-.51,8.69c-.48,5.92-2.22,10.86-5.22,14.83-2.94,3.9-6.91,6.76-11.91,8.59-4.93,1.83-10.67,2.63-17.2,2.4Zm.68-19.49c2.2.08,3.99-.49,5.36-1.71,1.38-1.29,2.15-3.33,2.32-6.12.23-2.86.4-5.69.5-8.49.1-2.8.13-5.57.09-8.3,0-1.87-.31-3.41-.94-4.64-.56-1.22-1.36-2.12-2.41-2.69-1.05-.64-2.3-.98-3.77-1.03-1.4-.05-2.68.21-3.83.77-1.08.49-1.98,1.33-2.69,2.51-.64,1.18-1.03,2.7-1.16,4.56-.16,2.73-.29,5.49-.39,8.29-.1,2.8-.16,5.63-.2,8.5.04,2.8.66,4.89,1.88,6.27,1.29,1.31,3.03,2.01,5.23,2.09Z"/><path class="cls-5" d="m405.34,204.97c-.54.1-1.04-.01-1.51-.33-.46-.32-.75-.75-.85-1.29l-8.7-47.66c-.1-.54.01-1.04.33-1.51.32-.47.75-.75,1.29-.85l15.05-2.75c.54-.1,1.04.01,1.51.33.46.32.75.75.85,1.29l8.7,47.66c.1.54-.01,1.04-.33,1.51-.32.47-.75.75-1.29.85l-15.05,2.75Z"/><path class="cls-5" d="m438,220.48c-.55-.05-1-.3-1.36-.74-.36-.44-.51-.93-.46-1.48l4.77-48.22c.05-.55.3-1,.74-1.36.44-.36.93-.51,1.48-.46l11.79,1.17c1,.1,1.69.39,2.1.89.4.49.67.87.79,1.13l10.57,21.92,2.01-20.38c.05-.55.3-1,.74-1.36.44-.36.93-.51,1.48-.46l13.51,1.33c.55.05,1,.3,1.36.74.36.44.51.93.46,1.48l-4.76,48.21c-.05.55-.3,1-.74,1.36-.44.36-.93.51-1.48.46l-11.79-1.16c-.99-.1-1.69-.39-2.1-.89-.4-.54-.66-.92-.79-1.13l-10.73-20.28-1.85,18.73c-.05.55-.3,1-.74,1.36-.44.36-.93.51-1.48.46l-13.51-1.34Z"/><path class="cls-5" d="m512.01,195.03c-.55.05-1.04-.1-1.48-.46-.44-.36-.68-.81-.74-1.36l-3.33-34.19-12.39,1.21c-.55.05-1.04-.1-1.48-.46-.44-.36-.68-.81-.74-1.36l-1.17-12.02c-.05-.55.1-1.04.46-1.48.36-.44.81-.68,1.36-.74l43.74-4.27c.55-.05,1.04.1,1.48.46.44.36.68.81.74,1.36l1.17,12.02c.05.55-.1,1.04-.46,1.48-.36.44-.81.68-1.36.74l-12.39,1.21,3.33,34.19c.05.55-.1,1.04-.46,1.48-.36.44-.81.68-1.36.74l-14.93,1.46Z"/><path class="cls-4" d="m138.07,119.04v-25.78h3.03v23.28h4.76v2.5h-7.79Zm14.74.26c-1.05,0-1.9-.18-2.55-.54-.63-.37-1.12-.89-1.45-1.57-.33-.67-.56-1.48-.67-2.42-.11-.95-.16-1.99-.16-3.13v-7.76c0-1.03.07-1.98.22-2.84.15-.87.4-1.62.76-2.24.36-.63.86-1.12,1.51-1.46.64-.35,1.46-.53,2.46-.53s1.82.18,2.43.53c.61.35,1.08.85,1.39,1.49.32.63.54,1.4.65,2.28.11.88.16,1.85.16,2.9v4.14h-6.56v4.38c0,1.39.09,2.45.28,3.18.2.72.72,1.08,1.57,1.08.56,0,.95-.17,1.19-.51.24-.35.39-.84.44-1.47.06-.63.09-1.38.09-2.24v-1.77h2.94v.94c0,1.14-.05,2.18-.15,3.11-.09.93-.28,1.72-.59,2.39-.3.66-.77,1.18-1.41,1.54-.62.35-1.48.53-2.55.53Zm-1.83-13.18h3.57v-2.8c0-.88-.03-1.62-.09-2.21-.06-.61-.2-1.06-.43-1.36-.22-.31-.6-.47-1.11-.47-.58,0-1.01.18-1.29.53-.27.35-.45.84-.54,1.46-.08.62-.12,1.33-.12,2.15v2.69Zm17.45,12.92v-25.78h5.18c1.03,0,1.86.17,2.49.51.64.34,1.14.83,1.48,1.48.34.64.57,1.42.69,2.33.13.91.19,1.93.19,3.06v.4c0,1.73-.14,3.18-.41,4.35-.26,1.17-.75,2.06-1.45,2.65-.69.59-1.69.88-2.99.88h-2.15v10.12h-3.03Zm3.03-12.64h1.85c.6,0,1.04-.17,1.35-.5.3-.34.51-.9.62-1.68.12-.78.18-1.84.18-3.18v-.5c0-1.66-.13-2.89-.38-3.68-.25-.8-.82-1.2-1.68-1.2h-1.92v10.74Zm13.37,12.83c-1.33,0-2.29-.51-2.87-1.54-.59-1.04-.88-2.47-.89-4.29v-2.14c0-.97.17-1.77.5-2.4.33-.64.8-1.18,1.41-1.61.6-.43,1.32-.82,2.14-1.16.82-.35,1.72-.72,2.7-1.11v-1.7c0-.94-.03-1.69-.09-2.27-.06-.59-.21-1.02-.45-1.29-.24-.27-.61-.41-1.14-.41s-.91.14-1.17.41c-.25.27-.42.7-.5,1.29-.08.59-.12,1.35-.12,2.28v.76h-2.99v-.63c0-.94.06-1.81.18-2.61.12-.81.34-1.51.67-2.11.33-.6.82-1.06,1.45-1.39.64-.34,1.49-.51,2.53-.51s1.8.16,2.4.48c.61.31,1.08.78,1.41,1.39.33.62.56,1.38.67,2.29.12.9.18,1.94.18,3.12v14.96h-3.02v-1.9c-.09.29-.26.6-.51.94-.25.32-.59.6-1,.82-.41.22-.9.34-1.48.34Zm.85-2.43c.53,0,.98-.17,1.36-.5.38-.34.64-.68.76-1.01v-8.36c-.75.33-1.37.64-1.86.91-.48.26-.85.54-1.13.83-.26.29-.45.64-.56,1.06-.11.41-.16.93-.16,1.55v2.04c0,1.24.11,2.13.32,2.68.21.54.63.81,1.26.81Zm8.47,5.92v-2.27h1.04c.43,0,.8-.02,1.11-.07.32-.04.52-.13.59-.28.12-.16.16-.41.13-.75-.02-.33-.06-.69-.12-1.08l-3.59-21.2h2.92l1.58,11.43.64,5.95h.26l.57-5.95,1.44-11.43h2.9l-3.65,22.4c-.12.79-.26,1.43-.44,1.9-.18.48-.45.82-.82,1.02-.36.22-.9.32-1.63.32h-2.94Zm16.23-3.38c-1.56,0-2.75-.49-3.56-1.46-.81-.99-1.21-2.62-1.21-4.89v-1.66h2.91v1.64c0,1.23.13,2.17.4,2.83.27.65.72.98,1.33.98s1.07-.2,1.35-.6c.29-.4.44-1.12.44-2.15,0-.52-.08-1.03-.23-1.54-.16-.52-.4-1.03-.72-1.52-.32-.51-.74-1-1.25-1.48l-1.55-1.48c-.93-.89-1.63-1.83-2.12-2.83-.49-1.01-.73-2.07-.73-3.19,0-1.78.42-3.08,1.26-3.91.84-.84,2-1.26,3.47-1.26.99,0,1.82.21,2.49.64.67.43,1.18,1.14,1.52,2.14.34,1,.51,2.35.51,4.07v1.06h-2.86v-1.52c0-1.23-.12-2.17-.37-2.83-.23-.65-.66-.98-1.27-.98s-1.04.18-1.35.53c-.29.34-.45.97-.48,1.89-.01.47.05.94.17,1.42.14.48.36.95.66,1.42.3.47.69.93,1.17,1.38l1.58,1.48c1.03.95,1.8,1.97,2.32,3.06.53,1.08.79,2.23.79,3.44,0,1.66-.38,2.96-1.14,3.91-.75.95-1.93,1.42-3.53,1.42Zm14.88-.29v-25.78h2.29l5.98,17.55-.31-7.46v-10.09h2.68v25.78h-2.23l-5.79-17.69.18,6.5v11.19h-2.8Zm15.89-16.07l1.35-6.2h-2.15v-3.52h4.53v3.38l-1.83,6.33h-1.89Zm12.17,16.33c-1.05,0-1.9-.18-2.55-.54-.63-.37-1.12-.89-1.45-1.57-.33-.67-.56-1.48-.67-2.42-.11-.95-.16-1.99-.16-3.13v-7.76c0-1.03.07-1.98.22-2.84.15-.87.4-1.62.76-2.24.36-.63.86-1.12,1.51-1.46.64-.35,1.46-.53,2.46-.53s1.82.18,2.43.53c.61.35,1.08.85,1.39,1.49.32.63.54,1.4.64,2.28.11.88.16,1.85.16,2.9v4.14h-6.56v4.38c0,1.39.09,2.45.28,3.18.2.72.72,1.08,1.57,1.08.56,0,.95-.17,1.19-.51.24-.35.39-.84.44-1.47.06-.63.09-1.38.09-2.24v-1.77h2.94v.94c0,1.14-.05,2.18-.15,3.11-.09.93-.28,1.72-.59,2.39-.3.66-.77,1.18-1.41,1.54-.62.35-1.47.53-2.55.53Zm-1.83-13.18h3.57v-2.8c0-.88-.03-1.62-.09-2.21-.06-.61-.2-1.06-.43-1.36-.22-.31-.6-.47-1.11-.47-.58,0-1,.18-1.29.53-.27.35-.45.84-.54,1.46-.08.62-.12,1.33-.12,2.15v2.69Zm-.15-11.1l1.38-5.43h3.09l-2.84,5.43h-1.63Zm14.22,24.16c-.94,0-1.65-.11-2.12-.34-.48-.22-.8-.59-.97-1.08s-.25-1.16-.25-1.98v-16.3h-2.01v-2.23h2.01v-3.98h3v3.98h2.37v2.23h-2.37v16.04c0,.37.05.65.15.83.1.18.32.29.66.35.34.06.87.09,1.6.09v2.39h-2.07Zm8.17.06c-1.33,0-2.29-.51-2.87-1.54-.59-1.04-.88-2.47-.89-4.29v-2.14c0-.97.17-1.77.5-2.4.33-.64.8-1.18,1.41-1.61.61-.43,1.32-.82,2.14-1.16.82-.35,1.72-.72,2.69-1.11v-1.7c0-.94-.03-1.69-.09-2.27-.06-.59-.21-1.02-.45-1.29-.23-.27-.61-.41-1.14-.41s-.91.14-1.17.41c-.25.27-.42.7-.5,1.29s-.12,1.35-.12,2.28v.76h-2.99v-.63c0-.94.06-1.81.18-2.61.12-.81.34-1.51.67-2.11.33-.6.82-1.06,1.45-1.39.64-.34,1.49-.51,2.53-.51s1.8.16,2.4.48c.62.31,1.08.78,1.41,1.39.33.62.56,1.38.67,2.29.12.9.18,1.94.18,3.12v14.96h-3.02v-1.9c-.09.29-.26.6-.51.94-.25.32-.59.6-1,.82-.41.22-.9.34-1.48.34Zm.85-2.43c.53,0,.98-.17,1.36-.5.38-.34.64-.68.76-1.01v-8.36c-.75.33-1.37.64-1.86.91-.48.26-.85.54-1.13.83-.26.29-.45.64-.56,1.06-.11.41-.16.93-.16,1.55v2.04c0,1.24.11,2.13.32,2.68.22.54.64.81,1.26.81Zm9.13,2.24v-21.97h3.02v21.97h-3.02Zm0-23.99v-2.75h3.02v2.75h-3.02Zm11.18,24.13c-.94,0-1.65-.11-2.12-.34-.48-.22-.8-.59-.97-1.08-.17-.5-.25-1.16-.25-1.98v-16.3h-2.01v-2.23h2.01v-3.98h3v3.98h2.37v2.23h-2.37v16.04c0,.37.05.65.15.83.1.18.32.29.66.35.34.06.87.09,1.6.09v2.39h-2.07Zm12.1-.13v-25.78h5.19c1.02,0,1.85.17,2.49.51.64.34,1.14.83,1.48,1.48.34.64.57,1.42.69,2.33.13.91.19,1.93.19,3.06v.4c0,1.73-.14,3.18-.41,4.35-.26,1.17-.75,2.06-1.45,2.65-.69.59-1.69.88-2.99.88h-2.15v10.12h-3.03Zm3.03-12.64h1.85c.6,0,1.05-.17,1.35-.5.3-.34.51-.9.62-1.68.12-.78.18-1.84.18-3.18v-.5c0-1.66-.13-2.89-.38-3.68-.25-.8-.82-1.2-1.68-1.2h-1.92v10.74Zm13.37,12.83c-1.33,0-2.29-.51-2.87-1.54-.59-1.04-.88-2.47-.89-4.29v-2.14c0-.97.17-1.77.5-2.4.33-.64.8-1.18,1.41-1.61.61-.43,1.32-.82,2.14-1.16.82-.35,1.72-.72,2.7-1.11v-1.7c0-.94-.03-1.69-.09-2.27-.06-.59-.21-1.02-.45-1.29-.23-.27-.61-.41-1.14-.41s-.91.14-1.17.41c-.25.27-.42.7-.5,1.29-.08.59-.12,1.35-.12,2.28v.76h-2.99v-.63c0-.94.06-1.81.18-2.61.12-.81.34-1.51.67-2.11.33-.6.82-1.06,1.45-1.39.64-.34,1.49-.51,2.53-.51s1.8.16,2.4.48c.62.31,1.08.78,1.41,1.39.33.62.56,1.38.67,2.29.12.9.18,1.94.18,3.12v14.96h-3.02v-1.9c-.09.29-.26.6-.51.94-.25.32-.59.6-1,.82-.41.22-.9.34-1.48.34Zm.85-2.43c.53,0,.98-.17,1.36-.5.38-.34.63-.68.76-1.01v-8.36c-.75.33-1.37.64-1.86.91-.48.26-.85.54-1.13.83-.26.29-.45.64-.56,1.06-.11.41-.16.93-.16,1.55v2.04c0,1.24.11,2.13.32,2.68.21.54.63.81,1.26.81Zm13.18,2.53c-1.56,0-2.75-.49-3.56-1.46-.81-.99-1.22-2.62-1.22-4.89v-1.66h2.92v1.64c0,1.23.13,2.17.4,2.83.27.65.72.98,1.33.98s1.06-.2,1.35-.6c.29-.4.44-1.12.44-2.15,0-.52-.08-1.03-.23-1.54-.16-.52-.4-1.03-.72-1.52-.32-.51-.74-1-1.24-1.48l-1.55-1.48c-.93-.89-1.64-1.83-2.12-2.83-.49-1.01-.73-2.07-.73-3.19,0-1.78.42-3.08,1.26-3.91.84-.84,2-1.26,3.47-1.26.99,0,1.82.21,2.49.64.67.43,1.18,1.14,1.52,2.14.34,1,.51,2.35.51,4.07v1.06h-2.86v-1.52c0-1.23-.12-2.17-.37-2.83-.23-.65-.66-.98-1.27-.98s-1.04.18-1.35.53c-.29.34-.46.97-.48,1.89-.01.47.05.94.18,1.42.14.48.36.95.66,1.42.3.47.69.93,1.17,1.38l1.58,1.48c1.02.95,1.8,1.97,2.31,3.06.53,1.08.79,2.23.79,3.44,0,1.66-.38,2.96-1.14,3.91-.75.95-1.93,1.42-3.53,1.42Zm14.88-.29v-25.78h3.03v23.28h4.76v2.5h-7.79Zm14.81.26c-1.04,0-1.88-.18-2.52-.53-.64-.36-1.14-.87-1.49-1.52-.34-.66-.58-1.45-.7-2.37-.13-.93-.19-1.96-.19-3.11v-7.78c0-1.38.13-2.61.39-3.69.26-1.08.75-1.94,1.45-2.56.71-.62,1.73-.94,3.06-.94,1,0,1.81.18,2.45.54.63.35,1.13.85,1.48,1.51.35.64.59,1.41.72,2.29.14.87.2,1.82.2,2.86v7.78c0,1.12-.06,2.14-.18,3.06s-.35,1.71-.69,2.39c-.33.66-.82,1.18-1.46,1.54-.64.36-1.48.54-2.52.54Zm0-2.5c.53,0,.92-.18,1.17-.53.26-.35.44-.84.53-1.46.09-.63.13-1.37.13-2.2v-9.21c0-.82-.04-1.53-.13-2.14-.09-.62-.26-1.09-.53-1.44-.26-.34-.65-.51-1.17-.51-.55,0-.96.17-1.23.51-.27.34-.46.82-.54,1.44-.08.6-.12,1.32-.12,2.14v9.21c0,.83.04,1.56.12,2.2.09.62.27,1.11.54,1.46.27.35.68.53,1.23.53Zm8.85,2.24v-21.97h3.02v21.97h-3.02Zm0-23.99v-2.75h3.02v2.75h-3.02Zm7.29,23.99v-21.97h3v2.33c.2-.68.61-1.29,1.25-1.82.64-.53,1.41-.79,2.3-.79,1.1,0,1.96.39,2.58,1.17.61.78.92,1.97.92,3.56v17.52h-3v-17.5c0-.78-.18-1.35-.53-1.7-.35-.35-.8-.53-1.35-.53-.4,0-.77.09-1.1.26-.33.18-.6.45-.79.82-.19.37-.28.85-.28,1.44v17.21h-3Zm14.59,0v-2.9h2.56v2.9h-2.56Zm4.42,0v-2.9h2.56v2.9h-2.56Zm4.44,0v-2.9h2.56v2.9h-2.56Z"/><path class="cls-7" d="m140.06,47.04c-.37,0-.68-.13-.95-.4-.27-.27-.4-.58-.4-.95V13.39c0-.37.13-.68.4-.95.27-.27.58-.4.95-.4h14.4c3.13,0,5.93.53,8.4,1.6,2.47,1.03,4.43,2.57,5.9,4.6,1.5,2.03,2.3,4.55,2.4,7.55.07,1.43.1,2.7.1,3.8s-.03,2.28-.1,3.65c-.13,3.13-.9,5.73-2.3,7.8-1.4,2.03-3.32,3.55-5.75,4.55-2.4.97-5.2,1.45-8.4,1.45h-14.65Zm11.15-9.75h3.25c.73,0,1.38-.13,1.95-.4.6-.3,1.08-.75,1.45-1.35.37-.6.57-1.37.6-2.3.07-.97.1-1.83.1-2.6.03-.77.03-1.53,0-2.3,0-.8-.03-1.65-.1-2.55-.07-1.4-.52-2.42-1.35-3.05-.8-.63-1.77-.95-2.9-.95h-3v15.5Zm25.86,9.75c-.37,0-.68-.13-.95-.4-.27-.27-.4-.58-.4-.95V13.39c0-.37.13-.68.4-.95.27-.27.58-.4.95-.4h25.65c.37,0,.68.13.95.4.27.27.4.58.4.95v7.05c0,.37-.13.68-.4.95-.27.27-.58.4-.95.4h-15v3.15h13.9c.37,0,.68.13.95.4.27.27.4.58.4.95v6.5c0,.37-.13.68-.4.95-.27.27-.58.4-.95.4h-13.9v3.15h15.4c.37,0,.68.13.95.4.27.27.4.58.4.95v7.05c0,.37-.13.68-.4.95-.27.27-.58.4-.95.4h-26.05Zm7.95-37.5c-.53,0-.8-.27-.8-.8,0-.27.08-.48.25-.65l5-6.1c.37-.43.67-.7.9-.8.27-.1.58-.15.95-.15h9.8c.63,0,.95.33.95,1,0,.23-.08.43-.25.6l-7.35,6.05c-.27.23-.55.43-.85.6-.3.17-.72.25-1.25.25h-7.35Zm38.65,38c-3.7,0-6.75-.5-9.15-1.5-2.4-1-4.2-2.32-5.4-3.95s-1.83-3.37-1.9-5.2c0-.3.1-.55.3-.75.23-.23.5-.35.8-.35h9.5c.53,0,.93.08,1.2.25.3.13.62.33.95.6.33.23.67.45,1,.65.37.17.77.3,1.2.4.47.07.97.1,1.5.1,1.13,0,2.03-.12,2.7-.35.7-.27,1.05-.62,1.05-1.05,0-.4-.2-.73-.6-1-.37-.27-1.02-.5-1.95-.7-.93-.23-2.23-.45-3.9-.65-2.63-.37-4.92-.98-6.85-1.85-1.93-.87-3.43-2.05-4.5-3.55-1.03-1.53-1.55-3.4-1.55-5.6s.63-4.27,1.9-6c1.3-1.73,3.08-3.08,5.35-4.05,2.3-.97,4.97-1.45,8-1.45,2.5,0,4.72.33,6.65,1,1.93.63,3.57,1.48,4.9,2.55,1.33,1.03,2.35,2.15,3.05,3.35.7,1.2,1.07,2.35,1.1,3.45,0,.3-.12.57-.35.8-.2.2-.43.3-.7.3h-10c-.47,0-.85-.07-1.15-.2-.27-.13-.55-.33-.85-.6-.17-.17-.48-.35-.95-.55-.43-.23-1-.35-1.7-.35-.83,0-1.45.13-1.85.4-.37.23-.55.57-.55,1,0,.3.15.58.45.85s.85.5,1.65.7c.8.2,1.95.4,3.45.6,3.33.4,6,1.05,8,1.95,2.03.87,3.5,2.03,4.4,3.5.93,1.47,1.4,3.28,1.4,5.45,0,2.43-.73,4.53-2.2,6.3-1.43,1.77-3.4,3.13-5.9,4.1-2.5.93-5.33,1.4-8.5,1.4Zm36.06,0c-3.27,0-6.13-.5-8.6-1.5-2.43-1-4.37-2.5-5.8-4.5-1.4-2.03-2.17-4.53-2.3-7.5-.03-1.37-.05-2.82-.05-4.35s.02-3.02.05-4.45c.13-2.93.9-5.42,2.3-7.45s3.33-3.58,5.8-4.65c2.47-1.07,5.33-1.6,8.6-1.6s6.13.53,8.6,1.6c2.47,1.07,4.4,2.62,5.8,4.65,1.43,2.03,2.2,4.52,2.3,7.45.07,1.43.1,2.92.1,4.45s-.03,2.98-.1,4.35c-.13,2.97-.92,5.47-2.35,7.5-1.4,2-3.33,3.5-5.8,4.5-2.43,1-5.28,1.5-8.55,1.5Zm0-9.75c1.1,0,1.98-.32,2.65-.95.67-.67,1.02-1.7,1.05-3.1.07-1.43.1-2.85.1-4.25s-.03-2.78-.1-4.15c-.03-.93-.22-1.7-.55-2.3-.3-.6-.72-1.03-1.25-1.3-.53-.3-1.17-.45-1.9-.45s-1.33.15-1.9.45c-.53.27-.97.7-1.3,1.3-.3.6-.47,1.37-.5,2.3-.03,1.37-.05,2.75-.05,4.15s.02,2.82.05,4.25c.07,1.4.42,2.43,1.05,3.1.67.63,1.55.95,2.65.95Zm22.66,9.25c-.37,0-.68-.13-.95-.4-.27-.27-.4-.58-.4-.95V13.39c0-.37.13-.68.4-.95.27-.27.58-.4.95-.4h10c.37,0,.68.13.95.4.27.27.4.58.4.95v23.4h13.85c.37,0,.68.13.95.4.27.27.4.58.4.95v7.55c0,.37-.13.68-.4.95-.27.27-.58.4-.95.4h-25.2Zm31.3,0c-.37,0-.68-.13-.95-.4-.27-.27-.4-.58-.4-.95V13.39c0-.37.13-.68.4-.95.27-.27.58-.4.95-.4h25.65c.37,0,.68.13.95.4.27.27.4.58.4.95v7.05c0,.37-.13.68-.4.95-.27.27-.58.4-.95.4h-15v3.15h13.9c.37,0,.68.13.95.4.27.27.4.58.4.95v6.5c0,.37-.13.68-.4.95-.27.27-.58.4-.95.4h-13.9v3.15h15.4c.37,0,.68.13.95.4.27.27.4.58.4.95v7.05c0,.37-.13.68-.4.95-.27.27-.58.4-.95.4h-26.05Zm7.95-37.5c-.53,0-.8-.27-.8-.8,0-.27.08-.48.25-.65l5-6.1c.37-.43.67-.7.9-.8.27-.1.58-.15.95-.15h9.8c.63,0,.95.33.95,1,0,.23-.08.43-.25.6l-7.35,6.05c-.27.23-.55.43-.85.6-.3.17-.72.25-1.25.25h-7.35Zm34.48,24.1c-.37,0-.68-.13-.95-.4-.27-.27-.4-.58-.4-.95V13.39c0-.37.13-.68.4-.95.27-.27.58-.4.95-.4h8.7c.37,0,.68.13.95.4.27.27.4.58.4.95v18.9c0,.37-.13.68-.4.95-.27.27-.58.4-.95.4h-8.7Zm0,13.4c-.37,0-.68-.13-.95-.4-.27-.27-.4-.58-.4-.95v-8.7c0-.37.13-.68.4-.95.27-.27.58-.4.95-.4h8.7c.37,0,.68.13.95.4.27.27.4.58.4.95v8.7c0,.37-.13.68-.4.95-.27.27-.58.4-.95.4h-8.7Z"/></g></g></g></svg>