<?xml version="1.0" encoding="utf-8"?>
<!-- Generator: Adobe Illustrator 27.4.1, SVG Export Plug-In . SVG Version: 6.00 Build 0)  -->
<svg version="1.1" id="Calque_2_00000105409427861770631750000000587737222354458259_"
	 xmlns="http://www.w3.org/2000/svg" xmlns:xlink="http://www.w3.org/1999/xlink" x="0px" y="0px" viewBox="0 0 600 600"
	 style="enable-background:new 0 0 600 600;" xml:space="preserve">
<style type="text/css">
	.st0{clip-path:url(#SVGID_00000150065127849891982110000002423270968230609287_);}
	.st1{fill:#000030;}
	.st2{fill:#EC5039;}
	.st3{clip-path:url(#SVGID_00000142881981432935055790000018385731529948416185_);}
	.st4{fill:#8C2B3D;}
	.st5{fill:#42130D;}
	.st6{fill:#DB6A27;}
	.st7{fill:#F5A425;}
	.st8{fill:#B82025;}
	.st9{fill:#FFFFFF;}
	.st10{display:none;fill:#EDE7DF;}
	.st11{display:none;fill:#EC5039;}
</style>
<g id="DESOLE_0_point">
	<g id="desole">
		<g>
			<defs>
				<rect id="SVGID_1_" width="600" height="600"/>
			</defs>
			<clipPath id="SVGID_00000116914309791373484610000016649823203118036898_">
				<use xlink:href="#SVGID_1_"  style="overflow:visible;"/>
			</clipPath>
			<g style="clip-path:url(#SVGID_00000116914309791373484610000016649823203118036898_);">
				<rect class="st1" width="600" height="600"/>
				<rect x="9" y="10" class="st2" width="85" height="685"/>
				<rect x="136" y="140" class="st2" width="85" height="685"/>
				<g>
					<defs>
						<rect id="SVGID_00000001628888765562241620000011392936464448008358_" x="167" y="249" width="197" height="1389"/>
					</defs>
					<clipPath id="SVGID_00000133525979317548981250000018136507955837575310_">
						<use xlink:href="#SVGID_00000001628888765562241620000011392936464448008358_"  style="overflow:visible;"/>
					</clipPath>
					<g style="clip-path:url(#SVGID_00000133525979317548981250000018136507955837575310_);">
						<path class="st4" d="M279.3,498.9h-53.1c-5.6,0-10.1,4.5-10.1,10v40c0,5.5,4.5,10,10.1,10h53.1V498.9L279.3,498.9L279.3,498.9
							z"/>
						<path class="st5" d="M332.4,498.9h-53.1V559h53.1c5.6,0,10.1-4.5,10.1-10v-40C342.5,503.4,338,498.9,332.4,498.9L332.4,498.9z
							"/>
						<path class="st6" d="M340,520.8h-61.4V1638H340c5.4,0,9.8-3,9.8-6.7V527.5C349.9,523.8,345.5,520.8,340,520.8L340,520.8
							L340,520.8z"/>
						<path class="st7" d="M217.3,520.8c-5.4,0-9.8,3-9.8,6.7v1103.8c0,3.7,4.4,6.7,9.8,6.7h61.4V520.8H217.3L217.3,520.8z"/>
						<path class="st8" d="M342.5,553.5c0,5.4-4.4,9.7-9.8,9.7s-9.8-4.4-9.8-9.7s4.4-9.7,9.8-9.7S342.5,548.1,342.5,553.5z"/>
						<path class="st8" d="M342.4,608c0.9-5.3-2.8-10.3-8.1-11.2s-10.4,2.7-11.3,8.1c-0.9,5.3,2.8,10.3,8.1,11.2
							S341.5,613.3,342.4,608z"/>
						<path class="st8" d="M342.5,580c0,5.4-4.4,9.7-9.8,9.7s-9.8-4.4-9.8-9.7s4.4-9.7,9.8-9.7S342.5,574.6,342.5,580z"/>
						<path class="st9" d="M360.4,291.5c-2.1-17.6-34.4-11.5-31.4,5.3c1.6,17.3,7.5,36.8-5.6,51.2c0-20.8,11-45.3-4.6-63.2
							c-9.9-11.5-18.3-24.5-29.3-34.7c-8.2-3.6-18.1,1.6-23,9.1c-3.7,5.8-4.6,12.9,0.4,18.6c5.6,7.3,11.6,14.4,17.4,21.5
							c0.8,1,1.6,2,2.4,2.9c1.4,1.7,2.8,3.5,4.2,5.2c-0.3,2.5-0.7,5-1,7.5c-0.2,1.4-0.4,2.8-0.5,4.1c-0.5,4-1,8-1.4,12.1
							c-7-14.4-6.5-34.1-19.6-44.5c-4.2-0.4-8.3-0.6-12.5-0.8c-0.5,0-1.1,0-1.6,0c-11.5-0.2-23,0.5-34.5,0.7c-2.3,0-4.6,0.1-7,0.1
							c-20.7-1.3-19.1,35.2,0,35.7c5.2,0.1,10.4,0,15.6-0.1c5.9-0.1,11.7-0.3,17.7-0.2c1.9,5.9,3.8,11.7,5.6,17.6
							c-6.9-5.9-13.2-18-23.2-17.2c-1.2,0.1-2.5,0.4-3.9,0.9c-16.1,9.3-30.6,21.6-46,32.5c-7.3,4.8-6.9,12.9-2.9,19.4
							c4.3,6.9,12.7,11.9,20.3,8.9c9.9-5.3,18.8-12.3,28.2-18.4c11.6,13.1,22.3,27.2,27.9,43.5c0.3,3.1-0.2,5.9-1.2,8.5
							c-4.8,12.6-23,17.8-34.6,9.1c-13.1-3.3-12-17-16.3-27.1c-1.2-2.9-2.9-5.6-5.5-7.5c-8.7-5.6-19.9-1.7-24.9,5.9
							c-2.9,4.3-3.8,9.8-1.2,15.4c0.2,3.2,0.7,6.3,1.4,9.2c1.3,5.7,3.4,11,6.1,16c10.3,18.8,29.3,32.7,46.5,45.5
							c1,0.6,2.1,1.1,3.1,1.7c0.5,0.5,1,0.9,1.5,1.4l1.7,3.6c1.1,2,3.1,3.2,5.3,3.5c0.2,0,0.4,0,0.7,0h79.4c7.4,0,13.8-3.8,17.5-9.6
							c1.4-4.1,2.4-8.4,3.1-12.8c1.1-6.7,1.6-13.6,2-20c0-1.8,0-3.6,0.1-5.4c7.3-28.9,4.6-60.9,19.2-88.2
							C369.5,338.2,362,313.9,360.4,291.5L360.4,291.5L360.4,291.5z"/>
					</g>
				</g>
				<path class="st9" d="M287.2,235c-0.7,0.3-1.4,0.4-2.1,0.1s-1.2-0.7-1.5-1.4l-28.2-58.1c-0.3-0.7-0.4-1.4-0.1-2.1
					c0.2-0.7,0.7-1.2,1.4-1.6l27.3-13.2c5.5-2.6,10.6-4.1,15.4-4.5c4.8-0.4,9.2,0.5,13,2.7c3.9,2.1,7,5.7,9.4,10.7s3.2,9.6,2.5,13.9
					c-0.7,4.2-2.7,8-6.1,11.5c-3.3,3.4-7.7,6.4-13.2,9.1l-6.3,3.1l8.3,17.2c0.3,0.7,0.4,1.4,0.1,2.1c-0.2,0.7-0.7,1.2-1.4,1.6
					L287.2,235L287.2,235z M290.1,188.8l6.3-3.1c1-0.5,1.7-1.3,2.3-2.4c0.5-1.2,0.4-2.7-0.5-4.4c-0.5-1.1-1.4-2.1-2.6-3
					c-1.1-0.9-2.5-0.9-4.1-0.1l-6.3,3.1L290.1,188.8L290.1,188.8z"/>
				<path class="st9" d="M362.3,267.4c-6.5-0.2-12.2-1.4-17.1-3.6c-4.8-2.2-8.5-5.3-11.3-9.4c-2.6-4.2-4-9.2-4.1-15.1
					c0-2.7,0.1-5.6,0.2-8.7c0.1-3.1,0.2-6,0.4-8.9c0.5-5.9,2.2-10.8,5.1-14.7s6.9-6.9,11.9-8.9s10.8-2.8,17.3-2.6
					c6.5,0.2,12.2,1.5,17.1,3.8c4.9,2.3,8.6,5.5,11.3,9.7c2.7,4.2,4.1,9.2,4.1,15.1c0,2.9,0,5.8-0.1,8.9s-0.3,6-0.5,8.7
					c-0.5,5.9-2.2,10.9-5.2,14.8c-2.9,3.9-6.9,6.8-11.9,8.6C374.5,266.8,368.8,267.6,362.3,267.4L362.3,267.4z M363,247.9
					c2.2,0.1,4-0.5,5.4-1.7c1.4-1.3,2.1-3.3,2.3-6.1c0.2-2.9,0.4-5.7,0.5-8.5s0.1-5.6,0.1-8.3c0-1.9-0.3-3.4-0.9-4.6
					c-0.6-1.2-1.4-2.1-2.4-2.7c-1-0.6-2.3-1-3.8-1c-1.4-0.1-2.7,0.2-3.8,0.8c-1.1,0.5-2,1.3-2.7,2.5c-0.6,1.2-1,2.7-1.2,4.6
					c-0.2,2.7-0.3,5.5-0.4,8.3c-0.1,2.8-0.2,5.6-0.2,8.5c0,2.8,0.7,4.9,1.9,6.3C359,247.1,360.7,247.8,363,247.9L363,247.9z"/>
				<path class="st9" d="M405.3,205c-0.5,0.1-1,0-1.5-0.3c-0.5-0.3-0.8-0.8-0.9-1.3l-8.7-47.7c-0.1-0.5,0-1,0.3-1.5
					c0.3-0.5,0.8-0.8,1.3-0.9l15-2.8c0.5-0.1,1,0,1.5,0.3c0.5,0.3,0.8,0.8,0.9,1.3l8.7,47.7c0.1,0.5,0,1-0.3,1.5
					c-0.3,0.5-0.8,0.8-1.3,0.9L405.3,205z"/>
				<path class="st9" d="M438,220.5c-0.5-0.1-1-0.3-1.4-0.7s-0.5-0.9-0.5-1.5L441,170c0-0.6,0.3-1,0.7-1.4s0.9-0.5,1.5-0.5l11.8,1.2
					c1,0.1,1.7,0.4,2.1,0.9c0.4,0.5,0.7,0.9,0.8,1.1l10.6,21.9l2-20.4c0-0.6,0.3-1,0.7-1.4s0.9-0.5,1.5-0.5l13.5,1.3
					c0.5,0.1,1,0.3,1.4,0.7s0.5,0.9,0.5,1.5l-4.8,48.2c0,0.6-0.3,1-0.7,1.4s-0.9,0.5-1.5,0.5l-11.8-1.2c-1-0.1-1.7-0.4-2.1-0.9
					c-0.4-0.5-0.7-0.9-0.8-1.1l-10.7-20.3l-1.9,18.7c0,0.6-0.3,1-0.7,1.4s-0.9,0.5-1.5,0.5L438,220.5L438,220.5z"/>
				<path class="st9" d="M512,195c-0.5,0.1-1-0.1-1.5-0.5s-0.7-0.8-0.7-1.4l-3.3-34.2l-12.4,1.2c-0.5,0.1-1-0.1-1.5-0.5
					s-0.7-0.8-0.7-1.4l-1.2-12c0-0.6,0.1-1,0.5-1.5s0.8-0.7,1.4-0.7l43.7-4.3c0.5-0.1,1,0.1,1.5,0.5s0.7,0.8,0.7,1.4l1.2,12
					c0,0.6-0.1,1-0.5,1.5c-0.4,0.4-0.8,0.7-1.4,0.7l-12.4,1.2l3.3,34.2c0,0.6-0.1,1-0.5,1.5c-0.4,0.4-0.8,0.7-1.4,0.7L512,195
					L512,195z"/>
				<path class="st10" d="M138.1,119V93.3h3v23.3h4.8v2.5H138.1z M152.8,119.3c-1.1,0-1.9-0.2-2.6-0.5c-0.6-0.4-1.1-0.9-1.4-1.6
					c-0.3-0.7-0.6-1.5-0.7-2.4c-0.1-0.9-0.2-2-0.2-3.1v-7.8c0-1,0.1-2,0.2-2.8c0.1-0.9,0.4-1.6,0.8-2.2c0.4-0.6,0.9-1.1,1.5-1.5
					c0.6-0.3,1.5-0.5,2.5-0.5s1.8,0.2,2.4,0.5c0.6,0.3,1.1,0.8,1.4,1.5c0.3,0.6,0.5,1.4,0.6,2.3s0.2,1.8,0.2,2.9v4.1H151v4.4
					c0,1.4,0.1,2.4,0.3,3.2c0.2,0.7,0.7,1.1,1.6,1.1c0.6,0,0.9-0.2,1.2-0.5c0.2-0.3,0.4-0.8,0.4-1.5c0.1-0.6,0.1-1.4,0.1-2.2v-1.8
					h2.9v0.9c0,1.1-0.1,2.2-0.1,3.1c-0.1,0.9-0.3,1.7-0.6,2.4c-0.3,0.7-0.8,1.2-1.4,1.5C154.7,119.1,153.9,119.3,152.8,119.3
					L152.8,119.3z M151,106.1h3.6v-2.8c0-0.9,0-1.6-0.1-2.2c-0.1-0.6-0.2-1.1-0.4-1.4c-0.2-0.3-0.6-0.5-1.1-0.5
					c-0.6,0-1,0.2-1.3,0.5c-0.3,0.3-0.4,0.8-0.5,1.5c-0.1,0.6-0.1,1.3-0.1,2.2L151,106.1L151,106.1z M168.4,119V93.3h5.2
					c1,0,1.9,0.2,2.5,0.5c0.6,0.3,1.1,0.8,1.5,1.5c0.3,0.6,0.6,1.4,0.7,2.3c0.1,0.9,0.2,1.9,0.2,3.1v0.4c0,1.7-0.1,3.2-0.4,4.3
					c-0.3,1.2-0.8,2.1-1.4,2.7c-0.7,0.6-1.7,0.9-3,0.9h-2.1V119C171.5,119,168.4,119,168.4,119z M171.5,106.4h1.9
					c0.6,0,1-0.2,1.4-0.5c0.3-0.3,0.5-0.9,0.6-1.7c0.1-0.8,0.2-1.8,0.2-3.2v-0.5c0-1.7-0.1-2.9-0.4-3.7c-0.2-0.8-0.8-1.2-1.7-1.2
					h-1.9L171.5,106.4L171.5,106.4z M184.8,119.2c-1.3,0-2.3-0.5-2.9-1.5c-0.6-1-0.9-2.5-0.9-4.3v-2.1c0-1,0.2-1.8,0.5-2.4
					c0.3-0.6,0.8-1.2,1.4-1.6c0.6-0.4,1.3-0.8,2.1-1.2c0.8-0.3,1.7-0.7,2.7-1.1v-1.7c0-0.9,0-1.7-0.1-2.3c-0.1-0.6-0.2-1-0.4-1.3
					c-0.2-0.3-0.6-0.4-1.1-0.4s-0.9,0.1-1.2,0.4c-0.2,0.3-0.4,0.7-0.5,1.3c-0.1,0.6-0.1,1.3-0.1,2.3v0.8h-3v-0.6
					c0-0.9,0.1-1.8,0.2-2.6c0.1-0.8,0.3-1.5,0.7-2.1s0.8-1.1,1.4-1.4c0.6-0.3,1.5-0.5,2.5-0.5s1.8,0.2,2.4,0.5
					c0.6,0.3,1.1,0.8,1.4,1.4c0.3,0.6,0.6,1.4,0.7,2.3c0.1,0.9,0.2,1.9,0.2,3.1v15h-3v-1.9c-0.1,0.3-0.3,0.6-0.5,0.9
					c-0.2,0.3-0.6,0.6-1,0.8S185.4,119.2,184.8,119.2L184.8,119.2z M185.7,116.8c0.5,0,1-0.2,1.4-0.5c0.4-0.3,0.6-0.7,0.8-1v-8.4
					c-0.8,0.3-1.4,0.6-1.9,0.9c-0.5,0.3-0.9,0.5-1.1,0.8c-0.3,0.3-0.4,0.6-0.6,1.1c-0.1,0.4-0.2,0.9-0.2,1.6v2
					c0,1.2,0.1,2.1,0.3,2.7C184.6,116.5,185,116.8,185.7,116.8L185.7,116.8z M194.2,122.7v-2.3h1c0.4,0,0.8,0,1.1-0.1
					c0.3,0,0.5-0.1,0.6-0.3c0.1-0.2,0.2-0.4,0.1-0.8c0-0.3-0.1-0.7-0.1-1.1l-3.6-21.2h2.9l1.6,11.4l0.6,5.9h0.3l0.6-5.9l1.4-11.4
					h2.9l-3.6,22.4c-0.1,0.8-0.3,1.4-0.4,1.9c-0.2,0.5-0.4,0.8-0.8,1c-0.4,0.2-0.9,0.3-1.6,0.3L194.2,122.7L194.2,122.7z
					 M210.4,119.3c-1.6,0-2.8-0.5-3.6-1.5c-0.8-1-1.2-2.6-1.2-4.9v-1.7h2.9v1.6c0,1.2,0.1,2.2,0.4,2.8c0.3,0.7,0.7,1,1.3,1
					s1.1-0.2,1.4-0.6c0.3-0.4,0.4-1.1,0.4-2.2c0-0.5-0.1-1-0.2-1.5c-0.2-0.5-0.4-1-0.7-1.5c-0.3-0.5-0.7-1-1.2-1.5l-1.6-1.5
					c-0.9-0.9-1.6-1.8-2.1-2.8c-0.5-1-0.7-2.1-0.7-3.2c0-1.8,0.4-3.1,1.3-3.9c0.8-0.8,2-1.3,3.5-1.3c1,0,1.8,0.2,2.5,0.6
					s1.2,1.1,1.5,2.1c0.3,1,0.5,2.3,0.5,4.1v1.1h-2.9v-1.5c0-1.2-0.1-2.2-0.4-2.8c-0.2-0.7-0.7-1-1.3-1s-1,0.2-1.4,0.5
					c-0.3,0.3-0.4,1-0.5,1.9c0,0.5,0.1,0.9,0.2,1.4c0.1,0.5,0.4,0.9,0.7,1.4s0.7,0.9,1.2,1.4l1.6,1.5c1,0.9,1.8,2,2.3,3.1
					c0.5,1.1,0.8,2.2,0.8,3.4c0,1.7-0.4,3-1.1,3.9C213.2,118.9,212,119.3,210.4,119.3L210.4,119.3z M225.3,119.1V93.3h2.3l6,17.6
					l-0.3-7.5V93.3h2.7v25.8h-2.2l-5.8-17.7l0.2,6.5v11.2H225.3L225.3,119.1z M241.2,103l1.4-6.2h-2.1v-3.5h4.5v3.4l-1.8,6.3
					L241.2,103L241.2,103z M253.3,119.3c-1.1,0-1.9-0.2-2.6-0.5c-0.6-0.4-1.1-0.9-1.4-1.6c-0.3-0.7-0.6-1.5-0.7-2.4
					c-0.1-0.9-0.2-2-0.2-3.1v-7.8c0-1,0.1-2,0.2-2.8c0.1-0.9,0.4-1.6,0.8-2.2c0.4-0.6,0.9-1.1,1.5-1.5c0.6-0.3,1.5-0.5,2.5-0.5
					s1.8,0.2,2.4,0.5s1.1,0.8,1.4,1.5c0.3,0.6,0.5,1.4,0.6,2.3c0.1,0.9,0.2,1.8,0.2,2.9v4.1h-6.6v4.4c0,1.4,0.1,2.4,0.3,3.2
					c0.2,0.7,0.7,1.1,1.6,1.1c0.6,0,0.9-0.2,1.2-0.5c0.2-0.3,0.4-0.8,0.4-1.5c0.1-0.6,0.1-1.4,0.1-2.2v-1.8h2.9v0.9
					c0,1.1,0,2.2-0.1,3.1c-0.1,0.9-0.3,1.7-0.6,2.4c-0.3,0.7-0.8,1.2-1.4,1.5C255.2,119.1,254.4,119.3,253.3,119.3L253.3,119.3z
					 M251.5,106.1h3.6v-2.8c0-0.9,0-1.6-0.1-2.2c-0.1-0.6-0.2-1.1-0.4-1.4c-0.2-0.3-0.6-0.5-1.1-0.5c-0.6,0-1,0.2-1.3,0.5
					c-0.3,0.3-0.4,0.8-0.5,1.5c-0.1,0.6-0.1,1.3-0.1,2.2L251.5,106.1L251.5,106.1z M251.3,95l1.4-5.4h3.1L253,95H251.3z
					 M265.6,119.2c-0.9,0-1.6-0.1-2.1-0.3c-0.5-0.2-0.8-0.6-1-1.1s-0.2-1.2-0.2-2V99.5h-2v-2.2h2v-4h3v4h2.4v2.2h-2.4v16
					c0,0.4,0,0.7,0.1,0.8s0.3,0.3,0.7,0.3s0.9,0.1,1.6,0.1v2.4H265.6z M273.7,119.2c-1.3,0-2.3-0.5-2.9-1.5c-0.6-1-0.9-2.5-0.9-4.3
					v-2.1c0-1,0.2-1.8,0.5-2.4c0.3-0.6,0.8-1.2,1.4-1.6c0.6-0.4,1.3-0.8,2.1-1.2c0.8-0.3,1.7-0.7,2.7-1.1v-1.7c0-0.9,0-1.7-0.1-2.3
					c-0.1-0.6-0.2-1-0.5-1.3c-0.2-0.3-0.6-0.4-1.1-0.4s-0.9,0.1-1.2,0.4c-0.2,0.3-0.4,0.7-0.5,1.3s-0.1,1.3-0.1,2.3v0.8h-3v-0.6
					c0-0.9,0.1-1.8,0.2-2.6c0.1-0.8,0.3-1.5,0.7-2.1c0.3-0.6,0.8-1.1,1.5-1.4c0.6-0.3,1.5-0.5,2.5-0.5s1.8,0.2,2.4,0.5
					c0.6,0.3,1.1,0.8,1.4,1.4c0.3,0.6,0.6,1.4,0.7,2.3c0.1,0.9,0.2,1.9,0.2,3.1v15h-3v-1.9c-0.1,0.3-0.3,0.6-0.5,0.9
					c-0.2,0.3-0.6,0.6-1,0.8S274.3,119.3,273.7,119.2L273.7,119.2z M274.6,116.8c0.5,0,1-0.2,1.4-0.5c0.4-0.3,0.6-0.7,0.8-1v-8.4
					c-0.8,0.3-1.4,0.6-1.9,0.9c-0.5,0.3-0.9,0.5-1.1,0.8c-0.3,0.3-0.5,0.6-0.6,1.1c-0.1,0.4-0.2,0.9-0.2,1.6v2
					c0,1.2,0.1,2.1,0.3,2.7C273.5,116.6,274,116.8,274.6,116.8L274.6,116.8z M283.7,119.1v-22h3v22H283.7z M283.7,95.1v-2.8h3v2.8
					H283.7z M294.9,119.2c-0.9,0-1.6-0.1-2.1-0.3c-0.5-0.2-0.8-0.6-1-1.1c-0.2-0.5-0.2-1.2-0.2-2V99.5h-2v-2.2h2v-4h3v4h2.4v2.2
					h-2.4v16c0,0.4,0,0.7,0.1,0.8s0.3,0.3,0.7,0.3s0.9,0.1,1.6,0.1v2.4H294.9z M307,119.1V93.3h5.2c1,0,1.9,0.2,2.5,0.5
					c0.6,0.3,1.1,0.8,1.5,1.5c0.3,0.6,0.6,1.4,0.7,2.3c0.1,0.9,0.2,1.9,0.2,3.1v0.4c0,1.7-0.1,3.2-0.4,4.3c-0.3,1.2-0.8,2.1-1.5,2.7
					c-0.7,0.6-1.7,0.9-3,0.9H310v10.1L307,119.1L307,119.1z M310,106.4h1.9c0.6,0,1-0.2,1.4-0.5c0.3-0.3,0.5-0.9,0.6-1.7
					c0.1-0.8,0.2-1.8,0.2-3.2v-0.5c0-1.7-0.1-2.9-0.4-3.7c-0.2-0.8-0.8-1.2-1.7-1.2H310L310,106.4L310,106.4z M323.4,119.3
					c-1.3,0-2.3-0.5-2.9-1.5c-0.6-1-0.9-2.5-0.9-4.3v-2.1c0-1,0.2-1.8,0.5-2.4c0.3-0.6,0.8-1.2,1.4-1.6c0.6-0.4,1.3-0.8,2.1-1.2
					c0.8-0.3,1.7-0.7,2.7-1.1v-1.7c0-0.9,0-1.7-0.1-2.3c-0.1-0.6-0.2-1-0.5-1.3c-0.2-0.3-0.6-0.4-1.1-0.4s-0.9,0.1-1.2,0.4
					c-0.2,0.3-0.4,0.7-0.5,1.3c-0.1,0.6-0.1,1.3-0.1,2.3v0.8h-3v-0.6c0-0.9,0.1-1.8,0.2-2.6c0.1-0.8,0.3-1.5,0.7-2.1
					c0.3-0.6,0.8-1.1,1.5-1.4c0.6-0.3,1.5-0.5,2.5-0.5s1.8,0.2,2.4,0.5c0.6,0.3,1.1,0.8,1.4,1.4c0.3,0.6,0.6,1.4,0.7,2.3
					c0.1,0.9,0.2,1.9,0.2,3.1v15h-3v-1.9c-0.1,0.3-0.3,0.6-0.5,0.9c-0.2,0.3-0.6,0.6-1,0.8S324,119.3,323.4,119.3L323.4,119.3z
					 M324.2,116.8c0.5,0,1-0.2,1.4-0.5c0.4-0.3,0.6-0.7,0.8-1V107c-0.8,0.3-1.4,0.6-1.9,0.9c-0.5,0.3-0.9,0.5-1.1,0.8
					c-0.3,0.3-0.5,0.6-0.6,1.1c-0.1,0.4-0.2,0.9-0.2,1.6v2c0,1.2,0.1,2.1,0.3,2.7C323.2,116.6,323.6,116.8,324.2,116.8L324.2,116.8z
					 M337.4,119.4c-1.6,0-2.8-0.5-3.6-1.5c-0.8-1-1.2-2.6-1.2-4.9v-1.7h2.9v1.6c0,1.2,0.1,2.2,0.4,2.8c0.3,0.7,0.7,1,1.3,1
					s1.1-0.2,1.4-0.6s0.4-1.1,0.4-2.2c0-0.5-0.1-1-0.2-1.5c-0.2-0.5-0.4-1-0.7-1.5c-0.3-0.5-0.7-1-1.2-1.5l-1.5-1.5
					c-0.9-0.9-1.6-1.8-2.1-2.8c-0.5-1-0.7-2.1-0.7-3.2c0-1.8,0.4-3.1,1.3-3.9c0.8-0.8,2-1.3,3.5-1.3c1,0,1.8,0.2,2.5,0.6
					c0.7,0.4,1.2,1.1,1.5,2.1s0.5,2.3,0.5,4.1v1.1h-2.9v-1.5c0-1.2-0.1-2.2-0.4-2.8c-0.2-0.7-0.7-1-1.3-1s-1,0.2-1.4,0.5
					c-0.3,0.3-0.5,1-0.5,1.9c0,0.5,0,0.9,0.2,1.4c0.1,0.5,0.4,0.9,0.7,1.4c0.3,0.5,0.7,0.9,1.2,1.4l1.6,1.5c1,0.9,1.8,2,2.3,3.1
					c0.5,1.1,0.8,2.2,0.8,3.4c0,1.7-0.4,3-1.1,3.9C340.2,118.9,339,119.4,337.4,119.4L337.4,119.4z M352.3,119.1V93.3h3v23.3h4.8
					v2.5H352.3z M367.1,119.3c-1,0-1.9-0.2-2.5-0.5c-0.6-0.4-1.1-0.9-1.5-1.5c-0.3-0.7-0.6-1.4-0.7-2.4c-0.1-0.9-0.2-2-0.2-3.1V104
					c0-1.4,0.1-2.6,0.4-3.7s0.8-1.9,1.5-2.6c0.7-0.6,1.7-0.9,3.1-0.9c1,0,1.8,0.2,2.5,0.5c0.6,0.3,1.1,0.8,1.5,1.5
					c0.4,0.6,0.6,1.4,0.7,2.3c0.1,0.9,0.2,1.8,0.2,2.9v7.8c0,1.1-0.1,2.1-0.2,3.1s-0.4,1.7-0.7,2.4c-0.3,0.7-0.8,1.2-1.5,1.5
					C369,119.2,368.2,119.3,367.1,119.3L367.1,119.3z M367.1,116.8c0.5,0,0.9-0.2,1.2-0.5c0.3-0.3,0.4-0.8,0.5-1.5
					c0.1-0.6,0.1-1.4,0.1-2.2v-9.2c0-0.8,0-1.5-0.1-2.1c-0.1-0.6-0.3-1.1-0.5-1.4c-0.3-0.3-0.6-0.5-1.2-0.5c-0.5,0-1,0.2-1.2,0.5
					c-0.3,0.3-0.5,0.8-0.5,1.4c-0.1,0.6-0.1,1.3-0.1,2.1v9.2c0,0.8,0,1.6,0.1,2.2c0.1,0.6,0.3,1.1,0.5,1.5
					C366.1,116.7,366.6,116.8,367.1,116.8z M376,119.1v-22h3v22H376z M376,95.1v-2.8h3v2.8H376z M383.3,119.1v-22h3v2.3
					c0.2-0.7,0.6-1.3,1.2-1.8s1.4-0.8,2.3-0.8c1.1,0,2,0.4,2.6,1.2c0.6,0.8,0.9,2,0.9,3.6v17.5h-3v-17.5c0-0.8-0.2-1.3-0.5-1.7
					s-0.8-0.5-1.4-0.5c-0.4,0-0.8,0.1-1.1,0.3c-0.3,0.2-0.6,0.4-0.8,0.8s-0.3,0.8-0.3,1.4v17.2H383.3L383.3,119.1z M397.8,119.1
					v-2.9h2.6v2.9H397.8z M402.3,119.1v-2.9h2.6v2.9H402.3z M406.7,119.1v-2.9h2.6v2.9H406.7z"/>
				<path class="st11" d="M140.1,47c-0.4,0-0.7-0.1-0.9-0.4s-0.4-0.6-0.4-1V13.4c0-0.4,0.1-0.7,0.4-0.9c0.3-0.3,0.6-0.4,0.9-0.4
					h14.4c3.1,0,5.9,0.5,8.4,1.6c2.5,1,4.4,2.6,5.9,4.6c1.5,2,2.3,4.5,2.4,7.5c0.1,1.4,0.1,2.7,0.1,3.8s0,2.3-0.1,3.7
					c-0.1,3.1-0.9,5.7-2.3,7.8c-1.4,2-3.3,3.5-5.8,4.5c-2.4,1-5.2,1.5-8.4,1.5H140.1L140.1,47z M151.2,37.3h3.2
					c0.7,0,1.4-0.1,1.9-0.4c0.6-0.3,1.1-0.8,1.4-1.3s0.6-1.4,0.6-2.3c0.1-1,0.1-1.8,0.1-2.6c0-0.8,0-1.5,0-2.3c0-0.8,0-1.6-0.1-2.5
					c-0.1-1.4-0.5-2.4-1.4-3c-0.8-0.6-1.8-1-2.9-1h-3V37.3z M177.1,47c-0.4,0-0.7-0.1-0.9-0.4s-0.4-0.6-0.4-1V13.4
					c0-0.4,0.1-0.7,0.4-0.9c0.3-0.3,0.6-0.4,0.9-0.4h25.6c0.4,0,0.7,0.1,0.9,0.4c0.3,0.3,0.4,0.6,0.4,0.9v7.1c0,0.4-0.1,0.7-0.4,1
					c-0.3,0.3-0.6,0.4-0.9,0.4h-15v3.1h13.9c0.4,0,0.7,0.1,0.9,0.4s0.4,0.6,0.4,1v6.5c0,0.4-0.1,0.7-0.4,1c-0.3,0.3-0.6,0.4-0.9,0.4
					h-13.9v3.2h15.4c0.4,0,0.7,0.1,0.9,0.4s0.4,0.6,0.4,1v7c0,0.4-0.1,0.7-0.4,1c-0.3,0.3-0.6,0.4-0.9,0.4L177.1,47L177.1,47z
					 M185,9.5c-0.5,0-0.8-0.3-0.8-0.8c0-0.3,0.1-0.5,0.2-0.6l5-6.1c0.4-0.4,0.7-0.7,0.9-0.8c0.3-0.1,0.6-0.1,0.9-0.1h9.8
					c0.6,0,0.9,0.3,0.9,1c0,0.2-0.1,0.4-0.2,0.6l-7.4,6.1c-0.3,0.2-0.6,0.4-0.9,0.6s-0.7,0.2-1.2,0.2L185,9.5L185,9.5z M223.7,47.5
					c-3.7,0-6.8-0.5-9.1-1.5s-4.2-2.3-5.4-4s-1.8-3.4-1.9-5.2c0-0.3,0.1-0.5,0.3-0.8c0.2-0.2,0.5-0.3,0.8-0.3h9.5
					c0.5,0,0.9,0.1,1.2,0.2c0.3,0.1,0.6,0.3,0.9,0.6c0.3,0.2,0.7,0.5,1,0.7c0.4,0.2,0.8,0.3,1.2,0.4c0.5,0.1,1,0.1,1.5,0.1
					c1.1,0,2-0.1,2.7-0.3c0.7-0.3,1.1-0.6,1.1-1c0-0.4-0.2-0.7-0.6-1c-0.4-0.3-1-0.5-1.9-0.7c-0.9-0.2-2.2-0.5-3.9-0.7
					c-2.6-0.4-4.9-1-6.9-1.8c-1.9-0.9-3.4-2-4.5-3.5c-1-1.5-1.6-3.4-1.6-5.6s0.6-4.3,1.9-6c1.3-1.7,3.1-3.1,5.4-4.1
					c2.3-1,5-1.4,8-1.4c2.5,0,4.7,0.3,6.6,1c1.9,0.6,3.6,1.5,4.9,2.6c1.3,1,2.4,2.2,3.1,3.3c0.7,1.2,1.1,2.4,1.1,3.5
					c0,0.3-0.1,0.6-0.4,0.8c-0.2,0.2-0.4,0.3-0.7,0.3h-10c-0.5,0-0.9-0.1-1.1-0.2c-0.3-0.1-0.6-0.3-0.9-0.6
					c-0.2-0.2-0.5-0.4-0.9-0.5c-0.4-0.2-1-0.4-1.7-0.4c-0.8,0-1.4,0.1-1.9,0.4c-0.4,0.2-0.6,0.6-0.6,1c0,0.3,0.1,0.6,0.4,0.9
					s0.9,0.5,1.6,0.7c0.8,0.2,1.9,0.4,3.4,0.6c3.3,0.4,6,1,8,2c2,0.9,3.5,2,4.4,3.5c0.9,1.5,1.4,3.3,1.4,5.4c0,2.4-0.7,4.5-2.2,6.3
					c-1.4,1.8-3.4,3.1-5.9,4.1C229.7,47.1,226.8,47.5,223.7,47.5L223.7,47.5z M259.7,47.5c-3.3,0-6.1-0.5-8.6-1.5
					c-2.4-1-4.4-2.5-5.8-4.5c-1.4-2-2.2-4.5-2.3-7.5c0-1.4-0.1-2.8-0.1-4.4s0-3,0.1-4.4c0.1-2.9,0.9-5.4,2.3-7.5s3.3-3.6,5.8-4.6
					s5.3-1.6,8.6-1.6s6.1,0.5,8.6,1.6s4.4,2.6,5.8,4.6c1.4,2,2.2,4.5,2.3,7.5c0.1,1.4,0.1,2.9,0.1,4.5s0,3-0.1,4.3
					c-0.1,3-0.9,5.5-2.4,7.5c-1.4,2-3.3,3.5-5.8,4.5C265.8,47,263,47.5,259.7,47.5z M259.7,37.8c1.1,0,2-0.3,2.6-1
					c0.7-0.7,1-1.7,1-3.1c0.1-1.4,0.1-2.9,0.1-4.2s0-2.8-0.1-4.1c0-0.9-0.2-1.7-0.5-2.3c-0.3-0.6-0.7-1-1.2-1.3
					c-0.5-0.3-1.2-0.5-1.9-0.5s-1.3,0.1-1.9,0.5c-0.5,0.3-1,0.7-1.3,1.3c-0.3,0.6-0.5,1.4-0.5,2.3c0,1.4-0.1,2.8-0.1,4.1
					s0,2.8,0.1,4.2c0.1,1.4,0.4,2.4,1,3.1C257.8,37.5,258.6,37.8,259.7,37.8z M282.4,47c-0.4,0-0.7-0.1-1-0.4
					c-0.3-0.3-0.4-0.6-0.4-1V13.4c0-0.4,0.1-0.7,0.4-0.9c0.3-0.3,0.6-0.4,1-0.4h10c0.4,0,0.7,0.1,1,0.4c0.3,0.3,0.4,0.6,0.4,0.9
					v23.4h13.9c0.4,0,0.7,0.1,1,0.4c0.3,0.3,0.4,0.6,0.4,1v7.5c0,0.4-0.1,0.7-0.4,1s-0.6,0.4-1,0.4C307.6,47,282.4,47,282.4,47z
					 M313.7,47c-0.4,0-0.7-0.1-1-0.4c-0.3-0.3-0.4-0.6-0.4-1V13.4c0-0.4,0.1-0.7,0.4-0.9c0.3-0.3,0.6-0.4,1-0.4h25.6
					c0.4,0,0.7,0.1,1,0.4c0.3,0.3,0.4,0.6,0.4,0.9v7.1c0,0.4-0.1,0.7-0.4,1s-0.6,0.4-1,0.4h-15v3.1h13.9c0.4,0,0.7,0.1,1,0.4
					c0.3,0.3,0.4,0.6,0.4,1v6.5c0,0.4-0.1,0.7-0.4,1s-0.6,0.4-1,0.4h-13.9v3.2h15.4c0.4,0,0.7,0.1,1,0.4c0.3,0.3,0.4,0.6,0.4,1v7
					c0,0.4-0.1,0.7-0.4,1s-0.6,0.4-1,0.4C339.7,47,313.7,47,313.7,47z M321.6,9.5c-0.5,0-0.8-0.3-0.8-0.8c0-0.3,0.1-0.5,0.2-0.6
					l5-6.1c0.4-0.4,0.7-0.7,0.9-0.8c0.3-0.1,0.6-0.1,1-0.1h9.8c0.6,0,1,0.3,1,1c0,0.2-0.1,0.4-0.2,0.6l-7.4,6.1
					c-0.3,0.2-0.5,0.4-0.9,0.6c-0.3,0.2-0.7,0.2-1.2,0.2C329,9.5,321.6,9.5,321.6,9.5z M356.1,33.6c-0.4,0-0.7-0.1-1-0.4
					c-0.3-0.3-0.4-0.6-0.4-1V13.4c0-0.4,0.1-0.7,0.4-0.9c0.3-0.3,0.6-0.4,1-0.4h8.7c0.4,0,0.7,0.1,1,0.4c0.3,0.3,0.4,0.6,0.4,0.9
					v18.9c0,0.4-0.1,0.7-0.4,1s-0.6,0.4-1,0.4C364.8,33.6,356.1,33.6,356.1,33.6z M356.1,47c-0.4,0-0.7-0.1-1-0.4
					c-0.3-0.3-0.4-0.6-0.4-1V37c0-0.4,0.1-0.7,0.4-1s0.6-0.4,1-0.4h8.7c0.4,0,0.7,0.1,1,0.4c0.3,0.3,0.4,0.6,0.4,1v8.7
					c0,0.4-0.1,0.7-0.4,1s-0.6,0.4-1,0.4H356.1z"/>
			</g>
		</g>
	</g>
</g>
</svg>
