<?xml version="1.0" encoding="UTF-8"?>
<svg id="Layer_2" data-name="Layer 2" xmlns="http://www.w3.org/2000/svg" viewBox="0 0 264.35 219.43">
  <defs>
    <style>
      .cls-1 {
        fill: #fff;
      }

      .cls-2 {
        fill: #c1dde4;
      }

      .cls-3 {
        fill: none;
        stroke: #fff;
        stroke-miterlimit: 10;
        stroke-width: 2px;
      }
    </style>
  </defs>
  <g id="lapin">
    <path class="cls-2" d="M12.91,146.99c-11.97-.31-12.91-5.72-12.91-11.97S42.83,27.65,49.45,23.19,79.18,1.46,85.99,1.46c4.83,0,23.6,2.9,27.72,3.15s19.87-2.58,25.29-2.49c16.31,1.58,43.45,27.28,55,49.22,11.55,21.94,32.33,84.3,32.33,84.3,0,0,2.6,14.44-10.1,14.44s-31.18-24.54-31.18-24.54l-14.72-45.9s-14.61,9.34-16.17,16.2-7.1,21.9-15.88,21.66-16-1.81-22.98-2.05-13.72,2.17-21.42,1.93-14.08-4.33-18.65-16c-4.57-11.67-18.53-20.34-18.53-20.34,0,0-15.64,47.17-18.17,50.06s-13.62,16.22-25.59,15.91Z"/>
    <ellipse class="cls-1" cx="81.37" cy="51.76" rx="5.96" ry="9.23"/>
    <ellipse class="cls-1" cx="144.41" cy="54.24" rx="5.96" ry="9.23"/>
    <path class="cls-3" d="M13.06,147.32s-7.08-20.12,6.52-36.84c13.6-16.72,25.2-25.49,37.1-29.45,11.9-3.97,12.79-56.77,12.79-56.77,0,0,10.41-15.94,17.21-23.59"/>
    <path class="cls-3" d="M208.08,147.32s7.08-20.12-6.52-36.84c-13.6-16.72-19.34-26.88-31.24-30.85-11.9-3.97-18.66-55.37-18.66-55.37,0,0-10.41-15.94-17.21-23.59"/>
    <polyline class="cls-3" points="113.28 115.44 113.28 104.5 106.16 104.5 121.3 104.5"/>
  </g>
</svg>