<?xml version="1.0" encoding="UTF-8"?>
<svg id="Layer_2" data-name="Layer 2" xmlns="http://www.w3.org/2000/svg" viewBox="0 0 427.41 150.07">
  <defs>
    <style>
      .cls-1 {
        fill: #fff;
      }

      .cls-2 {
        fill: #c1dde4;
      }

      .cls-3 {
        fill: none;
        stroke: #fff;
        stroke-miterlimit: 10;
        stroke-width: 2px;
      }
    </style>
  </defs>
  <g id="lapin">
    <path class="cls-2" d="M99.09,146.99c-11.97-.31-12.91-5.72-12.91-11.97S129,27.65,135.63,23.19,165.35,1.46,172.17,1.46c4.83,0,23.6,2.9,27.72,3.15s19.87-2.58,25.29-2.49c16.31,1.58,43.45,27.28,55,49.22,11.55,21.94,32.33,84.3,32.33,84.3,0,0,2.6,14.44-10.1,14.44s-31.18-24.54-31.18-24.54l-14.72-45.9s-14.61,9.34-16.17,16.2-7.1,21.9-15.88,21.66-16-1.81-22.98-2.05-13.72,2.17-21.42,1.93-14.08-4.33-18.65-16c-4.57-11.67-18.53-20.34-18.53-20.34,0,0-15.64,47.17-18.17,50.06s-13.62,16.22-25.59,15.91Z"/>
    <ellipse class="cls-1" cx="167.55" cy="51.76" rx="5.96" ry="9.23"/>
    <ellipse class="cls-1" cx="230.58" cy="54.24" rx="5.96" ry="9.23"/>
    <path class="cls-3" d="M99.23,147.32s-7.08-20.12,6.52-36.84,25.2-25.49,37.1-29.45c11.9-3.97,12.79-56.77,12.79-56.77,0,0,10.41-15.94,17.21-23.59"/>
    <path class="cls-3" d="M294.25,147.32s7.08-20.12-6.52-36.84c-13.6-16.72-19.34-26.88-31.24-30.85-11.9-3.97-18.66-55.37-18.66-55.37,0,0-10.41-15.94-17.21-23.59"/>
    <polyline class="cls-3" points="199.45 115.44 199.45 104.5 192.33 104.5 207.47 104.5"/>
    <g>
      <path d="M22.7,52.69c-.4,1.57-1.03,2.52-1.9,2.85-.27,.1-.62,.12-1.08,.05-.45-.07-.77-.05-.97,.05l-7.4,3.1c-.23,.1-.47,.38-.72,.85s-.49,.73-.73,.8c-.73,.27-2.28,.02-4.65-.75-2.37-.77-3.8-1.48-4.3-2.15-.37-.53-.48-1.37-.35-2.5,.07-.53,.1-.95,.1-1.25V20.14c-.07-.33-.2-.62-.4-.85-.2-.23-.3-.43-.3-.6,.07-.63,.65-1.1,1.75-1.4,.7-.17,2.22,.08,4.55,.75,2.63,.77,3.97,1.67,4,2.7,0,.27-.18,.67-.55,1.2-.37,.53-.55,.93-.55,1.2v27.65l5.2-2.25c.3-.27,.87-.57,1.7-.9,.47-.07,1.72,.64,3.75,2.12,2.03,1.48,2.98,2.46,2.85,2.92Z"/>
      <path d="M44.5,50.14c.3,.5-.35,1.98-1.95,4.45-1.73,2.63-3.43,4.42-5.1,5.35-.2,.1-.5,.15-.9,.15-1.3,0-3-.4-5.1-1.2-2.23-.8-3.7-1.67-4.4-2.6-1.93-2.5-2.9-5.97-2.9-10.4,0-4.2,.85-7.9,2.55-11.1,1.83-3.5,4.17-5.28,7-5.35,1.03-.03,2.28,.23,3.75,.8,1.8,.7,3.28,1.65,4.45,2.85,.3,.3,.58,1.2,.85,2.7,.33,1.6,.5,3.17,.5,4.7,0,2.27-.37,3.83-1.1,4.7-3.43,1.1-6.93,1.72-10.5,1.85-.07,1.63,.13,3.35,.6,5.15,.47,1.8,.95,2.72,1.45,2.75,.67,.03,1.47-.52,2.4-1.65,.83-.97,1.35-1.78,1.55-2.45,.23-1,.55-2.03,.95-3.1,.53-.07,1.58,.2,3.15,.8,1.57,.6,2.48,1.13,2.75,1.6Zm-8.9-15.3c-.57-.07-1.36,.83-2.38,2.7-1.02,1.87-1.61,3.65-1.77,5.35,1.5-.07,2.7-.43,3.6-1.1,.53-.4,.8-2.07,.8-5,0-1.23-.08-1.88-.25-1.95Z"/>
      <path d="M68.55,19.99c0,.23-.08,.55-.22,.95-.15,.4-.24,.65-.28,.75-.2,.67-.4,1.7-.6,3.1v30.7c0,.4,.1,.76,.3,1.07,.2,.32,.3,.58,.3,.77,0,2.13-.4,3.28-1.2,3.45-.3,.07-1.36-.16-3.17-.67-1.82-.52-2.91-.93-3.28-1.23-.73-.63-1.1-1.22-1.1-1.75,0-.13,.07-.28,.2-.45,.13-.17,.2-.45,.2-.85V20.59c0-.2-.06-.41-.18-.62-.12-.22-.17-.42-.17-.62,.07-.8,.68-1.33,1.85-1.6,.33-.07,1.03-.07,2.1,0,1.23,.1,2.3,.28,3.2,.55,1.37,.4,2.05,.97,2.05,1.7Z"/>
      <path d="M95.45,57.79c-.03,.47-.23,.87-.6,1.2-.37,.33-.78,.47-1.25,.4-4.13-.57-6.43-1.35-6.9-2.35-.07-.13-.1-.27-.1-.4,0-.17,.08-.35,.22-.55,.15-.2,.24-.38,.28-.52,.03-.15,.1-.29,.2-.42,.07-.27,.08-.85,.05-1.75-.4,.3-1,1.1-1.8,2.4-.83,1.43-1.57,2.43-2.2,3-1.07,1-2.28,1.5-3.65,1.5-.8,0-1.58-.32-2.35-.95-.37-.3-1.02-.95-1.95-1.95-1.6-1.8-2.47-2.78-2.6-2.95-.7-.93-1.05-1.82-1.05-2.65,0-.27,.03-.53,.1-.8,.63-2.93,2.6-5.72,5.9-8.35,2.4-1.9,5.8-3.92,10.2-6.05,0-1.07-.27-1.75-.8-2.05-.33-.2-1.5,.17-3.5,1.12s-3.4,1.76-4.2,2.42c-.27,.27-.7,.63-1.3,1.1-.57,.33-1.08,.43-1.55,.3-.37-.1-1.15-.7-2.35-1.8-1.2-1.1-1.85-1.83-1.95-2.2-.27-.9,.02-1.6,.85-2.1,.03-.03,.7-.23,2-.6,1.23-.67,2.47-1.33,3.7-2,2.6-1.23,4.8-1.9,6.6-2,.77-.03,1.63,.37,2.6,1.2,.87,.77,1.74,1.52,2.62,2.27,.88,.75,1.79,1.48,2.72,2.17,1.07,.93,1.6,1.83,1.6,2.7v18.9c.33,.87,.48,1.45,.45,1.75Zm-8-14.6c-1.63,.63-3.03,1.6-4.2,2.9-.87,1.07-1.73,2.12-2.6,3.15-.7,.7-1.36,1.61-1.97,2.72-.62,1.12-.93,1.94-.93,2.48,0,.27,.1,.4,.3,.4,.7,0,2.27-1.51,4.7-4.52,2.43-3.02,4-5.39,4.7-7.12Z"/>
      <path d="M112.35,59.54c-.33,.17-.65,.25-.95,.25-.87,0-2.32-1.02-4.35-3.05v9.65c.03,.27,.18,.74,.45,1.42,.27,.68,.4,1.19,.4,1.52,0,.7-.47,1.05-1.4,1.05-.83,0-2.05-.23-3.65-.7-.97-.3-1.93-.62-2.9-.95-.83-.23-1.32-.75-1.45-1.55-.07-.33,.06-.98,.38-1.95,.32-.97,.48-1.52,.48-1.65V31.04c0-1.1-.08-1.8-.25-2.1-.5-.83-.65-1.42-.45-1.75,.13-.27,.57-.4,1.3-.4s1.92,.15,3.45,.45c1.77,.37,2.72,.55,2.85,.55,.57,.07,1,.47,1.3,1.2,.03,.1,.05,.33,.05,.7,0,1.37-.2,3.4-.6,6.1,.8-1.6,1.6-3.18,2.4-4.75,1.07-2.03,2.05-2.97,2.95-2.8,6.53,1.37,9.8,5.43,9.8,12.2,0,3.83-1.03,7.69-3.08,11.58-2.05,3.88-4.29,6.39-6.72,7.52Zm-1.1-23.25c-1.2-.13-2.55,5.88-4.05,18.05,1.87-.83,3.56-2.67,5.08-5.5,1.52-2.83,2.28-5.47,2.28-7.9,0-2.83-1.1-4.38-3.3-4.65Z"/>
      <path d="M135.3,57.89c.13,1.2-.28,1.95-1.25,2.25-.17,.03-.4,.05-.7,.05-1.2,0-2.68-.25-4.45-.75-1.9-.53-3.02-1.1-3.35-1.7-.17-.27-.02-.78,.45-1.55,.3-.5,.45-1.42,.45-2.75v-21c-.4-1.27-.6-2.12-.6-2.55s.62-.65,1.85-.65c1,0,2.39,.31,4.17,.92,1.78,.62,2.86,1.16,3.22,1.62,.1,.13,.15,.3,.15,.5,0,.27-.19,.77-.58,1.5-.38,.73-.58,1.28-.58,1.65v20.1c0,.33,.19,.75,.58,1.25,.38,.5,.59,.87,.62,1.1Zm.15-34.55c.03,.07,.05,.2,.05,.4,0,.73-.15,1.68-.45,2.85-.33,1.27-.65,1.97-.95,2.1-.33,.13-1.77-.23-4.3-1.07-2.53-.85-3.88-1.46-4.05-1.83-.1-.17-.15-.42-.15-.75,0-.9,.23-1.85,.7-2.85,.53-1.13,1.13-1.77,1.8-1.9,.77-.13,2.1,.16,4,.88,1.9,.72,3.02,1.44,3.35,2.17Z"/>
      <path d="M162.9,55.69c.27,.63,.4,1.27,.4,1.9,0,1-.38,1.68-1.15,2.05-.23,.1-.65,.15-1.25,.15-1.13,0-2.48-.17-4.05-.52-1.57-.35-2.52-.69-2.85-1.02-.17-.2-.25-.42-.25-.65,0-.37,.25-.96,.75-1.77,.5-.82,.75-1.41,.75-1.77,.07-13.13-.03-19.75-.3-19.85-.47-.17-1.62,1.33-3.45,4.5-1.93,3.33-2.9,5.85-2.9,7.55v9.35c.43,.43,.65,.97,.65,1.6,0,1.27-.57,2.13-1.7,2.6-.13,.07-.33,.1-.6,.1-.9,0-2.22-.21-3.95-.62-1.73-.42-2.7-.76-2.9-1.02-.2-.27-.3-.57-.3-.9s.19-.73,.58-1.2c.38-.47,.58-.77,.58-.9V31.99c0-.27-.13-.62-.4-1.05-.27-.43-.35-.8-.25-1.1,.2-.7,.72-1.15,1.55-1.35,.53-.13,1.78,.05,3.75,.55,2.13,.53,3.3,1.08,3.5,1.65,.13,.37,.08,.92-.15,1.65-.37,1.17-.55,1.83-.55,2,0,.37,.07,.77,.2,1.2,.5-1.67,1.2-3.15,2.1-4.45,1.1-1.57,2.2-2.35,3.3-2.35s2.6,.39,4.4,1.17c1.8,.78,2.83,1.49,3.1,2.12,.93,2.13,1.4,10.02,1.4,23.65Z"/>
      <path d="M201.55,20.44c.07,.33-.06,.98-.38,1.95-.32,.97-.47,1.52-.47,1.65V56.64c0,1.1,.08,1.78,.25,2.05,.5,.87,.65,1.45,.45,1.75-.17,.27-.6,.4-1.3,.4-.77,0-1.93-.15-3.5-.45-1.77-.37-2.7-.55-2.8-.55-.6-.07-1.03-.47-1.3-1.2-.03-.07-.05-.28-.05-.65,0-1.37,.18-3.4,.55-6.1-.8,1.6-1.58,3.2-2.35,4.8-1.1,1.97-2.08,2.87-2.95,2.7-6.57-1.33-9.85-5.37-9.85-12.1,0-3.83,1.05-7.73,3.15-11.7,2.03-3.83,4.27-6.33,6.7-7.5,.33-.17,.65-.25,.95-.25,.83,0,2.28,1.03,4.35,3.1v-9.7c-.03-.27-.18-.74-.45-1.43-.27-.68-.4-1.19-.4-1.52,0-.7,.47-1.05,1.4-1.05,.83,0,2.03,.23,3.6,.7,1,.33,1.98,.65,2.95,.95,.83,.23,1.32,.75,1.45,1.55Zm-8.7,12.9c-1.87,.83-3.56,2.67-5.08,5.5-1.52,2.83-2.27,5.47-2.27,7.9,0,2.83,1.1,4.38,3.3,4.65,1.17,.13,2.52-5.88,4.05-18.05Z"/>
      <path d="M222.35,30.24c1.83,.87,3.25,2.62,4.25,5.25,.9,2.4,1.35,5.23,1.35,8.5,0,4.5-.77,8.4-2.3,11.7-1.7,3.53-3.82,5.13-6.35,4.8-.93-.23-2.33-.52-4.2-.85-1.37-.17-2.6-.42-3.7-.75-1.9-.5-3.42-2.12-4.55-4.85-1.03-2.53-1.55-5.5-1.55-8.9s.53-6.55,1.6-9.35c1.2-3.07,2.88-5.22,5.05-6.45,.37-.2,.87-.3,1.5-.3,.67,0,1.98,.22,3.95,.65,1.27,0,2.92,.18,4.95,.55Zm-5.6,4.5c-.9,0-1.73,1.09-2.5,3.27-.77,2.18-1.15,4.27-1.15,6.27,0,2.4,.28,4.77,.85,7.1,.63,2.53,1.37,3.9,2.2,4.1,1.07,.23,2.02-.97,2.85-3.6,.8-2.53,1.2-5.33,1.2-8.4,0-1.7-.22-3.38-.65-5.05-.6-2.47-1.53-3.7-2.8-3.7Z"/>
      <path d="M268.7,55.69c.27,.63,.4,1.27,.4,1.9,0,1-.38,1.68-1.15,2.05-.23,.1-.65,.15-1.25,.15-1.13,0-2.48-.17-4.05-.52-1.57-.35-2.52-.69-2.85-1.02-.17-.2-.25-.42-.25-.65,0-.37,.25-.96,.75-1.77,.5-.82,.75-1.41,.75-1.77,.07-13.13-.03-19.75-.3-19.85-.53-.17-1.62,1.15-3.25,3.95-1.8,3.07-2.7,5.73-2.7,8v9.8c.23,.77,.35,1.37,.35,1.8,0,.83-.43,1.47-1.3,1.9-.23,.1-.65,.15-1.25,.15-1.13,0-2.48-.17-4.05-.52-1.57-.35-2.52-.69-2.85-1.02-.13-.13-.2-.3-.2-.5,0-.33,.24-.93,.72-1.8,.48-.87,.73-1.5,.73-1.9,.07-13.13-.03-19.75-.3-19.85-.47-.17-1.62,1.33-3.45,4.5-1.93,3.33-2.9,5.85-2.9,7.55v9.35c.43,.43,.65,.97,.65,1.6,0,1.27-.57,2.13-1.7,2.6-.13,.07-.33,.1-.6,.1-.9,0-2.22-.21-3.95-.62-1.73-.42-2.7-.76-2.9-1.02-.2-.27-.3-.57-.3-.9s.19-.73,.58-1.2c.38-.47,.58-.77,.58-.9V31.99c0-.27-.13-.62-.4-1.05-.27-.43-.35-.8-.25-1.1,.2-.7,.72-1.15,1.55-1.35,.53-.13,1.78,.05,3.75,.55,2.13,.53,3.3,1.08,3.5,1.65,.13,.37,.08,.92-.15,1.65-.37,1.17-.55,1.83-.55,2,0,.37,.07,.77,.2,1.2,.5-1.67,1.2-3.15,2.1-4.45,1.1-1.57,2.2-2.35,3.3-2.35s2.52,.42,4.35,1.25c1.7,.8,2.75,1.48,3.15,2.05,.3,.4,.63,1.6,1,3.6,1.37-2.53,2.15-3.98,2.35-4.35,1.13-1.7,2.22-2.55,3.25-2.55,1.13,0,2.6,.39,4.4,1.17,1.8,.78,2.83,1.49,3.1,2.12,.93,2.13,1.4,10.02,1.4,23.65Z"/>
      <path d="M293.5,50.14c.3,.5-.35,1.98-1.95,4.45-1.73,2.63-3.43,4.42-5.1,5.35-.2,.1-.5,.15-.9,.15-1.3,0-3-.4-5.1-1.2-2.23-.8-3.7-1.67-4.4-2.6-1.93-2.5-2.9-5.97-2.9-10.4,0-4.2,.85-7.9,2.55-11.1,1.83-3.5,4.17-5.28,7-5.35,1.03-.03,2.28,.23,3.75,.8,1.8,.7,3.28,1.65,4.45,2.85,.3,.3,.58,1.2,.85,2.7,.33,1.6,.5,3.17,.5,4.7,0,2.27-.37,3.83-1.1,4.7-3.43,1.1-6.93,1.72-10.5,1.85-.07,1.63,.13,3.35,.6,5.15,.47,1.8,.95,2.72,1.45,2.75,.67,.03,1.47-.52,2.4-1.65,.83-.97,1.35-1.78,1.55-2.45,.23-1,.55-2.03,.95-3.1,.53-.07,1.58,.2,3.15,.8,1.57,.6,2.48,1.13,2.75,1.6Zm-8.9-15.3c-.57-.07-1.36,.83-2.38,2.7-1.02,1.87-1.61,3.65-1.77,5.35,1.5-.07,2.7-.43,3.6-1.1,.53-.4,.8-2.07,.8-5,0-1.23-.08-1.88-.25-1.95Z"/>
      <path d="M315.94,53.94c0,1.83-.61,3.3-1.83,4.4-1.22,1.1-2.92,1.67-5.12,1.7-.53,0-1.12-.08-1.75-.25-1.13-.3-1.73-.47-1.8-.5-.6-.13-1.21-.27-1.83-.42-.62-.15-1.14-.41-1.58-.78-.73-.67-1.45-1.58-2.15-2.75-.57-.93-1.12-1.88-1.65-2.85s-.8-1.55-.8-1.75c0-.47,.33-.82,1-1.05,.17-.07,.47-.1,.9-.1,1,0,2.26,.11,3.78,.33,1.52,.22,2.34,.4,2.47,.55,.13,.15,.32,1.11,.55,2.88,.2,1.53,.55,2.3,1.05,2.3,.77,0,1.15-1.03,1.15-3.1,0-2.63-.7-4.28-2.1-4.95-3.2-1.5-5.3-2.83-6.3-4-1.23-1.43-1.85-3.6-1.85-6.5,0-1.9,.5-3.69,1.5-5.38,1-1.68,2.18-2.69,3.55-3.02,.6-.13,2.53,.5,5.8,1.9,.3,.1,1.18,.28,2.65,.55,1.03,.2,1.77,.55,2.2,1.05,.63,.77,1,1.98,1.1,3.65,.03,1.23,.05,2.47,.05,3.7,.23,1.13,.35,1.8,.35,2,0,.93-.45,1.47-1.35,1.6-.47,.07-1.38-.12-2.75-.55-1.5-.5-2.45-1.02-2.85-1.55-.1-.13-.2-1.38-.3-3.75-.1-2.23-.33-3.35-.7-3.35-.5,0-.97,.65-1.4,1.95-.43,1.3-.65,2.65-.65,4.05,0,1.77,.38,2.88,1.15,3.35,1.63,.9,3.26,1.81,4.88,2.73,1.62,.92,2.74,1.86,3.38,2.82,.83,1.27,1.25,2.97,1.25,5.1Z"/>
      <path d="M336.19,34.39c-.03,.6-.23,1.13-.6,1.6s-.77,.7-1.2,.7c-.13,0-.25-.02-.35-.05-.47-.17-1.52-.25-3.15-.25v19.75s.11,.23,.32,.8c.22,.57,.33,1.07,.33,1.5,0,.97-.67,1.48-2,1.55-.7,.03-1.98-.27-3.85-.9-2.03-.67-3.12-1.28-3.25-1.85-.07-.23,.05-.73,.35-1.48s.45-1.33,.45-1.73v-17.7h-1.7c-.63,0-1.42-.56-2.35-1.67-.93-1.12-1.4-2.01-1.4-2.67,0-.5,.19-.95,.58-1.35,.38-.4,.81-.6,1.28-.6h3.6v-4.5c-.5-.67-.75-1.38-.75-2.15,0-.7,.3-1.13,.9-1.3,.3-.07,.72-.1,1.25-.1,1.23,0,2.67,.19,4.32,.57,1.65,.38,2.73,.77,3.23,1.18,.23,.2,.35,.43,.35,.7,0,.33-.27,.83-.8,1.5-.53,.67-.82,1.13-.85,1.4v2.7h1.6c.33,0,1.03,.6,2.1,1.8,1.07,1.2,1.6,2.05,1.6,2.55Z"/>
      <path d="M349.19,57.89c.13,1.2-.28,1.95-1.25,2.25-.17,.03-.4,.05-.7,.05-1.2,0-2.68-.25-4.45-.75-1.9-.53-3.02-1.1-3.35-1.7-.17-.27-.02-.78,.45-1.55,.3-.5,.45-1.42,.45-2.75v-21c-.4-1.27-.6-2.12-.6-2.55s.62-.65,1.85-.65c1,0,2.39,.31,4.17,.92,1.78,.62,2.86,1.16,3.22,1.62,.1,.13,.15,.3,.15,.5,0,.27-.19,.77-.58,1.5-.38,.73-.58,1.28-.58,1.65v20.1c0,.33,.19,.75,.58,1.25,.38,.5,.59,.87,.62,1.1Zm.15-34.55c.03,.07,.05,.2,.05,.4,0,.73-.15,1.68-.45,2.85-.33,1.27-.65,1.97-.95,2.1-.33,.13-1.77-.23-4.3-1.07-2.53-.85-3.88-1.46-4.05-1.83-.1-.17-.15-.42-.15-.75,0-.9,.23-1.85,.7-2.85,.53-1.13,1.13-1.77,1.8-1.9,.77-.13,2.1,.16,4,.88,1.9,.72,3.02,1.44,3.35,2.17Z"/>
      <path d="M375.44,30.99c.2,.3,.05,.88-.45,1.75-.17,.3-.25,1-.25,2.1v29.95c0,.1,.14,.42,.42,.95,.28,.53,.43,.97,.43,1.3,0,.67-.48,1.13-1.45,1.4-.13,.03-.33,.05-.6,.05-1,0-2.43-.32-4.3-.95-2.13-.73-3.2-1.48-3.2-2.25,0-.3,.16-.84,.48-1.62,.32-.78,.49-1.31,.52-1.58v-4.55c-2.7,2.67-4.87,3.9-6.5,3.7-1.13-.13-2.35-.7-3.65-1.7-1.43-1-2.5-2.23-3.2-3.7-.77-1.6-1.15-3.58-1.15-5.95,0-3.13,.62-6.52,1.85-10.15,1.2-3.4,2.57-6.07,4.1-8,.27-1.1,.6-1.8,1-2.1,.4-.3,1.15-.47,2.25-.5,.97,0,1.92,.3,2.85,.9,.1,.07,.87,.67,2.3,1.8-.23-1.53-.35-2.17-.35-1.9,0-.8,.43-1.25,1.3-1.35,.77-.07,2.15,.19,4.15,.78,2,.58,3.15,1.12,3.45,1.62Zm-8.55,18.65v-14.5c-.23-.27-.63-.57-1.2-.9-1.1-.2-2.42,2.36-3.97,7.67-1.55,5.32-2.33,9.62-2.33,12.92,0,.7,.05,1.27,.15,1.7,1.27-.5,2.7-1.52,4.3-3.05,1.6-1.53,2.62-2.82,3.05-3.85Z"/>
      <path d="M403.24,30.34c.23,.33,.35,.67,.35,1s-.19,.73-.58,1.2c-.38,.47-.57,.77-.57,.9v23.25c0,.2,.11,.55,.32,1.05s.33,.87,.33,1.1c0,.6-.52,1.03-1.55,1.3-.53,.13-1.78-.05-3.75-.55-2.13-.53-3.3-1.07-3.5-1.6-.17-.43-.12-1.02,.15-1.75,.33-.87,.5-1.47,.5-1.8s-.05-.77-.15-1.3c-.5,1.67-1.2,3.15-2.1,4.45-1.1,1.53-2.2,2.3-3.3,2.3s-2.6-.38-4.4-1.15c-1.8-.77-2.83-1.47-3.1-2.1-.93-2.13-1.4-10.02-1.4-23.65-.27-.63-.4-1.27-.4-1.9,0-1.03,.38-1.73,1.15-2.1,.23-.1,.65-.15,1.25-.15,1.13,0,2.48,.18,4.05,.53,1.57,.35,2.52,.71,2.85,1.07,.17,.2,.25,.42,.25,.65,0,.37-.25,.96-.75,1.78-.5,.82-.75,1.41-.75,1.77-.07,13.13,.03,19.75,.3,19.85,.47,.17,1.64-1.38,3.52-4.62,1.88-3.25,2.83-5.73,2.83-7.43v-9.35c-.43-.43-.65-.97-.65-1.6,0-1.3,.57-2.18,1.7-2.65,.13-.07,.33-.1,.6-.1,.9,0,2.22,.21,3.95,.62,1.73,.42,2.68,.74,2.85,.97Z"/>
      <path d="M427.34,50.14c.3,.5-.35,1.98-1.95,4.45-1.73,2.63-3.43,4.42-5.1,5.35-.2,.1-.5,.15-.9,.15-1.3,0-3-.4-5.1-1.2-2.23-.8-3.7-1.67-4.4-2.6-1.93-2.5-2.9-5.97-2.9-10.4,0-4.2,.85-7.9,2.55-11.1,1.83-3.5,4.17-5.28,7-5.35,1.03-.03,2.28,.23,3.75,.8,1.8,.7,3.28,1.65,4.45,2.85,.3,.3,.58,1.2,.85,2.7,.33,1.6,.5,3.17,.5,4.7,0,2.27-.37,3.83-1.1,4.7-3.43,1.1-6.93,1.72-10.5,1.85-.07,1.63,.13,3.35,.6,5.15,.47,1.8,.95,2.72,1.45,2.75,.67,.03,1.47-.52,2.4-1.65,.83-.97,1.35-1.78,1.55-2.45,.23-1,.55-2.03,.95-3.1,.53-.07,1.58,.2,3.15,.8,1.57,.6,2.48,1.13,2.75,1.6Zm-8.9-15.3c-.57-.07-1.36,.83-2.38,2.7-1.02,1.87-1.61,3.65-1.77,5.35,1.5-.07,2.7-.43,3.6-1.1,.53-.4,.8-2.07,.8-5,0-1.23-.08-1.88-.25-1.95Z"/>
    </g>
    <g>
      <path d="M73.49,92.59c-1.9,4.74-3.8,7.12-5.7,7.14-2.3,.02-3.98-1.17-5.04-3.57-.82-1.84-1.24-4.25-1.26-7.23-.02-3.36,.42-6.42,1.32-9.18,1.04-3.22,2.45-4.93,4.23-5.13,.26-.02,.51-.03,.75-.03,1.66,0,2.94,.74,3.84,2.22,.66,1.12,1.22,2.9,1.68,5.34,.34,.98,.51,1.58,.51,1.8,0,.66-.41,1.17-1.23,1.53-.18,.08-.39,.12-.63,.12-.58,0-1.22-.19-1.92-.57-.82-.44-1.23-.92-1.23-1.44,0-.08,.14-.47,.42-1.17-.04-.88-.2-1.71-.48-2.5-.28-.79-.6-1.22-.96-1.3-.56-.14-1.05,.97-1.47,3.33-.36,1.96-.58,4.12-.66,6.48-.06,1.78,.04,3.43,.3,4.95,.3,1.74,.75,2.67,1.35,2.79,.36,.06,.79-.39,1.29-1.35,.48-.88,.88-1.92,1.2-3.12-.04-.2-.06-.39-.06-.57,0-1.18,.72-1.77,2.16-1.77,.32,0,.64,.03,.96,.09,.98,.2,1.47,.69,1.47,1.47,0,.64-.28,1.2-.84,1.68Z"/>
      <path d="M85.91,83.43c1.34,1.36,2.01,3.65,2.01,6.87,0,2.5-.47,4.63-1.41,6.39-1.06,1.98-2.52,2.97-4.38,2.97s-3.26-.89-4.26-2.67c-.88-1.56-1.32-3.54-1.32-5.94,0-2.12,.34-4.02,1.02-5.7,.72-1.8,1.64-2.86,2.76-3.18,.58-.16,1.18-.24,1.8-.24,1.54,0,2.8,.5,3.78,1.5Zm-3.42,1.44c-.66-.06-1.23,.56-1.71,1.86-.42,1.18-.63,2.42-.63,3.72,0,1.88,.08,3.21,.24,3.99,.28,1.4,.86,2.17,1.74,2.31,.56,.08,1.08-.69,1.56-2.31,.46-1.56,.69-3.23,.69-5.01,0-2.92-.63-4.44-1.89-4.56Z"/>
      <path d="M104,97c-.04,.44-.33,.82-.87,1.12-.54,.31-1.14,.46-1.8,.46-.98,0-1.65-.31-2.01-.93,.16-6.16-.02-9.28-.54-9.36-.5-.08-1.72,2.68-3.66,8.28v1.8c-.02,.72-.21,1.23-.58,1.53s-.76,.45-1.18,.45c-.72,0-1.49-.39-2.31-1.17-.24-.2-.37-1.72-.39-4.56,.02,1.74,.03-1.49,.03-9.69,0-.18-.02-.42-.06-.73-.04-.31-.06-.54-.06-.67,0-.38,.1-.71,.3-.99,.24-.36,.62-.54,1.14-.54s1.1,.17,1.69,.5,.95,.64,1.07,.94c.08,.2,.12,.4,.12,.6s-.08,.48-.24,.84-.24,.66-.24,.9v4.14c1.26-2.68,2.21-4.45,2.85-5.31,1.14-1.48,2.43-2.17,3.87-2.07,.86,.06,1.47,.86,1.83,2.4,.28,1.16,.43,2.88,.45,5.16v5.4c.04,.14,.18,.39,.42,.75,.14,.2,.2,.45,.18,.75Z"/>
      <path d="M119.87,97c-.04,.44-.33,.82-.87,1.12-.54,.31-1.14,.46-1.8,.46-.98,0-1.65-.31-2.01-.93,.16-6.16-.02-9.28-.54-9.36-.5-.08-1.72,2.68-3.66,8.28v1.8c-.02,.72-.21,1.23-.58,1.53s-.76,.45-1.18,.45c-.72,0-1.49-.39-2.31-1.17-.24-.2-.37-1.72-.39-4.56,.02,1.74,.03-1.49,.03-9.69,0-.18-.02-.42-.06-.73-.04-.31-.06-.54-.06-.67,0-.38,.1-.71,.3-.99,.24-.36,.62-.54,1.14-.54s1.1,.17,1.69,.5,.95,.64,1.07,.94c.08,.2,.12,.4,.12,.6s-.08,.48-.24,.84-.24,.66-.24,.9v4.14c1.26-2.68,2.21-4.45,2.85-5.31,1.14-1.48,2.43-2.17,3.87-2.07,.86,.06,1.47,.86,1.83,2.4,.28,1.16,.43,2.88,.45,5.16v5.4c.04,.14,.18,.39,.42,.75,.14,.2,.2,.45,.18,.75Z"/>
      <path d="M135.32,97.66c-.3,.98-1.04,1.47-2.22,1.47-.4,0-.72-.07-.96-.21-.32-.22-.54-.66-.66-1.32-.24-1.14-.48-2.03-.72-2.67-.06,1.1-.66,2.22-1.8,3.35-1.14,1.13-2.29,1.69-3.45,1.69-1.46,0-2.47-.97-3.03-2.91-.2-.72-.3-1.4-.3-2.04,0-1.86,.95-3.45,2.85-4.77,1.56-.92,3.13-1.83,4.71-2.73,.08-.34,.12-.67,.12-.99,0-.62-.17-.99-.51-1.1-.34-.11-.63-.17-.87-.17-.42,0-.76,.14-1.04,.41-.27,.27-.52,.53-.76,.76-.24,.16-.55,.53-.93,1.11-.3,.46-.63,.71-.99,.75-.52,.06-.99-.12-1.41-.54s-.63-.91-.63-1.47c0-.32,.08-.61,.24-.87,.46-.76,1.15-1.42,2.07-1.98,1.4-.84,3.15-1.26,5.25-1.26,1.34,0,2.26,.64,2.76,1.92,.32,.86,.56,2.47,.72,4.83,.18,2.86,.4,4.95,.66,6.27,.04,.26,.21,.59,.51,.99,.3,.4,.45,.75,.45,1.05,0,.14-.02,.28-.06,.42Zm-5.22-7.38c-.6,.32-1.2,.65-1.79,.99-.59,.34-1.14,.79-1.63,1.35-.72,.82-1.08,1.52-1.08,2.1,0,.48,.18,.98,.54,1.5,.2,.28,.42,.42,.66,.42,.52,0,1.08-.58,1.69-1.74s1.14-2.7,1.61-4.62Z"/>
      <path d="M142.52,83.74c0,.28-.16,.71-.47,1.3-.31,.59-.46,1.08-.46,1.46v8.82c0,.4,.11,.96,.33,1.69,.22,.73,.33,1.24,.33,1.52,0,.4-.16,.7-.48,.9-.5,.32-1.04,.48-1.62,.48-.76,0-1.3-.26-1.62-.78-.42-.64-.63-2.55-.63-5.73,0-.76,.01-1.95,.04-3.56,.03-1.61,.04-2.78,.04-3.52,0-.28-.03-.65-.09-1.1-.06-.45-.09-.77-.09-.97,0-.66,.24-1.23,.72-1.71,.2-.2,.57-.3,1.11-.3s1.08,.08,1.62,.25,.89,.37,1.04,.58c.15,.22,.23,.44,.23,.66Zm-.39-7.32c.06,.06,.09,.16,.09,.3,0,.18-.06,.49-.18,.93-.14,.54-.23,.91-.27,1.11-.04,.2-.02,.64,.06,1.32,0,.42-.12,.7-.38,.83s-.57,.19-.95,.19c-.54,0-1.09-.11-1.65-.33-.68-.28-1.02-.65-1.02-1.11,0-.14,.06-.33,.18-.58s.19-.46,.21-.62c.04-.16,.04-.56,0-1.2-.04-.5,.06-.84,.3-1.02,.32-.24,.89-.36,1.71-.36,.9,0,1.53,.18,1.89,.54Z"/>
      <path d="M155.21,85.3c-.16,0-.41-.06-.75-.2-.34-.13-.6-.19-.78-.19-.14,0-.28,.03-.42,.09l-1.11,.57v10.26c0,.38,.21,.87,.62,1.47,.41,.6,.57,1.08,.5,1.44-.1,.44-.4,.79-.88,1.05-.49,.26-1.02,.39-1.58,.39-1.06,0-1.79-.47-2.19-1.41-.12-.28-.19-1.17-.21-2.67-.02-1,0-2.56,.03-4.68,.04-2.4,.06-3.92,.06-4.56-.12,.04-.32,.17-.6,.4-.28,.23-.56,.35-.84,.35-.22,0-.5-.06-.84-.18-1.4-.48-2.1-.97-2.1-1.47,0-.12,.03-.25,.09-.39,.14-.32,.4-.5,.78-.54,.58-.08,.93-.15,1.05-.21,.46-.18,1.3-.61,2.52-1.29v-2.61c0-.2-.06-.46-.17-.79-.11-.33-.17-.58-.17-.74,0-.18,.05-.35,.15-.51,.52-.8,1.22-1.2,2.1-1.2,1.02,0,1.74,.4,2.16,1.2,.16,.32,.24,.58,.24,.78,0,.24-.12,.49-.36,.75s-.36,.5-.36,.72v1.47c.36-.16,.76-.43,1.2-.81,.34-.28,.63-.42,.87-.42,.1,0,.21,.02,.33,.06,1.26,.34,1.89,1.1,1.89,2.28,0,.38-.12,.74-.34,1.08-.23,.34-.53,.51-.88,.51Z"/>
      <path d="M170.18,83.62c-.08,.42-.46,.71-1.14,.87-.8,.2-1.31,.43-1.53,.69l-4.89,5.64v4.56c0,.44,.12,.88,.38,1.33s.38,.79,.38,1.04-.07,.51-.21,.81c-.34,.76-1.03,1.14-2.07,1.14-.72,0-1.29-.23-1.71-.69-.28-.3-.42-.68-.42-1.14,0-.16,.02-.42,.06-.78s.06-.65,.06-.87v-11.22c0-.18-.08-.4-.24-.66-.16-.26-.24-.47-.24-.63,0-.12,.04-.26,.12-.42,.26-.48,1.07-.72,2.43-.72,1.06,0,1.66,.25,1.8,.75,.06,.2,.09,.37,.09,.51,0,.22-.08,.39-.24,.51-.16,.12-.24,.24-.24,.36l.06,1.08,2.58-2.73c.3-.34,.62-.68,.95-1.02s.71-.53,1.16-.57c.68-.06,1.33,.09,1.96,.45,.63,.36,.94,.83,.94,1.41,0,.1,0,.2-.03,.3Z"/>
      <path d="M181.04,95.76c-.16,.76-.7,1.57-1.62,2.43-.14,.22-.69,.51-1.65,.87-1.1,.42-2.05,.6-2.85,.54-1.5-.1-2.68-.96-3.54-2.58-.78-1.5-1.17-3.34-1.17-5.52,0-2.36,.44-4.43,1.32-6.21,.98-1.96,2.29-3.06,3.93-3.3,.32-.04,.63-.06,.93-.06,2.38,0,3.69,1.46,3.93,4.38,.12,1.34-.41,2.8-1.59,4.38-1.28,1.74-2.92,2.96-4.92,3.66,.22,.8,.39,1.32,.51,1.56,.28,.5,.66,.75,1.14,.75s.95-.18,1.47-.54c.44-.3,.74-.59,.9-.87,.08-.04,.16-.26,.24-.67,.08-.41,.29-.71,.63-.88,.12-.06,.26-.09,.42-.09,.48,0,.94,.24,1.39,.7,.45,.47,.62,.96,.53,1.46Zm-4.71-10.56c-.8,0-1.45,.57-1.95,1.71-.66,1.52-.93,3.02-.81,4.5,.94-.3,1.81-1,2.61-2.1s1.2-2.08,1.2-2.94c0-.78-.35-1.17-1.05-1.17Z"/>
      <path d="M198.86,94.9c0,1.4-.5,2.59-1.5,3.58-1,.99-2.18,1.48-3.54,1.48-.86,0-1.75-.41-2.67-1.23-.72-.66-1.37-1.47-1.95-2.43-.5-.84-.72-1.37-.66-1.59,.22-.5,.91-.75,2.07-.75,.48,0,.86,.07,1.14,.21,.48,.26,.75,.59,.81,.99,.06,.46,.16,.75,.3,.87,.42,.64,.8,.96,1.14,.96,.26,0,.5-.17,.74-.53,.23-.35,.34-.76,.34-1.25,0-.3-.05-.6-.15-.9-.1-.3-.64-.76-1.62-1.38-1.18-.74-2.02-1.39-2.52-1.95-.86-.96-1.29-2.08-1.29-3.36,0-1.5,.44-2.81,1.32-3.94,.88-1.13,2-1.7,3.36-1.7s2.47,.53,3.21,1.59c.6,.86,.85,1.73,.75,2.61,.22,.24,.33,.64,.33,1.2,0,.6-.22,1.11-.66,1.53-.44,.42-.89,.63-1.35,.63-.68,0-1.27-.45-1.77-1.35-.14-.24-.21-.56-.21-.96,0-.18,.01-.44,.04-.76,.03-.33,.04-.57,.04-.71,0-.52-.19-.78-.57-.78-.58,0-.87,.57-.87,1.71s.38,2.09,1.14,2.79c.3,.28,.95,.68,1.95,1.2,.86,.44,1.47,.89,1.83,1.35,.54,.7,.81,1.65,.81,2.85Z"/>
      <path d="M210.59,83.43c1.34,1.36,2.01,3.65,2.01,6.87,0,2.5-.47,4.63-1.41,6.39-1.06,1.98-2.52,2.97-4.38,2.97s-3.26-.89-4.26-2.67c-.88-1.56-1.32-3.54-1.32-5.94,0-2.12,.34-4.02,1.02-5.7,.72-1.8,1.64-2.86,2.76-3.18,.58-.16,1.18-.24,1.8-.24,1.54,0,2.8,.5,3.78,1.5Zm-3.42,1.44c-.66-.06-1.23,.56-1.71,1.86-.42,1.18-.63,2.42-.63,3.72,0,1.88,.08,3.21,.24,3.99,.28,1.4,.86,2.17,1.74,2.31,.56,.08,1.08-.69,1.56-2.31,.46-1.56,.69-3.23,.69-5.01,0-2.92-.63-4.44-1.89-4.56Z"/>
      <path d="M228.68,97c-.04,.44-.33,.82-.87,1.12-.54,.31-1.14,.46-1.8,.46-.98,0-1.65-.31-2.01-.93,.16-6.16-.02-9.28-.54-9.36-.5-.08-1.72,2.68-3.66,8.28v1.8c-.02,.72-.21,1.23-.58,1.53s-.76,.45-1.18,.45c-.72,0-1.49-.39-2.31-1.17-.24-.2-.37-1.72-.39-4.56,.02,1.74,.03-1.49,.03-9.69,0-.18-.02-.42-.06-.73-.04-.31-.06-.54-.06-.67,0-.38,.1-.71,.3-.99,.24-.36,.62-.54,1.14-.54s1.1,.17,1.69,.5,.95,.64,1.07,.94c.08,.2,.12,.4,.12,.6s-.08,.48-.24,.84-.24,.66-.24,.9v4.14c1.26-2.68,2.21-4.45,2.85-5.31,1.14-1.48,2.43-2.17,3.87-2.07,.86,.06,1.47,.86,1.83,2.4,.28,1.16,.43,2.88,.45,5.16v5.4c.04,.14,.18,.39,.42,.75,.14,.2,.2,.45,.18,.75Z"/>
      <path d="M247.55,93.93c-.02,.44-.21,.89-.57,1.35-.56,.66-.92,1.16-1.08,1.5-1.26,1.92-2.56,2.88-3.9,2.88-1.58,0-2.81-.8-3.69-2.4-.78-1.46-1.17-3.3-1.17-5.52,0-2.54,.48-4.75,1.44-6.63,1.06-2.08,2.43-3.12,4.11-3.12,1.32,0,2.39,.73,3.21,2.19,.68,1.24,1.02,2.59,1.02,4.05,0,.4-.03,.75-.09,1.05-.14,.68-.71,1.02-1.71,1.02-.78,0-1.38-.22-1.8-.66-.2-.22-.3-.73-.3-1.53,0-.2,0-.49,.03-.87v-.87c0-.9-.16-1.35-.48-1.35-.34,0-.7,.99-1.08,2.96s-.57,3.81-.57,5.53c0,2,.3,3,.9,3,.78,0,1.36-.63,1.74-1.89,.16-.18,.25-.54,.27-1.08,0-.48,.12-.79,.36-.95,.24-.15,.59-.22,1.05-.22,.6,0,1.12,.13,1.56,.39,.52,.3,.77,.69,.75,1.17Z"/>
      <path d="M259.19,83.43c1.34,1.36,2.01,3.65,2.01,6.87,0,2.5-.47,4.63-1.41,6.39-1.06,1.98-2.52,2.97-4.38,2.97s-3.26-.89-4.26-2.67c-.88-1.56-1.32-3.54-1.32-5.94,0-2.12,.34-4.02,1.02-5.7,.72-1.8,1.64-2.86,2.76-3.18,.58-.16,1.18-.24,1.8-.24,1.54,0,2.8,.5,3.78,1.5Zm-3.42,1.44c-.66-.06-1.23,.56-1.71,1.86-.42,1.18-.63,2.42-.63,3.72,0,1.88,.08,3.21,.24,3.99,.28,1.4,.86,2.17,1.74,2.31,.56,.08,1.08-.69,1.56-2.31,.46-1.56,.69-3.23,.69-5.01,0-2.92-.63-4.44-1.89-4.56Z"/>
      <path d="M283.49,98.92c-.26,.74-.85,1.11-1.77,1.11-1.16,0-2.02-.4-2.58-1.2-.3-.44-.45-1.95-.45-4.53v-1.59c.02-.7,.03-1.19,.03-1.47,0-1.4-.07-2.12-.21-2.16-.3-.12-1.32,2.68-3.06,8.4,0,.02-.04,.5-.12,1.44-.04,.58-.24,.97-.6,1.17-.26,.14-.55,.21-.87,.21-.58,0-1.14-.19-1.68-.57s-.88-.83-1.02-1.35c-.2-.74-.29-2.2-.27-4.38,.04-3.18,.06-4.71,.06-4.59-.02-.84-.08-1.27-.18-1.29-.46,.76-.86,1.49-1.2,2.19-.82,1.68-1.29,3.08-1.41,4.2-.1,.24-.11,.71-.03,1.41,.08,.6-.01,1.01-.27,1.23-.26,.22-.61,.33-1.05,.33-.48,0-.96-.13-1.46-.4-.49-.27-.84-.58-1.06-.92-.32-.5-.5-1.96-.54-4.38v-7.08c-.02-.2-.1-.48-.24-.84-.14-.36-.21-.63-.21-.81s.05-.35,.15-.51c.26-.4,.92-.6,1.98-.6,1.3,0,2.08,.32,2.34,.96,.06,.14,.09,.28,.09,.42,0,.18-.09,.44-.29,.78-.19,.34-.28,.62-.28,.84v3.42c.6-1.26,1.39-2.86,2.37-4.8,.12-.26,.24-.52,.35-.78,.11-.26,.27-.49,.5-.69,.22-.2,.59-.3,1.11-.3,.8,0,1.61,.18,2.42,.54,.81,.36,1.22,.79,1.25,1.29,.02,.52-.06,.92-.22,1.18-.17,.27-.25,.5-.25,.67l-.06,6.48c.32-.72,.9-2.42,1.74-5.1,.66-2.04,1.16-3.18,1.5-3.42,.44-.32,1.09-.48,1.95-.48,1.6,0,2.43,.46,2.49,1.38-.02,2.44-.02,6.52,0,12.24,0,.22,.2,.49,.6,.79,.4,.31,.6,.63,.6,.97,0,.16-.04,.35-.12,.57Z"/>
      <path d="M297.29,90.63c0,2.12-.45,4.05-1.35,5.79-1,1.88-2.23,2.82-3.69,2.82-.82,0-1.66-.65-2.52-1.95v3.84c0,.32,.13,.73,.39,1.23,.26,.5,.39,.88,.39,1.14,0,.2-.05,.4-.15,.6-.42,.9-1.24,1.35-2.46,1.35-1,0-1.62-.36-1.86-1.08-.08-.24-.12-.47-.12-.69s.06-.51,.19-.88,.2-.69,.2-.94v-17.07c0-.22-.08-.48-.24-.79-.16-.31-.24-.57-.24-.77,0-.16,.04-.33,.12-.51,.24-.56,.98-.84,2.22-.84,.78,0,1.3,.16,1.56,.48,.1,.12,.15,.27,.15,.45,0,.14-.05,.36-.15,.66-.1,.3-.16,.53-.18,.69,.92-1.32,2-1.98,3.24-1.98,1.66,0,2.87,.94,3.63,2.82,.58,1.46,.87,3.34,.87,5.64Zm-3.78,0c0-1.9-.04-3.11-.12-3.63-.2-1.3-.7-1.95-1.5-1.95-.46,0-.88,.63-1.25,1.88-.37,1.25-.55,2.49-.55,3.71,0,.92,.2,2,.6,3.24,.4,1.32,.8,1.98,1.2,1.98,.48,0,.88-.61,1.2-1.83,.28-1.06,.42-2.19,.42-3.39Z"/>
      <path d="M312.56,97.66c-.3,.98-1.04,1.47-2.22,1.47-.4,0-.72-.07-.96-.21-.32-.22-.54-.66-.66-1.32-.24-1.14-.48-2.03-.72-2.67-.06,1.1-.66,2.22-1.8,3.35-1.14,1.13-2.29,1.69-3.45,1.69-1.46,0-2.47-.97-3.03-2.91-.2-.72-.3-1.4-.3-2.04,0-1.86,.95-3.45,2.85-4.77,1.56-.92,3.13-1.83,4.71-2.73,.08-.34,.12-.67,.12-.99,0-.62-.17-.99-.51-1.1-.34-.11-.63-.17-.87-.17-.42,0-.76,.14-1.04,.41-.27,.27-.52,.53-.76,.76-.24,.16-.55,.53-.93,1.11-.3,.46-.63,.71-.99,.75-.52,.06-.99-.12-1.41-.54s-.63-.91-.63-1.47c0-.32,.08-.61,.24-.87,.46-.76,1.15-1.42,2.07-1.98,1.4-.84,3.15-1.26,5.25-1.26,1.34,0,2.26,.64,2.76,1.92,.32,.86,.56,2.47,.72,4.83,.18,2.86,.4,4.95,.66,6.27,.04,.26,.21,.59,.51,.99,.3,.4,.45,.75,.45,1.05,0,.14-.02,.28-.06,.42Zm-5.22-7.38c-.6,.32-1.2,.65-1.79,.99-.59,.34-1.14,.79-1.63,1.35-.72,.82-1.08,1.52-1.08,2.1,0,.48,.18,.98,.54,1.5,.2,.28,.42,.42,.66,.42,.52,0,1.08-.58,1.69-1.74s1.14-2.7,1.61-4.62Z"/>
      <path d="M324.92,82.99c.04,1.72,.13,4.55,.27,8.49,.08,2.78,.12,4.77,.12,5.97,0,2.64-.21,4.44-.63,5.4s-1.27,1.49-2.55,1.59c-1.6,.14-3.01-.28-4.23-1.26-.6-.18-.98-.32-1.14-.42-.34-.2-.56-.54-.66-1.02-.18-.94,.56-1.41,2.22-1.41,.42,0,.82,.05,1.2,.15,.28,.06,.59,.29,.93,.71,.34,.41,.66,.62,.96,.65,.58,.04,.87-.78,.87-2.46,0-.72-.05-1.89-.15-3.51-.72,1.22-1.24,2.01-1.56,2.37-.66,.68-1.43,1.02-2.31,1.02-1.24,0-2.24-.86-3-2.58-.7-1.58-1.05-3.5-1.05-5.76s.37-4.28,1.11-5.88c.84-1.8,2-2.72,3.48-2.76,.8-.02,1.39,.14,1.77,.48,.38,.34,.75,.69,1.11,1.05-.26-.72-.2-1.26,.18-1.62,.22-.22,.55-.33,.99-.33s.84,.11,1.26,.33c.42,.22,.69,.49,.81,.81Zm-3.6,7.65c.08-1.16-.06-2.26-.42-3.3-.4-1.16-.92-1.74-1.56-1.74-.52,0-.98,.58-1.38,1.74-.36,1.04-.56,2.14-.6,3.3-.04,1.22,.05,2.32,.27,3.3,.28,1.16,.67,1.74,1.17,1.74,.44,0,.95-.56,1.53-1.69s.91-2.25,.99-3.35Z"/>
      <path d="M341.54,97c-.04,.44-.33,.82-.87,1.12-.54,.31-1.14,.46-1.8,.46-.98,0-1.65-.31-2.01-.93,.16-6.16-.02-9.28-.54-9.36-.5-.08-1.72,2.68-3.66,8.28v1.8c-.02,.72-.21,1.23-.58,1.53s-.76,.45-1.18,.45c-.72,0-1.49-.39-2.31-1.17-.24-.2-.37-1.72-.39-4.56,.02,1.74,.03-1.49,.03-9.69,0-.18-.02-.42-.06-.73-.04-.31-.06-.54-.06-.67,0-.38,.1-.71,.3-.99,.24-.36,.62-.54,1.14-.54s1.1,.17,1.69,.5,.95,.64,1.07,.94c.08,.2,.12,.4,.12,.6s-.08,.48-.24,.84-.24,.66-.24,.9v4.14c1.26-2.68,2.21-4.45,2.85-5.31,1.14-1.48,2.43-2.17,3.87-2.07,.86,.06,1.47,.86,1.83,2.4,.28,1.16,.43,2.88,.45,5.16v5.4c.04,.14,.18,.39,.42,.75,.14,.2,.2,.45,.18,.75Z"/>
      <path d="M352.88,83.43c1.34,1.36,2.01,3.65,2.01,6.87,0,2.5-.47,4.63-1.41,6.39-1.06,1.98-2.52,2.97-4.38,2.97s-3.26-.89-4.26-2.67c-.88-1.56-1.32-3.54-1.32-5.94,0-2.12,.34-4.02,1.02-5.7,.72-1.8,1.64-2.86,2.76-3.18,.58-.16,1.18-.24,1.8-.24,1.54,0,2.8,.5,3.78,1.5Zm-3.42,1.44c-.66-.06-1.23,.56-1.71,1.86-.42,1.18-.63,2.42-.63,3.72,0,1.88,.08,3.21,.24,3.99,.28,1.4,.86,2.17,1.74,2.31,.56,.08,1.08-.69,1.56-2.31,.46-1.56,.69-3.23,.69-5.01,0-2.92-.63-4.44-1.89-4.56Z"/>
      <path d="M370.97,97c-.04,.44-.33,.82-.87,1.12-.54,.31-1.14,.46-1.8,.46-.98,0-1.65-.31-2.01-.93,.16-6.16-.02-9.28-.54-9.36-.5-.08-1.72,2.68-3.66,8.28v1.8c-.02,.72-.21,1.23-.58,1.53s-.76,.45-1.18,.45c-.72,0-1.49-.39-2.31-1.17-.24-.2-.37-1.72-.39-4.56,.02,1.74,.03-1.49,.03-9.69,0-.18-.02-.42-.06-.73-.04-.31-.06-.54-.06-.67,0-.38,.1-.71,.3-.99,.24-.36,.62-.54,1.14-.54s1.1,.17,1.69,.5,.95,.64,1.07,.94c.08,.2,.12,.4,.12,.6s-.08,.48-.24,.84-.24,.66-.24,.9v4.14c1.26-2.68,2.21-4.45,2.85-5.31,1.14-1.48,2.43-2.17,3.87-2.07,.86,.06,1.47,.86,1.83,2.4,.28,1.16,.43,2.88,.45,5.16v5.4c.04,.14,.18,.39,.42,.75,.14,.2,.2,.45,.18,.75Z"/>
    </g>
  </g>
</svg>