<?xml version="1.0" standalone="no"?>
<!DOCTYPE svg PUBLIC "-//W3C//DTD SVG 20010904//EN"
 "http://www.w3.org/TR/2001/REC-SVG-20010904/DTD/svg10.dtd">
<svg version="1.0" xmlns="http://www.w3.org/2000/svg"
 width="1280.000000pt" height="1280.000000pt" viewBox="0 0 1280.000000 1280.000000"
 preserveAspectRatio="xMidYMid meet">
<metadata>
Created by potrace 1.15, written by Peter Selinger 2001-2017
</metadata>
<g transform="translate(0.000000,1280.000000) scale(0.100000,-0.100000)"
fill="#000000" stroke="none">
<path d="M7713 12793 c-51 -4 -76 -23 -30 -23 56 -1 321 -31 397 -45 552 -105
1036 -452 1166 -835 35 -104 39 -174 19 -351 -14 -125 -15 -166 -6 -209 23
-108 98 -165 207 -158 78 5 124 38 169 119 26 48 30 65 33 159 3 69 -1 126
-11 168 -13 58 -13 63 2 56 124 -55 243 -68 356 -39 197 52 335 221 335 410 0
229 -154 405 -353 405 -263 0 -372 -364 -142 -471 57 -26 134 -25 175 4 123
83 110 244 -24 287 -28 9 -35 15 -25 21 22 14 117 10 148 -5 67 -35 121 -136
121 -226 0 -20 -7 -60 -16 -90 -30 -101 -84 -162 -184 -209 -71 -33 -202 -40
-311 -18 -121 25 -124 27 -170 119 -125 250 -362 499 -624 657 -236 143 -528
238 -827 270 -91 10 -287 12 -405 4z"/>
<path d="M12645 12789 c-624 -66 -1179 -421 -1434 -919 l-51 -98 -90 -22
c-129 -32 -271 -27 -352 13 -71 35 -147 116 -171 183 -27 76 -23 178 9 242 36
73 81 105 152 110 32 2 68 -1 82 -6 24 -9 24 -10 -16 -21 -56 -15 -90 -44
-104 -87 -25 -76 14 -175 83 -207 19 -10 57 -17 84 -17 213 1 283 273 110 432
-45 40 -115 61 -195 56 -154 -9 -275 -122 -312 -289 -19 -87 -9 -212 23 -282
54 -118 186 -219 324 -248 84 -17 206 -7 282 24 l63 25 -6 -21 c-97 -357 99
-602 439 -548 39 6 80 14 92 17 21 6 21 6 -4 -58 -35 -85 -43 -219 -18 -304
39 -137 130 -250 242 -301 70 -32 195 -42 282 -23 167 37 280 159 289 312 7
109 -33 194 -118 248 -165 106 -369 16 -370 -163 0 -27 7 -65 17 -84 32 -69
131 -108 207 -83 43 14 72 48 87 104 11 40 12 40 21 16 17 -45 5 -134 -25
-173 -67 -89 -223 -115 -342 -58 -74 35 -127 87 -163 160 -25 52 -27 65 -27
181 0 93 5 143 19 193 l19 68 98 50 c461 237 805 735 898 1300 11 68 23 161
26 207 l7 82 -38 -1 c-22 -1 -75 -5 -119 -10z m85 -69 c0 -24 -43 -194 -72
-280 -136 -420 -431 -777 -743 -903 -78 -31 -83 -32 -237 -32 -86 0 -160 4
-165 8 -4 5 -8 79 -8 165 0 154 1 159 32 237 144 356 574 674 1068 790 115 27
125 28 125 15z"/>
<path d="M12430 12497 c-47 -18 -134 -59 -195 -90 -309 -161 -537 -421 -577
-658 -11 -62 -10 -71 5 -86 15 -15 24 -16 89 -5 238 41 511 286 668 602 37 74
110 249 110 265 0 9 -12 5 -100 -28z"/>
<path d="M7540 12603 c-402 -38 -775 -160 -1145 -372 -282 -162 -518 -339
-805 -603 l-117 -106 -104 53 c-608 309 -1384 249 -1989 -156 -136 -91 -314
-255 -403 -371 -36 -48 -56 -66 -67 -62 -107 46 -161 58 -275 62 -142 5 -222
-11 -332 -64 -208 -100 -353 -319 -353 -534 0 -161 102 -325 245 -396 51 -24
72 -29 135 -29 90 1 132 20 201 92 111 115 130 255 46 349 -87 100 -202 80
-202 -34 0 -36 12 -70 50 -145 59 -119 57 -132 -28 -132 -78 0 -178 52 -228
119 -54 71 -73 140 -67 241 13 195 158 357 356 396 89 17 220 7 305 -24 38
-14 71 -28 74 -31 3 -3 -10 -41 -30 -83 -41 -90 -89 -245 -111 -353 -44 -220
-47 -565 -6 -798 12 -68 20 -125 18 -127 -6 -5 -275 -75 -366 -95 -111 -24
-369 -70 -395 -70 -15 0 -10 10 25 49 116 129 167 304 134 461 -35 167 -142
312 -282 381 -64 32 -75 34 -169 34 -91 0 -105 -3 -160 -30 -75 -38 -155 -115
-190 -185 -40 -78 -46 -182 -14 -265 32 -86 115 -168 194 -191 79 -22 158 -15
225 22 61 33 86 62 100 115 14 51 5 94 -31 157 -44 78 -113 119 -232 137 -48
8 -47 32 3 58 80 41 231 -5 319 -98 86 -90 113 -190 88 -323 -38 -201 -163
-316 -395 -364 -89 -18 -123 -20 -417 -15 -329 6 -452 15 -872 67 -134 17
-249 30 -255 30 -54 -2 183 -65 367 -99 784 -143 1627 -129 2320 39 342 82
692 217 970 373 l80 45 0 -121 c1 -110 4 -130 32 -210 41 -117 83 -184 176
-283 165 -175 401 -287 684 -325 124 -16 412 -6 528 19 535 116 926 495 1050
1016 99 417 20 837 -226 1206 -61 91 -241 284 -337 361 l-42 34 110 95 c355
305 698 445 1006 410 155 -17 246 -46 417 -133 81 -41 110 -51 165 -54 57 -4
74 -1 111 19 77 41 100 116 59 190 -70 123 -335 194 -628 168 -125 -11 -276
-37 -380 -65 -30 -8 -56 -13 -58 -11 -9 10 234 143 348 189 415 171 784 178
1079 21 213 -113 351 -286 412 -514 30 -112 11 -289 -43 -394 -29 -57 -115
-144 -173 -175 -44 -23 -62 -26 -145 -26 -101 0 -168 20 -217 67 -40 37 -30
45 65 50 100 5 146 24 203 85 51 53 80 116 86 185 15 162 -89 269 -278 285
-113 10 -220 -33 -292 -117 -121 -142 -129 -346 -19 -516 92 -141 237 -217
417 -216 187 0 348 87 456 244 50 73 74 129 105 242 27 102 40 122 50 81 11
-44 -5 -192 -32 -300 -110 -439 -405 -692 -783 -673 -224 12 -318 113 -396
428 -57 232 -93 303 -174 342 -62 30 -159 30 -217 1 -84 -44 -136 -118 -160
-232 -27 -131 -8 -255 61 -397 122 -251 427 -438 771 -474 438 -46 848 260
1008 752 52 161 61 223 61 423 -1 197 -13 267 -73 417 -139 346 -450 569 -881
633 -58 9 -108 19 -111 22 -3 3 74 3 170 0 197 -5 282 -23 431 -86 553 -238
793 -912 537 -1506 -17 -38 -68 -138 -114 -222 -121 -220 -144 -287 -124 -364
6 -22 26 -57 45 -77 32 -35 37 -37 97 -37 55 0 72 5 122 35 114 68 203 200
248 365 18 68 21 107 21 253 0 94 1 172 3 172 1 0 24 -37 50 -82 161 -281 386
-464 641 -524 95 -22 257 -15 338 14 172 63 271 195 282 377 13 197 -70 364
-219 442 -46 24 -64 28 -138 28 -75 0 -93 -4 -152 -32 -78 -37 -161 -110 -190
-167 -74 -145 63 -316 252 -316 112 0 167 47 210 176 12 35 25 64 30 64 32 0
52 -90 39 -173 -19 -117 -87 -209 -188 -255 -67 -31 -194 -41 -280 -22 -84 18
-210 82 -295 151 -190 152 -370 447 -392 644 -6 49 -4 53 60 148 36 54 70 114
76 135 26 96 1 216 -74 342 -205 346 -641 588 -1155 640 -96 9 -261 11 -341 3z
m-2665 -1037 c127 -23 274 -70 384 -123 l94 -45 -229 -230 c-495 -497 -905
-854 -1263 -1102 -119 -83 -399 -256 -414 -256 -5 0 12 24 38 53 196 217 310
559 277 829 -21 170 -75 282 -156 322 -33 16 -44 17 -77 7 -46 -14 -104 -61
-125 -104 -22 -42 -12 -78 47 -165 74 -109 109 -188 118 -271 22 -213 -75
-487 -234 -660 -73 -80 -204 -168 -318 -216 l-38 -16 62 73 c114 136 191 292
225 458 22 112 15 312 -16 420 -29 102 -80 206 -140 284 l-50 65 49 58 c279
334 727 566 1226 632 106 14 434 6 540 -13z m694 -310 c83 -64 222 -214 281
-303 150 -227 226 -468 236 -748 14 -376 -98 -681 -341 -933 -178 -186 -402
-302 -669 -348 -140 -25 -417 -15 -551 20 -229 58 -382 141 -509 276 -98 104
-139 194 -144 316 -12 260 160 476 443 555 114 32 304 32 430 0 212 -53 388
-179 457 -327 27 -57 33 -84 36 -157 10 -202 -67 -317 -211 -317 -81 0 -84 12
-31 100 87 146 85 214 -9 297 -117 103 -305 95 -417 -17 -67 -67 -85 -117 -85
-235 0 -89 3 -105 27 -151 94 -178 331 -244 588 -165 235 73 384 277 367 501
-13 162 -75 298 -187 410 -159 160 -390 235 -697 228 l-140 -3 526 522 c289
287 530 522 534 523 5 0 34 -20 66 -44z m-2539 -543 c50 -59 105 -167 126
-253 33 -131 17 -332 -39 -481 -63 -167 -222 -420 -277 -441 -22 -8 -23 -3
-45 152 -46 336 -22 614 76 865 42 107 94 205 108 205 5 0 28 -21 51 -47z"/>
<path d="M11940 10336 c-73 -21 -131 -55 -185 -110 -90 -93 -135 -207 -135
-342 0 -71 29 -193 54 -223 9 -12 5 -13 -24 -7 -19 4 -85 9 -147 13 -92 4
-121 2 -170 -13 -163 -51 -220 -228 -108 -339 64 -64 115 -72 314 -50 93 10
181 15 218 11 323 -33 678 -373 857 -821 80 -200 125 -399 146 -655 7 -74 14
-137 16 -139 11 -12 15 20 21 160 15 403 -83 801 -278 1124 -158 262 -407 499
-657 624 -92 46 -94 49 -119 170 -41 200 12 377 137 456 46 29 131 55 180 55
90 0 191 -54 226 -121 15 -31 19 -126 5 -148 -10 -15 -15 -8 -25 31 -17 71
-94 116 -170 98 -114 -26 -168 -144 -117 -255 83 -179 351 -163 445 27 69 139
-1 329 -152 411 -95 52 -235 70 -332 43z"/>
<path d="M10700 10284 c-113 -30 -208 -110 -259 -217 -42 -90 -54 -159 -49
-278 14 -291 208 -564 536 -754 45 -26 82 -49 82 -50 0 -1 -78 -2 -172 -2
-147 1 -185 -2 -253 -21 -118 -32 -220 -87 -291 -157 -81 -80 -108 -132 -108
-213 -1 -61 1 -65 36 -97 20 -19 55 -39 77 -45 77 -20 145 3 366 125 191 106
283 146 416 180 128 33 332 44 459 26 454 -67 797 -368 910 -801 17 -68 23
-120 25 -260 4 -183 2 -183 -31 0 -70 396 -292 689 -622 822 -149 59 -220 72
-417 72 -200 1 -262 -8 -423 -60 -344 -112 -615 -358 -710 -648 -73 -219 -59
-446 42 -686 57 -135 112 -218 206 -311 71 -71 102 -94 181 -132 146 -72 268
-91 403 -62 178 38 279 170 246 320 -18 81 -50 119 -132 158 -40 19 -116 45
-168 57 -299 71 -403 132 -467 275 -14 32 -18 66 -17 175 0 118 4 145 27 215
73 220 241 384 498 486 134 52 373 93 444 75 41 -10 21 -23 -81 -50 -113 -31
-169 -55 -242 -105 -157 -108 -244 -269 -244 -456 -1 -230 130 -411 345 -477
133 -40 289 -7 391 83 110 96 144 257 86 411 -66 176 -294 212 -443 69 -61
-57 -80 -103 -85 -203 -2 -49 -8 -88 -12 -88 -20 0 -60 45 -81 92 -20 44 -24
70 -24 148 0 83 3 101 26 145 31 58 118 144 175 173 105 54 282 73 394 43 349
-93 576 -377 621 -776 33 -296 -65 -653 -278 -1008 -19 -32 -37 -57 -39 -55
-2 2 3 28 11 58 28 104 54 255 65 380 26 293 -45 558 -168 628 -74 41 -149 18
-190 -59 -20 -37 -23 -54 -19 -109 3 -55 14 -86 65 -190 98 -203 124 -303 124
-485 0 -124 -14 -212 -53 -327 -65 -197 -207 -420 -397 -630 l-61 -67 -51 64
c-76 96 -241 248 -343 316 -162 108 -321 179 -498 223 -494 121 -1010 -16
-1354 -359 -183 -182 -307 -416 -367 -690 -25 -116 -35 -404 -19 -528 28 -206
111 -425 215 -563 106 -141 248 -248 401 -300 70 -24 96 -28 201 -29 l122 0
-45 -80 c-483 -866 -633 -2069 -412 -3290 34 -185 97 -422 99 -366 0 7 -13
120 -30 250 -51 407 -62 554 -67 881 -5 288 -3 323 15 411 50 240 171 366 382
398 126 19 219 -8 305 -90 93 -88 139 -239 98 -319 -26 -50 -50 -51 -58 -3
-20 124 -61 191 -146 238 -108 58 -205 31 -263 -74 -37 -68 -44 -147 -22 -226
23 -79 105 -162 191 -194 167 -63 353 20 447 200 31 60 33 70 33 164 0 94 -2
105 -34 169 -85 174 -277 290 -476 290 -138 -1 -263 -49 -366 -142 -39 -35
-49 -40 -49 -25 0 26 46 284 70 395 20 91 90 360 95 366 2 2 59 -6 127 -18
233 -41 578 -38 798 6 108 22 263 71 353 112 90 41 86 43 118 -58 103 -320
-77 -629 -376 -648 -149 -9 -258 47 -323 167 -29 51 -35 75 -36 123 -1 90 10
93 131 33 117 -59 174 -66 217 -26 63 59 0 185 -110 221 -119 39 -289 -52
-352 -188 -81 -177 82 -421 316 -471 231 -49 505 97 620 330 59 121 75 198 69
344 -4 114 -16 170 -61 276 -5 11 11 29 61 66 102 76 279 264 359 383 417 614
482 1394 168 2009 l-53 105 98 105 c633 688 954 1348 987 2034 30 596 -236
1180 -646 1423 -126 75 -246 100 -342 74 -21 -6 -81 -40 -135 -76 -96 -65 -99
-66 -150 -60 -193 22 -491 204 -642 391 -107 133 -161 269 -161 406 0 179 90
308 245 350 89 25 215 6 215 -30 0 -5 -30 -19 -67 -31 -126 -41 -173 -99 -173
-212 0 -71 32 -152 78 -201 64 -68 162 -88 238 -49 57 29 130 112 167 190 28
59 32 77 32 152 0 74 -4 92 -28 138 -91 173 -325 263 -537 206z m-253 -4223
c269 -59 496 -176 677 -351 92 -88 180 -194 174 -209 -2 -5 -237 -245 -523
-533 l-520 -524 3 140 c7 306 -68 537 -228 696 -112 112 -248 174 -410 187
-224 17 -428 -133 -501 -367 -79 -257 -13 -495 165 -588 45 -23 63 -26 151
-27 82 0 109 4 146 21 182 84 236 332 106 481 -86 97 -162 96 -321 -5 -55 -35
-71 -31 -78 20 -9 59 11 118 56 163 57 57 138 79 264 73 79 -4 99 -9 165 -41
146 -72 265 -242 318 -452 31 -122 31 -314 1 -428 -58 -215 -200 -369 -395
-428 -54 -17 -87 -21 -160 -17 -81 3 -102 8 -168 40 -248 117 -430 448 -458
829 -27 377 84 712 319 962 192 204 422 325 710 372 120 20 385 13 507 -14z
m1034 -886 c268 -671 29 -1596 -534 -2066 l-58 -49 -65 50 c-78 60 -182 111
-284 140 -108 31 -308 38 -420 16 -166 -34 -322 -111 -458 -225 l-73 -62 16
38 c117 280 327 456 637 535 64 16 104 19 192 16 99 -3 118 -7 177 -35 37 -17
101 -54 143 -82 88 -60 121 -69 163 -47 41 20 88 77 103 120 30 91 -63 184
-222 221 -307 70 -685 -35 -937 -261 -65 -58 -62 -48 26 100 264 442 601 851
1202 1459 l305 307 27 -47 c15 -27 42 -84 60 -128z m-1016 -2021 c33 -8 92
-30 130 -49 68 -33 165 -107 165 -125 0 -13 -77 -56 -172 -97 -247 -105 -557
-135 -898 -87 -157 22 -159 22 -153 44 9 34 178 153 319 223 213 106 417 137
609 91z"/>
</g>
</svg>
