<?xml version="1.0" standalone="no"?>
<!DOCTYPE svg PUBLIC "-//W3C//DTD SVG 20010904//EN"
 "http://www.w3.org/TR/2001/REC-SVG-20010904/DTD/svg10.dtd">
<svg version="1.0" xmlns="http://www.w3.org/2000/svg"
 width="1182.000000pt" height="1280.000000pt" viewBox="0 0 1182.000000 1280.000000"
 preserveAspectRatio="xMidYMid meet">
<metadata>
Created by potrace 1.15, written by Peter Selinger 2001-2017
</metadata>
<g transform="translate(0.000000,1280.000000) scale(0.100000,-0.100000)"
fill="#75943D" stroke="none">
<path d="M6325 12790 c-225 -18 -355 -82 -578 -285 -49 -44 -118 -102 -153
-130 -82 -64 -147 -151 -179 -240 -14 -38 -42 -146 -64 -240 -21 -93 -51 -196
-65 -229 -43 -96 -34 -108 59 -76 33 12 149 39 257 60 213 43 274 63 352 115
62 41 92 72 143 146 21 31 94 131 163 222 73 95 148 208 179 266 59 114 117
171 226 222 76 37 143 38 258 4 125 -36 188 -67 301 -147 132 -94 252 -216
353 -359 96 -136 112 -162 233 -384 136 -250 183 -311 284 -373 50 -30 57 -37
40 -43 -10 -4 -57 -22 -104 -39 -122 -45 -330 -147 -439 -215 -321 -199 -544
-432 -968 -1013 l-88 -121 -195 -6 c-506 -14 -880 -80 -1222 -216 -286 -113
-598 -322 -677 -452 -106 -179 -117 -319 -36 -494 50 -108 122 -215 143 -211
12 2 28 35 52 108 69 202 155 346 287 476 321 319 734 508 1238 568 179 21
255 26 255 16 0 -11 -327 -448 -458 -611 -240 -300 -539 -592 -757 -739 -150
-101 -304 -161 -461 -178 -49 -6 -100 -15 -114 -20 -14 -5 -76 -51 -138 -102
-99 -80 -112 -95 -112 -122 0 -40 62 -101 139 -136 113 -52 227 -33 456 77
144 69 252 136 400 246 400 299 560 485 1072 1253 177 265 219 322 238 322 12
0 82 -9 155 -20 508 -77 833 -221 1101 -489 101 -101 123 -129 162 -206 151
-303 156 -605 13 -942 -64 -151 -118 -237 -242 -393 -107 -133 -345 -381 -456
-474 l-57 -48 -178 -29 c-487 -81 -1015 -134 -1778 -179 -380 -22 -390 -23
-815 -50 -790 -52 -1854 -159 -2340 -235 -431 -69 -872 -211 -1151 -372 -225
-130 -465 -371 -653 -656 -201 -305 -270 -520 -269 -842 0 -278 72 -581 188
-786 l47 -82 -65 -131 c-158 -317 -238 -593 -289 -996 -17 -139 -17 -538 1
-655 55 -372 161 -664 373 -1030 248 -427 421 -601 838 -839 140 -80 175 -105
279 -193 73 -62 101 -72 146 -50 87 41 140 296 116 547 -24 234 -77 350 -159
350 -31 0 -46 -11 -118 -84 -97 -99 -125 -111 -230 -103 -66 5 -78 9 -131 48
-279 204 -547 526 -733 882 -212 406 -287 873 -230 1433 20 196 121 510 228
711 l17 32 64 -107 c36 -59 96 -154 134 -211 48 -73 67 -110 63 -125 -3 -12
-27 -86 -55 -166 -71 -210 -95 -356 -87 -535 20 -409 112 -702 297 -945 89
-118 256 -230 376 -252 74 -14 180 -3 221 22 27 17 32 26 32 60 0 51 -49 186
-90 245 -17 25 -93 110 -169 188 -155 162 -192 210 -248 322 -52 103 -86 203
-115 335 -19 88 -22 133 -22 275 1 94 5 190 10 214 l9 44 43 -57 c24 -31 77
-97 118 -147 58 -70 80 -89 97 -87 37 5 30 34 -25 100 -30 35 -91 110 -137
167 -97 122 -95 99 -24 315 85 256 246 537 465 813 55 70 105 133 110 139 13
18 -2 44 -26 44 -12 0 -32 -14 -47 -33 -15 -17 -75 -90 -134 -162 -237 -288
-426 -558 -519 -742 -20 -40 -38 -73 -40 -73 -16 0 -199 359 -226 442 -11 36
-9 41 26 100 112 188 286 407 479 606 344 355 609 550 1015 746 501 241 1095
404 2030 556 939 154 1470 266 2040 430 425 123 798 294 1169 537 l113 74 147
25 c80 14 234 43 341 64 354 72 747 222 1030 394 l75 45 3 -30 c5 -47 -26
-176 -50 -209 -45 -61 -125 -100 -262 -126 -99 -19 -123 -32 -173 -88 -46 -52
-76 -134 -76 -210 -1 -40 7 -66 37 -123 50 -95 121 -171 296 -318 l146 -122
164 9 c222 11 317 29 407 73 55 27 84 49 115 88 54 68 72 111 104 243 42 177
22 239 -96 295 -167 80 -270 156 -315 233 -31 53 -39 154 -28 347 l9 145 98
110 c184 205 317 398 417 609 145 304 194 541 206 1005 6 243 -9 456 -47 638
-17 84 -17 95 -3 123 13 25 14 51 9 138 -9 126 5 212 66 420 71 246 212 556
294 649 62 71 172 158 238 188 81 37 224 66 268 54 89 -25 163 -117 161 -201
0 -43 -64 -168 -126 -252 -24 -32 -86 -131 -137 -220 -50 -89 -119 -202 -153
-252 -33 -49 -82 -122 -108 -160 -89 -133 -141 -400 -140 -725 0 -220 35 -322
147 -432 81 -78 123 -109 314 -227 91 -57 195 -127 232 -157 37 -30 69 -54 72
-54 3 0 40 28 83 63 43 34 148 105 233 156 325 198 396 270 441 451 18 70 17
351 0 435 -28 131 -112 424 -143 495 -49 115 -91 175 -208 295 -178 183 -207
238 -254 476 -28 139 -42 188 -75 254 -61 124 -103 165 -198 198 -43 14 -98
29 -123 32 -81 11 -269 -44 -400 -117 -95 -54 -267 -207 -335 -298 -43 -59
-141 -256 -198 -400 -25 -63 -68 -166 -96 -229 l-49 -113 -32 63 c-87 174
-253 371 -393 467 -110 74 -274 138 -472 183 -41 10 -130 14 -278 14 -119 0
-217 3 -217 6 0 4 -24 10 -52 14 -112 14 -130 27 -229 170 -105 151 -214 315
-311 468 -79 127 -255 354 -321 414 -70 64 -205 162 -270 195 -66 33 -251 97
-373 128 -92 24 -292 33 -449 20z m2409 -1676 c172 -30 340 -95 436 -169 181
-140 330 -364 432 -648 70 -197 100 -354 118 -609 23 -330 -34 -751 -137
-1013 -95 -243 -255 -482 -473 -709 -265 -274 -665 -500 -1199 -675 -80 -26
-159 -51 -176 -55 -29 -7 -28 -6 15 30 25 20 131 123 236 228 159 160 204 211
274 316 94 142 154 262 198 400 45 143 56 211 56 370 0 208 -38 373 -134 575
-40 84 -60 112 -126 179 -254 254 -582 416 -1024 505 -147 30 -364 61 -426 61
-19 0 -34 3 -34 6 0 17 252 329 416 514 146 166 363 344 548 452 103 61 340
172 428 202 160 54 397 71 572 40z m-1739 -4213 c-24 -21 -212 -128 -335 -191
-240 -121 -450 -202 -850 -325 -576 -177 -1234 -323 -1941 -430 -271 -41 -691
-130 -990 -210 -523 -140 -961 -326 -1314 -558 -201 -132 -329 -240 -566 -476
-211 -212 -345 -371 -482 -575 -39 -58 -69 -93 -71 -85 -36 104 -85 371 -98
540 -36 451 105 821 450 1181 183 190 354 315 598 437 460 228 817 320 1724
441 687 91 1032 115 2210 155 728 25 1187 52 1510 89 147 17 166 18 155 7z"/>
<path d="M2205 5096 c-58 -27 -88 -57 -110 -108 -17 -43 -20 -136 -4 -171 14
-31 88 -79 166 -107 57 -21 67 -21 150 -10 119 15 152 33 182 95 82 170 -46
325 -268 325 -48 0 -79 -7 -116 -24z"/>
<path d="M2787 4976 c-112 -40 -195 -151 -212 -282 -13 -98 25 -155 141 -209
33 -15 81 -38 108 -51 l50 -24 94 35 c168 63 214 98 228 172 9 47 -9 142 -38
201 -64 134 -235 206 -371 158z"/>
<path d="M2049 4710 c-156 -27 -269 -167 -269 -335 0 -65 28 -110 89 -144 60
-33 230 -82 250 -72 9 5 63 21 121 36 173 45 202 73 202 204 1 127 -57 222
-170 280 -32 16 -152 44 -172 40 -3 -1 -26 -5 -51 -9z"/>
<path d="M2595 4299 c-118 -19 -206 -78 -225 -151 -9 -31 -8 -51 5 -95 23 -79
92 -147 214 -212 l94 -49 99 49 c117 59 173 106 204 174 68 145 -9 249 -210
285 -67 11 -109 11 -181 -1z"/>
</g>
</svg>
