<?xml version="1.0" standalone="no"?>
<!DOCTYPE svg PUBLIC "-//W3C//DTD SVG 20010904//EN"
 "http://www.w3.org/TR/2001/REC-SVG-20010904/DTD/svg10.dtd">
<svg version="1.0" xmlns="http://www.w3.org/2000/svg"
 width="682.000000pt" height="1280.000000pt" viewBox="0 0 682.000000 1280.000000"
 preserveAspectRatio="xMidYMid meet">
<metadata>
Created by potrace 1.15, written by Peter Selinger 2001-2017
</metadata>
<g transform="translate(0.000000,1280.000000) scale(0.100000,-0.100000)"
fill="#000000" stroke="none">
<path d="M4295 12794 c-478 -37 -884 -123 -1505 -316 -1137 -353 -1912 -816
-2351 -1403 -228 -305 -366 -653 -421 -1065 -16 -123 -16 -522 0 -665 55 -473
188 -967 437 -1630 108 -287 184 -476 408 -1017 487 -1172 664 -1659 811
-2228 127 -491 178 -867 179 -1307 0 -145 2 -262 3 -260 2 2 14 48 28 102 147
589 136 1180 -36 1925 -118 510 -273 967 -688 2020 -422 1073 -566 1517 -650
2005 -44 260 -53 379 -47 628 8 351 55 562 191 842 183 378 489 692 941 965
162 98 504 264 705 343 506 199 1182 382 1660 451 267 39 616 49 832 26 476
-52 861 -235 1115 -530 212 -246 348 -569 408 -969 161 -1074 -315 -2680
-1177 -3969 -49 -74 -199 -288 -332 -475 -510 -720 -651 -940 -801 -1250 -109
-224 -180 -446 -222 -682 -13 -77 -17 -160 -17 -360 -1 -275 10 -394 57 -632
13 -62 22 -113 21 -113 -1 0 -26 11 -56 25 -59 27 -145 34 -154 12 -2 -7 11
-57 31 -110 43 -120 46 -188 11 -262 -66 -141 -282 -255 -586 -310 -55 -10
-176 -19 -287 -22 -183 -5 -193 -5 -193 13 0 40 205 1065 329 1644 313 1467
583 2518 863 3362 l92 276 60 7 c609 65 1036 284 1190 609 55 115 70 192 69
346 -1 327 -147 667 -321 751 -63 31 -165 31 -241 0 -186 -76 -417 -306 -653
-651 -84 -123 -245 -386 -286 -466 l-21 -41 -153 -14 c-88 -8 -277 -14 -446
-14 l-293 0 -38 110 c-157 463 -428 681 -821 662 -137 -7 -216 -23 -370 -75
-212 -72 -360 -153 -442 -240 -62 -66 -80 -104 -81 -172 -1 -144 147 -287 446
-430 215 -103 543 -208 863 -275 l82 -17 25 -97 c89 -334 127 -712 127 -1271
0 -657 -65 -1416 -205 -2403 -58 -411 -238 -1513 -248 -1523 -8 -8 -113 36
-175 74 -127 77 -208 183 -219 287 -3 30 -7 55 -8 55 -1 0 -33 -11 -71 -24
-163 -55 -266 -130 -280 -202 -6 -31 -2 -48 21 -91 l27 -53 -25 -63 c-57 -143
-81 -318 -59 -434 6 -32 19 -121 27 -198 34 -294 110 -629 171 -746 7 -14 29
-90 48 -167 105 -413 229 -679 399 -854 332 -341 830 -314 1572 85 310 167
344 197 388 338 93 296 100 712 18 929 -20 52 -20 54 -1 124 47 176 51 426 10
630 l-19 99 44 49 c24 27 53 74 65 106 45 120 18 309 -65 446 l-36 59 -11 271
c-29 681 50 1108 283 1531 133 240 264 425 794 1115 405 528 457 598 592 800
556 831 947 1764 1108 2639 62 339 78 518 79 861 0 318 -5 391 -49 646 -161
923 -705 1543 -1535 1750 -221 55 -383 74 -650 78 -129 2 -257 2 -285 0z m349
-3786 c3 -13 6 -52 6 -88 0 -164 -125 -284 -404 -384 -39 -14 -71 -24 -73 -22
-6 6 88 169 148 257 96 139 233 258 300 259 9 0 19 -10 23 -22z m-2744 -398
c36 -11 91 -35 122 -54 61 -37 151 -106 145 -113 -6 -6 -164 27 -255 53 -95
28 -212 80 -212 94 0 5 17 18 38 29 41 21 60 20 162 -9z m1411 -766 l96 -6
-64 -161 c-154 -387 -359 -1228 -498 -2042 -135 -792 -235 -1827 -281 -2902
l-7 -163 -36 0 c-50 0 -148 16 -259 42 -91 21 -94 22 -89 47 2 14 36 150 75
301 320 1240 555 2566 637 3585 33 406 37 975 9 1260 l-6 71 163 -13 c90 -7
207 -15 260 -19z m-1511 -5349 c321 -129 783 -224 1185 -244 150 -8 476 2 496
15 5 3 9 1 9 -5 0 -5 -20 -27 -45 -49 -60 -53 -94 -59 -355 -67 -118 -3 -350
-12 -515 -20 -506 -25 -704 -18 -805 26 -108 48 -158 137 -196 353 -8 45 -14
87 -14 93 0 8 25 -1 63 -22 34 -19 114 -55 177 -80z m1780 -633 c-216 -421
-490 -522 -1422 -522 l-277 0 -73 142 c-39 79 -96 178 -125 220 -29 43 -51 78
-49 78 2 0 29 -16 61 -35 112 -67 285 -127 462 -161 134 -25 447 -30 603 -10
222 29 421 90 590 181 98 52 206 130 247 179 15 18 30 32 31 30 2 -1 -19 -47
-48 -102z m85 -699 c-8 -27 -34 -106 -59 -178 l-44 -130 -128 -28 c-71 -16
-316 -71 -544 -122 -712 -161 -716 -161 -792 -11 -16 32 -28 59 -26 61 2 2 35
-3 73 -11 39 -7 124 -13 190 -14 208 0 420 42 715 142 266 91 433 175 570 291
30 26 56 47 57 47 1 0 -4 -21 -12 -47z"/>
</g>
</svg>
