<?xml version="1.0" standalone="no"?>
<!DOCTYPE svg PUBLIC "-//W3C//DTD SVG 20010904//EN"
 "http://www.w3.org/TR/2001/REC-SVG-20010904/DTD/svg10.dtd">
<svg version="1.0" xmlns="http://www.w3.org/2000/svg"
 width="700.000000pt" height="700.000000pt" viewBox="0 0 700.000000 700.000000"
 preserveAspectRatio="xMidYMid meet">
<metadata>
Created by potrace 1.14, written by Peter Selinger 2001-2017
</metadata>
<g transform="translate(0.000000,700.000000) scale(0.100000,-0.100000)"
fill="#000000" stroke="none">
<path d="M3279 6996 c-2 -2 -43 -6 -91 -9 -94 -7 -276 -32 -348 -49 -25 -5
-58 -12 -75 -15 -58 -8 -291 -72 -390 -106 -526 -181 -956 -448 -1346 -837
-163 -163 -279 -299 -396 -465 -237 -338 -422 -739 -524 -1138 -44 -172 -81
-385 -96 -557 -15 -164 -8 -601 12 -721 2 -13 6 -46 10 -74 3 -27 17 -108 31
-180 102 -523 313 -997 638 -1435 23 -30 43 -57 46 -60 3 -3 39 -45 80 -95 94
-113 307 -327 425 -426 472 -396 1004 -649 1611 -768 54 -11 124 -22 154 -26
30 -4 66 -9 80 -10 210 -27 634 -27 820 -1 19 3 55 8 80 11 75 10 113 16 155
25 22 5 56 12 75 15 61 10 261 64 375 102 523 171 997 465 1382 858 76 77 150
155 165 172 93 109 292 381 334 458 6 11 36 63 66 115 50 87 114 214 151 300
8 19 24 56 36 82 11 26 21 54 21 61 0 7 4 17 9 23 26 27 152 474 176 624 4 25
9 54 11 65 2 11 7 40 10 65 3 25 7 56 10 70 19 117 26 547 11 710 -12 131 -17
172 -23 210 -4 19 -8 45 -9 56 -11 84 -64 310 -101 433 -55 180 -49 160 -63
196 -6 17 -24 62 -38 100 -86 233 -288 594 -447 800 -25 33 -56 73 -68 90 -52
67 -179 207 -288 315 -519 515 -1162 848 -1875 969 -113 19 -154 25 -265 37
-54 6 -526 15 -531 10z m506 -520 c48 -5 192 -25 226 -31 210 -40 407 -94 534
-145 210 -85 367 -161 508 -247 48 -30 87 -56 87 -57 0 -2 -14 -3 -31 -4 -108
-3 -283 -162 -303 -275 -16 -91 79 -149 247 -148 234 0 298 113 187 330 -13
26 -16 40 -8 35 24 -14 162 -122 207 -161 l43 -38 -96 -94 c-84 -83 -176 -197
-176 -219 0 -12 -62 -67 -95 -85 -16 -9 -61 -23 -100 -32 -87 -21 -125 -44
-152 -92 -49 -88 1 -257 95 -315 78 -48 204 -55 307 -17 70 26 131 83 204 189
76 111 120 143 198 143 134 0 223 -92 223 -231 0 -38 31 -94 56 -103 24 -8
110 27 133 54 7 10 19 17 26 17 12 0 145 -258 145 -282 0 -15 -44 -74 -90
-120 -86 -85 -174 -57 -375 122 -38 34 -88 72 -110 85 -100 58 -224 64 -445
21 -14 -3 -65 -12 -115 -20 -260 -43 -312 -77 -474 -313 -33 -49 -93 -123
-132 -164 -171 -178 -233 -304 -228 -458 8 -233 161 -462 385 -575 163 -82
344 -100 571 -57 202 39 313 30 361 -28 40 -48 54 -104 59 -225 5 -139 22
-242 63 -371 36 -115 48 -178 55 -290 14 -238 35 -406 65 -532 l18 -74 -47
-62 c-44 -59 -286 -308 -361 -373 -253 -215 -542 -389 -855 -514 -173 -70
-421 -139 -585 -165 -19 -3 -46 -7 -60 -10 -26 -5 -65 -10 -165 -22 -127 -15
-559 -7 -665 12 -8 1 -38 6 -67 10 l-52 7 4 56 c15 216 134 492 294 682 63 75
125 135 266 254 208 176 291 269 357 401 109 218 122 527 30 715 -51 105 -193
232 -362 322 -36 20 -110 59 -165 88 -175 93 -259 148 -345 227 -19 17 -48 42
-65 55 -16 12 -41 33 -55 45 -13 13 -62 42 -109 65 l-84 43 -146 2 c-133 3
-154 6 -239 34 -154 51 -195 44 -370 -68 -88 -57 -133 -72 -204 -69 -82 3
-160 41 -235 115 -165 163 -213 362 -109 455 27 24 112 63 151 70 157 26 263
23 328 -10 15 -8 56 -42 90 -74 78 -75 155 -116 193 -103 69 23 86 126 48 283
-3 14 -8 56 -11 93 -9 116 21 168 167 282 98 76 136 119 159 180 21 57 20 127
-4 207 -40 135 0 209 175 328 76 52 125 71 290 116 204 56 279 91 319 149 44
64 24 128 -80 264 -117 154 -220 232 -307 233 -71 0 -110 -22 -200 -117 -132
-138 -262 -207 -392 -207 -74 -1 -114 15 -160 63 -70 74 -58 125 55 222 44 38
88 82 97 99 21 38 17 102 -12 157 -11 23 -19 45 -16 50 3 4 24 14 48 21 24 8
54 20 68 27 33 17 40 17 94 -8 52 -23 81 -25 208 -14 77 7 91 5 130 -14 23
-11 63 -39 88 -62 158 -144 247 -179 375 -144 71 19 129 67 160 131 22 47 27
150 11 227 -7 31 -10 59 -8 62 5 5 177 -2 257 -9z m-2957 -2573 c44 -72 108
-187 142 -255 112 -222 164 -268 420 -365 81 -30 171 -73 188 -90 7 -7 17 -13
21 -13 14 0 84 -75 117 -127 61 -94 67 -134 69 -453 1 -263 3 -289 22 -341 45
-119 88 -166 254 -279 66 -45 143 -104 172 -133 56 -55 106 -146 123 -222 14
-64 20 -106 29 -195 7 -69 14 -129 20 -170 2 -14 6 -47 9 -74 8 -70 34 -215
57 -325 12 -51 22 -101 24 -110 2 -9 6 -28 10 -43 4 -16 5 -28 2 -28 -3 0 -54
20 -114 44 -902 362 -1576 1143 -1802 2086 -32 137 -47 226 -68 415 -10 83
-10 464 0 550 17 157 34 264 69 412 l21 92 67 -122 c37 -67 103 -181 148 -254z"/>
</g>
</svg>
