<?xml version="1.0" encoding="UTF-8"?>
<svg id="Layer_2" data-name="Layer 2" xmlns="http://www.w3.org/2000/svg" xmlns:xlink="http://www.w3.org/1999/xlink" viewBox="0 0 139.87 88.35">
  <defs>
    <style>
      .cls-1 {
        fill: url(#linear-gradient);
      }

      .cls-2 {
        fill: url(#Logo_Gradient);
      }

      .cls-2, .cls-3, .cls-4, .cls-5, .cls-6, .cls-7, .cls-8, .cls-9, .cls-10, .cls-11, .cls-12 {
        stroke: #000;
        stroke-miterlimit: 10;
        stroke-width: .5px;
      }

      .cls-3 {
        fill: url(#Logo_Gradient-3);
      }

      .cls-4 {
        fill: url(#Logo_Gradient-9);
      }

      .cls-5 {
        fill: url(#Logo_Gradient-6);
      }

      .cls-6 {
        fill: url(#Logo_Gradient-4);
      }

      .cls-7 {
        fill: url(#Logo_Gradient-2);
      }

      .cls-8 {
        fill: url(#Logo_Gradient-7);
      }

      .cls-9 {
        fill: url(#Logo_Gradient-5);
      }

      .cls-10 {
        fill: url(#Logo_Gradient-8);
      }

      .cls-11 {
        fill: url(#Logo_Gradient-10);
      }

      .cls-12 {
        fill: url(#Logo_Gradient-11);
      }

      .cls-13 {
        fill: url(#linear-gradient-2);
      }
    </style>
    <linearGradient id="linear-gradient" x1="69.59" y1="91.22" x2="69.13" y2="-97.24" gradientTransform="translate(20.66 -5.25) rotate(15.16)" gradientUnits="userSpaceOnUse">
      <stop offset="0" stop-color="#1e9cd7"/>
      <stop offset=".32" stop-color="#148fcf"/>
      <stop offset=".65" stop-color="#0075be"/>
      <stop offset=".78" stop-color="#006eb4"/>
      <stop offset=".98" stop-color="#005c99"/>
      <stop offset="1" stop-color="#005b97"/>
    </linearGradient>
    <linearGradient id="linear-gradient-2" x1="-68.41" y1="-38.32" x2="-68.87" y2="-226.78" gradientTransform="translate(17.7 -68.11) rotate(-164.32)" xlink:href="#linear-gradient"/>
    <linearGradient id="Logo_Gradient" x1="5.83" y1="46.5" x2="25.75" y2="46.5" gradientUnits="userSpaceOnUse">
      <stop offset="0" stop-color="#1e9cd7"/>
      <stop offset=".32" stop-color="#148fcf"/>
      <stop offset=".65" stop-color="#0075be"/>
      <stop offset=".78" stop-color="#006eb4"/>
      <stop offset=".98" stop-color="#005c99"/>
      <stop offset="1" stop-color="#005b97"/>
    </linearGradient>
    <linearGradient id="Logo_Gradient-2" data-name="Logo_Gradient" x1="27.29" y1="50.41" x2="36.94" y2="50.41" xlink:href="#Logo_Gradient"/>
    <linearGradient id="Logo_Gradient-3" data-name="Logo_Gradient" x1="36.26" y1="49.76" x2="50.96" y2="49.76" xlink:href="#Logo_Gradient"/>
    <linearGradient id="Logo_Gradient-4" data-name="Logo_Gradient" x1="47.42" y1="47.93" x2="59.33" y2="47.93" xlink:href="#Logo_Gradient"/>
    <linearGradient id="Logo_Gradient-5" data-name="Logo_Gradient" x1="56.56" y1="54.86" x2="67.09" y2="54.86" xlink:href="#Logo_Gradient"/>
    <linearGradient id="Logo_Gradient-6" data-name="Logo_Gradient" x1="70.75" y1="46.46" x2="83.16" y2="46.46" xlink:href="#Logo_Gradient"/>
    <linearGradient id="Logo_Gradient-7" data-name="Logo_Gradient" x1="83.61" y1="52.83" x2="94.14" y2="52.83" xlink:href="#Logo_Gradient"/>
    <linearGradient id="Logo_Gradient-8" data-name="Logo_Gradient" x1="93.39" y1="44.48" x2="105.06" y2="44.48" xlink:href="#Logo_Gradient"/>
    <linearGradient id="Logo_Gradient-9" data-name="Logo_Gradient" x1="102.61" y1="39.42" x2="113.81" y2="39.42" xlink:href="#Logo_Gradient"/>
    <linearGradient id="Logo_Gradient-10" data-name="Logo_Gradient" x1="115.32" y1="43.72" x2="125.22" y2="43.72" xlink:href="#Logo_Gradient"/>
    <linearGradient id="Logo_Gradient-11" data-name="Logo_Gradient" x1="125.38" y1="43.08" x2="139.62" y2="43.08" xlink:href="#Logo_Gradient"/>
  </defs>
  <g id="Logo">
    <g id="Bottom_blue_part">
      <path class="cls-1" d="m111.77,50.18c-17.95-.88-34.94,23.9-51.46,16.05-16.26-7.73-31.4,7.9-46.98,12.36,5.39,2.65,11.1,4.84,17.12,6.47,42.13,11.41,85.33-7.64,106.2-43.72-8.27,3.02-14.48,9.36-24.88,8.84Z"/>
    </g>
    <g id="Bottom_blue_part-2" data-name="Bottom_blue_part">
      <path class="cls-13" d="m24.95,37.66c17.94,1.04,35.16-23.58,51.6-15.58,16.19,7.88,31.47-7.62,47.09-11.93-5.36-2.7-11.06-4.94-17.06-6.62C64.56-8.27,21.19,10.39,0,46.28c8.29-2.94,14.56-9.22,24.95-8.62Z"/>
    </g>
    <g>
      <path class="cls-2" d="m18.68,61.86c.15.69.46,1.09.93,1.22.12.02.19.16.22.42.02.15,0,.28-.05.4s-.12.19-.22.2c-.19.02-.44.02-.76,0-.32-.02-.77,0-1.34.06-.46.05-.86.13-1.21.24-.34.11-.55.18-.62.22-.06,0-.11-.03-.15-.12-.03-.08-.06-.18-.07-.3s-.02-.23,0-.35c0-.12.03-.18.07-.18.08-.04.17-.11.24-.2.08-.1.15-.22.21-.37.03-.09.02-.56-.01-1.41-.04-.85-.11-1.96-.22-3.35-.11-1.38-.24-2.97-.41-4.78-.17-1.8-.36-3.7-.58-5.7l-.52-4.7c-.16-1.45-.62-6.61-.71-7.51-.19-1.92-.51-3.39-.97-4.41-.46-1.02-.96-1.52-1.51-1.49-.49.02-.96.35-1.41,1-.45.65-.84,1.58-1.17,2.81s-.28,7.13-.31,8.93c-.04,1.81.07,3.86.33,6.15.28,2.52.64,4.71,1.09,6.55.45,1.84.94,3.37,1.48,4.59.54,1.22,1.1,2.11,1.69,2.68.59.57,1.16.82,1.72.76h.1s.08-.03.1-.07c.04-.06.07-.07.09-.01.02.06.03.14.03.24,0,.1,0,.21-.01.31,0,.1-.02.17-.04.2-.1.22-.26.42-.46.6-.21.18-.51.3-.91.34-.66.07-1.36-.21-2.09-.85-.73-.64-1.43-1.57-2.09-2.79-.66-1.22-1.25-2.72-1.77-4.49s-.9-3.75-1.14-5.93c-.34-3.1-.44-5.78-.3-8.02s.33-8.61.94-10.03c.61-1.43,1.35-2.49,2.21-3.18.86-.69,1.79-1.06,2.79-1.1.36-.01.7.06,1.01.22s.58.36.82.6c.24.24.43.47.59.7.15.23.26.4.31.51.09-.18.29-.4.59-.66.3-.26.64-.51,1.03-.74.39-.23.79-.44,1.21-.62.42-.18.81-.27,1.16-.29.96.02,1.81.35,2.56.99.75.64,1.39,1.51,1.92,2.62.53,1.1.95,2.39,1.25,3.85.31,1.46.49,3.02.56,4.69.13,3.12,1,9.09.91,11.55-.09,2.46-.34,4.57-.76,6.31-.41,1.75-.97,3.11-1.66,4.08-.69.97-1.47,1.5-2.33,1.6-.07,0-.13-.05-.17-.18-.04-.13-.06-.26-.07-.41,0-.15,0-.27.03-.38.03-.11.06-.14.1-.12.07.05.12.07.16.07l.15-.02c.51-.06.95-.51,1.31-1.38.36-.86.63-2.03.81-3.5.18-1.47.26-3.2.24-5.18-.02-1.98-.16-4.13-.42-6.45-.48-4.32-1.31-11.08-1.98-13.47-.67-2.4-1.6-3.57-2.79-3.52-.36.01-.7.2-1,.57-.3.36-.55.83-.76,1.41-.21.58-.37,1.24-.49,1.97-.11.73-.18,1.48-.18,2.24-.02,1.02.41,6.48.64,8.71.23,2.24.52,4.93.85,8.1.24,2.32.47,4.34.7,6.06.22,1.72.41,2.88.56,3.48Z"/>
      <path class="cls-7" d="m35.58,58.63c-.11.28-.26.64-.45,1.11-.19.46-.42.93-.68,1.4-.26.47-.57.88-.91,1.22-.34.35-.72.54-1.13.59-.62.07-1.21-.12-1.75-.58-.54-.45-1.03-1.09-1.45-1.91-.43-.82-.79-1.8-1.08-2.94-.3-1.14-.52-2.36-.66-3.67-.17-1.54-.22-2.91-.15-4.12.07-1.21.2-2.28.4-3.19.2-.92-.2-4.71.12-5.32.31-.61.6-1.1.87-1.46.12-.18.27-.38.46-.59.19-.21.39-.41.62-.59s.47-.35.73-.49.54-.22.83-.23c.54-.02,1.07.12,1.59.42.52.3.99.79,1.41,1.45.42.67.77,1.54,1.05,2.61.28,1.07,1.26,4.79,1.42,6.3.13,1.22.16,2.37.09,3.47-.08,1.09-.2,2.08-.37,2.95s-.35,1.62-.54,2.24c-.19.62-.33,1.07-.41,1.34Zm-2.04.93c.71-.08,1.19-.76,1.43-2.05.24-1.29.22-3.22-.06-5.8-.14-1.3-.36-2.51-.63-3.61s-1.33-4.69-1.65-5.52c-.32-.83-.67-1.48-1.07-1.95s-.81-.69-1.25-.67c-.31.01-.6.21-.87.6-.27.39-.49.95-.68,1.67-.18.72.44,4.54.43,5.57-.01,1.03.05,2.18.19,3.46.15,1.36.37,2.57.67,3.62s.64,1.93,1.02,2.64c.38.71.78,1.23,1.21,1.58.42.35.84.5,1.25.46Z"/>
      <path class="cls-3" d="m41.06,49.93c.02.26.03.5.04.7.01.2.03.44.05.7s.05.59.09.98c.04.39.09.91.16,1.55.11,1.04.22,1.9.33,2.56.1.66.21,1.19.32,1.57.1.38.21.64.32.78.11.13.23.19.37.18.09,0,.18-.05.27-.12.03,0,.06.07.09.23.04.16.05.27.03.33-.06.15-.18.38-.37.68-.19.3-.41.6-.65.89-.25.29-.51.55-.78.79-.27.23-.51.36-.71.39-.18.02-.32-.02-.43-.11-.11-.09-.17-.21-.19-.35s-.02-.23-.01-.26c0-.03.02-.1.03-.22,0-.15,0-.33,0-.55s-.02-.47-.03-.77c-.02-.41-.05-.93-.1-1.55-.04-.63-.09-1.31-.15-2.05-.06-.74-.12-1.51-.19-2.31-.07-.8-.15-1.58-.23-2.33-.04-.32-.08-.72-.14-1.2-.06-.48-.14-1.09-.23-1.84-.1-.84-1.03-3.84-1.12-4.44-.09-.6-.2-1.07-.32-1.43-.12-.36-.25-.62-.39-.79-.14-.17-.27-.25-.4-.25h-.19c-.06.01-.12.03-.19.06-.05,0-.08-.13-.09-.39,0-.06,0-.11.02-.15.02-.04.07-.14.17-.29.15-.27.36-.6.62-.99.26-.39.53-.75.81-1.08.28-.33.54-.62.79-.86.25-.24.44-.37.58-.37.36-.01.57.46.6,1.42,0,.15.01.41.01.79,0,.38,0,.77.02,1.16,0,.39.01.77.02,1.12s0,.58,0,.7c.24-.59.5-1.2.77-1.83.28-.62.58-1.2.91-1.72.33-.52.68-.95,1.06-1.29.38-.34.77-.51,1.19-.53.75-.03,1.39.45,1.92,1.43s.83,2.57.92,4.76c.02.58.04,1.27.04,2.06,0,.79.95,3.28,1.01,4.13.06.85.11,1.68.17,2.49.06.82.12,1.54.19,2.18.26,2.32.71,3.44,1.36,3.37.12-.01.26-.08.41-.2.14-.12.28-.25.41-.4.13-.15.24-.29.34-.43s.16-.26.19-.35c0-.03.03,0,.05.06.03.07.05.16.08.28.03.11.04.22.04.3s0,.15,0,.18c-.08.16-.27.46-.56.9-.29.44-.61.9-.97,1.36-.36.47-.72.89-1.08,1.26-.36.38-.66.58-.9.6-.29.03-.5-.11-.64-.41s-.23-.63-.27-.98c-.03-.23-.04-.52-.05-.88s-.03-.92-.06-1.71c-.04-.85-.1-1.84-.19-2.97s-.19-2.36-.34-3.66c-.28-2.55-1.46-6.31-1.93-7.62s-1-1.95-1.62-1.93c-.39.02-.73.2-1.02.57s-.53.85-.71,1.45.45,3.43.41,4.21c-.04.78-.03,1.61.03,2.48Z"/>
      <path class="cls-6" d="m59.16,53.44c.02-.06.04-.06.07.01.03.07.05.17.07.3s.03.27.04.41c0,.15,0,.27-.04.36-.19.58-.44,1.19-.75,1.84-.31.65-.63,1.26-.97,1.83-.1.16-.23.36-.41.62-.17.25-.37.5-.59.75-.22.24-.45.46-.69.65-.24.19-.47.29-.7.32-.45.05-.9-.11-1.34-.47-.44-.36-.86-.88-1.23-1.56-.38-.68-.71-1.5-.98-2.47-.28-.97-.48-2.03-.61-3.19-.14-1.25-.19-2.43-.16-3.55.03-1.12-.75-3.57-.59-4.45.16-.88.31-1.62.47-2.23.15-.6.25-1.05.3-1.35-.24-.02-.46-.03-.65-.04-.2,0-.38,0-.56,0-.4.02-.74.04-1.02.06-.28.03-.52.1-.73.23-.1.06-.19.18-.27.36-.08.18-.15.31-.21.4-.03-.06-.06-.14-.11-.24-.05-.1-.07-.21-.08-.32,0-.06,0-.1.01-.13,0-.03.07-.2.22-.51s.34-.68.57-1.12c.23-.43.48-.91.75-1.43s.54-1.01.79-1.46.47-.83.65-1.14c.18-.31.3-.5.36-.56.07-.06.15-.04.23.08s.11.2.09.26c-.04.06-.09.17-.16.33-.07.16-.09.3-.06.42.15.26.4.48.74.67.35.19.74.34,1.17.46s.88.2,1.33.25.86.07,1.23.06c.54-.02.97-.08,1.3-.16s.59-.19.8-.32c.2-.12.32-.22.38-.28.01,0,.04.04.08.13s.06.19.07.3c0,.06-.08.21-.26.45-.17.24-.35.5-.53.77-.11.15-.23.35-.38.58-.15.24-.31.47-.48.7-.17.23-.36.43-.55.61-.19.18-.38.29-.57.33-.19.07-.4.12-.65.16-.25.04-.51.07-.79.1-.28.03-.55.05-.84.08-.28.03-.54.04-.78.05-.03.15-.08.39-.15.73-.07.34-.13.77-.18,1.3s-.1,1.13-.13,1.8c-.04.67.86,2.74.95,3.52.13,1.19.33,2.28.6,3.26.27.98.58,1.82.94,2.52.36.69.76,1.22,1.19,1.59.43.36.87.52,1.32.47.26-.03.51-.13.74-.3.23-.17.44-.39.63-.64.19-.26.37-.53.53-.83.16-.3.29-.58.4-.86l.17-.5Z"/>
      <path class="cls-9" d="m61.15,72.42c.08-.3.2-.8.35-1.49.15-.69.32-1.47.49-2.34.18-.87.35-1.8.53-2.79.18-.99.34-1.92.5-2.81s.29-1.69.39-2.42c.1-.73.16-1.27.17-1.63-.33-1.2-.69-2.46-1.06-3.8-.37-1.34-.76-2.66-1.15-3.97-.39-1.31-1.74-3.34-2.03-4.56-.29-1.21-.58-2.28-.86-3.18-.28-.91-.53-1.64-.78-2.18-.24-.54-.45-.81-.63-.81-.05,0-.11.04-.17.12-.06.08-.11.14-.16.2-.04.06-.08-.01-.14-.21s-.06-.33-.02-.39c.05-.09.19-.31.42-.67.23-.36.49-.74.77-1.15s.56-.77.83-1.11c.27-.33.47-.5.59-.51s.28.25.47.77c.19.52.4,1.22.61,2.1.22.88.45,1.89.7,3.02.25,1.13.5,2.31.75,3.54.25,1.23,1.51,3.07,1.84,4.3.33,1.23.64,2.37.94,3.42.1-.6.22-1.45.35-2.55s-.75-2.75-.56-3.98c.19-1.23.34-2.45.46-3.65.12-1.2.17-2.21.13-3.03s-.15-1.45-.34-1.8c-.19-.36-.39-.53-.61-.52-.16,0-.29.02-.39.04-.09.02-.2.06-.31.12-.02,0-.06-.03-.12-.1-.05-.07-.08-.18-.09-.33s.13-.31.39-.5c.27-.19.58-.36.94-.52.36-.16.71-.3,1.06-.41.35-.12.59-.18.73-.18.29-.01.51.11.66.37.15.26.23.56.24.91-.05.7-.17,1.62-.37,2.75-.2,1.13-.44,2.37-.73,3.71-.29,1.34.3,3.11.07,4.56-.23,1.45-.45,2.82-.66,4.1-.21,1.29-.4,2.44-.58,3.45-.17,1.02-.3,1.76-.37,2.24-.15.93-.29,1.89-.4,2.88-.12,1-.22,1.99-.3,2.98-.08.99-.14,1.94-.19,2.84-.05.9-.06,1.72-.04,2.45.01.44.08.72.2.84s.26.13.42.04c.16-.09.33-.25.51-.47.18-.23.32-.48.43-.75.05-.12.09-.15.11-.08.03.07.05.18.06.32s.02.3.01.46c0,.16-.03.27-.06.34-.01,0-.14.15-.39.44-.25.29-.55.61-.9.96-.35.35-.73.67-1.13.98-.4.31-.77.48-1.09.52s-.49-.18-.54-.65c0-.06,0-.1,0-.13s0-.06,0-.09Z"/>
      <path class="cls-5" d="m73.19,44.87c-.14-3.56-.27-6.46-.39-8.7s-.23-4-.33-5.26c-.1-1.27-.2-2.13-.29-2.59s-.2-.69-.31-.69c-.04,0-.11.01-.23.03-.11.02-.23.03-.37.04s-.25,0-.35,0c-.1-.01-.15-.04-.16-.1l-.02-.5c-.01-.25,0-.4.06-.46.06-.03.2-.05.41-.06s.46,0,.75.01c.28.02.58.03.88.03.3,0,.58,0,.83-.01l.61-.02c.16,0,.23-.04.21-.1.05,0,.17-.1.36-.3.19-.2.42-.42.71-.66.29-.24.62-.47.99-.68.38-.2.77-.32,1.18-.33,1.57-.06,2.83.65,3.79,2.15s1.49,3.58,1.59,6.26c.09,2.27-.02,4.32-.34,6.12-.32,1.81-.77,3.36-1.35,4.65s-1.26,2.29-2.03,2.99c-.77.7-1.56,1.07-2.38,1.1-.25.01-.53,0-.82-.05-.3-.05-.52-.14-.66-.28.03.73,1.08,1.35,1.21,2.51s.26,2.32.4,3.48c.14,1.16.28,2.21.42,3.15.14.94.26,1.55.35,1.83.06.2.15.31.28.34.12.03.26.03.41,0,.15-.03.3-.08.45-.14.15-.06.28-.1.4-.11.04.02.07.09.1.19.02.1.04.22.06.35s.02.25.02.35c0,.1-.02.16-.06.16-.24.03-.5.12-.79.29-.29.16-.6.37-.92.63-.32.26-.64.55-.95.88-.31.33-.61.67-.88,1.02-.27.32-.59.82-.97,1.49-.38.67-.76,1.35-1.14,2.02-.38.67-.73,1.26-1.06,1.77-.32.5-.56.77-.71.78-.06,0-.14-.04-.23-.15-.09-.11-.18-.23-.25-.37-.07-.14-.11-.27-.11-.41s.06-.23.17-.3c.3-.15.64-.48,1.01-.99.37-.51.73-1.06,1.07-1.66.34-.6.63-1.16.88-1.7.25-.54.41-.92.47-1.13.05-.15.04-.81-.02-1.96-.06-1.15-.15-2.55-.26-4.2-.12-1.64-.26-3.43-.43-5.37-.17-1.93-1.19-3.6-1.26-5.32Zm2.24-.18c.08.41.32.78.71,1.13.39.35.89.51,1.49.49.55-.02,1.05-.28,1.49-.78.44-.5.81-1.24,1.1-2.21.29-.98.5-2.17.63-3.59.12-1.42.15-3.06.07-4.93-.06-1.37-.19-2.61-.42-3.73-.22-1.12-.5-2.06-.84-2.83-.34-.78-.73-1.37-1.16-1.79s-.89-.62-1.36-.6c-.26.01-.52.1-.77.27s-.48.37-.67.6c-.2.23-.36.47-.48.72-.12.25-.19.48-.21.69-.02.18-.02.61-.01,1.31,0,.7.03,1.55.05,2.56.02,1.01.05,2.12.08,3.32.03,1.21.07,2.4.11,3.57.04,1.17.08,2.27.11,3.3s.07,1.87.09,2.51Z"/>
      <path class="cls-8" d="m88.06,69.46c.08-.3.2-.8.35-1.49.15-.69.32-1.47.49-2.34.18-.87.35-1.8.53-2.79.18-.99.34-1.92.5-2.81s.29-1.69.39-2.42c.1-.73.16-1.27.17-1.63-.33-1.2-.69-2.46-1.06-3.8-.37-1.34-.76-2.66-1.15-3.97-.39-1.31-1.6-1.48-1.89-2.69-.29-1.21-.58-2.28-.86-3.18-.28-.91-.53-1.64-.78-2.18-.24-.54-.45-.81-.63-.81-.05,0-.11.04-.17.12-.06.08-.11.14-.16.2-.04.06-.08-.01-.14-.21s-.06-.33-.02-.39c.05-.09.19-.31.42-.67.23-.36.49-.74.77-1.15s.56-.77.83-1.11c.27-.33.47-.5.59-.51s.28.25.47.77c.19.52.4,1.22.61,2.1.22.88.45,1.89.7,3.02.25,1.13.5,2.31.75,3.54.25,1.23.5,2.47.74,3.71.25,1.25,1.6,1.08,1.89,2.14.1-.6.22-1.45.35-2.55s-.61-.88-.42-2.12c.19-1.23.34-2.45.46-3.65.12-1.2.17-2.21.13-3.03s-.15-1.45-.34-1.8c-.19-.36-.39-.53-.61-.52-.16,0-.29.02-.39.04-.09.02-.2.06-.31.12-.02,0-.06-.03-.12-.1-.05-.07-.08-.18-.09-.33s.13-.31.39-.5c.27-.19.58-.36.94-.52.36-.16.71-.3,1.06-.41.35-.12.59-.18.73-.18.29-.01.51.11.66.37.15.26.23.56.24.91-.05.7-.17,1.62-.37,2.75-.2,1.13-.44,2.37-.73,3.71-.29,1.34-.59,2.72-.92,4.15-.33,1.43.4,1.36.19,2.64-.21,1.29-.4,2.44-.58,3.45-.17,1.02-.3,1.76-.37,2.24-.15.93-.29,1.89-.4,2.88-.12,1-.22,1.99-.3,2.98-.08.99-.14,1.94-.19,2.84-.05.9-.06,1.72-.04,2.45.01.44.08.72.2.84s.26.13.42.04c.16-.09.33-.25.51-.47.18-.23.32-.48.43-.75.05-.12.09-.15.11-.08.03.07.05.18.06.32s.02.3.01.46c0,.16-.03.27-.06.34-.01,0-.14.15-.39.44-.25.29-.55.61-.9.96-.35.35-.73.67-1.13.98-.4.31-.77.48-1.09.52s-.49-.18-.54-.65c0-.06,0-.1,0-.13s0-.06,0-.09Z"/>
      <path class="cls-10" d="m104.88,48.41c.02-.06.04-.06.07.01.03.07.05.17.07.3s.03.27.04.41c0,.15,0,.27-.04.36-.19.58-.44,1.19-.75,1.84-.31.65-.63,1.26-.97,1.83-.1.16-.23.36-.41.62-.17.25-.37.5-.59.75-.22.24-.45.46-.69.65-.24.19-.47.29-.7.32-.45.05-.9-.11-1.34-.47-.44-.36-.86-.88-1.23-1.56-.38-.68-.71-1.5-.98-2.47-.28-.97-.48-2.03-.61-3.19-.14-1.25-1.02-.72-.91-1.84.11-1.11.24-2.11.4-2.99.16-.88.31-1.62.47-2.23.15-.6.25-1.05.3-1.35-.24-.02-.46-.03-.65-.04-.2,0-.38,0-.56,0-.4.02-.74.04-1.02.06-.28.03-.52.1-.73.23-.1.06-.19.18-.27.36-.08.18-.15.31-.21.4-.03-.06-.06-.14-.11-.24-.05-.1-.07-.21-.08-.32,0-.06,0-.1.01-.13,0-.03.07-.2.22-.51s.34-.68.57-1.12c.23-.43.48-.91.75-1.43s.54-1.01.79-1.46.47-.83.65-1.14c.18-.31.3-.5.36-.56.07-.06.15-.04.23.08s.11.2.09.26c-.04.06-.09.17-.16.33-.07.16-.09.3-.06.42.15.26.4.48.74.67.35.19.74.34,1.17.46s.88.2,1.33.25.86.07,1.23.06c.54-.02.97-.08,1.3-.16s.59-.19.8-.32c.2-.12.32-.22.38-.28.01,0,.04.04.08.13s.06.19.07.3c0,.06-.08.21-.26.45-.17.24-.35.5-.53.77-.11.15-.23.35-.38.58-.15.24-.31.47-.48.7-.17.23-.36.43-.55.61-.19.18-.38.29-.57.33-.19.07-.4.12-.65.16-.25.04-.51.07-.79.1-.28.03-.55.05-.84.08-.28.03-.54.04-.78.05-.03.15-.08.39-.15.73-.07.34-.13.77-.18,1.3s-.1,1.13-.13,1.8c-.04.67-.04,1.4,0,2.19.05,1.2.17,2.29.37,3.29.2,1,1.52-.05,1.88.65.36.69.76,1.22,1.19,1.59.43.36.87.52,1.32.47.26-.03.51-.13.74-.3.23-.17.44-.39.63-.64.19-.26.37-.53.53-.83.16-.3.29-.58.4-.86l.17-.5Z"/>
      <path class="cls-4" d="m106.3,39.63c.23-.53.49-1.09.78-1.67.29-.58.6-1.12.93-1.61.33-.49.67-.9,1.04-1.22s.74-.49,1.13-.51c.45-.02.88.13,1.29.45.41.32.78.79,1.11,1.42.33.63.6,1.39.81,2.27.21.88.34,1.88.39,2.98.09,2.25,0,4.31-.25,6.21s.51.65.22,2.11c-.29,1.46-.6,2.67-.94,3.65-.34.98-.59,1.62-.77,1.93-.05.09-.12.07-.2-.07-.08-.14-.1-.3-.05-.48.08-.18.19-.63.32-1.33.13-.7.25-1.59.34-2.66.1-1.07.15-2.28.17-3.63.02-1.35-.88.02-.94-1.53-.05-1.28-.16-2.42-.34-3.4-.17-.98-.38-1.81-.64-2.47-.25-.66-.53-1.16-.84-1.5s-.63-.5-.97-.49c-.23,0-.46.1-.71.27-.24.17-.47.41-.67.71-.21.33-.42.73-.61,1.21-.19.48-.33.96-.41,1.46-.02.12-.04.23-.05.33-.01.1-.03.25-.04.44-.01.19-.02.43-.03.72,0,.29,0,.69,0,1.18,0,.85,0,1.67.02,2.47.01.8.04,1.76.09,2.87.06,1.43,1.3.06,1.46.82s.43,1.18.8,1.25c.04,0,.08-.02.13-.04.05-.02.1-.05.16-.08.05-.03.1-.09.17-.15.04,0,.07.04.1.12.03.08.05.17.06.26s-.04.23-.16.41c-.12.19-.27.39-.46.6-.19.21-.4.43-.64.64-.24.22-.46.42-.66.62-.22.17-.41.32-.57.46-.16.13-.26.21-.33.21-.37.04-.6-.27-.67-.94-.02-.14-.01-.42,0-.84.02-.41,0-1.04-.06-1.89-.08-1.22-1.26-.25-1.26-1.72,0-1.47-.03-2.96-.06-4.44-.03-1.49-.06-2.95-.1-4.38-.04-1.43-.08-2.71-.13-3.85-.09-2.1-.17-3.88-.26-5.33-.09-1.46-.16-2.49-.21-3.1-.07-.76-.13-1.26-.17-1.5-.05-.25-.1-.47-.16-.67-.07-.26-.16-.44-.26-.54-.1-.1-.19-.16-.27-.19-.08-.03-.15-.03-.21-.01-.06.02-.08,0-.09-.06-.02-.41.03-.75.13-1.01s.25-.4.44-.41c.36-.01.74-.04,1.13-.09.39-.04.74-.1,1.07-.17.27-.07.52-.17.75-.29.23-.13.38-.22.45-.28.1-.03.15,0,.16.1.01.1.02.28.03.55,0,.17-.02.31-.08.4s-.13.17-.2.23c-.07.06-.14.12-.21.16s-.11.11-.13.2c-.04.18-.07.72-.09,1.62-.01.91-.01,2.05,0,3.44.01,1.39.04,2.93.07,4.62.04,1.69.08,3.4.14,5.12l.02.04Z"/>
      <path class="cls-11" d="m124.24,48.88c-.11.28-.26.64-.45,1.11-.19.46-.42.93-.68,1.4-.26.47-.57.88-.91,1.22-.34.35-.72.54-1.13.59-.62.07-1.21-.12-1.75-.58-.54-.45-1.03-1.09-1.45-1.91-.43-.82-.79-1.8-1.08-2.94-.3-1.14-1.39.7-1.44-.61-.06-1.54-.02-2.92.13-4.12.15-1.2.36-2.26.62-3.16.26-.9.55-1.66.86-2.27.31-.61.6-1.1.87-1.46.12-.18.27-.38.46-.59.19-.21.39-.41.62-.59s.47-.35.73-.49.54-.22.83-.23c.54-.02,1.07.12,1.59.42.52.3.99.79,1.41,1.45.42.67.77,1.54,1.05,2.61.28,1.07.45,2.36.52,3.88.05,1.22,0,2.38-.15,3.47-.15,1.09.49-1.64.32-.77s-.35,1.62-.54,2.24c-.19.62-.33,1.07-.41,1.34Zm-2.04.93c.71-.08,1.19-.76,1.43-2.05.24-1.29-.61.37-.71-2.23-.05-1.31-.18-2.53-.38-3.64s-.46-2.09-.78-2.92c-.32-.83-.67-1.48-1.07-1.95s-.81-.69-1.25-.67c-.31.01-.6.21-.87.6-.27.39-.49.95-.68,1.67-.18.72-.32,1.6-.4,2.62-.08,1.03-.1,2.18-.05,3.46.06,1.37.2,2.59.42,3.66s1.5-1.3,1.88-.6c.38.71.78,1.23,1.21,1.58.42.35.84.5,1.25.46Z"/>
      <path class="cls-12" d="m129.17,44.18c0,.26,0,.5,0,.7,0,.2,0,.44,0,.7s.7-3.42.73-3.03c.04.39.09.91.16,1.55.11,1.04.22,1.9.33,2.56.1.66.21,1.19.32,1.57.1.38.21.64.32.78.11.13.23.19.37.18.09,0,.18-.05.27-.12.03,0,.06.07.09.23.04.16.05.27.03.33-.06.15-.18.38-.37.68-.19.3-.41.6-.65.89-.25.29-.51.55-.78.79-.27.23-.51.36-.71.39-.18.02-.32-.02-.43-.11-.11-.09-.17-.21-.19-.35s-.02-.23-.01-.26c0-.03.02-.1.03-.22,0-.15,0-.33,0-.55s-.02-.47-.03-.77c-.02-.41-.05-.93-.1-1.55-.04-.63-.09-1.31-.15-2.05-.06-.74-.12-1.51-.19-2.31-.07-.8-.86,2.31-.89,1.55-.01-.32-.03-.72-.06-1.2-.03-.48-.06-1.1-.1-1.86-.05-.85-.12-1.56-.21-2.16-.09-.6-.2-1.07-.32-1.43-.12-.36-.25-.62-.39-.79-.14-.17-.27-.25-.4-.25h-.19c-.06.01-.12.03-.19.06-.05,0-.08-.13-.09-.39,0-.06,0-.11.02-.15.02-.04.07-.14.17-.29.15-.27.36-.6.62-.99.26-.39.53-.75.81-1.08.28-.33.54-.62.79-.86.25-.24.44-.37.58-.37.36-.01.57.46.6,1.42,0,.15.01.41.01.79,0,.38,0,.77.02,1.16,0,.39.01.77.02,1.12s0,.58,0,.7c.24-.59.5-1.2.77-1.83.28-.62.58-1.2.91-1.72.33-.52.68-.95,1.06-1.29.38-.34.77-.51,1.19-.53.75-.03,1.39.45,1.92,1.43s.83,2.57.92,4.76c.02.58.36-3.19.42-2.4.05.79.11,1.6.17,2.45.06.85.11,1.68.17,2.49.06.82.12,1.54.19,2.18.26,2.32.71,3.44,1.36,3.37.12-.01.26-.08.41-.2.14-.12.28-.25.41-.4.13-.15.24-.29.34-.43s.16-.26.19-.35c0-.03.03,0,.05.06.03.07.05.16.08.28.03.11.04.22.04.3s0,.15,0,.18c-.08.16-.27.46-.56.9-.29.44-.61.9-.97,1.36-.36.47-.72.89-1.08,1.26-.36.38-.66.58-.9.6-.29.03-.5-.11-.64-.41s-.23-.63-.27-.98c-.03-.23-.04-.52-.05-.88s-.03-.92-.06-1.71c-.04-.85-.1-1.84-.19-2.97s-.19-2.36-.34-3.66c-.28-2.55-1-.16-1.46-1.47s-1-1.95-1.62-1.93c-.39.02-.73.2-1.02.57s-.53.85-.71,1.45-.33,1.3-.42,2.08c-.09.78-.14,1.6-.15,2.48Z"/>
    </g>
  </g>
</svg>