<svg width="343" height="203" viewBox="0 0 343 203" fill="none" xmlns="http://www.w3.org/2000/svg">
<g clip-path="url(#clip0_64_287)">
<path d="M319.43 104.09C269.75 107.24 216.98 109.09 161.43 109.09C105.88 109.09 53.11 107.24 3.42999 104.09C70.93 65.59 112.54 84.25 2.42999 26.09C51.75 30.47 105.61 38.19 163.43 38.09C218.95 38 271.8 30.32 319.43 26.09C319.76 50.42 319.1 79.76 319.43 104.09Z" fill="#9FA4AF"/>
<path d="M319.43 101.59C299.6 102.84 279.75 103.87 259.89 104.65C239.15 105.47 218.39 106.03 197.64 106.33C176.18 106.64 154.72 106.68 133.27 106.43C112.4 106.19 91.54 105.7 70.68 104.94C49.82 104.18 30.74 103.25 10.79 102.04C8.34 101.89 5.88 101.74 3.43 101.58V106.58C15.08 99.95 27.25 94.33 39.68 89.32C47.71 86.08 56.14 83.37 63.81 79.31C65.85 78.23 68.12 76.96 69.48 75.02C69.96 74.34 70.28 73.58 70.36 72.75C70.54 71.09 70.43 69.34 70.39 67.68C70.38 67.2 70.35 66.74 70.24 66.27C69.66 63.92 67.67 62 65.94 60.44C62.59 57.44 58.76 54.95 54.97 52.56C40.55 43.5 25.32 35.68 10.28 27.71C7.67 26.32 5.05 24.94 2.43 23.56V28.56C21.98 30.3 41.48 32.47 61.01 34.43C81.77 36.52 102.55 38.38 123.39 39.48C145.21 40.63 167.07 40.88 188.91 40.02C210.75 39.16 231.42 37.41 252.61 35.32C272.55 33.35 292.47 31.09 312.42 29.2C314.76 28.98 317.1 28.76 319.44 28.56V28.22C319.7 48.61 319.3 69 319.32 89.39C319.32 95 319.35 100.61 319.43 106.22C319.44 107.17 319.46 105.41 319.46 105.32C319.46 104.18 319.46 103.04 319.46 101.9C319.19 81.51 319.58 61.12 319.57 40.73C319.57 35.12 319.54 29.51 319.46 23.9C319.46 23.79 319.46 23.67 319.45 23.56C299.67 25.32 279.94 27.55 260.18 29.56C239.13 31.7 218.05 33.6 196.91 34.66C175.77 35.72 153.17 35.81 131.31 34.86C110.32 33.95 89.38 32.21 68.48 30.17C48.79 28.25 29.12 26.05 9.42 24.2C7.1 23.98 4.77 23.77 2.45 23.56C2.72 23.58 2.06 28.35 2.45 28.56C18.47 37.02 34.62 45.36 50.19 54.64C54.58 57.25 58.95 59.94 63.02 63.04C65.35 64.81 67.84 66.78 69.39 69.31C69.9 70.14 70.14 70.94 70.37 71.87C70.62 72.87 70.45 67.45 70.39 67.67C70.37 67.76 70.39 67.86 70.36 67.95C70.31 68.13 70.29 68.33 70.24 68.51C70.13 68.91 69.95 69.28 69.75 69.64C68.64 71.51 66.6 72.76 64.76 73.8C57.76 77.75 49.89 80.26 42.44 83.22C30.76 87.86 19.26 92.94 8.21 98.93C6.61 99.79 5.03 100.68 3.45 101.58C3.13 101.76 3.59 106.59 3.45 106.58C23.28 107.83 43.13 108.86 62.99 109.64C83.73 110.46 104.49 111.02 125.24 111.32C146.7 111.63 168.16 111.67 189.61 111.42C210.48 111.18 231.34 110.69 252.2 109.93C273.06 109.17 292.14 108.24 312.09 107.03C314.54 106.88 317 106.73 319.45 106.57C319.59 106.57 319.38 101.57 319.45 101.57L319.43 101.59Z" fill="#62AEC9"/>
<path d="M341.62 22.84C341.19 22.49 334.58 17.29 324.32 17.98C316.12 18.53 309.1 22.61 307.15 28.12C307.37 54.79 307.59 81.45 307.81 108.12C314.58 113.22 325.27 114.61 332.94 111.91C340.57 109.23 342.09 103.6 342.28 102.83C342.06 76.16 341.84 49.5 341.62 22.83V22.84Z" fill="#6E829B"/>
<path d="M341.62 20.34C338.11 17.5 333.3 15.99 328.88 15.55C321.96 14.87 313.56 16.73 309 22.38C308.2 23.37 307.27 24.67 307.14 25.96C306.89 28.54 307.14 31.27 307.17 33.86C307.21 38.66 307.25 43.47 307.29 48.27C307.37 58.04 307.45 67.81 307.53 77.59C307.61 87.37 307.69 97.13 307.77 106.91C307.77 107.96 307.57 109.26 307.8 110.28C307.89 110.67 307.83 110.64 308.24 110.93C308.63 111.21 309.02 111.47 309.43 111.72C310.94 112.65 312.55 113.4 314.21 114C317.68 115.24 321.4 115.83 325.08 115.75C331.24 115.63 338.14 113.49 341.3 107.77C341.65 107.13 341.99 106.44 342.18 105.73C342.55 104.35 342.32 102.74 342.31 101.32C342.28 96.43 342.23 91.55 342.19 86.66C342.03 67.2 341.87 47.74 341.71 28.28L341.65 21.08C341.65 21.19 341.65 20.35 341.63 20.35C341.61 20.35 341.61 21.2 341.61 21.08C341.6 22.26 341.61 23.44 341.61 24.62C341.78 45.41 341.95 66.19 342.12 86.98C342.17 92.86 342.22 98.74 342.26 104.62L342.28 100.35C341.41 103.85 338.58 106.68 335.49 108.32C330.02 111.22 323.18 111.34 317.26 109.92C313.87 109.11 310.62 107.71 307.81 105.63L307.83 106.36C307.66 85.57 307.49 64.79 307.32 44L307.18 26.36L307.16 30.63C309.2 25.15 315.13 22.14 320.54 21.01C326.43 19.78 332.69 20.51 338.09 23.18C339.32 23.79 340.55 24.48 341.63 25.35C341.43 25.18 341.65 23.17 341.65 22.85C341.65 22.26 341.65 21.67 341.65 21.08C341.65 20.96 341.71 20.41 341.63 20.35L341.62 20.34Z" fill="#62AEC9"/>
<path d="M144.129 61.8217C144.025 62.3556 143.771 62.8829 143.367 63.4037C142.977 63.9116 142.534 64.3478 142.039 64.7123C141.974 64.7774 141.844 64.8491 141.648 64.9272C141.466 65.0053 141.264 65.0899 141.043 65.1811C140.835 65.2592 140.626 65.3308 140.418 65.3959C140.21 65.461 140.047 65.5001 139.93 65.5131C139.826 65.5392 139.741 65.5327 139.676 65.4936C139.624 65.4545 139.572 65.409 139.52 65.3569C139.467 65.3048 139.402 65.2592 139.324 65.2202C139.259 65.1681 139.161 65.142 139.031 65.142C138.875 65.142 138.777 65.1095 138.738 65.0444C138.712 64.9662 138.732 64.8295 138.797 64.6342C138.823 64.5691 138.868 64.478 138.934 64.3608C138.999 64.2436 139.103 64.0939 139.246 63.9116C139.35 63.7944 139.435 63.6642 139.5 63.5209C139.578 63.3777 139.591 63.2475 139.539 63.1303C139.5 63.0001 139.376 62.8959 139.168 62.8178C138.96 62.7397 138.634 62.7006 138.191 62.7006C137.736 62.7006 137.15 62.7592 136.434 62.8764C135.652 62.9806 134.839 63.1759 133.992 63.4623C133.159 63.7488 132.345 64.0808 131.551 64.4584C130.77 64.836 130.047 65.2397 129.383 65.6694C128.719 66.0991 128.172 66.5222 127.742 66.9389C127.326 67.3425 127.059 67.7267 126.941 68.0912C126.824 68.4428 126.922 68.7293 127.234 68.9506C127.508 69.1459 127.924 69.3152 128.484 69.4584C129.044 69.5886 129.689 69.7123 130.418 69.8295C131.147 69.9337 131.928 70.0509 132.762 70.1811C133.595 70.2983 134.422 70.4415 135.242 70.6108C136.076 70.78 136.863 70.9884 137.605 71.2358C138.361 71.4832 139.025 71.7892 139.598 72.1537C140.001 72.4272 140.34 72.6876 140.613 72.935C140.887 73.1824 141.108 73.4298 141.277 73.6772C141.447 73.9116 141.583 74.1459 141.688 74.3803C141.792 74.6017 141.883 74.8295 141.961 75.0639C142.013 75.2071 142.104 75.3699 142.234 75.5522C142.378 75.7215 142.527 75.9298 142.684 76.1772C142.84 76.4246 142.983 76.711 143.113 77.0366C143.243 77.3491 143.328 77.7202 143.367 78.1498C143.419 79.0092 143.243 79.823 142.84 80.5912C142.449 81.3595 141.935 82.0691 141.297 82.7202C140.672 83.3712 139.975 83.9571 139.207 84.478C138.439 84.9858 137.703 85.409 137 85.7475C136.388 86.047 135.737 86.3269 135.047 86.5873C134.357 86.8478 133.647 87.0756 132.918 87.2709C132.189 87.4532 131.447 87.5965 130.691 87.7006C129.949 87.8178 129.214 87.8764 128.484 87.8764C127.273 87.8764 126.134 87.7071 125.066 87.3686C124.012 87.0431 123.094 86.4897 122.312 85.7084C121.935 85.3048 121.661 84.9011 121.492 84.4975C121.323 84.0808 121.238 83.6707 121.238 83.267C121.238 82.7853 121.336 82.3165 121.531 81.8608C121.727 81.405 121.98 80.9754 122.293 80.5717C122.605 80.1681 122.951 79.81 123.328 79.4975C123.706 79.172 124.077 78.9116 124.441 78.7162C124.949 78.4298 125.477 78.1564 126.023 77.8959C126.583 77.6225 127.143 77.3816 127.703 77.1733C128.263 76.9519 128.823 76.7696 129.383 76.6264C129.943 76.4832 130.483 76.392 131.004 76.353C131.225 76.3269 131.505 76.3009 131.844 76.2748C132.182 76.2488 132.501 76.2358 132.801 76.2358C132.996 76.2358 133.159 76.2879 133.289 76.392C133.419 76.4962 133.471 76.5873 133.445 76.6655C133.38 76.8087 133.263 76.8803 133.094 76.8803C132.938 76.8803 132.749 76.9064 132.527 76.9584C132.28 77.0235 132.033 77.0691 131.785 77.0952C131.538 77.1212 131.316 77.1668 131.121 77.2319C129.637 77.5704 128.38 78.0001 127.352 78.5209C126.336 79.0418 125.522 79.5691 124.91 80.103C124.311 80.6368 123.901 81.1446 123.68 81.6264C123.458 82.0952 123.393 82.4532 123.484 82.7006C123.615 83.0522 123.855 83.3256 124.207 83.5209C124.559 83.7162 124.956 83.8595 125.398 83.9506C125.841 84.0287 126.29 84.0743 126.746 84.0873C127.202 84.1004 127.592 84.0939 127.918 84.0678C128.673 84.0287 129.513 83.9181 130.438 83.7358C131.375 83.5535 132.319 83.3126 133.27 83.0131C134.233 82.7136 135.171 82.3621 136.082 81.9584C136.993 81.5418 137.801 81.0925 138.504 80.6108C139.207 80.116 139.773 79.5886 140.203 79.0287C140.633 78.4558 140.848 77.8569 140.848 77.2319C140.848 77.0235 140.815 76.8217 140.75 76.6264C140.698 76.4181 140.62 76.2032 140.516 75.9819C140.32 75.6043 139.949 75.2853 139.402 75.0248C138.855 74.7514 138.198 74.5235 137.43 74.3412C136.674 74.1459 135.848 73.9767 134.949 73.8334C134.064 73.6772 133.185 73.5209 132.312 73.3647C131.453 73.2084 130.633 73.0327 129.852 72.8373C129.07 72.642 128.413 72.4011 127.879 72.1147C127.28 71.7892 126.837 71.4702 126.551 71.1577C126.277 70.8321 126.121 70.4285 126.082 69.9467C126.069 69.8946 126.03 69.8035 125.965 69.6733C125.9 69.5431 125.822 69.4064 125.73 69.2631C125.652 69.1199 125.574 68.9832 125.496 68.853C125.418 68.7228 125.359 68.6186 125.32 68.5405C125.112 68.1629 125.008 67.7527 125.008 67.31C125.008 66.8152 125.118 66.3074 125.34 65.7866C125.574 65.2657 125.861 64.8165 126.199 64.4389C126.824 63.7228 127.645 63.0587 128.66 62.4467C129.689 61.8347 130.809 61.3009 132.02 60.8452C133.23 60.3894 134.474 60.0248 135.75 59.7514C137.039 59.4649 138.257 59.3022 139.402 59.2631C139.871 59.2501 140.398 59.2827 140.984 59.3608C141.57 59.4389 142.111 59.5821 142.605 59.7905C143.113 59.9858 143.517 60.2527 143.816 60.5912C144.116 60.9168 144.22 61.3269 144.129 61.8217ZM158.602 87.1928C158.602 87.31 158.504 87.4532 158.309 87.6225C158.113 87.7918 157.866 87.8764 157.566 87.8764C157.475 87.8764 157.306 87.8308 157.059 87.7397C156.824 87.6485 156.577 87.5118 156.316 87.3295C156.056 87.1603 155.822 86.9519 155.613 86.7045C155.405 86.4441 155.294 86.1511 155.281 85.8256C155.255 85.6824 155.242 85.4871 155.242 85.2397C155.242 84.9793 155.242 84.6798 155.242 84.3412C155.242 83.8204 155.242 83.241 155.242 82.603C155.242 81.9649 155.255 81.3204 155.281 80.6694C155.19 81.1381 155.079 81.6264 154.949 82.1342C154.819 82.629 154.656 83.1238 154.461 83.6186C154.266 84.1134 154.038 84.6017 153.777 85.0834C153.517 85.5652 153.217 86.0274 152.879 86.4702C152.697 86.7045 152.501 86.9064 152.293 87.0756C152.098 87.2319 151.902 87.3621 151.707 87.4662C151.512 87.5834 151.329 87.6681 151.16 87.7202C150.991 87.7722 150.861 87.7983 150.77 87.7983C150.717 87.7983 150.594 87.7397 150.398 87.6225C150.216 87.5183 149.995 87.3816 149.734 87.2123C149.487 87.03 149.22 86.8347 148.934 86.6264C148.647 86.405 148.374 86.1902 148.113 85.9819C147.853 85.7605 147.618 85.5587 147.41 85.3764C147.202 85.1811 147.052 85.0248 146.961 84.9077C146.87 84.7774 146.785 84.5561 146.707 84.2436C146.642 83.9311 146.583 83.547 146.531 83.0912C146.479 82.6355 146.434 82.1212 146.395 81.5483C146.368 80.9754 146.355 80.3634 146.355 79.7123C146.355 79.3608 146.362 78.905 146.375 78.3452C146.388 77.7853 146.414 77.1863 146.453 76.5483C146.492 75.8972 146.538 75.2462 146.59 74.5952C146.655 73.9311 146.727 73.3386 146.805 72.8178C146.896 72.284 147 71.8543 147.117 71.5287C147.234 71.1902 147.371 71.0209 147.527 71.0209C147.632 71.0209 147.814 71.0535 148.074 71.1186C148.335 71.1707 148.602 71.1967 148.875 71.1967C149.279 71.1967 149.559 71.1642 149.715 71.0991C149.884 71.0209 150.008 70.9819 150.086 70.9819C150.216 70.9819 150.281 71.0925 150.281 71.3139C150.281 71.379 150.281 71.4441 150.281 71.5092C150.281 71.5613 150.268 71.6264 150.242 71.7045C150.229 71.7827 150.197 71.9845 150.145 72.31C150.105 72.6355 150.053 73.0522 149.988 73.56C149.923 74.0678 149.858 74.6407 149.793 75.2787C149.728 75.9037 149.663 76.5613 149.598 77.2514C149.546 77.9415 149.5 78.6381 149.461 79.3412C149.422 80.0444 149.402 80.7149 149.402 81.353C149.402 81.7827 149.409 82.2123 149.422 82.642C149.448 83.0717 149.487 83.4623 149.539 83.8139C149.591 84.1655 149.663 84.4519 149.754 84.6733C149.845 84.8816 149.956 84.9858 150.086 84.9858C150.203 84.9858 150.366 84.9337 150.574 84.8295C150.796 84.7123 151.049 84.4845 151.336 84.1459C151.635 83.8074 151.961 83.3256 152.312 82.7006C152.664 82.0756 153.042 81.2488 153.445 80.2202C153.862 79.1785 154.292 77.909 154.734 76.4116C155.19 74.9011 155.652 73.1043 156.121 71.0209C156.121 70.9819 156.141 70.9558 156.18 70.9428C156.232 70.9168 156.29 70.9037 156.355 70.9037C156.525 70.9037 156.74 70.9233 157 70.9623C157.26 70.9884 157.508 71.034 157.742 71.0991C157.99 71.1511 158.198 71.2162 158.367 71.2944C158.549 71.3725 158.641 71.4571 158.641 71.5483C158.641 72.1342 158.615 72.7722 158.562 73.4623C158.51 74.1524 158.452 74.8686 158.387 75.6108C158.322 76.3399 158.263 77.0886 158.211 77.8569C158.159 78.6251 158.133 79.3868 158.133 80.142C158.133 81.4962 158.172 82.7918 158.25 84.0287C158.341 85.2527 158.458 86.3074 158.602 87.1928ZM167.039 61.8217C167.052 62.0821 167.039 62.3751 167 62.7006C166.974 63.0131 166.922 63.3191 166.844 63.6186C166.779 63.9181 166.681 64.185 166.551 64.4194C166.434 64.6537 166.29 64.8165 166.121 64.9077C165.691 65.129 165.314 65.2397 164.988 65.2397C164.728 65.2397 164.5 65.1811 164.305 65.0639C164.122 64.9337 163.94 64.7905 163.758 64.6342C163.497 64.4259 163.276 64.1524 163.094 63.8139C162.924 63.4754 162.84 63.1498 162.84 62.8373C162.84 62.5899 162.879 62.2905 162.957 61.9389C163.048 61.5743 163.159 61.2228 163.289 60.8842C163.419 60.5457 163.556 60.2397 163.699 59.9662C163.855 59.6798 164.005 59.4845 164.148 59.3803C164.37 59.198 164.572 59.1004 164.754 59.0873C164.949 59.0613 165.105 59.0678 165.223 59.1069C165.509 59.172 165.763 59.2566 165.984 59.3608C166.206 59.4519 166.388 59.6017 166.531 59.81C166.688 60.0053 166.805 60.2657 166.883 60.5912C166.961 60.9168 167.013 61.3269 167.039 61.8217ZM165.438 70.5522C165.503 70.6173 165.548 70.8321 165.574 71.1967C165.613 71.5613 165.633 72.0366 165.633 72.6225C165.633 73.0131 165.626 73.4363 165.613 73.892C165.6 74.3478 165.581 74.8165 165.555 75.2983C165.542 75.78 165.522 76.2683 165.496 76.7631C165.47 77.2449 165.451 77.7071 165.438 78.1498C165.398 78.879 165.372 79.5561 165.359 80.1811C165.359 80.7931 165.359 81.3855 165.359 81.9584C165.359 82.7136 165.366 83.4037 165.379 84.0287C165.392 84.6537 165.398 85.1746 165.398 85.5912C165.398 86.047 165.379 86.3985 165.34 86.6459C165.314 86.8803 165.249 87.0105 165.145 87.0366C165.027 87.0626 164.93 87.1212 164.852 87.2123C164.773 87.2905 164.702 87.3686 164.637 87.4467C164.572 87.5248 164.493 87.5899 164.402 87.642C164.324 87.7071 164.227 87.7267 164.109 87.7006C164.044 87.6876 163.934 87.629 163.777 87.5248C163.621 87.4207 163.452 87.297 163.27 87.1537C163.1 86.9975 162.938 86.8217 162.781 86.6264C162.625 86.4311 162.521 86.2293 162.469 86.0209C162.443 85.9168 162.417 85.7084 162.391 85.3959C162.378 85.0834 162.365 84.7058 162.352 84.2631C162.339 83.8204 162.326 83.3321 162.312 82.7983C162.299 82.2514 162.286 81.7045 162.273 81.1577C162.273 80.5978 162.273 80.0509 162.273 79.517C162.273 78.9832 162.273 78.5014 162.273 78.0717C162.273 77.4077 162.293 76.7306 162.332 76.0405C162.384 75.3504 162.436 74.7058 162.488 74.1069C162.553 73.5079 162.612 72.9871 162.664 72.5444C162.729 72.0886 162.775 71.7696 162.801 71.5873C162.853 71.2748 162.905 71.034 162.957 70.8647C163.022 70.6824 163.087 70.5522 163.152 70.4741C163.23 70.3959 163.302 70.3504 163.367 70.3373C163.445 70.3113 163.523 70.2918 163.602 70.2787C163.758 70.2527 163.934 70.2462 164.129 70.2592C164.337 70.2722 164.533 70.2918 164.715 70.3178C164.897 70.3439 165.053 70.3829 165.184 70.435C165.327 70.4741 165.411 70.5131 165.438 70.5522ZM182.156 71.8217C182.117 71.8998 182.007 72.1342 181.824 72.5248C181.642 72.9155 181.408 73.4103 181.121 74.0092C180.848 74.5952 180.529 75.2722 180.164 76.0405C179.812 76.7957 179.441 77.5834 179.051 78.4037C178.673 79.2241 178.289 80.0574 177.898 80.9037C177.508 81.7501 177.13 82.5574 176.766 83.3256C176.414 84.0808 176.089 84.7774 175.789 85.4155C175.503 86.0535 175.262 86.5808 175.066 86.9975C175.001 87.1147 174.923 87.2319 174.832 87.3491C174.754 87.4662 174.669 87.5704 174.578 87.6616C174.487 87.7527 174.389 87.8243 174.285 87.8764C174.194 87.9415 174.109 87.9675 174.031 87.9545C173.953 87.9545 173.862 87.9415 173.758 87.9155C173.667 87.8894 173.582 87.8764 173.504 87.8764C173.465 87.8894 173.432 87.9155 173.406 87.9545C173.38 87.9936 173.348 88.0261 173.309 88.0522C173.283 88.0782 173.243 88.0912 173.191 88.0912C173.152 88.0912 173.1 88.0587 173.035 87.9936C172.983 87.9415 172.924 87.9024 172.859 87.8764C172.794 87.8634 172.729 87.8504 172.664 87.8373C172.612 87.8243 172.56 87.8048 172.508 87.7787C172.469 87.7527 172.443 87.7006 172.43 87.6225C172.391 87.4272 172.306 87.1537 172.176 86.8022C172.059 86.4376 171.889 85.9233 171.668 85.2592C171.447 84.5821 171.167 83.7228 170.828 82.6811C170.503 81.6394 170.118 80.3439 169.676 78.7944C169.48 78.1173 169.266 77.4142 169.031 76.685C168.797 75.9428 168.569 75.2527 168.348 74.6147C168.139 73.9767 167.951 73.4233 167.781 72.9545C167.625 72.4728 167.521 72.1537 167.469 71.9975C167.352 71.698 167.312 71.4962 167.352 71.392C167.378 71.2879 167.482 71.2488 167.664 71.2748C167.781 71.3009 167.918 71.3334 168.074 71.3725C168.23 71.3985 168.38 71.4311 168.523 71.4702C168.68 71.5092 168.816 71.5483 168.934 71.5873C169.064 71.6264 169.161 71.6524 169.227 71.6655C169.279 71.6915 169.311 71.6915 169.324 71.6655C169.35 71.6394 169.37 71.6134 169.383 71.5873C169.409 71.5483 169.435 71.5157 169.461 71.4897C169.5 71.4506 169.559 71.4311 169.637 71.4311C169.715 71.4311 169.767 71.4246 169.793 71.4116C169.832 71.3855 169.865 71.366 169.891 71.353C169.917 71.3269 169.949 71.3074 169.988 71.2944C170.04 71.2683 170.118 71.2488 170.223 71.2358C170.444 71.2358 170.587 71.2618 170.652 71.3139C170.73 71.353 170.789 71.4441 170.828 71.5873C170.841 71.6264 170.9 71.8803 171.004 72.3491C171.121 72.8178 171.271 73.4168 171.453 74.1459C171.648 74.8621 171.863 75.6694 172.098 76.5678C172.345 77.4532 172.599 78.3321 172.859 79.2045C173.133 80.0769 173.406 80.8972 173.68 81.6655C173.966 82.4337 174.24 83.0587 174.5 83.5405C174.617 83.2931 174.786 82.9285 175.008 82.4467C175.242 81.9649 175.503 81.4116 175.789 80.7866C176.089 80.1616 176.408 79.491 176.746 78.7748C177.098 78.0457 177.443 77.323 177.781 76.6069C178.133 75.8777 178.465 75.1746 178.777 74.4975C179.103 73.8074 179.396 73.1889 179.656 72.642C179.93 72.0952 180.151 71.6459 180.32 71.2944C180.503 70.9298 180.62 70.7084 180.672 70.6303C180.724 70.5392 180.763 70.4871 180.789 70.4741C180.828 70.448 180.867 70.4415 180.906 70.4545C180.945 70.4675 180.984 70.4936 181.023 70.5327C181.062 70.5717 181.115 70.6043 181.18 70.6303C181.297 70.6954 181.421 70.7735 181.551 70.8647C181.681 70.9558 181.798 71.0535 181.902 71.1577C182.02 71.2618 182.104 71.3725 182.156 71.4897C182.208 71.6069 182.208 71.7175 182.156 71.8217ZM194.969 75.8647C194.982 76.3204 194.943 76.8803 194.852 77.5444C194.76 78.1954 194.656 78.8985 194.539 79.6537C194.422 80.3959 194.311 81.1577 194.207 81.9389C194.103 82.7202 194.051 83.4558 194.051 84.1459C194.051 84.6017 194.083 85.0379 194.148 85.4545C194.214 85.8582 194.324 86.2097 194.48 86.5092C194.572 86.6785 194.617 86.8282 194.617 86.9584C194.63 87.0886 194.624 87.2058 194.598 87.31C194.572 87.4011 194.546 87.4793 194.52 87.5444C194.493 87.6225 194.493 87.6941 194.52 87.7592C194.546 87.8243 194.539 87.8959 194.5 87.9741C194.461 88.0652 194.402 88.1433 194.324 88.2084C194.246 88.2866 194.155 88.3386 194.051 88.3647C193.96 88.4037 193.875 88.3972 193.797 88.3452C193.654 88.254 193.536 88.2019 193.445 88.1889C193.367 88.1759 193.296 88.1759 193.23 88.1889C193.178 88.2149 193.126 88.241 193.074 88.267C193.035 88.2931 192.983 88.2931 192.918 88.267C192.697 88.1498 192.456 88.0131 192.195 87.8569C191.935 87.7006 191.766 87.5314 191.688 87.3491C191.635 87.2709 191.583 87.1407 191.531 86.9584C191.492 86.7761 191.453 86.5613 191.414 86.3139C191.388 86.0665 191.362 85.7996 191.336 85.5131C191.31 85.2267 191.29 84.9467 191.277 84.6733C190.848 85.4806 190.385 86.1511 189.891 86.685C189.409 87.2189 188.921 87.642 188.426 87.9545C187.944 88.28 187.462 88.5079 186.98 88.6381C186.512 88.7683 186.082 88.8334 185.691 88.8334C185.288 88.8334 184.93 88.7814 184.617 88.6772C184.318 88.573 184.083 88.4493 183.914 88.3061C183.276 87.6681 182.82 87.1537 182.547 86.7631C182.286 86.3595 182.169 86.034 182.195 85.7866C182.26 84.9532 182.462 84.185 182.801 83.4819C183.139 82.7787 183.562 82.1342 184.07 81.5483C184.578 80.9493 185.145 80.4155 185.77 79.9467C186.408 79.4649 187.052 79.0418 187.703 78.6772C188.367 78.2996 189.018 77.9871 189.656 77.7397C190.294 77.4793 190.874 77.2709 191.395 77.1147C191.368 76.4116 191.336 75.7996 191.297 75.2787C191.271 74.7449 191.225 74.3543 191.16 74.1069C190.965 73.2996 190.665 72.7006 190.262 72.31C189.858 71.9064 189.37 71.7045 188.797 71.7045C188.432 71.7045 188.061 71.8412 187.684 72.1147C187.319 72.3881 186.987 72.7592 186.688 73.228C186.388 73.6967 186.141 74.2371 185.945 74.8491C185.763 75.461 185.665 76.1056 185.652 76.7827C185.652 76.9519 185.659 77.1147 185.672 77.2709C185.685 77.4272 185.704 77.5899 185.73 77.7592C185.743 77.8504 185.711 77.9155 185.633 77.9545C185.568 77.9936 185.483 78.0261 185.379 78.0522C185.275 78.0652 185.164 78.0782 185.047 78.0912C184.93 78.1043 184.832 78.1238 184.754 78.1498C184.689 78.1759 184.637 78.1954 184.598 78.2084C184.559 78.2084 184.52 78.2019 184.48 78.1889C184.441 78.1629 184.389 78.1238 184.324 78.0717C184.272 78.0196 184.194 77.9545 184.09 77.8764C183.986 77.7983 183.875 77.7332 183.758 77.6811C183.654 77.629 183.556 77.5834 183.465 77.5444C183.387 77.5053 183.315 77.4728 183.25 77.4467C183.198 77.4077 183.172 77.3621 183.172 77.31C183.172 76.5027 183.348 75.6694 183.699 74.81C184.064 73.9506 184.546 73.1694 185.145 72.4662C185.757 71.7501 186.46 71.1642 187.254 70.7084C188.061 70.2527 188.914 70.0248 189.812 70.0248C190.542 70.0248 191.173 70.1355 191.707 70.3569C192.241 70.5782 192.697 70.8647 193.074 71.2162C193.452 71.5678 193.758 71.9584 193.992 72.3881C194.24 72.8178 194.428 73.254 194.559 73.6967C194.702 74.1264 194.799 74.5366 194.852 74.9272C194.917 75.3048 194.956 75.6173 194.969 75.8647ZM191.434 79.3412C191.043 79.4845 190.613 79.6733 190.145 79.9077C189.676 80.142 189.201 80.422 188.719 80.7475C188.237 81.06 187.755 81.4246 187.273 81.8412C186.792 82.2579 186.342 82.7202 185.926 83.228C185.431 83.8139 185.073 84.3347 184.852 84.7905C184.63 85.2462 184.493 85.6368 184.441 85.9623C184.389 86.2748 184.402 86.5222 184.48 86.7045C184.559 86.8868 184.65 86.9975 184.754 87.0366C185.158 87.1928 185.574 87.2123 186.004 87.0952C186.447 86.9649 186.883 86.7436 187.312 86.4311C187.755 86.1056 188.178 85.7215 188.582 85.2787C188.999 84.823 189.389 84.3608 189.754 83.892C190.118 83.4103 190.444 82.9415 190.73 82.4858C191.017 82.017 191.251 81.6134 191.434 81.2748V79.3412ZM210.086 86.4702C210.086 86.6264 210.027 86.8022 209.91 86.9975C209.806 87.1798 209.65 87.2709 209.441 87.2709C209.324 87.2709 209.233 87.2384 209.168 87.1733C209.103 87.1082 209.038 87.0756 208.973 87.0756C208.882 87.0756 208.79 87.1082 208.699 87.1733C208.621 87.2384 208.484 87.2709 208.289 87.2709C208.029 87.2709 207.801 87.1798 207.605 86.9975C207.423 86.8022 207.273 86.5613 207.156 86.2748C207.039 85.9754 206.948 85.6564 206.883 85.3178C206.831 84.9662 206.805 84.6407 206.805 84.3412C206.805 83.7553 206.824 83.0912 206.863 82.3491C206.915 81.5939 206.967 80.8256 207.02 80.0444C207.085 79.2501 207.137 78.4623 207.176 77.6811C207.228 76.8998 207.254 76.1772 207.254 75.5131C207.254 74.6277 207.195 73.9376 207.078 73.4428C206.961 72.948 206.753 72.7006 206.453 72.7006C206.167 72.7397 205.874 72.9871 205.574 73.4428C205.275 73.8985 204.969 74.4845 204.656 75.2006C204.344 75.9037 204.038 76.7045 203.738 77.603C203.439 78.4884 203.146 79.3998 202.859 80.3373C202.586 81.2618 202.326 82.1668 202.078 83.0522C201.831 83.9246 201.609 84.7058 201.414 85.3959C201.219 86.086 201.049 86.6459 200.906 87.0756C200.763 87.4923 200.665 87.7006 200.613 87.7006C200.509 87.7006 200.431 87.6746 200.379 87.6225C200.327 87.5834 200.275 87.5379 200.223 87.4858C200.184 87.4337 200.132 87.3816 200.066 87.3295C200.001 87.2905 199.904 87.2709 199.773 87.2709C199.656 87.2709 199.578 87.284 199.539 87.31C199.5 87.336 199.454 87.3686 199.402 87.4077C199.35 87.4467 199.285 87.4793 199.207 87.5053C199.129 87.5314 198.992 87.5444 198.797 87.5444C198.562 87.5444 198.328 87.4858 198.094 87.3686C197.872 87.2514 197.762 87.0691 197.762 86.8217C197.762 86.6655 197.788 86.3465 197.84 85.8647C197.892 85.3699 197.951 84.7709 198.016 84.0678C198.094 83.3517 198.172 82.5574 198.25 81.685C198.341 80.7996 198.419 79.8881 198.484 78.9506C198.562 78.0131 198.628 77.0756 198.68 76.1381C198.732 75.2006 198.758 74.3087 198.758 73.4623C198.758 73.0457 198.751 72.6616 198.738 72.31C198.725 71.9454 198.719 71.6004 198.719 71.2748C198.719 71.1967 198.758 71.1577 198.836 71.1577C198.992 71.1577 199.109 71.1902 199.188 71.2553C199.279 71.3074 199.344 71.366 199.383 71.4311C199.422 71.4962 199.441 71.5613 199.441 71.6264C199.454 71.6785 199.467 71.7045 199.48 71.7045C199.52 71.7045 199.565 71.685 199.617 71.6459C199.669 71.5939 199.721 71.5418 199.773 71.4897C199.839 71.4376 199.897 71.392 199.949 71.353C200.001 71.3009 200.047 71.2748 200.086 71.2748H200.281C200.477 71.2748 200.613 71.2488 200.691 71.1967C200.77 71.1316 200.822 71.0665 200.848 71.0014C200.887 70.9233 200.913 70.8582 200.926 70.8061C200.939 70.741 200.978 70.7084 201.043 70.7084C201.082 70.7084 201.134 70.741 201.199 70.8061C201.277 70.8582 201.349 70.9558 201.414 71.0991C201.492 71.2293 201.557 71.405 201.609 71.6264C201.661 71.8478 201.688 72.1147 201.688 72.4272C201.688 72.8439 201.668 73.3712 201.629 74.0092C201.603 74.6472 201.564 75.3308 201.512 76.06C201.473 76.7761 201.434 77.5053 201.395 78.2475C201.355 78.9767 201.329 79.6407 201.316 80.2397C201.46 79.6798 201.629 79.0613 201.824 78.3842C202.033 77.6941 202.267 76.9975 202.527 76.2944C202.801 75.5912 203.094 74.9077 203.406 74.2436C203.719 73.5665 204.057 72.9675 204.422 72.4467C204.786 71.9259 205.171 71.5092 205.574 71.1967C205.978 70.8712 206.401 70.7084 206.844 70.7084C207.547 70.7084 208.12 70.8386 208.562 71.0991C209.018 71.3595 209.376 71.7175 209.637 72.1733C209.897 72.629 210.073 73.1629 210.164 73.7748C210.268 74.3868 210.32 75.0444 210.32 75.7475C210.32 76.3465 210.294 76.978 210.242 77.642C210.19 78.2931 210.132 78.9506 210.066 79.6147C210.014 80.2657 209.962 80.9103 209.91 81.5483C209.871 82.1863 209.852 82.7853 209.852 83.3452C209.852 84.0353 209.891 84.6603 209.969 85.2202C210.047 85.767 210.086 86.1837 210.086 86.4702ZM219.148 64.3412C219.148 64.4194 219.135 64.6277 219.109 64.9662C219.083 65.2918 219.044 65.728 218.992 66.2748C218.953 66.8217 218.901 67.4597 218.836 68.1889C218.771 68.905 218.706 69.6798 218.641 70.5131C219.461 70.409 220.236 70.3308 220.965 70.2787C221.707 70.2136 222.332 70.1811 222.84 70.1811C223.009 70.1811 223.159 70.2136 223.289 70.2787C223.419 70.3439 223.523 70.422 223.602 70.5131C223.693 70.5912 223.764 70.6824 223.816 70.7866C223.868 70.8777 223.901 70.9558 223.914 71.0209C223.914 71.086 223.921 71.1511 223.934 71.2162C223.947 71.2683 223.953 71.3269 223.953 71.392C223.953 71.6524 223.836 71.9129 223.602 72.1733C223.38 72.4337 223.042 72.5965 222.586 72.6616L218.426 73.1108C218.361 74.0483 218.302 75.0118 218.25 76.0014C218.198 76.991 218.146 77.9806 218.094 78.9702C218.055 79.9467 218.022 80.9103 217.996 81.8608C217.97 82.8113 217.957 83.7097 217.957 84.5561C217.957 85.103 217.97 85.5457 217.996 85.8842C218.022 86.2228 218.035 86.4441 218.035 86.5483C218.035 86.7696 217.99 86.991 217.898 87.2123C217.82 87.4207 217.723 87.6095 217.605 87.7787C217.501 87.961 217.384 88.1043 217.254 88.2084C217.137 88.3256 217.039 88.3842 216.961 88.3842C216.492 88.3842 216.121 88.2345 215.848 87.935C215.574 87.6485 215.366 87.2579 215.223 86.7631C215.092 86.2683 215.008 85.7019 214.969 85.0639C214.93 84.4259 214.91 83.7618 214.91 83.0717C214.91 81.4441 214.956 79.8165 215.047 78.1889C215.138 76.5483 215.268 74.9728 215.438 73.4623L212.996 73.7553C212.957 73.7553 212.918 73.7618 212.879 73.7748C212.84 73.7879 212.794 73.7944 212.742 73.7944C212.495 73.7944 212.299 73.7358 212.156 73.6186C212 73.5014 211.883 73.3647 211.805 73.2084C211.727 73.0522 211.681 72.8959 211.668 72.7397C211.642 72.5704 211.629 72.4402 211.629 72.3491C211.629 72.1668 211.655 71.9975 211.707 71.8412C211.759 71.685 211.857 71.5873 212 71.5483C212.273 71.4441 212.749 71.3334 213.426 71.2162C214.116 71.086 214.891 70.9558 215.75 70.8256C215.893 69.7709 216.036 68.8074 216.18 67.935C216.336 67.0496 216.486 66.2879 216.629 65.6498C216.772 64.9988 216.902 64.4975 217.02 64.1459C217.15 63.7814 217.26 63.5991 217.352 63.5991C217.378 63.5991 217.41 63.6056 217.449 63.6186C217.488 63.6316 217.521 63.6381 217.547 63.6381C217.625 63.6381 217.684 63.5991 217.723 63.5209C217.775 63.4298 217.866 63.3842 217.996 63.3842C218.113 63.3842 218.237 63.4233 218.367 63.5014C218.51 63.5665 218.634 63.6511 218.738 63.7553C218.855 63.8595 218.953 63.9702 219.031 64.0873C219.109 64.1915 219.148 64.2761 219.148 64.3412Z" fill="black"/>
</g>
<defs>
<clipPath id="clip0_64_287">
<rect width="342.77" height="201.77" fill="white" transform="translate(0 0.309998)"/>
</clipPath>
</defs>
</svg>
