<?xml version="1.0" encoding="UTF-8"?>
<svg id="Layer_2" data-name="Layer 2" xmlns="http://www.w3.org/2000/svg" xmlns:xlink="http://www.w3.org/1999/xlink" viewBox="0 0 342.77 201.77">
  <defs>
    <style>
      .cls-1 {
        fill: #9fa4af;
      }

      .cls-2 {
        fill: #6e829b;
      }

      .cls-3 {
        fill: #62aec9;
      }

      .cls-4 {
        fill: url(#Gold_Chalice_Shine);
        stroke: #c69c6d;
        stroke-miterlimit: 1;
        stroke-width: .74px;
      }
    </style>
    <linearGradient id="Gold_Chalice_Shine" x1="309.61" y1="100.89" x2="339.61" y2="100.89" gradientUnits="userSpaceOnUse">
      <stop offset="0" stop-color="#8e642c"/>
      <stop offset=".38" stop-color="#f4e09c"/>
      <stop offset=".51" stop-color="#f1d07f"/>
      <stop offset=".64" stop-color="#f4e09c"/>
      <stop offset="1" stop-color="#8e642c"/>
    </linearGradient>
  </defs>
  <g id="Drapeau">
    <g id="Center_part">
      <path class="cls-1" d="m319.43,103.78c-49.68,3.15-102.45,5-158,5s-108.32-1.85-158-5c67.5-38.5,109.11-19.84-1-78,49.32,4.38,103.18,12.1,161,12,55.52-.09,108.37-7.77,156-12,.33,24.33-.33,53.67,0,78Z"/>
      <path class="cls-3" d="m319.43,101.28c-19.83,1.25-39.68,2.28-59.54,3.06-20.74.82-41.5,1.38-62.25,1.68-21.46.31-42.92.35-64.37.1-20.87-.24-41.73-.73-62.59-1.49s-39.94-1.69-59.89-2.9c-2.45-.15-4.91-.3-7.36-.46v5c11.65-6.63,23.82-12.25,36.25-17.26,8.03-3.24,16.46-5.95,24.13-10.01,2.04-1.08,4.31-2.35,5.67-4.29.48-.68.8-1.44.88-2.27.18-1.66.07-3.41.03-5.07-.01-.48-.04-.94-.15-1.41-.58-2.35-2.57-4.27-4.3-5.83-3.35-3-7.18-5.49-10.97-7.88-14.42-9.06-29.65-16.88-44.69-24.85-2.61-1.39-5.23-2.77-7.85-4.15v5c19.55,1.74,39.05,3.91,58.58,5.87,20.76,2.09,41.54,3.95,62.38,5.05,21.82,1.15,43.68,1.4,65.52.54s42.51-2.61,63.7-4.7c19.94-1.97,39.86-4.23,59.81-6.12,2.34-.22,4.68-.44,7.02-.64v-.34c.26,20.39-.14,40.78-.12,61.17,0,5.61.03,11.22.11,16.83.01.95.03-.81.03-.9,0-1.14,0-2.28,0-3.42-.27-20.39.12-40.78.11-61.17,0-5.61-.03-11.22-.11-16.83,0-.11,0-.23-.01-.34-19.78,1.76-39.51,3.99-59.27,6-21.05,2.14-42.13,4.04-63.27,5.1s-43.74,1.15-65.6.2c-20.99-.91-41.93-2.65-62.83-4.69-19.69-1.92-39.36-4.12-59.06-5.97-2.32-.22-4.65-.43-6.97-.64.27.02-.39,4.79,0,5,16.02,8.46,32.17,16.8,47.74,26.08,4.39,2.61,8.76,5.3,12.83,8.4,2.33,1.77,4.82,3.74,6.37,6.27.51.83.75,1.63.98,2.56.25,1,.08-4.42.02-4.2-.02.09,0,.19-.03.28-.05.18-.07.38-.12.56-.11.4-.29.77-.49,1.13-1.11,1.87-3.15,3.12-4.99,4.16-7,3.95-14.87,6.46-22.32,9.42-11.68,4.64-23.18,9.72-34.23,15.71-1.6.86-3.18,1.75-4.76,2.65-.32.18.14,5.01,0,5,19.83,1.25,39.68,2.28,59.54,3.06,20.74.82,41.5,1.38,62.25,1.68,21.46.31,42.92.35,64.37.1,20.87-.24,41.73-.73,62.59-1.49s39.94-1.69,59.89-2.9c2.45-.15,4.91-.3,7.36-.46.14,0-.07-5,0-5Z"/>
    </g>
    <path id="Metallic_tube" class="cls-4" d="m333.61,182.51V17.26c3.64-1,6-2.59,6-4.39s-2.39-3.41-6.06-4.41c-.36-1.31-2.45-2.41-5.32-2.92.02-.22.05-.44.05-.67,0-2.48-1.42-4.5-3.17-4.5s-3.17,2.01-3.17,4.5c0,.18.02.35.04.52-3.37.42-5.9,1.61-6.31,3.07-3.67,1-6.06,2.6-6.06,4.41,0,1.63,1.94,3.08,5,4.09v165.86c-3.06,1.01-5,2.46-5,4.09,0,1.91,2.67,3.6,6.71,4.58-.46.44-.71.92-.71,1.42,0,1.64,2.68,3.03,6.37,3.48-.01.17-.04.34-.04.52,0,2.48,1.42,4.5,3.17,4.5s3.17-2.01,3.17-4.5c0-.23-.02-.45-.05-.67,3.17-.56,5.38-1.84,5.38-3.33,0-.5-.25-.98-.71-1.42,4.04-.99,6.71-2.67,6.71-4.58,0-1.8-2.36-3.39-6-4.39Z"/>
    <g id="Right_Section">
      <path class="cls-2" d="m341.62,22.53c-.43-.35-7.04-5.55-17.3-4.86-8.2.55-15.22,4.63-17.17,10.14.22,26.67.44,53.33.66,80,6.77,5.1,17.46,6.49,25.13,3.79,7.63-2.68,9.15-8.31,9.34-9.08-.22-26.67-.44-53.33-.66-80Z"/>
      <path class="cls-3" d="m341.62,20.03c-3.51-2.84-8.32-4.35-12.74-4.79-6.92-.68-15.32,1.18-19.88,6.83-.8.99-1.73,2.29-1.86,3.58-.25,2.58,0,5.31.03,7.9.04,4.8.08,9.61.12,14.41.08,9.77.16,19.54.24,29.32s.16,19.54.24,29.32c0,1.05-.2,2.35.03,3.37.09.39.03.36.44.65.39.28.78.54,1.19.79,1.51.93,3.12,1.68,4.78,2.28,3.47,1.24,7.19,1.83,10.87,1.75,6.16-.12,13.06-2.26,16.22-7.98.35-.64.69-1.33.88-2.04.37-1.38.14-2.99.13-4.41-.03-4.89-.08-9.77-.12-14.66-.16-19.46-.32-38.92-.48-58.38l-.06-7.2c0,.11,0-.73-.02-.73s-.02.85-.02.73c-.01,1.18,0,2.36,0,3.54.17,20.79.34,41.57.51,62.36.05,5.88.1,11.76.14,17.64l.02-4.27c-.87,3.5-3.7,6.33-6.79,7.97-5.47,2.9-12.31,3.02-18.23,1.6-3.39-.81-6.64-2.21-9.45-4.29l.02.73c-.17-20.79-.34-41.57-.51-62.36l-.14-17.64-.02,4.27c2.04-5.48,7.97-8.49,13.38-9.62,5.89-1.23,12.15-.5,17.55,2.17,1.23.61,2.46,1.3,3.54,2.17-.2-.17.02-2.18.02-2.5,0-.59,0-1.18,0-1.77,0-.12.06-.67-.02-.73Z"/>
    </g>
  </g>
</svg>