<svg width="354" height="128" viewBox="0 0 354 128" fill="none" xmlns="http://www.w3.org/2000/svg">
<g id="Miaw=Scroll_Survol" clip-path="url(#clip0_26_245)">
<g id="Scroll">
<path id="Metallic_tube_Right" d="M344.05 108.2V17.99C347.69 16.99 350.05 15.4 350.05 13.6C350.05 11.8 347.66 10.19 343.99 9.19001C343.63 7.88001 341.54 6.78001 338.67 6.27001C338.69 6.05001 338.72 5.83001 338.72 5.60001C338.72 3.12001 337.3 1.10001 335.55 1.10001C333.8 1.10001 332.38 3.11001 332.38 5.60001C332.38 5.78001 332.4 5.95001 332.42 6.12001C329.05 6.54001 326.52 7.73001 326.11 9.19001C322.44 10.19 320.05 11.79 320.05 13.6C320.05 15.23 321.99 16.68 325.05 17.69V108.51C321.99 109.52 320.05 110.97 320.05 112.6C320.05 114.51 322.72 116.2 326.76 117.18C326.3 117.62 326.05 118.1 326.05 118.6C326.05 120.24 328.73 121.63 332.42 122.08C332.41 122.25 332.38 122.42 332.38 122.6C332.38 125.08 333.8 127.1 335.55 127.1C337.3 127.1 338.72 125.09 338.72 122.6C338.72 122.37 338.7 122.15 338.67 121.93C341.84 121.37 344.05 120.09 344.05 118.6C344.05 118.1 343.8 117.62 343.34 117.18C347.38 116.19 350.05 114.51 350.05 112.6C350.05 110.8 347.69 109.21 344.05 108.21V108.2Z" fill="url(#paint0_linear_26_245)" stroke="#C69C6D" stroke-width="0.74" stroke-miterlimit="1"/>
<path id="Metallic_tube_left" d="M27.05 108.2V17.99C30.69 16.99 33.05 15.4 33.05 13.6C33.05 11.8 30.66 10.19 26.99 9.19001C26.63 7.88001 24.54 6.78001 21.67 6.27001C21.69 6.05001 21.72 5.83001 21.72 5.60001C21.72 3.12001 20.3 1.10001 18.55 1.10001C16.8 1.10001 15.38 3.11001 15.38 5.60001C15.38 5.78001 15.4 5.95001 15.42 6.12001C12.05 6.54001 9.52 7.73001 9.11 9.19001C5.44 10.19 3.05 11.79 3.05 13.6C3.05 15.23 4.99 16.68 8.05 17.69V108.51C4.99 109.52 3.05 110.97 3.05 112.6C3.05 114.51 5.72 116.2 9.76 117.18C9.3 117.62 9.05 118.1 9.05 118.6C9.05 120.24 11.73 121.63 15.42 122.08C15.41 122.25 15.38 122.42 15.38 122.6C15.38 125.08 16.8 127.1 18.55 127.1C20.3 127.1 21.72 125.09 21.72 122.6C21.72 122.37 21.7 122.15 21.67 121.93C24.84 121.37 27.05 120.09 27.05 118.6C27.05 118.1 26.8 117.62 26.34 117.18C30.38 116.19 33.05 114.51 33.05 112.6C33.05 110.8 30.69 109.21 27.05 108.21V108.2Z" fill="url(#paint1_linear_26_245)" stroke="#C69C6D" stroke-width="0.74" stroke-miterlimit="1"/>
<g id="Center_part_Scroll">
<path id="Vector" d="M335.05 100.1C285.37 103.25 232.6 105.1 177.05 105.1C121.5 105.1 68.73 103.25 19.05 100.1C18.72 75.77 18.38 46.43 18.05 22.1C67.37 26.48 121.23 34.2 179.05 34.1C234.57 34.01 287.42 26.33 335.05 22.1C335.38 46.43 334.72 75.77 335.05 100.1Z" fill="#DDD4B3"/>
<path id="Vector_2" d="M335.05 97.6C315.22 98.85 295.37 99.88 275.51 100.66C254.77 101.48 234.01 102.04 213.26 102.34C191.8 102.65 170.34 102.69 148.89 102.44C128.02 102.2 107.16 101.71 86.3 100.95C66.33 100.22 46.36 99.26 26.41 98.05C23.96 97.9 21.5 97.75 19.05 97.59V97.93C18.78 77.51 18.55 57.09 18.28 36.67C18.21 31.09 18.14 25.51 18.06 19.93V24.59C37.6 26.33 57.1 28.5 76.63 30.46C97.39 32.55 118.17 34.41 139.01 35.51C160.83 36.66 182.69 36.91 204.53 36.05C226.37 35.19 247.04 33.44 268.23 31.35C288.17 29.38 308.09 27.12 328.04 25.23C330.38 25.01 332.72 24.79 335.06 24.59V24.25C335.32 44.64 334.92 65.03 334.94 85.42C334.94 91.03 334.97 96.64 335.05 102.25C335.06 103.2 335.08 101.44 335.08 101.35C335.08 100.21 335.08 99.07 335.08 97.93C334.81 77.54 335.2 57.15 335.19 36.76C335.19 31.15 335.16 25.54 335.08 19.93C335.08 19.82 335.08 19.7 335.07 19.59C315.29 21.35 295.56 23.58 275.8 25.59C254.75 27.73 233.67 29.63 212.53 30.69C190.67 31.78 168.79 31.84 146.93 30.89C125.94 29.98 105 28.24 84.1 26.2C64.41 24.28 44.74 22.08 25.04 20.23C22.72 20.01 20.39 19.8 18.07 19.59C18.09 19.59 18.05 23.87 18.06 24.25C18.34 44.67 18.58 65.09 18.84 85.51C18.91 91.09 18.98 96.67 19.06 102.25C19.06 102.36 19.06 102.48 19.07 102.59C38.9 103.84 58.75 104.87 78.61 105.65C99.35 106.47 120.11 107.03 140.86 107.33C162.32 107.64 183.78 107.68 205.23 107.43C226.1 107.19 246.96 106.7 267.82 105.94C287.79 105.21 307.76 104.25 327.71 103.04C330.16 102.89 332.62 102.74 335.07 102.58C335.21 102.58 335 97.58 335.07 97.58L335.05 97.6Z" fill="#C7B299"/>
</g>
<g id="Right_Paper_Tube">
<path id="Vector_3" d="M351.96 18.73C351.53 18.38 344.92 13.18 334.66 13.87C326.46 14.42 319.44 18.5 317.49 24.01C317.71 50.68 317.93 77.34 318.15 104.01C324.92 109.11 335.61 110.5 343.28 107.8C350.91 105.12 352.43 99.49 352.62 98.72C352.4 72.05 352.18 45.39 351.96 18.72V18.73Z" fill="#DDD4B3"/>
<path id="Vector_4" d="M351.96 16.23C348.45 13.39 343.64 11.88 339.22 11.44C332.3 10.76 323.9 12.62 319.34 18.27C318.54 19.26 317.61 20.56 317.48 21.85C317.23 24.43 317.48 27.16 317.51 29.75L317.63 44.16C317.71 53.93 317.79 63.7 317.87 73.48C317.95 83.26 318.03 93.02 318.11 102.8C318.11 103.85 317.91 105.15 318.14 106.17C318.23 106.56 318.17 106.53 318.58 106.82C318.97 107.1 319.36 107.36 319.77 107.61C321.28 108.54 322.89 109.29 324.55 109.89C328.02 111.13 331.74 111.72 335.42 111.64C341.58 111.52 348.48 109.38 351.64 103.66C351.99 103.02 352.33 102.33 352.52 101.62C352.89 100.24 352.66 98.63 352.65 97.21C352.62 92.32 352.57 87.44 352.53 82.55C352.37 63.09 352.21 43.63 352.05 24.17L351.99 16.97C351.99 17.08 351.99 16.24 351.97 16.24C351.95 16.24 351.95 17.09 351.95 16.97C351.94 18.15 351.95 19.33 351.95 20.51C352.12 41.3 352.29 62.08 352.46 82.87C352.51 88.75 352.56 94.63 352.6 100.51L352.62 96.24C351.75 99.74 348.92 102.57 345.83 104.21C340.36 107.11 333.52 107.23 327.6 105.81C324.21 105 320.96 103.6 318.15 101.52L318.17 102.25C318 81.46 317.83 60.68 317.66 39.89L317.52 22.25L317.5 26.52C319.54 21.04 325.47 18.03 330.88 16.9C336.77 15.67 343.03 16.4 348.43 19.07C349.66 19.68 350.89 20.37 351.97 21.24C351.77 21.07 351.99 19.06 351.99 18.74C351.99 18.15 351.99 17.56 351.99 16.97C351.99 16.85 352.05 16.3 351.97 16.24L351.96 16.23Z" fill="#C7B299"/>
</g>
<g id="Right_Paper_Tube_2">
<path id="Vector_5" d="M1.12 106.34C1.55 106.69 8.16 111.89 18.42 111.21C26.62 110.66 33.64 106.58 35.6 101.08C35.39 74.41 35.18 47.75 34.98 21.08C28.21 15.98 17.52 14.58 9.85 17.28C2.21 19.95 0.69 25.58 0.5 26.34C0.71 53.01 0.92 79.67 1.12 106.34Z" fill="#DDD4B3"/>
<path id="Vector_6" d="M1.12 108.84C4.63 111.68 9.44 113.19 13.86 113.63C20.77 114.32 29.18 112.46 33.75 106.8C34.55 105.81 35.48 104.51 35.61 103.22C35.86 100.64 35.61 97.91 35.58 95.32C35.54 90.52 35.51 85.71 35.47 80.91C35.39 71.14 35.32 61.37 35.24 51.59L35.01 22.27C35.01 21.22 35.21 19.92 34.98 18.9C34.89 18.51 34.95 18.54 34.54 18.25C34.15 17.97 33.76 17.71 33.35 17.46C31.84 16.53 30.23 15.78 28.57 15.18C25.1 13.94 21.38 13.35 17.7 13.42C11.54 13.54 4.64 15.68 1.48 21.4C1.13 22.04 0.790001 22.73 0.600001 23.44C0.230001 24.82 0.460001 26.44 0.470001 27.85C0.500001 32.74 0.550001 37.62 0.580001 42.51C0.730001 61.97 0.880001 81.43 1.03 100.89L1.09 108.09C1.09 107.98 1.09 108.82 1.11 108.82C1.13 108.82 1.13 107.97 1.13 108.09C1.14 106.91 1.13 105.73 1.13 104.55C0.970001 83.76 0.810001 62.98 0.640001 42.19L0.500001 24.55L0.480001 28.82C1.35 25.32 4.18 22.5 7.28 20.85C12.75 17.95 19.59 17.84 25.51 19.26C28.9 20.07 32.15 21.47 34.96 23.55L34.94 22.82C35.1 43.61 35.26 64.39 35.43 85.18L35.57 102.82L35.59 98.55C33.55 104.03 27.61 107.04 22.2 108.17C16.31 109.4 10.05 108.66 4.65 105.99C3.42 105.38 2.19 104.69 1.12 103.82C1.32 103.99 1.1 106 1.1 106.32C1.1 106.91 1.1 107.5 1.1 108.09C1.1 108.21 1.04 108.76 1.12 108.82V108.84Z" fill="#C7B299"/>
<path id="Line_footstep" d="M21.0323 69.6422C20.8347 70.729 21.5555 71.7702 22.6422 71.9678L40.3519 75.1877C41.4386 75.3853 42.4798 74.6645 42.6774 73.5777C42.875 72.491 42.1542 71.4498 41.0674 71.2522L25.3255 68.39L28.1877 52.6481C28.3853 51.5614 27.6645 50.5202 26.5777 50.3226C25.491 50.125 24.4498 50.8458 24.2522 51.9326L21.0323 69.6422ZM87 52L88.6641 50.8906L87 52ZM271 52L269.926 53.6873L271 52ZM328.117 93.7945C329.108 94.2822 330.307 93.8741 330.795 92.883L338.742 76.7324C339.229 75.7413 338.821 74.5425 337.83 74.0549C336.839 73.5672 335.64 73.9753 335.153 74.9664L328.089 89.3225L313.732 82.2584C312.741 81.7707 311.543 82.1788 311.055 83.1699C310.567 84.1609 310.975 85.3597 311.966 85.8474L328.117 93.7945ZM27.7733 69.199C28.6973 68.5939 28.956 67.3543 28.3509 66.4302C27.7458 65.5061 26.5062 65.2475 25.5821 65.8525L27.7733 69.199ZM33.19 61.112C32.24 61.6755 31.9267 62.9025 32.4902 63.8525C33.0537 64.8025 34.2806 65.1159 35.2306 64.5524L33.19 61.112ZM42.8845 60.2399C43.8591 59.7201 44.2278 58.5087 43.708 57.534C43.1882 56.5594 41.9767 56.1907 41.0021 56.7105L42.8845 60.2399ZM49.039 52.6903C48.0376 53.1563 47.6035 54.3459 48.0694 55.3473C48.5354 56.3488 49.725 56.7829 50.7265 56.3169L49.039 52.6903ZM58.7599 52.9129C59.7931 52.5223 60.314 51.3681 59.9234 50.3349C59.5327 49.3017 58.3785 48.7808 57.3453 49.1714L58.7599 52.9129ZM66.0249 46.4075C64.9533 46.6754 64.3019 47.7613 64.5698 48.8329C64.8378 49.9045 65.9237 50.5559 66.9953 50.288L66.0249 46.4075ZM75.3059 49.0517C76.4102 49.0304 77.2882 48.1179 77.267 47.0135C77.2457 45.9092 76.3332 45.0311 75.2288 45.0524L75.3059 49.0517ZM84.8557 47.2424C83.911 46.67 82.6812 46.9718 82.1088 47.9165C81.5364 48.8612 81.8383 50.0911 82.783 50.6634L84.8557 47.2424ZM88.5225 57.2192C89.2493 58.051 90.5127 58.1361 91.3445 57.4094C92.1763 56.6826 92.2614 55.4191 91.5347 54.5873L88.5225 57.2192ZM98.4042 61.361C97.5736 60.6328 96.31 60.7159 95.5819 61.5465C94.8538 62.3771 94.9368 63.6407 95.7674 64.3688L98.4042 61.361ZM103.622 70.6871C104.508 71.3463 105.761 71.1621 106.42 70.2758C107.079 69.3895 106.895 68.1366 106.009 67.4774L103.622 70.6871ZM114.047 73.0575C113.12 72.4563 111.882 72.72 111.281 73.6467C110.679 74.5733 110.943 75.8118 111.87 76.413L114.047 73.0575ZM120.451 81.6213C121.412 82.1657 122.632 81.8279 123.177 80.8669C123.721 79.9058 123.383 78.6853 122.422 78.1409L120.451 81.6213ZM131.088 82.6956C130.094 82.214 128.897 82.6294 128.416 83.6234C127.934 84.6175 128.35 85.8137 129.344 86.2953L131.088 82.6956ZM138.556 90.3467C139.584 90.7508 140.745 90.2451 141.149 89.2171C141.553 88.1891 141.047 87.0281 140.019 86.624L138.556 90.3467ZM149.216 89.7355C148.152 89.4391 147.049 90.0614 146.753 91.1254C146.456 92.1895 147.078 93.2924 148.143 93.5888L149.216 89.7355ZM158.171 95.6076C159.269 95.7315 160.259 94.9422 160.383 93.8446C160.507 92.747 159.717 91.7568 158.62 91.6329L158.171 95.6076ZM167.913 91.4797C166.827 91.6788 166.108 92.721 166.307 93.8075C166.506 94.8939 167.548 95.6133 168.634 95.4142L167.913 91.4797ZM178.283 91.3055C179.203 90.6953 179.455 89.4542 178.845 88.5335C178.234 87.6128 176.993 87.3611 176.073 87.9714L178.283 91.3055ZM183.41 82.2167C182.579 82.9443 182.495 84.2078 183.222 85.0389C183.95 85.87 185.214 85.9539 186.045 85.2263L183.41 82.2167ZM193.183 78.6659C193.986 77.9067 194.021 76.6409 193.262 75.8385C192.502 75.0362 191.236 75.0013 190.434 75.7604L193.183 78.6659ZM197.422 69.1452C196.616 69.9001 196.574 71.1658 197.329 71.9721C198.084 72.7783 199.35 72.82 200.156 72.065L197.422 69.1452ZM207.221 65.6537C208.054 64.9283 208.142 63.665 207.416 62.832C206.691 61.999 205.428 61.9117 204.595 62.6371L207.221 65.6537ZM212.134 56.465C211.255 57.1338 211.084 58.3886 211.753 59.2677C212.422 60.1468 213.677 60.3173 214.556 59.6485L212.134 56.465ZM222.304 54.3137C223.247 53.7375 223.543 52.5065 222.967 51.5641C222.391 50.6217 221.16 50.3249 220.218 50.9011L222.304 54.3137ZM228.994 46.337C227.977 46.7693 227.504 47.9438 227.936 48.9603C228.369 49.9767 229.543 50.4501 230.56 50.0178L228.994 46.337ZM239.328 47.236C240.41 47.0131 241.106 45.9554 240.883 44.8736C240.66 43.7917 239.602 43.0954 238.521 43.3183L239.328 47.236ZM248.545 42.4618C247.441 42.4213 246.514 43.2832 246.473 44.387C246.433 45.4908 247.295 46.4186 248.398 46.4591L248.545 42.4618ZM257.383 47.904C258.445 48.2075 259.552 47.5925 259.856 46.5304C260.159 45.4683 259.544 44.3613 258.482 44.0579L257.383 47.904ZM267.771 47.8158C266.792 47.3029 265.584 47.6802 265.071 48.6584C264.558 49.6367 264.935 50.8455 265.913 51.3584L267.771 47.8158ZM274.171 56.1639C275.148 56.6792 276.358 56.3049 276.873 55.3279C277.389 54.3509 277.014 53.1412 276.037 52.6258L274.171 56.1639ZM284.374 55.7883C283.291 55.5677 282.235 56.2663 282.015 57.3487C281.794 58.431 282.493 59.4872 283.575 59.7077L284.374 55.7883ZM294.008 59.0608C295.039 58.6654 295.555 57.5088 295.159 56.4774C294.764 55.446 293.607 54.9304 292.576 55.3257L294.008 59.0608ZM299.31 50.2359C298.576 51.0618 298.651 52.3259 299.477 53.0594C300.303 53.7929 301.567 53.7181 302.3 52.8922L299.31 50.2359ZM307.679 47.363C308.784 47.3616 309.678 46.4651 309.677 45.3605C309.675 44.256 308.779 43.3617 307.674 43.363L307.679 47.363ZM315.549 51.2094C315.043 50.2276 313.837 49.842 312.855 50.3481C311.873 50.8542 311.488 52.0604 311.994 53.0422L315.549 51.2094ZM315.799 61.5015C316.217 62.5239 317.385 63.0137 318.407 62.5956C319.43 62.1774 319.919 61.0097 319.501 59.9873L315.799 61.5015ZM322.973 68.9286C322.588 67.8936 321.436 67.3672 320.401 67.7529C319.366 68.1386 318.84 69.2903 319.225 70.3253L322.973 68.9286ZM322.421 79.1342C322.791 80.1752 323.934 80.7196 324.975 80.3503C326.016 79.9809 326.561 78.8376 326.191 77.7966L322.421 79.1342ZM329.314 86.7413C328.954 85.6968 327.816 85.1417 326.772 85.5012C325.727 85.8608 325.172 86.9989 325.532 88.0433L329.314 86.7413ZM24.1384 71.6444C25.2681 70.8623 26.4842 70.043 27.7733 69.199L25.5821 65.8525C24.2654 66.7147 23.0207 67.5532 21.8616 68.3556L24.1384 71.6444ZM35.2306 64.5524C37.6759 63.102 40.2466 61.6468 42.8845 60.2399L41.0021 56.7105C38.3065 58.1482 35.6829 59.6334 33.19 61.112L35.2306 64.5524ZM50.7265 56.3169C53.4194 55.0639 56.116 53.9125 58.7599 52.9129L57.3453 49.1714C54.5947 50.2114 51.8063 51.4027 49.039 52.6903L50.7265 56.3169ZM66.9953 50.288C70.0133 49.5333 72.8128 49.0997 75.3059 49.0517L75.2288 45.0524C72.35 45.1079 69.24 45.6035 66.0249 46.4075L66.9953 50.288ZM82.783 50.6634C83.7931 51.2755 84.6481 52.0778 85.3359 53.1094L88.6641 50.8906C87.644 49.3604 86.3564 48.1516 84.8557 47.2424L82.783 50.6634ZM85.3359 53.1094C86.2212 54.4374 87.2944 55.8137 88.5225 57.2192L91.5347 54.5873C90.3942 53.2821 89.4331 52.0441 88.6641 50.8906L85.3359 53.1094ZM95.7674 64.3688C98.1544 66.4615 100.794 68.5843 103.622 70.6871L106.009 67.4774C103.257 65.4313 100.702 63.3755 98.4042 61.361L95.7674 64.3688ZM111.87 76.413C114.639 78.2098 117.514 79.9577 120.451 81.6213L122.422 78.1409C119.556 76.5174 116.75 74.8112 114.047 73.0575L111.87 76.413ZM129.344 86.2953C132.407 87.7794 135.493 89.1426 138.556 90.3467L140.019 86.624C137.06 85.4608 134.068 84.1395 131.088 82.6956L129.344 86.2953ZM148.143 93.5888C151.59 94.5491 154.958 95.2449 158.171 95.6076L158.62 91.6329C155.658 91.2985 152.501 90.6506 149.216 89.7355L148.143 93.5888ZM168.634 95.4142C170.466 95.0784 172.208 94.5568 173.828 93.8207L172.172 90.1793C170.889 90.7627 169.466 91.1951 167.913 91.4797L168.634 95.4142ZM173.828 93.8207C175.301 93.1509 176.787 92.2966 178.283 91.3055L176.073 87.9714C174.707 88.8768 173.408 89.6178 172.172 90.1793L173.828 93.8207ZM186.045 85.2263C188.352 83.2064 190.735 80.9826 193.183 78.6659L190.434 75.7604C187.993 78.0704 185.656 80.2502 183.41 82.2167L186.045 85.2263ZM200.156 72.065C202.452 69.9156 204.805 67.7577 207.221 65.6537L204.595 62.6371C202.129 64.7844 199.737 66.9779 197.422 69.1452L200.156 72.065ZM214.556 59.6485C217.082 57.7268 219.664 55.9281 222.304 54.3137L220.218 50.9011C217.441 52.5988 214.747 54.4775 212.134 56.465L214.556 59.6485ZM230.56 50.0178C233.425 48.7989 236.346 47.8501 239.328 47.236L238.521 43.3183C235.248 43.9925 232.072 45.0276 228.994 46.337L230.56 50.0178ZM248.398 46.4591C251.32 46.5665 254.313 47.027 257.383 47.904L258.482 44.0579C255.103 43.0927 251.79 42.5811 248.545 42.4618L248.398 46.4591ZM265.913 51.3584C267.236 52.0518 268.573 52.8265 269.926 53.6873L272.074 50.3127C270.63 49.3942 269.196 48.5631 267.771 47.8158L265.913 51.3584ZM269.926 53.6873C271.4 54.6254 272.814 55.4481 274.171 56.1639L276.037 52.6258C274.785 51.9651 273.465 51.1978 272.074 50.3127L269.926 53.6873ZM283.575 59.7077C287.675 60.5432 291.104 60.1736 294.008 59.0608L292.576 55.3257C290.431 56.148 287.779 56.4822 284.374 55.7883L283.575 59.7077ZM302.3 52.8922C303.023 52.0782 303.688 51.2691 304.283 50.551C304.891 49.8173 305.418 49.1896 305.914 48.6651C307.009 47.5086 307.507 47.3632 307.679 47.363L307.674 43.363C305.655 43.3655 304.107 44.7552 303.009 45.9158C302.409 46.5499 301.802 47.2762 301.204 47.9984C300.592 48.736 299.977 49.4845 299.31 50.2359L302.3 52.8922ZM311.994 53.0422C313.095 55.1786 314.348 57.9531 315.799 61.5015L319.501 59.9873C318.026 56.3799 316.724 53.4883 315.549 51.2094L311.994 53.0422ZM319.225 70.3253C320.216 72.9851 321.279 75.9139 322.421 79.1342L326.191 77.7966C325.043 74.5606 323.973 71.6117 322.973 68.9286L319.225 70.3253ZM325.532 88.0433C326.043 89.5277 326.568 91.061 327.107 92.6445L330.893 91.3555C330.353 89.768 329.827 88.2303 329.314 86.7413L325.532 88.0433Z" fill="black" fill-opacity="0.25"/>
</g>
</g>
</g>
<defs>
<linearGradient id="paint0_linear_26_245" x1="320.05" y1="64.1" x2="350.05" y2="64.1" gradientUnits="userSpaceOnUse">
<stop stop-color="#8E642C"/>
<stop offset="0.38" stop-color="#F4E09C"/>
<stop offset="0.51" stop-color="#F1D07F"/>
<stop offset="0.64" stop-color="#F4E09C"/>
<stop offset="1" stop-color="#8E642C"/>
</linearGradient>
<linearGradient id="paint1_linear_26_245" x1="3.05" y1="0.730014" x2="33.05" y2="0.730014" gradientUnits="userSpaceOnUse">
<stop stop-color="#8E642C"/>
<stop offset="0.38" stop-color="#F4E09C"/>
<stop offset="0.51" stop-color="#F1D07F"/>
<stop offset="0.64" stop-color="#F4E09C"/>
<stop offset="1" stop-color="#8E642C"/>
</linearGradient>
<clipPath id="clip0_26_245">
<rect width="353.11" height="126.73" fill="white" transform="translate(0 0.730011)"/>
</clipPath>
</defs>
</svg>
