<svg width="343" height="203" viewBox="0 0 343 203" fill="none" xmlns="http://www.w3.org/2000/svg">
<g clip-path="url(#clip0_25_233)">
<path d="M483.107 102.53C433.427 105.68 380.657 107.53 325.107 107.53C269.557 107.53 216.787 105.68 167.107 102.53C234.607 64.03 276.217 82.69 166.107 24.53C215.427 28.91 269.287 36.63 327.107 36.53C382.627 36.44 435.477 28.76 483.107 24.53C483.437 48.86 482.777 78.2 483.107 102.53Z" fill="#9FA4AF"/>
<path d="M483.107 100.03C463.277 101.28 443.427 102.31 423.567 103.09C402.827 103.91 382.067 104.47 361.317 104.77C339.857 105.08 318.397 105.12 296.947 104.87C276.077 104.63 255.217 104.14 234.357 103.38C213.497 102.62 194.417 101.69 174.467 100.48C172.017 100.33 169.557 100.18 167.107 100.02V105.02C178.757 98.39 190.927 92.77 203.357 87.76C211.387 84.52 219.817 81.81 227.487 77.75C229.527 76.67 231.797 75.4 233.157 73.46C233.637 72.78 233.957 72.02 234.037 71.19C234.217 69.53 234.107 67.78 234.067 66.12C234.057 65.64 234.027 65.18 233.917 64.71C233.337 62.36 231.347 60.44 229.617 58.88C226.267 55.88 222.437 53.39 218.647 51C204.227 41.94 188.997 34.12 173.957 26.15C171.347 24.76 168.727 23.38 166.107 22V27C185.657 28.74 205.157 30.91 224.687 32.87C245.447 34.96 266.227 36.82 287.067 37.92C308.887 39.07 330.747 39.32 352.587 38.46C374.427 37.6 395.097 35.85 416.287 33.76C436.227 31.79 456.147 29.53 476.097 27.64C478.437 27.42 480.777 27.2 483.117 27V26.66C483.377 47.05 482.977 67.44 482.997 87.83C482.997 93.44 483.027 99.05 483.107 104.66C483.117 105.61 483.137 103.85 483.137 103.76C483.137 102.62 483.137 101.48 483.137 100.34C482.867 79.95 483.257 59.56 483.247 39.17C483.247 33.56 483.217 27.95 483.137 22.34C483.137 22.23 483.137 22.11 483.127 22C463.347 23.76 443.617 25.99 423.857 28C402.807 30.14 381.727 32.04 360.587 33.1C339.447 34.16 316.847 34.25 294.987 33.3C273.997 32.39 253.057 30.65 232.157 28.61C212.467 26.69 192.797 24.49 173.097 22.64C170.777 22.42 168.447 22.21 166.127 22C166.397 22.02 165.737 26.79 166.127 27C182.147 35.46 198.297 43.8 213.867 53.08C218.257 55.69 222.627 58.38 226.697 61.48C229.027 63.25 231.517 65.22 233.067 67.75C233.577 68.58 233.817 69.38 234.047 70.31C234.297 71.31 234.127 65.89 234.067 66.11C234.047 66.2 234.067 66.3 234.037 66.39C233.987 66.57 233.967 66.77 233.917 66.95C233.807 67.35 233.627 67.72 233.427 68.08C232.317 69.95 230.277 71.2 228.437 72.24C221.437 76.19 213.567 78.7 206.117 81.66C194.437 86.3 182.937 91.38 171.887 97.37C170.287 98.23 168.707 99.12 167.127 100.02C166.807 100.2 167.267 105.03 167.127 105.02C186.957 106.27 206.807 107.3 226.667 108.08C247.407 108.9 268.167 109.46 288.917 109.76C310.377 110.07 331.837 110.11 353.287 109.86C374.157 109.62 395.017 109.13 415.877 108.37C436.737 107.61 455.817 106.68 475.767 105.47C478.217 105.32 480.677 105.17 483.127 105.01C483.267 105.01 483.057 100.01 483.127 100.01L483.107 100.03Z" fill="#62AEC9"/>
<path d="M333.61 183.05V17.8C337.25 16.8 339.61 15.21 339.61 13.41C339.61 11.61 337.22 10 333.55 9C333.19 7.69 331.1 6.59 328.23 6.08C328.25 5.86 328.28 5.64 328.28 5.41C328.28 2.93 326.86 0.910004 325.11 0.910004C323.36 0.910004 321.94 2.92 321.94 5.41C321.94 5.59 321.96 5.76 321.98 5.93C318.61 6.35 316.08 7.54 315.67 9C312 10 309.61 11.6 309.61 13.41C309.61 15.04 311.55 16.49 314.61 17.5V183.36C311.55 184.37 309.61 185.82 309.61 187.45C309.61 189.36 312.28 191.05 316.32 192.03C315.86 192.47 315.61 192.95 315.61 193.45C315.61 195.09 318.29 196.48 321.98 196.93C321.97 197.1 321.94 197.27 321.94 197.45C321.94 199.93 323.36 201.95 325.11 201.95C326.86 201.95 328.28 199.94 328.28 197.45C328.28 197.22 328.26 197 328.23 196.78C331.4 196.22 333.61 194.94 333.61 193.45C333.61 192.95 333.36 192.47 332.9 192.03C336.94 191.04 339.61 189.36 339.61 187.45C339.61 185.65 337.25 184.06 333.61 183.06V183.05Z" fill="url(#paint0_linear_25_233)" stroke="#C69C6D" stroke-width="0.74" stroke-miterlimit="1"/>
<path d="M341.62 23.07C341.19 22.72 334.58 17.52 324.32 18.21C316.12 18.76 309.1 22.84 307.15 28.35C307.37 55.02 307.59 81.68 307.81 108.35C314.58 113.45 325.27 114.84 332.94 112.14C340.57 109.46 342.09 103.83 342.28 103.06C342.06 76.39 341.84 49.73 341.62 23.06V23.07Z" fill="#6E829B"/>
<path d="M341.62 20.57C338.11 17.73 333.3 16.22 328.88 15.78C321.96 15.1 313.56 16.96 309 22.61C308.2 23.6 307.27 24.9 307.14 26.19C306.89 28.77 307.14 31.5 307.17 34.09C307.21 38.89 307.25 43.7 307.29 48.5C307.37 58.27 307.45 68.04 307.53 77.82C307.61 87.6 307.69 97.36 307.77 107.14C307.77 108.19 307.57 109.49 307.8 110.51C307.89 110.9 307.83 110.87 308.24 111.16C308.63 111.44 309.02 111.7 309.43 111.95C310.94 112.88 312.55 113.63 314.21 114.23C317.68 115.47 321.4 116.06 325.08 115.98C331.24 115.86 338.14 113.72 341.3 108C341.65 107.36 341.99 106.67 342.18 105.96C342.55 104.58 342.32 102.97 342.31 101.55C342.28 96.66 342.23 91.78 342.19 86.89C342.03 67.43 341.87 47.97 341.71 28.51L341.65 21.31C341.65 21.42 341.65 20.58 341.63 20.58C341.61 20.58 341.61 21.43 341.61 21.31C341.6 22.49 341.61 23.67 341.61 24.85C341.78 45.64 341.95 66.42 342.12 87.21C342.17 93.09 342.22 98.97 342.26 104.85L342.28 100.58C341.41 104.08 338.58 106.91 335.49 108.55C330.02 111.45 323.18 111.57 317.26 110.15C313.87 109.34 310.62 107.94 307.81 105.86L307.83 106.59C307.66 85.8 307.49 65.02 307.32 44.23L307.18 26.59L307.16 30.86C309.2 25.38 315.13 22.37 320.54 21.24C326.43 20.01 332.69 20.74 338.09 23.41C339.32 24.02 340.55 24.71 341.63 25.58C341.43 25.41 341.65 23.4 341.65 23.08C341.65 22.49 341.65 21.9 341.65 21.31C341.65 21.19 341.71 20.64 341.63 20.58L341.62 20.57Z" fill="#62AEC9"/>
</g>
<defs>
<linearGradient id="paint0_linear_25_233" x1="309.61" y1="101.43" x2="339.61" y2="101.43" gradientUnits="userSpaceOnUse">
<stop stop-color="#8E642C"/>
<stop offset="0.38" stop-color="#F4E09C"/>
<stop offset="0.51" stop-color="#F1D07F"/>
<stop offset="0.64" stop-color="#F4E09C"/>
<stop offset="1" stop-color="#8E642C"/>
</linearGradient>
<clipPath id="clip0_25_233">
<rect width="342.77" height="201.77" fill="white" transform="translate(0 0.540009)"/>
</clipPath>
</defs>
</svg>
