<svg width="343" height="203" viewBox="0 0 343 203" fill="none" xmlns="http://www.w3.org/2000/svg">
<g clip-path="url(#clip0_25_218)">
<path d="M338.735 98.587C290.137 109.366 238.284 119.337 183.4 127.91C128.515 136.482 76.0919 142.798 26.5209 147.352C87.271 98.8967 131.262 110.912 13.4959 70.4408C62.901 67.1573 117.307 66.4731 174.419 57.4515C229.26 48.7947 280.292 33.0509 326.699 21.5213C330.779 45.509 334.655 74.5993 338.735 98.587Z" fill="#9FA4AF"/>
<path d="M338.35 96.1169C318.95 100.412 299.497 104.493 279.995 108.328C259.63 112.339 239.205 116.096 218.75 119.595C197.595 123.213 176.398 126.564 155.167 129.627C134.51 132.611 113.824 135.346 93.0964 137.814C72.369 140.282 53.3741 142.308 33.4763 144.191C31.0325 144.421 28.5789 144.652 26.1335 144.872L26.9051 149.812C37.3924 141.464 48.5494 134.033 60.0573 127.165C67.4911 122.725 75.4019 118.746 82.3535 113.551C84.2024 112.169 86.2492 110.564 87.2936 108.437C87.6629 107.692 87.8618 106.891 87.8127 106.059C87.7344 104.391 87.3556 102.679 87.06 101.045C86.976 100.572 86.8754 100.122 86.6942 99.675C85.7585 97.4427 83.496 95.8528 81.546 94.5784C77.7732 92.1314 73.6048 90.2622 69.4914 88.4857C53.8459 81.7596 37.5916 76.3835 21.5018 70.83C18.7086 69.8594 15.907 68.9002 13.1055 67.9411L13.8771 72.8812C33.4614 71.5834 53.0627 70.7182 72.6612 69.6408C93.495 68.5021 114.313 67.133 135.073 65.0038C156.809 62.7728 178.446 59.6464 199.892 55.4263C221.337 51.2063 241.49 46.2874 262.103 40.9524C281.5 35.9289 300.833 30.6219 320.252 25.6759C322.53 25.0974 324.808 24.5189 327.09 23.9602L327.037 23.6243C330.441 43.7299 333.192 63.9374 336.358 84.08C337.224 89.6228 338.119 95.161 339.064 100.691C339.221 101.629 338.969 99.8865 338.955 99.7976C338.779 98.6713 338.603 97.5449 338.427 96.4186C335.014 76.3145 332.253 56.1086 329.096 35.9644C328.23 30.4216 327.335 24.8834 326.39 19.3529C326.373 19.2443 326.355 19.1257 326.328 19.0186C307.056 23.8099 287.907 29.0579 268.694 34.0932C248.226 39.456 227.692 44.5863 206.969 48.896C186.246 53.2056 163.93 56.7822 142.185 59.217C121.306 61.557 100.349 63.0694 79.3843 64.2791C59.6339 65.4206 39.86 66.2825 20.1105 67.4947C17.7843 67.6354 15.4498 67.7875 13.1252 67.938C13.3951 67.9161 13.4791 72.7308 13.8968 72.8781C31.0305 78.7646 48.274 84.5124 65.0896 91.2785C69.8298 93.1797 74.5626 95.1631 79.0622 97.5979C81.6374 98.9871 84.4016 100.549 86.3235 102.81C86.9555 103.551 87.316 104.305 87.6868 105.188C88.0881 106.137 87.0837 100.808 87.0584 101.035C87.0525 101.127 87.0877 101.223 87.072 101.316C87.0504 101.502 87.0615 101.703 87.0398 101.888C86.9929 102.3 86.8721 102.694 86.7301 103.08C85.922 105.099 84.0993 106.649 82.4418 107.96C76.1353 112.943 68.7469 116.638 61.8429 120.712C51.0189 127.099 40.4406 133.893 30.4473 141.516C28.9992 142.613 27.5755 143.736 26.1533 144.869C25.8649 145.096 27.0648 149.797 26.9249 149.809C46.7102 147.984 66.4814 145.938 86.2239 143.644C106.842 141.254 127.44 138.604 147.987 135.698C169.238 132.692 190.447 129.42 211.602 125.863C232.185 122.405 252.719 118.702 273.212 114.732C293.705 110.762 312.413 106.899 331.937 102.624C334.335 102.098 336.742 101.57 339.138 101.034C339.276 101.013 338.297 96.1049 338.366 96.0941L338.35 96.1169Z" fill="#62AEC9"/>
<path d="M333.61 183.28V18.03C337.25 17.03 339.61 15.44 339.61 13.64C339.61 11.84 337.22 10.23 333.55 9.23C333.19 7.92 331.1 6.82 328.23 6.31C328.25 6.09 328.28 5.87 328.28 5.64C328.28 3.16 326.86 1.14 325.11 1.14C323.36 1.14 321.94 3.15 321.94 5.64C321.94 5.82 321.96 5.99 321.98 6.16C318.61 6.58 316.08 7.77 315.67 9.23C312 10.23 309.61 11.83 309.61 13.64C309.61 15.27 311.55 16.72 314.61 17.73V183.59C311.55 184.6 309.61 186.05 309.61 187.68C309.61 189.59 312.28 191.28 316.32 192.26C315.86 192.7 315.61 193.18 315.61 193.68C315.61 195.32 318.29 196.71 321.98 197.16C321.97 197.33 321.94 197.5 321.94 197.68C321.94 200.16 323.36 202.18 325.11 202.18C326.86 202.18 328.28 200.17 328.28 197.68C328.28 197.45 328.26 197.23 328.23 197.01C331.4 196.45 333.61 195.17 333.61 193.68C333.61 193.18 333.36 192.7 332.9 192.26C336.94 191.27 339.61 189.59 339.61 187.68C339.61 185.88 337.25 184.29 333.61 183.29V183.28Z" fill="url(#paint0_linear_25_218)" stroke="#C69C6D" stroke-width="0.74" stroke-miterlimit="1"/>
<path d="M341.62 23.3C341.19 22.95 334.58 17.75 324.32 18.44C316.12 18.99 309.1 23.07 307.15 28.58C307.37 55.25 307.59 81.91 307.81 108.58C314.58 113.68 325.27 115.07 332.94 112.37C340.57 109.69 342.09 104.06 342.28 103.29C342.06 76.62 341.84 49.96 341.62 23.29V23.3Z" fill="#6E829B"/>
<path d="M341.62 20.8C338.11 17.96 333.3 16.45 328.88 16.01C321.96 15.33 313.56 17.19 309 22.84C308.2 23.83 307.27 25.13 307.14 26.42C306.89 29 307.14 31.73 307.17 34.32C307.21 39.12 307.25 43.93 307.29 48.73C307.37 58.5 307.45 68.27 307.53 78.05C307.61 87.83 307.69 97.59 307.77 107.37C307.77 108.42 307.57 109.72 307.8 110.74C307.89 111.13 307.83 111.1 308.24 111.39C308.63 111.67 309.02 111.93 309.43 112.18C310.94 113.11 312.55 113.86 314.21 114.46C317.68 115.7 321.4 116.29 325.08 116.21C331.24 116.09 338.14 113.95 341.3 108.23C341.65 107.59 341.99 106.9 342.18 106.19C342.55 104.81 342.32 103.2 342.31 101.78C342.28 96.89 342.23 92.01 342.19 87.12C342.03 67.66 341.87 48.2 341.71 28.74L341.65 21.54C341.65 21.65 341.65 20.81 341.63 20.81C341.61 20.81 341.61 21.66 341.61 21.54C341.6 22.72 341.61 23.9 341.61 25.08C341.78 45.87 341.95 66.65 342.12 87.44C342.17 93.32 342.22 99.2 342.26 105.08L342.28 100.81C341.41 104.31 338.58 107.14 335.49 108.78C330.02 111.68 323.18 111.8 317.26 110.38C313.87 109.57 310.62 108.17 307.81 106.09L307.83 106.82C307.66 86.03 307.49 65.25 307.32 44.46L307.18 26.82L307.16 31.09C309.2 25.61 315.13 22.6 320.54 21.47C326.43 20.24 332.69 20.97 338.09 23.64C339.32 24.25 340.55 24.94 341.63 25.81C341.43 25.64 341.65 23.63 341.65 23.31C341.65 22.72 341.65 22.13 341.65 21.54C341.65 21.42 341.71 20.87 341.63 20.81L341.62 20.8Z" fill="#62AEC9"/>
<path d="M153.793 81.8409C153.917 81.7855 153.989 81.8814 154.007 82.1284C154.024 82.3625 153.961 82.6333 153.817 82.9407C153.664 83.2885 153.454 83.7947 153.185 84.4595C152.927 85.1097 152.614 85.9378 152.244 86.9437C151.875 87.9496 151.451 89.1398 150.971 90.5144C150.49 91.876 149.951 93.4487 149.353 95.2323C148.877 96.6326 148.396 98.0468 147.911 99.4746C147.425 100.903 146.96 102.288 146.516 103.632C146.072 104.976 145.671 106.248 145.314 107.45C144.957 108.651 144.668 109.725 144.449 110.672C144.423 110.781 144.341 110.857 144.203 110.901C144.078 110.956 143.982 110.969 143.912 110.938C143.87 110.918 143.846 110.881 143.839 110.83C143.847 110.789 143.848 110.75 143.843 110.711C143.819 110.622 143.795 110.592 143.773 110.622C143.749 110.638 143.701 110.677 143.63 110.738C143.574 110.811 143.485 110.888 143.365 110.97C143.244 111.051 143.074 111.112 142.856 111.153C142.598 111.186 142.425 111.163 142.335 111.082C142.259 111 142.14 110.838 141.977 110.597C141.943 110.535 141.775 110.196 141.472 109.579C141.17 108.961 140.777 108.158 140.296 107.17C139.825 106.167 139.278 105.023 138.653 103.739C138.028 102.454 137.37 101.114 136.678 99.7195C135.998 98.3104 135.304 96.8966 134.596 95.478C133.887 94.0464 133.201 92.6972 132.539 91.4302C131.875 90.1503 131.26 88.9953 130.695 87.9654C130.142 86.9338 129.668 86.1087 129.273 85.4899C129.194 85.382 129.189 85.2448 129.26 85.0781C129.341 84.897 129.457 84.777 129.607 84.7183C129.705 84.6663 129.791 84.6684 129.864 84.7246C129.935 84.768 130.003 84.7855 130.068 84.7772C130.119 84.7705 130.168 84.7445 130.215 84.6991C130.273 84.6392 130.325 84.5865 130.372 84.5411C130.43 84.4811 130.483 84.4349 130.531 84.4024C130.578 84.357 130.628 84.3375 130.681 84.3437C130.722 84.3516 130.769 84.3587 130.822 84.365C130.916 84.3792 131.032 84.3642 131.171 84.3201C131.216 84.2618 131.274 84.2083 131.347 84.1596L131.492 84.0621C131.629 84.0051 131.75 83.9764 131.855 83.976C131.973 83.974 132.062 83.9494 132.121 83.9024C132.207 83.852 132.273 83.8041 132.319 83.7587C132.377 83.6987 132.432 83.6654 132.484 83.6588C132.535 83.6521 132.598 83.6834 132.673 83.7525C132.76 83.8201 132.883 83.9553 133.04 84.1582C133.123 84.2919 133.305 84.6361 133.587 85.1906C133.881 85.7435 134.24 86.4391 134.663 87.2773C135.084 88.1027 135.56 89.0457 136.09 90.1065C136.619 91.1543 137.168 92.2586 137.738 93.4193C138.306 94.5672 138.876 95.7343 139.449 96.9209C140.033 98.0929 140.593 99.2286 141.128 100.328C141.662 101.415 142.147 102.429 142.583 103.37C143.031 104.297 143.401 105.083 143.694 105.728C143.888 104.994 144.147 104.095 144.469 103.029C144.803 101.949 145.164 100.78 145.554 99.5221C145.956 98.2625 146.377 96.9479 146.818 95.5783C147.259 94.2088 147.696 92.8594 148.128 91.5302C148.561 90.2011 148.976 88.9333 149.372 87.7271C149.781 86.5191 150.143 85.4551 150.457 84.535C150.771 83.6019 151.029 82.8532 151.232 82.2888C151.433 81.7115 151.555 81.3872 151.599 81.316C151.692 81.1203 151.773 81.0376 151.842 81.068C151.923 81.0839 152.018 81.1045 152.126 81.13C152.247 81.1537 152.317 81.1842 152.335 81.2212C152.353 81.2583 152.364 81.2962 152.369 81.335C152.372 81.3608 152.39 81.3914 152.42 81.4269C152.45 81.4494 152.53 81.4652 152.663 81.4744C152.753 81.4628 152.82 81.4738 152.864 81.5076C152.906 81.5284 152.95 81.5622 152.995 81.6089C153.052 81.6409 153.116 81.6787 153.187 81.722C153.257 81.7524 153.363 81.765 153.507 81.7596C153.56 81.7659 153.594 81.7746 153.609 81.7859C153.636 81.7955 153.652 81.8132 153.655 81.839C153.67 81.8502 153.684 81.8615 153.699 81.8727C153.712 81.8711 153.743 81.8605 153.793 81.8409ZM165.041 96.4027C165.112 96.8531 165.145 97.4134 165.14 98.0836C165.132 98.741 165.119 99.4517 165.099 100.216C165.078 100.967 165.065 101.736 165.061 102.525C165.058 103.313 165.1 104.049 165.188 104.733C165.247 105.185 165.335 105.614 165.452 106.019C165.568 106.411 165.723 106.745 165.916 107.022C166.028 107.179 166.093 107.321 166.109 107.451C166.139 107.578 166.147 107.695 166.135 107.802C166.121 107.895 166.105 107.976 166.087 108.044C166.071 108.125 166.08 108.196 166.115 108.257C166.149 108.319 166.151 108.39 166.123 108.473C166.096 108.568 166.047 108.653 165.978 108.728C165.911 108.815 165.827 108.879 165.727 108.918C165.642 108.968 165.557 108.972 165.473 108.931C165.319 108.859 165.196 108.822 165.104 108.821C165.025 108.818 164.954 108.827 164.891 108.848C164.843 108.881 164.794 108.913 164.746 108.945C164.711 108.976 164.659 108.983 164.591 108.965C164.357 108.877 164.1 108.773 163.822 108.651C163.544 108.529 163.354 108.383 163.253 108.212C163.192 108.141 163.123 108.019 163.049 107.845C162.987 107.669 162.92 107.461 162.85 107.22C162.793 106.978 162.733 106.717 162.67 106.436C162.608 106.155 162.553 105.88 162.505 105.611C162.182 106.466 161.809 107.19 161.386 107.783C160.977 108.374 160.547 108.856 160.096 109.229C159.659 109.613 159.211 109.901 158.749 110.092C158.301 110.281 157.883 110.4 157.496 110.45C157.096 110.501 156.734 110.496 156.411 110.432C156.1 110.367 155.852 110.274 155.666 110.154C154.952 109.603 154.434 109.151 154.113 108.798C153.803 108.431 153.645 108.123 153.639 107.874C153.598 107.04 153.7 106.252 153.946 105.511C154.192 104.771 154.529 104.077 154.958 103.431C155.385 102.773 155.879 102.171 156.439 101.626C157.01 101.067 157.595 100.565 158.194 100.12C158.805 99.6606 159.411 99.2676 160.012 98.9407C160.611 98.601 161.159 98.3204 161.656 98.0989C161.54 97.4048 161.43 96.802 161.325 96.2905C161.231 95.7643 161.136 95.3827 161.04 95.1456C160.743 94.3699 160.369 93.8141 159.919 93.4782C159.467 93.1294 158.957 92.9916 158.389 93.0647C158.027 93.1113 157.677 93.2942 157.337 93.6137C157.01 93.9314 156.728 94.3419 156.491 94.845C156.254 95.3482 156.078 95.9157 155.962 96.5476C155.859 97.1779 155.845 97.8296 155.918 98.5028C155.94 98.6707 155.967 98.8313 156 98.9846C156.033 99.1379 156.073 99.2968 156.121 99.4614C156.145 99.5501 156.121 99.6188 156.049 99.6676C155.989 99.7146 155.909 99.7577 155.809 99.7968C155.708 99.823 155.6 99.8501 155.485 99.878C155.37 99.9059 155.276 99.9377 155.202 99.9735C155.141 100.008 155.092 100.034 155.054 100.052C155.016 100.057 154.976 100.055 154.936 100.047C154.894 100.026 154.837 99.9942 154.766 99.9509C154.707 99.9059 154.622 99.8513 154.508 99.7871C154.395 99.7229 154.277 99.6725 154.154 99.6358C154.044 99.5974 153.942 99.5647 153.846 99.5376C153.764 99.5088 153.688 99.4857 153.621 99.4682C153.564 99.4361 153.532 99.3942 153.526 99.3425C153.423 98.5418 153.49 97.6929 153.729 96.7957C153.981 95.8968 154.359 95.0604 154.864 94.2865C155.379 93.4981 156.002 92.8272 156.731 92.2738C157.474 91.7187 158.291 91.3838 159.182 91.2691C159.905 91.176 160.545 91.2051 161.103 91.3565C161.661 91.5079 162.149 91.7338 162.569 92.0343C162.988 92.3347 163.342 92.6831 163.629 93.0793C163.929 93.4739 164.172 93.8824 164.358 94.3049C164.555 94.7128 164.704 95.1071 164.805 95.4879C164.918 95.8541 164.997 96.159 165.041 96.4027ZM161.979 100.302C161.61 100.494 161.208 100.736 160.773 101.029C160.338 101.321 159.902 101.659 159.466 102.044C159.028 102.415 158.597 102.838 158.172 103.313C157.748 103.788 157.361 104.304 157.013 104.86C156.597 105.505 156.308 106.067 156.147 106.547C155.985 107.028 155.9 107.432 155.89 107.762C155.878 108.079 155.922 108.322 156.023 108.493C156.124 108.664 156.228 108.762 156.337 108.787C156.757 108.891 157.173 108.857 157.584 108.686C158.006 108.5 158.411 108.225 158.797 107.86C159.195 107.481 159.565 107.046 159.909 106.555C160.264 106.05 160.592 105.542 160.894 105.03C161.194 104.506 161.457 103.999 161.683 103.511C161.907 103.009 162.088 102.579 162.226 102.22L161.979 100.302ZM170.147 80.9958C170.17 81.1766 170.203 81.5334 170.246 82.0662C170.288 82.599 170.338 83.2424 170.396 83.9964C170.452 84.7375 170.511 85.5569 170.574 86.4547C170.649 87.3378 170.717 88.2283 170.78 89.126C170.842 90.0108 170.906 90.869 170.974 91.7005C171.042 92.532 171.109 93.2585 171.176 93.8801C171.198 94.2579 171.232 94.6737 171.277 95.1273C171.335 95.5793 171.398 96.0636 171.464 96.5802C171.552 97.2646 171.645 97.9814 171.741 98.7304C171.849 99.4648 171.956 100.193 172.062 100.914C172.168 101.636 172.27 102.332 172.37 103.001C172.48 103.657 172.576 104.248 172.657 104.776C172.738 105.304 172.802 105.749 172.849 106.11C172.907 106.457 172.941 106.676 172.953 106.766C172.976 106.947 172.961 107.087 172.908 107.186C172.87 107.296 172.807 107.369 172.72 107.407C172.648 107.456 172.565 107.473 172.471 107.459C172.379 107.457 172.298 107.442 172.228 107.411C172.146 107.382 172.076 107.345 172.017 107.3C171.972 107.254 171.935 107.219 171.906 107.197C171.876 107.174 171.85 107.171 171.826 107.187C171.814 107.202 171.808 107.255 171.807 107.347C171.811 107.688 171.766 107.95 171.672 108.133C171.59 108.314 171.488 108.439 171.365 108.507C171.257 108.586 171.15 108.62 171.043 108.607C170.937 108.595 170.866 108.558 170.832 108.497C170.798 108.435 170.748 108.403 170.682 108.398C170.628 108.392 170.569 108.386 170.502 108.382C170.438 108.39 170.371 108.379 170.301 108.348C170.246 108.329 170.206 108.269 170.179 108.167C170.02 107.741 169.883 107.194 169.771 106.526C169.657 105.845 169.545 105.078 169.436 104.226C169.341 103.49 169.245 102.695 169.148 101.841C169.051 100.987 168.946 100.114 168.831 99.2232C168.764 98.7066 168.699 98.1965 168.634 97.6929C168.567 97.1763 168.487 96.6549 168.393 96.1288L168.236 94.9084C168.101 93.8623 167.993 92.8129 167.91 91.7602C167.825 90.6946 167.759 89.6725 167.712 88.694C167.665 87.7154 167.631 86.7942 167.612 85.9302C167.593 85.0662 167.573 84.3008 167.553 83.6338C167.532 82.9669 167.515 82.4243 167.501 82.006C167.486 81.5878 167.466 81.3279 167.44 81.2262C167.415 81.1375 167.413 81.0721 167.434 81.03C167.468 80.9863 167.51 80.9611 167.562 80.9544C167.625 80.9332 167.689 80.9184 167.753 80.9101C167.816 80.8889 167.872 80.862 167.92 80.8296C168.004 80.7663 168.073 80.7442 168.128 80.7634C168.195 80.768 168.25 80.7872 168.293 80.8209C168.337 80.8547 168.375 80.8957 168.408 80.944C168.451 80.9778 168.505 80.9905 168.57 80.9822C168.646 80.9593 168.701 80.9325 168.737 80.9016C168.784 80.8563 168.818 80.819 168.841 80.7898C168.874 80.7461 168.903 80.7097 168.925 80.6805C168.96 80.6497 169.005 80.6374 169.058 80.6437C169.165 80.6562 169.264 80.6631 169.356 80.6644C169.459 80.6511 169.509 80.6251 169.504 80.5863C169.516 80.4797 169.549 80.4295 169.602 80.4358C169.654 80.4291 169.723 80.4531 169.809 80.5077C169.894 80.5623 169.968 80.625 170.03 80.6958C170.09 80.7537 170.129 80.8537 170.147 80.9958ZM178.048 80.5694C178.094 80.826 178.119 81.1182 178.121 81.4461C178.136 81.7594 178.123 82.0695 178.084 82.3765C178.057 82.6818 177.995 82.959 177.895 83.2081C177.809 83.4556 177.688 83.6353 177.532 83.7473C177.134 84.0217 176.773 84.1797 176.45 84.2212C176.192 84.2545 175.959 84.2255 175.75 84.1342C175.553 84.0283 175.353 83.9095 175.153 83.7778C174.868 83.6045 174.613 83.3615 174.389 83.049C174.178 82.7349 174.053 82.4228 174.013 82.1129C173.981 81.8675 173.982 81.5655 174.014 81.2068C174.058 80.8336 174.123 80.4708 174.209 80.1184C174.295 79.766 174.391 79.4451 174.499 79.1556C174.617 78.8515 174.741 78.6387 174.869 78.5171C175.066 78.308 175.253 78.1854 175.432 78.1492C175.623 78.0984 175.779 78.0849 175.9 78.1087C176.192 78.1367 176.455 78.1882 176.688 78.2633C176.919 78.3254 177.119 78.4506 177.287 78.639C177.467 78.8127 177.617 79.0561 177.736 79.3689C177.855 79.6818 177.959 80.082 178.048 80.5694ZM177.574 89.4329C177.647 89.4892 177.72 89.6964 177.792 90.0547C177.878 90.4113 177.958 90.8802 178.032 91.4613C178.082 91.8488 178.13 92.2693 178.175 92.723C178.22 93.1766 178.261 93.644 178.297 94.1252C178.345 94.6047 178.388 95.0914 178.425 95.5855C178.461 96.0667 178.501 96.5276 178.544 96.9684C178.599 97.6965 178.659 98.3714 178.726 98.993C178.804 99.5999 178.88 100.188 178.953 100.756C179.05 101.505 179.144 102.188 179.237 102.807C179.33 103.425 179.403 103.941 179.456 104.354C179.514 104.806 179.54 105.157 179.532 105.407C179.537 105.643 179.489 105.781 179.389 105.82C179.276 105.861 179.186 105.931 179.12 106.031C179.053 106.119 178.992 106.206 178.937 106.291C178.883 106.377 178.814 106.452 178.73 106.515C178.661 106.59 178.566 106.621 178.447 106.611C178.38 106.606 178.263 106.562 178.095 106.479C177.927 106.395 177.743 106.294 177.544 106.175C177.356 106.042 177.172 105.888 176.992 105.715C176.812 105.541 176.683 105.354 176.605 105.154C176.566 105.054 176.513 104.851 176.448 104.544C176.395 104.236 176.334 103.863 176.264 103.426C176.195 102.988 176.12 102.506 176.039 101.978C175.956 101.437 175.873 100.896 175.79 100.356C175.719 99.8003 175.649 99.2579 175.581 98.7284C175.513 98.1989 175.451 97.7211 175.396 97.2949C175.312 96.6363 175.244 95.9622 175.195 95.2728C175.159 94.5817 175.128 93.9358 175.103 93.3351C175.091 92.7327 175.083 92.2086 175.078 91.7629C175.084 91.3026 175.089 90.9804 175.091 90.7963C175.103 90.4797 175.124 90.2341 175.154 90.0596C175.195 89.8704 175.243 89.733 175.298 89.6472C175.365 89.5597 175.431 89.5054 175.494 89.4842C175.568 89.4484 175.643 89.419 175.719 89.3961C175.87 89.3503 176.044 89.3214 176.239 89.3094C176.447 89.2957 176.644 89.2902 176.828 89.2927C177.012 89.2953 177.172 89.3141 177.308 89.3491C177.455 89.3695 177.544 89.3975 177.574 89.4329ZM196.301 79.0268C196.323 79.2997 196.337 79.7115 196.342 80.2622C196.347 80.8129 196.347 81.4694 196.34 82.2318C196.344 82.9795 196.354 83.8185 196.368 84.7487C196.381 85.666 196.408 86.6341 196.447 87.6531C196.484 88.6591 196.539 89.6958 196.611 90.7631C196.694 91.8158 196.803 92.8651 196.937 93.9112C197.007 94.4536 197.099 95.0654 197.213 95.7465C197.327 96.4276 197.443 97.1217 197.56 97.8286C197.688 98.521 197.816 99.2069 197.943 99.8864C198.068 100.553 198.179 101.156 198.274 101.695C198.37 102.234 198.44 102.678 198.485 103.026C198.53 103.375 198.536 103.578 198.504 103.634C198.45 103.72 198.37 103.763 198.265 103.764C198.162 103.777 198.057 103.777 197.95 103.765C197.845 103.765 197.74 103.766 197.635 103.766C197.543 103.765 197.481 103.792 197.449 103.849C197.431 103.917 197.394 103.987 197.338 104.06C197.284 104.146 197.214 104.221 197.131 104.284C197.062 104.358 196.97 104.416 196.858 104.457C196.745 104.498 196.62 104.501 196.485 104.466C196.248 104.365 196.018 104.204 195.792 103.984C195.582 103.774 195.433 103.485 195.346 103.116C195.274 102.862 195.202 102.563 195.132 102.218C195.074 101.871 195.013 101.498 194.948 101.099C194.882 100.687 194.815 100.269 194.747 99.8449C194.691 99.4058 194.636 98.9796 194.583 98.5664C194.383 99.4586 194.114 100.274 193.776 101.014C193.436 101.74 193.046 102.381 192.605 102.937C192.178 103.491 191.713 103.957 191.21 104.337C190.706 104.704 190.197 104.98 189.682 105.164C189.003 105.396 188.272 105.477 187.488 105.407C186.719 105.349 185.981 105.174 185.274 104.885C184.579 104.58 183.956 104.181 183.407 103.688C182.856 103.181 182.465 102.594 182.235 101.928C182.07 101.464 181.94 101.008 181.843 100.561C181.746 100.114 181.671 99.6839 181.617 99.2706C181.476 98.1729 181.484 97.161 181.64 96.235C181.797 95.309 182.043 94.4699 182.38 93.7177C182.714 92.9525 183.1 92.2793 183.537 91.6978C183.987 91.1148 184.429 90.6181 184.862 90.2079C185.295 89.7977 185.687 89.4781 186.038 89.2491C186.389 89.0201 186.646 88.8754 186.809 88.8151C187.108 88.6848 187.41 88.5867 187.717 88.521C188.023 88.4553 188.319 88.4041 188.603 88.3675C189.171 88.2944 189.708 88.2843 190.214 88.3374C190.719 88.3904 191.184 88.4816 191.608 88.6109C192.044 88.7385 192.432 88.8921 192.77 89.0717C193.121 89.2497 193.425 89.4206 193.683 89.5844C193.622 88.8045 193.561 88.0247 193.5 87.2448C193.438 86.465 193.382 85.7239 193.331 85.0215C193.293 84.3175 193.255 83.666 193.218 83.0669C193.193 82.4662 193.186 81.9551 193.197 81.5335C193.211 80.8228 193.231 80.2099 193.256 79.6946C193.295 79.1776 193.336 78.7325 193.38 78.3593C193.435 77.9715 193.491 77.6426 193.548 77.3727C193.618 77.1011 193.686 76.8626 193.751 76.6573C193.796 76.599 193.877 76.5623 193.993 76.5474C194.121 76.5178 194.264 76.5125 194.424 76.5312C194.583 76.5371 194.75 76.5615 194.926 76.6045C195.102 76.6475 195.267 76.705 195.421 76.7771C195.562 76.8509 195.684 76.9336 195.788 77.0253C195.891 77.1169 195.98 77.2434 196.053 77.4046C196.126 77.5659 196.18 77.7756 196.213 78.0339C196.259 78.2905 196.288 78.6215 196.301 79.0268ZM193.744 92.3531C193.722 92.1852 193.705 92.0036 193.693 91.8082C193.679 91.5999 193.674 91.4037 193.676 91.2196C193.585 91.3233 193.499 91.4197 193.418 91.5088C193.349 91.5834 193.299 91.6554 193.269 91.725C193.026 92.0844 192.856 92.2902 192.758 92.3422C192.658 92.3814 192.542 92.3503 192.411 92.249C191.42 91.4839 190.497 90.9988 189.644 90.7936C188.801 90.5738 188.051 90.5063 187.392 90.5911C186.953 90.6476 186.573 90.7491 186.25 90.8957C185.939 91.0276 185.694 91.1642 185.515 91.3054C185.193 91.5569 184.917 91.914 184.688 92.3768C184.457 92.8266 184.273 93.336 184.137 93.905C184.013 94.4724 183.933 95.0799 183.899 95.7277C183.875 96.3609 183.903 96.9874 183.983 97.6073C184.068 98.2659 184.214 98.8904 184.421 99.4807C184.641 100.069 184.93 100.577 185.287 101.004C185.644 101.43 186.078 101.749 186.591 101.958C187.102 102.155 187.698 102.196 188.38 102.083C189.124 101.947 189.778 101.679 190.344 101.278C190.922 100.876 191.418 100.392 191.831 99.8265C192.257 99.2597 192.603 98.6374 192.87 97.9597C193.138 97.2821 193.346 96.6054 193.495 95.9298C193.644 95.2541 193.738 94.6053 193.776 93.9834C193.814 93.3615 193.803 92.818 193.744 92.3531ZM213.769 94.4815C213.787 94.6236 213.816 94.7906 213.853 94.9827C213.891 95.1747 213.926 95.3934 213.958 95.6388C213.997 95.9488 214.002 96.342 213.972 96.8186C213.939 97.2822 213.852 97.7791 213.711 98.3094C213.582 98.838 213.382 99.3757 213.111 99.9226C212.84 100.469 212.485 100.975 212.046 101.438C211.606 101.902 211.067 102.299 210.427 102.631C209.802 102.974 209.063 103.201 208.21 103.31C207.448 103.409 206.648 103.361 205.809 103.167C204.985 102.984 204.204 102.632 203.467 102.109C202.742 101.573 202.105 100.86 201.558 99.9724C201.022 99.07 200.669 97.9601 200.499 96.6429C200.393 95.8163 200.391 94.9894 200.495 94.1622C200.611 93.3332 200.798 92.5412 201.055 91.786C201.325 91.0291 201.661 90.3229 202.063 89.6674C202.475 88.9972 202.919 88.415 203.393 87.9206C203.879 87.4117 204.39 86.998 204.927 86.6795C205.477 86.3593 206.023 86.1643 206.565 86.0945C207.508 85.9731 208.302 86.0218 208.947 86.2407C209.605 86.458 210.143 86.7628 210.561 87.1554C210.979 87.5479 211.292 87.9868 211.499 88.4722C211.717 88.943 211.852 89.3786 211.903 89.7789C211.953 90.1663 211.914 90.6244 211.785 91.1529C211.667 91.667 211.424 92.1774 211.057 92.6843C210.687 93.1782 210.18 93.6242 209.535 94.0223C208.889 94.4074 208.069 94.664 207.074 94.792C206.545 94.8602 206.058 94.8507 205.613 94.7635C205.18 94.6617 204.788 94.5219 204.437 94.3439C204.084 94.153 203.775 93.9434 203.509 93.715C203.255 93.4721 203.035 93.2443 202.85 93.0318C202.721 93.8624 202.725 94.8137 202.863 95.8856C202.958 96.6217 203.147 97.2735 203.43 97.8409C203.724 98.3938 204.085 98.8528 204.513 99.2178C204.941 99.5828 205.427 99.8419 205.972 99.9949C206.517 100.148 207.099 100.185 207.719 100.105C208.494 100.005 209.155 99.7886 209.703 99.4555C210.249 99.1095 210.71 98.7089 211.084 98.2537C211.472 97.7968 211.791 97.3159 212.041 96.8111C212.302 96.2917 212.524 95.8234 212.707 95.406C212.888 94.9757 213.045 94.6207 213.18 94.3408C213.327 94.0592 213.486 93.9141 213.656 93.9054C213.733 93.8954 213.78 93.955 213.797 94.0841C213.805 94.1487 213.807 94.2141 213.802 94.2803C213.798 94.3466 213.787 94.4136 213.769 94.4815ZM207.011 88.026C206.778 88.056 206.481 88.1467 206.12 88.2982C205.77 88.4352 205.404 88.6529 205.023 88.9515C204.654 89.2484 204.297 89.6357 203.951 90.1134C203.604 90.5782 203.324 91.1526 203.11 91.8366C203.279 91.7229 203.424 91.6254 203.545 91.5442C203.679 91.4614 203.771 91.4166 203.823 91.41C203.849 91.4067 203.891 91.4275 203.949 91.4725C204.311 91.9379 204.726 92.2521 205.193 92.4151C205.672 92.5636 206.188 92.6021 206.744 92.5306C207.183 92.474 207.548 92.3548 207.84 92.1728C208.143 91.9763 208.383 91.7485 208.559 91.4894C208.736 91.2304 208.852 90.9594 208.908 90.6766C208.961 90.3809 208.971 90.0974 208.936 89.8262C208.861 89.245 208.651 88.7863 208.306 88.4501C207.959 88.1009 207.527 87.9595 207.011 88.026ZM224.897 86.0778C224.932 86.454 224.941 86.8335 224.925 87.2163C224.92 87.5846 224.887 87.9433 224.827 88.2923C224.765 88.6285 224.674 88.9357 224.552 89.2139C224.443 89.4905 224.308 89.7179 224.148 89.8961C224.009 90.0452 223.895 90.1256 223.804 90.1372C223.714 90.1489 223.633 90.133 223.562 90.0897C223.504 90.0447 223.451 89.9924 223.404 89.9328C223.357 89.8732 223.3 89.8411 223.234 89.8365C223.181 89.8303 223.11 89.8459 223.023 89.8833C222.948 89.9062 222.864 89.917 222.772 89.9157C222.692 89.9128 222.609 89.8776 222.522 89.8101C222.445 89.728 222.38 89.5788 222.326 89.3626C222.269 89.1206 222.235 88.8033 222.223 88.4109C222.223 88.0039 222.199 87.6132 222.151 87.2387C222.108 86.9029 222.034 86.6302 221.928 86.4207C221.833 86.1965 221.696 86.0961 221.515 86.1194C221.424 86.131 221.272 86.2228 221.058 86.3948C220.855 86.5522 220.646 86.8679 220.432 87.3419C220.217 87.8159 220.028 88.4901 219.865 89.3644C219.7 90.2258 219.623 91.3583 219.633 92.7617C219.862 94.5439 220.06 95.9757 220.225 97.0572C220.391 98.1386 220.512 98.9829 220.591 99.5898C220.657 100.106 220.692 100.476 220.694 100.699C220.696 100.922 220.65 101.072 220.555 101.15C220.496 101.197 220.372 101.259 220.185 101.336C220.013 101.423 219.82 101.507 219.607 101.587C219.407 101.665 219.213 101.736 219.024 101.8C218.835 101.864 218.714 101.893 218.661 101.886C218.621 101.878 218.544 101.842 218.43 101.778C218.319 101.727 218.198 101.657 218.069 101.569C217.952 101.479 217.841 101.381 217.736 101.277C217.632 101.185 217.569 101.101 217.546 101.026C217.503 100.9 217.453 100.611 217.395 100.159C217.348 99.6922 217.283 99.1361 217.2 98.4904C217.13 97.843 217.052 97.1375 216.967 96.3739C216.88 95.5974 216.787 94.8281 216.689 94.0662C216.626 93.5755 216.569 93.0314 216.518 92.434C216.479 91.8221 216.439 91.2036 216.398 90.5788C216.37 89.9522 216.343 89.3386 216.318 88.7379C216.294 88.1372 216.271 87.6019 216.249 87.132C216.24 86.6475 216.228 86.2487 216.214 85.9354C216.211 85.6075 216.212 85.4105 216.216 85.3443C216.216 85.2393 216.256 85.1947 216.337 85.2106C216.431 85.2248 216.527 85.2583 216.626 85.3113C216.737 85.3625 216.835 85.409 216.919 85.4507C217.003 85.4924 217.055 85.4857 217.074 85.4307C217.085 85.3112 217.18 85.2858 217.36 85.3546C217.538 85.4105 217.704 85.4809 217.86 85.5659C217.92 85.6239 217.985 85.6745 218.056 85.7178C218.139 85.7466 218.217 85.7956 218.292 85.8647C218.365 85.921 218.428 86.0048 218.482 86.116C218.548 86.2256 218.594 86.3772 218.619 86.5709C218.642 86.7517 218.69 87.0213 218.763 87.3795C218.835 87.7378 218.922 88.1598 219.024 88.6456C219.106 88.1624 219.211 87.65 219.338 87.1085C219.478 86.5653 219.663 86.0624 219.892 85.5996C220.12 85.124 220.409 84.7192 220.76 84.3852C221.111 84.0512 221.557 83.8493 222.1 83.7794C222.397 83.7412 222.701 83.7611 223.013 83.8391C223.325 83.917 223.612 84.0573 223.875 84.2598C224.148 84.4478 224.377 84.694 224.561 84.9986C224.744 85.3032 224.856 85.6629 224.897 86.0778Z" fill="black"/>
</g>
<defs>
<linearGradient id="paint0_linear_25_218" x1="309.61" y1="101.66" x2="339.61" y2="101.66" gradientUnits="userSpaceOnUse">
<stop stop-color="#8E642C"/>
<stop offset="0.38" stop-color="#F4E09C"/>
<stop offset="0.51" stop-color="#F1D07F"/>
<stop offset="0.64" stop-color="#F4E09C"/>
<stop offset="1" stop-color="#8E642C"/>
</linearGradient>
<clipPath id="clip0_25_218">
<rect width="342.77" height="201.77" fill="white" transform="translate(0 0.770004)"/>
</clipPath>
</defs>
</svg>
