<?xml version="1.0" encoding="UTF-8"?>
<svg id="Layer_2" data-name="Layer 2" xmlns="http://www.w3.org/2000/svg" xmlns:xlink="http://www.w3.org/1999/xlink" viewBox="0 0 353.11 126.73">
  <defs>
    <style>
      .cls-1 {
        fill: #ddd4b3;
      }

      .cls-2 {
        fill: #c7b299;
      }

      .cls-3 {
        fill: url(#Gold_Chalice_Shine);
      }

      .cls-3, .cls-4 {
        stroke: #c69c6d;
        stroke-miterlimit: 1;
        stroke-width: .74px;
      }

      .cls-4 {
        fill: url(#Gold_Chalice_Shine-2);
      }
    </style>
    <linearGradient id="Gold_Chalice_Shine" x1="320.05" y1="63.37" x2="350.05" y2="63.37" gradientUnits="userSpaceOnUse">
      <stop offset="0" stop-color="#8e642c"/>
      <stop offset=".38" stop-color="#f4e09c"/>
      <stop offset=".51" stop-color="#f1d07f"/>
      <stop offset=".64" stop-color="#f4e09c"/>
      <stop offset="1" stop-color="#8e642c"/>
    </linearGradient>
    <linearGradient id="Gold_Chalice_Shine-2" data-name="Gold_Chalice_Shine" x1="3.05" x2="33.05" xlink:href="#Gold_Chalice_Shine"/>
  </defs>
  <g id="Scroll">
    <path id="Metallic_tube_Right" class="cls-3" d="m344.05,107.47V17.26c3.64-1,6-2.59,6-4.39s-2.39-3.41-6.06-4.41c-.36-1.31-2.45-2.41-5.32-2.92.02-.22.05-.44.05-.67,0-2.48-1.42-4.5-3.17-4.5s-3.17,2.01-3.17,4.5c0,.18.02.35.04.52-3.37.42-5.9,1.61-6.31,3.07-3.67,1-6.06,2.6-6.06,4.41,0,1.63,1.94,3.08,5,4.09v90.82c-3.06,1.01-5,2.46-5,4.09,0,1.91,2.67,3.6,6.71,4.58-.46.44-.71.92-.71,1.42,0,1.64,2.68,3.03,6.37,3.48-.01.17-.04.34-.04.52,0,2.48,1.42,4.5,3.17,4.5s3.17-2.01,3.17-4.5c0-.23-.02-.45-.05-.67,3.17-.56,5.38-1.84,5.38-3.33,0-.5-.25-.98-.71-1.42,4.04-.99,6.71-2.67,6.71-4.58,0-1.8-2.36-3.39-6-4.39Z"/>
    <path id="Metallic_tube_left" class="cls-4" d="m27.05,107.47V17.26c3.64-1,6-2.59,6-4.39s-2.39-3.41-6.06-4.41c-.36-1.31-2.45-2.41-5.32-2.92.02-.22.05-.44.05-.67,0-2.48-1.42-4.5-3.17-4.5s-3.17,2.01-3.17,4.5c0,.18.02.35.04.52-3.37.42-5.9,1.61-6.31,3.07-3.67,1-6.06,2.6-6.06,4.41,0,1.63,1.94,3.08,5,4.09v90.82c-3.06,1.01-5,2.46-5,4.09,0,1.91,2.67,3.6,6.71,4.58-.46.44-.71.92-.71,1.42,0,1.64,2.68,3.03,6.37,3.48-.01.17-.04.34-.04.52,0,2.48,1.42,4.5,3.17,4.5s3.17-2.01,3.17-4.5c0-.23-.02-.45-.05-.67,3.17-.56,5.38-1.84,5.38-3.33,0-.5-.25-.98-.71-1.42,4.04-.99,6.71-2.67,6.71-4.58,0-1.8-2.36-3.39-6-4.39Z"/>
    <g id="Center_part_Scroll">
      <path class="cls-1" d="m335.05,99.37c-49.68,3.15-102.45,5-158,5s-108.32-1.85-158-5c-.33-24.33-.67-53.67-1-78,49.32,4.38,103.18,12.1,161,12,55.52-.09,108.37-7.77,156-12,.33,24.33-.33,53.67,0,78Z"/>
      <path class="cls-2" d="m335.05,96.87c-19.83,1.25-39.68,2.28-59.54,3.06-20.74.82-41.5,1.38-62.25,1.68-21.46.31-42.92.35-64.37.1-20.87-.24-41.73-.73-62.59-1.49-19.97-.73-39.94-1.69-59.89-2.9-2.45-.15-4.91-.3-7.36-.46v.34c-.27-20.42-.5-40.84-.77-61.26-.07-5.58-.14-11.16-.22-16.74v4.66c19.54,1.74,39.04,3.91,58.57,5.87,20.76,2.09,41.54,3.95,62.38,5.05,21.82,1.15,43.68,1.4,65.52.54s42.51-2.61,63.7-4.7c19.94-1.97,39.86-4.23,59.81-6.12,2.34-.22,4.68-.44,7.02-.64v-.34c.26,20.39-.14,40.78-.12,61.17,0,5.61.03,11.22.11,16.83.01.95.03-.81.03-.9,0-1.14,0-2.28,0-3.42-.27-20.39.12-40.78.11-61.17,0-5.61-.03-11.22-.11-16.83,0-.11,0-.23-.01-.34-19.78,1.76-39.51,3.99-59.27,6-21.05,2.14-42.13,4.04-63.27,5.1-21.86,1.09-43.74,1.15-65.6.2-20.99-.91-41.93-2.65-62.83-4.69-19.69-1.92-39.36-4.12-59.06-5.97-2.32-.22-4.65-.43-6.97-.64.02,0-.02,4.28-.01,4.66.28,20.42.52,40.84.78,61.26.07,5.58.14,11.16.22,16.74,0,.11,0,.23.01.34,19.83,1.25,39.68,2.28,59.54,3.06,20.74.82,41.5,1.38,62.25,1.68,21.46.31,42.92.35,64.37.1,20.87-.24,41.73-.73,62.59-1.49,19.97-.73,39.94-1.69,59.89-2.9,2.45-.15,4.91-.3,7.36-.46.14,0-.07-5,0-5Z"/>
    </g>
    <g id="Right_Paper_Tube">
      <path class="cls-1" d="m351.96,18c-.43-.35-7.04-5.55-17.3-4.86-8.2.55-15.22,4.63-17.17,10.14.22,26.67.44,53.33.66,80,6.77,5.1,17.46,6.49,25.13,3.79,7.63-2.68,9.15-8.31,9.34-9.08-.22-26.67-.44-53.33-.66-80Z"/>
      <path class="cls-2" d="m351.96,15.5c-3.51-2.84-8.32-4.35-12.74-4.79-6.92-.68-15.32,1.18-19.88,6.83-.8.99-1.73,2.29-1.86,3.58-.25,2.58,0,5.31.03,7.9l.12,14.41c.08,9.77.16,19.54.24,29.32s.16,19.54.24,29.32c0,1.05-.2,2.35.03,3.37.09.39.03.36.44.65.39.28.78.54,1.19.79,1.51.93,3.12,1.68,4.78,2.28,3.47,1.24,7.19,1.83,10.87,1.75,6.16-.12,13.06-2.26,16.22-7.98.35-.64.69-1.33.88-2.04.37-1.38.14-2.99.13-4.41-.03-4.89-.08-9.77-.12-14.66-.16-19.46-.32-38.92-.48-58.38l-.06-7.2c0,.11,0-.73-.02-.73s-.02.85-.02.73c-.01,1.18,0,2.36,0,3.54.17,20.79.34,41.57.51,62.36.05,5.88.1,11.76.14,17.64l.02-4.27c-.87,3.5-3.7,6.33-6.79,7.97-5.47,2.9-12.31,3.02-18.23,1.6-3.39-.81-6.64-2.21-9.45-4.29l.02.73c-.17-20.79-.34-41.57-.51-62.36l-.14-17.64-.02,4.27c2.04-5.48,7.97-8.49,13.38-9.62,5.89-1.23,12.15-.5,17.55,2.17,1.23.61,2.46,1.3,3.54,2.17-.2-.17.02-2.18.02-2.5,0-.59,0-1.18,0-1.77,0-.12.06-.67-.02-.73Z"/>
    </g>
    <g id="Right_Paper_Tube-2" data-name="Right_Paper_Tube">
      <path class="cls-1" d="m1.12,105.61c.43.35,7.04,5.55,17.3,4.87,8.2-.55,15.22-4.63,17.18-10.13-.21-26.67-.42-53.33-.62-80-6.77-5.1-17.46-6.5-25.13-3.8C2.21,19.22.69,24.85.5,25.61c.21,26.67.42,53.33.62,80Z"/>
      <path class="cls-2" d="m1.12,108.11c3.51,2.84,8.32,4.35,12.74,4.79,6.91.69,15.32-1.17,19.89-6.83.8-.99,1.73-2.29,1.86-3.58.25-2.58,0-5.31-.03-7.9-.04-4.8-.07-9.61-.11-14.41-.08-9.77-.15-19.54-.23-29.32l-.23-29.32c0-1.05.2-2.35-.03-3.37-.09-.39-.03-.36-.44-.65-.39-.28-.78-.54-1.19-.79-1.51-.93-3.12-1.68-4.78-2.28-3.47-1.24-7.19-1.83-10.87-1.76-6.16.12-13.06,2.26-16.22,7.98-.35.64-.69,1.33-.88,2.04-.37,1.38-.14,3-.13,4.41.03,4.89.08,9.77.11,14.66.15,19.46.3,38.92.45,58.38l.06,7.2c0-.11,0,.73.02.73s.02-.85.02-.73c.01-1.18,0-2.36,0-3.54-.16-20.79-.32-41.57-.49-62.36l-.14-17.64-.02,4.27c.87-3.5,3.7-6.32,6.8-7.97,5.47-2.9,12.31-3.01,18.23-1.59,3.39.81,6.64,2.21,9.45,4.29l-.02-.73c.16,20.79.32,41.57.49,62.36l.14,17.64.02-4.27c-2.04,5.48-7.98,8.49-13.39,9.62-5.89,1.23-12.15.49-17.55-2.18-1.23-.61-2.46-1.3-3.53-2.17.2.17-.02,2.18-.02,2.5,0,.59,0,1.18,0,1.77,0,.12-.06.67.02.73Z"/>
    </g>
  </g>
</svg>