<?xml version="1.0" standalone="no"?>
<!DOCTYPE svg PUBLIC "-//W3C//DTD SVG 20010904//EN"
 "http://www.w3.org/TR/2001/REC-SVG-20010904/DTD/svg10.dtd">
<svg version="1.0" xmlns="http://www.w3.org/2000/svg"
 width="1172.000000pt" height="1172.000000pt" viewBox="0 0 1172.000000 1172.000000"
 preserveAspectRatio="xMidYMid meet">
<metadata>
Created by potrace 1.14, written by Peter Selinger 2001-2017
</metadata>
<g transform="translate(0.000000,1172.000000) scale(0.100000,-0.100000)"
fill="#000000" stroke="none">
<path d="M11706 9213 c-2 -10 -8 -43 -11 -73 -16 -126 -85 -355 -147 -486 -17
-38 -33 -71 -33 -74 -1 -6 -26 -54 -68 -130 -65 -118 -253 -392 -292 -425 -6
-5 -16 -17 -21 -27 -19 -34 -134 -158 -294 -318 -202 -202 -355 -337 -517
-458 -35 -26 -63 -50 -63 -54 0 -5 -4 -8 -10 -8 -9 0 -24 -11 -64 -45 -13 -12
-31 -24 -186 -131 -122 -85 -410 -267 -472 -299 -21 -11 -38 -23 -38 -27 0 -8
289 -3 327 6 12 2 46 7 75 10 29 4 64 9 78 12 14 3 36 7 50 9 43 5 212 45 285
67 39 11 77 22 85 23 8 2 15 4 15 5 0 1 7 3 15 5 21 5 193 62 222 74 12 6 88
36 168 67 80 31 170 68 200 82 96 43 304 142 320 151 8 5 53 29 100 53 69 35
266 144 278 153 2 2 2 115 2 251 -2 312 1 1422 3 1527 1 42 1 77 0 77 -1 0 -4
-8 -7 -17z"/>
<path d="M4537 7723 c-4 -3 -34 -6 -67 -5 l-61 0 3 -896 3 -896 98 -1 c81 -1
97 1 98 14 1 9 2 366 3 793 1 428 5 781 9 784 4 5 1714 7 2047 3 8 0 265 0
570 0 305 0 911 0 1346 -1 l792 0 0 -312 c0 -171 1 -318 1 -326 1 -15 20 -16
179 -11 l22 1 0 426 c0 375 -2 425 -15 420 -8 -3 -15 -1 -15 3 0 5 -15 6 -32
2 -29 -5 -154 -6 -168 -1 -3 1 -9 1 -15 0 -21 -4 -145 -3 -150 2 -3 2 -27 2
-55 -2 -27 -4 -50 -2 -50 2 0 5 -5 6 -12 2 -16 -10 -238 -11 -238 -1 0 5 -5 5
-10 2 -6 -4 -38 -6 -73 -6 -69 1 -74 1 -170 -2 -37 -1 -67 2 -67 6 0 5 -5 5
-10 2 -6 -4 -38 -6 -73 -6 -69 1 -74 1 -170 -2 -37 -1 -67 2 -67 6 0 5 -5 5
-10 2 -6 -4 -38 -6 -73 -6 -69 1 -74 1 -170 -2 -37 -1 -67 2 -67 6 0 5 -4 5
-10 2 -5 -3 -36 -6 -67 -6 -32 0 -76 1 -97 1 -22 0 -42 -2 -44 -5 -3 -3 -11 0
-18 6 -7 5 -14 6 -17 2 -4 -7 -170 -9 -187 -2 -3 1 -9 0 -15 -1 -21 -4 -145
-3 -150 2 -3 2 -27 2 -55 -2 -27 -4 -50 -2 -50 2 0 5 -5 6 -12 2 -14 -9 -222
-9 -236 0 -6 3 -13 3 -15 -2 -3 -4 -23 -6 -44 -5 -63 5 -156 4 -161 -2 -3 -3
-11 0 -18 6 -7 5 -14 6 -17 2 -4 -7 -170 -9 -187 -2 -3 1 -9 0 -15 -1 -21 -4
-145 -3 -150 2 -3 2 -27 2 -55 -2 -27 -4 -50 -2 -50 2 0 5 -5 6 -12 2 -14 -9
-222 -9 -236 0 -6 3 -13 3 -15 -2 -3 -4 -23 -6 -44 -5 -63 5 -156 4 -161 -2
-3 -3 -11 0 -18 6 -7 5 -14 6 -17 2 -4 -7 -170 -9 -187 -2 -3 1 -9 0 -15 -1
-21 -4 -145 -3 -150 2 -3 2 -27 2 -55 -2 -27 -4 -50 -2 -50 2 0 5 -5 6 -12 2
-14 -9 -222 -9 -236 0 -6 3 -13 3 -15 -2 -3 -4 -23 -6 -44 -5 -63 5 -156 4
-161 -2 -3 -3 -11 0 -18 6 -7 5 -14 6 -17 2 -6 -9 -169 -9 -184 0 -6 4 -13 4
-16 0z"/>
<path d="M11699 7102 c-14 -33 -308 -195 -492 -271 -118 -48 -256 -99 -287
-106 -8 -2 -35 -11 -59 -19 -24 -9 -53 -18 -65 -21 -12 -2 -52 -14 -91 -25
-38 -12 -81 -23 -95 -26 -14 -2 -36 -9 -50 -14 -14 -5 -68 -18 -120 -30 -52
-11 -106 -23 -120 -26 -24 -5 -245 -48 -305 -58 -16 -3 -40 -8 -51 -10 -25 -5
-69 -12 -134 -21 -43 -6 -66 -9 -127 -20 -16 -2 -53 -7 -83 -10 -30 -3 -64 -7
-75 -9 -11 -3 -30 -5 -42 -5 -32 -1 -29 -12 23 -76 141 -173 443 -338 919
-501 111 -38 294 -96 345 -109 87 -22 218 -58 230 -62 8 -3 24 -8 34 -10 10
-2 53 -12 95 -23 80 -20 372 -89 406 -95 11 -2 36 -7 55 -10 19 -3 49 -10 67
-15 27 -7 32 -5 35 14 7 36 3 1554 -3 1561 -4 3 -9 2 -10 -3z"/>
<path d="M115 6774 c-14 -34 -17 -63 -30 -279 -3 -55 -8 -122 -10 -150 -11
-124 -34 -515 -40 -660 -3 -86 -16 -388 -20 -470 -20 -402 -15 -510 20 -538
10 -8 159 -2 185 7 8 3 44 8 80 10 36 3 65 5 65 6 0 3 100 18 165 25 77 9 104
20 128 55 43 65 53 170 17 184 -9 3 -46 -5 -83 -19 -95 -33 -161 -50 -234 -60
-20 -3 -56 -9 -80 -14 -24 -5 -69 -13 -101 -16 l-57 -7 5 34 c2 18 7 134 10
258 6 270 17 536 30 720 3 41 7 113 10 160 10 168 15 256 20 310 3 30 8 87 10
125 3 39 8 84 10 100 11 81 17 177 11 199 -9 36 -33 56 -67 56 -24 0 -31 -6
-44 -36z"/>
<path d="M6387 6482 c-18 -4 -45 -48 -53 -85 -11 -62 -17 -165 -18 -384 -2
-134 -5 -245 -8 -248 -3 -3 -15 -8 -28 -10 -35 -7 -70 -33 -80 -61 -13 -33 8
-73 55 -105 19 -13 38 -33 40 -44 3 -11 7 -101 10 -200 3 -99 7 -196 10 -215
2 -19 6 -55 8 -80 3 -25 10 -65 18 -90 7 -25 13 -47 14 -50 5 -24 52 -97 83
-128 58 -59 121 -85 206 -84 39 0 78 2 86 5 8 2 30 8 47 12 18 4 38 14 44 21
6 8 18 14 26 14 22 0 108 94 134 146 39 82 35 161 -10 179 -32 13 -56 14 -71
2 -22 -17 -60 -81 -60 -101 0 -9 -4 -16 -10 -16 -5 0 -10 -6 -10 -12 0 -7 -17
-32 -38 -56 -60 -69 -138 -83 -207 -38 -70 46 -99 206 -100 555 0 183 2 214
15 216 8 2 31 6 50 9 19 4 49 8 65 10 17 2 46 7 65 10 92 17 150 25 200 31 90
10 102 20 115 94 11 66 -21 77 -159 56 -55 -9 -83 -13 -136 -20 -25 -3 -65
-10 -90 -15 -25 -5 -64 -12 -87 -14 l-42 -4 4 91 c3 51 6 144 9 207 2 63 7
165 11 227 4 62 5 123 1 136 -8 34 -54 51 -109 39z"/>
<path d="M1368 6137 c-18 -5 -39 -14 -47 -20 -41 -35 -30 -109 25 -157 29 -25
43 -31 73 -28 30 2 36 0 37 -17 1 -26 -35 -93 -61 -114 -36 -29 -46 -48 -40
-74 9 -35 53 -50 91 -31 97 48 150 195 118 322 -24 98 -100 143 -196 119z"/>
<path d="M9475 5592 c0 -297 4 -490 10 -494 5 -4 14 -4 20 0 5 3 15 7 20 8 6
1 35 6 65 13 30 6 66 12 80 15 14 2 52 9 85 15 33 5 80 13 105 16 25 3 57 8
71 10 14 3 43 7 65 10 21 2 55 7 74 10 19 3 57 7 84 10 26 2 65 6 85 9 40 5
157 17 211 21 19 1 80 6 135 10 55 4 120 8 145 10 116 9 457 18 668 18 128 -1
232 0 230 2 -2 2 -21 6 -43 9 -38 5 -56 8 -115 21 -14 4 -34 8 -45 9 -11 2
-40 9 -65 15 -39 10 -65 16 -105 25 -106 24 -535 172 -735 255 -69 29 -132 54
-141 56 -9 2 -25 8 -35 13 -11 6 -35 17 -54 25 -82 34 -282 123 -368 163 -52
24 -96 44 -98 44 -2 0 -81 38 -175 85 -94 47 -171 85 -172 85 -1 0 -2 -219 -2
-488z"/>
<path d="M3481 6029 c-41 -9 -58 -25 -65 -62 -6 -37 6 -69 42 -106 32 -34 100
-55 124 -37 45 33 66 127 38 162 -29 34 -90 54 -139 43z"/>
<path d="M7240 6031 c-103 -23 -97 -143 9 -197 60 -30 101 -18 124 36 14 33
16 80 5 103 -19 37 -92 68 -138 58z"/>
<path d="M3859 5634 c-11 -14 -14 -103 -5 -150 17 -87 25 -211 32 -499 2 -126
10 -242 16 -257 7 -20 20 -29 43 -34 73 -13 98 18 90 114 -12 129 0 282 25
331 4 9 21 48 38 87 47 112 139 243 202 287 44 30 93 15 108 -34 3 -13 7 -190
7 -392 0 -403 -3 -387 60 -387 17 1 39 7 50 16 18 13 20 28 22 157 4 252 10
294 66 403 59 115 160 202 240 209 52 5 56 -15 52 -265 -3 -124 -7 -286 -11
-360 -6 -125 -5 -136 13 -152 17 -16 52 -23 95 -19 22 1 37 55 27 98 -3 18 -4
99 -2 180 8 240 6 437 -6 492 -24 115 -86 157 -201 138 -61 -10 -191 -109
-245 -186 -27 -40 -47 -46 -41 -13 3 15 -8 97 -17 127 -10 32 -39 74 -62 89
-15 10 -51 20 -80 23 -69 7 -144 -26 -214 -96 -56 -55 -151 -194 -151 -219 0
-8 -3 -13 -6 -9 -7 7 -12 54 -18 178 -4 90 -14 122 -45 138 -33 18 -69 20 -82
5z"/>
<path d="M5670 5639 c0 -6 -4 -8 -8 -5 -18 11 -110 -44 -162 -95 -71 -70 -88
-91 -133 -165 -120 -199 -186 -428 -153 -537 45 -148 228 -189 357 -78 51 44
143 174 208 294 24 42 44 77 44 77 1 0 2 -78 2 -172 0 -188 9 -232 52 -249 26
-10 72 4 89 27 9 11 7 34 -10 97 -23 86 -26 186 -11 332 26 249 25 256 -22
281 -28 15 -45 36 -71 87 -38 76 -59 94 -117 102 -22 3 -46 8 -52 10 -7 2 -13
0 -13 -6z m80 -141 c18 -30 19 -60 5 -118 -14 -57 -15 -70 -5 -95 9 -24 5 -39
-31 -109 -87 -174 -204 -318 -283 -351 -47 -20 -53 -19 -80 9 -20 19 -23 31
-20 72 6 70 24 157 36 172 6 6 8 12 5 12 -11 0 75 164 129 245 112 170 203
230 244 163z"/>
<path d="M1931 5627 c-6 -6 -11 -8 -11 -4 0 14 -93 -55 -140 -103 -163 -166
-305 -523 -269 -675 13 -54 64 -113 116 -134 18 -7 54 -14 80 -15 128 -5 212
79 397 396 l21 38 1 -158 c2 -200 3 -215 24 -242 21 -28 67 -31 104 -7 26 18
26 22 6 97 -29 106 -31 228 -5 435 12 90 12 152 1 167 -6 8 -25 22 -42 31 -23
12 -40 35 -62 81 -17 36 -42 72 -57 82 -32 21 -146 29 -164 11z m115 -118 c20
-22 22 -89 5 -156 -7 -28 -8 -50 -1 -68 8 -20 5 -36 -11 -73 -28 -62 -100
-186 -111 -190 -4 -2 -8 -9 -8 -14 0 -6 -7 -18 -15 -27 -8 -9 -38 -42 -67 -74
-51 -57 -108 -95 -138 -92 -8 1 -22 3 -32 3 -37 4 -42 89 -13 206 16 65 116
272 147 305 10 11 18 24 18 29 0 5 26 37 57 72 86 95 134 118 169 79z"/>
<path d="M2832 5614 c-62 -30 -132 -99 -173 -169 -16 -27 -29 -48 -30 -45 -1
3 -3 46 -4 95 -3 109 -2 100 -21 119 -19 20 -73 20 -98 1 -19 -15 -22 -52 -10
-170 3 -27 7 -201 9 -385 2 -184 4 -342 4 -352 1 -19 51 -39 82 -33 46 9 52
23 44 110 -8 84 -8 227 1 334 5 70 51 193 84 229 11 12 20 24 20 27 0 17 110
110 149 128 47 21 101 19 124 -5 21 -21 44 -89 52 -152 9 -75 8 -404 -1 -471
-4 -27 -7 -77 -8 -110 -1 -58 0 -60 33 -76 36 -17 74 -15 90 5 6 7 13 41 16
75 3 35 8 68 12 74 3 6 1 7 -5 3 -9 -5 -10 0 -4 16 8 24 7 264 -2 403 -9 144
-43 240 -108 306 -47 49 -73 60 -142 65 -51 3 -70 0 -114 -22z"/>
<path d="M7267 5629 c-57 -15 -56 -9 -52 -439 2 -217 4 -410 4 -428 1 -25 8
-36 31 -51 17 -10 41 -17 53 -16 12 1 28 3 34 4 13 1 46 55 38 62 -3 4 -13
100 -21 219 -3 36 -5 180 -5 320 0 140 -2 269 -5 286 -5 37 -36 54 -77 43z"/>
<path d="M8850 5631 c-74 -23 -150 -88 -214 -183 l-35 -51 1 89 c1 101 -1 114
-22 131 -20 16 -72 16 -94 0 -21 -15 -22 -34 -12 -172 5 -55 9 -242 11 -415 1
-173 3 -320 4 -326 2 -17 42 -32 76 -28 44 5 58 29 49 89 -16 116 -4 385 21
460 34 98 125 217 201 261 57 34 96 39 138 19 33 -16 42 -28 51 -72 2 -10 8
-38 13 -62 11 -47 9 -520 -2 -561 -14 -51 -9 -94 14 -112 30 -24 96 -24 109 0
26 48 30 470 6 652 -26 203 -165 326 -315 281z"/>
<path d="M3474 5609 c-17 -19 -18 -38 -16 -252 3 -404 9 -611 16 -629 9 -19
61 -39 90 -34 11 1 28 13 38 26 16 20 18 33 12 89 -3 36 -8 75 -11 86 -3 11
-7 175 -9 364 -3 230 -8 349 -15 358 -18 21 -83 16 -105 -8z"/>
<path d="M7880 5617 c-36 -12 -122 -90 -157 -142 -60 -91 -130 -254 -148 -345
-35 -182 -21 -282 51 -356 59 -60 121 -86 209 -86 117 -1 185 31 287 134 129
131 191 367 136 516 -16 44 -84 145 -109 162 -4 3 -7 20 -7 38 1 18 -6 40 -15
49 -28 28 -194 48 -247 30z m120 -127 c0 -6 27 -35 59 -66 74 -69 91 -114 88
-222 -3 -75 -39 -212 -57 -212 -4 0 -10 -10 -14 -22 -12 -47 -124 -142 -195
-166 -76 -26 -148 -6 -177 49 -19 38 -26 160 -12 220 5 24 11 51 13 59 8 37
58 158 85 204 36 62 85 120 125 146 32 21 85 27 85 10z"/>
<path d="M11246 5093 c-1 -1 -72 -5 -157 -7 -84 -3 -154 -6 -154 -6 0 -1 -26
-3 -57 -5 -103 -6 -242 -16 -283 -20 -22 -3 -71 -7 -110 -10 -100 -7 -166 -14
-310 -30 -16 -2 -59 -6 -95 -9 -36 -4 -76 -8 -90 -10 -14 -3 -50 -7 -80 -11
-30 -3 -71 -8 -90 -10 -19 -2 -53 -7 -75 -9 -97 -12 -143 -19 -190 -26 -27 -4
-53 -6 -57 -3 -5 2 -8 -1 -8 -7 0 -5 15 -19 33 -30 17 -10 37 -23 42 -28 6 -5
15 -11 20 -13 6 -2 71 -40 145 -85 74 -45 167 -98 205 -119 39 -21 82 -47 98
-57 15 -11 27 -16 27 -13 0 3 12 -2 28 -13 44 -31 515 -262 534 -262 4 0 31
-11 61 -24 60 -28 95 -41 255 -96 61 -21 112 -37 112 -34 0 2 16 -2 35 -10 19
-8 49 -17 67 -20 18 -3 43 -8 56 -11 12 -3 32 -7 45 -10 32 -8 154 -18 207
-18 132 -1 249 31 251 66 1 27 1 896 0 918 -1 13 -19 16 -103 18 -142 4 -359
6 -362 4z"/>
<path d="M9481 4589 c-2 -15 36 -110 67 -169 132 -244 358 -512 729 -860 109
-102 237 -216 321 -284 7 -6 23 -20 35 -31 12 -11 58 -49 102 -85 44 -36 82
-68 85 -71 24 -27 537 -415 726 -549 58 -41 119 -86 135 -98 23 -19 30 -21 34
-10 7 17 1 1266 -6 1272 -2 3 -45 12 -94 20 -50 9 -103 18 -120 21 -16 3 -43
10 -60 15 -16 4 -48 12 -70 16 -22 4 -44 8 -50 10 -32 9 -126 33 -155 39 -8 2
-27 8 -42 14 -16 6 -28 8 -28 5 0 -2 -8 0 -18 5 -11 6 -30 12 -43 15 -13 2
-43 11 -67 20 -23 8 -46 16 -50 17 -55 12 -327 112 -482 177 -222 93 -471 217
-660 329 -41 24 -84 49 -95 56 -11 6 -39 24 -62 39 -23 15 -45 28 -51 28 -5 0
-17 9 -27 20 -10 11 -24 20 -31 20 -7 0 -15 6 -17 13 -3 6 -6 9 -6 6z"/>
<path d="M2360 4310 c-6 -25 -13 -53 -16 -63 -5 -16 -3 -17 14 -8 11 6 27 32
36 58 20 58 20 59 -3 59 -15 0 -22 -11 -31 -46z"/>
<path d="M2519 4353 c-11 -3 -33 -54 -69 -161 -29 -86 -55 -162 -57 -168 -2
-6 6 -11 18 -10 18 1 26 12 40 51 l17 50 56 3 c52 2 56 1 69 -25 8 -15 17 -40
20 -54 5 -20 13 -26 31 -26 l24 0 -44 131 c-25 72 -49 147 -54 167 -10 38 -23
48 -51 42z m34 -123 c9 -32 17 -64 17 -69 0 -11 -74 -10 -85 1 -4 3 -2 14 4
25 6 10 15 37 21 61 6 23 14 42 18 42 4 0 15 -27 25 -60z"/>
<path d="M2750 4350 l-35 -5 -2 -166 c-1 -164 -1 -166 20 -165 20 1 22 6 22
71 l0 70 30 2 c50 5 67 -15 82 -100 5 -27 17 -40 41 -43 15 -3 15 9 -2 73 -8
29 -22 60 -31 69 -15 16 -15 18 9 39 43 37 36 118 -13 144 -24 13 -77 18 -121
11z m82 -37 c48 -8 56 -89 11 -108 -31 -13 -83 -14 -84 -1 -1 15 -1 88 0 103
1 12 26 14 73 6z"/>
<path d="M2967 4352 c-20 -3 -27 -8 -25 -20 2 -13 15 -17 46 -18 58 -2 54 6
53 -94 -1 -25 0 -78 2 -118 1 -39 -2 -72 -6 -72 -5 0 -5 -4 -2 -10 3 -5 16 -8
28 -6 21 3 22 6 20 149 -1 105 2 147 10 148 7 1 29 1 50 0 27 -1 37 3 37 14 0
8 0 18 0 21 0 7 -165 11 -213 6z"/>
<path d="M3365 4350 l-40 -5 0 -165 0 -165 70 -1 c39 -1 76 3 83 9 6 5 12 6
12 3 0 -4 16 5 36 20 35 27 53 57 60 99 25 144 -63 225 -221 205z m124 -49
c33 -18 52 -55 56 -109 3 -55 -17 -100 -57 -126 -23 -14 -117 -28 -119 -17 -6
31 -3 257 4 262 13 9 92 2 116 -10z"/>
<path d="M3849 4347 c-1 -7 -3 -57 -4 -112 -1 -55 -3 -109 -4 -121 -2 -29 -45
-73 -67 -69 -11 2 -27 4 -37 4 -32 2 -47 60 -47 186 0 113 0 115 -23 115 -22
0 -23 -2 -21 -107 1 -60 2 -120 3 -135 0 -15 15 -43 32 -62 29 -33 33 -35 89
-32 96 5 112 34 116 207 3 119 2 127 -16 132 -11 3 -21 0 -21 -6z"/>
<path d="M4100 4350 c-17 -4 -25 -13 -26 -30 -1 -14 -5 -83 -9 -155 -4 -71 -9
-133 -12 -138 -2 -4 3 -10 12 -14 31 -11 35 9 38 199 1 43 5 78 10 78 4 0 7
-5 7 -12 0 -6 18 -68 40 -138 27 -84 46 -127 55 -127 12 0 26 19 26 37 1 3 4
10 9 15 4 6 15 35 25 65 10 30 20 60 24 65 3 6 6 12 6 15 5 30 18 70 24 70 4
0 7 -12 7 -27 3 -133 9 -225 15 -235 6 -9 11 -9 23 1 12 10 14 26 10 80 -8 79
-11 140 -13 204 -1 45 -2 47 -29 47 -33 0 -37 -8 -88 -167 -26 -84 -43 -114
-45 -80 -2 33 -38 147 -50 162 -5 5 -9 18 -9 30 -1 37 -23 62 -50 55z"/>
<path d="M4550 4352 c-126 -22 -158 -244 -45 -320 39 -27 112 -28 157 -3 52
30 82 125 65 211 -5 28 -46 86 -69 98 -28 14 -74 20 -108 14z m102 -62 c34
-42 45 -140 20 -186 -26 -48 -55 -60 -126 -53 -46 5 -79 129 -54 201 23 67
118 89 160 38z"/>
<path d="M4789 4352 c-5 -34 -3 -207 3 -242 15 -86 103 -128 178 -83 44 25 53
57 57 194 4 120 3 127 -17 132 -11 3 -20 2 -21 -1 -1 -4 -2 -54 -4 -112 -3
-148 -3 -146 -22 -168 -30 -33 -67 -36 -102 -6 -17 14 -30 28 -30 32 1 4 1 62
0 128 -1 113 -2 122 -21 127 -11 3 -20 2 -21 -1z"/>
<path d="M5081 4351 c-10 -6 -7 -25 14 -87 15 -43 28 -83 29 -89 1 -5 13 -45
26 -87 22 -70 26 -76 49 -75 23 2 29 15 77 152 73 213 69 193 40 188 -20 -4
-28 -18 -50 -89 -15 -46 -27 -87 -27 -91 -1 -5 -4 -12 -9 -18 -4 -5 -11 -25
-15 -42 -7 -36 -25 -45 -25 -13 0 10 -4 29 -9 42 -6 13 -22 62 -36 110 -27 90
-42 112 -64 99z"/>
<path d="M5408 4352 l-38 -3 1 -168 1 -169 91 2 c51 0 91 4 90 9 -2 4 -3 12
-3 17 0 6 -30 10 -69 10 l-69 0 1 60 1 60 63 0 c56 0 63 2 63 20 0 18 -7 20
-64 20 l-64 0 1 53 1 53 66 0 c57 -1 65 1 65 18 0 15 -8 19 -50 20 -27 0 -67
0 -87 -2z"/>
<path d="M5633 4347 c-7 -12 -7 -14 -18 -192 -3 -66 -7 -124 -8 -129 -3 -12
16 -17 30 -8 9 6 13 49 15 139 2 73 7 128 11 124 4 -4 9 -18 10 -30 1 -11 5
-21 9 -21 4 0 8 -7 8 -16 0 -32 53 -179 68 -192 21 -16 26 -9 51 73 12 39 26
77 31 86 12 24 34 102 31 114 -1 5 1 7 4 3 4 -4 9 -45 10 -90 6 -155 8 -179
19 -186 32 -19 34 -10 28 91 -3 56 -6 126 -6 154 -1 29 -4 53 -8 53 -3 0 -4 8
-1 18 4 16 0 18 -26 14 -27 -4 -32 -10 -52 -71 -12 -36 -25 -70 -29 -76 -4 -5
-13 -34 -20 -62 -11 -48 -29 -71 -31 -40 -1 22 -6 41 -24 92 -9 28 -19 57 -21
65 -16 64 -30 89 -51 93 -13 2 -26 -1 -30 -6z"/>
<path d="M5999 4335 c-1 -28 -1 -82 0 -130 1 -22 1 -62 1 -90 0 -106 -6 -100
87 -101 59 -1 86 2 94 12 15 18 1 23 -76 26 l-60 3 -1 58 -1 57 63 0 c60 0 64
2 64 23 0 21 -3 22 -65 19 l-66 -4 5 39 c2 21 -1 44 -6 51 -12 14 -10 14 76
16 52 1 60 4 61 21 1 19 -5 20 -87 20 -81 0 -88 -2 -89 -20z"/>
<path d="M6536 4352 c-10 -2 -16 -11 -14 -20 3 -13 14 -17 51 -17 l47 0 0
-152 c0 -127 2 -153 14 -153 25 0 29 19 28 149 0 69 2 133 4 142 3 10 15 15
42 13 48 -2 61 4 55 24 -3 15 -19 17 -107 17 -56 0 -110 -2 -120 -3z"/>
<path d="M2182 4183 l3 -168 85 0 c73 0 85 2 88 18 3 14 -4 17 -35 18 -21 0
-51 2 -68 2 l-30 2 0 148 c0 146 0 147 -23 147 l-22 0 2 -167z"/>
<path d="M6240 4323 c-3 -131 1 -296 5 -303 4 -6 13 -10 21 -10 12 0 14 23 12
140 -2 77 -2 140 -1 140 1 0 16 -26 35 -57 18 -32 39 -67 45 -78 7 -11 18 -32
25 -47 7 -16 15 -28 19 -28 4 0 12 -13 19 -30 12 -29 45 -49 58 -35 4 3 7 80
7 171 0 159 0 164 -20 164 -20 0 -21 -5 -20 -130 0 -71 -2 -126 -5 -122 -3 4
-39 62 -79 130 -61 102 -77 122 -97 122 -19 0 -24 -5 -24 -27z"/>
<path d="M9382 4080 c-4 -3 -7 -297 -7 -655 0 -357 -1 -655 -2 -660 -2 -7
-586 -10 -1801 -8 -988 2 -1803 3 -1809 3 -34 0 -225 0 -235 0 -7 0 -46 -1
-85 -3 -40 -1 -73 2 -73 7 0 5 -5 5 -12 -1 -10 -7 -223 -10 -223 -3 0 1 -8 3
-17 5 -10 2 -18 0 -18 -3 0 -9 -163 -7 -178 1 -6 4 -13 4 -15 0 -4 -7 -116 -7
-212 -2 -11 1 -24 0 -30 -1 -5 -1 -20 -2 -31 -1 l-22 1 1 498 1 497 -102 3
-102 2 3 -602 2 -601 2570 -1 c2272 -1 2572 1 2585 14 13 13 14 107 10 765
l-5 750 -93 0 c-51 1 -96 -2 -100 -5z"/>
</g>
</svg>
