<?xml version="1.0" encoding="UTF-8"?>
<svg id="Calque_2" data-name="Calque 2" xmlns="http://www.w3.org/2000/svg" viewBox="0 0 747.3 287.9">
  <defs>
    <style>
      .cls-1 {
        fill: #fa0;
      }

      .cls-2 {
        fill: #ba7700;
      }
    </style>
  </defs>
  <g id="Logo">
    <path class="cls-1" d="M373.6,15c52.7,0,95.5,42.4,95.5,94.6s-42.9,94.6-95.5,94.6-95.5-42.4-95.5-94.6S321,15,373.6,15m0-15c-61,0-110.5,49.1-110.5,109.6s49.5,109.6,110.5,109.6,110.5-49.1,110.5-109.6S434.7,0,373.6,0h0Z"/>
    <path class="cls-1" d="M404.7,46.7h-101.9c-4.1,0-7.5-3.4-7.5-7.5s3.4-7.5,7.5-7.5h101.9c4.1,0,7.5,3.4,7.5,7.5s-3.4,7.5-7.5,7.5Z"/>
    <path class="cls-1" d="M370.1,120.7h-67.3c-4.1,0-7.5-3.4-7.5-7.5s3.4-7.5,7.5-7.5h67.3c4.1,0,7.5,3.4,7.5,7.5s-3.4,7.5-7.5,7.5Z"/>
    <path class="cls-1" d="M416.2,145h-95.7c-4.1,0-7.5-3.4-7.5-7.5s3.4-7.5,7.5-7.5h95.7c4.1,0,7.5,3.4,7.5,7.5s-3.4,7.5-7.5,7.5Z"/>
    <path class="cls-1" d="M348.6,182.3h-52.4c-4.1,0-7.5-3.4-7.5-7.5s3.4-7.5,7.5-7.5h52.4c4.1,0,7.5,3.4,7.5,7.5s-3.4,7.5-7.5,7.5Z"/>
    <path class="cls-1" d="M453.1,182.3h-71.4c-4.1,0-7.5-3.4-7.5-7.5s3.4-7.5,7.5-7.5h71.4c4.1,0,7.5,3.4,7.5,7.5s-3.4,7.5-7.5,7.5Z"/>
    <g>
      <path class="cls-2" d="M4.9,245.9h.8c1.7,0,3.2,1,4.4,3,.3,.6,.5,1.4,.5,2.3v26.3h26.2c3.1,0,5,1.5,5.7,4.5v1.4c0,1.6-1,3-3,4.1-.6,.3-1.1,.4-1.6,.4H4.7c-1.8,0-3.2-1.1-4.4-3.2-.2-.6-.3-1.1-.3-1.5v-32.4c0-2.1,1.2-3.7,3.8-4.7,.4-.1,.8-.2,1.2-.2Z"/>
      <path class="cls-2" d="M51.8,245.9h32.8c1.8,0,3.3,1,4.5,3.1,.2,.6,.3,1.1,.3,1.5v1.2c0,1.7-1.1,3.1-3.2,4.2-.7,.3-1.3,.4-1.9,.4h-26.8v5.4h20.7c2.6,0,4.4,1,5.3,3.1,.3,.6,.4,1.2,.4,1.7v.7c0,2.1-1.2,3.7-3.8,4.7-.4,.1-.8,.2-1.2,.2h-21.6v5.4h26.2c3.1,0,5,1.5,5.7,4.5v1.4c0,1.6-1,3-3,4.1-.6,.3-1.1,.4-1.6,.4H51.6c-1.8,0-3.2-1.1-4.4-3.2-.2-.6-.3-1.1-.3-1.5v-32.4c0-2.1,1.2-3.7,3.8-4.7,.4-.1,.8-.2,1.2-.2Z"/>
      <path class="cls-2" d="M124.8,245.9h23.1c2.1,0,3.7,1.2,4.7,3.5,0,.3,0,.5,0,.7v1.6c0,1.6-1,3-3.1,4.2-.8,.3-1.5,.4-2,.4h-26.8v5.3h15.9c6.5,0,11.3,2,14.4,6.1,1,1.5,1.5,2.8,1.5,3.9v6.3c0,2.4-1.6,4.8-4.9,7.2-3.1,1.9-6.2,2.8-9.3,2.8h-23.7c-1.6,0-3-.9-4.2-2.7-.3-.6-.4-1.1-.4-1.6v-1.1c0-2.1,1.2-3.7,3.8-4.7,.6-.2,1.2-.3,1.9-.3h26.3v-5.3h-16.8c-4.7,0-8.7-1.5-12.1-4.4-2-2-3-4.1-3-6.1v-5.3c0-3.4,2.4-6.4,7.1-8.8,2.8-1.1,5.3-1.6,7.5-1.6Z"/>
      <path class="cls-2" d="M161.9,245.9h.8c1.4,0,2.9,.9,4.6,2.8,7.3,7.2,11,10.8,11.1,10.8,8.6-8.7,13.1-13,13.4-13,.8-.4,1.5-.7,2.2-.7h.8c1.9,0,3.3,1.1,4.5,3.2,.2,.6,.3,1.1,.3,1.5v1c0,1.5-1.3,3.3-3.8,5.4l-12.1,12v14c0,2.1-1.3,3.8-3.8,4.8h-.8c0,0-1.2,0-1.2,0-1.7,0-3.2-1.1-4.3-3.2-.2-.7-.4-1.3-.4-1.7v-13.9c-10.1-9.9-15.2-15-15.2-15.1-.5-1-.8-1.8-.8-2.4v-.7c0-1.9,1.1-3.5,3.3-4.6,.6-.2,1.1-.3,1.5-.3Z"/>
      <path class="cls-2" d="M218.6,245.9h23.1c2.1,0,3.7,1.2,4.7,3.5,0,.3,0,.5,0,.7v1.6c0,1.6-1,3-3.1,4.2-.8,.3-1.5,.4-2,.4h-26.8v5.3h15.9c6.5,0,11.3,2,14.4,6.1,1,1.5,1.5,2.8,1.5,3.9v6.3c0,2.4-1.6,4.8-4.9,7.2-3.1,1.9-6.2,2.8-9.3,2.8h-23.7c-1.6,0-3-.9-4.2-2.7-.3-.6-.4-1.1-.4-1.6v-1.1c0-2.1,1.2-3.7,3.8-4.7,.6-.2,1.2-.3,1.9-.3h26.3v-5.3h-16.8c-4.7,0-8.7-1.5-12.1-4.4-2-2-3-4.1-3-6.1v-5.3c0-3.4,2.4-6.4,7.1-8.8,2.8-1.1,5.3-1.6,7.5-1.6Z"/>
      <path class="cls-2" d="M255.9,245.9h32.8c1.8,0,3.3,1,4.5,3.1,.2,.6,.3,1.1,.3,1.5v1.2c0,1.7-1.1,3.1-3.2,4.2-.7,.3-1.3,.4-1.9,.4h-10.9v26.7c0,2.2-1.3,3.8-3.8,4.8h-.8c0,0-1.2,0-1.2,0-1.7,0-3.1-1-4.3-3.1-.3-.7-.4-1.3-.4-1.9v-26.5h-10.6c-2.5,0-4.2-1.2-5.2-3.7-.1-.5-.2-.9-.2-1.1v-.7c0-2.1,1.2-3.7,3.8-4.7,.4-.1,.8-.2,1.2-.2Z"/>
      <path class="cls-2" d="M302.8,245.9h32.8c1.8,0,3.3,1,4.5,3.1,.2,.6,.3,1.1,.3,1.5v1.2c0,1.7-1.1,3.1-3.2,4.2-.7,.3-1.3,.4-1.9,.4h-26.8v5.4h20.7c2.6,0,4.4,1,5.3,3.1,.3,.6,.4,1.2,.4,1.7v.7c0,2.1-1.2,3.7-3.8,4.7-.4,.1-.8,.2-1.2,.2h-21.6v5.4h26.2c3.1,0,5,1.5,5.7,4.5v1.4c0,1.6-1,3-3,4.1-.6,.3-1.1,.4-1.6,.4h-33.2c-1.8,0-3.2-1.1-4.4-3.2-.2-.6-.3-1.1-.3-1.5v-32.4c0-2.1,1.2-3.7,3.8-4.7,.4-.1,.8-.2,1.2-.2Z"/>
      <path class="cls-2" d="M349.7,245.9h.8c1.6,0,3.4,1.2,5.4,3.6,0,0,3.5,3.4,10.3,10.3,8.7-8.8,13.1-13.2,13.2-13.2,.9-.4,1.7-.7,2.4-.7h.7c1.8,0,3.3,1,4.5,3.1,.2,.6,.3,1.1,.3,1.5v32.8c0,1.6-1,3-3,4.1-.6,.3-1.1,.4-1.6,.4h-1.2c-1.5,0-2.9-.9-4-2.6-.5-.7-.8-1.8-.8-3.3v-18c-4.9,5-7.5,7.4-7.5,7.4-.9,.7-2,1-3.2,1-1.9,0-3.8-1.2-5.9-3.7-3.2-3.2-4.8-4.8-4.8-4.8v18.8c0,2.6-1.4,4.3-4.1,5.1,0,0-.3,0-.6,0h-1.2c-1.6,0-3-1-4.2-2.9-.3-.7-.5-1.3-.5-2v-32.3c0-2,1.2-3.5,3.7-4.6,.5-.1,.9-.2,1.2-.2Z"/>
      <path class="cls-2" d="M396.6,245.9h32.8c1.8,0,3.3,1,4.5,3.1,.2,.6,.3,1.1,.3,1.5v1.2c0,1.7-1.1,3.1-3.2,4.2-.7,.3-1.3,.4-1.9,.4h-26.8v5.4h20.7c2.6,0,4.4,1,5.3,3.1,.3,.6,.4,1.2,.4,1.7v.7c0,2.1-1.2,3.7-3.8,4.7-.4,.1-.8,.2-1.2,.2h-21.6v5.4h26.2c3.1,0,5,1.5,5.7,4.5v1.4c0,1.6-1,3-3,4.1-.6,.3-1.1,.4-1.6,.4h-33.2c-1.8,0-3.2-1.1-4.4-3.2-.2-.6-.3-1.1-.3-1.5v-32.4c0-2.1,1.2-3.7,3.8-4.7,.4-.1,.8-.2,1.2-.2Z"/>
      <path class="cls-2" d="M469.5,245.9h23.1c2.1,0,3.7,1.2,4.7,3.5,0,.3,0,.5,0,.7v1.6c0,1.6-1,3-3.1,4.2-.8,.3-1.5,.4-2,.4h-26.8v5.3h15.9c6.5,0,11.3,2,14.4,6.1,1,1.5,1.5,2.8,1.5,3.9v6.3c0,2.4-1.6,4.8-4.9,7.2-3.1,1.9-6.2,2.8-9.3,2.8h-23.7c-1.6,0-3-.9-4.2-2.7-.3-.6-.4-1.1-.4-1.6v-1.1c0-2.1,1.2-3.7,3.8-4.7,.6-.2,1.2-.3,1.9-.3h26.3v-5.3h-16.8c-4.7,0-8.7-1.5-12.1-4.4-2-2-3-4.1-3-6.1v-5.3c0-3.4,2.4-6.4,7.1-8.8,2.8-1.1,5.3-1.6,7.5-1.6Z"/>
      <path class="cls-2" d="M516.5,245.9h13.1c4.9,0,9,1.7,12.5,5,1.5,1.9,2.3,3.6,2.3,5v21.9c0,2.1-1.4,4.4-4.1,6.7-3.4,2.3-7,3.4-10.9,3.4h-12.3c-4.7,0-8.8-1.5-12.2-4.4-2-2-3-4.1-3-6.1v-21c0-3.5,2.4-6.4,7.1-8.8,2.8-1.1,5.3-1.6,7.5-1.6Zm-4.4,10.4v21.2h22.1v-21.2h-22.1Z"/>
      <path class="cls-2" d="M553.7,245.9h.8c1.7,0,3.2,1,4.4,3,.3,.6,.5,1.4,.5,2.3v26.3h26.2c3.1,0,5,1.5,5.7,4.5v1.4c0,1.6-1,3-3,4.1-.6,.3-1.1,.4-1.6,.4h-33.2c-1.8,0-3.2-1.1-4.4-3.2-.2-.6-.3-1.1-.3-1.5v-32.4c0-2.1,1.2-3.7,3.8-4.7,.4-.1,.8-.2,1.2-.2Z"/>
      <path class="cls-2" d="M616.5,245.9h.9c2.2,0,3.9,1.7,5.2,5.2,10,19.7,15.2,30,15.5,30.8v1.6c0,1.8-1.2,3.2-3.5,4.3-.5,.1-.9,.2-1.2,.2h-.8c-2.2,0-4-1.8-5.3-5.4-6.9-13.6-10.4-20.5-10.5-20.6-7.7,15.5-11.8,23.6-12.2,24.2-1.2,1.2-2.3,1.7-3.6,1.7h-.7c-1.8,0-3.2-1.1-4.4-3.2-.2-.6-.3-1.1-.3-1.5v-.6c0-.8,1-3,3-6.8l14.1-27.9c1.1-1.3,2.4-2,3.8-2Z"/>
      <path class="cls-2" d="M647.7,245.9h.8c1.8,0,3.3,1,4.5,3,.3,.6,.5,1.4,.5,2.3v31.7c0,2.3-1.3,3.9-4,5-.3,0-.6,0-.8,0h-1.2c-1.8,0-3.3-1.1-4.5-3.2-.2-.6-.4-1.1-.4-1.5v-32.4c0-2.1,1.3-3.7,3.9-4.7,.4-.1,.8-.2,1.2-.2Z"/>
      <path class="cls-2" d="M662.8,245.9h25c3.6,0,6.9,1.7,9.9,5,1.8,2.6,2.7,5,2.7,7.2v1.7c0,3.4-1.7,6.6-5.1,9.6-2.1,1.3-3.7,2.1-5,2.3h0c4.3,3.9,7.2,6.6,8.6,8.1,.6,1,.9,2,.9,2.9,0,2.2-1.2,3.9-3.7,5-.5,.1-.8,.2-1.1,.2h-1.2c-1.4,0-3.2-1.2-5.4-3.6-.8-.6-5.2-4.7-13.3-12.2h-6.7v10.8c0,2.3-1.3,3.9-4,5-.3,0-.5,0-.7,0h-1.2c-1.8,0-3.2-1.1-4.4-3.2-.2-.6-.3-1.1-.3-1.5v-32.4c0-2.1,1.2-3.7,3.8-4.7,.4-.1,.8-.2,1.2-.2Zm5.6,10.4v5.4h21.4v-5.4h-21.4Z"/>
      <path class="cls-2" d="M709.7,245.9h32.8c1.8,0,3.3,1,4.5,3.1,.2,.6,.3,1.1,.3,1.5v1.2c0,1.7-1.1,3.1-3.2,4.2-.7,.3-1.3,.4-1.9,.4h-26.8v5.4h20.7c2.6,0,4.4,1,5.3,3.1,.3,.6,.4,1.2,.4,1.7v.7c0,2.1-1.2,3.7-3.7,4.7-.4,.1-.8,.2-1.2,.2h-21.6v5.4h26.2c3.1,0,5,1.5,5.7,4.5v1.4c0,1.6-1,3-3,4.1-.6,.3-1.1,.4-1.6,.4h-33.2c-1.8,0-3.2-1.1-4.4-3.2-.2-.6-.3-1.1-.3-1.5v-32.4c0-2.1,1.2-3.7,3.8-4.7,.4-.1,.8-.2,1.2-.2Z"/>
    </g>
  </g>
</svg>