<?xml version="1.0" encoding="UTF-8"?>
<svg id="Calque_2" data-name="Calque 2" xmlns="http://www.w3.org/2000/svg" viewBox="0 0 1069.44 201.99">
  <defs>
    <style>
      .cls-1 {
        opacity: .99;
      }

      .cls-2 {
        fill: #0071bc;
      }
    </style>
  </defs>
  <g id="logo">
    <g id="soccer">
      <path d="m0,152.24l33.97-7.25c4.07,19.24,19.71,28.86,46.91,28.86,12.41,0,21.96-2.46,28.64-7.39,6.68-4.93,10.02-11.04,10.02-18.34,0-5.31-1.52-10.21-4.55-14.71-3.03-4.5-9.52-8.03-19.47-10.59l-37.1-9.67c-12.7-3.32-22.08-7.08-28.14-11.3-6.07-4.22-10.92-10.16-14.57-17.84-3.65-7.68-5.47-15.87-5.47-24.59,0-17.34,6.44-31.25,19.33-41.72C42.45,7.23,58.94,1.99,79.03,1.99c16.68,0,31.58,3.65,44.71,10.95,13.12,7.3,21.49,17.63,25.09,30.99l-33.26,8.24c-5.12-14.69-17.06-22.03-35.82-22.03-10.9,0-19.21,2.27-24.95,6.82-5.73,4.55-8.6,10.33-8.6,17.34,0,11.09,9,18.86,27.01,23.31l32.98,8.24c19.99,5.02,33.4,12.44,40.23,22.25,6.82,9.81,10.23,20.64,10.23,32.48,0,19.05-7.18,34.04-21.54,44.99s-32.96,16.42-55.79,16.42c-19.24,0-36.08-4.03-50.53-12.08-14.45-8.05-24.05-20.61-28.78-37.67Z"/>
      <g class="cls-1">
        <path d="m270.16,10.99c1.69,0,3.38,0,5.07,0,.16.03.32.09.48.09,2.95.12,5.9.34,8.82.77,3.84.56,7.68,1.14,11.48,1.93,3,.63,5.97,1.34,8.86,2.38,4.32,1.56,8.47,3.48,12.5,5.68,7.37,4.02,14.15,8.89,20.39,14.51,3.13,2.82,6.13,5.75,8.74,9.06,1.2,1.53,2.45,3.03,3.28,4.8.86,1.85,1.99,3.51,3.24,5.12.8,1.03,1.55,2.12,2.16,3.27,1.73,3.22,3.2,6.56,4.54,9.96,1.78,4.54,3.29,9.17,4.4,13.93.65,2.8,1.13,5.62,1.48,8.47.32,2.6.69,5.19.78,7.81,0,.14.06.28.09.42v6.08c-.04.23-.08.45-.1.68-.11,1.28-.15,2.57-.32,3.85-.49,3.81-1.25,7.57-2.18,11.3-1.68,6.77-3.97,13.34-6.75,19.74-1.5,3.45-3.1,6.84-5.06,10.06-1.84,3.02-3.98,5.82-6.12,8.62-4.15,5.46-8.9,10.33-14.33,14.52-5.8,4.47-12.01,8.31-18.41,11.85-5.13,2.84-10.56,4.88-16.3,6.12-5.3,1.14-10.65,1.78-16.06,2-.23,0-.45.07-.68.1h-8.87c-.46-.04-.92-.08-1.37-.12-2.57-.21-5.14-.35-7.69-.64-2.45-.28-4.9-.62-7.32-1.08-5.33-1.01-10.44-2.74-15.38-4.97-9.19-4.15-17.46-9.73-25.15-16.22-3.89-3.29-7.35-6.98-10.17-11.24-1.28-1.94-2.58-3.87-3.82-5.82-6.1-9.58-10.65-19.84-13.7-30.77-1.65-5.94-2.72-11.97-3-18.13-.03-.58-.15-1.16-.22-1.74,0-1.77,0-3.55,0-5.32.08-.6.18-1.2.23-1.81.14-1.62.23-3.24.39-4.86.4-4.06,1.13-8.06,2.11-12.01,1.28-5.15,3.06-10.13,5.01-15.06,1.45-3.66,3.15-7.18,5.43-10.41,1.09-1.55,2.07-3.19,3.03-4.82,1.19-2.02,2.45-3.99,3.85-5.87,3.29-4.41,7.11-8.3,11.33-11.82,6.85-5.72,14.33-10.41,22.63-13.75,3.53-1.42,7.14-2.58,10.88-3.31,4.12-.81,8.24-1.57,12.38-2.28,2.95-.51,5.93-.84,8.93-.97.16,0,.33-.06.49-.09Zm25.38,110.78c-1.32.31-2.5.64-3.7.87-3.18.6-6.41.82-9.63.98-5.62.28-11.23.12-16.81-.72-2.68-.4-5.31-.99-7.78-2.14-.07-.03-.16-.05-.26-.08-.1.15-.2.28-.29.42-5.77,9.54-11.85,18.89-18.19,28.06-.27.38-.34.75-.25,1.18.21,1.02.54,2,1,2.93.63,1.24,1.25,2.49,1.94,3.7,3.08,5.4,6.79,10.34,10.92,14.96,1.38,1.55,2.85,3,4.47,4.29.76.61,1.6,1.01,2.53,1.25.41.11.82.2,1.23.28,3.29.59,6.61.85,9.95,1,3.78.16,7.56.12,11.34-.08,2.57-.14,5.14-.35,7.68-.79,1.97-.34,3.9-.78,5.45-2.17.11-.1.24-.17.37-.25,2.03-1.39,3.85-3.02,5.49-4.86,2.63-2.95,4.81-6.21,6.64-9.7,1.89-3.61,3.64-7.29,5.48-10.92.26-.5.2-.87-.05-1.33-2.68-4.84-5.62-9.53-8.66-14.15-2.13-3.25-4.32-6.46-6.52-9.66-.74-1.08-1.59-2.07-2.36-3.07Zm-39.64-2.16c-.09-.13-.13-.2-.19-.26-1.44-1.62-2.56-3.46-3.5-5.41-1.47-3.05-2.7-6.19-3.77-9.39-1.98-5.91-3.51-11.94-4.55-18.09-.14-.85-.28-1.7-.42-2.56-.78-.25-1.52-.49-2.26-.73-8.36-2.67-16.77-5.18-25.35-7.09-.46-.1-.8-.04-1.18.22-1.63,1.12-3.05,2.47-4.32,3.98-4.93,5.84-8.89,12.26-11.77,19.35-.47,1.16-.84,2.34-1.08,3.57-.34,1.79-.19,3.58-.07,5.37.26,3.82.85,7.59,1.73,11.32,1.04,4.4,2.35,8.72,4.18,12.86,1.01,2.28,2.2,4.47,3.69,6.48.44.6.96,1.12,1.62,1.48.87.48,1.72.99,2.61,1.42,5.94,2.88,12.17,4.88,18.66,6.07,2.06.38,4.14.57,6.24.47.68-.03,1.18-.2,1.46-.85.06-.15.19-.27.29-.41,5.47-7.95,10.75-16.03,15.8-24.25.72-1.17,1.42-2.34,2.15-3.54Zm40.96,1c.36.43.74.85,1.08,1.3,1.24,1.71,2.49,3.41,3.68,5.15,4.67,6.79,9.06,13.75,13.11,20.93.16.28.31.43.63.38.17-.03.34-.02.51-.03,3.39-.29,6.75-.81,10.06-1.61,5.51-1.33,10.75-3.35,15.72-6.08.88-.48,1.66-1.08,2.29-1.87,1.49-1.85,2.83-3.79,3.92-5.9,4.62-9,7.18-18.54,7.52-28.67.03-.94-.09-1.85-.37-2.74-.2-.62-.42-1.24-.67-1.84-1.71-4.06-3.76-7.93-6.14-11.64-1.95-3.05-4.07-5.97-6.51-8.64-.97-1.06-2.03-2.03-3.25-2.81-.26-.17-.51-.23-.83-.18-2.97.42-5.91.97-8.84,1.63-6.56,1.49-12.94,3.54-19.23,5.89-.38.14-.51.37-.58.73-.25,1.37-.51,2.74-.79,4.1-1.49,7.2-3.44,14.27-6.07,21.15-1.41,3.67-2.96,7.27-5.16,10.56-.03.05-.04.11-.08.21Zm-21.23-60.06c0-.24,0-.47,0-.7-.05-3.29-.09-6.59-.14-9.88-.08-5.93-.17-11.87-.25-17.8,0-.35-.12-.58-.39-.8-1.18-.93-2.45-1.73-3.8-2.38-3.07-1.49-6.31-2.52-9.6-3.37-4.45-1.15-8.98-1.81-13.58-1.8-1.18,0-2.36.12-3.53.31-2.44.38-4.73,1.24-6.96,2.27-5.68,2.62-10.77,6.14-15.43,10.3-2.01,1.79-3.86,3.72-5.42,5.92-1.06,1.49-1.94,3.08-2.34,4.88-.22.99-.43,1.98-.54,2.99-.35,3.17-.57,6.35-.58,9.54-.01,3.26.12,6.5.68,9.72.22,1.29.55,2.56,1.18,3.72.26.48.65.75,1.17.88,2.26.53,4.52,1.04,6.77,1.61,6.95,1.77,13.8,3.89,20.63,6.09.46.15.76.08,1.13-.22,4.25-3.4,8.49-6.83,12.8-10.15,4.34-3.34,8.91-6.35,13.75-8.9,1.44-.76,2.9-1.46,4.42-2.22Zm32.94,21.78c.22-.08.41-.15.61-.22,1.87-.66,3.73-1.35,5.61-1.99,7.25-2.47,14.62-4.42,22.22-5.45.59-.08.81-.33.98-.84.65-1.89.97-3.84,1.11-5.83.18-2.78.18-5.57.02-8.36-.19-3.4-.66-6.76-1.43-10.08-.42-1.82-1.1-3.5-2.24-4.98-1.16-1.5-2.28-3.04-3.51-4.49-4.98-5.87-10.87-10.61-17.83-13.95-2.88-1.38-5.83-2.57-8.95-3.3-.3-.07-.63-.14-.93-.1-1.51.18-3.02.34-4.51.62-4.27.83-8.45,2.03-12.59,3.35-2.94.94-5.81,2.06-8.5,3.59-.35.2-.67.44-1,.67-.44.32-.61.72-.6,1.3.1,4.81.16,9.63.23,14.44.06,4.41.12,8.83.16,13.24,0,.44.14.66.55.85,1.5.72,3,1.45,4.46,2.26,3.67,2.01,7.14,4.35,10.59,6.7,5.5,3.75,10.83,7.73,15.56,12.56Zm-66.64,103.62c.25.13.39.21.54.28,5.35,2.22,10.9,3.71,16.61,4.59,2.59.4,5.2.62,7.81.8,5.32.37,10.63.46,15.95.12,4.49-.29,8.94-.89,13.35-1.8,4.4-.91,8.63-2.34,12.69-4.27.18-.08.41-.11.49-.37-2.95-.49-5.63-1.61-8.13-3.13-1.91-1.16-3.74-2.46-5.6-3.69-.21-.14-.41-.28-.63-.44-1.01.65-2.11,1.02-3.25,1.26-3.71.78-7.47,1.15-11.25,1.24-2.87.07-5.74.04-8.61.02-3.28-.03-6.54-.24-9.78-.77-1.37-.23-2.72-.59-4.07-.89-.8-.55-1.47-.26-2.23.21-3.78,2.32-7.68,4.42-11.82,6.06-.65.26-1.3.5-2.07.8Zm-36.64-28.39s.06-.03.09-.05c0-.08,0-.17-.02-.25-.63-3.33-.84-6.7-.72-10.09.07-2.04.3-4.05,1.14-5.93.18-.4.11-.64-.14-.96-1.01-1.33-1.88-2.76-2.66-4.23-1.72-3.26-2.97-6.71-4.05-10.23-1.57-5.12-2.69-10.34-3.14-15.68-.16-1.85-.19-3.71-.2-5.57,0-.53-.13-.82-.57-1.12-3.32-2.26-6.16-5-8.27-8.44-.05-.08-.13-.14-.18-.2-.55.2-.72.56-.72,1.09,0,.84-.08,1.69-.1,2.53-.08,3.72.06,7.43.47,11.13.46,4.25,1.23,8.44,2.37,12.55,3.47,12.59,9,24.23,16.36,35,.1.15.22.29.33.44Zm140.38-1.43s.08.02.12.03c.08-.1.17-.19.24-.29,1.02-1.45,2.07-2.88,3.05-4.36,2.71-4.1,4.83-8.5,6.7-13.04,2.87-6.98,5.27-14.1,6.82-21.5.74-3.56,1.3-7.14,1.61-10.76.2-2.32.14-4.64.07-6.96-.02-.5-.08-.99-.11-1.48-.07-.01-.1-.03-.1-.02-.06.05-.13.1-.18.17-1.79,2.24-3.88,4.18-6.13,5.93-.43.34-.58.7-.62,1.21-.17,2.1-.29,4.21-.58,6.3-.72,5.27-2.06,10.38-3.97,15.34-1.91,4.97-4.23,9.71-7.76,13.77-.21.24-.15.44-.08.69.25.83.53,1.65.7,2.49.69,3.38.6,6.8.44,10.22-.04.75-.13,1.5-.19,2.25ZM248.1,16.8s-.06-.07-.09-.1c-.84.19-1.69.34-2.53.56-3.8,1.03-7.47,2.4-11.03,4.08-7.78,3.66-14.78,8.49-21.12,14.28-4.51,4.13-8.39,8.79-11.5,14.08-.2.34-.39.68-.58,1.02.18-.02.3-.09.4-.18,3.02-2.41,6.39-4.09,10.21-4.78.8-.14,1.2-.47,1.52-1.22.96-2.29,2.5-4.2,4.18-5.99,5.28-5.62,11.43-10.05,18.36-13.41,2.63-1.28,5.35-2.3,8.24-2.8.33-.06.65-.11.99-.17.45-2.1,1.53-3.82,2.92-5.36Zm55.54,1.28c.01.1,0,.14.03.17.68.89,1.35,1.78,2.04,2.66.12.15.33.26.51.32.52.18,1.05.31,1.57.48,8.31,2.66,15.55,7.11,21.78,13.2,2.88,2.81,5.41,5.92,7.71,9.22.22.32.47.5.86.56,2.05.34,4.03.92,5.95,1.69.14.06.29.09.57.18-.27-.33-.43-.55-.61-.75-1.33-1.44-2.63-2.92-4.01-4.31-5.51-5.53-11.6-10.32-18.18-14.5-5.14-3.27-10.52-6.08-16.24-8.21-.65-.24-1.3-.46-1.97-.71Z"/>
        <path class="cls-2" d="m295.55,121.77c.77,1,1.62,2,2.36,3.07,2.2,3.2,4.38,6.41,6.52,9.66,3.04,4.62,5.98,9.31,8.66,14.15.26.47.31.83.05,1.33-1.84,3.63-3.59,7.31-5.48,10.92-1.83,3.49-4,6.75-6.64,9.7-1.64,1.84-3.46,3.47-5.49,4.86-.12.08-.26.15-.37.25-1.55,1.4-3.48,1.84-5.45,2.17-2.54.44-5.11.65-7.68.79-3.78.2-7.56.24-11.34.08-3.33-.14-6.66-.4-9.95-1-.41-.07-.83-.17-1.23-.28-.93-.25-1.77-.65-2.53-1.25-1.63-1.29-3.09-2.75-4.47-4.29-4.13-4.63-7.85-9.56-10.92-14.96-.69-1.21-1.31-2.46-1.94-3.7-.47-.93-.79-1.91-1-2.93-.09-.44-.02-.8.25-1.18,6.34-9.17,12.42-18.51,18.19-28.06.09-.14.18-.27.29-.42.1.03.19.04.26.08,2.48,1.15,5.1,1.74,7.78,2.14,5.58.84,11.19,1,16.81.72,3.23-.16,6.45-.38,9.63-.98,1.2-.23,2.38-.56,3.7-.87Z"/>
        <path class="cls-2" d="m255.91,119.61c-.73,1.2-1.44,2.38-2.15,3.54-5.05,8.22-10.33,16.3-15.8,24.25-.1.14-.23.26-.29.41-.28.65-.77.81-1.46.85-2.1.1-4.18-.09-6.24-.47-6.49-1.2-12.72-3.19-18.66-6.07-.89-.43-1.74-.94-2.61-1.42-.66-.36-1.18-.88-1.62-1.48-1.49-2.01-2.68-4.2-3.69-6.48-1.84-4.14-3.14-8.46-4.18-12.86-.88-3.73-1.48-7.5-1.73-11.32-.12-1.79-.27-3.58.07-5.37.23-1.23.61-2.41,1.08-3.57,2.88-7.08,6.84-13.51,11.77-19.35,1.27-1.51,2.69-2.86,4.32-3.98.38-.26.72-.33,1.18-.22,8.58,1.91,16.99,4.42,25.35,7.09.74.24,1.48.48,2.26.73.14.86.27,1.71.42,2.56,1.04,6.15,2.58,12.17,4.55,18.09,1.07,3.21,2.31,6.35,3.77,9.39.94,1.95,2.05,3.79,3.5,5.41.06.06.1.14.19.26Z"/>
        <path class="cls-2" d="m296.87,120.61c.03-.09.05-.16.08-.21,2.2-3.29,3.75-6.88,5.16-10.56,2.63-6.88,4.59-13.95,6.07-21.15.28-1.36.54-2.73.79-4.1.07-.36.2-.58.58-.73,6.29-2.35,12.67-4.41,19.23-5.89,2.92-.66,5.87-1.21,8.84-1.63.32-.04.57.02.83.18,1.22.78,2.28,1.75,3.25,2.81,2.45,2.67,4.56,5.6,6.51,8.64,2.37,3.71,4.43,7.58,6.14,11.64.25.6.48,1.22.67,1.84.28.89.4,1.8.37,2.74-.34,10.13-2.91,19.67-7.52,28.67-1.08,2.11-2.43,4.06-3.92,5.9-.63.79-1.41,1.38-2.29,1.87-4.97,2.73-10.21,4.74-15.72,6.08-3.31.8-6.66,1.32-10.06,1.61-.17.01-.34,0-.51.03-.32.05-.48-.1-.63-.38-4.05-7.17-8.45-14.14-13.11-20.93-1.2-1.74-2.44-3.44-3.68-5.15-.33-.46-.72-.88-1.08-1.3Z"/>
        <path class="cls-2" d="m275.64,60.56c-1.52.76-2.98,1.46-4.42,2.22-4.85,2.56-9.42,5.57-13.75,8.9-4.32,3.32-8.55,6.75-12.8,10.15-.37.3-.67.37-1.13.22-6.83-2.2-13.68-4.32-20.63-6.09-2.25-.57-4.51-1.08-6.77-1.61-.53-.12-.91-.4-1.17-.88-.63-1.17-.96-2.43-1.18-3.72-.56-3.21-.69-6.46-.68-9.72.01-3.19.23-6.37.58-9.54.11-1,.32-2,.54-2.99.4-1.8,1.28-3.38,2.34-4.88,1.56-2.2,3.41-4.13,5.42-5.92,4.66-4.15,9.75-7.67,15.43-10.3,2.23-1.03,4.52-1.89,6.96-2.27,1.16-.18,2.35-.3,3.53-.31,4.6,0,9.13.66,13.58,1.8,3.29.85,6.53,1.88,9.6,3.37,1.35.66,2.62,1.45,3.8,2.38.27.21.39.44.39.8.07,5.93.16,11.87.25,17.8.05,3.29.09,6.59.14,9.88,0,.23,0,.46,0,.7Z"/>
        <path class="cls-2" d="m308.58,82.34c-4.73-4.83-10.06-8.8-15.56-12.56-3.45-2.36-6.92-4.69-10.59-6.7-1.46-.8-2.96-1.54-4.46-2.26-.41-.2-.55-.41-.55-.85-.04-4.41-.1-8.83-.16-13.24-.07-4.82-.13-9.63-.23-14.44-.01-.58.16-.98.6-1.3.33-.23.65-.47,1-.67,2.69-1.53,5.56-2.65,8.5-3.59,4.14-1.32,8.32-2.52,12.59-3.35,1.49-.29,3-.44,4.51-.62.3-.04.63.03.93.1,3.12.73,6.07,1.92,8.95,3.3,6.96,3.34,12.85,8.08,17.83,13.95,1.23,1.45,2.35,2.99,3.51,4.49,1.15,1.48,1.82,3.16,2.24,4.98.77,3.32,1.24,6.68,1.43,10.08.16,2.79.16,5.57-.02,8.36-.13,1.99-.45,3.94-1.11,5.83-.17.51-.39.76-.98.84-7.6,1.03-14.97,2.98-22.22,5.45-1.88.64-3.74,1.32-5.61,1.99-.2.07-.39.14-.61.22Z"/>
        <path class="cls-2" d="m241.94,185.96c.77-.3,1.42-.54,2.07-.8,4.13-1.64,8.04-3.74,11.82-6.06.76-.47,1.43-.75,2.23-.21,1.36.3,2.7.67,4.07.89,3.23.53,6.5.74,9.78.77,2.87.03,5.74.05,8.61-.02,3.78-.09,7.54-.46,11.25-1.24,1.14-.24,2.24-.61,3.25-1.26.22.15.42.3.63.44,1.86,1.24,3.69,2.53,5.6,3.69,2.5,1.52,5.18,2.64,8.13,3.13-.08.26-.31.28-.49.37-4.06,1.93-8.28,3.36-12.69,4.27-4.41.91-8.86,1.51-13.35,1.8-5.32.34-10.63.25-15.95-.12-2.61-.18-5.22-.4-7.81-.8-5.72-.88-11.27-2.37-16.61-4.59-.15-.06-.29-.15-.54-.28Z"/>
        <path class="cls-2" d="m205.31,157.57c-.11-.15-.23-.29-.33-.44-7.37-10.77-12.89-22.41-16.36-35-1.14-4.12-1.91-8.31-2.37-12.55-.4-3.7-.55-7.41-.47-11.13.02-.84.1-1.69.1-2.53,0-.54.16-.89.72-1.09.05.05.13.12.18.2,2.11,3.45,4.95,6.19,8.27,8.44.44.3.57.59.57,1.12.02,1.86.04,3.72.2,5.57.46,5.34,1.58,10.56,3.14,15.68,1.08,3.52,2.33,6.97,4.05,10.23.78,1.48,1.65,2.9,2.66,4.23.24.32.31.56.14.96-.84,1.88-1.07,3.9-1.14,5.93-.12,3.39.09,6.75.72,10.09.02.08.01.17.02.25-.03.02-.06.03-.09.05Z"/>
        <path class="cls-2" d="m345.69,156.14c.07-.75.16-1.5.19-2.25.16-3.42.25-6.84-.44-10.22-.17-.84-.45-1.67-.7-2.49-.08-.25-.13-.45.08-.69,3.53-4.06,5.85-8.8,7.76-13.77,1.91-4.96,3.26-10.07,3.97-15.34.28-2.09.41-4.2.58-6.3.04-.52.19-.88.62-1.21,2.26-1.75,4.35-3.69,6.13-5.93.05-.06.12-.12.18-.17,0,0,.04,0,.1.02.04.48.1.98.11,1.48.07,2.32.13,4.64-.07,6.96-.31,3.62-.87,7.2-1.61,10.76-1.55,7.4-3.95,14.52-6.82,21.5-1.86,4.54-3.99,8.94-6.7,13.04-.98,1.48-2.03,2.91-3.05,4.36-.07.1-.16.19-.24.29-.04,0-.08-.02-.12-.03Z"/>
        <path class="cls-2" d="m248.1,16.8c-1.4,1.54-2.48,3.26-2.92,5.36-.33.06-.66.12-.99.17-2.9.5-5.61,1.52-8.24,2.8-6.93,3.36-13.08,7.79-18.36,13.41-1.69,1.79-3.22,3.71-4.18,5.99-.31.75-.72,1.08-1.52,1.22-3.82.69-7.19,2.37-10.21,4.78-.11.09-.22.16-.4.18.19-.34.38-.68.58-1.02,3.11-5.29,6.98-9.95,11.5-14.08,6.33-5.8,13.33-10.62,21.12-14.28,3.56-1.67,7.23-3.05,11.03-4.08.83-.23,1.68-.38,2.53-.56.03.03.06.07.09.1Z"/>
        <path class="cls-2" d="m303.64,18.09c.68.24,1.33.46,1.97.71,5.72,2.13,11.1,4.94,16.24,8.21,6.58,4.18,12.67,8.98,18.18,14.5,1.38,1.39,2.68,2.87,4.01,4.31.18.2.34.42.61.75-.28-.09-.43-.13-.57-.18-1.93-.77-3.91-1.35-5.95-1.69-.38-.06-.63-.24-.86-.56-2.3-3.3-4.82-6.41-7.71-9.22-6.24-6.08-13.47-10.53-21.78-13.2-.52-.17-1.05-.3-1.57-.48-.19-.06-.39-.17-.51-.32-.69-.87-1.37-1.77-2.04-2.66-.02-.03-.01-.07-.03-.17Z"/>
      </g>
      <path d="m514.67,127.36l37.31,3.81c-4.83,24.12-14.15,41.95-27.99,53.5-13.84,11.55-30.53,17.32-50.07,17.32-26.53,0-46.93-9.68-61.21-29.03-14.28-19.35-21.42-43.06-21.42-71.11s7.81-52.86,23.42-71.77c15.61-18.91,36.42-28.37,62.44-28.37,41.88,0,66.82,22.08,74.82,66.25l-37.31,5.14c-3.3-23.86-15.04-35.79-35.22-35.79-14.72,0-25.42,6.44-32.08,19.32-6.66,12.88-9.99,28.46-9.99,46.74,0,19.42,3.46,34.4,10.38,44.93,6.92,10.54,16.59,15.8,29.03,15.8,19.04,0,31.67-12.25,37.89-36.74Z"/>
      <path d="m696.29,127.36l37.31,3.81c-4.83,24.12-14.15,41.95-27.99,53.5-13.84,11.55-30.53,17.32-50.07,17.32-26.53,0-46.93-9.68-61.21-29.03-14.28-19.35-21.42-43.06-21.42-71.11s7.81-52.86,23.42-71.77c15.61-18.91,36.42-28.37,62.44-28.37,41.88,0,66.82,22.08,74.82,66.25l-37.31,5.14c-3.3-23.86-15.04-35.79-35.22-35.79-14.73,0-25.42,6.44-32.08,19.32-6.67,12.88-10,28.46-10,46.74,0,19.42,3.46,34.4,10.38,44.93,6.92,10.54,16.59,15.8,29.03,15.8,19.04,0,31.67-12.25,37.89-36.74Z"/>
      <path d="m889.15,136.69l39.22,5.33c-5.08,17.39-14.98,31.73-29.7,43.03-14.73,11.3-33.19,16.94-55.4,16.94-26.65,0-48.1-8.95-64.35-26.84-16.25-17.9-24.37-42.14-24.37-72.73s8.19-53.12,24.56-72.15c16.37-19.04,38.58-28.56,66.63-28.56s48.61,9.39,63.59,28.18c14.97,18.79,22.46,42.9,22.46,72.34l-.19,4.95h-131.93c0,13.07,1.24,23.55,3.71,31.41,2.47,7.87,7.39,14.72,14.75,20.56,7.36,5.84,16.56,8.76,27.61,8.76,21.45,0,35.92-10.41,43.41-31.22Zm-2.67-57.49c-.13-13.83-4.28-25.13-12.47-33.89-8.18-8.76-18.31-13.14-30.36-13.14s-21.89,4.09-29.89,12.28-12.69,19.77-14.09,34.74h86.81Z"/>
      <path d="m1014.8,198h-43.41V5.71h39.22v45.88c5.58-17.9,13.26-30.97,23.04-39.22,9.77-8.25,19.8-12.37,30.08-12.37,1.39,0,3.3.07,5.71.19v46.64c-22.08,0-36.71,7.04-43.88,21.13-7.17,14.09-10.76,27.73-10.76,40.93v89.1Z"/>
    </g>
  </g>
</svg>