<?xml version="1.0" encoding="UTF-8"?>
<svg id="Layer_2" data-name="Layer 2" xmlns="http://www.w3.org/2000/svg" viewBox="0 0 87.04 86.66">
  <defs>
    <style>
      .cls-1 {
        fill: none;
        stroke: #000;
        stroke-miterlimit: 10;
      }
    </style>
  </defs>
  <g id="Dice">
    <g id="D10">
      <g id="Shape">
        <polygon class="cls-1" points="83.52 2.39 13.31 .51 .51 17.64 2.95 82.39 68.08 86.15 86.53 73.17 83.52 2.39"/>
        <polygon class="cls-1" points="57.35 66.77 31 50.58 20.46 22.53 83.52 2.39 57.35 66.77"/>
        <line class="cls-1" x1="20.46" y1="22.53" x2=".51" y2="17.64"/>
        <line class="cls-1" x1="31" y1="50.58" x2="2.95" y2="82.39"/>
        <line class="cls-1" x1="57.35" y1="66.77" x2="68.08" y2="86.15"/>
      </g>
      <g id="numbers">
        <g id="_0" data-name="0">
          <path d="m59.93,24.18c1.72,1.81,2.43,3.83,2.11,6.08-.37,2.67-2.32,5.69-5.85,9.06-3.53,3.37-6.64,5.18-9.35,5.43-2.23.21-4.21-.59-5.94-2.4-1.73-1.81-2.43-3.94-2.1-6.38.33-2.44,2.29-5.37,5.86-8.79,3.51-3.35,6.62-5.15,9.33-5.41,2.23-.21,4.21.59,5.94,2.4Zm-2.96,2.83c-.41-.43-.92-.69-1.52-.76-.6-.08-1.34.13-2.23.63-1.16.64-2.83,2-5.02,4.09s-3.58,3.63-4.19,4.63c-.61,1-.89,1.8-.84,2.39.05.59.28,1.11.69,1.54.41.43.92.69,1.52.76.6.08,1.34-.13,2.23-.63,1.15-.63,2.82-1.99,5-4.08s3.58-3.63,4.19-4.63c.61-1,.89-1.8.84-2.4-.04-.6-.27-1.11-.68-1.54Z"/>
        </g>
        <g id="_8" data-name="8">
          <path d="m30.55,7.36c.47-.56,1.17-1.04,2.1-1.44.94-.4,1.98-.72,3.15-.95,1.99-.4,3.68-.5,5.07-.3,1.39.2,2.18.74,2.35,1.6.17.85-.34,1.65-1.54,2.38-1.2.73-2.8,1.3-4.79,1.71-1.24.25-2.36.37-3.37.35-1.01-.02-1.81-.17-2.39-.46-.49.62-1.28,1.17-2.37,1.66-1.09.49-2.38.89-3.87,1.19-2.46.5-4.51.64-6.16.43-1.65-.22-2.56-.76-2.74-1.64-.17-.82.33-1.62,1.5-2.42,1.37-.94,3.37-1.68,5.99-2.21,1.44-.29,2.79-.44,4.05-.44,1.25,0,2.26.19,3.02.57Zm-6.23,1.47c-1.41.29-2.48.63-3.22,1.03-.74.4-1.07.79-1,1.15.07.36.51.57,1.32.65.8.08,1.92-.03,3.35-.32,1.25-.25,2.23-.58,2.94-.97.71-.39,1.03-.77.95-1.13-.09-.42-.58-.65-1.48-.68-.9-.03-1.86.05-2.86.26Zm11.45-2.16c-1.02.21-1.79.47-2.32.77-.53.31-.76.62-.7.95.07.33.41.53,1.02.61.62.08,1.43.02,2.45-.19.96-.19,1.7-.45,2.24-.76s.77-.62.71-.94c-.07-.33-.41-.53-1.03-.61-.62-.08-1.41-.02-2.37.17Z"/>
        </g>
        <g id="_7" data-name="7">
          <path d="m36.36,80.17l-2.51.47-7.99-10.78,1.89-1.1c8.01,2.85,15.45,1.51,20.57-.26l2.76,4.8c-3.82.84-10.28,2.11-20.39-1.06l5.67,7.93Z"/>
        </g>
        <g id="_4" data-name="4">
          <path d="m73.51,68.46l1.54-7.29-5.39-5.47,1.54-5.17,7.39-8.19,1.93,2.59-2.4,14.12,1.22,1.32-.71,4.66-1.27-1.46-1.24,7.39-2.6-2.49Zm2.53-11.86l2.07-10.21-5.22,6.77,3.15,3.44Z"/>
        </g>
        <g id="_3" data-name="3">
          <path d="m17.54,49.77l-2.89-2.33c1.12-3.35-.6-5.19-1.41-5.68-1.59-.95-2.44.21-2.75,2.29-.36,2.36,1.64,4.64,2.58,5.15l-.74,2.54c-2.01-1.84-2.91-1.49-3.18.64-.18,1.41.85,2.99,1.67,3.26,1.05.34,1.48-.01,1.93-1.42l2.33,2.08c-1.02,4.45-5.22,2.54-7.04-.47-2.32-3.85-1.44-8.35.86-8.11-1.84-3-1.55-6.11-.56-8.58,1.3-3.24,3.73-3.02,5.65-1.48,5.72,4.59,4.05,9.98,3.56,12.11Z"/>
        </g>
      </g>
    </g>
  </g>
</svg>