<?xml version="1.0" encoding="UTF-8"?>
<svg id="Layer_2" data-name="Layer 2" xmlns="http://www.w3.org/2000/svg" viewBox="0 0 82.69 80.04">
  <defs>
    <style>
      .cls-1, .cls-2 {
        fill: none;
        stroke: #000;
        stroke-miterlimit: 10;
      }

      .cls-2 {
        stroke-width: .5px;
      }
    </style>
  </defs>
  <g id="Dice">
    <g id="D6">
      <g id="SHAPE">
        <polygon id="Exterior" class="cls-1" points=".5 16.24 41.35 .53 82.19 11.54 82.19 59.72 41.35 79.49 .5 64.43 .5 16.24"/>
        <polyline class="cls-1" points="82.19 11.54 41.35 30.36 .5 16.24"/>
        <line class="cls-1" x1="41.35" y1="30.36" x2="41.35" y2="79.49"/>
      </g>
      <g id="numbers">
        <g id="_5" data-name="5">
          <path class="cls-2" d="m45.94,23.3c-2.18,1.01-6.67,1.5-9.4.55s-2.05-2.7,0-3.42c2.66-.94,6.95-1.19,9.37-.54s2.93,2.07.03,3.41Z"/>
          <path class="cls-2" d="m45.75,14.86c-2.01.93-6.16,1.38-8.68.51s-1.89-2.49,0-3.16c2.45-.86,6.41-1.1,8.65-.5s2.7,1.91.03,3.14Z"/>
          <path class="cls-2" d="m45.4,7.27c-1.75.81-5.36,1.2-7.56.45s-1.65-2.17,0-2.75c2.13-.75,5.58-.96,7.53-.43s2.35,1.67.02,2.74Z"/>
          <path class="cls-2" d="m69.38,14.86c-2.01.93-6.16,1.38-8.68.51s-1.89-2.49,0-3.16c2.45-.86,6.41-1.1,8.65-.5s2.7,1.91.03,3.14Z"/>
          <path class="cls-2" d="m21.88,17.09c-2.01.93-6.16,1.38-8.68.51s-1.89-2.49,0-3.16c2.45-.86,6.41-1.1,8.65-.5s2.7,1.91.03,3.14Z"/>
        </g>
        <g id="_6" data-name="6">
          <path class="cls-2" d="m57.36,32.12c0,3.88-2.08,7.14-5.2,8.65-2.83,1.37-5.2-.26-5.2-3.74,0-3.8,2.98-7.62,5.67-8.86,2.51-1.16,4.73.74,4.73,3.95Z"/>
          <path class="cls-2" d="m57.36,47.52c0,3.88-2.08,7.14-5.2,8.65-2.83,1.37-5.2-.26-5.2-3.74,0-3.8,2.98-7.62,5.67-8.86,2.51-1.16,4.73.74,4.73,3.95Z"/>
          <path class="cls-2" d="m57.36,62.92c0,3.88-2.08,7.14-5.2,8.65-2.83,1.37-5.2-.26-5.2-3.74,0-3.8,2.98-7.62,5.67-8.86,2.51-1.16,4.73.74,4.73,3.95Z"/>
          <path class="cls-2" d="m78.55,22.19c0,3.88-2.08,7.14-5.2,8.65-2.83,1.37-5.2-.26-5.2-3.74,0-3.8,2.98-7.62,5.67-8.86,2.51-1.16,4.73.74,4.73,3.95Z"/>
          <path class="cls-2" d="m78.55,37.59c0,3.88-2.08,7.14-5.2,8.65-2.83,1.37-5.2-.26-5.2-3.74,0-3.8,2.98-7.62,5.67-8.86,2.51-1.16,4.73.74,4.73,3.95Z"/>
          <path class="cls-2" d="m78.55,52.99c0,3.88-2.08,7.14-5.2,8.65-2.83,1.37-5.2-.26-5.2-3.74,0-3.8,2.98-7.62,5.67-8.86,2.51-1.16,4.73.74,4.73,3.95Z"/>
        </g>
        <g id="_4" data-name="4">
          <path class="cls-2" d="m36.37,38.97c0,2.77-2.78,5.48-5.41,4.51-3.63-1.34-5.41-4.94-5.41-8.37,0-2.99,2.38-5.56,5.41-4.51,3.52,1.22,5.41,5,5.41,8.37Z"/>
          <path class="cls-2" d="m36.37,67.29c0,2.77-2.78,5.48-5.41,4.51-3.63-1.34-5.41-4.94-5.41-8.37,0-2.99,2.38-5.56,5.41-4.51,3.52,1.22,5.41,5,5.41,8.37Z"/>
          <path class="cls-2" d="m13.22,32.23c0,2.66-2.67,5.26-5.19,4.33-3.49-1.29-5.19-4.74-5.19-8.04,0-2.87,2.29-5.34,5.19-4.33,3.38,1.17,5.19,4.8,5.19,8.04Z"/>
          <path class="cls-2" d="m13.22,59.82c0,2.66-2.67,5.26-5.19,4.33-3.49-1.29-5.19-4.74-5.19-8.04,0-2.87,2.29-5.34,5.19-4.33,3.38,1.17,5.19,4.8,5.19,8.04Z"/>
        </g>
      </g>
    </g>
  </g>
</svg>