<?xml version="1.0" encoding="UTF-8"?>
<svg id="Layer_2" data-name="Layer 2" xmlns="http://www.w3.org/2000/svg" viewBox="0 0 75.79 89.97">
  <defs>
    <style>
      .cls-1 {
        stroke-linejoin: round;
      }

      .cls-1, .cls-2 {
        fill: none;
        stroke: #000;
      }

      .cls-2 {
        stroke-miterlimit: 10;
        stroke-width: .5px;
      }
    </style>
  </defs>
  <g id="Dice">
    <g id="D20">
      <g id="shape">
        <polygon class="cls-1" points="37.9 19.01 14.27 59.93 61.52 59.93 37.9 19.01"/>
        <polygon class="cls-1" points="37.9 89.47 61.52 59.93 14.27 59.93 37.9 89.47"/>
        <polygon class="cls-1" points="75.29 23.42 37.9 19.01 61.52 59.93 75.29 23.42"/>
        <polygon class="cls-1" points=".5 23.42 37.9 19.01 14.27 59.93 .5 23.42"/>
        <polygon class="cls-1" points="37.9 .5 37.9 19.01 75.29 23.42 37.9 .5"/>
        <polygon class="cls-1" points="37.9 .5 37.9 19.01 .5 23.42 37.9 .5"/>
        <polygon class="cls-1" points="75.29 67.18 61.52 59.93 37.9 89.47 75.29 67.18"/>
        <polygon class="cls-1" points="75.29 67.18 75.29 23.42 61.52 59.93 75.29 67.18"/>
        <polygon class="cls-1" points=".5 67.18 14.27 59.93 37.9 89.47 .5 67.18"/>
        <polygon class="cls-1" points=".5 67.18 .5 23.42 14.27 59.93 .5 67.18"/>
      </g>
      <g id="numbers">
        <g>
          <path d="m37.12,49.43v2.13h-9.3c.1-.81.4-1.57.91-2.29.5-.72,1.5-1.68,2.98-2.87,1.2-.96,1.93-1.62,2.2-1.96.36-.47.55-.94.55-1.4,0-.51-.16-.91-.48-1.18s-.76-.41-1.32-.41-.99.14-1.32.43c-.33.29-.52.77-.57,1.44l-2.64-.23c.16-1.26.65-2.17,1.48-2.72.83-.55,1.87-.82,3.11-.82,1.37,0,2.44.32,3.22.96s1.17,1.43,1.17,2.38c0,.54-.11,1.05-.33,1.54-.22.49-.58,1-1.06,1.53-.32.35-.9.86-1.74,1.53-.84.66-1.37,1.1-1.59,1.32-.22.22-.4.43-.54.64h5.27Z"/>
          <path d="m43.4,39.54c1.34,0,2.39.41,3.14,1.24.9.98,1.35,2.61,1.35,4.88s-.45,3.89-1.36,4.88c-.75.82-1.79,1.22-3.13,1.22s-2.43-.45-3.26-1.34c-.82-.9-1.24-2.49-1.24-4.79s.45-3.88,1.36-4.87c.75-.82,1.79-1.23,3.13-1.23Zm0,1.9c-.32,0-.61.09-.86.27s-.45.49-.58.95c-.18.59-.27,1.59-.27,3s.08,2.37.25,2.9c.16.52.37.87.62,1.05.25.17.53.26.85.26s.61-.09.86-.27.45-.49.58-.95c.18-.59.27-1.58.27-2.99s-.08-2.37-.25-2.9c-.16-.53-.37-.88-.62-1.05-.25-.18-.53-.27-.85-.27Z"/>
        </g>
        <g id="_18" data-name="18">
          <path d="m22.18,14.37l-.9-.32,6.2-4.3c-.83.28-1.59.46-2.27.53l1.34-.9c.35-.04.83-.15,1.44-.33.61-.18,1.18-.41,1.71-.69l.76.12-8.29,5.9Z"/>
          <path d="m29.34,11.5c-.1-.19-.07-.41.1-.65.17-.24.42-.48.75-.73.56-.42,1.15-.73,1.78-.94.63-.21,1.21-.28,1.75-.19.55.09.82.29.79.62-.03.34-.31.73-.87,1.19-.35.29-.75.54-1.18.74s-.87.33-1.28.4c.15.22.14.5-.04.84-.19.34-.52.72-1.02,1.13-.84.69-1.74,1.22-2.66,1.55-.93.34-1.68.4-2.25.2-.51-.18-.69-.51-.54-.98.16-.53.7-1.13,1.59-1.79.48-.35.98-.65,1.5-.9.52-.25,1.04-.41,1.56-.49Zm-1.88,1.55c-.47.36-.77.67-.9.92s-.08.43.15.5c.23.07.55.03.97-.14.42-.16.87-.44,1.35-.83.41-.33.66-.61.75-.85.09-.23.01-.37-.22-.43-.27-.07-.6-.01-1.01.17-.41.18-.77.39-1.11.65Zm3.62-2.66c-.29.22-.46.41-.51.57-.05.16.03.26.24.3.21.05.47.02.76-.09.3-.11.59-.28.89-.51.27-.22.42-.4.46-.55.03-.15-.05-.24-.26-.28-.21-.04-.46,0-.74.1-.28.1-.56.26-.83.46Z"/>
        </g>
        <g id="_4" data-name="4">
          <path d="m49.22,16.18l-.93-2.7-3.99.1v-1.62s2.42-3.43,2.42-3.43h.87s1.66,3.35,1.66,3.35l.99-.02.92,1.54-1.15.03,1.32,2.65-2.14.09Zm-1.47-4.28l-.74-2.16-1.17,2.19,1.91-.03Z"/>
        </g>
        <g id="_16" data-name="16">
          <path d="m58.76,69.46l1.07-1.4,6.23-.88c-.08-.41.05-.95.4-1.61l1.35-.14c-.2.34-.31.7-.33,1.06-.03.35.11.56.41.64l-.9.98-8.23,1.36Z"/>
          <path d="m60.52,73.67l.69-.91c.3-.09.56-.2.78-.33.22-.13.4-.28.55-.44.2-.22.23-.37.1-.47s-.61-.07-1.46.08c.2.17.13.46-.2.84-.37.43-.92.84-1.65,1.26-.73.41-1.48.72-2.27.92-.86.22-1.45.24-1.75.06-.31-.19-.26-.56.15-1.1.46-.6,1.22-1.19,2.26-1.74,1.03-.55,2.33-.98,3.82-1.27s2.25-.28,2.49-.01c.23.26.07.67-.46,1.25-.36.39-.8.75-1.32,1.07-.52.32-1.1.59-1.75.81Zm-1.27-1.57c-.53.12-1.02.29-1.45.53-.43.24-.74.46-.91.67s-.17.34-.03.42c.14.07.48.04,1.01-.08s.99-.29,1.35-.49c.36-.2.63-.4.81-.61s.21-.35.1-.45-.4-.09-.87.01Z"/>
        </g>
        <g id="_10" data-name="10">
          <path d="m19.92,72.02l1.14,1.29-3.18,1.49c.61.24,1.22.57,1.81.99l-.67.24c-.3-.21-.68-.42-1.14-.62-.45-.21-.84-.32-1.15-.33l-.83-.75,4.01-2.31Z"/>
          <path d="m12.15,70.93c-.68-.62-1.16-1.24-1.43-1.86-.34-.8-.31-1.63.15-2.54.53-1.03,1.27-1.51,2.19-1.34.78.15,1.62.73,2.48,1.7s1.26,1.81,1.36,2.63c.09.76-.27,1.44-1.01,2.03-.66.52-1.29.67-1.96.49-.54-.15-1.12-.51-1.78-1.1Zm.4-.48c.16.15.33.27.5.34s.34.09.52.04c.24-.07.55-.29.94-.68.42-.42.68-.78.76-1.05.08-.28.09-.53,0-.75-.08-.22-.22-.44-.41-.65s-.4-.36-.61-.46-.43-.09-.66.01c-.29.12-.62.46-.99.99-.34.49-.52.84-.54,1.09-.02.24.01.45.11.62.09.17.22.33.39.49Z"/>
        </g>
        <g id="_12" data-name="12">
          <path d="m7.78,51.57l.79,2.12-3.26,2.9c.43.39.86.96,1.28,1.7l-.65.39c-.2-.37-.46-.74-.77-1.1-.3-.34-.56-.52-.78-.53l-.41-1.15,3.81-4.34Z"/>
          <path d="m3.49,43.52l.61-1.84,2.63,7.05c-.36.44-.74.68-1.13.74-.37.06-.91-.09-1.59-.41-.5-.24-.81-.34-.94-.33-.17.02-.3.15-.39.37-.09.24-.13.5-.12.79s.07.58.18.89.22.48.34.55.26-.01.41-.26l.5,1.61c-.31.35-.59.39-.86.12-.26-.26-.49-.7-.72-1.34-.25-.7-.4-1.37-.44-2.04s0-1.27.15-1.73c.09-.28.21-.49.34-.63.14-.14.32-.22.54-.24.15-.01.4.04.76.17.38.13.63.21.75.22.12.01.23,0,.33-.04l-1.34-3.65Z"/>
        </g>
        <g id="_6" data-name="6">
          <g id="_6-2" data-name="6">
            <path d="m72.15,56.66l.24-2.18c.13.07.23.04.31-.1.08-.14.14-.35.18-.65.05-.39.05-.77-.01-1.17s-.25-.87-.59-1.46c.1.72.1,1.42-.01,2.15-.13.86-.36,1.54-.71,2.03-.38.54-.83.68-1.33.35-.6-.4-1.03-1.25-1.22-2.52-.19-1.3-.1-2.65.27-3.92s.84-1.85,1.42-1.9c.5-.04,1.06.54,1.66,1.61.52.94.81,1.81.93,2.69.11.86.12,1.75,0,2.73-.09.72-.22,1.29-.39,1.71-.19.44-.43.66-.72.63Zm-.72-6.59c-.26-.37-.5-.52-.73-.43-.24.1-.42.37-.53.81s-.12.91-.04,1.38c.08.47.29.87.6,1.18s.54.36.72.19.29-.46.36-.87c.07-.39.07-.78.02-1.19s-.19-.76-.41-1.08Z"/>
          </g>
          <line class="cls-2" x1="70.98" y1="41.42" x2="66.74" y2="54.76"/>
        </g>
        <g id="_14" data-name="14">
          <path d="m53.11,31.24l-1.17-2.23,8.59-2.93c-.94-.43-1.82-1.04-2.6-1.84l1.71-.43c.38.4.91.8,1.58,1.18.64.38,1.25.57,1.82.58l.67,1.27-10.58,4.39Z"/>
          <path d="m57.16,38.94l2.47-1.76-2.31-4.38,1.92-1,7.4.65.69,1.31-4.93,4.01.66,1.25-1.68,1.48-.7-1.33-2.38,1.93-1.14-2.16Zm4.25-3.04l3.02-2.16-4.24-.15,1.22,2.31Z"/>
        </g>
        <g id="_2" data-name="2">
          <path d="m20.53,29.28l1.72.78-6.85,10.32c-.47-.61-.75-1.38-.85-2.32-.1-.91,0-2.4.26-4.42.21-1.55.29-2.5.26-2.87-.04-.5-.2-.83-.45-.97-.28-.16-.59-.14-.92.07s-.66.55-.99,1.05-.52.94-.57,1.33c-.05.4.07.75.38,1.05l-1.74,2.35c-.49-.67-.61-1.47-.37-2.41.24-.92.71-1.91,1.42-2.98.78-1.18,1.55-2.02,2.33-2.53s1.46-.68,2-.43c.32.14.55.39.71.74.16.36.25.85.28,1.49.02.43-.03,1.19-.16,2.27-.13,1.12-.2,1.86-.2,2.18,0,.33.01.62.05.86l3.69-5.56Z"/>
        </g>
        <g id="_8" data-name="8">
          <path d="m40.29,72.19c.73.18,1.24.42,1.55.72s.44.62.41.97c-.05.58-.46,1.06-1.22,1.42s-1.78.54-3.11.54-2.34-.18-3.1-.54c-.76-.37-1.17-.84-1.22-1.42-.03-.37.12-.7.45-1,.33-.3.82-.53,1.46-.69-.84-.19-1.49-.47-1.95-.84s-.73-.82-.78-1.33c-.08-.86.32-1.58,1.22-2.15s2.19-.87,3.79-.87c1.49,0,2.72.24,3.67.72,1.11.56,1.61,1.3,1.52,2.22-.05.49-.29.94-.74,1.34s-1.09.69-1.96.9Zm-.24-2.07c.02-.49-.18-.87-.6-1.15-.42-.28-.96-.43-1.6-.43s-1.15.14-1.55.41c-.4.27-.59.66-.57,1.15.02.43.23.76.64,1.01.41.25.91.37,1.52.37.71,0,1.24-.14,1.59-.42.36-.29.55-.6.56-.94Zm-.4,3.65c.01-.31-.14-.55-.45-.72s-.73-.26-1.26-.26-.96.09-1.28.27c-.31.18-.47.42-.46.72,0,.28.17.51.48.68.31.17.72.25,1.22.25s.94-.08,1.25-.25c.32-.17.48-.4.49-.68Z"/>
        </g>
      </g>
    </g>
  </g>
</svg>