<?xml version="1.0" encoding="UTF-8"?>
<svg id="Layer_2" data-name="Layer 2" xmlns="http://www.w3.org/2000/svg" viewBox="0 0 72.56 78.14">
  <defs>
    <style>
      .cls-1 {
        stroke-linejoin: round;
      }

      .cls-1, .cls-2 {
        fill: none;
        stroke: #000;
      }

      .cls-2 {
        stroke-miterlimit: 10;
      }
    </style>
  </defs>
  <g id="Dice">
    <g id="D8">
      <g id="shape">
        <polygon class="cls-2" points="71.99 18.37 29.92 .58 6.2 21.05 .55 55.92 41.49 77.52 65.07 52.68 71.99 18.37"/>
        <polygon class="cls-1" points="6.2 21.05 71.99 18.37 41.49 77.52 6.2 21.05"/>
      </g>
      <g id="numbers">
        <g id="_8" data-name="8">
          <path d="m43.57,33.04c-.08-1.17.16-2.18.71-3.06.55-.87,1.3-1.59,2.24-2.14,1.61-.95,3.22-1.26,4.82-.94,1.61.33,2.92,1.36,3.95,3.09,1.01,1.72,1.28,3.37.79,4.94-.49,1.57-1.54,2.83-3.15,3.78-1,.59-2.02.9-3.06.92-1.04.02-2-.24-2.88-.79.11,1.29-.14,2.46-.75,3.53-.61,1.07-1.53,1.96-2.73,2.67-1.99,1.17-3.93,1.6-5.8,1.26-1.88-.33-3.34-1.38-4.38-3.15-.97-1.65-1.26-3.32-.88-5.03.46-2.01,1.74-3.64,3.86-4.89,1.17-.69,2.38-1.08,3.65-1.17s2.47.23,3.61.97Zm-4.85,3.39c-1.14.67-1.88,1.44-2.23,2.31-.35.87-.31,1.67.12,2.4.42.72,1.08,1.13,1.97,1.24s1.92-.18,3.07-.86c1.01-.6,1.68-1.31,2.01-2.15.33-.84.28-1.63-.15-2.36-.5-.85-1.22-1.28-2.16-1.28-.94,0-1.82.23-2.63.71Zm9.44-5.13c-.82.49-1.35,1.06-1.58,1.72-.23.66-.15,1.32.23,1.97.39.66.93,1.05,1.63,1.17.7.12,1.46-.06,2.29-.55.78-.46,1.28-1.02,1.52-1.69.24-.67.16-1.32-.21-1.96-.39-.67-.94-1.06-1.65-1.18s-1.44.05-2.22.51Z"/>
        </g>
        <g id="_2" data-name="2">
          <path d="m27.22,13.05l-2.23-.76,5.07-5.75c.82.38,1.47.87,1.96,1.48.48.6.93,1.58,1.33,2.93.32,1.07.58,1.74.78,2.02.28.38.65.65,1.12.82.52.18,1.01.23,1.47.14.46-.09.85-.29,1.18-.61.32-.32.44-.63.33-.93-.1-.3-.48-.59-1.14-.86l1.82-1.52c1.22.57,1.85,1.2,1.9,1.9.06.69-.29,1.4-1.03,2.12-.8.78-1.74,1.27-2.82,1.49-1.08.22-2.09.16-3.04-.16-.54-.19-1-.43-1.37-.72-.37-.3-.7-.68-.98-1.15-.19-.31-.39-.83-.62-1.56-.23-.74-.4-1.22-.5-1.44-.11-.22-.23-.41-.37-.57l-2.85,3.15Z"/>
        </g>
        <g id="_5" data-name="5">
          <path d="m18.34,55.94l-2.17-2.58c.35-.37.51-.86.47-1.45-.05-.62-.27-1.21-.67-1.77-.46-.65-1.02-1.06-1.65-1.21-.62-.15-1.2.07-1.73.63-.47.5-.66,1.06-.59,1.67.07.6.33,1.19.79,1.78.56.73,1.24,1.24,2.06,1.54l1.34,2.14-4.49,1.02-4.57-5.66.84-1.1,3.49,4.4,1.38-.48c-.56-.42-1.05-.9-1.49-1.47-.85-1.09-1.39-2.23-1.64-3.48-.26-1.33-.09-2.47.59-3.41.61-.85,1.49-1.25,2.65-1.14,1.67.15,3.29,1.29,4.72,3.37,1.11,1.6,1.68,3.08,1.75,4.4.07,1.24-.3,2.17-1.06,2.8Z"/>
        </g>
        <g id="_6" data-name="6">
          <path d="m64.56,43.14l-1.39,1.24c.04-.42,0-.69-.09-.8-.1-.11-.27-.08-.49.08-.29.22-.58.61-.85,1.19s-.55,1.56-.84,2.96c.46-.93.95-1.58,1.46-1.96.58-.43,1.02-.44,1.32-.03.3.42.36,1.2.17,2.35-.2,1.23-.58,2.39-1.15,3.47s-1.2,1.88-1.9,2.39c-.75.55-1.28.52-1.6-.09-.31-.61-.29-1.99.08-4.14.37-2.18.89-3.91,1.54-5.22s1.36-2.24,2.14-2.82c.55-.41.96-.5,1.24-.27.28.23.39.77.34,1.64Zm-4,7.3c-.13.75-.12,1.26.02,1.51.14.26.35.29.62.09.26-.19.51-.52.74-.99s.41-1.08.53-1.84c.13-.78.13-1.28,0-1.5s-.33-.23-.61-.03c-.27.2-.53.54-.77,1.02-.24.48-.42,1.06-.54,1.74Z"/>
        </g>
      </g>
    </g>
  </g>
</svg>