<?xml version="1.0" encoding="UTF-8"?>
<svg id="Calque_2" data-name="Calque 2" xmlns="http://www.w3.org/2000/svg" viewBox="0 0 1472 1445">
  <defs>
    <style>
      .cls-1 {
        fill: #00896f;
      }

      .cls-2 {
        fill: #00ffd3;
      }

      .cls-3 {
        fill: #004437;
      }

      .cls-4 {
        fill: #fccb00;
      }
    </style>
  </defs>
  <g id="_1.3" data-name="1.3">
    <g>
      <circle cx="739" cy="722.5" r="722.5"/>
      <g id="logo_arriere_plan" data-name="logo arriere plan">
        <path class="cls-4" d="m302.42,768.63s126.3,92.24,210.03-61.02c70.95-170.29,235.25-572.61,235.25-572.61l216.02,537.13s58.18,157.52,221.38,97.92c-4.26,14.19-52.51,116.37-5.68,205.77-11.35-2.84-55.34-19.87-110.69,41.15-55.34,61.02-238.41,124.88-286.66,123.46,32.64-8.51,268.21-59.6,194.42-235.57-73.79-175.97-248.34-593.18-248.34-593.18l-208.61,564.8s-110.48,197.3,180.33,263.97c-22.92-.05-103.7-18.47-149.11-42.6-12.77-4.26-95.08-43.99-116.37-66.7-21.29-22.71-66.7-76.63-127.72-53.93,7.1-17.03,46.83-89.4-4.26-208.61Z"/>
        <path class="cls-4" d="m1192.9,997.51s-207.9,239.42-406.57,181.24c-11.35-5.68-26.96-4.26-45.41-45.41-4.26,11.35-9.93,32.64-42.57,43.99-32.64,11.35-198.67,46.02-413.67-184.89,9.93,15.01,171,241.65,459.08,236.69,288.08-4.97,407.28-188.63,449.14-231.62Z"/>
      </g>
      <polygon class="cls-1" points="1472 1048.5 1244 1048.5 1244 820.5 1472 820.5 1358 934.5 1472 1048.5"/>
      <polygon class="cls-1" points="0 820.5 228 820.5 228 1048.5 0 1048.5 114 934.5 0 820.5"/>
      <g id="banderole">
        <path class="cls-3" d="m1276.5,1093c-360.67-61.88-721.33,61.88-1082,0v-238c360.67,61.88,721.33-61.88,1082,0v238Z"/>
      </g>
      <g id="banderole-2" data-name="banderole">
        <path class="cls-2" d="m1271.5,1088c-357.33-59.28-714.67,59.28-1072,0v-228c357.33,59.28,714.67-59.28,1072,0v228Z"/>
      </g>
      <g>
        <path d="m680.23,894.95c15.39,0,29.16,11.79,29.16,29.7,0,19.35-13.5,31.41-30.06,31.41s-29.52-12.69-29.52-30.06c0-16.11,11.43-31.05,30.42-31.05Zm-1.8,3.33c-10.08,0-19.26,8.46-19.26,25.29s9.18,29.07,21.96,29.07c10.08,0,19.08-8.1,19.08-25.47,0-18.9-9.99-28.89-21.78-28.89Zm6.03,51.93c9.45,7.2,19.53,13.68,27.81,16.74l-.63,2.16c-4.32,0-9.45-.45-12.15-1.17-6.21-1.71-16.83-9.45-24.12-14.58l9.09-3.15Z"/>
        <path d="m761.5,952.64c-4.32.63-9.18,1.8-13.77,3.15v-6.93c-4.86,4.05-8.82,6.93-13.77,6.93-6.03,0-11.25-3.69-11.25-13.5v-17.46c0-4.86-.72-5.4-2.97-5.85l-2.52-.45v-2.34c3.87-.18,9.81-1.08,12.87-1.62-.27,2.88-.27,7.2-.27,13.14v12.24c0,7.92,4.14,10.17,8.19,10.17,3.33,0,6.66-1.44,9.72-4.32v-20.97c0-4.86-1.08-5.49-4.14-5.94l-2.88-.36v-2.34c5.76-.27,12.06-1.26,14.13-1.62v30.15c0,4.5.72,5.13,4.14,5.31l2.52.09v2.52Z"/>
        <path d="m765.91,954.71v-2.52c5.67-.54,6.3-.99,6.3-7.11v-18.54c0-5.58-.27-5.94-5.67-6.84v-2.16c4.68-.81,8.91-1.98,12.78-3.6v31.14c0,6.12.63,6.57,6.48,7.11v2.52h-19.89Zm9.36-49.59c-2.52,0-4.77-2.25-4.77-4.77,0-2.88,2.25-4.95,4.86-4.95s4.59,2.07,4.59,4.95c0,2.52-2.07,4.77-4.68,4.77Z"/>
        <path d="m824.68,943.19c-1.17,3.51-2.97,8.64-3.87,11.52h-30.24l-.54-1.44c7.83-11.34,15.48-23.31,22.86-34.92h-8.73c-6.39,0-7.47.99-10.98,8.73l-2.52-.81c.99-3.42,2.16-9,2.79-12.96h1.98c.54,1.35,1.71,1.89,5.04,1.89h21.24l.54,1.35c-7.11,10.8-15.03,23.04-22.5,35.01h9.63c6.84,0,8.91-1.8,12.96-9.36l2.34.99Z"/>
        <path d="m475.53,1062.71v-2.52c5.85-.72,6.57-1.62,5.31-5.04-1.17-3.51-2.97-8.01-4.86-13.68h-19.44c-1.44,4.05-2.79,7.56-4.05,11.25-1.98,5.85-.72,6.57,6.66,7.47v2.52h-20.79v-2.52c5.67-.72,7.11-1.35,10.26-9.45l18.63-47.25,2.88-.54c5.67,15.39,11.88,32.4,17.55,47.97,2.88,7.83,3.69,8.55,10.08,9.27v2.52h-22.23Zm-9-47.97c-2.88,7.74-5.94,15.93-8.64,23.04h16.83l-8.19-23.04Z"/>
        <path d="m525.39,1033.91c-1.62-5.22-3.96-8.82-9.45-8.82-3.15,0-5.58,2.25-5.58,5.85,0,3.87,2.61,5.67,7.65,8.01,7.74,3.69,11.61,6.39,11.61,12.33,0,8.28-7.56,12.51-14.67,12.51-4.68,0-8.82-1.44-10.71-2.52-.45-2.61-1.26-7.56-1.62-10.53l2.61-.45c1.62,5.76,4.77,10.44,11.07,10.44,3.42,0,6.3-2.34,6.3-6.12,0-4.05-2.43-6.12-7.2-8.46-6.3-3.06-11.43-5.94-11.43-12.42s5.58-11.61,14.04-11.61c3.78,0,6.84.9,8.64,1.17.27,2.16.9,7.83,1.35,9.99l-2.61.63Z"/>
        <path d="m558.96,1033.91c-1.62-5.22-3.96-8.82-9.45-8.82-3.15,0-5.58,2.25-5.58,5.85,0,3.87,2.61,5.67,7.65,8.01,7.74,3.69,11.61,6.39,11.61,12.33,0,8.28-7.56,12.51-14.67,12.51-4.68,0-8.82-1.44-10.71-2.52-.45-2.61-1.26-7.56-1.62-10.53l2.61-.45c1.62,5.76,4.77,10.44,11.07,10.44,3.42,0,6.3-2.34,6.3-6.12,0-4.05-2.43-6.12-7.2-8.46-6.3-3.06-11.43-5.94-11.43-12.42s5.58-11.61,14.04-11.61c3.78,0,6.84.9,8.64,1.17.27,2.16.9,7.83,1.35,9.99l-2.61.63Z"/>
        <path d="m598.38,1063.79c-1.35,0-3.33-.72-4.23-1.71-1.17-1.17-1.71-2.43-2.16-4.05-3.6,2.43-8.01,5.76-10.8,5.76-6.39,0-10.98-5.31-10.98-11.07,0-4.41,2.43-7.29,7.38-9,5.49-1.89,12.24-4.23,14.22-5.85v-1.8c0-6.39-3.24-10.08-7.92-10.08-2.07,0-3.33.99-4.23,2.07-.99,1.26-1.62,3.24-2.43,5.85-.45,1.44-1.26,2.07-2.61,2.07-1.71,0-3.96-1.8-3.96-3.96,0-1.26,1.17-2.34,2.97-3.6,2.61-1.89,7.83-5.22,12.96-6.3,2.7,0,5.49.81,7.56,2.43,3.15,2.7,4.59,5.76,4.59,10.44v17.37c0,4.14,1.53,5.4,3.15,5.4,1.08,0,2.25-.45,3.24-.99l.9,2.52-7.65,4.5Zm-6.57-22.77c-1.98.99-6.3,2.88-8.37,3.78-3.42,1.53-5.49,3.24-5.49,6.57,0,4.77,3.6,6.93,6.48,6.93,2.34,0,5.58-1.44,7.38-3.24v-14.04Z"/>
        <path d="m632.58,1033.91c-1.62-5.22-3.96-8.82-9.45-8.82-3.15,0-5.58,2.25-5.58,5.85,0,3.87,2.61,5.67,7.65,8.01,7.74,3.69,11.61,6.39,11.61,12.33,0,8.28-7.56,12.51-14.67,12.51-4.68,0-8.82-1.44-10.71-2.52-.45-2.61-1.26-7.56-1.62-10.53l2.61-.45c1.62,5.76,4.77,10.44,11.07,10.44,3.42,0,6.3-2.34,6.3-6.12,0-4.05-2.43-6.12-7.2-8.46-6.3-3.06-11.43-5.94-11.43-12.42s5.58-11.61,14.04-11.61c3.78,0,6.84.9,8.64,1.17.27,2.16.9,7.83,1.35,9.99l-2.61.63Z"/>
        <path d="m666.15,1033.91c-1.62-5.22-3.96-8.82-9.45-8.82-3.15,0-5.58,2.25-5.58,5.85,0,3.87,2.61,5.67,7.65,8.01,7.74,3.69,11.61,6.39,11.61,12.33,0,8.28-7.56,12.51-14.67,12.51-4.68,0-8.82-1.44-10.71-2.52-.45-2.61-1.26-7.56-1.62-10.53l2.61-.45c1.62,5.76,4.77,10.44,11.07,10.44,3.42,0,6.3-2.34,6.3-6.12,0-4.05-2.43-6.12-7.2-8.46-6.3-3.06-11.43-5.94-11.43-12.42s5.58-11.61,14.04-11.61c3.78,0,6.84.9,8.64,1.17.27,2.16.9,7.83,1.35,9.99l-2.61.63Z"/>
        <path d="m676.14,1062.71v-2.52c5.67-.54,6.3-.99,6.3-7.11v-18.54c0-5.58-.27-5.94-5.67-6.84v-2.16c4.68-.81,8.91-1.98,12.78-3.6v31.14c0,6.12.63,6.57,6.48,7.11v2.52h-19.89Zm9.36-49.59c-2.52,0-4.77-2.25-4.77-4.77,0-2.88,2.25-4.95,4.86-4.95s4.59,2.07,4.59,4.95c0,2.52-2.07,4.77-4.68,4.77Z"/>
        <path d="m726.45,1062.71v-2.52c5.22-.54,5.76-1.17,5.76-7.29v-14.85c0-6.3-2.25-10.53-8.19-10.53-3.69,0-7.2,2.16-9.99,4.68v21.06c0,6.21.54,6.39,5.85,6.93v2.52h-19.44v-2.52c5.94-.63,6.48-.99,6.48-6.93v-18.54c0-5.85-.63-6.12-5.49-6.93v-2.34c4.41-.72,8.82-1.89,12.6-3.6v7.11c1.8-1.26,3.78-2.61,6.12-4.14,2.52-1.62,4.86-2.7,7.47-2.7,7.2,0,11.7,5.31,11.7,14.04v17.1c0,6.12.54,6.39,5.76,6.93v2.52h-18.63Z"/>
        <path d="m746.61,1016.81c4.14-1.8,7.02-4.5,7.02-7.56s-3.06-4.23-5.94-4.77c-.63-.09-1.26-1.35-1.26-2.52,0-2.43,1.89-4.05,4.59-4.05,3.96,0,7.92,3.24,7.92,9.18,0,6.39-5.58,10.62-11.25,12.24l-1.08-2.52Z"/>
        <path d="m780.63,1033.91c-1.62-5.22-3.96-8.82-9.45-8.82-3.15,0-5.58,2.25-5.58,5.85,0,3.87,2.61,5.67,7.65,8.01,7.74,3.69,11.61,6.39,11.61,12.33,0,8.28-7.56,12.51-14.67,12.51-4.68,0-8.82-1.44-10.71-2.52-.45-2.61-1.26-7.56-1.62-10.53l2.61-.45c1.62,5.76,4.77,10.44,11.07,10.44,3.42,0,6.3-2.34,6.3-6.12,0-4.05-2.43-6.12-7.2-8.46-6.3-3.06-11.43-5.94-11.43-12.42s5.58-11.61,14.04-11.61c3.78,0,6.84.9,8.64,1.17.27,2.16.9,7.83,1.35,9.99l-2.61.63Z"/>
        <path d="m866.75,1048.31c-1.26,4.32-3.6,10.8-4.95,13.59-2.61.54-9.63,2.16-16.47,2.16-21.51,0-32.49-14.31-32.49-30.06,0-18.36,13.95-31.05,34.11-31.05,7.74,0,14.04,1.62,17.01,2.07.36,4.05.99,9.45,1.71,13.95l-2.79.63c-1.8-6.03-3.96-9.72-8.55-11.61-2.34-1.08-6.03-1.71-9.45-1.71-14.85,0-22.68,10.98-22.68,25.83,0,17.37,9,28.53,23.58,28.53,9.18,0,13.68-4.23,18.27-13.23l2.7.9Z"/>
        <path d="m893.57,1062.71h-20.7v-2.52c5.67-.54,6.21-.99,6.21-6.84v-18.72c0-5.94-.36-6.21-5.58-6.84v-2.25c4.41-.72,8.46-1.8,12.69-3.69v9.9c3.15-4.68,6.93-9.63,11.43-9.63,3.33,0,5.22,2.07,5.22,4.32,0,2.07-1.44,4.05-3.06,4.95-.9.54-1.62.45-2.34-.18-1.35-1.35-2.43-2.25-4.05-2.25-1.89,0-5.22,2.79-7.2,7.38v16.92c0,5.94.45,6.39,7.38,6.93v2.52Z"/>
        <path d="m938.57,1055.06c-5.76,7.2-12.06,8.73-14.94,8.73-10.98,0-17.64-9-17.64-19.35,0-6.12,2.16-11.79,5.85-15.75,3.78-4.23,8.73-6.57,13.41-6.57,7.83,0,13.77,6.75,13.77,13.95-.09,1.8-.36,2.61-1.8,2.97-1.8.36-13.32,1.17-24.03,1.53-.27,12.06,7.11,17.01,13.5,17.01,3.69,0,7.11-1.53,10.44-4.59l1.44,2.07Zm-15.48-29.52c-4.14,0-8.19,3.87-9.45,11.16,5.04,0,10.08,0,15.39-.27,1.62,0,2.16-.45,2.16-1.8.09-4.77-3.06-9.09-8.1-9.09Z"/>
        <path d="m978.26,1055.06c-5.76,7.2-12.06,8.73-14.94,8.73-10.98,0-17.64-9-17.64-19.35,0-6.12,2.16-11.79,5.85-15.75,3.78-4.23,8.73-6.57,13.41-6.57,7.83,0,13.77,6.75,13.77,13.95-.09,1.8-.36,2.61-1.8,2.97-1.8.36-13.32,1.17-24.03,1.53-.27,12.06,7.11,17.01,13.5,17.01,3.69,0,7.11-1.53,10.44-4.59l1.44,2.07Zm-15.48-29.52c-4.14,0-8.19,3.87-9.45,11.16,5.04,0,10.08,0,15.39-.27,1.62,0,2.16-.45,2.16-1.8.09-4.77-3.06-9.09-8.1-9.09Z"/>
        <path d="m1028.75,1060.46c-1.89.36-8.64,1.44-13.95,3.33v-5.85c-1.62.99-3.96,2.25-5.58,3.24-3.6,2.07-6.03,2.61-7.11,2.61-7.2,0-16.74-7.2-16.74-19.8s10.98-21.87,23.31-21.87c1.26,0,4.23.18,6.12.99v-13.23c0-5.76-.63-5.94-7.02-6.48v-2.34c4.5-.63,10.8-1.89,14.13-3.06v54.27c0,4.68.63,5.31,3.96,5.49l2.88.18v2.52Zm-13.95-30.24c-2.07-3.15-5.94-4.59-9.45-4.59-4.32,0-11.97,2.88-11.97,15.84,0,10.89,6.75,16.65,12.51,16.74,3.24,0,6.75-1.62,8.91-3.24v-24.75Z"/>
      </g>
      <polygon class="cls-3" points="1244 820.5 1244 851.38 1276.5 855 1244 820.5"/>
      <polygon class="cls-3" points="228 820.5 228 860 194.5 855 228 820.5"/>
    </g>
  </g>
</svg>