<svg width="194" height="191" viewBox="0 0 194 191" fill="none" xmlns="http://www.w3.org/2000/svg">
<g clip-path="url(#clip0_53_135)">
<path d="M97.3954 191C149.984 191 192.616 148.243 192.616 95.5C192.616 42.7568 149.984 0 97.3954 0C44.8064 0 2.17459 42.7568 2.17459 95.5C2.17459 148.243 44.8064 191 97.3954 191Z" fill="black"/>
<path d="M39.857 101.597C39.857 101.597 56.5025 113.79 67.5376 93.5318C76.8883 71.0229 98.542 17.8443 98.542 17.8443L127.012 88.8421C127.012 88.8421 134.68 109.663 156.188 101.785C155.627 103.661 149.268 117.167 155.44 128.984C153.944 128.608 148.146 126.357 140.852 134.423C133.558 142.489 109.431 150.93 103.072 150.742C107.373 149.617 138.42 142.864 128.695 119.604C118.97 96.3446 95.9654 41.1978 95.9654 41.1978L68.472 115.853C68.472 115.853 53.9114 141.932 92.2383 150.745C89.2176 150.738 78.5713 148.303 72.5866 145.114C70.9036 144.551 60.0557 139.299 57.2498 136.297C54.4439 133.296 48.4591 126.168 40.4171 129.169C41.3528 126.918 46.589 117.352 39.8557 101.595L39.857 101.597Z" fill="#00FFD3"/>
<path d="M157.216 131.851C157.216 131.851 129.817 163.497 103.633 155.807C102.137 155.056 100.08 155.244 97.6484 149.805C97.087 151.305 96.3397 154.119 92.038 155.619C87.7362 157.12 65.8546 161.702 37.519 131.181C38.8277 133.165 60.0557 163.122 98.0227 162.466C135.99 161.809 151.7 137.533 157.216 131.851Z" fill="#00FFD3"/>
<path d="M194 138.591H163.951V108.454H194L178.976 123.522L194 138.591Z" fill="#007D65"/>
<path d="M0 108.454H30.0489V138.591H0L15.0245 123.522L0 108.454Z" fill="#007D65"/>
<path d="M168.234 144.473C120.7 136.293 73.1678 152.652 25.6338 144.473V113.014C73.1678 121.193 120.7 104.835 168.234 113.014V144.473Z" fill="#004437"/>
<path d="M167.575 143.812C120.482 135.976 73.3866 151.647 26.2928 143.812V113.675C73.3866 121.51 120.482 105.839 167.575 113.675V143.812Z" fill="#007D65"/>
<path d="M89.6499 118.294C91.6782 118.294 93.493 119.853 93.493 122.22C93.493 124.778 91.7138 126.372 89.5313 126.372C87.3488 126.372 85.6407 124.695 85.6407 122.399C85.6407 120.269 87.1471 118.294 89.6499 118.294ZM89.4126 118.735C88.0842 118.735 86.8743 119.853 86.8743 122.077C86.8743 124.302 88.0842 125.92 89.7685 125.92C91.097 125.92 92.2831 124.849 92.2831 122.553C92.2831 120.055 90.9665 118.735 89.4126 118.735ZM90.2074 125.599C91.4528 126.55 92.7813 127.407 93.8725 127.811L93.7895 128.097C93.2202 128.097 92.5441 128.037 92.1882 127.942C91.3698 127.716 89.9701 126.693 89.0094 126.015L90.2074 125.599Z" fill="white"/>
<path d="M100.361 125.92C99.7914 126.003 99.1509 126.158 98.5459 126.336V125.42C97.9054 125.956 97.3835 126.336 96.7311 126.336C95.9364 126.336 95.2485 125.849 95.2485 124.552V122.244C95.2485 121.602 95.1536 121.53 94.857 121.471L94.5249 121.411V121.102C95.0349 121.078 95.8178 120.959 96.2211 120.888C96.1855 121.268 96.1855 121.839 96.1855 122.625V124.243C96.1855 125.289 96.7311 125.587 97.2649 125.587C97.7038 125.587 98.1426 125.396 98.5459 125.016V122.244C98.5459 121.602 98.4036 121.518 98.0003 121.459L97.6207 121.411V121.102C98.3799 121.066 99.2102 120.935 99.483 120.888V124.873C99.483 125.468 99.5779 125.551 100.029 125.575L100.361 125.587V125.92Z" fill="white"/>
<path d="M100.942 126.194V125.86C101.689 125.789 101.772 125.73 101.772 124.921V122.47C101.772 121.732 101.737 121.685 101.025 121.566V121.28C101.642 121.173 102.199 121.019 102.709 120.805V124.921C102.709 125.73 102.792 125.789 103.563 125.86V126.194H100.942ZM102.176 119.639C101.843 119.639 101.547 119.341 101.547 119.008C101.547 118.628 101.843 118.354 102.187 118.354C102.531 118.354 102.792 118.628 102.792 119.008C102.792 119.341 102.52 119.639 102.176 119.639Z" fill="white"/>
<path d="M108.687 124.671C108.533 125.135 108.296 125.813 108.177 126.194H104.192L104.121 126.003C105.153 124.504 106.161 122.922 107.134 121.387H105.983C105.141 121.387 104.999 121.518 104.536 122.541L104.204 122.434C104.334 121.982 104.488 121.245 104.572 120.721H104.832C104.904 120.9 105.058 120.971 105.497 120.971H108.296L108.367 121.15C107.43 122.577 106.386 124.195 105.402 125.777H106.671C107.572 125.777 107.845 125.539 108.379 124.54L108.687 124.671Z" fill="white"/>
<path d="M62.6717 140.469V140.136C63.4427 140.041 63.5376 139.922 63.3716 139.47C63.2174 139.006 62.9801 138.411 62.7311 137.661H60.169C59.9792 138.197 59.8013 138.661 59.6352 139.148C59.3743 139.922 59.5403 140.017 60.513 140.136V140.469H57.773V140.136C58.5202 140.041 58.71 139.957 59.1252 138.887L61.5805 132.641L61.9601 132.57C62.7073 134.604 63.5258 136.852 64.273 138.911C64.6526 139.946 64.7594 140.041 65.6015 140.136V140.469H62.6717ZM61.4856 134.128C61.106 135.151 60.7028 136.234 60.3469 137.174H62.565L61.4856 134.128Z" fill="white"/>
<path d="M69.243 136.662C69.0295 135.972 68.7211 135.496 67.9975 135.496C67.5824 135.496 67.2621 135.794 67.2621 136.27C67.2621 136.781 67.6061 137.019 68.2703 137.328C69.2904 137.816 69.8005 138.173 69.8005 138.958C69.8005 140.053 68.8041 140.612 67.8671 140.612C67.2503 140.612 66.7046 140.421 66.4555 140.279C66.3962 139.934 66.2895 139.279 66.242 138.887L66.586 138.827C66.7995 139.589 67.2147 140.207 68.045 140.207C68.4957 140.207 68.8753 139.898 68.8753 139.398C68.8753 138.863 68.555 138.589 67.9264 138.28C67.0961 137.876 66.42 137.495 66.42 136.638C66.42 135.782 67.1554 135.104 68.2703 135.104C68.7685 135.104 69.1718 135.223 69.409 135.258C69.4446 135.544 69.5276 136.293 69.587 136.579L69.243 136.662Z" fill="white"/>
<path d="M73.6673 136.662C73.4538 135.972 73.1454 135.496 72.4218 135.496C72.0067 135.496 71.6864 135.794 71.6864 136.27C71.6864 136.781 72.0304 137.019 72.6946 137.328C73.7147 137.816 74.2248 138.173 74.2248 138.958C74.2248 140.053 73.2284 140.612 72.2914 140.612C71.6746 140.612 71.1289 140.421 70.8798 140.279C70.8205 139.934 70.7138 139.279 70.6663 138.887L71.0103 138.827C71.2238 139.589 71.639 140.207 72.4693 140.207C72.92 140.207 73.2996 139.898 73.2996 139.398C73.2996 138.863 72.9793 138.589 72.3507 138.28C71.5204 137.876 70.8443 137.495 70.8443 136.638C70.8443 135.782 71.5797 135.104 72.6946 135.104C73.1928 135.104 73.5961 135.223 73.8333 135.258C73.8689 135.544 73.9519 136.293 74.0113 136.579L73.6673 136.662Z" fill="white"/>
<path d="M78.8626 140.612C78.6847 140.612 78.4237 140.517 78.3051 140.386C78.1509 140.231 78.0797 140.064 78.0204 139.85C77.546 140.172 76.9647 140.612 76.597 140.612C75.7549 140.612 75.15 139.91 75.15 139.148C75.15 138.566 75.4702 138.185 76.1226 137.959C76.8461 137.709 77.7357 137.4 77.9967 137.186V136.948C77.9967 136.103 77.5697 135.615 76.9529 135.615C76.6801 135.615 76.514 135.746 76.3954 135.889C76.2649 136.055 76.1819 136.317 76.0751 136.662C76.0158 136.852 75.9091 136.936 75.7312 136.936C75.5058 136.936 75.2093 136.698 75.2093 136.412C75.2093 136.246 75.3635 136.103 75.6007 135.936C75.9447 135.687 76.6326 135.247 77.3087 135.104C77.6646 135.104 78.0323 135.211 78.3051 135.425C78.7202 135.782 78.91 136.186 78.91 136.805V139.101C78.91 139.648 79.1117 139.815 79.3252 139.815C79.4675 139.815 79.6217 139.755 79.7522 139.684L79.8708 140.017L78.8626 140.612ZM77.9967 137.602C77.7357 137.733 77.1664 137.983 76.8936 138.102C76.4428 138.304 76.17 138.53 76.17 138.97C76.17 139.601 76.6445 139.886 77.0241 139.886C77.3325 139.886 77.7595 139.696 77.9967 139.458V137.602Z" fill="white"/>
<path d="M83.3699 136.662C83.1564 135.972 82.848 135.496 82.1245 135.496C81.7093 135.496 81.3891 135.794 81.3891 136.27C81.3891 136.781 81.733 137.019 82.3973 137.328C83.4174 137.816 83.9274 138.173 83.9274 138.958C83.9274 140.053 82.931 140.612 81.994 140.612C81.3772 140.612 80.8316 140.421 80.5825 140.279C80.5232 139.934 80.4164 139.279 80.369 138.887L80.713 138.827C80.9265 139.589 81.3416 140.207 82.1719 140.207C82.6226 140.207 83.0022 139.898 83.0022 139.398C83.0022 138.863 82.682 138.589 82.0533 138.28C81.223 137.876 80.5469 137.495 80.5469 136.638C80.5469 135.782 81.2823 135.104 82.3973 135.104C82.8955 135.104 83.2987 135.223 83.536 135.258C83.5716 135.544 83.6546 136.293 83.7139 136.579L83.3699 136.662Z" fill="white"/>
<path d="M87.7942 136.662C87.5807 135.972 87.2723 135.496 86.5488 135.496C86.1336 135.496 85.8134 135.794 85.8134 136.27C85.8134 136.781 86.1573 137.019 86.8216 137.328C87.8417 137.816 88.3517 138.173 88.3517 138.958C88.3517 140.053 87.3553 140.612 86.4183 140.612C85.8015 140.612 85.2559 140.421 85.0068 140.279C84.9475 139.934 84.8407 139.279 84.7933 138.887L85.1373 138.827C85.3508 139.589 85.7659 140.207 86.5962 140.207C87.0469 140.207 87.4265 139.898 87.4265 139.398C87.4265 138.863 87.1063 138.589 86.4776 138.28C85.6473 137.876 84.9712 137.495 84.9712 136.638C84.9712 135.782 85.7066 135.104 86.8216 135.104C87.3198 135.104 87.723 135.223 87.9603 135.258C87.9959 135.544 88.0789 136.293 88.1382 136.579L87.7942 136.662Z" fill="white"/>
<path d="M89.1108 140.469V140.136C89.8581 140.064 89.9411 140.005 89.9411 139.196V136.745C89.9411 136.008 89.9056 135.96 89.1939 135.841V135.556C89.8107 135.449 90.3681 135.294 90.8782 135.08V139.196C90.8782 140.005 90.9612 140.064 91.7322 140.136V140.469H89.1108ZM90.3444 133.914C90.0123 133.914 89.7158 133.617 89.7158 133.284C89.7158 132.903 90.0123 132.629 90.3563 132.629C90.7003 132.629 90.9612 132.903 90.9612 133.284C90.9612 133.617 90.6884 133.914 90.3444 133.914Z" fill="white"/>
<path d="M95.7414 140.469V140.136C96.4293 140.064 96.5005 139.981 96.5005 139.172V137.209C96.5005 136.377 96.204 135.818 95.4211 135.818C94.9348 135.818 94.4722 136.103 94.1045 136.436V139.22C94.1045 140.041 94.1757 140.064 94.8755 140.136V140.469H92.3134V140.136C93.0963 140.053 93.1674 140.005 93.1674 139.22V136.769C93.1674 135.996 93.0844 135.96 92.4439 135.853V135.544C93.0251 135.449 93.6063 135.294 94.1045 135.068V136.008C94.3417 135.841 94.6027 135.663 94.9111 135.461C95.2432 135.247 95.5516 135.104 95.8956 135.104C96.8445 135.104 97.4375 135.806 97.4375 136.96V139.22C97.4375 140.029 97.5087 140.064 98.1967 140.136V140.469H95.7414Z" fill="white"/>
<path d="M98.3983 134.402C98.944 134.164 99.3235 133.807 99.3235 133.403C99.3235 132.998 98.9202 132.843 98.5407 132.772C98.4576 132.76 98.3746 132.594 98.3746 132.439C98.3746 132.118 98.6237 131.904 98.9795 131.904C99.5014 131.904 100.023 132.332 100.023 133.117C100.023 133.962 99.2879 134.521 98.5407 134.735L98.3983 134.402Z" fill="white"/>
<path d="M102.882 136.662C102.668 135.972 102.36 135.496 101.636 135.496C101.221 135.496 100.901 135.794 100.901 136.27C100.901 136.781 101.245 137.019 101.909 137.328C102.929 137.816 103.439 138.173 103.439 138.958C103.439 140.053 102.443 140.612 101.506 140.612C100.889 140.612 100.344 140.421 100.095 140.279C100.035 139.934 99.9284 139.279 99.881 138.887L100.225 138.827C100.438 139.589 100.854 140.207 101.684 140.207C102.135 140.207 102.514 139.898 102.514 139.398C102.514 138.863 102.194 138.589 101.565 138.28C100.735 137.876 100.059 137.495 100.059 136.638C100.059 135.782 100.794 135.104 101.909 135.104C102.407 135.104 102.811 135.223 103.048 135.258C103.084 135.544 103.167 136.293 103.226 136.579L102.882 136.662Z" fill="white"/>
<path d="M114.232 138.566C114.066 139.137 113.758 139.993 113.58 140.362C113.236 140.433 112.31 140.647 111.409 140.647C108.574 140.647 107.127 138.756 107.127 136.674C107.127 134.247 108.966 132.57 111.622 132.57C112.643 132.57 113.473 132.784 113.864 132.843C113.912 133.379 113.995 134.093 114.09 134.687L113.722 134.771C113.485 133.974 113.2 133.486 112.595 133.236C112.287 133.093 111.8 133.01 111.35 133.01C109.393 133.01 108.361 134.461 108.361 136.424C108.361 138.72 109.547 140.195 111.468 140.195C112.678 140.195 113.271 139.636 113.876 138.447L114.232 138.566Z" fill="white"/>
<path d="M117.767 140.469H115.039V140.136C115.786 140.064 115.857 140.005 115.857 139.232V136.757C115.857 135.972 115.81 135.936 115.122 135.853V135.556C115.703 135.461 116.237 135.318 116.794 135.068V136.377C117.209 135.758 117.707 135.104 118.3 135.104C118.739 135.104 118.988 135.377 118.988 135.675C118.988 135.948 118.799 136.21 118.585 136.329C118.467 136.4 118.372 136.389 118.277 136.305C118.099 136.127 117.956 136.008 117.743 136.008C117.494 136.008 117.055 136.377 116.794 136.983V139.22C116.794 140.005 116.853 140.064 117.767 140.136V140.469Z" fill="white"/>
<path d="M123.697 139.458C122.938 140.409 122.108 140.612 121.728 140.612C120.281 140.612 119.404 139.422 119.404 138.054C119.404 137.245 119.688 136.496 120.175 135.972C120.673 135.413 121.325 135.104 121.942 135.104C122.974 135.104 123.757 135.996 123.757 136.948C123.745 137.186 123.709 137.293 123.519 137.34C123.282 137.388 121.764 137.495 120.352 137.542C120.317 139.137 121.29 139.791 122.132 139.791C122.618 139.791 123.069 139.589 123.508 139.184L123.697 139.458ZM121.657 135.556C121.112 135.556 120.578 136.067 120.412 137.031C121.076 137.031 121.74 137.031 122.44 136.995C122.654 136.995 122.725 136.936 122.725 136.757C122.737 136.127 122.321 135.556 121.657 135.556Z" fill="white"/>
<path d="M128.928 139.458C128.169 140.409 127.339 140.612 126.959 140.612C125.512 140.612 124.634 139.422 124.634 138.054C124.634 137.245 124.919 136.496 125.405 135.972C125.904 135.413 126.556 135.104 127.173 135.104C128.205 135.104 128.988 135.996 128.988 136.948C128.976 137.186 128.94 137.293 128.75 137.34C128.513 137.388 126.995 137.495 125.583 137.542C125.548 139.137 126.52 139.791 127.363 139.791C127.849 139.791 128.3 139.589 128.738 139.184L128.928 139.458ZM126.888 135.556C126.342 135.556 125.809 136.067 125.643 137.031C126.307 137.031 126.971 137.031 127.671 136.995C127.884 136.995 127.956 136.936 127.956 136.757C127.968 136.127 127.552 135.556 126.888 135.556Z" fill="white"/>
<path d="M135.583 140.172C135.333 140.219 134.444 140.362 133.744 140.612V139.838C133.531 139.969 133.222 140.136 133.009 140.267C132.534 140.54 132.214 140.612 132.072 140.612C131.123 140.612 129.865 139.66 129.865 137.995C129.865 136.329 131.312 135.104 132.937 135.104C133.103 135.104 133.495 135.128 133.744 135.235V133.486C133.744 132.725 133.661 132.701 132.819 132.629V132.32C133.412 132.237 134.242 132.07 134.681 131.916V139.089C134.681 139.708 134.764 139.791 135.203 139.815L135.583 139.838V140.172ZM133.744 136.174C133.471 135.758 132.961 135.568 132.499 135.568C131.929 135.568 130.921 135.948 130.921 137.661C130.921 139.101 131.811 139.862 132.57 139.874C132.997 139.874 133.459 139.66 133.744 139.446V136.174Z" fill="white"/>
<path d="M163.951 108.454V112.535L168.234 113.014L163.951 108.454Z" fill="#004437"/>
<path d="M30.0489 108.454V113.675L25.6338 113.014L30.0489 108.454Z" fill="#004437"/>
</g>
<defs>
<clipPath id="clip0_53_135">
<rect width="194" height="191" fill="white"/>
</clipPath>
</defs>
</svg>
