<?xml version="1.0" encoding="UTF-8"?>
<svg id="Calque_2" data-name="Calque 2" xmlns="http://www.w3.org/2000/svg" viewBox="0 0 512 512">
  <defs>
    <style>
      .cls-1 {
        fill: #cbe59f;
      }

      .cls-2 {
        fill: #8cc726;
      }

      .cls-3 {
        fill: #9b5e5e;
      }

      .cls-4 {
        fill: #82b822;
      }

      .cls-5 {
        fill: #97d729;
      }

      .cls-6 {
        fill: #dbedbc;
      }

      .cls-7 {
        fill: #845151;
      }

      .cls-8 {
        fill: #dff2c0;
      }

      .cls-9 {
        fill: #d2eba8;
      }

      .cls-10 {
        fill: #8bc726;
      }

      .cls-11 {
        fill: #704444;
      }

      .cls-12 {
        fill: #fefefe;
      }
    </style>
  </defs>
  <g id="Calque_1-2" data-name="Calque 1">
    <g>
      <path class="cls-12" d="M411.9,0c32.2,0,64.3,0,96.5,0,3,0,3.6,.6,3.6,3.6,0,168.3,0,336.5,0,504.8,0,3.7-1.4,3.5-4.1,3.5-97,0-193.9,0-290.9,0,12.4-15.2,20.1-33,28.6-50.3,16.9-34.7,31.9-70.3,44.9-106.7,16.3-45.7,29.3-92.3,38.4-140,3.2-16.8,6.1-33.7,7.8-50.7,2.6-16.2,3.3-32.6,4.8-48.9,.1-1.5,0-3,.7-4.4,2.5-2.7,3.9,0,5.2,1.3,6.6,5.9,12,12.9,17,20.2,11.9,17.2,20.3,35.8,23,56.8,.3,2.6,.9,4.7,4.4,2.8,4.7-2.5,6.6-1.6,7.9,4,2.2,9.3,2.1,18.8,1.1,28.3-1.3,12.3-4.9,24.1-9.4,35.6-.6,1.5-2,3.2-.5,4.6,1.4,1.3,3.2,.3,4.7-.2,7.4-2.2,14.4-5.1,20.6-9.8,18.1-12,26.7-29.1,25.3-50.5-1.1-16.6-7.2-31.8-15.8-45.9-13.1-21.3-31.5-36.3-55-45-6.2-3-13.4-3.3-19.6-6.6-.5-.9,0-1.4,.7-1.9,5.9-1.7,11.6,0,17.3,.9,24,4,46.1,12.8,65.1,28.3,3.8,3.1,4.1,2.9,5.9-1.6,1.5-3.6,3.4-4.2,7.1-2,7.7,4.6,13.8,11,19.3,17.9,8.9,11.2,15,23.9,20.1,37.2,.6,1.6,.7,4.1,2.9,4.3,2.1,.2,2.7-2.1,3.7-3.6,2-3.2,4.2-6.4,5.1-10.2,3.6-9.4,5.8-19,5.6-29.2-.4-16.3-7.2-29.4-19.1-39.7-22-19-47.8-27.9-76.8-27.2-19.2,.4-36.9,6.5-53.9,15.1-4.2,2-7.9,5-12.1,7-1.1,.1-2-.3-2.4-1.3-.6-2.5,.9-4.5,2-6.5,4.1-7.2,8.8-14,14-20.5,9.5-10.4,20.1-19.4,33-25.4,2.5-1.2,3.9-2.3,1.2-5-2.7-2.7-.3-4.5,1.9-5.9,5.3-3.3,11.1-5.5,17.1-6.8,10.4-2.4,21-3,31.7-2.1,1.4,.1,3.2,1.1,4.1-.6,.7-1.5-.8-2.8-1.6-3.9-3.2-4.7-6.9-8.9-11.4-12.4-4.7-3.9-10-6.5-15.7-8.4-1.4-.5-3.6-.2-3.5-2.7Z"/>
      <path class="cls-12" d="M168,511.9c-54.6,0-109.3,0-163.9,0C.7,512,0,511.3,0,507.9,.1,340,.1,172,0,4.1,0,.7,.7,0,4.1,0,90.1,.1,176,0,262,0c.3,1.7-1.1,2-2.1,2.2-8.7,2-15.7,7.1-22.3,12.7-3.1,2.6-5.2,6-7.5,9.3-.7,1-2,2.2-1.2,3.5,.8,1.3,2.4,1.1,3.7,.9,7.5-1.6,14.9-.6,22.3,.1,9,.9,17.7,3.2,25.6,7.7,4.2,2.4,4.5,3.3,2,7.6-.9,1.5-.7,2.4,.8,3.2,2,1.1,4.2,2.1,6.2,3.2,18.6,10.1,33,24.5,43.5,42.8,1.2,2.1,2.7,4.2,2.6,6.9-.3,.8-.8,1.3-1.6,1.4-2.5,0-4.3-1.6-6.2-2.9-17.3-11.1-36.2-17.4-56.6-19.3-29.2-1.4-55.1,7.5-78,25.5-7.2,5.7-12.4,13-16.4,21.1-1,2.1-1.6,4.5-4.3,5.1-10.3-.5-19.9,1.8-28,8.4-12,9.8-19.9,22.1-22.9,37.5-.3,1.3-.3,2.6-.7,3.9-1.8,3.6-3.5,2.4-4.7-.2-2.7-5.4-5.7-10.5-9.6-15.1-7.4-8.6-16.3-15-27-18.9-13.4-4.9-24.8-1.6-34.7,8.2-2.7,2.6-4.5,5.8-6.4,8.9-.6,1-1.4,2.1-.5,3.2,.7,.8,1.9,.5,2.8,.2,7.2-1.9,14.5-1.2,21.8-1.3,3.9,0,7.6,.7,11.2,2.1,2.8,1,5.8,1.9,4.4,6.3-.7,2.3,1.8,2.4,3.3,2.8,14.1,4.8,25.5,13.3,35.2,24.4,1.5,1.7,3.1,3.5,3.9,5.7,0,1.6-1,2.4-2.5,2.7-2.4,.2-4.5-1-6.6-1.8-8.1-3.4-16.6-5.4-25.2-6.5-23.1-2.2-43.2,4.8-61.1,19.4-20.9,17-23.6,44.4-6.2,65,.7,.9,1.4,2.2,2.6,2.1,1.7-.2,1.7-1.9,2-3.1,1.3-5,2.5-10,4.6-14.8,3.5-10,8.5-19.1,16.3-26.6,4.1-3.9,4.3-4,8.7-.3,2.2,1.9,2.9-.3,3.9-1.3,12.5-12.7,27.5-21.4,44.6-26.5,2.5-.8,5.1-1.7,7.8-1.4,1,.3,2,.6,2,1.9-1.1,1.9-3.2,2.3-5,3.1-25.1,11.5-41.2,30.4-47.2,57.5-2.1,9.5-2.6,19,.1,28.6,4.5,15.8,22.2,26.9,37.6,28.8,2.9,.4,3.2-1,2.1-3.2-.5-1-1.3-1.9-1.9-3-5.8-10.8-9.8-22.2-11.1-34.5-.4-3.4,0-6.6,.7-9.9,.6-2.3,1.8-3.7,4.3-3,3.3,.9,3.6-.9,3.7-3.4,.2-15.3,4.6-29.5,11.8-42.9,1.1-2.1,2.3-4,3.5-6,1.4-2,2.7-4.1,4.3-6,1.1-1.4,2.2-3,4.4-2,1.6,1.3,1.6,3.2,1.7,5,2,33.5,7.6,66.4,14.9,99.1,11.5,51.3,27.2,101.3,46.4,150.2,1,2.5,1.9,5,2.7,7.5,.5,2.2-.7,3.8-1.9,5.4-3.4,4.5-6.6,9.2-10.2,13.5-2.8,3.2-5,6.6-4.2,11.1Z"/>
      <path class="cls-7" d="M333.9,101.3c.4-.4,.9-.7,1.3-1.1,1.5-1.5,3-1.4,4.6-.2,.7,.4,1.3,.7,2,1.1,1.5,.2,1.9,1.4,2.2,2.6,0,.5,.1,1,.2,1.5,0,.5,0,1,0,1.5,0,1.2,0,2.5-1.1,3.4-1.4,18.4-2,36.8-5.2,55-3.7,22.3-9.7,44.1-16,65.7-9.2,31.6-19.9,62.8-32.3,93.4-19.6,48-42.9,94.1-71.7,137.4-9.2,13.9-18.9,27.4-29.4,40.3-2.5,3.1-3.3,6.3-3.4,10h-17c-1.9-3.1-1.7-5.7,.8-8.8,5.3-6.5,10.7-12.9,15.1-20.1,.6-4.2,3.7-7,6-10.2,2.3-3.3,2.7-6.4,1.2-10.2-14.3-38-26.6-76.6-36.5-116-4.3-17.1-8-34.3-11.2-51.7-.4-2.3-1.1-4.6,.3-6.8,2.8-.5,2.6,2,3,3.4,5.9,21,11.9,42,18.8,62.7,10.4,31.3,21.7,62.3,35.3,92.3,.7,1.6,1.4,3.4,2.8,4.9,3.2-2.9,4.8-6.6,6.8-9.9,29.7-48.3,53.5-99.4,72.6-152.7,20.8-57.8,36-117.1,46.9-177.6,.6-1.9,.6-3.9,1.1-5.9,.6-1.6,.8-3.5,2.8-4.2Z"/>
      <path class="cls-3" d="M185,511.9c-3.4-4.1-.6-7.2,1.8-10.1,12-14.8,23-30.4,33.4-46.3,18.8-28.6,35.2-58.7,49.7-89.7,16.3-34.7,30.2-70.4,41.9-107,9.6-30.1,18.1-60.6,25.1-91.5,.2-.8,.6-1.5,.9-2.2-1.6,17.7-4.7,35.2-8.1,52.7-19.3,97.9-53.4,190.5-100.5,278.4-2.3,4.2-4.2,8.7-7.4,12.4-1.3,1.4-3.2,2.3-4.8,3.4h-32Z"/>
      <path class="cls-10" d="M339.8,100c-1.5,0-3.1,.1-4.6,.2-11.5-23.4-28.8-40.8-52.5-51.7-3.2-1.5-5.4-2.9-.9-5.4,3-1.7,2.3-3.1-.2-4.5-8.2-5-17.3-7.4-26.8-8.4-8.1-.9-16.2-.9-24.4,0-4.4,.4-5-.7-2.7-4.4,2.6-4.3,5.4-8.4,9.4-11.4,7.1-4.2,14.6-1.8,21.9-1.2,9.1,.7,17.7,3.2,25.6,7.7,2.9,1.7,5.6,3.7,2.4,7.4-1.7,2-.4,2.9,1.2,3.8,3.8,2,7.8,3.8,11.4,6.2,15.9,10.4,28.7,23.7,37.7,39.9-.6-4.3-2.1-9-.8-13.9,3.5-20.1,14.3-35.9,29.6-48.8,7.9-6.7,16.5-12.3,26.9-14.4,1.3-.3,2.7,.3,3.8-.6h15c7,2.7,14.3,4.7,19.9,10.2-.4,2.2-2.1,1.9-3.5,1.6-11.4-2-21.5,1.8-30.9,7.5-18.7,11.4-32,27.3-38.6,48.5-.7,2.3-1.7,4.3-2.9,6.3-5.9,8.3-12.4,16.2-16.2,25.8Z"/>
      <path class="cls-12" d="M396.9,0c-15.3,4.4-28.2,12.7-38.9,24.4-10.3,11.2-17.5,24.1-20.3,39.2-1,2.8-2.1,1.6-2.8,0-1-2.3-1.6-4.7-2.4-7.1-7.9-23.3-23.3-39.8-45.1-50.7-3-1.5-6.2-2.4-9.4-3.3-1.3-.4-3.2,0-3.1-2.4h122Z"/>
      <path class="cls-5" d="M275,0c23.1,6,39.7,20.4,51.9,40.3,4.2,6.8,6.9,14.3,9,22,.3,1.1,.1,2.6,1.9,1.2-1.6,5.9,1.1,11.6,1.1,18.4-4.6-6.1-7.5-12.3-11.8-17.5-10.4-12.5-22.1-23.4-37-30.4-1.5-.7-3-1.4-4.5-2.3-2.1-1.2-3.2-2.5-.1-4.1,3.2-1.8,2.6-3.9-.3-5.5-8.4-4.7-17.3-7.3-26.9-8.2-7.1-.6-14.1-1.8-21.2,0,6.8-7.3,15.6-11.1,24.9-14h13Z"/>
      <path class="cls-5" d="M352.9,94c43.8-24.9,92.8-20,129.6,9.1,21.5,17.1,27.8,40.6,19.1,66.7-.7,2.2-1.7,4.3-2.6,6.4-1.7-1.1-1.9-3.1-2.5-4.7-6.1-15.6-14.5-29.9-26.3-41.9-2.8-2.9-6.1-5.2-9.4-7.4-2.3-1.5-3.7-1.4-4.8,1.6-1.8,5.3-4,5.8-8.4,2.2-22.4-18.7-48.7-27.4-77.2-30.5-4-.4-8,0-12-.2-1.9,0-4,.4-5.6-1.3Z"/>
      <path class="cls-10" d="M343.1,110.1c0-1.3,0-2.6,0-4,2-.6,4-.8,6-1,.7,0,1.4,.3,1.9,.9,6.8,1.4,13.7,2.7,19.9,6.1,8.9,6.2,14.8,15.1,20.7,23.9,10.6,16,17.8,33.4,20.5,52.5,.5,3.5,1.3,4.8,4.9,2.6,3.5-2.1,5.7-.9,7,3.3,2.2,7.4,2.7,15.1,2.1,22.7-1,13.1-3.1,26-9.2,38-7.3,6.1-16,9.2-25.1,11.3-3.8,.9-4.2-1.3-3-4.4,5.1-12.3,9.1-25,10.6-38.2,1.1-9.8,1.2-19.6-1.5-29.2-.9-3.3-2.1-5-5.3-2-1.3,1.2-2.5,3.1-4.6,2.1-2-1-1.7-3.4-2-5.3-4.7-31.7-19.9-57.7-43-79.4Z"/>
      <path class="cls-10" d="M352.9,94c26.4-1,51.3,4.7,74.7,16.9,7.7,4,14.6,9,21.2,14.6,1.1,1,2.3,2.3,3.8,1.8,1.8-.6,2.1-2.3,2.3-4.1,.5-4.5,1.9-5.2,5.7-2.8,11.5,7.2,19.6,17.6,26.5,29.1,5,8.4,9.9,16.9,11.9,26.7-1.2,4.6-3.8,8.4-6.3,12.3-.9,1.4-1.6,3.3-3.5,3.1-2.3-.1-2.5-2.4-3.1-4-5.2-14.3-11.8-27.8-21.2-39.8-5.2-6.6-11-12.4-18.2-16.9-4-2.5-5.1-2-5.7,2.7-.7,5-2,5.6-5.7,2.5-19.5-16.5-42.4-25.7-67.4-29.9-5.2-.9-10.5-1.7-15.8-1.4-3-.5-6.1,1.4-8.9-.7-.5-1-.9-2.1-1.4-3.1,3.3-3,7.1-5.3,11.2-7Z"/>
      <path class="cls-5" d="M417,255.1c0-3.4,1.7-6.4,2.6-9.5,4.7-16.4,7.6-32.9,3.4-49.9-1.4-5.5-2.5-5.9-6.8-2.5-3,2.5-4.8,2-5.2-1.9-2-19.8-9.6-37.4-20-54-5.7-9.1-13-17.1-20.1-25.2,26.9,9.6,46.8,27.3,59.9,52.6,7.4,14.3,12.6,29.4,11.9,45.8-.8,19.3-9.4,34.3-25.8,44.7Z"/>
      <path class="cls-5" d="M356,74.2c7.2-29.6,25-50.2,53.2-61.6,6.3-2.5,13.1-3.7,19.9-1.6,1,.3,2,.2,2.7-.7,5.1,3.8,9.2,8.6,12.7,13.9,.9,1.4,2.8,2.9,1.7,4.8-1.1,2-3.3,.9-5,.7-12.9-1.2-25.6-.5-37.9,3.4-3.1,1-6.2,2.4-9.1,3.9-5.3,2.7-5.2,2.8-1.3,7.2,2.6,2.9-.6,3.3-2.1,4-10.2,4.8-19.3,11-27.4,18.8-2.5,2.4-4.9,4.9-7.4,7.4Z"/>
      <path class="cls-9" d="M343.1,104.2c3,0,6.1-.7,8.9,.7-.3,.4-.7,.7-1,1.1-.7,0-1.4,0-2.1,0-1.8-1.2-4.2,1-5.8-1.1,0-.2,0-.5,0-.7Z"/>
      <path class="cls-10" d="M332,105.1c-.2,2,.6,4.1-.8,6-.8,.6-1.2,1.6-2.3,1.9-25.3,9.7-45.1,25.8-57.9,49.9-5.3,9.9-9.5,20.1-11.5,31.2-4.6,25.1,2.2,45.6,23.9,60.3,1.7,1.5,2.1,3.7,3.1,5.6,.9,1.9,2,3.9,.3,6-1.8,2.2-4.2,1.6-6.4,1-8.9-2.4-17.2-6.1-24.6-11.6-2.7-2-5.4-3.8-8.2-5.6-6.6-7.8-11.9-16.2-15.4-25.9-2.4-6.7-9.2-9.7-15.2-13-1.6-.9-2.9-.4-3.5,1.5-1.5,5-4.5,3.3-7.3,1.6-11.8-7.4-24.7-11.3-38.4-13.2-7.1-1-14.3-.2-21.4-.5-2.3,0-4.7,.4-6.8-.8-1.2-2.8,1.4-3.4,2.8-4.3,9.4-6.4,19.8-10,30.9-12,4.9-.9,4.8-.9,3-5.5-3.1-7.5-5.8-15.2-6.4-23.8-3,1.1-5.4,2.4-7.9,3.6-2.6,1.3-5.4,2.3-2.8,6.2,1,1.5-.4,2.9-1.7,3.7-9,5.9-16.5,13.3-22.5,22.3-.6,1-1.6,1.8-3,1.2-2.3-4.1-.5-8.3,.4-12.1,4.7-20.5,15.4-36.4,35.4-45,1.9-.8,3.4-2,4.5-3.8,1-.2,1.7-.5,2.1-1.6,7.1-17.9,21-28.9,37.4-37.4,18.6-9.6,38.3-14.6,59.3-12.9,.9,3.7-2.4,3-4.1,3.4-11.5,2.6-22.4,6.6-32.6,12.3-11.9,6.6-22.6,14.6-29.8,26.6-7.6,12.7-8.8,26.2-6.3,40.4,.4,2.3,1.3,4.5,1.1,6.9-.5,3.9-2.8,7.1-4.3,10.6-1.2,2.9-.8,4.3,2.4,4.9,10.5,2,20.4,6.1,30.1,10.6,3.5,1.7,4.4,.8,5.2-2.7,4.7-20.8,14.4-39.1,29.3-54.3,14.9-15.2,33-25.1,53.7-30.4,2.7-.7,5.5-1.5,8.3-1.9,2.5-.4,5.1-1.5,7.6-.2,.2,.2,.4,.4,.5,.6Z"/>
      <path class="cls-5" d="M198.1,168.2c-.3-5.4-1.9-10.6-2.3-16.1-.7-11.4,1.6-21.8,7.3-31.7,10.9-18.6,28.7-27.8,47.7-35.4,5.7-2.3,11.6-3.8,17.7-4.9,1.2-.2,2.3-.4,2.5-1.8,20.6,1.3,39.3,8.1,56.7,19,2.1,1.3,4.2,2.7,6.2,4.1-.6,1.3-1.3,2.6-1.9,3.8,0,0-.2-.2-.2-.2-3.9-.9-7.7,0-11.5,.7-15.2,1.9-30.3,4.5-44.5,10.7-11.5,5-22.5,10.8-32,19.1-1.1,1-2.3,1.9-3.7,2.6-3,1.5-5.1,.7-6.1-2.6-1.6-4.9-1.9-5-6-1.9-10.8,8.1-19.2,18.4-25.8,30.1-1,1.8-1.3,4.3-4,4.6Z"/>
      <path class="cls-11" d="M144.1,287.8c.4,10.7,3.4,20.9,5.5,31.2,8.6,40.9,20.7,80.8,34.4,120.3,2.8,8.1,5.7,16.3,8.9,24.3,1.3,3.1,1.2,5.6-.9,8.3-2.8,3.6-5.5,7.4-8.2,11.2-9.5-21.9-17.2-44.4-24.7-67-13.9-42.4-25.2-85.4-32.9-129.4-3.5-20.3-6.4-40.7-7.4-61.3,0-2-.5-4-.8-5.9-1.6-1.3-1.2-3.2-1.4-5,0-.5,0-1,0-1.5,0-1.3,.2-2.6,1.3-3.5l1.7-2.1c1.3-1.7,3-1.5,4.8-1.3,1.2,.2,2.1,.8,2.9,1.7,1.1,1.6,1.5,3.5,1.8,5.4,.2,1.3,.2,2.7,.4,4,4.8,21.9,9.3,43.9,14.9,65.6,.5,1.7,1,3.6-.5,5.2Z"/>
      <path class="cls-4" d="M117.9,213.9c0,1.8,.2,3.6,.2,5.4-2.3,2.9-4.7,5.8-7,8.7-11.9,10.1-21.7,21.8-27.1,36.8-4.1,11.3-5.9,22.9-4.4,34.7,1.1,8.7,5.4,16.4,12,22.4,2.2,2,4.5,3.9,6.7,5.9,1.7,2,4.2,4.4,3,6.7-1.4,2.8-4.6,.7-6.8,.2-27.2-5.5-43.7-25.3-37-57,6.4-30.5,24.6-50.8,53.4-62,.6-1.1,1.7-1.7,2.8-2.1,1.4-.4,2.8-.9,4.2,.2Z"/>
      <path class="cls-4" d="M125.1,206.9c-1.8,0-3.5,.2-5.3,.3-11-14.4-24.6-25-42.1-30.2-1.7-.5-3.7-1.3-1.4-3.2,3.1-2.6,1.1-3.4-1.1-4.3-9.6-3.9-19.5-3.1-29.5-2.2-1.2,.1-2.3,.6-3.4,.6-2.3,0-5.2,2.5-6.5,.4-1.5-2.3,1.2-4.8,2.5-7,1.6-2.7,3.1-5.5,5.8-7.3,10.7-3.9,21.2-2.6,31.5,1.1,1.8,.6,3.6,1.8,3,4-1,3.4,1,4,3.3,4.7,10.4,3.4,19.2,9.6,27.6,16.5,3.2,2.7,5.7,6,8.3,9.5,.2-3.2,1.3-6.1,2.1-9,1-21.9,20-45.5,40.3-50.1,3.9-.9,7.9-.7,11.8-.4,1.8,2.7-.3,3.6-2.2,4.3-20.4,7.6-31,23.4-36.2,43.5-1.1,4.2-2,8.7-1.4,13.2-.4,6.1-3.5,10.9-7.1,15.6Z"/>
      <path class="cls-10" d="M118.1,209.3c0,1.3-.1,2.5-.2,3.8-1.3,.7-2.9,.2-4,1.3-1.6,.6-3.4-.3-4.9,.6-20.2,4.4-37.7,13.7-51.8,28.9-2.6,2.7-4.2,4.5-5.6-.8-1-3.8-3.1-1.6-4.7-.2-7.8,6.9-12.9,15.5-16.7,25.1-.3,.7-.7,1.5-1,2.2-5.3-12.8-4-25.5,3.4-36.6,11.9-17.8,28.8-28.7,50.1-32.5,1.1-.2,2.3-.1,3.4-.6,11.3,.9,21.8,4.4,32.1,9.1Z"/>
      <path class="cls-4" d="M86,200.2c-5.7,2.7-12.1,3.2-17.9,5.9-13.1,6.1-24.9,13.9-33.4,25.9-6.9,9.8-8.8,20.9-6.3,32.6,.4,1.8,.5,3.6,.6,5.4-1.7,6.1-3.4,12.1-5,18.2-.9,3.4-2.6,2.9-4.4,.8-15.5-18.2-20.7-43.9-.8-63.8,18.4-18.5,40.7-27.6,67.2-24.9Z"/>
      <path class="cls-2" d="M98.3,327.9c-12.6-6.4-19-17.2-20.2-30.9-1.6-19,3.9-36.4,14.9-51.9,4.9-6.8,10-13.6,18-17.1-7.2,12.8-12.9,26.2-14.6,41-.4,3.6-.5,7.3-.6,10.9,0,3.1-1.2,4.2-3.9,2.3-3.1-2.2-3.9-.8-4.3,2.3-1.6,12.5,2.1,24,6.8,35.2,1.2,2.7,2.5,5.4,3.7,8.2Z"/>
      <path class="cls-2" d="M119.9,180.8c.7,3.6-.9,6.9-1,10.4-1.9,.2-2.7-1.3-3.5-2.4-9.5-12-21.9-19.6-36.1-24.5-2.3-.8-5.6-.9-1.8-4.4,1.6-1.4,0-2.7-1.6-3.3-7.7-3-15.7-4.3-23.9-3.1-2.6,.4-5.3,.6-7.9,.7,9.2-10.1,20.4-13.4,33.3-9.3,18.3,5.9,31.6,17.7,39.7,35.3,.5,1.1,.8,4.5,2.8,.8Z"/>
      <path class="cls-6" d="M109,214.9c1.5-1.2,3.3-1,5.1-1,.3,.2,.4,.5,.3,.7-.1,.2-.2,.3-.3,.3-1,.3-2.1,.6-3.1,.9-.7-.3-1.3-.6-2-.9Z"/>
      <path class="cls-12" d="M144.1,287.8c-3.5-15.4-7.1-30.8-10.6-46.2-1.8-8.2-3.5-16.4-5.3-24.6,2.5-1.3,4.1,.6,5.7,1.8,15.5,12.7,27.1,28.2,33.4,47.4,.9,2.7,.9,6.2,5.7,3.5,2.8-1.6,3.9,1.6,4.7,3.8,3.2,9.1,4.4,18.4,3.2,28-.7,5.6-1.5,11.2-2.7,16.7-.3,1.4-1.2,3.1,.1,4.2,1.4,1.2,2.8-.2,4.1-.7,6.5-2.9,12.1-7,16.6-12.5,13.6-15.7,11.9-32.8,3.6-49.9-11.2-22.8-29.2-37.5-54.1-43.4-3-.8-6-1.5-9.1-1.8-1.9-.2-3.9-.6-4.6-2.9,1.4-2.1,3.5-1.6,5.4-1.6,19.2-.4,37.3,3.8,54.2,13.1,2.6,1.4,4.9,3.7,6.9-1.2,1.2-2.9,4.5-1.5,6.6-.3,6.3,3.5,11.9,7.8,16.7,13.3,5.5,6.3,10,13.3,14.3,20.4,.8,1.3,1.2,3.5,3.3,3.2,1.9-.3,2.2-2.3,3-3.7,.8-1.6,1.1-3.6,2.8-4.6,2.1-1.8,2.9,.5,4,1.4,9,7,18.7,12.3,29.9,14.8,1.5,.3,2.8,1,4.1-.3,1.4-1.5,.3-2.8-.2-4.1-.9-2.3-2-4.5-3-6.7-1.7-1.3-2.4-3.2-3-5.1-4.1-11.9-6.3-24.2-6.9-36.6-.3-6.1,.8-12.3,2.4-18.2,1.3-4.8,3.2-5.8,7.6-3.4,3.7,2,4-.5,4.3-2.8,1.2-7.9,3.1-15.7,5.8-23.2,6.1-17.2,15.5-32.3,27.3-46.1,2.5-2.9,5.3-5.5,8.6-7.5,.8-.3,1.6-.6,2.4-.9-2.7,19.2-6.9,38.2-11.3,57.1-13.9,60.2-32.3,119-57,175.7-16.4,37.7-35.3,74-57.6,108.5-.5,.8-1.1,1.6-2.1,3.1-4.9-11.3-9.7-22.1-14.1-32.9-17.6-43.1-31.9-87.4-44-132.4-.2-.8-.6-1.5-.9-2.3Z"/>
      <path class="cls-10" d="M343.1,104.9c1.9,.5,4.1-.5,5.8,1.1-1.9,.2-3.9,1.7-5.8,0,0-.4,0-.8,0-1.2Z"/>
      <path class="cls-12" d="M198.1,168.2c7.3-13.1,15.4-25.6,27.7-34.7,1.1-.8,2.1-1.6,3.3-2.3,4.7-2.9,5.4-2.6,6.1,2.8,.2,1.5,0,3.2,1.7,3.8,2.2,.8,3.3-1.1,4.6-2.2,22.7-19,49-28.6,78.4-30.7,1.5-.1,3.2-1.5,4.1,1-50,10.9-80.1,41.6-91.6,91.4-8.2-3.7-16.5-7.5-25.2-10.2-4-1.2-8-2.3-12.1-3-2.7-.4-3.5-1-2.2-3.7,1.9-4,3.5-8.2,5.3-12.3Z"/>
      <path class="cls-5" d="M328.8,112c-13.5,14.2-24.9,29.8-32.4,48.1-4.1,10.1-6.9,20.4-8.3,31.2-.6,4.4-1.8,4.8-5.3,2-4.1-3.3-5.1-3.1-6.4,2.2-4.2,16.7-1.5,33,3.1,49.1,1,3.5,2.2,7,3.3,10.4-11.8-6.9-20-16.9-23.7-30-5.2-18.3-1.5-35.8,5.9-52.7,6-13.6,13.6-26.2,24.7-36.4,11.4-10.5,24.2-19,39.1-23.9Z"/>
      <path class="cls-4" d="M248,250c-1.1,4.1-2,9.9-6,10.6-3.7,.7-4.2-5.4-6.2-8.5-7-10.8-14.6-21.1-25.7-28.1-1.5-1-3.2-1.8-4.8-2.6-2.3-1.1-3.9-1-3.7,2.3,.2,3.3-1,4.5-4.1,2.6-19.1-12.1-40.1-16-62.4-15.2-2.1,1.4-4.4,2.2-7,2-.4-1.6-.8-3.1-1.2-4.7,2.7-4.8,6.1-8.7,12-9.3,13.9,.4,27.8-1,41.5,2.9,9.6,2.7,18.9,6.1,27.3,11.6,3,2,4.4,2.1,4.4-2,0-3.1,1.6-3.7,4.2-2.3,9,4.7,17.1,9.8,19.7,20.8,1.4,5.6,5,10.4,9,14.6,1.5,1.5,3.3,2.9,2.9,5.4Z"/>
      <path class="cls-12" d="M138.9,199c-4.8,2.1-8.1,6.1-12,9.3-.6-.5-1.2-.9-1.8-1.4,2.4-5.2,4.7-10.4,7.1-15.6,6.5-9.8,14.1-18.5,24.2-24.7,1.6-1,3.6-2.2,.4-3.7-2.7-1.3-1.9-2.6,0-3.9,4.2-3,8.9-5,14.1-6.3,.8,11,4.4,20.9,9.2,30.8-15.3,1.7-29.1,6.3-41.1,15.5Z"/>
      <path class="cls-8" d="M323.9,105.9c-1.1-1.3-2.8-.4-4.1-1,4-1,8-1.7,12,0-2.6,.3-5.3,.7-7.9,1Z"/>
      <path class="cls-4" d="M128.1,213c2-1.9,4.4-2.3,7-2,2.1,2.8,5.3,1.4,7.9,2.3,2,.7,4.3,.3,6,1.8,13,7,21.9,18.1,29.9,30,4.6,6.8,7.6,14.4,10.2,22.1,.8,2.4,1.5,4,4.5,2.5,2.8-1.3,4.4,.4,5.4,2.8,1.4,3.2,2.5,6.6,2.7,10.1,.5,9.2,2.4,18.5-1.7,27.4-5.1,6.7-11.9,10.9-19.4,14.2-1.4,.6-2.9,1.5-4.2,.5-1.4-1.1-.5-2.9-.1-4.2,2.3-9.2,3.9-18.5,3.7-28-.1-6.8-1.3-13.5-3.9-19.9-.9-2.3-1.9-3.7-4.1-1.1-2.9,3.5-4,2-5-1.5-5.9-20.9-18.2-37.4-35-50.9-1.1-.9-2-2.3-3.8-2,0-1.4,0-2.7-.1-4.1Z"/>
      <path class="cls-1" d="M114,214.9c0-.3,0-.7,0-1,1.1-1.2,2.5-.9,3.9-.8,0,.3,.1,.5,0,.8-1.3,.3-2.6,.7-3.9,1Z"/>
      <path class="cls-2" d="M200,310c1.5-12.2,2.3-24.4-1.9-36.4-1.1-3.2-2.3-4.9-5.4-1.8-2.3,2.3-3.4,.8-4-1.6-5-18.3-15.2-33.4-29-46.1-3.4-3.1-7-6-10.5-9,22.3,4.9,39.1,17.5,50.9,36.8,5.7,9.3,9.9,19.1,10.2,30.3,.3,10.6-2.9,19.9-10.2,27.7Z"/>
    </g>
  </g>
</svg>