<?xml version="1.0" standalone="no"?>
<!DOCTYPE svg PUBLIC "-//W3C//DTD SVG 20010904//EN"
 "http://www.w3.org/TR/2001/REC-SVG-20010904/DTD/svg10.dtd">
<svg version="1.0" xmlns="http://www.w3.org/2000/svg"
 width="720.000000pt" height="720.000000pt" viewBox="0 0 720.000000 720.000000"
 preserveAspectRatio="xMidYMid meet">
<metadata>
Created by potrace 1.14, written by Peter Selinger 2001-2017
</metadata>
<g transform="translate(0.000000,720.000000) scale(0.100000,-0.100000)"
fill="#000000" stroke="none">
<path d="M3570 7190 c0 -5 -5 -10 -10 -10 -6 0 -16 -5 -23 -10 -22 -18 -189
-120 -197 -120 -5 0 -15 -6 -22 -13 -7 -7 -78 -53 -158 -101 -80 -48 -174
-105 -209 -127 -34 -21 -67 -39 -72 -39 -5 0 -9 -4 -9 -8 0 -4 -25 -21 -55
-37 -30 -17 -55 -33 -55 -37 0 -5 -4 -8 -10 -8 -13 0 -114 -62 -118 -72 -2 -4
-8 -8 -14 -8 -5 0 -54 -28 -109 -62 -130 -82 -171 -107 -189 -115 -8 -4 -17
-9 -20 -12 -3 -3 -14 -11 -25 -18 -11 -7 -66 -40 -122 -75 -57 -35 -118 -72
-137 -83 -19 -11 -81 -49 -138 -84 -56 -35 -115 -70 -129 -78 -15 -7 -32 -20
-39 -28 -7 -8 -16 -15 -20 -15 -8 0 -78 -42 -348 -209 -68 -42 -131 -80 -140
-86 -10 -5 -90 -54 -178 -108 -87 -54 -168 -104 -179 -110 -11 -7 -34 -22 -52
-34 -17 -13 -34 -23 -37 -23 -3 0 -46 -25 -96 -56 l-90 -56 2 -1775 3 -1774
30 -17 c17 -9 31 -20 33 -24 2 -5 7 -8 12 -8 4 0 41 -20 81 -45 40 -25 79 -45
86 -45 7 0 13 -5 13 -11 0 -5 15 -17 33 -25 62 -30 77 -39 77 -46 0 -5 6 -8
14 -8 7 0 19 -7 26 -15 7 -8 16 -12 21 -9 5 3 9 0 9 -5 0 -6 4 -11 8 -11 5 0
71 -38 148 -85 76 -47 146 -88 154 -92 8 -4 73 -42 144 -85 71 -43 130 -78
132 -78 2 0 45 -26 96 -58 51 -32 100 -61 108 -65 8 -4 33 -18 55 -32 22 -14
47 -28 55 -32 8 -3 29 -17 46 -30 17 -13 34 -23 38 -23 3 0 43 -22 87 -50 44
-27 85 -50 90 -50 5 0 9 -4 9 -10 0 -5 4 -10 10 -10 5 0 40 -19 77 -42 38 -22
82 -49 98 -58 34 -19 531 -315 555 -330 8 -5 42 -26 75 -45 33 -20 78 -47 100
-61 22 -14 48 -27 58 -31 9 -3 17 -9 17 -14 0 -5 4 -9 10 -9 7 0 113 -60 210
-120 137 -84 201 -120 213 -120 8 0 30 10 48 23 19 13 58 36 87 52 28 15 52
32 52 37 0 4 9 8 19 8 11 0 22 4 26 9 3 6 31 24 63 42 31 18 60 37 64 43 4 6
8 7 8 3 0 -4 19 5 43 21 33 23 182 112 329 197 9 6 66 39 125 75 59 35 116 69
125 75 164 98 205 122 227 135 24 14 218 130 251 150 116 71 232 140 235 140
4 0 184 110 215 130 8 6 23 13 33 16 9 4 17 10 17 15 0 5 3 8 8 7 4 -1 33 14
65 35 31 20 60 37 63 37 4 0 74 42 130 78 10 6 30 18 44 24 14 7 27 15 30 18
11 11 112 70 121 70 5 0 9 5 9 10 0 6 4 10 9 10 7 0 47 22 119 65 265 159 395
235 402 235 6 0 10 5 10 10 0 6 5 10 11 10 40 0 39 -59 39 1798 l0 1770 -221
136 c-121 75 -225 136 -230 136 -5 0 -9 3 -9 8 0 4 -17 16 -37 27 -21 11 -57
32 -79 48 -23 15 -45 27 -49 27 -3 0 -21 11 -39 25 -18 14 -36 25 -40 25 -4 0
-22 11 -40 25 -18 14 -36 25 -40 25 -4 0 -19 8 -34 19 -44 30 -421 261 -427
261 -3 0 -11 5 -18 10 -28 24 -103 70 -114 70 -6 0 -13 3 -15 8 -3 6 -127 85
-188 119 -14 8 -45 27 -70 43 -25 16 -63 39 -84 51 -21 11 -44 25 -50 30 -23
20 -336 209 -346 209 -5 0 -10 5 -10 10 0 6 -6 10 -14 10 -8 0 -16 4 -18 8 -1
5 -15 15 -30 23 -30 15 -174 103 -255 156 -28 18 -56 33 -62 33 -6 0 -11 5
-11 10 0 6 -7 10 -15 10 -8 0 -15 5 -15 10 0 6 -4 10 -10 10 -8 0 -239 138
-250 150 -9 9 -65 41 -82 47 -10 3 -18 9 -18 14 0 5 -5 9 -10 9 -6 0 -28 11
-50 25 -40 26 -80 33 -80 15z"/>
</g>
</svg>
