<?xml version="1.0" encoding="UTF-8"?>
<svg id="logo_luciole" data-name="logo_luciole" xmlns="http://www.w3.org/2000/svg" xmlns:xlink="http://www.w3.org/1999/xlink" viewBox="0 0 275.19 129.57">
  <defs>
    <style>
      .cls-1 {
        fill: none;
      }

      .cls-2 {
        clip-path: url(#clippath);
      }

      .cls-3 {
        fill: #fff;
      }

      .cls-4 {
        fill: #fffffc;
      }

      .cls-5 {
        clip-path: url(#clippath-2);
      }
    </style>
    <clipPath id="clippath">
      <rect class="cls-1" width="275.19" height="129.57"/>
    </clipPath>
    <clipPath id="clippath-2">
      <rect class="cls-1" width="275.19" height="129.57"/>
    </clipPath>
  </defs>
  <g id="logo_luciole">
    <g class="cls-2">
      <g class="cls-5">
        <path class="cls-3" d="M143.1,36.03s-5.74-5.16-6.14-4.93c-.4,.22,2.51,5.26,2.51,5.26h-43.57s-2.66,1.01-2.62,2.53l11.53,11.95s.5,.11,1.01,.13c.51,.02,32.78-7.53,32.78-7.53,0,0,.28,.39,.25,.93-.03,.54-.59,1.18-.59,1.18l-24.87,9.53s-.34,.66-.34,1.39,.24,1.53,.7,1.88c.46,.35,11.07,4.96,11.07,4.96,0,0,.56,.16,1.05,.16s1.21-.51,1.53-.86c.32-.35,15.7-16.81,15.7-16.81v-9.76Z"/>
        <path class="cls-3" d="M147.18,36.35s1.56-2.92,5.96-4.95c0,0-.53,2.19-2.77,4.95l43.68,.1s2.62,.6,2.67,2.39c0,0-10.54,11.69-12.02,12.52,0,0-.46,0-.9,0-.44,0-31.88-8.01-31.88-8.01,0,0-.7,.18-.74,1.01-.04,.83,.83,1.36,.83,1.36l23.6,9.28s.53,.35,.53,1.4-.22,1.75-.83,2.15c-.61,.39-9.85,4.69-9.85,4.69,0,0-.53,.31-.96,.31s-1.4-.83-1.4-.83l-15.91-16.47v-9.89Z"/>
        <path class="cls-4" d="M137.6,56.22s1.61,4.89,5.11,6.96l.4,41.38s-.13,.67-.42,.68c-.29,.02-4.16-8.63-4.16-8.63l.2-26.52s-5.36,7.15-5.82,7.78c-.46,.62-.77-.27-.77-.27l5.48-14.15s.16-.71-.03-.89c-.19-.18-1.28,.6-1.28,.6l-9.21,6.75s-.32,.25-.63,0,.25-.81,.25-.81l10.88-12.88Z"/>
        <path class="cls-3" d="M152.12,56.22s-.58,4.59-4.76,6.59l-.04,41.69s.08,.5,.36,.48c.28-.02,3.72-7.86,3.72-7.86l-.08-27.02s5.7,7.62,6,7.94c.3,.32,.3-.82,.3-.82,0,0-4.68-12.34-4.56-14.26l9.92,6.94s.44,.22,.6,.08c.16-.14,0-.8,0-.8l-11.46-12.95Z"/>
      </g>
    </g>
  </g>
</svg>