<?xml version="1.0" encoding="UTF-8"?>
<svg id="Calque_2" data-name="Calque 2" xmlns="http://www.w3.org/2000/svg" xmlns:xlink="http://www.w3.org/1999/xlink" viewBox="0 0 754.16 262.41">
  <defs>
    <style>
      .cls-1 {
        fill: none;
      }

      .cls-2 {
        clip-path: url(#clippath);
      }

      .cls-3 {
        fill: #fff;
      }

      .cls-4 {
        fill: #fffffc;
      }

      .cls-5 {
        fill: #363636;
      }

      .cls-6 {
        clip-path: url(#clippath-2);
      }
    </style>
    <clipPath id="clippath">
      <rect class="cls-1" x="244.92" y="137.96" width="264.33" height="124.45"/>
    </clipPath>
    <clipPath id="clippath-2">
      <rect class="cls-1" x="244.92" y="137.96" width="264.33" height="124.45"/>
    </clipPath>
  </defs>
  <g id="the_last_of_us_logo">
    <g id="logo">
      <polygon class="cls-3" points="325.18 201.41 0 201.35 .14 11.94 306.04 11.94 305.96 17.32 5.11 17.32 5.11 196.11 325.18 196.11 325.18 201.41"/>
      <polygon class="cls-3" points="448.01 11.94 448.01 17.1 749.1 17.22 749.23 196.15 428.21 196.15 428.21 201.15 754.16 201.15 754.16 11.94 448.01 11.94"/>
      <polygon class="cls-3" points="80.14 46.15 30.12 46.15 30.12 59.07 47.19 59.07 47.19 149.14 63.12 149.14 63.17 59.07 80.14 59.12 80.14 46.15"/>
      <polygon class="cls-3" points="90.13 46.15 90.1 149.14 106.16 149.14 106.16 102.19 124.09 102.15 124.09 149.14 140.14 149.14 140.14 46.15 124.16 46.15 124.16 89.11 106.12 89.15 106.16 46.15 90.13 46.15"/>
      <polygon class="cls-3" points="157.12 46.15 157.18 149.14 196.16 149.14 196.16 136.12 173.19 136.12 173.19 102.12 191.07 102.17 190.96 89.16 173.13 89.11 173.19 59.12 196.16 59.18 196.16 46.15 157.12 46.15"/>
      <polygon class="cls-3" points="232.88 46.15 233.22 149.14 270.96 149.14 270.96 136.45 248.94 136.45 248.94 46.15 232.88 46.15"/>
      <polygon class="cls-3" points="272.45 149.14 291.49 46.15 310.03 46.15 328.57 149.14 313.01 149.14 309.53 130.98 291.32 130.98 288.51 149.14 272.45 149.14"/>
      <path class="cls-3" d="M335.36,116.08s-.83,4.14-.83,6.46v11.75s1.66,14.63,23.67,14.85,24.67-16.53,24.67-16.53v-12.22s-4.3-12.58-11.09-20.53-20.2-24.17-20.2-24.17c0,0-2.15-5.79-1.99-9.77s3.15-7.95,9.11-8.11,8.94,6.29,9.11,8.94,.17,13.08,.17,13.08l12.42-.17s2.48-7.62,2.48-12.91-5.96-20.34-17.05-20.6-13.91,0-13.91,0c0,0-16.89,4.21-17.38,21.26s16.39,33.11,16.39,33.11c0,0,16.89,15.23,16.39,27.32s-8.61,10.26-8.61,10.26c0,0-9.43,1.32-9.93-10.26l-.5-11.59-12.91-.17h-.01Z"/>
      <polygon class="cls-3" points="388.09 46.04 388.09 59.15 405.13 59.15 405.13 149.14 421.24 149.14 421.24 59.15 438.03 59.24 438.03 46.04 388.09 46.04"/>
      <path class="cls-3" d="M497.12,44.98s-12.16,.16-17.22,6.48-7.9,14.69-8.06,20.85,0,51.02,0,51.02c0,0,2.21,17.53,10.11,21.96s11.06,4.9,15.16,4.9,14.06-2.37,18.17-8.21,7.58-14.69,7.58-22.27v-43.91s-1.26-15.95-6-21.96-12.01-8.21-19.75-8.85h.01Z"/>
      <path class="cls-5" d="M497.33,57.56s-4.91,.71-7.27,4.26c-2.36,3.55-1.89,9.46-1.89,9.46l-.04,57.46s.75,5.44,2.17,6.62,3.91,2.6,7.04,2.6,6.2-2.13,7.15-4.26,1.66-7.57,1.66-9.22v-56.51s-.71-5.2-2.6-7.57-2.71-2.6-6.2-2.84h-.02Z"/>
      <polygon class="cls-3" points="537.15 46.16 537.15 149.12 553.16 149.12 553.16 102.11 572.04 102.17 572.04 89.09 553.1 89.15 553.16 59.17 577.11 59.23 577.11 46.16 537.15 46.16"/>
      <path class="cls-3" d="M612.17,46.16V122.94s1.16,13.2,7.8,20.75,17.68,6.47,17.68,6.47c0,0,13.53,1.58,18.84-8.55s5.56-15.6,5.56-15.6V46.16h-15.94l.08,80.1s-.08,5.06-2.16,8.13-3.98,3.82-6.93,3.82-4.77-1.41-6.43-3.15-1.66-6.72-1.66-9.88-.08-79.02-.08-79.02h-16.76Z"/>
      <path class="cls-3" d="M676.11,116.2s-1.2,5.84-1.2,10.63,.15,11.68,5.39,17.52,18.34,5.9,18.34,5.9c0,0,14.38-2.16,19.09-7.47,4.72-5.32,5.69-13.78,5.62-16.7s-1.27-14.23-6.89-21.04c-5.62-6.81-24.33-28.23-25.61-31.9-1.27-3.67-.6-11.83,1.8-13.1s3.6-2.02,6.48-2.02,8.65,2.47,8.72,7.19c.07,4.72,.22,14.9,.22,14.9l12.95,.07s2.25-9.06,2.32-13.03-3.22-13.48-6.59-16.1c-3.37-2.62-10.7-5.99-17.63-6.14s-13.89,3.74-17.11,6.96c-3.22,3.22-7.19,9.43-7.11,16.92,.07,7.49,3.22,15.8,16.7,31.97,13.48,16.17,15.65,19.69,15.57,26.65-.08,6.96-.97,10.78-8.05,10.63s-10.22-6.14-10.22-11.9-.15-10.03-.15-10.03l-12.65,.07v.02Z"/>
      <path class="cls-3" d="M323.6,.01s-4.33,1.28-6.46,3.33c-2.13,2.05-3.05,8.59-3.05,8.59,0,0,.28,5.53,2.41,8.01s5.89,3.48,5.89,3.48c0,0,.74,3.12,2.78,3.9s3.82,1.99,5.45,1.99,2.91-1.21,3.48-2.34-4.19-1.21-6.1-1.42-3.48-2.34-.14-3.26,6.27-6.67,6.29-10.08-1.75-7.45-2.67-8.59-2.91-3.41-7.88-3.62h0Z"/>
      <path class="cls-3" d="M338.15,.01V18.81s1.56,2.48,2.84,3.19,2.98,2.13,5.96,2.27,5.32-2.77,5.32-2.77c0,0,1.99-2.2,1.99-3.33V.01h-3.19V16.9s-.57,4.12-4.47,4.12-5.32-2.2-5.46-4.9S341.14,0,341.14,0h-2.99Z"/>
      <rect class="cls-3" x="360.21" y=".01" width="2.91" height="23.13"/>
      <polygon class="cls-3" points="368.14 .01 383.93 .01 372.15 19.95 382.87 19.95 382.87 23.14 366.2 23.14 377.68 4.28 368.03 4.16 368.14 .01"/>
      <polygon class="cls-3" points="392.21 .01 392.21 4.15 398.15 4.15 398.19 23.14 402.21 23.14 402.21 4.15 408.15 4.18 408.15 .01 392.21 .01"/>
      <rect class="cls-3" x="412.19" y=".01" width="3.04" height="23.13"/>
      <polygon class="cls-3" points="421.16 .01 421.16 23.14 424.27 23.14 424.27 7.47 430.67 21.36 436.95 7.07 436.95 23.14 440.25 23.14 440.25 .01 436.14 .01 430.71 16.17 424.06 .01 421.16 .01"/>
      <polygon class="cls-5" points="300.51 68.3 293.16 118.14 307.42 118.14 300.51 68.3"/>
      <path class="cls-5" d="M324.12,3.1s-6.01-.52-6.08,8.84c-.07,9.36,6.08,9.24,6.08,9.24,0,0,5.97-.06,5.97-9.24s-5.97-8.84-5.97-8.84Z"/>
      <g id="logo_luciole">
        <g class="cls-2">
          <g class="cls-6">
            <path class="cls-3" d="M382.37,172.57s-5.51-4.95-5.89-4.74c-.38,.21,2.41,5.05,2.41,5.05h-41.85s-2.55,.97-2.51,2.43l11.07,11.48s.48,.11,.97,.12c.49,.02,31.49-7.23,31.49-7.23,0,0,.26,.38,.24,.9-.02,.52-.57,1.14-.57,1.14l-23.89,9.15s-.32,.64-.32,1.33,.23,1.47,.67,1.8c.44,.33,10.63,4.76,10.63,4.76,0,0,.54,.15,1,.15s1.16-.49,1.47-.82c.31-.33,15.08-16.14,15.08-16.14v-9.38Z"/>
            <path class="cls-3" d="M386.29,172.87s1.5-2.8,5.72-4.76c0,0-.51,2.1-2.66,4.76l41.95,.1s2.51,.58,2.56,2.29c0,0-10.12,11.23-11.55,12.03,0,0-.44,0-.86,0-.42,0-30.62-7.7-30.62-7.7,0,0-.67,.17-.71,.97-.04,.8,.8,1.3,.8,1.3l22.67,8.92s.5,.34,.5,1.35-.21,1.68-.8,2.06c-.59,.38-9.46,4.5-9.46,4.5,0,0-.5,.29-.93,.29s-1.35-.8-1.35-.8l-15.28-15.82v-9.5Z"/>
            <path class="cls-4" d="M377.08,191.97s1.55,4.7,4.91,6.68l.38,39.74s-.12,.64-.4,.66c-.28,.02-3.99-8.29-3.99-8.29l.2-25.47s-5.15,6.87-5.59,7.47c-.44,.6-.74-.26-.74-.26l5.26-13.59s.15-.69-.03-.85c-.18-.17-1.23,.57-1.23,.57l-8.85,6.49s-.3,.24-.61,0,.24-.78,.24-.78l10.45-12.38Z"/>
            <path class="cls-3" d="M391.03,191.97s-.56,4.41-4.57,6.33l-.04,40.04s.08,.48,.35,.46c.27-.02,3.57-7.55,3.57-7.55l-.08-25.96s5.48,7.32,5.76,7.63c.29,.31,.29-.79,.29-.79,0,0-4.5-11.85-4.38-13.7l9.53,6.67s.42,.21,.58,.08c.15-.13,0-.77,0-.77l-11.01-12.44Z"/>
          </g>
        </g>
      </g>
    </g>
  </g>
</svg>