<?xml version="1.0" encoding="UTF-8"?>
<svg id="Calque_2" data-name="Calque 2" xmlns="http://www.w3.org/2000/svg" viewBox="0 0 326 435.97">
  <defs>
    <style>
      .cls-1 {
        fill: #ffa1af;
      }

      .cls-2 {
        fill: #fff;
      }

      .cls-3 {
        stroke-width: 10px;
      }

      .cls-3, .cls-4 {
        fill: none;
        stroke: #fff;
        stroke-miterlimit: 10;
      }

      .cls-4 {
        stroke-width: 7px;
      }
    </style>
  </defs>
  <g id="LOGO">
    <g>
      <g id="Visuel">
        <rect class="cls-3" x="5" y="5" width="316" height="425.97"/>
        <g>
          <path class="cls-4" d="m212.2,29.91l-111.26,111.26c-.68.68-1.22,1.47-1.61,2.34l-58.3,130.67c-2.91,6.53,3.74,13.21,10.28,10.33l135.2-59.53c.91-.4,1.74-.97,2.43-1.68l28.17-28.76,80.74-82.44"/>
          <polyline class="cls-4" points="277.02 91.26 219.14 149.14 217.11 194.54"/>
          <polyline class="cls-4" points="134.07 108.05 176.32 108.05 176.32 154.93 219.14 149.14"/>
          <line class="cls-4" x1="233.03" y1="51.91" x2="176.32" y2="108.05"/>
        </g>
        <path class="cls-2" d="m47.48,285.5c-3.07,1.39-6.81-2.11-5.64-5.27l12.87-34.55,11.71-31.44c2.32-6.23,11.24-6.35,17.79-.23l13.24,12.37,13.24,12.37c6.55,6.12,7.04,15.02.97,17.76l-30.58,13.81-33.6,15.17Z"/>
        <rect class="cls-2" x="5" y="320.34" width="316" height="110.63"/>
      </g>
      <g id="TITRE">
        <g>
          <path class="cls-1" d="m36.98,335.17h9v34.92s28.81,1.54,30.25-1.24l3.24,5.91s-6.12,6.25-21.24,3.47c0,0-6.48-2.15-21.24.71v-43.77Z"/>
          <path class="cls-1" d="m198.41,331.32l9.86,4.54s-12.81,7.23-14.78,13.8c0,0,17.74,11.77,14.78,16.26-2.96,4.5-14.78,15.23-14.78,15.23l-10.35-3.55,12.73-12.03s2.54-.35-12.73-11.42c0,0-10.84-3.46,15.28-22.84Z"/>
          <path class="cls-1" d="m98.58,335.18h19.76c3.9,0,7.04.53,9.44,1.59s4.38,2.57,5.95,4.55,2.7,4.28,3.41,6.9,1.06,5.4,1.06,8.34c0,4.6-.52,8.17-1.57,10.7s-2.5,4.66-4.36,6.37-3.86,2.85-5.99,3.42c-2.92.78-5.56,1.17-7.93,1.17h-19.76v-43.05Zm13.3,9.75v23.52h3.26c2.78,0,4.76-.31,5.93-.92s2.09-1.69,2.76-3.23,1-4.03,1-7.47c0-4.56-.74-7.68-2.23-9.37s-3.95-2.53-7.4-2.53h-3.32Z"/>
          <path class="cls-1" d="m179.58,358.73l-31.24.04c-.17,1.98-.1,1.32.04,3.52,2.16,4.32,7.95,6.99,10.9,6.85,1.8-.09,6.62-.63,7.66-2.34.72-1.01,1.57-2.97,1.57-4.14h10.31c.71,5.93-3.59,10.39-8.24,12.89-2.86,1.54-6.62,2.68-11.97,2.68-4.65,0-5.95-.67-9.84-2.89-1.81-1.03-6.04-5.1-7.79-7.95-1.75-2.85-2.03-9.28-2.03-13.13,0-5.48,1.76-9.92,5.27-13.31,3.51-3.39,8.36-5.09,14.55-5.09,5.02,0,8.99.76,11.89,2.28,2.91,1.52,5.12,3.72,6.64,6.61,1.52,2.89,2.28,6.64,2.28,11.27v2.72Zm-13.68-7.65c-.26-2.6-.96-4.46-2.1-5.58-1.14-1.12-2.63-1.69-4.48-1.69-2.14,0-3.84.85-5.12,2.54-.81,1.06-1.33,2.63-1.55,4.72h13.25Z"/>
          <path class="cls-1" d="m234.31,335.87h13.33v43.05h-13.33v-43.05Z"/>
          <path class="cls-1" d="m252.86,335.08h11.13v5.08c1.66-2.08,3.35-3.56,5.05-4.45s3.78-1.34,6.23-1.34c3.31,0,5.9.98,7.77,2.95s2.8,5.01,2.8,21.76v19.82h-12.01v-17.15c0-14.61-.36-15.99-1.09-16.8s-1.74-1.22-3.05-1.22c-1.45,0-2.62.55-3.52,1.64s-1.35,3.06-1.35,31.2v14.98h-11.95v-56.48Z"/>
          <path class="cls-1" d="m219.88,331.81l9.86,4.54s-12.81,7.23-14.78,13.8c0,0,17.74,11.77,14.78,16.26s-14.78,15.23-14.78,15.23l-10.35-3.55,12.73-12.03s2.54-.35-12.73-11.42c0,0-10.84-3.46,15.28-22.84Z"/>
          <path class="cls-1" d="m78.47,352.17l-20.01.03c-.11,1.27-.06.84.03,2.25,1.38,2.77,5.09,4.48,6.98,4.39,1.15-.06,4.24-.4,4.91-1.5.46-.65,1.01-1.9,1.01-2.65h6.61c.45,3.8-2.3,6.66-5.28,8.26-1.83.99-4.24,1.72-7.67,1.72-2.98,0-3.81-.43-6.3-1.85-1.16-.66-3.87-3.27-4.99-5.09-1.12-1.83-1.3-5.94-1.3-8.41,0-3.51,1.13-6.35,3.37-8.53,2.25-2.17,5.36-3.26,9.32-3.26,3.22,0,5.76.49,7.62,1.46,1.86.98,3.28,2.39,4.25,4.23.97,1.85,1.46,4.25,1.46,7.22v1.74Zm-8.76-4.9c-.17-1.66-.62-2.86-1.34-3.58-.73-.72-1.68-1.08-2.87-1.08-1.37,0-2.46.54-3.28,1.63-.52.68-.85,1.69-1,3.03h8.49Z"/>
        </g>
      </g>
      <g>
        <path class="cls-1" d="m26.17,415.86v-13.37h1.44v11.97h6.84v1.4h-8.28Z"/>
        <path class="cls-1" d="m36.65,415.86v-13.37h8.44v1.36h-7v4.61h6.15v1.4h-6.15v4.63h7v1.36h-8.44Z"/>
        <path class="cls-1" d="m52.09,416.06c-.67,0-1.24-.05-1.7-.14-.47-.09-.89-.23-1.26-.4-.38-.17-.78-.37-1.22-.6v-1.56c.43.36,1,.68,1.72.96.72.28,1.56.42,2.53.42,1.02,0,1.75-.22,2.21-.65.46-.43.69-.99.69-1.65,0-.56-.15-1.01-.46-1.35s-.7-.62-1.18-.84c-.48-.22-.99-.43-1.52-.63-.45-.16-.91-.33-1.35-.51-.45-.18-.85-.41-1.21-.68-.36-.27-.65-.63-.86-1.06-.21-.43-.32-.98-.32-1.63,0-.36.07-.74.21-1.14.14-.4.37-.77.68-1.12.31-.35.74-.63,1.26-.84.53-.21,1.17-.32,1.93-.32.52,0,.97.04,1.33.11.37.07.72.18,1.05.32.33.14.71.31,1.12.51v1.48c-.35-.2-.68-.38-.99-.55-.31-.17-.66-.3-1.04-.4-.38-.1-.85-.15-1.39-.15-.65,0-1.18.09-1.57.28-.39.19-.68.43-.86.74-.18.31-.27.63-.27.98,0,.55.12.98.37,1.3.25.32.59.58,1.04.79.45.21.97.41,1.55.61.47.16.94.34,1.4.53s.89.43,1.27.72c.38.29.69.65.92,1.08.23.43.35.97.35,1.61,0,.6-.13,1.19-.4,1.77-.27.58-.72,1.06-1.36,1.44-.64.38-1.53.57-2.67.57Z"/>
        <path class="cls-1" d="m68.66,415.86v-12.01h-4.73v-1.36h10.88v1.36h-4.71v12.01h-1.44Z"/>
        <path class="cls-1" d="m76.92,415.86v-13.37h8.44v1.36h-7v4.61h6.15v1.4h-6.15v4.63h7v1.36h-8.44Z"/>
        <path class="cls-1" d="m94.16,416.02c-2.06,0-3.61-.57-4.64-1.72-1.04-1.15-1.55-2.86-1.55-5.13s.52-3.98,1.55-5.13c1.04-1.15,2.58-1.72,4.64-1.72.71,0,1.4.09,2.08.26.68.17,1.34.41,1.99.72v1.38c-.62-.33-1.25-.58-1.9-.75-.66-.17-1.32-.25-2-.25-1.12,0-2.04.19-2.76.58-.72.39-1.24.99-1.58,1.79s-.51,1.85-.51,3.12.17,2.31.51,3.12.87,1.41,1.58,1.79c.71.39,1.63.58,2.76.58.68,0,1.35-.08,2-.24.65-.16,1.29-.41,1.9-.74v1.38c-.43.2-.87.37-1.31.52-.45.15-.9.26-1.36.33s-.92.11-1.39.11Z"/>
        <path class="cls-1" d="m101.04,415.86v-13.37h1.44v6.01h7.12v-6.01h1.44v13.37h-1.44v-5.99h-7.12v5.99h-1.44Z"/>
        <path class="cls-1" d="m114.45,415.86v-13.37h1.64l8.34,11.77-.36.56v-12.33h1.44v13.37h-1.62l-8.66-12.21.66-.62v12.83h-1.44Z"/>
        <path class="cls-1" d="m128.92,415.86v-13.37h1.44v13.37h-1.44Z"/>
        <path class="cls-1" d="m139.26,416.06c-1.98,0-3.47-.58-4.48-1.73s-1.51-2.87-1.51-5.14.5-3.99,1.51-5.14c1.01-1.16,2.5-1.73,4.48-1.73s3.49.58,4.5,1.73c1.01,1.16,1.51,2.87,1.51,5.14s-.5,3.99-1.51,5.14-2.51,1.73-4.5,1.73Zm0-1.36c1.07-.04,1.94-.25,2.61-.64.67-.39,1.16-.98,1.46-1.77s.46-1.83.46-3.1-.16-2.31-.47-3.12c-.31-.81-.81-1.41-1.47-1.8-.67-.39-1.53-.59-2.59-.59s-1.9.2-2.57.59c-.67.39-1.16,1-1.47,1.8-.31.81-.47,1.85-.47,3.12s.16,2.31.47,3.13c.31.82.8,1.42,1.47,1.8.67.39,1.52.58,2.57.58Zm4.81,1.72c.17,0,.34-.02.51-.07s.39-.16.67-.33v1.28c-.29.16-.56.26-.8.3-.24.04-.42.06-.54.06-.31,0-.59-.05-.86-.15-.27-.1-.52-.24-.75-.43-.23-.19-.45-.41-.65-.67-.2-.26-.38-.55-.54-.87-.2-.4-.41-.79-.63-1.16s-.48-.68-.79-.92c-.31-.24-.71-.36-1.2-.36s-.94.11-1.29.34c-.35.23-.67.5-.95.8v-1.44c.23-.17.53-.37.92-.59s.88-.33,1.48-.33,1.18.15,1.64.45.87.67,1.21,1.12c.34.45.63.91.87,1.37.31.59.59,1,.86,1.24.27.24.55.36.84.36Z"/>
        <path class="cls-1" d="m153.41,416.06c-1.66,0-2.94-.49-3.86-1.46-.92-.98-1.37-2.37-1.37-4.19v-7.92h1.44v8c0,1.43.32,2.49.96,3.18.64.69,1.58,1.03,2.83,1.03s2.19-.34,2.85-1.03c.65-.69.98-1.75.98-3.18v-8h1.4v7.92c0,1.22-.21,2.25-.62,3.09s-1.01,1.48-1.78,1.91c-.77.43-1.72.65-2.83.65Z"/>
        <path class="cls-1" d="m162.05,415.86v-13.37h8.44v1.36h-7v4.61h6.15v1.4h-6.15v4.63h7v1.36h-8.44Z"/>
        <path class="cls-1" d="m177.49,416.06c-.67,0-1.24-.05-1.7-.14-.47-.09-.89-.23-1.26-.4s-.78-.37-1.22-.6v-1.56c.43.36,1,.68,1.72.96.72.28,1.56.42,2.53.42,1.02,0,1.75-.22,2.21-.65.46-.43.69-.99.69-1.65,0-.56-.15-1.01-.46-1.35s-.7-.62-1.18-.84-.99-.43-1.52-.63c-.45-.16-.91-.33-1.35-.51-.45-.18-.85-.41-1.21-.68-.36-.27-.65-.63-.86-1.06-.21-.43-.32-.98-.32-1.63,0-.36.07-.74.21-1.14.14-.4.37-.77.68-1.12.31-.35.73-.63,1.26-.84s1.17-.32,1.93-.32c.52,0,.96.04,1.33.11.37.07.72.18,1.05.32.33.14.71.31,1.12.51v1.48c-.35-.2-.68-.38-.99-.55-.31-.17-.66-.3-1.04-.4-.38-.1-.85-.15-1.39-.15-.66,0-1.18.09-1.57.28-.39.19-.68.43-.86.74s-.27.63-.27.98c0,.55.12.98.37,1.3.25.32.59.58,1.04.79.45.21.97.41,1.55.61.47.16.94.34,1.4.53s.89.43,1.27.72.69.65.92,1.08c.23.43.35.97.35,1.61,0,.6-.13,1.19-.4,1.77-.27.58-.72,1.06-1.36,1.44s-1.53.57-2.67.57Z"/>
        <path class="cls-1" d="m190.64,415.86v-13.37h4.19c2.08,0,3.65.56,4.7,1.67,1.05,1.12,1.57,2.78,1.57,5s-.53,3.89-1.57,5.01c-1.05,1.12-2.62,1.68-4.7,1.68h-4.19Zm1.44-1.36h2.65c1.71,0,2.95-.43,3.73-1.28.78-.85,1.16-2.2,1.16-4.05s-.39-3.19-1.16-4.05-2.02-1.28-3.73-1.28h-2.65v10.66Z"/>
        <path class="cls-1" d="m204.01,415.86v-13.37h8.44v1.36h-7v4.61h6.15v1.4h-6.15v4.63h7v1.36h-8.44Z"/>
        <path class="cls-1" d="m221.47,415.86v-13.37h4.19c2.08,0,3.65.56,4.7,1.67,1.05,1.12,1.57,2.78,1.57,5s-.53,3.89-1.57,5.01c-1.05,1.12-2.62,1.68-4.7,1.68h-4.19Zm1.44-1.36h2.65c1.71,0,2.95-.43,3.73-1.28.78-.85,1.16-2.2,1.16-4.05s-.39-3.19-1.16-4.05-2.02-1.28-3.73-1.28h-2.65v10.66Z"/>
        <path class="cls-1" d="m234.84,415.86v-13.37h8.44v1.36h-7v4.61h6.15v1.4h-6.15v4.63h7v1.36h-8.44Z"/>
        <path class="cls-1" d="m250.27,416.06c-.67,0-1.24-.05-1.7-.14-.47-.09-.89-.23-1.26-.4s-.78-.37-1.22-.6v-1.56c.43.36,1,.68,1.72.96.72.28,1.56.42,2.53.42,1.02,0,1.75-.22,2.21-.65.46-.43.69-.99.69-1.65,0-.56-.15-1.01-.46-1.35s-.7-.62-1.18-.84-.99-.43-1.52-.63c-.45-.16-.91-.33-1.35-.51-.45-.18-.85-.41-1.21-.68-.36-.27-.65-.63-.86-1.06-.21-.43-.32-.98-.32-1.63,0-.36.07-.74.21-1.14.14-.4.37-.77.68-1.12.31-.35.73-.63,1.26-.84s1.17-.32,1.93-.32c.52,0,.96.04,1.33.11.37.07.72.18,1.05.32.33.14.71.31,1.12.51v1.48c-.35-.2-.68-.38-.99-.55-.31-.17-.66-.3-1.04-.4-.38-.1-.85-.15-1.39-.15-.66,0-1.18.09-1.57.28-.39.19-.68.43-.86.74s-.27.63-.27.98c0,.55.12.98.37,1.3.25.32.59.58,1.04.79.45.21.97.41,1.55.61.47.16.94.34,1.4.53s.89.43,1.27.72.69.65.92,1.08c.23.43.35.97.35,1.61,0,.6-.13,1.19-.4,1.77-.27.58-.72,1.06-1.36,1.44s-1.53.57-2.67.57Z"/>
        <path class="cls-1" d="m261.4,416.06c-.67,0-1.24-.05-1.7-.14-.47-.09-.89-.23-1.26-.4s-.78-.37-1.22-.6v-1.56c.43.36,1,.68,1.72.96.72.28,1.56.42,2.53.42,1.02,0,1.75-.22,2.21-.65.46-.43.69-.99.69-1.65,0-.56-.15-1.01-.46-1.35s-.7-.62-1.18-.84-.99-.43-1.52-.63c-.45-.16-.91-.33-1.35-.51-.45-.18-.85-.41-1.21-.68-.36-.27-.65-.63-.86-1.06-.21-.43-.32-.98-.32-1.63,0-.36.07-.74.21-1.14.14-.4.37-.77.68-1.12.31-.35.73-.63,1.26-.84s1.17-.32,1.93-.32c.52,0,.96.04,1.33.11.37.07.72.18,1.05.32.33.14.71.31,1.12.51v1.48c-.35-.2-.68-.38-.99-.55-.31-.17-.66-.3-1.04-.4-.38-.1-.85-.15-1.39-.15-.66,0-1.18.09-1.57.28-.39.19-.68.43-.86.74s-.27.63-.27.98c0,.55.12.98.37,1.3.25.32.59.58,1.04.79.45.21.97.41,1.55.61.47.16.94.34,1.4.53s.89.43,1.27.72.69.65.92,1.08c.23.43.35.97.35,1.61,0,.6-.13,1.19-.4,1.77-.27.58-.72,1.06-1.36,1.44s-1.53.57-2.67.57Z"/>
        <path class="cls-1" d="m268.74,415.86v-13.37h1.44v13.37h-1.44Z"/>
        <path class="cls-1" d="m273.59,415.86v-13.37h1.64l8.34,11.77-.36.56v-12.33h1.44v13.37h-1.62l-8.66-12.21.66-.62v12.83h-1.44Z"/>
        <path class="cls-1" d="m291.85,416.06c-.67,0-1.24-.05-1.7-.14-.47-.09-.89-.23-1.26-.4s-.78-.37-1.22-.6v-1.56c.43.36,1,.68,1.72.96.72.28,1.56.42,2.53.42,1.02,0,1.75-.22,2.21-.65.46-.43.69-.99.69-1.65,0-.56-.15-1.01-.46-1.35s-.7-.62-1.18-.84-.99-.43-1.52-.63c-.45-.16-.91-.33-1.35-.51-.45-.18-.85-.41-1.21-.68-.36-.27-.65-.63-.86-1.06-.21-.43-.32-.98-.32-1.63,0-.36.07-.74.21-1.14.14-.4.37-.77.68-1.12.31-.35.73-.63,1.26-.84s1.17-.32,1.93-.32c.52,0,.96.04,1.33.11.37.07.72.18,1.05.32.33.14.71.31,1.12.51v1.48c-.35-.2-.68-.38-.99-.55-.31-.17-.66-.3-1.04-.4-.38-.1-.85-.15-1.39-.15-.66,0-1.18.09-1.57.28-.39.19-.68.43-.86.74s-.27.63-.27.98c0,.55.12.98.37,1.3.25.32.59.58,1.04.79.45.21.97.41,1.55.61.47.16.94.34,1.4.53s.89.43,1.27.72.69.65.92,1.08c.23.43.35.97.35,1.61,0,.6-.13,1.19-.4,1.77-.27.58-.72,1.06-1.36,1.44s-1.53.57-2.67.57Z"/>
      </g>
    </g>
  </g>
</svg>