<?xml version="1.0" standalone="no"?>
<!DOCTYPE svg PUBLIC "-//W3C//DTD SVG 20010904//EN"
 "http://www.w3.org/TR/2001/REC-SVG-20010904/DTD/svg10.dtd">
<svg version="1.0" xmlns="http://www.w3.org/2000/svg"
 width="423.000000pt" height="423.000000pt" viewBox="0 0 423.000000 423.000000"
 preserveAspectRatio="xMidYMid meet">
<metadata>
Created by potrace 1.14, written by Peter Selinger 2001-2017
</metadata>
<g transform="translate(0.000000,423.000000) scale(0.100000,-0.100000)"
fill="#000000" stroke="none">
<path d="M880 2680 c-61 -21 -86 -42 -101 -87 -28 -87 28 -157 139 -170 54 -6
85 -20 77 -34 -8 -12 -62 -12 -70 1 -3 6 -42 10 -87 10 l-80 0 7 -27 c11 -45
34 -74 76 -92 47 -22 153 -26 208 -10 46 14 98 61 107 96 8 31 -2 91 -18 111
-19 23 -86 49 -143 57 -27 3 -54 10 -59 15 -18 18 5 24 52 12 69 -16 150 -13
155 7 7 30 -27 72 -78 96 -65 31 -123 36 -185 15z"/>
<path d="M1570 2690 c-4 -3 -7 -102 -6 -220 l1 -215 1323 0 c785 0 1326 4
1329 9 8 13 8 414 0 422 -7 8 -2635 11 -2647 4z"/>
<path d="M21 2681 c-12 -8 -14 -46 -14 -205 1 -107 4 -199 6 -203 7 -10 307
-11 323 -1 8 5 11 70 5 111 0 4 -41 7 -89 7 l-89 0 0 138 c0 77 -3 144 -6 149
-8 13 -117 16 -136 4z"/>
<path d="M386 2671 c-8 -30 -4 -386 4 -396 7 -8 290 -13 333 -6 4 0 7 26 7 56
0 30 -3 56 -7 56 -5 1 -48 2 -98 3 -76 1 -90 4 -93 19 -3 15 7 17 87 17 87 0
91 1 92 23 3 41 0 79 -5 84 -3 3 -44 5 -91 5 -74 1 -85 3 -83 17 3 13 18 16
85 17 46 1 89 4 96 7 15 6 17 82 3 105 -5 8 -51 11 -166 10 -137 -1 -160 -4
-164 -17z"/>
<path d="M1213 1969 c-57 -10 -97 -33 -124 -71 -20 -27 -24 -47 -26 -128 -4
-121 17 -171 86 -207 62 -32 168 -32 231 0 74 37 92 76 92 197 0 11 0 25 -1
30 -1 7 -37 10 -98 8 l-98 -3 -3 -43 c-3 -37 0 -44 18 -49 31 -8 21 -37 -15
-41 -41 -5 -55 19 -55 98 0 88 27 112 84 75 17 -12 43 -15 92 -13 63 3 69 5
72 25 5 31 -30 77 -74 98 -47 22 -128 33 -181 24z"/>
<path d="M2568 1969 c-90 -14 -143 -67 -140 -142 3 -76 40 -103 185 -134 21
-4 39 -12 40 -18 3 -14 -62 -19 -78 -5 -15 13 -143 16 -156 3 -16 -16 30 -90
68 -108 52 -25 131 -33 191 -20 90 21 133 64 135 134 2 76 -36 110 -148 132
-33 6 -67 15 -75 19 -27 15 19 24 54 12 43 -16 146 -13 153 3 8 22 -24 72 -61
94 -43 27 -109 39 -168 30z"/>
<path d="M3227 1972 c-15 -3 -17 -25 -17 -220 l0 -217 505 0 505 0 1 25 c3 98
0 402 -5 407 -6 6 -959 11 -989 5z"/>
<path d="M21 1960 c-12 -7 -14 -46 -14 -204 1 -107 4 -199 6 -203 7 -11 317
-10 334 0 14 9 10 97 -5 106 -6 4 -50 7 -97 6 -47 0 -85 3 -85 7 0 5 0 11 0
16 0 4 39 9 87 12 l88 5 3 47 c2 28 -2 49 -9 54 -7 4 -49 7 -94 6 -76 0 -82 1
-78 19 4 16 14 19 62 18 31 -1 73 -1 94 0 l38 1 -3 58 -3 57 -155 2 c-86 1
-162 -2 -169 -7z"/>
<path d="M415 1960 c-8 -12 -10 -394 -2 -406 4 -8 92 -11 129 -5 4 0 8 35 10
77 l3 76 44 -67 c25 -37 50 -73 57 -80 10 -10 57 -13 121 -6 9 1 12 53 12 205
0 230 7 213 -81 215 -58 1 -65 -9 -63 -103 1 -77 5 -79 -68 34 l-42 65 -57 3
c-31 1 -59 -2 -63 -8z"/>
<path d="M856 1953 c-12 -30 -5 -401 7 -406 10 -3 115 -2 140 2 4 0 7 93 7
205 0 233 7 217 -92 215 -40 -1 -59 -6 -62 -16z"/>
<path d="M1529 1962 c-6 -31 -4 -399 2 -407 6 -8 93 -12 132 -6 5 0 8 25 7 54
-1 28 -1 66 -1 82 l1 30 19 -29 c25 -37 42 -47 72 -41 23 5 29 10 56 52 10 15
12 3 12 -64 1 -59 5 -83 14 -84 45 -5 104 -4 117 2 13 6 16 37 15 201 0 106
-4 199 -8 206 -5 7 -29 12 -58 12 -57 0 -70 -10 -120 -94 -19 -31 -37 -55 -41
-54 -4 2 -27 35 -51 73 l-43 70 -62 2 c-34 1 -63 -2 -63 -5z"/>
<path d="M2042 1950 c-8 -22 -8 -383 1 -396 6 -11 316 -12 333 -2 12 8 13 86
2 104 -4 5 -46 9 -97 9 -62 -1 -92 3 -95 11 -8 21 5 24 90 24 90 0 94 3 94 66
0 43 -16 50 -109 48 -52 -2 -71 1 -75 12 -7 18 21 24 99 23 103 -2 96 -6 93
59 l-3 57 -163 2 c-152 2 -163 1 -170 -17z"/>
</g>
</svg>
