<?xml version="1.0" encoding="UTF-8"?>
<svg id="Calque_2" data-name="Calque 2" xmlns="http://www.w3.org/2000/svg" viewBox="0 0 234.51 164.99">
  <defs>
    <style>
      .cls-1 {
        fill: #ff0;
      }

      .cls-2 {
        fill: #b000ff;
      }
    </style>
  </defs>
  <g id="Logo-signature">
    <g>
      <polygon class="cls-1" points="120.01 119.29 120.01 112.37 117.75 112.37 120.01 119.29"/>
      <path class="cls-1" d="m142.01,115.74l1.29,2.25v-4.17c-.22.79-.65,1.45-1.29,1.91Z"/>
      <path class="cls-1" d="m138.92,112.3h-.29v.98h.29c.31,0,.52-.03.66-.09l.24-.2c.04-.09.04-.19.04-.28,0-.25,0-.42-.94-.42Z"/>
      <path class="cls-1" d="m193.59,97.12l.06.02s-.05-.02-.07-.02c0,0,0,0,0,0Z"/>
      <path class="cls-1" d="m193.9,86.12s-.02-.04-.03-.06c-.14.18-.27.4-.39.65-.16.32-.29.64-.41.95-.12.31-.22.61-.3.9-.06.23-.11.43-.15.6-.07,2.23-.1,4.46-.11,6.66.18.33.32.53.41.64.22.27.37.42.46.5.05-.06.14-.18.26-.42.15-.29.37-.86.58-1.89.18-.88.26-2.06.26-3.49,0-1.31-.06-2.4-.18-3.24-.14-.97-.3-1.51-.42-1.79Z"/>
      <path class="cls-1" d="m193.15,77.87c.5-.2.99-.32,1.48-.39-.25-2.01-.55-4.01-.95-5.98l-.13,1.45c-.15,1.63-.28,3.25-.39,4.86,0,.02,0,.04,0,.06Z"/>
      <path class="cls-1" d="m176.75,85.4c-.26.78-.47,1.78-.62,2.95-.16,1.22-.24,2.61-.24,4.15,0,.97.05,1.85.14,2.6.08.63.18,1.16.32,1.59,0-.01,0-.02.01-.03.19-.46.36-1.02.51-1.66.15-.68.28-1.4.37-2.16.1-.78.17-1.59.22-2.4.05-.82.07-1.6.07-2.32,0-.88-.04-1.67-.12-2.35-.06-.54-.15-.99-.27-1.35-.11.23-.25.54-.38.96Z"/>
      <path class="cls-1" d="m127.56,84.98s0,0,0,0c-.14.54-.25,1.16-.32,1.85.04-.09.07-.18.11-.28.15-.42.22-.85.22-1.3,0-.1,0-.19,0-.28Z"/>
      <path class="cls-1" d="m160.44,79.06c-.02-.34-.05-.65-.07-.98-.48.11-.98.19-1.48.22-.03,1.03-.06,2.03-.08,2.99-.03,1.15-.04,2.2-.06,3.15,0,.14,0,.28,0,.41h.28c.59,0,1.13,0,1.62-.03v-.7c-.02-.71-.05-1.5-.08-2.38-.03-.88-.07-1.77-.12-2.68Z"/>
      <path class="cls-1" d="m135.76,94.52c.11.24.19.5.27.77.03-.72.06-1.46.09-2.17.08-2.21.14-4.47.18-6.74-.16,0-.32.02-.48.03-.11.77-.3,1.55-.61,2.31-.46,1.13-1.14,2.21-2.02,3.21,0,0-.01.02-.02.02.47.18.92.45,1.33.81.51.44.93,1.03,1.26,1.75Z"/>
    </g>
    <circle class="cls-1" cx="86.45" cy="17.01" r="17.01"/>
    <g>
      <path class="cls-2" d="m15.43,82.56c-.01,1.65-.33,3.11-.94,4.37-.61,1.27-1.41,2.33-2.39,3.18s-2.07,1.51-3.27,1.95c-1.2.44-2.4.66-3.59.66h-.38c0,.53,0,1.16,0,1.88,0,.72.02,1.51.05,2.36s.06,1.74.1,2.66c.04.93.1,1.85.18,2.77-.75-.08-1.43-.13-2.05-.15-.62-.03-1.16-.04-1.63-.04-.25,0-.47,0-.66,0s-.35,0-.47,0c-.15.01-.28.02-.38.02.06-.98.12-1.97.17-2.96.05-.99.09-1.96.13-2.91.04-.95.07-1.87.09-2.75.02-.88.04-1.71.07-2.49.04-1.81.06-3.55.08-5.21,0-1.6-.01-3.13-.04-4.59-.01-.62-.03-1.25-.04-1.91-.01-.65-.03-1.29-.05-1.91s-.04-1.19-.06-1.73c-.02-.54-.05-1-.09-1.39.97-.18,1.93-.29,2.86-.33.93-.04,1.7-.07,2.31-.07.47,0,1.04.02,1.73.06.68.04,1.39.14,2.13.31.74.17,1.48.43,2.21.79.73.36,1.39.85,1.97,1.48.58.63,1.05,1.43,1.41,2.39.36.96.54,2.14.54,3.52Zm-4.9.15c0-.96-.11-1.78-.32-2.47s-.54-1.25-.98-1.69c-.44-.44-.99-.77-1.67-1-.68-.23-1.48-.36-2.4-.42-.05,1.11-.09,2.27-.12,3.5-.03,1.22-.06,2.41-.09,3.56-.03,1.15-.04,2.22-.06,3.21-.01.99-.03,1.8-.04,2.43.95-.05,1.78-.26,2.49-.62.71-.36,1.3-.86,1.77-1.47.47-.62.83-1.35,1.06-2.2.23-.85.35-1.79.35-2.82Z"/>
      <path class="cls-2" d="m30.6,97.15c0,.74-.17,1.44-.51,2.1-.34.65-.8,1.22-1.38,1.7s-1.26.86-2.05,1.13c-.79.28-1.62.42-2.5.42-.59,0-1.2-.08-1.8-.25-.61-.16-1.19-.43-1.75-.81s-1.08-.88-1.57-1.49c-.49-.62-.92-1.37-1.28-2.27-.36-.89-.64-1.94-.85-3.15-.21-1.2-.31-2.58-.31-4.15,0-1.47.1-2.78.31-3.91.21-1.13.49-2.12.85-2.97.36-.84.78-1.55,1.26-2.13.48-.57,1-1.04,1.55-1.4.55-.36,1.12-.61,1.71-.77.59-.15,1.17-.23,1.74-.23.85,0,1.65.14,2.41.41.76.27,1.42.67,1.99,1.2.57.53,1.02,1.18,1.36,1.96.33.77.5,1.67.5,2.67,0,.91-.19,1.82-.56,2.75s-.93,1.8-1.66,2.63c-.73.82-1.64,1.57-2.72,2.25-1.08.67-2.32,1.21-3.73,1.6.08.78.19,1.49.33,2.14.15.64.33,1.19.55,1.64.22.45.48.81.78,1.06.3.25.64.38,1.03.38.25-.01.49-.06.72-.13.2-.06.41-.16.62-.3s.38-.34.52-.6c-.33-.15-.58-.35-.76-.59-.18-.24-.31-.47-.4-.68-.1-.25-.16-.52-.17-.79,0-.6.12-1.1.36-1.47s.53-.67.85-.89c.33-.21.66-.36,1-.44.34-.08.61-.12.82-.12.21,0,.48.04.79.13.31.09.61.26.9.51s.54.61.75,1.07c.21.46.31,1.06.31,1.8Zm-4.69-11.88c0-.45-.04-.88-.12-1.29-.08-.41-.2-.77-.36-1.07-.16-.3-.35-.54-.59-.73-.23-.18-.5-.27-.81-.27-.52,0-.94.24-1.27.71-.33.47-.59,1.1-.8,1.88-.2.78-.34,1.68-.42,2.7-.08,1.02-.11,2.08-.11,3.19v1.38c.64-.34,1.24-.74,1.79-1.21.55-.47,1.02-.98,1.42-1.54.4-.56.71-1.16.93-1.79.22-.63.33-1.28.33-1.96Z"/>
      <path class="cls-2" d="m37.95,74.7c0,.4-.08.78-.23,1.14-.15.36-.36.67-.63.94s-.58.48-.94.63c-.36.16-.74.24-1.15.24s-.79-.08-1.15-.24c-.36-.16-.67-.37-.94-.63s-.48-.58-.63-.94c-.16-.36-.24-.74-.24-1.14s.08-.78.24-1.14c.16-.36.37-.67.63-.94s.58-.48.94-.63.74-.24,1.15-.24.79.08,1.15.24.67.37.94.63.47.58.63.94c.15.36.23.74.23,1.14Zm0,5.73c-.1,1-.19,2.07-.26,3.22-.07,1.15-.13,2.33-.17,3.54-.04,1.21-.08,2.42-.1,3.65-.03,1.22-.04,2.39-.06,3.5-.01,1.11-.02,2.14-.03,3.11,0,.96,0,1.79,0,2.48v2.13l-4.31.15c.02-.87.04-1.71.04-2.53v-2.46c0-1.42-.01-2.81-.04-4.17-.03-1.35-.07-2.71-.12-4.07-.06-1.36-.13-2.74-.22-4.14-.09-1.4-.2-2.85-.32-4.35l5.6-.08Z"/>
      <path class="cls-2" d="m45.38,80.28l-.11,1.55c.42-.69.86-1.22,1.34-1.59.47-.37.91-.62,1.32-.77.41-.15.74-.23,1.02-.25.27-.01.42-.02.45-.02.94,0,1.75.21,2.45.64.7.43,1.27,1.05,1.73,1.86.46.81.79,1.8,1.01,2.97.22,1.17.33,2.48.33,3.96,0,1.08-.02,2.19-.05,3.32-.03,1.13-.1,2.25-.19,3.36s-.22,2.2-.38,3.26c-.16,1.06-.37,2.07-.64,3.02l-4.42-.53c.29-1.5.52-2.9.68-4.19.17-1.3.29-2.43.36-3.4.09-1.13.14-2.17.15-3.12,0-1.2-.04-2.24-.11-3.13-.08-.89-.21-1.62-.41-2.21-.2-.59-.46-1.02-.81-1.31-.34-.29-.78-.43-1.31-.43-.35.08-.71.33-1.06.76-.3.37-.63.95-.97,1.75-.34.8-.64,1.92-.89,3.37-.04.98-.06,1.96-.07,2.92,0,.96,0,1.99,0,3.07v2.97c0,1.06.01,2.25.04,3.59l-4.31-.09c.04-1.28.07-2.65.09-4.09.02-1.44.03-3.04.03-4.81s-.01-3.65-.04-5.69-.08-4.31-.15-6.8l4.93.08Z"/>
      <path class="cls-2" d="m64.07,72.49c-.1,1.3-.18,2.57-.25,3.83s-.13,2.51-.19,3.77c.56-.03,1.11-.05,1.65-.07.54-.02,1.1-.05,1.67-.08l.08,4.84c-.61-.1-1.21-.18-1.8-.25-.59-.06-1.18-.11-1.75-.15-.04,1.07-.06,2.13-.07,3.17,0,1.05,0,2.1,0,3.17,0,1.92.02,3.82.07,5.71.04,1.89.12,3.79.22,5.71l-4.95-.08c.16-2.96.3-5.92.41-8.87.11-2.95.18-5.93.22-8.93-.53.03-1.06.05-1.59.08-.53.03-1.08.07-1.63.1l.15-4.48c.52.04,1.03.07,1.55.09.51.02,1.02.04,1.53.07,0-1.26-.01-2.52-.04-3.77-.03-1.25-.05-2.52-.08-3.79l4.82-.08Z"/>
      <path class="cls-2" d="m77.9,101.4c.03-.5.05-.99.09-1.45.03-.46.07-.9.1-1.33-.43.76-.89,1.33-1.38,1.74-.49.4-.94.71-1.36.91-.49.23-.98.37-1.46.42-.94,0-1.75-.23-2.45-.7-.7-.47-1.27-1.13-1.73-1.98-.46-.86-.79-1.89-1.02-3.09-.22-1.2-.33-2.55-.33-4.03,0-2.08.07-4.09.2-6.05.13-1.95.35-3.87.66-5.74l4.82.53c-.3,1.5-.53,2.84-.69,4.02s-.28,2.18-.35,3.01c-.09.97-.14,1.81-.15,2.53,0,1.2.04,2.24.11,3.13s.21,1.62.41,2.21c.2.59.46,1.02.81,1.31.34.29.78.43,1.31.43.37-.06.73-.31,1.08-.76.15-.19.31-.43.47-.73.16-.3.33-.66.49-1.09s.32-.93.47-1.51c.15-.58.3-1.25.44-2.02.03-.74.04-1.48.04-2.22v-5.36c0-1.07-.01-2.27-.04-3.61l4.31.08c-.06.96-.11,1.84-.15,2.65-.04.81-.07,1.57-.09,2.29-.02.71-.04,1.38-.05,2.01-.01.63-.02,1.24-.02,1.83,0,.91,0,1.79.03,2.66.02.87.05,1.79.09,2.77.04.98.08,2.05.12,3.21.04,1.17.09,2.5.14,4l-4.93-.08Z"/>
      <path class="cls-2" d="m90.39,101.98l-5.07.38c.2-2.25.35-4.43.45-6.53s.14-4.2.14-6.3c0-1.49-.02-2.98-.07-4.47-.04-1.49-.12-3.03-.24-4.6l4.27-.23c-.03.28-.04.55-.06.81s-.02.52-.02.77c.44-.68.93-1.21,1.45-1.6.52-.38,1.01-.66,1.47-.84.52-.21,1.04-.35,1.58-.4.92,0,1.71.14,2.37.43.66.28,1.2.65,1.61,1.1.42.45.72.94.91,1.49.19.55.29,1.08.29,1.6s-.06,1.06-.17,1.61c-.11.54-.31,1.03-.58,1.46-.27.43-.63.79-1.08,1.06s-1,.41-1.66.41-1.18-.12-1.56-.36c-.38-.24-.67-.53-.86-.86-.2-.33-.32-.68-.38-1.04-.06-.36-.08-.66-.08-.92,0-.18.03-.37.09-.6.06-.22.16-.44.28-.67.13-.23.29-.45.47-.67s.41-.43.66-.61c-.08-.02-.16-.04-.24-.06-.08-.01-.16-.02-.24-.02-.63,0-1.2.2-1.69.6-.49.4-.92.95-1.28,1.65-.36.71-.66,1.54-.89,2.49-.23.96-.41,2-.52,3.14.06,1.95.15,3.89.26,5.8.11,1.91.23,3.9.36,5.97Z"/>
      <path class="cls-2" d="m114.41,97.15c0,.74-.17,1.44-.51,2.1-.34.65-.8,1.22-1.38,1.7s-1.26.86-2.05,1.13c-.79.28-1.62.42-2.5.42-.59,0-1.2-.08-1.8-.25-.61-.16-1.19-.43-1.75-.81s-1.08-.88-1.57-1.49c-.49-.62-.92-1.37-1.28-2.27-.36-.89-.64-1.94-.85-3.15-.21-1.2-.31-2.58-.31-4.15,0-1.47.1-2.78.31-3.91.21-1.13.49-2.12.85-2.97.36-.84.78-1.55,1.26-2.13.48-.57,1-1.04,1.55-1.4.55-.36,1.12-.61,1.71-.77.59-.15,1.17-.23,1.74-.23.85,0,1.65.14,2.41.41.76.27,1.42.67,1.99,1.2.57.53,1.02,1.18,1.36,1.96.33.77.5,1.67.5,2.67,0,.91-.19,1.82-.56,2.75s-.93,1.8-1.66,2.63c-.73.82-1.64,1.57-2.72,2.25-1.08.67-2.32,1.21-3.73,1.6.08.78.19,1.49.33,2.14.15.64.33,1.19.55,1.64.22.45.48.81.78,1.06.3.25.64.38,1.03.38.25-.01.49-.06.72-.13.2-.06.41-.16.62-.3s.38-.34.52-.6c-.33-.15-.58-.35-.76-.59-.18-.24-.31-.47-.4-.68-.1-.25-.16-.52-.17-.79,0-.6.12-1.1.36-1.47s.53-.67.85-.89c.33-.21.66-.36,1-.44.34-.08.61-.12.82-.12.21,0,.48.04.79.13.31.09.61.26.9.51s.54.61.75,1.07c.21.46.31,1.06.31,1.8Zm-4.69-11.88c0-.45-.04-.88-.12-1.29-.08-.41-.2-.77-.36-1.07-.16-.3-.35-.54-.59-.73-.23-.18-.5-.27-.81-.27-.52,0-.94.24-1.27.71-.33.47-.59,1.1-.8,1.88-.2.78-.34,1.68-.42,2.7-.08,1.02-.11,2.08-.11,3.19v1.38c.64-.34,1.24-.74,1.79-1.21.55-.47,1.02-.98,1.42-1.54.4-.56.71-1.16.93-1.79.22-.63.33-1.28.33-1.96Z"/>
      <path class="cls-2" d="m134.26,97.15c0,.74-.17,1.44-.51,2.1-.34.65-.8,1.22-1.38,1.7s-1.26.86-2.05,1.13c-.79.28-1.62.42-2.5.42-.59,0-1.2-.08-1.8-.25-.61-.16-1.19-.43-1.75-.81s-1.08-.88-1.57-1.49c-.49-.62-.92-1.37-1.28-2.27-.36-.89-.64-1.94-.85-3.15-.21-1.2-.31-2.58-.31-4.15,0-1.47.1-2.78.31-3.91.21-1.13.49-2.12.85-2.97.36-.84.78-1.55,1.26-2.13.48-.57,1-1.04,1.55-1.4.55-.36,1.12-.61,1.71-.77.59-.15,1.17-.23,1.74-.23.85,0,1.65.14,2.41.41.76.27,1.42.67,1.99,1.2.57.53,1.02,1.18,1.36,1.96.33.77.5,1.67.5,2.67,0,.91-.19,1.82-.56,2.75s-.93,1.8-1.66,2.63c-.73.82-1.64,1.57-2.72,2.25-1.08.67-2.32,1.21-3.73,1.6.08.78.19,1.49.33,2.14.15.64.33,1.19.55,1.64.22.45.48.81.78,1.06.3.25.64.38,1.03.38.25-.01.49-.06.72-.13.2-.06.41-.16.62-.3s.38-.34.52-.6c-.33-.15-.58-.35-.76-.59-.18-.24-.31-.47-.4-.68-.1-.25-.16-.52-.17-.79,0-.6.12-1.1.36-1.47s.53-.67.85-.89c.33-.21.66-.36,1-.44.34-.08.61-.12.82-.12.21,0,.48.04.79.13.31.09.61.26.9.51s.54.61.75,1.07c.21.46.31,1.06.31,1.8Zm-4.69-11.88c0-.45-.04-.88-.12-1.29-.08-.41-.2-.77-.36-1.07-.16-.3-.35-.54-.59-.73-.23-.18-.5-.27-.81-.27-.52,0-.94.24-1.27.71-.33.47-.59,1.1-.8,1.88-.2.78-.34,1.68-.42,2.7-.08,1.02-.11,2.08-.11,3.19v1.38c.64-.34,1.24-.74,1.79-1.21.55-.47,1.02-.98,1.42-1.54.4-.56.71-1.16.93-1.79.22-.63.33-1.28.33-1.96Z"/>
      <path class="cls-2" d="m143.04,72.49c-.1,1.3-.18,2.57-.25,3.83s-.13,2.51-.19,3.77c.56-.03,1.11-.05,1.65-.07.54-.02,1.1-.05,1.67-.08l.08,4.84c-.61-.1-1.21-.18-1.8-.25-.59-.06-1.18-.11-1.75-.15-.04,1.07-.06,2.13-.07,3.17,0,1.05,0,2.1,0,3.17,0,1.92.02,3.82.07,5.71.04,1.89.12,3.79.22,5.71l-4.95-.08c.16-2.96.3-5.92.41-8.87.11-2.95.18-5.93.22-8.93-.53.03-1.06.05-1.59.08-.53.03-1.08.07-1.63.1l.15-4.48c.52.04,1.03.07,1.55.09.51.02,1.02.04,1.53.07,0-1.26-.01-2.52-.04-3.77-.03-1.25-.05-2.52-.08-3.79l4.82-.08Z"/>
      <path class="cls-2" d="m157.07,101.87c-1.1,0-1.99,0-2.67.03-.68.02-1.21.04-1.6.07-.46.04-.79.07-1.01.09.1-.71.19-1.46.27-2.26.08-.8.15-1.62.21-2.45.06-.83.11-1.66.15-2.48s.07-1.6.09-2.34c.05-1.75.08-3.5.1-5.25-.01-1.75-.04-3.45-.1-5.08-.03-.69-.06-1.41-.09-2.16s-.08-1.48-.13-2.2c-.05-.72-.11-1.4-.18-2.06-.07-.65-.15-1.25-.24-1.78h1.23c.68,0,1.27,0,1.76-.03.49-.02.9-.04,1.23-.07.38-.02.7-.06.97-.09-.06,1.26-.12,2.53-.16,3.8-.04,1.27-.08,2.48-.1,3.64-.03,1.15-.04,2.21-.06,3.17-.01.96-.02,1.76-.02,2.4.41.03.8.04,1.18.04h1.12c.8,0,1.5-.02,2.12-.05.61-.03,1.12-.07,1.53-.1,0-.08,0-.35,0-.82,0-.47-.02-1.07-.03-1.79-.01-.72-.04-1.52-.07-2.42-.03-.89-.07-1.8-.12-2.72-.05-.92-.11-1.81-.19-2.67s-.17-1.62-.28-2.28h1.21c.65,0,1.21,0,1.68-.03.47-.02.87-.04,1.19-.07.37-.02.68-.06.93-.09-.04.82-.07,1.65-.1,2.48-.03.84-.06,1.66-.08,2.48-.02.81-.04,1.6-.05,2.36-.01.76-.03,1.48-.04,2.16-.03,1.59-.04,3.12-.04,4.59s.01,2.95.04,4.46c.01.64.03,1.32.04,2.03.01.71.03,1.44.05,2.17.02.74.04,1.47.08,2.2.03.73.07,1.44.1,2.12-1.06,0-1.92,0-2.58.03-.66.02-1.17.04-1.54.07-.43.04-.75.07-.97.09.11-.77.21-1.59.28-2.46.08-.87.14-1.75.2-2.65.06-.89.1-1.78.13-2.65.03-.87.06-1.68.09-2.44-.61-.06-1.19-.1-1.75-.12s-1.09-.03-1.59-.03c-.53,0-1.01,0-1.43.02-.42.01-.79.03-1.09.06,0,.68,0,1.47.02,2.36s.03,1.83.07,2.81c.03.98.07,1.97.1,2.99.04,1.01.09,1.99.15,2.92Z"/>
      <path class="cls-2" d="m176.57,102.29c-1.25,0-2.33-.27-3.24-.81s-1.65-1.3-2.24-2.27c-.59-.97-1.02-2.12-1.3-3.46-.28-1.33-.42-2.79-.42-4.36,0-1.83.16-3.5.49-5.03.33-1.52.81-2.83,1.45-3.93.64-1.1,1.43-1.95,2.37-2.56s2.03-.92,3.25-.92,2.31.26,3.21.77c.9.52,1.64,1.24,2.23,2.17.59.93,1.02,2.05,1.3,3.34.28,1.3.42,2.73.42,4.29,0,.81-.05,1.68-.14,2.63s-.25,1.89-.47,2.83-.52,1.85-.88,2.73c-.37.88-.83,1.65-1.38,2.33-.56.68-1.22,1.22-1.98,1.62s-1.65.6-2.67.6Zm2.96-14.15c0-.96-.04-1.82-.13-2.58-.09-.76-.23-1.41-.43-1.94-.2-.53-.44-.94-.74-1.22-.3-.28-.66-.43-1.07-.43-.46,0-.88.24-1.27.72-.39.48-.74,1.17-1.03,2.08-.3.91-.53,2.01-.7,3.32-.17,1.3-.26,2.77-.26,4.41,0,1.06.05,2.01.15,2.84.1.84.25,1.55.46,2.14.2.59.45,1.03.75,1.34.3.31.65.46,1.05.46s.76-.17,1.08-.5c.32-.33.59-.78.83-1.35s.44-1.23.61-1.97c.17-.75.31-1.54.41-2.36.1-.82.18-1.67.23-2.52.05-.86.08-1.67.08-2.44Z"/>
      <path class="cls-2" d="m191.56,72.77c-.15,1.65-.29,3.28-.4,4.9-.11,1.62-.21,3.25-.3,4.88.43-.77.89-1.36,1.38-1.79.49-.42.96-.73,1.39-.94.5-.23,1-.37,1.48-.42.91,0,1.72.19,2.43.57.71.38,1.31,1.02,1.79,1.94.49.91.86,2.13,1.11,3.65s.38,3.42.38,5.7c0,2.1-.2,3.87-.6,5.3-.4,1.43-.91,2.58-1.54,3.46s-1.32,1.5-2.09,1.89-1.52.58-2.27.58c-.08,0-.24-.02-.5-.05-.26-.03-.57-.13-.94-.28-.37-.16-.76-.39-1.18-.71-.42-.31-.82-.76-1.2-1.32v2.08l-4.27-.08c.11-1.84.19-3.67.24-5.5.04-1.83.07-3.65.07-5.48,0-3.07-.05-6.12-.15-9.15-.1-3.03-.22-6.08-.36-9.15l5.52-.08Zm1.37,26.23c.06.03.13.04.2.04h.22c.34,0,.7-.12,1.07-.35.37-.23.71-.65,1.01-1.24.3-.59.56-1.4.76-2.41.2-1.01.3-2.31.3-3.88,0-1.41-.07-2.59-.2-3.52-.13-.94-.31-1.69-.54-2.26-.23-.57-.49-.97-.8-1.2-.3-.23-.62-.35-.95-.35s-.65.09-.94.27c-.28.18-.54.42-.77.72-.23.3-.43.63-.62,1.01s-.34.75-.48,1.12c-.14.37-.26.73-.35,1.08-.09.35-.17.64-.22.88-.08,2.48-.11,4.94-.11,7.39.29.6.58,1.08.87,1.44.29.35.55.62.78.81.27.23.52.38.76.45Z"/>
      <path class="cls-2" d="m208.39,72.77c-.15,1.65-.29,3.28-.4,4.9-.11,1.62-.21,3.25-.3,4.88.43-.77.89-1.36,1.38-1.79.49-.42.96-.73,1.39-.94.5-.23,1-.37,1.48-.42.91,0,1.72.19,2.43.57.71.38,1.31,1.02,1.79,1.94.49.91.86,2.13,1.11,3.65s.38,3.42.38,5.7c0,2.1-.2,3.87-.6,5.3-.4,1.43-.91,2.58-1.54,3.46s-1.32,1.5-2.09,1.89-1.52.58-2.27.58c-.08,0-.24-.02-.5-.05-.26-.03-.57-.13-.94-.28-.37-.16-.76-.39-1.18-.71-.42-.31-.82-.76-1.2-1.32v2.08l-4.27-.08c.11-1.84.19-3.67.24-5.5.04-1.83.07-3.65.07-5.48,0-3.07-.05-6.12-.15-9.15-.1-3.03-.22-6.08-.36-9.15l5.52-.08Zm1.37,26.23c.06.03.13.04.2.04h.22c.34,0,.7-.12,1.07-.35.37-.23.71-.65,1.01-1.24.3-.59.56-1.4.76-2.41.2-1.01.3-2.31.3-3.88,0-1.41-.07-2.59-.2-3.52-.13-.94-.31-1.69-.54-2.26-.23-.57-.49-.97-.8-1.2-.3-.23-.62-.35-.95-.35s-.65.09-.94.27c-.28.18-.54.42-.77.72-.23.3-.43.63-.62,1.01s-.34.75-.48,1.12c-.14.37-.26.73-.35,1.08-.09.35-.17.64-.22.88-.08,2.48-.11,4.94-.11,7.39.29.6.58,1.08.87,1.44.29.35.55.62.78.81.27.23.52.38.76.45Z"/>
      <path class="cls-2" d="m234.51,80.82c-.08.74-.14,1.5-.19,2.26-.05.76-.1,1.52-.14,2.28-.04.76-.09,1.49-.12,2.2-.04.71-.07,1.39-.1,2.03-.06,1.5-.11,2.95-.15,4.35-.08,1.49-.12,2.96-.12,4.41,0,1.45-.05,2.84-.14,4.16-.09,1.32-.26,2.54-.5,3.67-.25,1.13-.65,2.1-1.21,2.93s-1.31,1.47-2.25,1.94-2.15.7-3.63.7c-1.11,0-2-.16-2.67-.48-.66-.32-1.17-.71-1.53-1.17-.35-.46-.58-.95-.69-1.46-.11-.52-.16-.98-.16-1.38,0-.43.07-.83.2-1.2.13-.37.32-.7.56-.97.24-.28.53-.5.88-.66.35-.16.74-.25,1.19-.25.47,0,.88.09,1.25.26.37.18.67.41.92.69.25.28.43.6.56.95.13.35.19.71.19,1.06-.01.2-.06.41-.13.62-.06.18-.17.37-.33.59-.16.22-.38.44-.65.65.15.06.29.1.43.12s.26.03.39.03c.33,0,.67-.1,1.03-.29.36-.2.69-.5,1-.92.3-.42.56-.94.76-1.57.2-.63.32-1.38.34-2.25,0-.94,0-1.87,0-2.78,0-.91.02-1.91.05-3-.43.82-.89,1.45-1.39,1.9-.49.45-.96.78-1.4.99-.51.25-1.02.4-1.54.45-.94,0-1.75-.23-2.45-.7-.7-.47-1.27-1.13-1.73-1.98-.46-.86-.79-1.89-1.02-3.09-.22-1.2-.33-2.55-.33-4.03,0-4.12.29-8.05.85-11.79l4.82.53c-.1.42-.2.87-.29,1.36s-.18,1-.26,1.53c-.08.53-.14,1.06-.2,1.6-.06.54-.11,1.05-.16,1.54-.11,1.16-.21,2.34-.29,3.53,0,1.2.04,2.24.11,3.13s.21,1.62.41,2.21c.2.59.46,1.02.81,1.31.34.29.78.43,1.31.43.38-.06.75-.33,1.1-.79.15-.2.31-.45.47-.76.17-.3.33-.67.49-1.11.16-.44.32-.96.47-1.56.15-.6.29-1.29.42-2.09.04-.98.07-1.88.08-2.69.02-.81.03-1.59.03-2.33,0-.89-.02-1.75-.06-2.58-.04-.83-.09-1.69-.17-2.6l4.86.08Z"/>
    </g>
    <circle class="cls-1" cx="152.24" cy="45.5" r="6.15"/>
    <circle class="cls-1" cx="82.24" cy="62.5" r="6.15"/>
    <path class="cls-1" d="m94.3,76.99c1.19,0,2.26.2,3.16.59.91.39,1.68.92,2.28,1.57.44.48.8,1,1.07,1.56.15-.22.31-.42.47-.61.61-.72,1.27-1.32,1.99-1.79.73-.48,1.51-.82,2.3-1.03.2-.05.39-.07.59-.11.15-.53.24-1.09.24-1.67,0-3.4-2.75-6.15-6.15-6.15s-6.15,2.75-6.15,6.15c0,.51.07,1.01.19,1.49h.01Z"/>
    <g>
      <path class="cls-1" d="m146.93,116.49v.3h4.03v3.37h-10.55l-1.78-3.23v3.23h-3.62v-3.67h-.39c-.51,3.3-2.87,3.84-4.36,3.84s-3.87-.54-4.38-3.84h-2.24v3.67h-7.19l-.71-2.48h-1.57l-.72,2.48h-6.18v-3.67h-.34v3.67h-3.26l-2.02-3.67h-.03v3.67h-3.55v-3.67h-.34v3.67h-3.62v-3.67h-.34v3.67h-3.49v-1.94l-.4,1.08h-2.36l-.39-1.07v1.93h-3.46v-3.67h-38.65c11.63,28.45,39.57,48.5,72.21,48.5s60.56-20.05,72.19-48.5h-42.49Z"/>
      <path class="cls-1" d="m130.25,116.92c.23,0,.52,0,.71-.42h-1.39c.18.42.47.42.68.42Z"/>
      <path class="cls-1" d="m47.23,77.59c.61-.23,1.14-.35,1.62-.37.33-.02.51-.02.54-.02,1.31,0,2.48.32,3.5.94.53.33,1,.73,1.43,1.21l.05-1.52,2.07.15c.31.02.61.04.92.06,0-.55-.01-1.09-.03-1.64l-.11-5.8,4.22-.07c3.63-12.44,15.11-21.54,28.73-21.54,6.92,0,13.29,2.36,18.36,6.3.2-5.17,4.44-9.3,9.66-9.3s9.67,4.33,9.67,9.67-4.33,9.67-9.67,9.67c-.48,0-.94-.05-1.4-.11,2.12,4.1,3.32,8.76,3.32,13.69,0,1.01-.05,2.01-.15,2.99.35-.68.75-1.29,1.18-1.81.61-.72,1.27-1.32,1.99-1.79.73-.48,1.51-.82,2.3-1.03,1.83-.47,3.67-.35,5.31.23.96.34,1.82.86,2.56,1.52l.04-1.2,2.07.15c.31.02.61.04.92.06,0-.55-.01-1.09-.03-1.64l-.11-5.8,9.02-.14-.17,2.19c-.1,1.28-.18,2.54-.24,3.77l-.08,1.58c.36-.02.72-.04,1.08-.06l2.1-.14.15,9.34-2.36-.39c-.43-.07-.85-.13-1.28-.18,0,.33,0,.67-.01,1,0,1.04,0,2.1,0,3.16,0,1.9.02,3.79.07,5.66.04,1.88.12,3.78.22,5.65l.11,2.14-9.17-.14.12-2.08c.05-.83.09-1.66.13-2.5-.09.24-.2.48-.32.72-.47.89-1.1,1.67-1.89,2.32-.76.62-1.65,1.12-2.65,1.47-1,.35-2.06.53-3.17.53-.77,0-1.55-.11-2.32-.31-.82-.22-1.61-.59-2.35-1.09-.72-.49-1.4-1.13-2.01-1.9-.61-.76-1.14-1.69-1.57-2.77-.41-1.02-.74-2.21-.97-3.55-.23-1.31-.34-2.82-.34-4.49,0-.38,0-.75.02-1.11-.66,1.78-1.47,3.47-2.44,5.08.03.06.07.11.1.17.33.73.49,1.59.49,2.63s-.25,2.08-.74,3.02c-.47.89-1.1,1.67-1.89,2.32-.76.62-1.65,1.12-2.65,1.47-1,.35-2.06.53-3.17.53-.62,0-1.25-.09-1.88-.23-4.61,2.9-10.06,4.58-15.9,4.58-6.26,0-12.06-1.92-16.87-5.21-1.09-.09-2.09-.41-2.96-1-.97-.65-1.77-1.56-2.38-2.71-.29-.55-.54-1.17-.76-1.83-.61-.73-1.19-1.5-1.74-2.29,0,.19,0,.38,0,.57.04,1.88.12,3.78.22,5.65l.11,2.14-9.17-.14.12-2.08c.17-2.97.3-5.94.41-8.83.08-2.21.14-4.47.18-6.74-.17.01-.34.02-.51.03.06.7.09,1.44.09,2.22,0,1.1-.02,2.23-.05,3.37-.03,1.15-.1,2.32-.2,3.48-.1,1.14-.23,2.28-.39,3.38-.17,1.14-.4,2.23-.69,3.26l-.46,1.66-8.26-.99.41-2.11c.28-1.45.5-2.81.66-4.06.16-1.25.28-2.37.35-3.31.08-1.09.13-2.1.15-2.99,0-1.11-.04-2.1-.11-2.93-.06-.71-.16-1.28-.3-1.71-.11.2-.25.48-.42.87-.19.44-.47,1.28-.74,2.8-.03.92-.05,1.82-.06,2.72,0,.96,0,1.98,0,3.06v2.97c0,1.05.01,2.23.04,3.55l.04,2.08-5.86-.13c.73,3.39,1.69,6.69,2.85,9.89h39.8v-4.49h3.54l1.52,4.22,1.49-4.22h3.54v4.49h.34v-4.49h3.62v4.49h.34v-4.49h3.26l2.05,3.71v-3.71h3.55v4.49h.34v-4.49h3.62v4.49h.94l1.46-4.49h3.36l.71,2.18v-2.18h12.03v4.49h1.75v-4.49h3.56v4.49h.29v-4.49h4.09c2.88,0,3.88,1.38,4.21,2.56v-2.56h7.51v3.37h-3.89v.35h3.29v.78h40.35c1.07-2.96,1.97-6,2.68-9.12-.24-.05-.48-.11-.74-.21v.08l-8.39-.15.13-2.09c.07-1.14.12-2.29.17-3.45-.44,1.02-.99,1.96-1.65,2.77-.73.89-1.6,1.6-2.6,2.13-1.05.55-2.26.84-3.6.84-1.61,0-3.05-.37-4.26-1.1-1.18-.71-2.17-1.7-2.92-2.95-.17-.29-.34-.59-.49-.9.02.48.04.96.07,1.42l.12,2.11h-2.12c-1.04,0-1.88,0-2.52.03-.62.02-1.11.04-1.46.06-.37.03-.67.06-.87.09l-2.59.3.38-2.58c.11-.72.2-1.51.27-2.33.07-.86.14-1.72.2-2.6.06-.88.1-1.74.13-2.59l.02-.5c-.63-.02-1.24-.02-1.78-.02,0,.13,0,.27,0,.41.01.88.03,1.81.07,2.77.03.98.07,1.97.1,2.98.04.99.09,1.95.15,2.86l.15,2.14h-2.14c-1.08,0-1.95,0-2.61.03-.65.02-1.16.04-1.53.06-.39.03-.7.06-.9.08l-2.58.31.37-2.58c.1-.68.18-1.4.25-2.16.08-.79.14-1.59.21-2.41.06-.81.11-1.62.15-2.42.04-.81.07-1.58.09-2.32.05-1.73.08-3.46.09-5.2-.01-1.7-.04-3.38-.09-5-.02-.67-.06-1.38-.09-2.12-.04-.74-.08-1.46-.13-2.16-.05-.69-.11-1.36-.17-1.99-.07-.61-.14-1.16-.22-1.66l-.16-.95c-.78-1.4-1.23-3-1.23-4.72,0-5.34,4.33-9.67,9.67-9.67s9.67,4.33,9.67,9.67c0,1.07-.18,2.1-.5,3.07l1.73-.26-.11,2.43c-.04.81-.07,1.63-.1,2.47-.03.83-.06,1.65-.08,2.45-.02.81-.03,1.59-.05,2.34l-.04,2.14c.26-.67.56-1.31.89-1.88.79-1.36,1.81-2.45,3.01-3.23,1.27-.82,2.73-1.24,4.34-1.24s3,.35,4.2,1.04c1.18.68,2.16,1.64,2.92,2.84.1.17.2.35.29.52-.1-2.79-.2-5.59-.33-8.41l-.09-2.06,9.58-.13c-7.48-35.28-38.79-61.76-76.29-61.76-2.35,0-4.67.12-6.97.33.78,2.42,1.21,5.01,1.21,7.69,0,13.82-11.2,25.02-25.02,25.02-9.33,0-17.46-5.11-21.76-12.68-13.61,12.41-22.8,29.56-24.97,48.85l6.18.09c.45-.3.89-.53,1.33-.69Zm105.02-45.6c7.46,0,13.51,6.05,13.51,13.51s-6.05,13.51-13.51,13.51-13.51-6.05-13.51-13.51,6.05-13.51,13.51-13.51Z"/>
      <rect class="cls-1" x="123.64" y="112.37" width="2.14" height="1.13"/>
    </g>
    <g id="Texte">
      <path class="cls-2" d="m84.67,110h1.84l1.62,4.48c.2.58.39,1.2.59,1.8h.06c.2-.6.38-1.22.58-1.8l1.59-4.48h1.84v9.16h-1.49v-4.19c0-.85.13-2.06.21-2.91h-.06l-.74,2.13-1.51,4.12h-.96l-1.51-4.12-.73-2.13h-.06c.08.85.21,2.07.21,2.91v4.19h-1.46v-9.16Z"/>
      <path class="cls-2" d="m95.11,110h1.62v9.16h-1.62v-9.16Z"/>
      <path class="cls-2" d="m99.07,110h1.67l2.85,5.15.95,1.96h.06c-.08-.95-.21-2.11-.21-3.13v-3.98h1.55v9.16h-1.67l-2.85-5.16-.95-1.95h-.06c.08.97.21,2.07.21,3.09v4.01h-1.55v-9.16Z"/>
      <path class="cls-2" d="m108.27,110h1.62v9.16h-1.62v-9.16Z"/>
      <path class="cls-2" d="m114.02,110h1.91l2.99,9.16h-1.72l-1.4-4.88c-.29-.97-.56-2.01-.83-3.02h-.06c-.25,1.01-.52,2.05-.81,3.02l-1.41,4.88h-1.66l2.99-9.16Zm-1.22,5.4h4.31v1.27h-4.31v-1.27Z"/>
      <path class="cls-2" d="m121.01,111.37h-2.64v-1.37h6.91v1.37h-2.64v7.79h-1.62v-7.79Z"/>
      <path class="cls-2" d="m126.77,115.14v-5.14h1.62v5.27c0,2,.75,2.65,1.85,2.65s1.89-.66,1.89-2.65v-5.27h1.56v5.14c0,3.01-1.33,4.19-3.46,4.19s-3.48-1.18-3.48-4.19Z"/>
      <path class="cls-2" d="m136,110h3.09c1.91,0,3.37.67,3.37,2.72s-1.47,2.86-3.37,2.86h-1.46v3.58h-1.62v-9.16Zm2.92,4.28c1.25,0,1.94-.52,1.94-1.56s-.68-1.42-1.94-1.42h-1.29v2.98h1.29Zm-.14.87l1.18-.97,2.86,4.98h-1.83l-2.21-4.01Z"/>
      <path class="cls-2" d="m144.31,110h5.51v1.37h-3.89v2.35h3.29v1.37h-3.29v2.71h4.03v1.37h-5.65v-9.16Z"/>
    </g>
  </g>
</svg>