<?xml version="1.0" encoding="UTF-8"?><svg id="Calque_2" xmlns="http://www.w3.org/2000/svg" viewBox="0 0 214.5 43.5"><defs><style>.cls-1{fill:#b0d236;}.cls-2,.cls-3{stroke-width:5px;}.cls-2,.cls-3,.cls-4{fill:none;}.cls-2,.cls-4{stroke:#b0d236;}.cls-3{stroke:#000030;}</style></defs><g id="Calque_1-2"><path class="cls-2" d="m212,0h0c0,22.64-18.36,41-41,41h-65"/><path class="cls-1" d="m0,20.5C0,9.18,9.18,0,20.5,0h189.5c0,22.64-18.36,41-41,41H20.5C9.18,41,0,31.82,0,20.5Z"/><path class="cls-3" d="m2.5,20.5C2.5,10.56,10.56,2.5,20.5,2.5h186.92c-1.29,20.1-18,36-38.42,36H20.5c-9.94,0-18-8.06-18-18Z"/><path class="cls-4" d="m.5,20.5C.5,9.45,9.45.5,20.5.5h189c-.27,22.14-18.3,40-40.5,40H20.5C9.45,40.5.5,31.55.5,20.5Z" shape-rendering="crispEdges"/></g></svg>