<?xml version="1.0" standalone="no"?>
<!DOCTYPE svg PUBLIC "-//W3C//DTD SVG 20010904//EN"
 "http://www.w3.org/TR/2001/REC-SVG-20010904/DTD/svg10.dtd">
<svg version="1.0" xmlns="http://www.w3.org/2000/svg"
 width="428.000000pt" height="428.000000pt" viewBox="0 0 428.000000 428.000000"
 preserveAspectRatio="xMidYMid meet">
<metadata>
Created by potrace 1.14, written by Peter Selinger 2001-2017
</metadata>
<g transform="translate(0.000000,428.000000) scale(0.100000,-0.100000)"
fill="#000000" stroke="none">
<path d="M2088 4258 c-31 -18 -51 -53 -171 -297 -133 -272 -313 -637 -662
-1346 -324 -657 -367 -754 -416 -942 -27 -101 -32 -138 -34 -263 -3 -158 5
-242 36 -365 21 -86 24 -95 63 -196 149 -386 495 -696 896 -804 123 -32 181
-40 330 -40 210 0 346 26 523 100 70 30 214 109 227 126 3 3 12 10 21 15 51
29 184 152 258 239 139 165 246 393 292 623 29 143 32 445 5 522 -3 8 -7 31
-10 50 -3 19 -12 58 -20 85 -8 28 -20 68 -26 90 -6 22 -86 191 -177 375 -91
184 -225 457 -298 605 -224 456 -573 1164 -633 1284 -33 67 -68 123 -83 134
-37 26 -80 28 -121 5z"/>
</g>
</svg>
