<?xml version="1.0" standalone="no"?>
<!DOCTYPE svg PUBLIC "-//W3C//DTD SVG 20010904//EN"
 "http://www.w3.org/TR/2001/REC-SVG-20010904/DTD/svg10.dtd">
<svg version="1.0" xmlns="http://www.w3.org/2000/svg"
 width="512.000000pt" height="512.000000pt" viewBox="0 0 512.000000 512.000000"
 preserveAspectRatio="xMidYMid meet">
<metadata>
Created by potrace 1.14, written by Peter Selinger 2001-2017
</metadata>
<g transform="translate(0.000000,512.000000) scale(0.100000,-0.100000)"
fill="#000000" stroke="none">
<path d="M2290 5109 c-277 -29 -588 -119 -845 -244 -788 -383 -1321 -1130
-1429 -2005 -22 -173 -15 -517 14 -685 63 -374 176 -676 365 -977 110 -176
295 -399 420 -507 16 -14 52 -47 80 -73 27 -26 56 -48 63 -48 6 0 12 -4 12 -8
0 -23 281 -207 432 -283 256 -129 588 -231 823 -254 39 -4 73 -9 78 -12 4 -2
87 -6 184 -8 130 -3 180 -1 185 8 6 9 8 9 8 -1 0 -7 4 -11 8 -8 4 2 39 6 77 7
39 1 88 6 110 10 22 4 60 9 85 12 55 7 236 45 270 57 14 5 66 21 115 36 228
69 578 247 720 366 5 5 34 26 64 48 98 71 298 262 377 360 16 19 37 44 47 55
10 11 44 56 75 100 31 44 60 82 64 83 4 2 8 8 8 12 0 5 18 37 40 71 160 247
307 644 346 934 3 22 9 57 14 78 5 26 4 37 -4 37 -7 0 -8 3 -1 8 15 10 19 67
19 277 0 165 -8 327 -19 357 -2 7 -6 31 -9 53 -2 22 -12 74 -21 115 -21 99
-21 97 -38 160 -35 126 -50 170 -59 170 -5 0 -7 4 -4 9 13 21 -113 294 -212
460 -45 77 -151 230 -190 276 -133 158 -371 394 -399 395 -7 0 -13 4 -13 8 0
11 -142 114 -255 184 -87 54 -281 152 -395 199 -165 67 -431 135 -605 155 -33
3 -63 8 -67 10 -15 9 -458 11 -538 3z"/>
</g>
</svg>
