<?xml version="1.0" encoding="UTF-8"?><svg id="Calque_2" xmlns="http://www.w3.org/2000/svg" viewBox="0 0 124.59 77.28"><defs><style>.cls-1{fill:#ede7df;}.cls-2{fill:#b0d236;}.cls-3{fill:none;stroke:#ede7df;stroke-linecap:square;stroke-linejoin:bevel;}</style></defs><g id="btn"><g id="VALIDER_ROND"><path class="cls-3" d="m117.96,62.9H31.7C14.54,62.9.5,48.86.5,31.7h0C.5,14.54,14.54.5,31.7.5h47.72c17.16,0,31.2,14.04,31.2,31.2"/><polygon class="cls-2" points="118.66 53.79 71.79 53.79 71.79 63.39 118.81 63.39 124.59 58.59 118.66 53.79"/><polygon class="cls-2" points="115.14 49.13 99.46 49.13 82.38 32.17 96.5 32.17 115.14 49.13"/><polygon class="cls-2" points="115.14 67.76 99.46 67.76 88.38 77.28 102.5 77.28 115.14 67.76"/><g id="valider"><path class="cls-1" d="m46.46,19.55l-2.13-13.75h1.99l.9,6.21.55,4.38h.05l.48-4.38.75-6.21h1.95l-1.96,13.75h-2.59Z"/><path class="cls-1" d="m51.91,19.55l1.96-13.75h2.77l2.09,13.75h-1.95l-.33-2.45h-2.22l-.3,2.45h-2.02Zm2.52-4.13h1.8l-.92-6.91h-.03l-.84,6.91Z"/><path class="cls-1" d="m45.06,38.75v-13.75h2.09v11.97h2.65v1.78h-4.74Z"/><path class="cls-1" d="m51.54,38.75v-13.75h2.09v13.75h-2.09Z"/><path class="cls-1" d="m45.06,57.95v-13.75h3.09c.7,0,1.26.14,1.68.42s.73.68.92,1.21.29,1.16.29,1.91v6.2c0,.9-.09,1.65-.29,2.25s-.51,1.04-.94,1.33-1.01.44-1.73.44h-3.02Zm2.09-1.62h.69c.25,0,.45-.05.61-.15s.29-.27.37-.53.12-.61.12-1.07v-6.79c0-.7-.09-1.21-.27-1.52s-.47-.46-.91-.46h-.62v10.52Z"/><path class="cls-1" d="m53.49,57.95v-13.75h4.61v1.8h-2.52v4h2.39v1.77h-2.39v4.38h2.61v1.8h-4.7Z"/><path class="cls-1" d="m60.3,57.95v-13.75h3.46c.72,0,1.25.14,1.61.42s.59.69.7,1.23.17,1.2.17,1.98-.08,1.44-.25,1.9-.5.77-1,.93c.24.04.44.14.6.29s.29.38.39.67.17.67.21,1.13.07,1.02.07,1.69v.44c0,.24,0,.52,0,.85s0,.65.01.97.01.6.02.83.02.36.04.41h-2.09s-.03-.16-.04-.4-.02-.55-.02-.93-.01-.78-.02-1.21,0-.86,0-1.28v-1.11c0-.41-.03-.72-.09-.93s-.17-.36-.33-.44-.39-.13-.68-.15l-.67-.04v6.49h-2.09Zm2.1-8.12h.84c.25,0,.45-.06.58-.17s.22-.33.27-.63.07-.75.07-1.33v-.09c0-.48-.02-.86-.07-1.12s-.14-.44-.29-.54-.38-.15-.69-.15h-.71v4.02Z"/></g></g></g></svg>