<?xml version="1.0" encoding="UTF-8"?><svg id="Calque_2" xmlns="http://www.w3.org/2000/svg" viewBox="0 0 194.59 77.28"><defs><style>.cls-1{fill:#ede7df;}.cls-2{fill:#b0d236;}.cls-3{fill:none;stroke:#ede7df;stroke-linecap:square;stroke-linejoin:bevel;}</style></defs><g id="Calque_1-2"><g id="resultat"><path class="cls-3" d="m187.96,62.9H31.7C14.54,62.9.5,48.86.5,31.7S14.54.5,31.7.5h117.72c17.16,0,31.2,14.04,31.2,31.2"/><path class="cls-2" d="m188.66,53.79h-46.87v9.6h47.02l5.78-4.8-5.93-4.8Z"/><path class="cls-2" d="m185.14,49.13h-15.68l-17.08-16.96h14.12l18.64,16.96Z"/><path class="cls-2" d="m185.14,67.76h-15.68l-11.08,9.52h14.12l12.64-9.52Z"/><path class="cls-1" d="m24.91,41.63l-2.53-16.33h2.37l1.07,7.38.66,5.2h.06l.57-5.2.89-7.38h2.32l-2.33,16.33h-3.07Z"/><path class="cls-1" d="m35.31,41.82c-.85,0-1.54-.18-2.07-.54-.54-.36-.93-.89-1.18-1.6-.25-.71-.38-1.58-.38-2.62v-7.47c0-.94.12-1.74.37-2.41.25-.67.64-1.18,1.18-1.54.54-.36,1.24-.54,2.12-.54.66,0,1.21.1,1.66.31.45.2.82.5,1.09.89.28.39.48.86.61,1.41.13.55.19,1.18.19,1.89v7.47c0,1.04-.12,1.91-.37,2.62-.24.71-.63,1.24-1.16,1.6-.53.36-1.21.54-2.06.54Zm0-2.15c.31,0,.54-.09.7-.28.15-.19.26-.47.31-.85.05-.38.08-.86.08-1.44v-7.61c0-.71-.07-1.26-.2-1.65-.13-.39-.42-.58-.86-.58s-.76.19-.92.56c-.16.37-.24.93-.24,1.66v7.62c0,.59.03,1.08.08,1.46.05.38.16.66.32.84.16.18.41.27.73.27Z"/><path class="cls-1" d="m41.2,41.63v-16.33h2.49v16.33h-2.49Z"/><path class="cls-1" d="m46.18,41.63v-16.33h4.11c.85,0,1.49.17,1.91.5.42.33.7.82.83,1.47.13.64.2,1.43.2,2.36s-.1,1.71-.29,2.26c-.2.55-.59.91-1.19,1.1.28.05.52.17.71.35.19.18.35.45.46.8.12.35.2.8.26,1.35.05.55.08,1.22.08,2.01v.52c0,.28,0,.62,0,1.01,0,.39,0,.77.01,1.16,0,.38.02.71.03.98.01.27.03.43.05.48h-2.49s-.03-.19-.04-.48c0-.29-.02-.65-.03-1.1,0-.45-.02-.92-.02-1.44,0-.51,0-1.02,0-1.52v-1.32c0-.49-.04-.86-.11-1.11-.07-.25-.2-.42-.39-.52-.19-.1-.46-.16-.81-.18l-.8-.05v7.71h-2.49Zm2.5-9.64h.99c.3,0,.53-.07.69-.2.16-.14.27-.39.32-.75.06-.36.09-.89.09-1.58v-.1c0-.58-.03-1.02-.08-1.33-.06-.31-.17-.52-.35-.64-.18-.12-.45-.18-.82-.18h-.84v4.78Z"/><path class="cls-1" d="m58.78,41.63v-16.33h2.49v14.21h3.15v2.12h-5.63Z"/><path class="cls-1" d="m65.76,41.63v-16.33h5.47v2.14h-2.99v4.75h2.84v2.1h-2.84v5.2h3.1v2.14h-5.58Z"/><path class="cls-1" d="m76.59,41.63v-16.33h4.11c.85,0,1.49.17,1.91.5.42.33.7.82.83,1.47.13.64.2,1.43.2,2.36s-.1,1.71-.29,2.26c-.2.55-.59.91-1.19,1.1.28.05.52.17.71.35.19.18.35.45.46.8.12.35.2.8.26,1.35.05.55.08,1.22.08,2.01v.52c0,.28,0,.62,0,1.01,0,.39,0,.77.01,1.16,0,.38.02.71.03.98.01.27.03.43.05.48h-2.49s-.03-.19-.04-.48c0-.29-.02-.65-.03-1.1,0-.45-.02-.92-.02-1.44,0-.51,0-1.02,0-1.52v-1.32c0-.49-.04-.86-.11-1.11-.07-.25-.2-.42-.39-.52-.19-.1-.46-.16-.81-.18l-.8-.05v7.71h-2.49Zm2.5-9.64h.99c.3,0,.53-.07.69-.2.16-.14.27-.39.32-.75.06-.36.09-.89.09-1.58v-.1c0-.58-.03-1.02-.08-1.33-.06-.31-.17-.52-.35-.64-.18-.12-.45-.18-.82-.18h-.84v4.78Z"/><path class="cls-1" d="m85.78,41.63v-16.33h5.47v2.14h-2.99v4.75h2.84v2.1h-2.84v5.2h3.1v2.14h-5.58Zm1.29-17.63l.87-3.83h2.46l-1.88,3.83h-1.45Z"/><path class="cls-1" d="m96.18,41.82c-.68,0-1.25-.11-1.7-.32-.45-.21-.81-.53-1.08-.94-.26-.41-.45-.91-.56-1.5-.11-.59-.17-1.26-.17-2.02v-1.46h2.36v1.64c0,.88.07,1.51.22,1.89.15.38.44.58.88.58.3,0,.52-.07.67-.21.15-.14.25-.36.31-.67.05-.31.08-.71.08-1.2,0-.61-.13-1.17-.38-1.68-.26-.51-.65-1.03-1.16-1.58l-1.21-1.24c-.33-.35-.64-.71-.9-1.1-.27-.39-.48-.82-.64-1.3-.16-.48-.24-1.02-.24-1.61,0-.86.1-1.59.32-2.18.21-.59.57-1.04,1.07-1.35.5-.31,1.19-.46,2.06-.46.66,0,1.2.1,1.62.3.42.2.75.5.99.88.24.39.41.86.51,1.41.1.55.15,1.19.15,1.9v1.01h-2.29v-1.17c0-.49-.03-.91-.08-1.23-.05-.33-.15-.57-.29-.74-.14-.16-.35-.25-.62-.25s-.47.06-.63.17c-.16.11-.28.29-.35.53-.07.24-.11.55-.11.92,0,.34.04.63.13.88.09.25.22.49.4.71.18.23.4.49.67.77l1.35,1.46c.64.69,1.14,1.41,1.5,2.16.36.75.54,1.58.54,2.5,0,.98-.11,1.8-.32,2.46-.21.66-.56,1.17-1.06,1.51-.5.34-1.17.51-2.02.51Z"/><path class="cls-1" d="m104.81,41.82c-.85,0-1.54-.16-2.07-.48-.53-.32-.92-.8-1.17-1.45-.25-.65-.37-1.46-.37-2.45v-12.13h2.49v12.09c0,.46.02.86.06,1.21.04.35.14.62.29.81.15.19.41.29.76.29s.61-.09.77-.28c.16-.19.26-.46.29-.8.04-.35.06-.75.06-1.22v-12.09h2.49v12.13c0,.99-.12,1.81-.37,2.45-.24.65-.63,1.13-1.16,1.45-.53.32-1.22.48-2.06.48Z"/><path class="cls-1" d="m110.72,41.63v-16.33h2.49v14.21h3.15v2.12h-5.63Z"/><path class="cls-1" d="m118.27,41.63v-14.18h-1.91v-2.15h6.23v2.15h-1.84v14.18h-2.48Z"/><path class="cls-1" d="m122.55,41.63l2.33-16.33h3.28l2.48,16.33h-2.32l-.39-2.91h-2.63l-.35,2.91h-2.39Zm2.99-4.91h2.13l-1.09-8.2h-.04l-1,8.2Z"/><path class="cls-1" d="m132.5,41.63v-14.18h-1.91v-2.15h6.23v2.15h-1.84v14.18h-2.48Z"/></g></g></svg>