<?xml version="1.0" encoding="UTF-8"?><svg id="Calque_2" xmlns="http://www.w3.org/2000/svg" viewBox="0 0 124.59 77.28"><defs><style>.cls-1{fill:#ede7df;}.cls-2{fill:none;stroke:#ede7df;stroke-linecap:square;stroke-linejoin:bevel;}</style></defs><g id="btn"><g id="COMMENCER_ROND"><g id="arrow"><polygon class="cls-1" points="118.66 53.79 71.79 53.79 71.79 63.39 118.81 63.39 124.59 58.59 118.66 53.79"/><polygon class="cls-1" points="115.14 49.13 99.46 49.13 82.38 32.17 96.5 32.17 115.14 49.13"/><polygon class="cls-1" points="115.14 67.76 99.46 67.76 88.38 77.28 102.5 77.28 115.14 67.76"/></g><g id="texte"><path class="cls-1" d="m45.56,18.73c-.67,0-1.22-.15-1.66-.46-.44-.31-.77-.76-1-1.35s-.33-1.31-.33-2.14v-5.99c0-.63.05-1.2.16-1.7s.27-.94.51-1.3.55-.64.94-.83.87-.29,1.45-.29c.52,0,.96.08,1.33.25s.67.41.9.73.4.7.51,1.15.16.96.16,1.52v1.89h-2.02v-1.76c0-.68-.06-1.18-.17-1.5s-.34-.48-.69-.48c-.38,0-.63.17-.76.52s-.19.83-.19,1.45v6.42c0,.48.03.87.08,1.18s.15.53.28.67.31.21.55.21c.35,0,.59-.17.72-.5s.19-.86.19-1.59v-1.97h2.05v1.95c0,.87-.1,1.59-.3,2.18s-.52,1.01-.96,1.3-1.01.43-1.71.43Z"/><path class="cls-1" d="m53.76,18.73c-.71,0-1.3-.15-1.75-.45s-.78-.75-1-1.34-.32-1.33-.32-2.2v-6.29c0-.79.1-1.47.31-2.03s.54-1,.99-1.3,1.05-.45,1.78-.45c.55,0,1.02.09,1.4.26s.69.42.92.75.41.72.51,1.19.16,1,.16,1.59v6.29c0,.88-.1,1.61-.31,2.2s-.53,1.04-.97,1.34-1.02.45-1.73.45Zm0-1.81c.26,0,.46-.08.59-.23s.22-.39.26-.71.07-.73.07-1.21v-6.41c0-.6-.06-1.06-.17-1.39s-.35-.49-.72-.49-.64.16-.77.47-.2.78-.2,1.39v6.41c0,.5.02.91.07,1.23s.14.56.27.71.34.23.61.23Z"/><path class="cls-1" d="m59.24,18.57V4.82h2.6l1.95,10.05,1.84-10.05h2.62v13.75h-1.87v-5.12l.08-4.7-1.85,9.77h-1.66l-1.93-9.77.08,4.7v5.12h-1.85Z"/><path class="cls-1" d="m42.74,37.77v-13.75h2.6l1.95,10.05,1.84-10.05h2.62v13.75h-1.87v-5.12l.08-4.7-1.85,9.77h-1.66l-1.93-9.77.08,4.7v5.12h-1.85Z"/><path class="cls-1" d="m54.38,37.77v-13.75h4.61v1.8h-2.52v4h2.39v1.77h-2.39v4.38h2.61v1.8h-4.7Z"/><path class="cls-1" d="m61.19,37.77v-13.75h1.64l2.91,8.25-.15-3.75v-4.5h1.88v13.75h-1.48l-2.99-8.54.12,3.61v4.93h-1.93Z"/><path class="cls-1" d="m45.56,57.13c-.67,0-1.22-.15-1.66-.46-.44-.31-.77-.76-1-1.35-.22-.59-.33-1.31-.33-2.14v-5.99c0-.63.05-1.2.16-1.7.1-.5.27-.94.51-1.3s.55-.63.94-.83c.39-.19.87-.29,1.45-.29.52,0,.96.08,1.33.25.37.17.67.41.9.73.23.32.4.7.51,1.15.11.45.16.96.16,1.52v1.89h-2.02v-1.76c0-.68-.06-1.18-.17-1.5s-.34-.48-.69-.48c-.38,0-.63.17-.76.52-.13.35-.19.83-.19,1.45v6.42c0,.48.03.87.08,1.18s.15.53.28.67c.13.14.31.21.55.21.35,0,.59-.17.72-.5.12-.33.19-.86.19-1.59v-1.97h2.05v1.95c0,.87-.1,1.6-.3,2.18-.2.58-.52,1.01-.96,1.3s-1.01.43-1.71.43Z"/><path class="cls-1" d="m50.87,56.97v-13.75h4.61v1.8h-2.52v4h2.39v1.77h-2.39v4.38h2.61v1.8h-4.7Z"/><path class="cls-1" d="m57.68,56.97v-13.75h3.46c.72,0,1.25.14,1.61.42.35.28.59.69.7,1.23.11.54.17,1.2.17,1.98s-.08,1.44-.25,1.9-.5.77-1,.93c.24.04.44.14.6.29.16.15.29.38.39.67.1.29.17.67.21,1.13s.07,1.03.07,1.69v.44c0,.24,0,.52,0,.85,0,.33,0,.65.01.97,0,.32.01.6.02.83.01.23.02.37.04.41h-2.09s-.03-.16-.04-.4-.02-.55-.02-.93-.01-.78-.02-1.21c0-.43,0-.86,0-1.28v-1.11c0-.41-.03-.72-.09-.93s-.17-.36-.33-.44c-.16-.08-.39-.13-.68-.15l-.67-.04v6.49h-2.09Zm2.1-8.12h.84c.25,0,.45-.06.58-.17.13-.11.22-.33.27-.63.05-.31.07-.75.07-1.33v-.09c0-.48-.02-.86-.07-1.12-.05-.26-.14-.44-.29-.54-.15-.1-.38-.15-.69-.15h-.71v4.02Z"/></g><path id="contour" class="cls-2" d="m117.96,62.9H31.7C14.54,62.9.5,48.86.5,31.7h0C.5,14.54,14.54.5,31.7.5h47.72c17.16,0,31.2,14.04,31.2,31.2"/></g></g></svg>