<?xml version="1.0" encoding="UTF-8"?><svg id="Calque_2" xmlns="http://www.w3.org/2000/svg" viewBox="0 0 194.59 77.28"><defs><style>.cls-1{fill:#ede7df;}.cls-2{fill:none;stroke:#ede7df;stroke-linecap:square;stroke-linejoin:bevel;}</style></defs><g id="Calque_1-2"><g id="COMMENCER"><path class="cls-2" d="m187.96,62.9H31.7C14.54,62.9.5,48.86.5,31.7S14.54.5,31.7.5h117.72c17.16,0,31.2,14.04,31.2,31.2"/><path class="cls-1" d="m188.66,53.79h-46.87v9.6h47.02l5.78-4.8-5.93-4.8Z"/><path class="cls-1" d="m185.14,49.13h-15.68l-17.08-16.96h14.12l18.64,16.96Z"/><path class="cls-1" d="m185.14,67.76h-15.68l-11.08,9.52h14.12l12.64-9.52Z"/><path class="cls-1" d="m27.04,42.88c-1.04,0-1.91-.24-2.6-.72-.69-.48-1.21-1.18-1.56-2.11-.35-.92-.52-2.04-.52-3.35v-9.36c0-.98.08-1.87.24-2.66.16-.79.43-1.46.79-2.03s.85-.99,1.46-1.29c.61-.3,1.36-.45,2.26-.45.81,0,1.51.13,2.08.4.57.26,1.04.65,1.4,1.14.36.5.63,1.1.79,1.8.17.7.25,1.5.25,2.37v2.95h-3.16v-2.75c0-1.06-.09-1.84-.27-2.34-.18-.5-.54-.75-1.07-.75-.59,0-.99.27-1.19.81-.2.54-.3,1.3-.3,2.26v10.03c0,.75.04,1.36.13,1.84.09.48.23.83.43,1.05.2.22.49.34.85.34.55,0,.93-.26,1.12-.78.2-.52.29-1.35.29-2.48v-3.08h3.21v3.04c0,1.36-.16,2.49-.48,3.4-.32.91-.82,1.59-1.51,2.03-.69.45-1.58.67-2.68.67Z"/><path class="cls-1" d="m38.98,42.88c-1.12,0-2.02-.24-2.73-.71-.7-.47-1.22-1.17-1.56-2.1-.33-.93-.5-2.08-.5-3.44v-9.83c0-1.24.16-2.29.49-3.17.33-.88.84-1.55,1.55-2.03.71-.47,1.64-.71,2.78-.71.86,0,1.59.13,2.19.4.59.27,1.07.66,1.44,1.17.37.51.63,1.13.8,1.86.17.73.25,1.56.25,2.48v9.83c0,1.37-.16,2.51-.48,3.44-.32.93-.83,1.63-1.52,2.1-.69.47-1.6.71-2.71.71Zm0-2.83c.41,0,.71-.12.92-.37.2-.24.34-.62.41-1.12.07-.5.1-1.13.1-1.9v-10.01c0-.94-.09-1.66-.26-2.17-.18-.51-.55-.76-1.13-.76s-1,.25-1.21.74c-.21.49-.32,1.22-.32,2.18v10.02c0,.78.03,1.42.1,1.92.07.5.21.87.43,1.1.22.24.53.35.96.35Z"/><path class="cls-1" d="m46.66,42.63v-21.48h4.06l3.05,15.7,2.87-15.7h4.09v21.48h-2.92v-8.01l.12-7.35-2.89,15.26h-2.6l-3.02-15.26.12,7.35v8.01h-2.89Z"/><path class="cls-1" d="m63.97,42.63v-21.48h4.06l3.05,15.7,2.87-15.7h4.09v21.48h-2.92v-8.01l.12-7.35-2.89,15.26h-2.6l-3.02-15.26.12,7.35v8.01h-2.89Z"/><path class="cls-1" d="m81.28,42.63v-21.48h7.2v2.82h-3.93v6.25h3.74v2.76h-3.74v6.84h4.08v2.82h-7.35Z"/><path class="cls-1" d="m91.05,42.63v-21.48h2.56l4.55,12.89-.23-5.86v-7.03h2.94v21.48h-2.32l-4.68-13.34.18,5.64v7.7h-3.02Z"/><path class="cls-1" d="m108.5,42.88c-1.04,0-1.91-.24-2.6-.72-.69-.48-1.21-1.18-1.56-2.11-.35-.92-.52-2.04-.52-3.35v-9.36c0-.98.08-1.87.24-2.66.16-.79.43-1.46.79-2.03s.85-.99,1.46-1.29c.61-.3,1.36-.45,2.26-.45.81,0,1.51.13,2.08.4.57.26,1.04.65,1.4,1.14.36.5.63,1.1.79,1.8.17.7.25,1.5.25,2.37v2.95h-3.16v-2.75c0-1.06-.09-1.84-.27-2.34-.18-.5-.54-.75-1.07-.75-.59,0-.99.27-1.19.81-.2.54-.3,1.3-.3,2.26v10.03c0,.75.04,1.36.13,1.84.09.48.23.83.43,1.05.2.22.49.34.85.34.55,0,.93-.26,1.12-.78.2-.52.29-1.35.29-2.48v-3.08h3.21v3.04c0,1.36-.16,2.49-.48,3.4-.32.91-.82,1.59-1.51,2.03-.69.45-1.58.67-2.68.67Z"/><path class="cls-1" d="m115.92,42.63v-21.48h7.2v2.82h-3.93v6.25h3.74v2.76h-3.74v6.84h4.08v2.82h-7.35Z"/><path class="cls-1" d="m125.69,42.63v-21.48h5.41c1.12,0,1.96.22,2.51.66.55.44.92,1.08,1.09,1.93.18.85.26,1.88.26,3.1s-.13,2.25-.38,2.97c-.26.72-.78,1.2-1.57,1.45.37.07.69.22.94.46.25.24.46.59.61,1.05.15.46.27,1.05.34,1.77.07.72.1,1.6.1,2.64v.68c0,.37,0,.82,0,1.32,0,.51,0,1.02.02,1.52,0,.5.02.94.04,1.29.02.36.04.57.06.63h-3.27s-.04-.25-.06-.63c-.01-.38-.02-.86-.04-1.45-.01-.59-.02-1.22-.02-1.89,0-.68,0-1.34,0-2v-1.74c0-.64-.05-1.13-.14-1.46-.09-.33-.26-.56-.51-.69-.25-.13-.6-.21-1.07-.23l-1.05-.06v10.14h-3.27Zm3.28-12.68h1.31c.4,0,.7-.09.91-.27.21-.18.35-.51.43-.99.08-.48.12-1.17.12-2.08v-.13c0-.76-.04-1.34-.11-1.75-.07-.41-.23-.69-.46-.84-.23-.15-.59-.23-1.08-.23h-1.11v6.29Z"/></g></g></svg>