<?xml version="1.0" encoding="UTF-8"?><svg id="Calque_2" xmlns="http://www.w3.org/2000/svg" viewBox="0 0 124.59 77.28"><defs><style>.cls-1{fill:#ede7df;}.cls-2{fill:#b0d236;}.cls-3{fill:none;stroke:#ede7df;stroke-linecap:square;stroke-linejoin:bevel;}</style></defs><g id="btn"><g id="VERIFIER_ROND"><path class="cls-3" d="m117.96,62.9H31.7C14.54,62.9.5,48.86.5,31.7h0C.5,14.54,14.54.5,31.7.5h47.72c17.16,0,31.2,14.04,31.2,31.2"/><polygon class="cls-2" points="118.66 53.79 71.79 53.79 71.79 63.39 118.81 63.39 124.59 58.59 118.66 53.79"/><polygon class="cls-2" points="115.14 49.13 99.46 49.13 82.38 32.17 96.5 32.17 115.14 49.13"/><polygon class="cls-2" points="115.14 67.76 99.46 67.76 88.38 77.28 102.5 77.28 115.14 67.76"/><g id="VERIFIER"><path class="cls-1" d="m44.86,21.79l-2.13-13.75h1.99l.9,6.21.55,4.38h.05l.48-4.38.75-6.21h1.95l-1.96,13.75h-2.59Z"/><path class="cls-1" d="m51.28,21.79v-13.75h4.61v1.8h-2.52v4h2.39v1.77h-2.39v4.38h2.61v1.8h-4.7Zm1.09-14.84l.73-3.23h2.07l-1.59,3.23h-1.22Z"/><path class="cls-1" d="m43.46,40.99v-13.75h3.46c.72,0,1.25.14,1.61.42s.59.69.7,1.23.17,1.2.17,1.98-.08,1.44-.25,1.9-.5.77-1,.93c.24.04.44.14.6.29s.29.38.39.67.17.67.21,1.13.07,1.02.07,1.69v.44c0,.24,0,.52,0,.85s0,.65.01.97.01.6.02.83.02.36.04.41h-2.09s-.03-.16-.04-.4-.02-.55-.02-.93-.01-.78-.02-1.21,0-.86,0-1.28v-1.11c0-.41-.03-.72-.09-.93s-.17-.36-.33-.44-.39-.13-.68-.15l-.67-.04v6.49h-2.09Zm2.1-8.12h.84c.25,0,.45-.06.58-.17s.22-.33.27-.63.07-.75.07-1.33v-.09c0-.48-.02-.86-.07-1.12s-.14-.44-.29-.54-.38-.15-.69-.15h-.71v4.02Z"/><path class="cls-1" d="m51.81,40.99v-13.75h2.09v13.75h-2.09Z"/><path class="cls-1" d="m43.46,60.18v-13.75h4.72v1.82h-2.62v3.66h2.44v1.83h-2.44v6.45h-2.09Z"/><path class="cls-1" d="m50.24,60.18v-13.75h2.09v13.75h-2.09Z"/><path class="cls-1" d="m55,60.18v-13.75h4.61v1.8h-2.52v4h2.39v1.77h-2.39v4.38h2.61v1.8h-4.7Z"/><path class="cls-1" d="m61.81,60.18v-13.75h3.46c.72,0,1.25.14,1.61.42s.59.69.7,1.23c.11.54.17,1.2.17,1.98s-.08,1.44-.25,1.9-.5.77-1,.93c.24.04.44.14.6.29.16.15.29.38.39.67.1.29.17.67.21,1.13s.07,1.03.07,1.69v.44c0,.24,0,.52,0,.85,0,.33,0,.65.01.97,0,.32.01.6.02.83.01.23.02.37.04.41h-2.09s-.03-.16-.04-.4-.02-.55-.02-.93-.01-.78-.02-1.21c0-.43,0-.86,0-1.28v-1.11c0-.41-.03-.72-.09-.93s-.17-.36-.33-.44c-.16-.08-.39-.13-.68-.15l-.67-.04v6.49h-2.09Zm2.1-8.12h.84c.25,0,.45-.06.58-.17.13-.11.22-.33.27-.63.05-.31.07-.75.07-1.33v-.09c0-.48-.02-.86-.07-1.12-.05-.26-.14-.44-.29-.54-.15-.1-.38-.15-.69-.15h-.71v4.02Z"/></g></g></g></svg>