<?xml version="1.0" encoding="UTF-8"?><svg id="Calque_2" xmlns="http://www.w3.org/2000/svg" viewBox="0 0 210.68 57.81"><defs><style>.cls-1{fill:#ede7df;}</style></defs><g id="btn"><g id="Logo"><g id="LES"><path class="cls-1" d="m.81,21.3c-.22,0-.41-.08-.57-.24-.16-.16-.24-.35-.24-.57V1.11c0-.22.08-.41.24-.57s.35-.24.57-.24h6c.22,0,.41.08.57.24.16.16.24.35.24.57v14.04h8.31c.22,0,.41.08.57.24.16.16.24.35.24.57v4.53c0,.22-.08.41-.24.57s-.35.24-.57.24H.81Z"/><path class="cls-1" d="m19.59,21.3c-.22,0-.41-.08-.57-.24-.16-.16-.24-.35-.24-.57V1.11c0-.22.08-.41.24-.57s.35-.24.57-.24h15.39c.22,0,.41.08.57.24s.24.35.24.57v4.23c0,.22-.08.41-.24.57s-.35.24-.57.24h-9v1.89h8.34c.22,0,.41.08.57.24s.24.35.24.57v3.9c0,.22-.08.41-.24.57s-.35.24-.57.24h-8.34v1.89h9.24c.22,0,.41.08.57.24s.24.35.24.57v4.23c0,.22-.08.41-.24.57-.16.16-.35.24-.57.24h-15.63Z"/><path class="cls-1" d="m47.55,21.6c-2.22,0-4.05-.3-5.49-.9-1.44-.6-2.52-1.39-3.24-2.37-.72-.98-1.1-2.02-1.14-3.12,0-.18.06-.33.2-.46.13-.13.28-.2.46-.2h5.7c.32,0,.56.04.73.13.17.09.36.22.56.38.2.14.4.27.61.38.21.11.45.19.72.24.27.05.56.08.88.08.68,0,1.22-.08,1.63-.22.41-.15.62-.36.62-.62,0-.24-.12-.44-.34-.6-.23-.16-.63-.3-1.19-.43s-1.34-.25-2.34-.38c-1.58-.22-2.95-.59-4.11-1.11-1.16-.52-2.05-1.23-2.68-2.14s-.95-2.03-.95-3.34.38-2.56,1.16-3.6c.77-1.04,1.84-1.85,3.21-2.43s2.96-.87,4.79-.87c1.5,0,2.83.2,3.99.58,1.16.39,2.14.9,2.94,1.53s1.41,1.3,1.83,2.02c.42.72.64,1.41.66,2.07,0,.18-.07.33-.2.46-.13.13-.28.2-.43.2h-6c-.28,0-.51-.04-.67-.12-.17-.08-.35-.2-.53-.36-.1-.1-.29-.21-.55-.34-.27-.13-.62-.2-1.04-.2-.5,0-.87.08-1.09.23-.23.15-.35.36-.35.62,0,.18.09.35.27.51.18.16.51.3.99.42.48.12,1.17.24,2.07.36,2,.24,3.6.62,4.82,1.15,1.21.53,2.09,1.24,2.64,2.12s.83,1.97.83,3.27c0,1.46-.44,2.72-1.3,3.78-.87,1.06-2.06,1.88-3.56,2.45-1.5.57-3.2.85-5.1.85Z"/></g><g id="ENIGMES"><path class="cls-1" d="m.81,57.3c-.22,0-.41-.08-.57-.24-.16-.16-.24-.35-.24-.57v-19.38c0-.22.08-.41.24-.57s.35-.24.57-.24h15.39c.22,0,.41.08.57.24s.24.35.24.57v4.23c0,.22-.08.41-.24.57s-.35.24-.57.24H7.2v1.89h8.34c.22,0,.41.08.57.24s.24.35.24.57v3.9c0,.22-.08.41-.24.57-.16.16-.35.24-.57.24H7.2v1.89h9.24c.22,0,.41.08.57.24.16.16.24.35.24.57v4.23c0,.22-.08.41-.24.57-.16.16-.35.24-.57.24H.81Z"/><path class="cls-1" d="m20.82,57.3c-.22,0-.41-.08-.57-.24-.16-.16-.24-.35-.24-.57v-19.38c0-.22.08-.41.24-.57s.35-.24.57-.24h4.74c.4,0,.69.09.87.27.18.18.3.32.36.42l5.07,8.31v-8.19c0-.22.08-.41.24-.57.16-.16.35-.24.57-.24h5.43c.22,0,.41.08.57.24s.24.35.24.57v19.38c0,.22-.08.41-.24.57-.16.16-.35.24-.57.24h-4.74c-.4,0-.69-.09-.87-.29-.18-.19-.3-.32-.36-.41l-5.07-7.65v7.53c0,.22-.08.41-.24.57-.16.16-.35.24-.57.24h-5.43Z"/><path class="cls-1" d="m43.02,57.3c-.22,0-.41-.08-.57-.24-.16-.16-.24-.35-.24-.57v-19.38c0-.22.08-.41.24-.57s.35-.24.57-.24h6.12c.22,0,.41.08.57.24.16.16.24.35.24.57v19.38c0,.22-.08.41-.24.57-.16.16-.35.24-.57.24h-6.12Z"/><path class="cls-1" d="m62.82,57.6c-2.02,0-3.77-.3-5.25-.9-1.48-.6-2.64-1.51-3.48-2.73-.84-1.22-1.3-2.76-1.38-4.62-.02-.82-.03-1.71-.03-2.67s0-1.87.03-2.73c.08-1.78.54-3.26,1.39-4.43.85-1.17,2.03-2.05,3.53-2.64s3.23-.88,5.19-.88c1.58,0,3,.17,4.26.52,1.26.35,2.34.84,3.24,1.46.9.62,1.59,1.33,2.07,2.15.48.81.73,1.67.75,2.56,0,.18-.07.34-.2.47s-.29.19-.46.19h-6.63c-.22,0-.4-.03-.53-.09s-.25-.14-.34-.24c-.08-.1-.2-.24-.34-.43-.15-.19-.37-.36-.65-.51-.28-.15-.67-.23-1.17-.23-.74,0-1.3.19-1.68.56s-.59.93-.63,1.69c-.06,1.66-.06,3.36,0,5.1.04.9.27,1.55.69,1.95.42.4,1,.6,1.74.6.5,0,.94-.07,1.32-.21s.68-.37.9-.69c.22-.32.33-.73.33-1.23v-.03h-1.41c-.22,0-.41-.08-.57-.24-.16-.16-.24-.35-.24-.57v-3.33c0-.22.08-.41.24-.57s.35-.24.57-.24h8.25c.22,0,.41.08.57.24s.24.35.24.57v3.9c0,1.8-.44,3.31-1.32,4.53s-2.09,2.14-3.64,2.78c-1.55.63-3.33.94-5.36.94Z"/><path class="cls-1" d="m76.65,57.3c-.22,0-.41-.08-.57-.24-.16-.16-.24-.35-.24-.57v-19.38c0-.22.08-.41.24-.57s.35-.24.57-.24h4.74c.4,0,.7.11.9.33.2.22.33.38.39.48l4.35,7.2,4.35-7.2c.06-.1.19-.26.39-.48.2-.22.5-.33.9-.33h4.74c.22,0,.41.08.57.24s.24.35.24.57v19.38c0,.22-.08.41-.24.57-.16.16-.35.24-.57.24h-5.43c-.22,0-.41-.08-.57-.24-.16-.16-.24-.35-.24-.57v-8.22l-1.98,3.24c-.1.16-.24.33-.41.5s-.4.25-.71.25h-2.1c-.3,0-.54-.08-.71-.25s-.3-.33-.41-.5l-1.98-3.24v8.22c0,.22-.08.41-.24.57-.16.16-.35.24-.57.24h-5.43Z"/><path class="cls-1" d="m102.33,57.3c-.22,0-.41-.08-.57-.24-.16-.16-.24-.35-.24-.57v-19.38c0-.22.08-.41.24-.57s.35-.24.57-.24h15.39c.22,0,.41.08.57.24s.24.35.24.57v4.23c0,.22-.08.41-.24.57s-.35.24-.57.24h-9v1.89h8.34c.22,0,.41.08.57.24s.24.35.24.57v3.9c0,.22-.08.41-.24.57-.16.16-.35.24-.57.24h-8.34v1.89h9.24c.22,0,.41.08.57.24.16.16.24.35.24.57v4.23c0,.22-.08.41-.24.57-.16.16-.35.24-.57.24h-15.63Z"/><path class="cls-1" d="m130.29,57.6c-2.22,0-4.05-.3-5.49-.9-1.44-.6-2.52-1.39-3.24-2.37-.72-.98-1.1-2.02-1.14-3.12,0-.18.06-.33.2-.46.13-.13.28-.2.46-.2h5.7c.32,0,.56.04.73.13s.36.22.56.38c.2.14.4.27.61.38.21.11.45.19.72.24.27.05.56.08.88.08.68,0,1.22-.08,1.63-.23.41-.15.62-.35.62-.61,0-.24-.12-.44-.34-.6-.23-.16-.63-.3-1.19-.43s-1.34-.25-2.34-.38c-1.58-.22-2.95-.59-4.11-1.11-1.16-.52-2.05-1.23-2.68-2.14s-.95-2.03-.95-3.35.38-2.56,1.16-3.6c.77-1.04,1.84-1.85,3.21-2.43s2.96-.87,4.79-.87c1.5,0,2.83.19,3.99.58,1.16.39,2.14.9,2.94,1.53.8.63,1.41,1.3,1.83,2.02s.64,1.41.66,2.07c0,.18-.07.33-.2.46s-.28.2-.43.2h-6c-.28,0-.51-.04-.67-.12-.17-.08-.35-.2-.53-.36-.1-.1-.29-.21-.55-.34-.27-.13-.62-.2-1.04-.2-.5,0-.87.08-1.09.23-.23.15-.35.35-.35.61,0,.18.09.35.27.51.18.16.51.3.99.42.48.12,1.17.24,2.07.36,2,.24,3.6.63,4.82,1.16,1.21.53,2.09,1.24,2.64,2.12s.83,1.97.83,3.27c0,1.46-.44,2.72-1.3,3.78-.87,1.06-2.06,1.88-3.56,2.45-1.5.57-3.2.85-5.1.85Z"/></g><rect class="cls-1" x="77.72" y=".06" width="132.95" height="21.75"/><rect class="cls-1" x="160.1" y="36.06" width="50.52" height="21.75"/></g></g></svg>