<?xml version="1.0" encoding="UTF-8"?>
<svg id="Calque_2" data-name="Calque 2" xmlns="http://www.w3.org/2000/svg" viewBox="0 0 624 430.2">
  <g id="Calque_2-2" data-name="Calque 2">
    <ellipse cx="312" cy="196" rx="33.3" ry="18.6" fill="#fff"/>
    <g>
      <path d="m232.5,130.9c-2.6,0-4.3,2.8-3.1,5.1l6.9,13.3c.4.7,1.1,1.2,2,1.2h4.5v-19.5,19.5h32.4v-19.6h-42.7Z" fill="#fff" stroke="#000" stroke-miterlimit="10" stroke-width="5"/>
      <path d="m393.9,4.8l-1.7-1.4c-1.6-1.3-3.9-1.1-5.2.5l-102.8,126.2c-.4.5-1,.8-1.7.8h-7.4v19.6h16.3c.7,0,1.4-.3,1.8-.9l77.9-108.2-8.9-5.8,8.9,5.8,23.3-32.4c.9-1.3.7-3.1-.5-4.2Z" fill="#fff" stroke="#000" stroke-miterlimit="10" stroke-width="5"/>
    </g>
    <g>
      <path d="m391.5,130.9c2.6,0,4.3,2.8,3.1,5.1l-6.9,13.3c-.4.7-1.1,1.2-2,1.2h-4.5v-19.5s0,19.5,0,19.5h-32.4v-19.6h42.7Z" fill="#fff" stroke="#000" stroke-miterlimit="10" stroke-width="5"/>
      <path d="m230.1,4.8l1.7-1.4c1.6-1.3,3.9-1.1,5.2.5l102.8,126.2c.4.5,1,.8,1.7.8h7.4v19.6h-16.3c-.7,0-1.4-.3-1.8-.9l-77.9-108.2,8.9-5.8-8.9,5.8-23.3-32.4c-.9-1.3-.7-3.1.5-4.2Z" fill="#fff" stroke="#000" stroke-miterlimit="10" stroke-width="5"/>
    </g>
    <ellipse cx="312" cy="181.9" rx="33.6" ry="13.5" fill="#fff" stroke="#000" stroke-miterlimit="10" stroke-width="5"/>
    <path d="m278.4,182.9v19.2s1.9,12.5,33,12.4c0,0,26.9,1.7,34.2-12.2v-20.5" fill="none" stroke="#000" stroke-miterlimit="10" stroke-width="5"/>
    <text transform="translate(0 342.8)" font-family="UnicaOne-Regular, &apos;Unica One&apos;" font-size="150" letter-spacing="0em"><tspan x="0" y="0">LE HOCKEY</tspan></text>
    <text transform="translate(178.1 417.5)" font-family="UnicaOne-Regular, &apos;Unica One&apos;" font-size="48" letter-spacing="0em"><tspan x="0" y="0">SON HISTOIRE</tspan></text>
  </g>
</svg>