<?xml version="1.0" encoding="UTF-8"?>
<svg id="Calque_2" data-name="Calque 2" xmlns="http://www.w3.org/2000/svg" xmlns:xlink="http://www.w3.org/1999/xlink" viewBox="0 0 623 325">
  <defs>
    <style>
      .cls-1 {
        stroke: #000;
        stroke-miterlimit: 10;
      }

      .cls-1, .cls-2 {
        fill: none;
      }

      .cls-3 {
        fill: url(#Nouveau_motif);
        opacity: .5;
      }
    </style>
    <pattern id="Nouveau_motif" data-name="Nouveau motif" x="0" y="0" width="821.71" height="493.64" patternTransform="translate(-638.5 -450.5)" patternUnits="userSpaceOnUse" viewBox="0 0 821.71 493.64">
      <g>
        <rect class="cls-2" y="0" width="821.71" height="493.64"/>
        <g>
          <path class="cls-1" d="m658.71,79.29s6.33,23.32,31.22,12.91c25-13.69,83.65-46.36,83.65-46.36l-25.79,85.64s-8.19,24.62,17.25,33.18c-1.88,1.3-17.57,8.97-20.55,24.27-1.1-1.44-4.76-7.74-17.32-5.72-12.57,2.02-40.81-7.95-46.5-12.78,4.76,2.12,38.11,18.7,46.19-9.65,8.09-28.35,27.3-95.53,27.3-95.53l-79.68,47.99s-32.37,13.13-3.73,49.25c-2.76-2.22-10.73-12.24-13.87-19.53-1.13-1.75-7.22-14.48-7.6-19.28s-.65-15.68-10.2-18.83c2.5-1.37,14.28-6.26,19.62-25.57Z"/>
          <path class="cls-1" d="m744.03,192.86s-48.19,8.81-66.54-17.39c-.82-1.78-2.84-3.12-1.09-9.86-1.61.96-4.35,2.98-9.38,1.2-5.03-1.78-28.41-13.63-32.05-62.23-.25,2.77-2.7,45.66,32.53,72.87,35.23,27.21,67.34,16.56,76.54,15.42Z"/>
        </g>
        <g>
          <g>
            <path class="cls-1" d="m247.86,326.1s6.33,23.32,31.22,12.91c25-13.69,83.65-46.36,83.65-46.36l-25.79,85.64s-8.19,24.62,17.25,33.18c-1.88,1.3-17.57,8.97-20.55,24.27-1.1-1.44-4.76-7.74-17.32-5.72-12.57,2.02-40.81-7.95-46.5-12.78,4.76,2.12,38.11,18.7,46.19-9.65,8.09-28.35,27.3-95.53,27.3-95.53l-79.68,47.99s-32.37,13.13-3.73,49.25c-2.76-2.22-10.73-12.24-13.87-19.53-1.13-1.75-7.22-14.48-7.6-19.28s-.65-15.68-10.2-18.83c2.5-1.37,14.28-6.26,19.62-25.57Z"/>
            <path class="cls-1" d="m333.18,439.67s-48.19,8.81-66.54-17.39c-.82-1.78-2.84-3.12-1.09-9.86-1.61.96-4.35,2.98-9.38,1.2-5.03-1.78-28.41-13.63-32.05-62.23-.25,2.77-2.7,45.66,32.53,72.87,35.23,27.21,67.34,16.56,76.54,15.42Z"/>
          </g>
          <g>
            <path class="cls-1" d="m537.85,434.08s11.01-5.84,2.94-17.18c-9.73-11.02-32.84-36.8-32.84-36.8l46.01,3.23s13.31,1.32,14.73-12.45c.87.8,6.51,7.82,14.55,7.57-.6.71-3.35,3.27-.91,9.37,2.45,6.09.65,21.43-1.14,24.84.53-2.64,5.07-21.3-10.11-22.14-15.18-.84-51.16-2.86-51.16-2.86l33.21,34.62s10.29,14.79,25.2-3.73c-.8,1.64-4.94,6.79-8.25,9.2-.75.77-6.46,5.28-8.83,6.02s-7.81,2.11-8.31,7.27c-.97-1.1-4.78-6.47-15.1-6.96Z"/>
            <path class="cls-1" d="m585.26,378.23s9.92,23.24-1.17,35.45c-.8.62-1.24,1.78-4.84,1.67.67.7,1.99,1.85,1.67,4.58s-3.62,15.84-27.66,23.2c1.42-.19,23.27-3.84,32.95-24.65,9.68-20.82.67-35.76-.96-40.25Z"/>
          </g>
          <g>
            <path class="cls-1" d="m547.19,51.54s-5.49,14.93,11.84,18.83c18.63,2.18,62.56,7,62.56,7l-46.49,36.13s-13.78,10.09-3.39,24.38c-1.51-.02-12.85-1.88-20.28,5.19-.04-1.19.4-5.97-7.12-9.67-7.51-3.71-18.87-19.82-20.08-24.58,1.74,2.95,13.32,24.56,28.47,12.43,15.14-12.13,51.06-40.86,51.06-40.86l-61.06-4.62s-22.38-5.29-20.77,25.01c-.64-2.24-1.09-10.66,0-15.77.06-1.37,1.64-10.53,3.27-13.24s5.63-8.66,1.7-14c1.86.22,10.05,2.08,20.28-6.25Z"/>
            <path class="cls-1" d="m549.69,145.01s-29.22-13.64-29.08-34.69c.24-1.27-.34-2.76,3.17-5.71-1.23-.1-3.47-.06-5.49-2.93-2.02-2.87-10.05-18.14,6.52-45.62-1.19,1.39-18.85,23.47-10.32,51.5,8.54,28.03,29.83,34.55,35.2,37.45Z"/>
          </g>
          <g>
            <path class="cls-1" d="m206.68,84.53s.48,5.85,6.89,4.46c6.57-2.17,22.02-7.38,22.02-7.38l-9.94,19.31s-3.04,5.52,2.65,8.68c-.51.23-4.59,1.37-5.98,4.89-.2-.39-.79-2.06-3.88-2.13-3.09-.07-9.39-3.7-10.54-5.1,1.04.72,8.27,6.15,11.46-.26s10.74-21.6,10.74-21.6l-21.15,7.94s-8.31,1.71-3.07,11.59c-.56-.65-2.02-3.4-2.45-5.28-.19-.47-1.08-3.78-.96-4.94s.54-3.77-1.6-4.95c.66-.22,3.69-.87,5.81-5.24Z"/>
            <path class="cls-1" d="m222.04,115.42s-11.9-.02-15.12-7.09c-.12-.46-.54-.87.17-2.4-.43.16-1.17.52-2.29-.13s-6.18-4.51-4.9-16.28c-.18.65-2.66,10.78,4.55,18.84,7.21,8.05,15.35,6.93,17.59,7.06Z"/>
          </g>
          <g>
            <path class="cls-1" d="m525.44,242.79s-8.62,2.51-4.58,11.69c5.26,9.2,17.8,30.77,17.8,30.77l-32-9s-9.2-2.87-12.21,6.64c-.5-.69-3.45-6.47-9.16-7.47.53-.42,2.84-1.82,2.01-6.48-.84-4.66,2.67-15.22,4.43-17.37-.76,1.78-6.69,14.29,3.9,17.1,10.59,2.81,35.69,9.49,35.69,9.49l-18.38-29.28s-5.1-11.94-18.33-1.05c.81-1.04,4.47-4.07,7.16-5.29.64-.43,5.33-2.78,7.11-2.96s5.82-.35,6.93-3.92c.53.92,2.43,5.26,9.64,7.12Z"/>
            <path class="cls-1" d="m483.82,275.27s-3.61-17.85,6-24.85c.66-.32,1.14-1.08,3.66-.47-.37-.59-1.14-1.6-.51-3.48s4.87-10.65,22.91-12.34c-1.03-.07-16.98-.69-26.85,12.59-9.87,13.28-5.69,25.14-5.2,28.55Z"/>
          </g>
          <g>
            <path class="cls-1" d="m359.08,200.62s6.27-8.58-4.15-14.27c-11.57-4.82-38.9-15.98-38.9-15.98l36.49-14.68s10.7-3.95,6.65-15.04c.96.29,7.91,3.57,13.98.39-.19.77-1.35,3.76,2.8,7.52,4.15,3.76,8.48,16.2,8.39,19.48-.58-2.22-4.05-18.22-16.01-13.21-11.96,5.01-40.3,16.87-40.3,16.87l38.37,14.17s13.41,7.51,17.94-12.25c0,1.56-1.26,7.05-2.89,10.13-.29.87-2.99,6.46-4.53,7.91s-5.21,4.53-3.66,8.68c-1.16-.48-6.07-3.18-14.17.29Z"/>
            <path class="cls-1" d="m374.63,140.12s16.27,14.13,12.31,27.62c-.39.77-.29,1.83-3.09,3.09.77.29,2.22.67,2.99,2.89s3.13,13.5-12.56,28.11c1.02-.67,16.42-11.62,16.08-31.19s-12.82-27.67-15.74-30.52Z"/>
          </g>
        </g>
        <g>
          <g>
            <path class="cls-1" d="m126.99,187.26s11.01-5.84,2.94-17.18c-9.73-11.02-32.84-36.8-32.84-36.8l46.01,3.23s13.31,1.32,14.73-12.45c.87.8,6.51,7.82,14.55,7.57-.6.71-3.35,3.27-.91,9.37,2.45,6.09.65,21.43-1.14,24.84.53-2.64,5.07-21.3-10.11-22.14-15.18-.84-51.16-2.86-51.16-2.86l33.21,34.62s10.29,14.79,25.2-3.73c-.8,1.64-4.94,6.79-8.25,9.2-.75.77-6.46,5.28-8.83,6.02s-7.81,2.11-8.31,7.27c-.97-1.1-4.78-6.47-15.1-6.96Z"/>
            <path class="cls-1" d="m174.41,131.42s9.92,23.24-1.17,35.45c-.8.62-1.24,1.78-4.84,1.67.67.7,1.99,1.85,1.67,4.58s-3.62,15.84-27.66,23.2c1.42-.19,23.27-3.84,32.95-24.65,9.68-20.82.67-35.76-.96-40.25Z"/>
          </g>
          <g>
            <path class="cls-1" d="m114.58-4.03s-8.62,2.51-4.58,11.69c5.26,9.2,17.8,30.77,17.8,30.77l-32-9s-9.2-2.87-12.21,6.64c-.5-.69-3.45-6.47-9.16-7.47.53-.42,2.84-1.82,2.01-6.48-.84-4.66,2.67-15.22,4.43-17.37-.76,1.78-6.69,14.29,3.9,17.1,10.59,2.81,35.69,9.49,35.69,9.49L102.07,2.06s-5.1-11.94-18.33-1.05c.81-1.04,4.47-4.07,7.16-5.29.64-.43,5.33-2.78,7.11-2.96s5.82-.35,6.93-3.92c.53.92,2.43,5.26,9.64,7.12Z"/>
            <path class="cls-1" d="m72.97,28.45s-3.61-17.85,6-24.85c.66-.32,1.14-1.08,3.66-.47-.37-.59-1.14-1.6-.51-3.48s4.87-10.65,22.91-12.34c-1.03-.07-16.98-.69-26.85,12.59-9.87,13.28-5.69,25.14-5.2,28.55Z"/>
          </g>
        </g>
        <g>
          <g>
            <path class="cls-1" d="m617.54,331.35s.48,5.85,6.89,4.46c6.57-2.17,22.02-7.38,22.02-7.38l-9.94,19.31s-3.04,5.52,2.65,8.68c-.51.23-4.59,1.37-5.98,4.89-.2-.39-.79-2.06-3.88-2.13-3.09-.07-9.39-3.7-10.54-5.1,1.04.72,8.27,6.15,11.46-.26,3.18-6.41,10.74-21.6,10.74-21.6l-21.15,7.94s-8.31,1.71-3.07,11.59c-.56-.65-2.02-3.4-2.45-5.28-.19-.47-1.08-3.78-.96-4.94s.54-3.77-1.6-4.95c.66-.22,3.69-.87,5.81-5.24Z"/>
            <path class="cls-1" d="m632.9,362.24s-11.9-.02-15.12-7.09c-.12-.46-.54-.87.17-2.4-.43.16-1.17.52-2.29-.13s-6.18-4.51-4.9-16.28c-.18.65-2.66,10.78,4.55,18.84,7.21,8.05,15.35,6.93,17.59,7.06Z"/>
          </g>
          <g>
            <path class="cls-1" d="m769.93,447.44s6.27-8.58-4.15-14.27c-11.57-4.82-38.9-15.98-38.9-15.98l36.49-14.68s10.7-3.95,6.65-15.04c.96.29,7.91,3.57,13.98.39-.19.77-1.35,3.76,2.8,7.52,4.15,3.76,8.48,16.2,8.39,19.48-.58-2.22-4.05-18.22-16.01-13.21-11.96,5.01-40.3,16.87-40.3,16.87l38.37,14.17s13.41,7.51,17.94-12.25c0,1.56-1.26,7.05-2.89,10.13-.29.87-2.99,6.46-4.53,7.91s-5.21,4.53-3.66,8.68c-1.16-.48-6.07-3.18-14.17.29Z"/>
            <path class="cls-1" d="m785.49,386.94s16.27,14.13,12.31,27.62c-.39.77-.29,1.83-3.09,3.09.77.29,2.22.67,2.99,2.89s3.13,13.5-12.56,28.11c1.02-.67,16.42-11.62,16.08-31.19s-12.82-27.67-15.74-30.52Z"/>
          </g>
        </g>
        <g>
          <g>
            <path class="cls-1" d="m136.34,298.36s-5.49,14.93,11.84,18.83c18.63,2.18,62.56,7,62.56,7l-46.49,36.13s-13.78,10.09-3.39,24.38c-1.51-.02-12.85-1.88-20.28,5.19-.04-1.19.4-5.97-7.12-9.67-7.51-3.71-18.87-19.82-20.08-24.58,1.74,2.95,13.32,24.56,28.47,12.43,15.14-12.13,51.06-40.86,51.06-40.86l-61.06-4.62s-22.38-5.29-20.77,25.01c-.64-2.24-1.09-10.66,0-15.77.06-1.37,1.64-10.53,3.27-13.24s5.63-8.66,1.7-14c1.86.22,10.05,2.08,20.28-6.25Z"/>
            <path class="cls-1" d="m138.84,391.83s-29.22-13.64-29.08-34.69c.24-1.27-.34-2.76,3.17-5.71-1.23-.1-3.47-.06-5.49-2.93-2.02-2.87-10.05-18.14,6.52-45.62-1.19,1.39-18.85,23.47-10.32,51.5,8.54,28.03,29.83,34.55,35.2,37.45Z"/>
          </g>
          <g>
            <path class="cls-1" d="m114.58,489.6s-8.62,2.51-4.58,11.69c5.26,9.2,17.8,30.77,17.8,30.77l-32-9s-9.2-2.87-12.21,6.64c-.5-.69-3.45-6.47-9.16-7.47.53-.42,2.84-1.82,2.01-6.48-.84-4.66,2.67-15.22,4.43-17.37-.76,1.78-6.69,14.29,3.9,17.1,10.59,2.81,35.69,9.49,35.69,9.49l-18.38-29.28s-5.1-11.94-18.33-1.05c.81-1.04,4.47-4.07,7.16-5.29.64-.43,5.33-2.78,7.11-2.96s5.82-.35,6.93-3.92c.53.92,2.43,5.26,9.64,7.12Z"/>
            <path class="cls-1" d="m72.97,522.09s-3.61-17.85,6-24.85c.66-.32,1.14-1.08,3.66-.47-.37-.59-1.14-1.6-.51-3.48s4.87-10.65,22.91-12.34c-1.03-.07-16.98-.69-26.85,12.59-9.87,13.28-5.69,25.14-5.2,28.55Z"/>
          </g>
        </g>
      </g>
    </pattern>
  </defs>
  <g id="fond">
    <rect class="cls-3" width="623" height="325"/>
  </g>
</svg>