<?xml version="1.0" encoding="UTF-8"?>
<svg id="Calque_2" data-name="Calque 2" xmlns="http://www.w3.org/2000/svg" viewBox="0 0 487.48 112.82">
  <defs>
    <style>
      .cls-1 {
        stroke: #f9b233;
      }

      .cls-1, .cls-2, .cls-3 {
        fill: none;
        stroke-miterlimit: 10;
        stroke-width: 6px;
      }

      .cls-2 {
        stroke: #f39200;
      }

      .cls-3 {
        stroke: #ec691a;
      }

      .cls-4 {
        fill: #1d1d1b;
      }
    </style>
  </defs>
  <g id="Calque_1-2" data-name="Calque 1">
    <g>
      <path class="cls-4" d="m26.36,70.55h4.26l-1.55,11.36h-.46l-.46-4.48-.31,4.48h-14.65l-.31-9.06-.23,9.06h-3.57l-3.64-56.79-4.11.92-.54-4.01.93-.46-1.01-.23-.39-2.29,3.02-.69-3.1-.46-.23-1.26,8.29-.8.47,5.97.31-6.08,5.12-.57.39,14.11.31-14.23,1.94-.23.39,58.74h1.47l.39,4.59.23-4.48,5.27.46v-3.56h1.32l.23,2.98.23-2.98h0ZM10,29.24l-.7,14.91.39,8.37.31-23.29Z"/>
      <path class="cls-4" d="m56.85,71.45v.11h4.65l.31,7.34-3.41-.11,3.41.69.08,1.95-16.51-.92-.46-5.73-.39,5.73-6.98-.46-.54-12.62-.31,12.51-2.64-.11.54-57.48h-3.26l.08-1.95,5.12-1.03-5.04-.34.16-4.7,17.37-.46.77,5.51v-5.62l5.81-.23v3.79l.54-3.78,2.71-.11-.46,12.51-13.72.69-.23-2.53-.23,2.64-2.87.11.46,12.73h.85v11.24l.47-11.24,10-.57.23,1.95-3.57,1.61,3.72-.57.39,3.9-8.45,1.49.31,21.91,15.5-1.49.16,2.75-4.57.92h0Zm-15.12-16.52l-.31-7.69-.39,10.32.39,7,.31-9.64Z"/>
      <path class="cls-4" d="m86.75,18.45l7.44,4.13-2.09,19.04-1.4-.8.54-7.8-1.01,7.46-1.71-.81.16-3.1-.47,2.87-4.57-2.41,1.78-8.6-8.99-1.72-1.09,19.27,2.17.92.23,3.44.08-3.33,9.85,4.24-1.09,9.64-.15,6.2,1.24-15.83,3.33,1.49-4.42,27.88-6.2.23-.23-4.02-.15,4.02-12.64.57-.39-11.81-.23,11.81h-.78l-2.48-20.99,6.2-.34.23,5.05.15-5.05,2.56-.11.54,6.77-3.1,2.06,3.1,7.11,4.96-2.87v-15.95l-6.12-3.67-.39-7.69-.23,7.34-5.27-3.21-2.64-16.52,2.71-3.78.23,8.83.16-9.29,7.05-9.87.31,4.47.15-5.05,3.72-5.16,8.37,4.59.24,7.57.31-7.23Z"/>
      <path class="cls-4" d="m201.46,57l-3.96,14.23-.93-10.09.31,12.27-2.25,8.26-1.78-.46-.39-6.54-.46,6.2-15.35-4.7-.23-4.48-.31,4.36-1.86-.57.54-46.57-3.95-.57.23-3.21,1.78-.23-1.78-.69.39-6.31,5.12,1.49-5.12-2.87.24-2.98,9.69,1.38v2.29l.39-2.29,7.67,1.03.62,7.57.23-7.45,4.88.69.93,5.97-.31,11.93.54-10.44,5.12,32.81Zm-13.49,4.01l2.87-.69-1.86-29.71-4.42-1.03-.46-5.97-.23,5.85-3.18-.69-.93,34.3,1.78-.34.46,2.87.31-3.1,5.04-1.15.23,6.77.39-7.12Zm6.36-26.15l-.23-6.77-.31,9.06.31,6.08.23-8.37Z"/>
      <path class="cls-4" d="m212.85,13.52l3.02,1.15-1.55,67-1.32-.23-.46-17.9-.31,17.78-5.2-.57-2.87-66.08,3.41-.57-.46,12.96.39,9.52.23-22.49,2.02-.23.39,4.36.31-4.48,1.94-.23.31,11.02.15-11.02Z"/>
      <path class="cls-4" d="m246.83,14.09h2.87l-2.4,56.9-1.94-3.9.23-19.27-.7,14.91.23,3.78-8.53-17.55-.23-3.78-.16,3.1-4.42-9.29.23,42.91-2.63-.11-.47-15.72-.08,15.6-3.33-.23-.31-5.73-.16,5.73-1.78-.11,1.09-56.67-4.88.57-.08-2.18,1.78-.46-1.86-.23-.31-4.47,5.58-1.04-5.66-.23-.23-3.1h11.63l2.79,7.35.39,8.83.08-7.46,7.68,19.96-.23-28.34h1.55l.23,3.44.15-3.44h3.65l.23,6.77v-6.54Z"/>
      <path class="cls-4" d="m283.79,72.49l-4.8,3.21-.31-11.59-.16,11.93-7.83,5.39-12.95-6.65-.31-4.93-.08,4.7-4.26-2.18,2.02-55.07,2.09-.69.23,4.02v-4.02l3.1-.8.62,7.11.16-7.34,8.06-2.06,10.7,5.97.7,10.09.08-9.75,2.25,1.26.69,51.39Zm-23.26-41.98l-.7,14.8.39,8.37.31-23.17Zm14.5,32l-1.78-35.56-1.94.23-.46-3.67-.16,3.78-7.6.69.16,31.78,1.71.34.54,6.77.08-6.65,9.46,2.29Z"/>
      <path class="cls-4" d="m310.69,18.45l7.44,4.13-2.09,19.04-1.39-.8.54-7.8-1.01,7.46-1.71-.81.16-3.1-.47,2.87-4.57-2.41,1.78-8.6-8.99-1.72-1.09,19.27,2.17.92.23,3.44.08-3.33,9.85,4.24-1.09,9.64-.15,6.2,1.24-15.83,3.33,1.49-4.42,27.88-6.2.23-.23-4.02-.15,4.02-12.64.57-.39-11.81-.23,11.81h-.78l-2.48-20.99,6.2-.34.23,5.05.15-5.05,2.56-.11.54,6.77-3.1,2.06,3.1,7.11,4.96-2.87v-15.95l-6.12-3.67-.39-7.69-.23,7.34-5.27-3.21-2.64-16.52,2.71-3.78.23,8.83.16-9.29,7.05-9.87.31,4.47.15-5.05,3.72-5.16,8.37,4.59.23,7.57.31-7.23Z"/>
      <path class="cls-4" d="m350.86,77.76l-3.72,1.03-.93-3.21v3.56l-3.49.92-1.16-16.52.54,16.75-3.88,1.15-1.24-18.58-10.86,2.18-1.55,13.88-2.48-1.61v-1.72l-.46,1.38-2.48-1.61,6.9-46.81-4.42-2.29.62-2.75,4.73.57-4.57-1.26,1.32-6.19,2.17,1.26-2.09-1.95.54-2.41,15.89,4.48,1.63,12.51-1.09-12.27,1.32.34,8.76,59.19Zm-11.79-24.55l-1.71-27.08h-2.25v-4.13l-.47,4.13h-3.26l-1.47,25.36,1.32.23v8.03l.54-7.92,7.29,1.38Zm3.87,2.06l-1.39-14.57-.77-5.97.7,11.7,1.47,8.83Z"/>
      <path class="cls-4" d="m379.82,13.29h2.33v61.13l-2.71,2.64-.54-4.7v5.16l-3.96,3.67-12.71-4.48v-5.62l-.39,5.51-4.73-1.72-.31-13.08-.08,12.96-2.33-.8.85-44.51h-3.26l-.08-2.64,2.48-.34-2.56-.23-.16-6.77,7.52-.92.31,8.6.23-8.6,1.63-.11,1.94,46.35,5.82-.34.31,2.87.16-2.98,1.16-.11,2.4-50.71h1.71l.31,4.7.23-4.7h3.88l.47,19.5.08-19.73Zm-5.35,24.89l-.62,16.18.46,9.18.16-25.36Z"/>
      <path class="cls-4" d="m421.29,68.47v-8.71l.93.34v15.71l-7.83,5.39-2.17-1.72-.39-13.54-.23,13.19-4.03-3.21-.16-7.11-.08,6.88-2.33-1.84-.23-15.03-5.27-1.26-.31-10.21-.16,9.98-1.09-.23v24.09l-2.33-.57-.31-11.93-.16,11.93-5.74-1.49,1.01-54.15-4.73.46.16-3.1,3.33-.34-3.33-.23.31-4.13,14.89-2.75.31,6.2.23-6.31,2.33-.57.23,2.75.08-2.75,4.34-.69.31,11.36.16-11.36,7.06,29.83-3.57,2.64-.31-9.98-.16,10.32-5.19,3.9,4.34,1.72,3.26,17.32,2.71-1.15.23,2.87.08-2.98,1.09-.46.7-8.26,1.78.46.23,8.72h0Zm-29.16-37.97l-.46,14.68.31,8.26.16-22.94Zm13.72,10.55l-1.55-12.85-3.18-4.01h-2.95l-.08-3.21-.08,3.21h-1.63l.85,19.16,5.43-1.38.16,6.31.08-6.42,2.94-.81Z"/>
      <path class="cls-4" d="m449.31,71.45v.11h4.65l.31,7.34-3.41-.11,3.41.69.08,1.95-16.51-.92-.46-5.73-.39,5.73-6.98-.46-.54-12.62-.31,12.51-2.64-.11.54-57.48h-3.26l.08-1.95,5.12-1.03-5.04-.34.16-4.7,17.37-.46.77,5.51v-5.62l5.81-.23v3.79l.54-3.78,2.71-.11-.46,12.51-13.72.69-.23-2.53-.23,2.64-2.87.11.46,12.73h.85v11.24l.46-11.24,10-.57.23,1.95-3.57,1.61,3.72-.57.39,3.9-8.45,1.49.31,21.91,15.5-1.49.16,2.75-4.57.92h0Zm-15.12-16.52l-.31-7.69-.39,10.32.39,7,.31-9.64Z"/>
      <path class="cls-4" d="m479.21,18.45l7.44,4.13-2.09,19.04-1.39-.8.54-7.8-1.01,7.46-1.71-.81.16-3.1-.47,2.87-4.57-2.41,1.78-8.6-8.99-1.72-1.09,19.27,2.17.92.23,3.44.08-3.33,9.85,4.24-1.09,9.64-.15,6.2,1.24-15.83,3.33,1.49-4.42,27.88-6.2.23-.23-4.02-.15,4.02-12.64.57-.39-11.81-.23,11.81h-.78l-2.48-20.99,6.2-.34.23,5.05.15-5.05,2.56-.11.54,6.77-3.1,2.06,3.1,7.11,4.96-2.87v-15.95l-6.12-3.67-.39-7.69-.23,7.34-5.27-3.21-2.64-16.52,2.71-3.78.23,8.83.16-9.29,7.05-9.87.31,4.47.15-5.05,3.72-5.16,8.37,4.59.23,7.57.31-7.23Z"/>
    </g>
    <rect class="cls-3" x="103.15" y="16.87" width="58.95" height="58.95" rx="14.79" ry="14.79" transform="translate(71.61 -80.21) rotate(45)"/>
    <rect class="cls-2" x="103.15" y="31.7" width="58.95" height="58.95" rx="14.79" ry="14.79" transform="translate(82.1 -75.86) rotate(45)"/>
    <rect class="cls-1" x="103.15" y="44.79" width="58.95" height="58.95" rx="14.79" ry="14.79" transform="translate(91.35 -72.03) rotate(45)"/>
  </g>
</svg>