<svg width="324" height="114" viewBox="0 0 324 114" fill="none" xmlns="http://www.w3.org/2000/svg">
<rect x="2" y="2" width="320" height="110" fill="#FF7575" fill-opacity="0.5"/>
<path d="M4.96487 38.6559C5.51966 28.0391 4.96487 30.7639 4.96487 19.9944C4.96487 15.2739 2 8.71072 4.96487 4.73623H41.3057C59.9612 4.73623 78.1137 3.40989 96.8759 3.40989C126.844 3.40989 155.921 2.08354 185.737 2.08354C207.289 2.08354 228.862 3.40989 250.626 3.40989C270.387 3.40989 293.154 5.85733 312.295 2.15722C320.83 0.507496 319.715 12.2779 319.715 16.9966V50.9978C319.715 60.9601 321.773 77.6534 319.715 87.4991C318.356 93.9993 323.206 99.4995 321.71 109.518C317.221 113.5 294.19 108.764 290.288 109.518C283.027 110.921 274.53 109.518 266.975 109.518C252.208 109.518 236.535 110.844 221.684 110.844C210.874 110.844 208.712 112 193.245 112C186.81 111.139 176.244 110.844 169.727 110.844H118.562C98.1169 110.844 77.9597 109.518 57.6549 109.518C45.264 109.518 30.8042 111.549 18.7727 109.223C11.1733 107.754 2 109.048 2 100.897C2 92.2324 2.0001 77.7149 2.7624 69.1378C3.19581 64.2612 4.44086 56.1901 4.96487 52.5436C5.70743 47.3762 4.69451 43.8298 4.96487 38.6559Z" fill="white" fill-opacity="0.5" stroke="black" stroke-width="3" stroke-linecap="round"/>
</svg>
