<svg width="325" height="114" viewBox="0 0 325 114" fill="none" xmlns="http://www.w3.org/2000/svg">
<line x1="288.931" y1="109.947" x2="321.683" y2="76.6954" stroke="#00A3FF" stroke-width="3"/>
<line x1="256.937" y1="109.941" x2="321.316" y2="45.3151" stroke="#00A3FF" stroke-width="3"/>
<line x1="222.939" y1="110.939" x2="320.939" y2="12.9393" stroke="#00A3FF" stroke-width="3"/>
<line x1="188.944" y1="111.934" x2="297.944" y2="3.93448" stroke="#00A3FF" stroke-width="3"/>
<line x1="159.939" y1="109.939" x2="265.939" y2="3.93935" stroke="#00A3FF" stroke-width="3"/>
<line x1="127.939" y1="109.939" x2="234.939" y2="2.93934" stroke="#00A3FF" stroke-width="3"/>
<line x1="93.9393" y1="110.939" x2="202.939" y2="1.93934" stroke="#00A3FF" stroke-width="3"/>
<line x1="61.9393" y1="109.939" x2="169.939" y2="1.93933" stroke="#00A3FF" stroke-width="3"/>
<line x1="30.9393" y1="109.939" x2="137.939" y2="2.93933" stroke="#00A3FF" stroke-width="3"/>
<line x1="2.68885" y1="105.69" x2="105.19" y2="3.18885" stroke="#00A3FF" stroke-width="3"/>
<line x1="1.43592" y1="75.4428" x2="72.9395" y2="3.93922" stroke="#00A3FF" stroke-width="3"/>
<line x1="4.93934" y1="44.9393" x2="44.9393" y2="4.93934" stroke="#00A3FF" stroke-width="3"/>
<line x1="3.68299" y1="14.6959" x2="13.1961" y2="5.18278" stroke="#00A3FF" stroke-width="3"/>
<path d="M5.31053 38.6559C5.86646 28.0391 5.31053 30.7639 5.31053 19.9944C5.31053 15.2739 2.33954 8.71072 5.31053 4.73623H41.7264C60.4204 4.73623 78.6103 3.40989 97.4113 3.40989C127.441 3.40989 156.578 2.08354 186.456 2.08354C208.053 2.08354 229.67 3.40989 251.478 3.40989C271.281 3.40989 294.094 5.85733 313.275 2.15722C321.827 0.507496 320.71 12.2779 320.71 16.9966V50.9978C320.71 60.9601 322.772 77.6534 320.71 87.4991C319.349 93.9993 324.209 99.4995 322.709 109.518C318.211 113.5 295.133 108.764 291.222 109.518C283.946 110.921 275.432 109.518 267.861 109.518C253.064 109.518 237.358 110.844 222.477 110.844C211.644 110.844 209.478 112 193.98 112C187.531 111.139 176.943 110.844 170.413 110.844H119.142C98.6548 110.844 78.456 109.518 58.1093 109.518C45.6928 109.518 31.2032 111.549 19.1469 109.223C11.5318 107.754 2.33954 109.048 2.33954 100.897C2.33954 92.2324 1.57562 77.577 2.33948 69C2.77379 64.1234 4.78543 56.1901 5.31053 52.5436C6.05462 47.3762 5.03961 43.8298 5.31053 38.6559Z" fill="white" fill-opacity="0.5" stroke="black" stroke-width="3" stroke-linecap="round"/>
</svg>
