<?xml version="1.0" encoding="utf-8"?>
<!-- Generator: Adobe Illustrator 26.5.0, SVG Export Plug-In . SVG Version: 6.00 Build 0)  -->
<svg version="1.1" xmlns="http://www.w3.org/2000/svg" xmlns:xlink="http://www.w3.org/1999/xlink" x="0px" y="0px"
	 viewBox="0 0 585.8 343.7" style="enable-background:new 0 0 585.8 343.7;" xml:space="preserve">
<style type="text/css">
	.st0{fill:#FF9FA2;}
	.st1{fill:#FFA3CF;}
	.st2{fill:#C19FFF;}
	.st3{fill:#ECB6FF;}
	.st4{fill:#FFC8EE;}
</style>
<g id="vecteur">
	<path class="st0" d="M473.7,132.1c0,0,107.7-57.6,111.7-132.1c-0.5,74.5,0,96,0,96S520.7,135.5,473.7,132.1L473.7,132.1z"/>
	<path class="st1" d="M473.7,143.4c0,0,76.1-6.8,111.7-33.9c0.6,46.3,0,79.1,0,79.1S486.8,170.5,473.7,143.4L473.7,143.4z"/>
	<path class="st2" d="M473.7,235.3c0,0,46.7,33.9,111.7,44.1c0.6,55.3,0.3,64.4,0.3,64.4S485.7,275.9,473.7,235.3L473.7,235.3z"/>
	<path class="st3" d="M473.7,218.3c0,0,82.9,54.6,111.7,39.6v-47.2C585.4,210.6,553.3,207.3,473.7,218.3L473.7,218.3z"/>
	<path class="st4" d="M473.7,160.9c0,0,74.3,38.1,112.1,40.5c-68.4-2.1-112.1,8.7-112.1,8.7L473.7,160.9L473.7,160.9z"/>
	<polygon points="220.5,276.8 230.6,276.8 230.5,326.8 468.5,327 468.8,260.5 478.8,260.5 478.8,336.8 220.5,336.8 	"/>
	<polygon points="478.8,121.5 468.7,121.5 468.8,89 230.8,88.8 230.6,168.6 220.6,168.6 220.5,79 478.8,79 	"/>
</g>
<g id="titre">
	<path id="n" d="M458.9,216.1c0,6.6-0.4,11.5-0.7,13.2c-0.2,1.1-1.3,1.6-2.4,1.6c-1.9,0-4.6-0.8-4.6-2.5c0-2.4,1.2-6,1.2-17.4
		c0-13.2-0.2-22.2-5.9-22.2c-6.2,0-14.3,10-15.6,17c-0.7,3.8-0.8,13.6-0.8,16.6c0,1.7,0.7,3.6,0.7,5.5c0,2.3-1.1,3.2-3.1,3.2
		c-3.1,0-4-1.3-3.7-4c0.1-1.2,0.1-2.5,0.1-3.8v-18.4c0-10-1-16.4-1-18.7c0-2.2,1.6-2.9,3.5-2.9c3.5,0,3.4,2.4,3.4,5.2
		s-0.1,4.9-0.1,7.1c3.7-7.3,9.1-12.8,16.1-12.8c5.6,0,10.7,5.8,11.9,13.2C458.8,201.8,458.9,207.8,458.9,216.1L458.9,216.1z"/>
	<path id="o" d="M413.8,204c0,13.8-10,26.6-22.1,26.6c-3.6,0-6.5-1.2-8.5-2.6c-4-2.9-5.5-6-5.5-11.8c0-13.2,9.8-32.9,19.2-32.9
		c1.1,0,2.4,0.2,3,0.5c1.6,0.6,1.9,0.6,4.1,0.6c1.4,0,3.1,1.1,3.1,3.4c0,0.6-0.1,1.1-0.4,1.4c2.8,2.6,5.2,6.5,5.6,7.6
		C413.3,199,413.8,200.1,413.8,204L413.8,204z M407.4,203.6c0-10.4-7.1-9.7-7.8-13.9h-0.5c-7.8,0-15.2,17.2-15.2,26.3
		c0,6.2,2.2,9.4,6.5,9.4s8.5-2.9,11.6-6.4C405.4,215.1,407.4,209.4,407.4,203.6L407.4,203.6z"/>
	<path id="i" d="M358.2,167c0-2,1.4-3.8,4.9-3.8c1.9,0,6.2,1.3,6.2,4.9c0,3-2,5.9-3.8,5.9C361.2,174,358.2,170.4,358.2,167z
		 M360.8,226.3v-12c0-5.9-0.4-12-0.4-16.8c0-4,0-7.7,0.2-11.5c0.1-1.9,1.8-2.8,3.5-2.8c2,0,3.2,0.7,3.2,3.4c0,4.2-0.2,8.2-0.2,12.4
		c0,5.6,0.2,12.7,0.6,19.6c0.1,2.4,0.8,5.3,0.8,8.5c0,1.4-1.2,3.1-3.1,3.1C362.3,230.1,360.8,228.7,360.8,226.3L360.8,226.3z"/>
	<path id="t" d="M350.4,214.6c0,4.6-4,10.5-8.2,12.8c-4.6,2.4-7,2.7-10,2.7c-8.9,0-14.9-7.2-16-16.9c-0.9-7.6-1.2-11.6-1.2-16.4
		c0-3.9,0-6.8-0.1-8.1s-0.6-2.2-1.8-3c-2.5-1.6-3.5-3-3.5-4.2c0-2.9,2.2-4.2,6-4.8v-4.1c0-3.6,0-10.8,0.1-15.6
		c0.5-13.2,0.8-16.5,5.7-16.5c2.2,0,3.6,1.4,3.6,3.9c0,1.5-0.3,5.2-0.6,8.9c-0.3,3.4-0.6,13.5-0.9,22.5c2.9-0.3,5.5-0.8,7.2-1.1
		c4.5-0.8,14.1-2.2,16.4-2.2c1.4,0,2.1,0.8,2.1,3c0,3.3-1.6,4.8-4,4.9c-4.6,0.3-9.8,1.4-15.9,2.4c-1.8,0.3-3.6,0.6-5.9,0.9v5.6
		c0,7.9,0,13.6,0.8,19.8c1,8.9,2.1,14.4,9.1,14.4c3,0,6.3-2.1,9.5-9.6c1-2.6,2.1-3.4,3.6-3.4C348.6,210.4,350.4,212.2,350.4,214.6
		L350.4,214.6z"/>
	<path id="a" d="M298.7,227.2c0,1.2-2,2.4-4.1,2.4c-3.8,0-3.6-6.2-3.6-14.3c0-1.4,0.1-4.4,0.4-7.6c-3.4,6.2-5.5,9.8-8.3,13.8
		c-3,4.4-7.1,8.6-12.2,8.6c-6.1,0-10.9-4-10.9-10.8c0-4.1,2.6-13.3,7-21c4.8-8.5,11.3-15.5,17.9-15.5c4.8,0,6.5,2.2,8.2,6.7
		c0.4,1,0.8,2,1.8,2.5c1.4,0.6,3.1,1,3.2,2.8c0.2,2.8-1,10.4-1.3,15.5c-0.2,3.1-0.2,6.6,0,8.8C297,222.2,298.7,225.9,298.7,227.2
		L298.7,227.2z M288,201.6c-0.7-0.6-1-1.4-1-2.3c0-0.7,0.1-1.7,0.5-2.8c0.6-1.8,0.7-3,0.7-3.8c0-1.9-0.6-4.2-2.8-4.2
		c-5.2,0-13.8,13.9-17,22.4c-1.2,3.2-1.8,7.3-1.8,9.8c0,1.3,0.6,3.5,3,3.5C276,224.2,284.7,209.6,288,201.6L288,201.6z"/>
	<path id="m" d="M251.2,224.5c0.1,1.1,0.4,1.8,0.4,2.3c0,2.3-0.8,3.8-2.3,3.8c-4.3,0-5-1.4-5-4.6c0-2.2,0.4-7,0.6-10
		c0.2-2.5,0.4-13.1,0.4-18.5c0-5.8,0-7-1.9-7c-7.8,0-15.7,12.1-16,21.1c-0.1,3.8-0.1,8.6-0.1,10v3.4c0,3.2-0.5,4.8-4.1,4.8
		c-2,0-2.8-1.2-2.8-3c0-2.6,0.2-9.1,0.4-11.9c0.1-2.4,0.1-7.9,0.1-14.6c0-7.3-0.1-12-3.5-12c-5.6,0-16.1,17.8-16.1,28.2
		c0,3.2,0,5.3,0.4,7.8c0.1,0.8,0.1,1.6,0.1,2.4c0,2.6-1,3.6-3.5,3.6c-2.8,0-3.7-1.6-3.8-3.8c-0.1-3.4-0.2-8.5-0.2-12.6
		s-0.6-15.8-1-18.8c-0.5-3.6-1-7.2-1-10.2c0-2.2,0.7-2.3,2.3-2.3c1.8,0,4.2,1.4,4.4,3.7l0.5,8.2c0.1,1,0.1,2.9,0.2,5.3
		c4-8.5,10.9-17,18.2-17s8.8,6.2,8.9,13.9c4.9-6.7,10.7-12,16.8-12c7.3,0,8,7.8,8,14.8c0,5.2,0.1,10.3-0.4,15.5
		c-0.1,1.4-0.2,3.5-0.2,5.5C251.1,221.6,251.1,223.4,251.2,224.5z"/>
	<path id="i_00000148629193109979152760000012573448767880992934_" d="M170.6,167c0-2,1.4-3.8,4.9-3.8c1.9,0,6.2,1.3,6.2,4.9
		c0,3-2,5.9-3.8,5.9C173.6,174,170.6,170.4,170.6,167z M173.1,226.3v-12c0-5.9-0.4-12-0.4-16.8c0-4,0-7.7,0.2-11.5
		c0.1-1.9,1.8-2.8,3.5-2.8c2,0,3.2,0.7,3.2,3.4c0,4.2-0.2,8.2-0.2,12.4c0,5.6,0.2,12.7,0.6,19.6c0.1,2.4,0.8,5.3,0.8,8.5
		c0,1.4-1.2,3.1-3.1,3.1C174.7,230.1,173.1,228.7,173.1,226.3L173.1,226.3z"/>
	<path id="n_00000047024935763404153240000014440363557528099995_" d="M160.1,216.1c0,6.6-0.4,11.5-0.7,13.2
		c-0.2,1.1-1.3,1.6-2.4,1.6c-1.9,0-4.6-0.8-4.6-2.5c0-2.4,1.2-6,1.2-17.4c0-13.2-0.2-22.2-5.9-22.2c-6.2,0-14.3,10-15.6,17
		c-0.7,3.8-0.8,13.6-0.8,16.6c0,1.7,0.7,3.6,0.7,5.5c0,2.3-1.1,3.2-3.1,3.2c-3.1,0-4-1.3-3.7-4c0.1-1.2,0.1-2.5,0.1-3.8v-18.4
		c0-10-1-16.4-1-18.7c0-2.2,1.6-2.9,3.5-2.9c3.5,0,3.4,2.4,3.4,5.2s-0.1,4.9-0.1,7.1c3.7-7.3,9.1-12.8,16.1-12.8
		c5.6,0,10.7,5.8,11.9,13.2C160,201.8,160.1,207.8,160.1,216.1L160.1,216.1z"/>
	<path id="a_00000137124910282146197960000011281498631472301189_" d="M113.8,227.2c0,1.2-2,2.4-4.1,2.4c-3.8,0-3.6-6.2-3.6-14.3
		c0-1.4,0.1-4.4,0.4-7.6c-3.4,6.2-5.5,9.8-8.3,13.8c-3,4.4-7.1,8.6-12.2,8.6c-6.1,0-10.9-4-10.9-10.8c0-4.1,2.6-13.3,7-21
		c4.8-8.5,11.3-15.5,17.9-15.5c4.8,0,6.5,2.2,8.2,6.7c0.4,1,0.8,2,1.8,2.5c1.4,0.6,3.1,1,3.2,2.8c0.2,2.8-1,10.4-1.3,15.5
		c-0.2,3.1-0.2,6.6,0,8.8C112.1,222.2,113.8,225.9,113.8,227.2L113.8,227.2z M103.1,201.6c-0.7-0.6-1-1.4-1-2.3
		c0-0.7,0.1-1.7,0.5-2.8c0.6-1.8,0.7-3,0.7-3.8c0-1.9-0.6-4.2-2.8-4.2c-5.2,0-13.8,13.9-17,22.4c-1.2,3.2-1.8,7.3-1.8,9.8
		c0,1.3,0.6,3.5,3,3.5C91.1,224.2,99.8,209.6,103.1,201.6z"/>
	<path id="apostrophe" d="M78.8,168.3c0,5.6-4.4,12.2-8,12.2c-1.7,0-3.2-0.6-3.2-2.6c0-1.2,0.5-1.8,1.7-2.8c2.6-2.2,3.7-4.6,3.7-7.1
		v-0.2c-1,0.4-2,0.5-3,0.5c-1.9,0-5.3-3-5.3-6.5c0-2.2,1.6-4.1,6.4-4.1C76.6,157.8,78.8,162.6,78.8,168.3z"/>
	<path id="l" d="M35,219.6c0,0.7-0.1,1.4-0.9,3.6c-0.8,2.3-1.5,4.3-3.7,4.7c-6.8,1.1-13.4,2-19.2,2.7c-2.4,0.4-7.1,0.7-8.2,0.7
		c-2.5,0-3.1-3.4-3-6.8c0.2-7.7,0.9-22.1,1.6-40.1c0.4-9.7,0.9-19.4,1.6-29.2l1.3-18c0.2-2.7-0.1-6.7,0.9-10.1
		c0.5-2,1.4-2.9,2.5-2.9c1.3,0,3.7,1.3,3.7,4.7c0,1.3-0.2,2.9-0.5,5.2c-0.3,2.7-0.8,6.8-1.1,11c-1.4,17.8-2.7,39.6-3.1,56.5
		c-0.2,7.4-0.4,15.5-0.7,20.9c3.3-0.5,10.8-1.6,13.4-2.2c4.5-0.9,6.7-1.4,9.9-2.7c2.3-0.9,3.1-1.1,3.5-1.1
		C34.3,216.5,35,217.8,35,219.6L35,219.6z"/>
</g>
<g id="soustitre">
	<path id="t_00000089562484631680071390000018018421670500821888_" d="M330.9,249.1h-5v-1.9h12.1v1.9h-5v15h-2.1L330.9,249.1
		L330.9,249.1z"/>
	<path id="n_00000101789515990505085600000007175953974701097353_" d="M311.9,264.1v-16.9h2.3l5.2,8.5c1.2,2,2.2,3.8,2.9,5.5l0,0
		c-0.2-2.2-0.2-4.3-0.2-6.9v-7.1h2v16.9H322l-5.2-8.6c-1.1-1.9-2.2-3.8-3-5.6l-0.1,0c0.1,2.1,0.2,4.1,0.2,7v7.2L311.9,264.1
		L311.9,264.1z"/>
	<path id="e" d="M308.4,256.2H302v6.1h7.1v1.8h-9.2v-16.9h8.8v1.8H302v5.3h6.4L308.4,256.2L308.4,256.2z"/>
	<path id="m_00000086654365825895227310000008707947803740797620_" d="M294.2,256.7c-0.1-2.4-0.3-5.2-0.2-7.3h-0.1
		c-0.6,2-1.2,4.1-2.1,6.4L289,264h-1.6l-2.6-8c-0.8-2.4-1.4-4.6-1.9-6.6h0c0,2.1-0.2,4.9-0.3,7.5l-0.4,7.2h-2l1.1-16.9h2.7l2.8,8.1
		c0.7,2.1,1.2,3.9,1.6,5.7h0.1c0.4-1.7,1-3.5,1.7-5.7l2.9-8.1h2.7l1,16.8h-2.1L294.2,256.7L294.2,256.7z"/>
	<path id="e_00000180336824239237829440000013561232149066690689_" d="M277,256.2h-6.4v6.1h7.1v1.8h-9.2v-16.9h8.8v1.8h-6.7v5.3h6.4
		L277,256.2L277,256.2z"/>
	<path id="v" d="M258.6,264.1l-5.3-16.9h2.3l2.6,8.3c0.7,2.3,1.3,4.3,1.8,6.3h0c0.5-2,1.1-4.1,1.9-6.3l2.8-8.3h2.2l-5.8,16.9
		L258.6,264.1L258.6,264.1z"/>
	<path id="u" d="M241.4,247.2v10c0,3.8,1.6,5.4,3.8,5.4c2.4,0,4-1.6,4-5.4v-10h2.1v9.8c0,5.2-2.6,7.3-6.2,7.3c-3.4,0-5.9-2-5.9-7.2
		v-9.9L241.4,247.2L241.4,247.2z"/>
	<path id="o_00000144304774410114020640000006256754712657915782_" d="M236.6,255.5c0,5.8-3.4,8.9-7.6,8.9s-7.4-3.5-7.4-8.6
		c0-5.4,3.2-8.9,7.6-8.9S236.6,250.5,236.6,255.5L236.6,255.5z M223.9,255.8c0,3.6,1.9,6.8,5.2,6.8s5.2-3.2,5.2-7
		c0-3.4-1.7-6.9-5.2-6.9S223.9,252.1,223.9,255.8L223.9,255.8z"/>
	<path id="m_00000161625051439965614110000016647690030999456928_" d="M216.9,256.7c-0.1-2.4-0.3-5.2-0.2-7.3h-0.1
		c-0.6,2-1.2,4.1-2.1,6.4l-2.9,8.2H210l-2.6-8c-0.8-2.4-1.4-4.6-1.9-6.6h-0.1c-0.1,2.1-0.2,4.9-0.3,7.5l-0.4,7.2h-2l1.1-16.9h2.7
		l2.8,8.1c0.7,2.1,1.2,3.9,1.6,5.7h0.1c0.4-1.7,1-3.5,1.7-5.7l2.9-8.1h2.7l1,16.8h-2.1L216.9,256.7L216.9,256.7z"/>
	<path id="u_00000008868390080878221210000016152093286046458799_" d="M184.4,247.2v10c0,3.8,1.6,5.4,3.8,5.4c2.4,0,4-1.6,4-5.4v-10
		h2.1v9.8c0,5.2-2.6,7.3-6.2,7.3c-3.4,0-5.9-2-5.9-7.2v-9.9L184.4,247.2L184.4,247.2z"/>
	<path id="d" d="M166.1,247.5c1.3-0.2,2.8-0.4,4.5-0.4c3,0,5.2,0.7,6.6,2.1c1.5,1.4,2.3,3.3,2.3,6.1c0,2.7-0.8,5-2.4,6.5
		c-1.5,1.6-4.1,2.4-7.2,2.4c-1.5,0-2.8-0.1-3.8-0.2V247.5L166.1,247.5z M168.2,262.4c0.5,0.1,1.3,0.1,2.1,0.1c4.5,0,7-2.6,7-7.1
		c0-4-2.2-6.5-6.6-6.5c-1.1,0-1.9,0.1-2.5,0.2L168.2,262.4L168.2,262.4z"/>
	<path id="t_00000031170103908643966240000007521498603213775242_" d="M152,249.1h-5v-1.9h12.1v1.9h-5v15H152L152,249.1L152,249.1z"
		/>
	<path id="r" d="M135.6,247.5c1.1-0.2,2.6-0.4,4.1-0.4c2.3,0,3.7,0.4,4.7,1.4c0.8,0.8,1.3,1.9,1.3,3.2c0,2.2-1.4,3.7-3.1,4.3v0.1
		c1.3,0.5,2,1.6,2.4,3.4c0.5,2.4,0.9,4,1.3,4.6h-2.2c-0.3-0.5-0.6-1.9-1.1-4c-0.5-2.3-1.4-3.2-3.3-3.3h-2v7.3h-2.1L135.6,247.5
		L135.6,247.5z M137.8,255.1h2.2c2.2,0,3.7-1.3,3.7-3.2c0-2.2-1.5-3.1-3.8-3.1c-1,0-1.8,0.1-2.1,0.2L137.8,255.1L137.8,255.1z"/>
	<path id="a_00000132769381051049177520000008891379420219159714_" d="M123.4,258.8l-1.7,5.3h-2.2l5.6-16.9h2.6l5.6,16.9H131
		l-1.8-5.3C129.2,258.8,123.5,258.8,123.4,258.8z M128.8,257.1l-1.6-4.9c-0.4-1.1-0.6-2.1-0.8-3.1h-0.1c-0.2,1-0.5,2-0.8,3.1
		l-1.6,4.9H128.8z"/>
	<path id="apostrophe_00000075163338072949779540000001189555484204403847_" d="M120.6,247c-0.6,2.1-1.6,4.8-2.3,5.9l-1.4,0.2
		c0.5-1.5,1.2-4.1,1.4-5.9L120.6,247z"/>
	<path id="l_00000119816792617775705080000005254108464917861784_" d="M109,247.2h2.1v15h7v1.8H109V247.2L109,247.2z"/>
</g>
</svg>
