<?xml version="1.0" standalone="no"?>
<!DOCTYPE svg PUBLIC "-//W3C//DTD SVG 20010904//EN"
 "http://www.w3.org/TR/2001/REC-SVG-20010904/DTD/svg10.dtd">
<svg version="1.0" xmlns="http://www.w3.org/2000/svg"
 width="1200.000000pt" height="1200.000000pt" viewBox="0 0 1200.000000 1200.000000"
 preserveAspectRatio="xMidYMid meet">
<metadata>
Created by potrace 1.14, written by Peter Selinger 2001-2017
</metadata>
<g transform="translate(0.000000,1200.000000) scale(0.100000,-0.100000)"
fill="#000000" stroke="none">
<path d="M1703 9318 c1 -1475 6 -2699 10 -2718 8 -43 18 -103 22 -133 2 -22
14 -87 21 -117 25 -112 37 -158 44 -175 4 -11 14 -42 21 -70 6 -27 15 -54 18
-60 3 -5 6 -12 7 -15 1 -6 -4 7 74 -205 35 -93 71 -188 80 -210 10 -22 28 -65
40 -95 22 -55 30 -74 70 -165 24 -53 42 -97 45 -105 1 -3 18 -38 37 -78 20
-40 37 -74 37 -75 -1 -9 180 -363 205 -402 7 -11 14 -24 16 -30 1 -5 15 -28
30 -50 30 -44 61 -101 60 -111 -1 -3 8 -14 19 -23 12 -10 21 -22 21 -27 0 -5
18 -36 40 -69 22 -33 46 -68 53 -79 17 -27 145 -204 157 -219 6 -6 24 -30 41
-52 143 -186 346 -389 509 -509 41 -31 80 -60 87 -66 6 -5 27 -18 45 -28 18
-11 56 -32 83 -48 42 -25 123 -63 220 -104 40 -17 130 -44 139 -42 4 2 14 -3
22 -9 8 -6 14 -9 14 -6 0 3 17 1 38 -4 56 -13 140 -22 206 -23 l59 -1 0 3245
c-1 3024 -2 3313 -18 3380 -3 14 -7 39 -9 55 -2 17 -6 37 -9 45 -4 12 -29 103
-33 120 -1 6 -12 35 -24 65 -36 90 -50 130 -50 141 0 8 -4 14 -10 14 -5 0 -10
7 -10 15 0 15 -149 313 -169 337 -6 7 -40 57 -75 110 -36 54 -70 103 -75 110
-6 7 -41 51 -78 98 -54 68 -274 296 -343 354 -109 92 -279 212 -400 284 -92
54 -322 171 -350 177 -3 1 -27 11 -53 23 -27 12 -54 22 -61 22 -7 0 -16 4 -22
10 -5 5 -18 11 -29 13 -17 2 -79 23 -135 45 -8 3 -19 6 -25 7 -5 1 -42 11 -80
23 -39 12 -81 23 -95 26 -14 2 -25 5 -25 6 0 1 -7 3 -15 5 -8 1 -60 12 -115
25 -101 22 -118 25 -190 35 -22 3 -52 8 -68 11 l-27 6 3 -2684z"/>
<path d="M1704 4070 c1 -784 5 -1434 8 -1445 3 -11 9 -49 13 -85 11 -102 20
-163 31 -214 3 -11 7 -30 9 -41 9 -39 15 -65 20 -85 3 -11 7 -29 9 -39 24
-107 97 -327 155 -466 45 -107 164 -339 187 -366 8 -8 14 -19 14 -24 0 -10
146 -227 175 -261 6 -7 17 -20 25 -30 163 -202 283 -325 455 -469 33 -27 62
-52 65 -55 18 -21 108 -78 114 -73 3 3 6 -1 6 -9 0 -9 11 -19 25 -22 16 -4 23
-11 19 -18 -4 -7 -3 -8 4 -4 7 4 32 -7 56 -23 37 -26 259 -137 321 -161 29
-12 60 -21 63 -20 1 0 16 -7 33 -16 17 -8 39 -17 49 -19 11 -2 45 -11 77 -21
32 -9 63 -18 68 -19 6 -1 12 -3 15 -4 12 -4 89 -22 135 -31 28 -6 61 -12 75
-15 14 -3 48 -8 75 -10 28 -3 61 -8 75 -12 14 -4 1307 -9 2873 -10 l2848 -4
-12 23 c-7 13 -15 25 -19 28 -3 3 -19 23 -35 45 -17 22 -32 42 -35 45 -3 3
-17 21 -30 40 -13 19 -27 37 -30 40 -3 3 -25 32 -50 65 -25 33 -51 66 -58 74
-8 8 -32 39 -55 70 -23 31 -44 58 -47 61 -3 3 -25 30 -50 60 -25 30 -47 57
-50 60 -3 3 -29 35 -59 72 -29 38 -58 68 -64 68 -5 0 -8 3 -4 6 5 6 -7 23 -53
72 -14 15 -43 49 -65 76 -22 27 -53 64 -70 82 -16 18 -44 50 -62 71 -182 217
-641 687 -802 821 -24 21 -53 45 -65 55 -11 10 -30 26 -41 35 -11 10 -36 28
-55 42 -19 13 -37 27 -40 31 -3 4 -30 24 -60 45 -30 20 -57 40 -60 43 -6 8
-41 29 -60 38 -8 4 -17 10 -20 13 -10 14 -158 95 -255 141 -88 41 -252 105
-295 114 -8 2 -15 4 -15 5 0 1 -7 3 -15 5 -8 1 -42 10 -75 18 -81 21 -101 25
-210 42 -27 4 -58 9 -67 11 -15 2 -62 7 -183 19 -80 8 -294 17 -455 20 -91 2
-165 4 -165 5 0 0 -90 3 -200 5 -110 2 -297 7 -415 10 -118 3 -316 8 -440 10
-750 17 -817 20 -900 35 -84 14 -89 16 -125 24 -16 4 -50 12 -75 18 -25 5 -61
16 -81 23 -20 8 -39 11 -43 8 -3 -4 -6 0 -6 7 0 7 -3 11 -6 8 -15 -16 -360
134 -445 193 -14 10 -29 16 -33 12 -3 -3 -6 -2 -6 3 0 6 -19 21 -42 34 -24 13
-45 26 -48 29 -3 3 -29 22 -57 41 -29 19 -53 38 -53 43 0 4 -7 7 -15 7 -8 0
-15 5 -15 10 0 6 -6 10 -14 10 -8 0 -16 4 -18 8 -1 5 -37 37 -78 72 -88 75
-213 199 -290 290 -30 35 -65 75 -77 87 -13 13 -23 28 -23 33 0 5 -7 16 -16
25 -21 20 -144 194 -144 202 0 3 -10 20 -23 37 -90 122 -237 417 -372 751 -25
61 -125 369 -131 403 -3 14 -9 32 -13 41 -5 9 -10 21 -10 26 -1 6 -4 19 -7 31
-3 11 -6 28 -8 37 -1 9 -5 19 -8 23 -4 3 -4 12 -2 19 3 7 0 16 -5 20 -6 3 -9
10 -6 15 3 5 1 18 -5 29 -5 11 -12 35 -15 53 -3 18 -14 71 -25 118 l-19 85 3
-1425z"/>
<path d="M8050 2505 c0 -8 4 -15 8 -15 10 0 128 -87 202 -150 10 -8 35 -28 56
-45 21 -16 46 -38 56 -47 10 -10 22 -18 27 -18 5 0 11 -3 13 -7 2 -5 52 -48
112 -98 60 -49 124 -105 142 -122 18 -18 36 -33 38 -33 3 0 16 -10 28 -22 13
-13 46 -43 73 -67 146 -127 249 -224 430 -401 179 -175 296 -300 434 -460 36
-41 72 -81 80 -87 8 -7 12 -13 9 -13 -3 0 5 -12 18 -27 166 -189 429 -607 474
-750 5 -15 18 -53 30 -83 l21 -55 -6 90 c-12 172 -11 165 -36 305 -5 30 -11
64 -14 75 -2 11 -11 52 -20 90 -18 78 -20 84 -28 105 -3 8 -20 62 -37 120 -18
58 -36 109 -41 115 -5 5 -9 15 -9 22 0 13 -45 118 -80 186 -11 22 -20 45 -20
52 0 7 -3 15 -7 17 -5 2 -23 31 -41 66 -56 106 -180 289 -266 390 -36 43 -243
250 -272 272 -11 8 -42 34 -71 58 -28 23 -55 42 -60 42 -5 0 -15 9 -23 20 -8
11 -18 20 -23 20 -5 0 -27 13 -50 29 -131 92 -506 281 -513 259 0 -2 -7 2 -15
8 -11 9 -131 53 -159 59 -3 1 -38 11 -79 24 -41 12 -81 24 -90 26 -9 2 -36 8
-61 14 -25 7 -55 14 -67 16 -51 11 -79 16 -108 21 -16 3 -36 7 -42 9 -7 2 -13
-2 -13 -10z"/>
</g>
</svg>
