<?xml version="1.0" encoding="UTF-8"?>
<svg id="Calque_2" data-name="Calque 2" xmlns="http://www.w3.org/2000/svg" viewBox="0 0 375.8 117.7">
  <g id="Calque_1-2" data-name="Calque 1">
    <polygon points="82 98.6 0 117.7 0 0 81.7 20.4 82 98.6" fill="#0b73ba"/>
    <polygon points="10.7 44.7 5 44.5 25.3 91.9 30.8 91.9 41 67.8 51.2 91.9 56.5 91.9 77.1 44.5 71.3 44.5 53.6 86.1 43.7 64.5 52.3 44.5 47.1 44.5 41.1 60.4 34.9 44.5 29.6 44.5 38 63.7 28.3 85.8 10.7 44.7" fill="#fff"/>
    <rect x="88.9" y="44.5" width="6" height="48.1" fill="#0b73ba"/>
    <rect x="88.9" y="25.4" width="6" height="9.4" fill="#0b73ba"/>
    <path d="m101.8,44.5h6v10.3s9.7-12.1,19.1-10.3c.3-.2,14.1-3.8,14.8,15.9.2.7,0,32.2,0,32.2h-5.6l.2-32s-.9-12-11.7-11.7c.3.2-11.1,0-16.9,13.6.3.2,0,30.1,0,30.1h-5.8v-48.1Z" fill="#0b73ba"/>
    <path d="m195.2,25.4h-6.5v29.4s-7.5-12.4-18.2-10.7c0,0-20.4-.3-21.4,24.1.5.4-1.4,22.4,22.1,25.2-.2.2,10.7.2,18.5-10,.3.2-3,9.7,7.2,9.2-.2.2,0-5.4,0-5.4,0,0-1.5.9-2.4-2.6,0,.2.7-59.2.7-59.2Z" fill="#0b73ba"/>
    <path d="m188.8,60.6s-4.8-12.1-16.9-11.7c.2,0-16.5.7-17,19.7,0,0-.5,17.9,18.1,19.6.6.3,11.7-.9,15.7-11.2.5.2,0-16.3,0-16.3Z" fill="#fff"/>
    <path d="m227.8,44.3s22.9,0,23.7,25c.2,0,.3,23.2-23.7,24.2,0,0-22.2,1-23.7-24.6.3.2,1.1-23.6,23.7-24.6Z" fill="#0b73ba"/>
    <path d="m227.8,49.4s17.2,2,17.6,19.2c.2,0,0,19.1-17.6,20.1.1,0-18-1.5-17.8-19.2.2.3,0-18.2,17.8-20.1Z" fill="#fff"/>
    <polygon points="264.1 45.1 258.5 44.8 278.8 92.3 284.2 92.3 294.4 68.2 304.6 92.3 309.9 92.3 330.5 44.8 324.7 44.8 307 86.5 297.2 64.9 305.7 44.8 300.6 44.8 294.5 60.8 288.3 44.8 283 44.8 291.4 64 281.7 86.1 264.1 45.1" fill="#0b73ba"/>
    <path d="m374.5,50.6l-3.1,3.6s-5.6-6.3-15.3-5.6c0,0-12.3.7-10.9,9.2.1.1-1.2,5.9,9.7,7.7,0,0,21.6,2.8,20.8,13.6,0,0,2.4,13.2-18.2,14.7.1.2-12.9,0-20.1-7.3,0,0,2.7-3.8,2.7-3.8,0,0,5.5,6.1,17,6.6,0,0,14-.5,13.1-9.3.1.1.6-7.5-13.6-9.3,0,.1-17.9-1.5-17-11.9.1.2-1.5-13.7,17.5-14.6,0,0,11.2-.1,17.4,6.3Z" fill="#0b73ba"/>
  </g>
</svg>