<?xml version="1.0" encoding="UTF-8"?>
<svg id="Layer_2" data-name="Layer 2" xmlns="http://www.w3.org/2000/svg" viewBox="0 0 750.52 192.12">
  <defs>
    <style>
      .cls-1 {
        fill: #dedfdf;
      }
    </style>
  </defs>
  <g id="BackgroundTitre">
    <path id="BackgroundTitre-2" data-name="BackgroundTitre" class="cls-1" d="m196.73,189.35l.58-6.39c8.98-.09,2.61,7.31,10.92,5.74,3.25-9.04,13.79.94,16.66-3.87-.06.72,4,.99,3.74,3.82,1.24-4.91,4.18-1.14,6.74-2.39.93-1.37-.68-1.47-1.38-2.95l5.87-1.73c2.3,1.58,2.86,4.47.37,5,15.35,1.76,89.03,6.46,105.56,4.01-2.13-3.71-7.23-1.2-9.17-7.04,4.37-3.27,6.44,1.14,8.36-2.29,1.68,8.67,9.61,2.08,12.92,10.86l1.25-4.91,2.17,3.01c19.22-5.12,4.39-2.5,21.43-1.34,9.86-.76,14.55-7.57,20.04-5.06-.82-.05-2.99-3.06-.44-4.31.44,4.31,6.8-3.1,8.05,1.26,2.5-.54,10.61.01,7.87-5.89,1.38,2.94,8.61,4.15,4.3,6.71,2.44.17,4.8,1.04,6.56-.26l-3.13-1.64c8.24-.86,12.73,3.71,18.1-1.63l-3.05-2.35c4.93-.37,9.05-.81,10.98,5.02l-5.06,1.8c8.17-.15,13.1-.53,19.91-3.64l-2.43-.16c8.68-5.83,54.07-10.65,62.06-17.95l-3.68-4.53,6.88-3.81c-.81-.05-3.32,14.71-4,13.23,14.73-.42,91.36-3.94,104.97-.88,5.49,2.51.99,7.19.93,7.91,6.68-1.69,2.88-4.8,8.56-4.42,1.55.82-.32,3.55-1.19,4.2,2.49-.54,4.8,1.03,4.99-1.08-3.11-1.64-1.79-7.26-3.11-10.91l7.31.49-.32,3.55c1.63.11,4.13-9.7,11.31-7.8,12.11,1.54,25.26.29,37.44,1.11-.19,2.13-2.75,3.38-5.31,4.63,1.63.11,4.12-.44,5.62,1.09-2.94-3.76,5.11-2.5,2.81-4.09,8.92-8.67,20.46-.75,28.33-6.64.69-7.8,16.86-134.01,16.86-143.28,2.44.17,4.88.34,5.62,1.1-.63-2.18-5.43-3.22-7.99-1.97l-.44,4.97c-5.88,1.74-1.38-2.95-7.11-2.62-.31-4.07,4.97-4.94,9.62-5.33-4.18-.47-8.35-3.44-10.06,1.02-3.93-1.69.44-4.97-4.3-6.71-3.37,1.2-7.81,5.18-11.68,2.77l.07-.72c-9.42-4.2-14.42,6.17-23.03,2.02l.93-1.36c-3.04-2.35-9.03.81-14.52-1.7,1.57.82,2.93,3.76-.37,4.25-6.31-2.56-10.62,0-15.23-3.17l-4.43,3.98c-21.98-.78-108.78,4.88-130.86,5.52l.86-.64c-33.64,1.99-102.69,1.68-137.45,7.17-5.38-3.92-12.79-3-18.4-4.1,3.12,1.63,2.05,4.42-.38,4.26-17.09-.45-1.15,2.71-18.44,4.39-19.9,3.65-96.07-.5-113.74-3.85-9.49,5.78-21.34,1.41-30.64,5.06l.94-1.36c-9.99,2.18-66.51-3.18-78.12-1.11l1.56.83c-10.12,3.59-8.74-2.73-16.72-4.7,1.05,6.49-7.62,10.17-10.93,10.66l.13-1.42c-4.99,1.09-16.29,6.72-24.52,7.59l.32-3.55c-6.87,3.81-19.78,2.23-24.72,2.6-11.29-1.47-28.7-7.64-43.8-2.96l-9.75-10.11-1.43,1s-15.71,122.11,4.23,148.12l-.32,3.54,3.94-.46c4.73,1.74,6.92-2.36,6.6,1.17l-6.48-.43c4.75,1.03,1.43,2.9-.38,4.91,1.98.34,3.91.77,5.49,1.85.94-1.36-.69-1.47-1.43-2.24,2.56-1.25,6.12-4.58,9.23-2.94,4.87.33.31,5.73,5.99,6.12,29.95,2.74,58.96,6.84,89.23,6.04.69,1.47-.13,1.42-1.01,2.08,9.12-1.53,17.22-.98,25.53-2.56,2.31,1.58,2.94,3.77,3.62,5.24-1.37-2.94,45.86-3.21,46.6-2.44Z"/>
  </g>
</svg>