<svg width="254" height="76" viewBox="0 0 254 76" fill="none" xmlns="http://www.w3.org/2000/svg">
<path d="M65.0292 42.8093L34.0444 11.9367L3.05964 42.8093L34.0444 73.682L65.0292 42.8093Z" stroke="#769656" stroke-width="3" stroke-miterlimit="10"/>
<path d="M13.5454 44.6343L16.9474 48.0239L13.6797 51.2798L10.2777 47.8901L13.5454 44.6343ZM13.5454 41.4788L11.9638 43.0547L8.69612 46.3105L7.1145 47.8864L8.69612 49.4623L12.0981 52.852L13.6797 54.4279L15.2613 52.852L18.529 49.5961L20.1107 48.0202L18.529 46.4443L15.1271 43.0547L13.5454 41.4788Z" fill="#769656"/>
<path d="M8.379 39.4903L11.781 42.88L8.51329 46.1359L5.11132 42.7462L8.379 39.4903ZM8.379 37.3867L7.32335 38.4385L4.05566 41.6944L3 42.7462L4.05566 43.798L7.45763 47.1877L8.51329 48.2395L9.56895 47.1877L12.8366 43.9318L13.8923 42.88L12.8366 41.8282L9.43466 38.4385L8.379 37.3867Z" fill="#769656"/>
<path d="M33.7371 64.7938L37.1391 68.1835L33.8714 71.4393L30.4694 68.0497L33.7371 64.7938ZM33.7371 61.6383L32.1555 63.2142L28.8878 66.4701L27.3062 68.046L28.8878 69.6219L32.2898 73.0115L33.8714 74.5874L35.453 73.0115L38.7207 69.7557L40.3023 68.1798L38.7207 66.6039L35.3187 63.2142L33.7371 61.6383Z" fill="#769656"/>
<path d="M33.9275 54.6546L42.4548 63.1511L33.8566 71.7181L25.3293 63.2217L33.9275 54.6546ZM33.9275 51.4991L32.3458 53.075L23.7476 61.6421L22.166 63.2179L23.7476 64.7938L32.275 73.2903L33.8566 74.8662L35.4382 73.2903L44.0364 64.7232L45.618 63.1473L44.0364 61.5714L35.5091 53.075L33.9275 51.4991Z" fill="#769656"/>
<path d="M13.5454 34.2943L16.9474 37.684L13.6797 40.9398L10.2777 37.5502L13.5454 34.2943ZM13.5454 31.1388L11.9638 32.7147L8.69612 35.9705L7.1145 37.5464L8.69612 39.1223L12.0981 42.512L13.6797 44.0879L15.2613 42.512L18.529 39.2561L20.1107 37.6802L18.529 36.1044L15.1271 32.7147L13.5454 31.1388Z" fill="#769656"/>
<path d="M18.9954 28.0391L49.2178 58.1558" stroke="#769656" stroke-width="3" stroke-miterlimit="10"/>
<path d="M18.3127 58.0108L49.2961 27.1396" stroke="#769656" stroke-width="3" stroke-miterlimit="10"/>
<path d="M33.9163 14.1533L37.3183 17.543L34.0506 20.7988L30.6486 17.4092L33.9163 14.1533ZM33.9163 10.9978L32.3347 12.5737L29.067 15.8296L27.4854 17.4055L29.067 18.9813L32.469 22.371L34.0506 23.9469L35.6322 22.371L38.8999 19.1152L40.4815 17.5393L38.8999 15.9634L35.4979 12.5737L33.9163 10.9978Z" fill="#769656"/>
<path d="M33.9275 13.8783L42.4548 22.3747L33.8566 30.9418L25.3293 22.4454L33.9275 13.8783ZM33.9275 10.7228L32.3458 12.2987L23.7476 20.8657L22.166 22.4416L23.7476 24.0175L32.275 32.514L33.8566 34.0899L35.4382 32.514L44.0364 23.9469L45.618 22.371L44.0364 20.7951L35.5091 12.2987L33.9275 10.7228Z" fill="#769656"/>
<path d="M54.2759 44.6603L57.5436 47.9161L54.1416 51.3058L50.8739 48.0499L54.2759 44.6603ZM54.2759 41.5048L52.6943 43.0807L49.2923 46.4703L47.7107 48.0462L49.2923 49.6221L52.56 52.878L54.1416 54.4539L55.7232 52.878L59.1252 49.4883L60.7068 47.9124L59.1252 46.3365L55.8575 43.0807L54.2759 41.5048Z" fill="#769656"/>
<path d="M59.4459 39.5126L62.7136 42.7685L59.3116 46.1581L56.0439 42.9023L59.4459 39.5126ZM59.4459 37.4089L58.3903 38.4608L54.9883 41.8504L53.9326 42.9023L54.9883 43.9541L58.256 47.21L59.3116 48.2618L60.3673 47.21L63.7693 43.8203L64.8249 42.7685L63.7693 41.7166L60.5016 38.4608L59.4459 37.4089Z" fill="#769656"/>
<path d="M54.2759 34.3166L57.5436 37.5725L54.1416 40.9622L50.8739 37.7063L54.2759 34.3166ZM54.2759 31.1611L52.6943 32.737L49.2923 36.1267L47.7107 37.7026L49.2923 39.2785L52.56 42.5343L54.1416 44.1102L55.7232 42.5343L59.1252 39.1447L60.7068 37.5688L59.1252 35.9929L55.8575 32.737L54.2759 31.1611Z" fill="#769656"/>
<path d="M71.7595 15.3873V13.1833C76.5641 13.4025 81.7864 13.5103 87.4265 13.5103C93.9619 13.5103 100.699 13.4025 107.637 13.1833C107.697 17.3386 107.947 20.9512 108.383 24.0175H105.839C105.6 23.3857 105.429 22.9025 105.332 22.5643C104.354 19.7396 103.586 18.1005 103.03 17.6433C102.471 17.1899 101.217 16.9632 99.2626 16.9632H87.8368C87.6764 20.3082 87.5795 25.1697 87.5384 31.5476L92.7496 31.6071C95.4652 31.6071 97.1363 31.3432 97.7667 30.8192C98.3971 30.2951 99.0574 28.5222 99.7587 25.508H102.239C102.019 28.4256 101.911 30.9939 101.911 33.2165C101.911 35.4391 102.019 37.9888 102.239 41.1628H99.7587C99.1991 37.9627 98.662 36.1267 98.1398 35.6546C97.6213 35.1826 96.0546 34.9447 93.4397 34.9447H87.572V51.5809H99.4603C100.773 51.5809 101.65 51.5028 102.09 51.3393C102.788 51.0791 103.426 50.6182 104 49.9604C105.216 48.6223 106.637 46.5038 108.271 43.6047H110.901C109.745 46.8755 108.502 50.8152 107.167 55.4202C100.374 55.201 93.2755 55.0932 85.8673 55.0932C82.5026 55.0932 77.8025 55.201 71.767 55.4202V53.2162C75.072 52.6215 76.9632 52.1458 77.4407 51.789C78.0972 51.3318 78.4255 50.1834 78.4255 48.3361V47.3252L78.4851 35.5394V26.0171L78.4553 21.6128C78.4553 19.4906 78.3471 18.1711 78.127 17.6545C77.907 17.1379 77.4854 16.7327 76.8588 16.4354C76.2321 16.1381 74.5348 15.7924 71.767 15.3947L71.7595 15.3873ZM99.0313 0L99.4192 0.773081C96.4127 3.69072 93.4061 6.87596 90.3995 10.3288H87.7697L91.3246 0C93.3166 0.0780514 94.6408 0.118936 95.2973 0.118936C96.0322 0.118936 97.2781 0.0780514 99.0313 0Z" fill="#769656"/>
<path d="M136.968 36.7287L134.278 36.6098C134.081 33.7925 133.495 31.8375 132.533 30.7448C131.566 29.6521 130.347 29.1094 128.873 29.1094C127.042 29.1094 125.576 29.8045 124.483 31.1908C123.028 33.0529 122.301 35.7364 122.301 39.245C122.301 42.7536 123.095 45.556 124.692 47.4181C126.284 49.2802 128.187 50.2131 130.395 50.2131C131.372 50.2131 132.354 50.0607 133.338 49.7522C134.323 49.4437 135.644 48.8453 137.296 47.9533L138.699 50.2168C135.371 52.7962 132.939 54.4278 131.395 55.1117C129.851 55.7956 128.202 56.1375 126.452 56.1375C122.909 56.1375 119.969 54.9036 117.641 52.432C115.314 49.9603 114.146 46.6115 114.146 42.3856C114.146 37.8809 115.512 34.0118 118.238 30.7783C120.965 27.5447 124.759 25.9279 129.619 25.9279C132.428 25.9279 135.453 26.6713 138.699 28.1617C138.3 29.7487 137.912 31.6257 137.535 33.7851C137.296 35.0562 137.106 36.0374 136.968 36.7325V36.7287Z" fill="#769656"/>
<path d="M139.986 17.8886V15.7441C143.153 15.0119 145.477 14.38 146.961 13.856C148.446 13.3319 150.042 12.5997 151.755 11.6668L153.247 12.5886C153.027 14.4729 152.847 16.9446 152.709 19.9997C152.53 24.3446 152.441 27.6971 152.441 30.0609V31.8747C154.951 29.3362 156.753 27.7677 157.846 27.173C158.943 26.5784 160.297 26.281 161.908 26.281C164.098 26.281 165.776 26.7865 166.94 27.7974C168.104 28.8084 168.805 30.1204 169.048 31.726C169.208 32.8373 169.287 36.1898 169.287 41.7872C169.287 46.3328 169.328 49.1575 169.406 50.2688C169.466 51.0642 169.656 51.6292 169.973 51.9637C170.29 52.3019 171.178 52.6587 172.633 53.0341C172.89 53.0935 173.278 53.1939 173.796 53.3314V55.4165C170.383 55.1972 167.69 55.0894 165.717 55.0894C163.62 55.0894 160.987 55.1972 157.816 55.4165V53.3314C159.584 52.8743 160.632 52.4543 160.964 52.0677C161.296 51.6812 161.461 50.8412 161.461 49.5515C161.461 41.0996 161.449 36.7027 161.431 36.3682C161.311 34.7626 160.923 33.6253 160.267 32.96C159.61 32.2947 158.704 31.9639 157.548 31.9639C156.451 31.9639 155.447 32.3244 154.53 33.0492C153.612 33.774 153.008 34.7589 152.709 36.0114C152.512 36.8663 152.411 39.3045 152.411 43.3334C152.411 47.7786 152.452 50.3097 152.53 50.923C152.609 51.5399 152.847 52.0231 153.247 52.3799C153.646 52.7367 154.56 53.0564 155.996 53.3314V55.4165C152.888 55.1972 150.43 55.0894 148.617 55.0894C147.401 55.0894 144.525 55.1972 139.986 55.4165V53.3314C140.325 53.2311 140.582 53.1642 140.761 53.1233C142.373 52.7256 143.32 52.3799 143.6 52.0826C143.999 51.6254 144.238 50.7334 144.316 49.4028C144.477 46.567 144.555 41.0885 144.555 32.9749L144.466 19.9997C144.466 19.1672 144.305 18.5651 143.988 18.2008C143.671 17.8329 143.22 17.6508 142.645 17.6508C141.888 17.6508 141.004 17.7288 139.986 17.8886Z" fill="#769656"/>
<path d="M199.517 47.3512L201.068 49.6147C197.942 52.2536 195.063 54.1677 192.437 55.3608C191.303 55.8774 189.848 56.1339 188.076 56.1339C184.372 56.1339 181.544 55.0412 179.593 52.8594C177.124 50.1202 175.889 46.4704 175.889 41.9062C175.889 37.3421 177.303 33.3131 180.13 30.3583C182.958 27.4035 186.464 25.9243 190.646 25.9243C194.469 25.9243 197.267 27.0764 199.039 29.3771C200.214 30.8861 200.889 33.2351 201.072 36.4315C200.076 37.0856 199.151 37.829 198.293 38.6652C196.2 38.5872 194.07 38.5463 191.899 38.5463C189.072 38.5463 186.442 38.5872 184.014 38.6652C183.995 39.1001 183.984 39.468 183.984 39.7654C183.984 42.5641 184.625 45.0246 185.912 47.1468C187.196 49.2691 189.124 50.3321 191.694 50.3321C192.948 50.3321 194.149 50.1239 195.294 49.7076C196.439 49.2914 197.849 48.5071 199.52 47.355L199.517 47.3512ZM184.073 35.5952C185.189 35.6361 186.106 35.6547 186.823 35.6547C188.535 35.6547 190.627 35.5766 193.097 35.4168C192.977 32.8857 192.552 31.202 191.828 30.362C191.101 29.5258 190.101 29.1058 188.826 29.1058C187.55 29.1058 186.535 29.6038 185.659 30.5999C184.782 31.596 184.256 33.2611 184.077 35.5915L184.073 35.5952Z" fill="#769656"/>
<path d="M227.478 36.7287L224.789 36.6098C224.591 33.7925 224.006 31.8375 223.043 30.7448C222.077 29.6521 220.857 29.1094 219.384 29.1094C217.552 29.1094 216.086 29.8045 214.993 31.1908C213.538 33.0529 212.811 35.7364 212.811 39.245C212.811 42.7536 213.606 45.556 215.202 47.4181C216.795 49.2802 218.697 50.2131 220.906 50.2131C221.883 50.2131 222.864 50.0607 223.849 49.7522C224.834 49.4437 226.154 48.8453 227.807 47.9533L229.209 50.2168C225.882 52.7962 223.45 54.4278 221.905 55.1117C220.361 55.7956 218.712 56.1375 216.963 56.1375C213.419 56.1375 210.48 54.9036 208.152 52.432C205.824 49.9603 204.657 46.6115 204.657 42.3856C204.657 37.8809 206.022 34.0118 208.749 30.7783C211.476 27.5447 215.269 25.9279 220.13 25.9279C222.939 25.9279 225.964 26.6713 229.209 28.1617C228.81 29.7487 228.422 31.6257 228.045 33.7851C227.807 35.0562 227.616 36.0374 227.478 36.7325V36.7287Z" fill="#769656"/>
<path d="M232.615 45.5672H235.304C235.823 48.3064 236.684 50.254 237.889 51.4173C239.094 52.577 240.493 53.1568 242.086 53.1568C243.302 53.1568 244.261 52.8334 244.969 52.1904C245.674 51.5474 246.029 50.7558 246.029 49.8229C246.029 48.9717 245.682 48.1466 244.984 47.3512C244.287 46.5596 242.511 45.3368 239.654 43.6902C236.796 42.0437 234.89 40.5459 233.935 39.1967C232.958 37.8475 232.473 36.3385 232.473 34.6734C232.473 32.2316 233.458 30.165 235.431 28.4665C237.404 26.7679 240.232 25.9205 243.914 25.9205C246.562 25.9205 249.281 26.5152 252.068 27.7046C251.811 28.8047 251.52 31.3135 251.203 35.2347L248.603 35.1157C248.185 32.7445 247.472 31.0682 246.465 30.0944C245.458 29.1169 244.29 28.63 242.955 28.63C241.858 28.63 241.008 28.9125 240.4 29.4774C239.792 30.0424 239.49 30.7709 239.49 31.6666C239.49 32.4397 239.758 33.1459 240.295 33.7814C241.03 34.6549 242.675 35.807 245.223 37.2343C248.427 39.0406 250.52 40.5979 251.497 41.9062C252.475 43.2145 252.959 44.7532 252.959 46.5187C252.959 48.9197 252.042 51.1237 250.21 53.127C248.379 55.1304 245.223 56.1339 240.743 56.1339C238.154 56.1339 235.308 55.6767 232.201 54.7661C232.458 51.2724 232.6 48.2098 232.618 45.5709L232.615 45.5672Z" fill="#769656"/>
<path d="M121.931 69.7743C121.495 69.4212 121.144 68.9194 120.872 68.2653C120.603 67.6148 120.469 66.8752 120.469 66.0464C120.469 64.5262 120.939 63.2923 121.879 62.3519C122.819 61.4116 124.039 60.9433 125.531 60.9433C126.426 60.9433 127.217 61.1217 127.911 61.4748C128.605 61.8279 129.146 62.3705 129.537 63.0953C129.929 63.8238 130.123 64.6786 130.123 65.6636C130.123 67.1837 129.679 68.4177 128.795 69.358C127.911 70.2983 126.814 70.7666 125.505 70.7666C125.124 70.7666 124.666 70.7109 124.132 70.5994L126.393 71.4914C126.945 71.6921 127.433 71.8408 127.859 71.9337C128.284 72.0266 128.657 72.0749 128.985 72.0749C129.455 72.0749 130.071 71.956 130.832 71.7181L131.022 72.1084C130.186 72.5618 129.63 72.8406 129.354 72.9484C129.078 73.0561 128.847 73.1082 128.664 73.1082C128.247 73.1082 127.818 73.0264 127.377 72.8666C126.602 72.5767 125.598 72.0638 124.375 71.3353C123.677 70.919 123.125 70.6365 122.715 70.4879C122.304 70.3392 121.756 70.2203 121.07 70.1236V69.607C121.338 69.6367 121.625 69.6925 121.931 69.7668V69.7743ZM121.957 65.7007C121.957 67.1986 122.308 68.3582 123.009 69.1833C123.599 69.8746 124.371 70.2203 125.333 70.2203C126.027 70.2203 126.635 70.0456 127.15 69.6962C127.665 69.3468 128.053 68.8339 128.306 68.1612C128.564 67.4885 128.69 66.7563 128.69 65.9683C128.69 65.0986 128.541 64.3144 128.247 63.6119C127.952 62.9094 127.538 62.4003 127.008 62.0843C126.478 61.7647 125.904 61.6086 125.285 61.6086C124.666 61.6086 124.113 61.761 123.606 62.062C123.099 62.3631 122.696 62.8463 122.401 63.5116C122.107 64.1769 121.961 64.9053 121.961 65.7081L121.957 65.7007Z" fill="#769656"/>
<path d="M130.802 64.8793V64.5039C131.619 64.4593 132.372 64.3627 133.059 64.2103L133.226 64.3366C133.133 65.1097 133.085 66.0501 133.085 67.1576C133.085 68.1203 133.115 68.7335 133.174 69.0011C133.234 69.2687 133.364 69.4769 133.57 69.6293C133.775 69.7817 134.013 69.856 134.297 69.856C134.622 69.856 134.924 69.7668 135.211 69.5921C135.494 69.4174 135.696 69.1944 135.808 68.9268C135.92 68.6592 135.976 68.2429 135.976 67.6854C135.976 67.6185 135.961 66.864 135.935 65.4219C135.912 65.2287 135.856 65.0986 135.763 65.0317C135.67 64.9648 135.416 64.9202 134.998 64.8979L134.756 64.8793V64.5039C135.718 64.4333 136.468 64.3329 137.005 64.2103L137.18 64.3366C137.139 64.7083 137.11 65.1729 137.091 65.7304C137.072 66.2879 137.061 66.9384 137.061 67.6817C137.061 68.6183 137.087 69.1721 137.136 69.3468C137.184 69.5215 137.311 69.607 137.512 69.607C137.628 69.607 137.867 69.5809 138.221 69.5252V69.9006C137.759 70.0232 137.367 70.1459 137.054 70.2685C136.737 70.3949 136.401 70.5584 136.046 70.7666L135.845 70.6179C135.905 70.2871 135.938 69.9563 135.946 69.6256C135.416 70.1199 135.017 70.4321 134.752 70.5659C134.487 70.6997 134.189 70.7666 133.864 70.7666C133.245 70.7666 132.783 70.6142 132.477 70.3094C132.167 70.0084 132.01 69.5512 132.01 68.9342V66.5853C132.007 65.749 131.958 65.2658 131.865 65.1432C131.772 65.0168 131.499 64.9387 131.04 64.909C130.988 64.9053 130.906 64.8942 130.805 64.883L130.802 64.8793Z" fill="#769656"/>
<path d="M138.747 65.2547V64.8793C139.501 64.686 140.213 64.3998 140.877 64.0207L141.052 64.162C140.963 65.1097 140.918 66.4552 140.918 68.1984C140.918 69.0123 140.937 69.5141 140.978 69.7036C141.004 69.83 141.052 69.9192 141.119 69.9749C141.187 70.0307 141.422 70.1162 141.821 70.2351C141.869 70.25 141.944 70.2723 142.045 70.302V70.6774C141.455 70.6291 140.974 70.6031 140.597 70.6031C140.37 70.6031 139.754 70.6291 138.751 70.6774V70.302C139.359 70.1533 139.698 70.0195 139.777 69.8969C139.855 69.7742 139.892 69.1312 139.892 67.9679L139.885 66.537V66.2619C139.885 65.7602 139.851 65.4591 139.784 65.355C139.717 65.251 139.609 65.1989 139.46 65.1989C139.366 65.1989 139.128 65.2175 138.751 65.2584L138.747 65.2547ZM140.426 60.7909C140.623 60.7909 140.791 60.8578 140.929 60.9953C141.067 61.1328 141.134 61.3001 141.134 61.4971C141.134 61.6941 141.067 61.8539 140.929 61.9951C140.791 62.1326 140.623 62.2033 140.426 62.2033C140.228 62.2033 140.068 62.1326 139.93 61.9951C139.792 61.8576 139.724 61.6903 139.724 61.4971C139.724 61.3038 139.792 61.1328 139.93 60.9953C140.068 60.8578 140.232 60.7909 140.426 60.7909Z" fill="#769656"/>
<path d="M143.533 66.2136H143.108C143.153 65.7378 143.182 65.0837 143.194 64.2474C144.044 64.2958 144.932 64.3218 145.857 64.3218C146.782 64.3218 147.621 64.2958 148.371 64.2474V64.6972C146.189 67.4104 144.813 69.1684 144.246 69.9749L146.853 69.9266C147.095 69.9043 147.271 69.8411 147.375 69.7333C147.48 69.6256 147.595 69.2985 147.715 68.7447C147.722 68.6964 147.741 68.622 147.767 68.5217H148.237L148.17 69.488L148.151 70.67C147.297 70.6216 146.54 70.5956 145.879 70.5956C145.428 70.5956 144.357 70.6216 142.656 70.67V70.2946L143.787 68.8636L146.823 64.9276L145.126 64.9759C144.637 64.9908 144.331 65.0131 144.205 65.0503C144.078 65.0874 143.977 65.1469 143.902 65.2324C143.828 65.3179 143.723 65.5743 143.593 66.0055C143.578 66.0501 143.555 66.1207 143.526 66.2136H143.533Z" fill="#769656"/>
<path d="M152.75 65.2547V64.8793C153.504 64.686 154.216 64.3998 154.88 64.0207L155.056 64.162C154.966 65.1097 154.921 66.4552 154.921 68.1984C154.921 69.0123 154.94 69.5141 154.981 69.7036C155.007 69.83 155.056 69.9192 155.123 69.9749C155.19 70.0307 155.425 70.1162 155.824 70.2351C155.873 70.25 155.947 70.2723 156.048 70.302V70.6774C155.459 70.6291 154.977 70.6031 154.601 70.6031C154.373 70.6031 153.758 70.6291 152.754 70.6774V70.302C153.362 70.1533 153.702 70.0195 153.78 69.8969C153.858 69.7742 153.896 69.1312 153.896 67.9679L153.888 66.537V66.2619C153.888 65.7602 153.855 65.4591 153.787 65.355C153.72 65.251 153.612 65.1989 153.463 65.1989C153.37 65.1989 153.131 65.2175 152.754 65.2584L152.75 65.2547ZM154.429 60.7909C154.627 60.7909 154.795 60.8578 154.933 60.9953C155.071 61.1328 155.138 61.3001 155.138 61.4971C155.138 61.6941 155.071 61.8539 154.933 61.9951C154.795 62.1326 154.627 62.2033 154.429 62.2033C154.231 62.2033 154.071 62.1326 153.933 61.9951C153.795 61.8576 153.728 61.6903 153.728 61.4971C153.728 61.3038 153.795 61.1328 153.933 60.9953C154.071 60.8578 154.235 60.7909 154.429 60.7909Z" fill="#769656"/>
<path d="M156.436 65.329V64.9388C157.245 64.7492 157.977 64.4668 158.633 64.0876L158.816 64.2029C158.753 64.582 158.715 64.9759 158.7 65.3774L159.555 64.5299C159.7 64.4036 159.868 64.3069 160.062 64.2363C160.327 64.1397 160.603 64.0876 160.89 64.0876C161.532 64.0876 162.016 64.2995 162.345 64.7269C162.565 65.0094 162.677 65.4963 162.677 66.1839L162.658 67.8081C162.658 68.8971 162.673 69.5401 162.699 69.7371C162.721 69.8709 162.763 69.9638 162.826 70.0196C162.889 70.0716 163.102 70.1422 163.468 70.2277C163.535 70.2463 163.635 70.2723 163.77 70.302V70.6774C163.24 70.6291 162.766 70.6031 162.352 70.6031C161.99 70.6031 161.375 70.6291 160.502 70.6774V70.302C161.028 70.1496 161.323 70.0456 161.386 69.9935C161.449 69.9415 161.491 69.8523 161.505 69.7297C161.554 69.2874 161.58 68.6072 161.58 67.6966C161.58 66.7191 161.561 66.1319 161.52 65.9311C161.457 65.6375 161.326 65.4071 161.121 65.2473C160.916 65.0875 160.677 65.0057 160.394 65.0057C160.11 65.0057 159.804 65.0912 159.517 65.2659C159.23 65.4368 159.017 65.671 158.879 65.9609C158.741 66.2508 158.674 66.6819 158.674 67.2506C158.674 68.8637 158.708 69.7334 158.775 69.8672C158.842 70.001 159.107 70.1236 159.562 70.2388C159.622 70.2537 159.704 70.276 159.819 70.3057V70.6811C159.215 70.6328 158.708 70.6068 158.301 70.6068C157.895 70.6068 157.316 70.6328 156.533 70.6811V70.3057C157.066 70.1794 157.369 70.0902 157.443 70.0307C157.488 69.9935 157.522 69.9006 157.536 69.7482C157.585 69.3245 157.611 68.7447 157.611 68.0088C157.611 66.4924 157.596 65.6673 157.563 65.5372C157.514 65.3476 157.38 65.2547 157.163 65.2547C157.063 65.2547 156.91 65.2696 156.697 65.303C156.637 65.3105 156.552 65.3216 156.436 65.3365V65.329Z" fill="#769656"/>
<path d="M164.213 70.6737V70.2983C164.766 70.172 165.068 70.0605 165.124 69.9638C165.195 69.8337 165.232 68.9603 165.232 67.3435C165.232 66.5556 165.239 65.7639 165.25 64.9722C164.922 64.9797 164.598 65.002 164.281 65.0317V64.7084C164.613 64.5746 164.937 64.4147 165.25 64.2252C165.254 63.4558 165.277 62.9801 165.318 62.8017C165.385 62.4783 165.553 62.1587 165.817 61.8428C166.082 61.5268 166.429 61.2592 166.862 61.0437C167.172 60.8838 167.507 60.8021 167.865 60.8021C168.134 60.8021 168.384 60.8318 168.611 60.895C168.839 60.9582 169.134 61.0771 169.488 61.2592C169.316 61.7238 169.163 62.2033 169.022 62.6976L168.652 62.6493C168.585 62.2033 168.455 61.8873 168.257 61.7015C168.063 61.5194 167.806 61.4265 167.485 61.4265C167.205 61.4265 166.978 61.5157 166.795 61.6904C166.612 61.865 166.485 62.1327 166.414 62.4895C166.366 62.7273 166.34 63.2068 166.34 63.9316C166.34 64.0208 166.34 64.1546 166.347 64.3292C166.668 64.3367 166.858 64.3441 166.922 64.3441L168.067 64.3292L168.153 64.4185C168.015 64.6117 167.899 64.8161 167.809 65.0354C167.313 65.0057 166.828 64.9834 166.347 64.976C166.34 65.6152 166.332 66.4478 166.332 67.4736L166.347 69.2279V69.3097C166.347 69.6628 166.384 69.882 166.459 69.9601C166.534 70.0419 166.821 70.1385 167.324 70.25C167.377 70.2649 167.455 70.2797 167.552 70.302V70.6774C166.944 70.6291 166.425 70.6031 165.989 70.6031C165.609 70.6031 165.015 70.6291 164.21 70.6774L164.213 70.6737Z" fill="#769656"/>
<path d="M168.548 67.5368C168.548 66.4552 168.858 65.5966 169.473 64.9648C170.089 64.3329 170.898 64.017 171.902 64.017C172.849 64.017 173.603 64.3032 174.158 64.8682C174.714 65.4331 174.99 66.2322 174.99 67.2506C174.99 68.3507 174.681 69.2242 174.058 69.8672C173.435 70.5102 172.629 70.8298 171.64 70.8298C170.652 70.8298 169.928 70.5436 169.376 69.9712C168.824 69.3989 168.548 68.5849 168.548 67.5331V67.5368ZM169.842 66.9532C169.842 67.6892 169.891 68.2281 169.984 68.5775C170.133 69.1424 170.368 69.5661 170.689 69.8486C171.01 70.1348 171.387 70.276 171.812 70.276C172.364 70.276 172.819 70.0679 173.177 69.6479C173.532 69.2279 173.711 68.5552 173.711 67.6297C173.711 66.5927 173.509 65.8234 173.106 65.3216C172.704 64.8236 172.23 64.5745 171.685 64.5745C171.141 64.5745 170.704 64.7715 170.357 65.1618C170.014 65.552 169.842 66.1504 169.842 66.9532Z" fill="#769656"/>
<path d="M175.732 65.329V64.9536C176.572 64.7418 177.284 64.4556 177.877 64.0876L178.053 64.214C177.982 64.6489 177.937 65.1283 177.926 65.645C178.47 64.9834 178.847 64.5783 179.064 64.4296C179.28 64.2809 179.534 64.2066 179.825 64.2066C180.019 64.2066 180.235 64.2549 180.47 64.3478C180.369 64.805 180.291 65.2733 180.227 65.7527H179.892C179.851 65.5372 179.784 65.3811 179.69 65.2844C179.597 65.1878 179.489 65.1395 179.373 65.1395C179.194 65.1395 179 65.2213 178.795 65.3885C178.489 65.6338 178.269 65.9163 178.131 66.2359C177.993 66.5556 177.926 67.009 177.926 67.5925C177.926 68.6295 177.956 69.3282 178.012 69.6851C178.034 69.8189 178.097 69.9229 178.198 70.001C178.299 70.0753 178.616 70.1757 179.153 70.2946V70.67C178.59 70.6217 178.083 70.5957 177.624 70.5957C177.243 70.5957 176.609 70.6217 175.729 70.67V70.2946C176.344 70.1422 176.691 70.0233 176.769 69.9415C176.848 69.8597 176.889 69.6367 176.889 69.2725L176.904 67.8155C176.904 66.3883 176.889 65.6189 176.863 65.5112C176.818 65.329 176.691 65.2361 176.486 65.2361C176.37 65.2361 176.176 65.2584 175.912 65.303C175.871 65.3067 175.815 65.3142 175.736 65.3216L175.732 65.329Z" fill="#769656"/>
<path d="M180.88 65.3142V64.9388C181.712 64.7121 182.424 64.4259 183.018 64.0876L183.178 64.2289C183.115 64.5857 183.077 64.9722 183.062 65.3848L184.04 64.4853C184.163 64.3775 184.308 64.2921 184.484 64.2214C184.726 64.1322 184.983 64.0876 185.252 64.0876C185.752 64.0876 186.166 64.2214 186.498 64.489C186.737 64.6823 186.904 64.9797 187.005 65.3811C187.505 64.8273 187.871 64.4853 188.098 64.359C188.441 64.1768 188.814 64.0839 189.225 64.0839C189.564 64.0839 189.87 64.1545 190.146 64.2958C190.422 64.437 190.624 64.6005 190.747 64.7864C190.87 64.9722 190.952 65.1692 190.985 65.3773C191.023 65.5855 191.038 65.9274 191.038 66.4032L191.023 68.243C191.023 69.161 191.041 69.6962 191.075 69.8486C191.097 69.9489 191.146 70.0196 191.217 70.0679C191.288 70.1162 191.586 70.1905 192.112 70.2983V70.6737C191.545 70.6254 191.064 70.5994 190.668 70.5994C190.321 70.5994 189.717 70.6254 188.855 70.6737V70.2983C188.941 70.2723 189.005 70.25 189.049 70.2388C189.452 70.1236 189.687 70.0307 189.747 69.9675C189.807 69.9043 189.848 69.7148 189.87 69.4063C189.915 68.7856 189.937 68.0757 189.937 67.284C189.937 66.4924 189.904 66.0241 189.84 65.7899C189.777 65.5557 189.646 65.3699 189.452 65.2361C189.258 65.1023 189.023 65.0354 188.743 65.0354C188.356 65.0354 188.012 65.1506 187.71 65.3811C187.408 65.6115 187.207 65.9088 187.113 66.2694C187.061 66.4626 187.031 67.0647 187.031 68.0831C187.031 69.2427 187.069 69.8746 187.139 69.9824C187.21 70.0902 187.539 70.1942 188.124 70.2983V70.6737C187.539 70.6254 187.009 70.5994 186.528 70.5994C186.047 70.5994 185.487 70.6254 184.89 70.6737V70.2983L185.065 70.25C185.487 70.1385 185.726 70.0381 185.782 69.9564C185.879 69.804 185.931 69.384 185.935 68.7001L185.968 66.7117C185.968 66.0724 185.864 65.6301 185.659 65.3848C185.453 65.1395 185.159 65.0205 184.778 65.0205C184.461 65.0205 184.152 65.1135 183.857 65.303C183.562 65.4926 183.342 65.7453 183.204 66.0612C183.096 66.3028 183.044 66.7154 183.044 67.2952L183.059 68.4622C183.059 69.3357 183.088 69.8226 183.152 69.9229C183.215 70.0233 183.48 70.1311 183.954 70.2426C184.006 70.25 184.084 70.2686 184.181 70.2946V70.67C183.641 70.6217 183.156 70.5956 182.727 70.5956C182.327 70.5956 181.742 70.6217 180.97 70.67V70.2946C181.499 70.1868 181.798 70.0939 181.865 70.0195C181.947 69.9155 181.988 69.5847 181.988 69.0272V68.8451L182.014 66.8789C182.014 66.0241 181.981 65.5372 181.91 65.4182C181.839 65.2993 181.719 65.2398 181.548 65.2398C181.414 65.2398 181.186 65.2658 180.865 65.3142H180.88Z" fill="#769656"/>
<path d="M193.619 66.1133L193.183 66.0649C193.272 65.6004 193.336 65.1358 193.373 64.6749C194.246 64.2809 195.037 64.0839 195.742 64.0839C196.047 64.0839 196.324 64.1285 196.57 64.214C196.816 64.2995 197.01 64.4221 197.155 64.5782C197.297 64.7344 197.409 64.9165 197.484 65.132C197.558 65.3476 197.596 65.6896 197.596 66.1579L197.536 68.9305C197.536 69.3059 197.577 69.5512 197.663 69.6702C197.748 69.7854 197.857 69.8449 197.991 69.8449C198.151 69.8449 198.405 69.7222 198.752 69.4806L198.961 69.7557C198.327 70.3206 197.98 70.6179 197.924 70.6551C197.797 70.7257 197.64 70.7629 197.454 70.7629C197.163 70.7629 196.935 70.6886 196.775 70.5436C196.614 70.3987 196.51 70.1534 196.454 69.8077C195.913 70.224 195.514 70.4879 195.253 70.5956C194.992 70.7071 194.708 70.7592 194.402 70.7592C193.903 70.7592 193.5 70.6068 193.198 70.3057C192.892 70.0047 192.739 69.6181 192.739 69.1461C192.739 68.8599 192.791 68.5998 192.899 68.3693C193.007 68.1389 193.16 67.9345 193.365 67.7635C193.522 67.6334 193.787 67.4773 194.16 67.2952C195.037 66.8715 195.801 66.5258 196.45 66.2694C196.428 65.6375 196.324 65.2212 196.133 65.0131C195.943 64.805 195.656 64.7046 195.264 64.7046C194.895 64.7046 194.582 64.8161 194.32 65.0428C194.059 65.2696 193.824 65.6227 193.619 66.1058V66.1133ZM196.45 66.8603C195.279 67.3844 194.57 67.7672 194.324 68.0051C194.078 68.243 193.959 68.5329 193.959 68.8674C193.959 69.2019 194.052 69.4732 194.235 69.6739C194.417 69.8746 194.634 69.975 194.88 69.975C195.126 69.975 195.413 69.8895 195.712 69.7222C196.01 69.555 196.208 69.3654 196.305 69.1536C196.402 68.9417 196.45 68.5589 196.45 68.0051V66.8566V66.8603Z" fill="#769656"/>
<path d="M200.99 62.6084H201.382L201.225 64.3218L203.09 64.3032L203.142 64.411C203.03 64.5931 202.926 64.7864 202.833 64.9983C202.303 64.976 201.766 64.9574 201.221 64.9499L201.161 68.4028V68.4437C201.161 68.9752 201.221 69.3617 201.341 69.5959C201.46 69.83 201.661 69.949 201.952 69.949C202.191 69.949 202.504 69.8486 202.896 69.6479L203.09 70.0307C202.601 70.3355 202.228 70.5362 201.971 70.6328C201.714 70.7295 201.493 70.7778 201.303 70.7778C201.009 70.7778 200.755 70.6997 200.55 70.5473C200.345 70.3912 200.207 70.1794 200.139 69.9081C200.098 69.7557 200.08 69.2911 200.08 68.5106C200.08 67.678 200.106 66.4924 200.154 64.9574C199.841 64.9648 199.513 64.9797 199.177 65.0057V64.6415C199.554 64.4705 199.882 64.24 200.158 63.9464C200.434 63.6528 200.71 63.2105 200.99 62.6195V62.6084Z" fill="#769656"/>
<path d="M203.552 65.2547V64.8793C204.306 64.686 205.018 64.3998 205.682 64.0207L205.858 64.162C205.768 65.1097 205.723 66.4552 205.723 68.1984C205.723 69.0123 205.742 69.5141 205.783 69.7036C205.809 69.83 205.858 69.9192 205.925 69.9749C205.992 70.0307 206.227 70.1162 206.626 70.2351C206.675 70.25 206.749 70.2723 206.85 70.302V70.6774C206.261 70.6291 205.779 70.6031 205.403 70.6031C205.175 70.6031 204.56 70.6291 203.556 70.6774V70.302C204.164 70.1533 204.504 70.0195 204.582 69.8969C204.66 69.7742 204.698 69.1312 204.698 67.9679L204.69 66.537V66.2619C204.69 65.7602 204.657 65.4591 204.589 65.355C204.522 65.251 204.414 65.1989 204.265 65.1989C204.172 65.1989 203.933 65.2175 203.556 65.2584L203.552 65.2547ZM205.231 60.7909C205.429 60.7909 205.597 60.8578 205.735 60.9953C205.873 61.1328 205.94 61.3001 205.94 61.4971C205.94 61.6941 205.873 61.8539 205.735 61.9951C205.597 62.1326 205.429 62.2033 205.231 62.2033C205.033 62.2033 204.873 62.1326 204.735 61.9951C204.597 61.8576 204.53 61.6903 204.53 61.4971C204.53 61.3038 204.597 61.1328 204.735 60.9953C204.873 60.8578 205.037 60.7909 205.231 60.7909Z" fill="#769656"/>
<path d="M207.399 70.6737V70.2983C207.951 70.172 208.253 70.0605 208.309 69.9638C208.38 69.8337 208.417 68.9603 208.417 67.3435C208.417 66.5556 208.424 65.7639 208.436 64.9722C208.107 64.9797 207.783 65.002 207.466 65.0317V64.7084C207.798 64.5746 208.122 64.4147 208.436 64.2252C208.439 63.4558 208.462 62.9801 208.503 62.8017C208.57 62.4783 208.738 62.1587 209.003 61.8428C209.267 61.5268 209.614 61.2592 210.047 61.0437C210.357 60.8838 210.692 60.8021 211.05 60.8021C211.319 60.8021 211.569 60.8318 211.796 60.895C212.024 60.9582 212.319 61.0771 212.673 61.2592C212.501 61.7238 212.349 62.2033 212.207 62.6976L211.837 62.6493C211.77 62.2033 211.64 61.8873 211.442 61.7015C211.248 61.5194 210.991 61.4265 210.67 61.4265C210.39 61.4265 210.163 61.5157 209.98 61.6904C209.797 61.865 209.67 62.1327 209.599 62.4895C209.551 62.7273 209.525 63.2068 209.525 63.9316C209.525 64.0208 209.525 64.1546 209.532 64.3292C209.853 64.3367 210.043 64.3441 210.107 64.3441L211.252 64.3292L211.338 64.4185C211.2 64.6117 211.084 64.8161 210.994 65.0354C210.498 65.0057 210.013 64.9834 209.532 64.976C209.525 65.6152 209.517 66.4478 209.517 67.4736L209.532 69.2279V69.3097C209.532 69.6628 209.569 69.882 209.644 69.9601C209.719 70.0419 210.006 70.1385 210.51 70.25C210.562 70.2649 210.64 70.2797 210.737 70.302V70.6774C210.129 70.6291 209.611 70.6031 209.174 70.6031C208.794 70.6031 208.201 70.6291 207.395 70.6774L207.399 70.6737Z" fill="#769656"/>
<path d="M78.5337 67.3584H115.948" stroke="#769656" stroke-width="2" stroke-miterlimit="10"/>
<path d="M216.385 67.2655H253.739" stroke="#769656" stroke-width="2" stroke-miterlimit="10"/>
</svg>
