<?xml version="1.0" encoding="UTF-8"?><svg id="Calque_2" xmlns="http://www.w3.org/2000/svg" xmlns:xlink="http://www.w3.org/1999/xlink" viewBox="0 0 800 800"><defs><style>.cls-1{fill:none;}.cls-2{clip-path:url(#clippath);}.cls-3{fill:#000030;}.cls-4{fill:#fff;}.cls-5{fill:#b0d236;}.cls-6{fill:#c2e1db;}.cls-7{fill:#154f78;}.cls-8{fill:#0f3754;}.cls-9{fill:#99d2d9;}.cls-10{clip-path:url(#clippath-1);}</style><clipPath id="clippath"><rect class="cls-1" width="800" height="800"/></clipPath><clipPath id="clippath-1"><rect class="cls-1" x="200.56" y="404.61" width="200" height="1034.98"/></clipPath></defs><g id="SCORE_BRAVO"><g id="bravo"><g class="cls-2"><rect class="cls-3" width="800" height="800"/><path class="cls-5" d="m184.12,101.61c-.59,0-1.09-.21-1.52-.64-.43-.43-.64-.93-.64-1.52v-51.68c0-.59.21-1.09.64-1.52.43-.43.93-.64,1.52-.64h26.56c5.12,0,9.31.64,12.56,1.92,3.25,1.23,5.65,3.09,7.2,5.6,1.6,2.45,2.4,5.55,2.4,9.28,0,1.71-.37,3.25-1.12,4.64-.69,1.33-1.55,2.45-2.56,3.36-.96.91-1.87,1.57-2.72,2,2.03.85,3.79,2.35,5.28,4.48,1.55,2.08,2.32,4.45,2.32,7.12,0,4-.88,7.31-2.64,9.92-1.76,2.56-4.32,4.48-7.68,5.76-3.31,1.28-7.39,1.92-12.24,1.92h-27.36Zm17.84-13.76h7.44c1.33,0,2.27-.43,2.8-1.28.59-.91.88-1.79.88-2.64,0-.96-.32-1.84-.96-2.64-.59-.85-1.49-1.28-2.72-1.28h-7.44v7.84Zm0-21.2h6.72c1.17,0,2-.37,2.48-1.12.53-.8.8-1.63.8-2.48s-.27-1.68-.8-2.48c-.48-.8-1.31-1.2-2.48-1.2h-6.72v7.28Zm40.91,34.96c-.59,0-1.09-.21-1.52-.64-.43-.43-.64-.93-.64-1.52v-51.68c0-.59.21-1.09.64-1.52.43-.43.93-.64,1.52-.64h23.68c7.68,0,13.68,1.73,18,5.2,4.32,3.47,6.48,8.21,6.48,14.24,0,3.57-.83,6.69-2.48,9.36-1.6,2.61-3.65,4.72-6.16,6.32l9.84,18.24c.16.32.24.61.24.88,0,.48-.19.91-.56,1.28-.32.32-.72.48-1.2.48h-16.4c-1.07,0-1.87-.27-2.4-.8-.53-.53-.88-.99-1.04-1.36l-6.88-15.28h-3.28v15.28c0,.59-.21,1.09-.64,1.52-.43.43-.93.64-1.52.64h-15.68Zm17.84-32.64h5.84c1.23,0,2.13-.4,2.72-1.2.64-.85.96-1.81.96-2.88s-.29-2.05-.88-2.96c-.53-.96-1.47-1.44-2.8-1.44h-5.84v8.48Zm35.09,32.64c-.48,0-.91-.16-1.28-.48-.32-.37-.48-.8-.48-1.28,0-.21.03-.4.08-.56l17.84-51.04c.16-.59.53-1.17,1.12-1.76.59-.59,1.41-.88,2.48-.88h17.36c1.07,0,1.89.29,2.48.88.59.59.96,1.17,1.12,1.76l17.84,51.04c.05.16.08.35.08.56,0,.48-.19.91-.56,1.28-.32.32-.72.48-1.2.48h-14.8c-1.01,0-1.76-.21-2.24-.64-.43-.48-.72-.93-.88-1.36l-1.92-5.28h-17.2l-1.92,5.28c-.16.43-.45.88-.88,1.36-.43.43-1.17.64-2.24.64h-14.8Zm23.92-22.88h9.04l-4.56-14.88-4.48,14.88Zm49.79,22.88c-1.07,0-1.89-.29-2.48-.88-.59-.59-.96-1.17-1.12-1.76l-15.04-51.04c-.05-.21-.08-.4-.08-.56,0-.48.16-.88.48-1.2.37-.37.8-.56,1.28-.56h14.88c1.07,0,1.89.29,2.48.88.59.59.96,1.17,1.12,1.76l7.6,29.76,7.6-29.76c.16-.59.53-1.17,1.12-1.76.59-.59,1.41-.88,2.48-.88h14.88c.48,0,.88.19,1.2.56.37.32.56.72.56,1.2,0,.16-.03.35-.08.56l-15.04,51.04c-.16.59-.53,1.17-1.12,1.76-.59.59-1.41.88-2.48.88h-18.24Zm66.01.8c-5.23,0-9.81-.8-13.76-2.4-3.89-1.6-6.99-4-9.28-7.2-2.24-3.25-3.47-7.25-3.68-12-.05-2.19-.08-4.51-.08-6.96s.03-4.83.08-7.12c.21-4.69,1.44-8.67,3.68-11.92,2.24-3.25,5.33-5.73,9.28-7.44,3.95-1.71,8.53-2.56,13.76-2.56s9.81.85,13.76,2.56c3.95,1.71,7.04,4.19,9.28,7.44,2.29,3.25,3.52,7.23,3.68,11.92.11,2.29.16,4.67.16,7.12s-.05,4.77-.16,6.96c-.21,4.75-1.47,8.75-3.76,12-2.24,3.2-5.33,5.6-9.28,7.2-3.89,1.6-8.45,2.4-13.68,2.4Zm0-15.6c1.76,0,3.17-.51,4.24-1.52,1.07-1.07,1.63-2.72,1.68-4.96.11-2.29.16-4.56.16-6.8s-.05-4.45-.16-6.64c-.05-1.49-.35-2.72-.88-3.68-.48-.96-1.15-1.65-2-2.08-.85-.48-1.87-.72-3.04-.72s-2.13.24-3.04.72c-.85.43-1.55,1.12-2.08,2.08-.48.96-.75,2.19-.8,3.68-.05,2.19-.08,4.4-.08,6.64s.03,4.51.08,6.8c.11,2.24.67,3.89,1.68,4.96,1.07,1.01,2.48,1.52,4.24,1.52Zm50.78-6.64c-.59,0-1.09-.21-1.52-.64-.43-.43-.64-.93-.64-1.52v-30.24c0-.59.21-1.09.64-1.52.43-.43.93-.64,1.52-.64h13.92c.59,0,1.09.21,1.52.64.43.43.64.93.64,1.52v30.24c0,.59-.21,1.09-.64,1.52-.43.43-.93.64-1.52.64h-13.92Zm0,21.44c-.59,0-1.09-.21-1.52-.64-.43-.43-.64-.93-.64-1.52v-13.92c0-.59.21-1.09.64-1.52.43-.43.93-.64,1.52-.64h13.92c.59,0,1.09.21,1.52.64.43.43.64.93.64,1.52v13.92c0,.59-.21,1.09-.64,1.52-.43.43-.93.64-1.52.64h-13.92Z"/><rect class="cls-5" x="50.56" y="43.61" width="85" height="939"/><rect class="cls-5" x="177.56" y="173.61" width="85" height="685"/><g class="cls-10"><path class="cls-6" d="m318.22,670.3h-61.95c-6.52,0-11.81,5.29-11.81,11.81v47.13c0,6.52,5.29,11.81,11.81,11.81h61.95v-70.75h0Z"/><path class="cls-9" d="m380.17,670.3h-61.95v70.75h61.95c6.52,0,11.81-5.29,11.81-11.81v-47.13c0-6.53-5.29-11.81-11.81-11.81h0Z"/><path class="cls-8" d="m389.09,696.02h-71.67v743.57h71.67c6.33,0,11.46-3.54,11.46-7.91v-727.75c0-4.37-5.13-7.91-11.46-7.91h0Z"/><path class="cls-7" d="m245.77,696.02c-6.33,0-11.46,3.54-11.46,7.91v727.74c0,4.37,5.13,7.91,11.46,7.91h71.66v-743.57h-71.66Z"/><path class="cls-6" d="m380.52,746.01c6.33,0,11.46-5.13,11.46-11.47s-5.13-11.47-11.46-11.47-11.46,5.13-11.46,11.47,5.13,11.47,11.46,11.47Z"/><path class="cls-6" d="m380.52,808.26c6.33,0,11.46-5.13,11.46-11.47s-5.13-11.47-11.46-11.47-11.46,5.13-11.46,11.47,5.13,11.47,11.46,11.47Z"/><path class="cls-6" d="m380.52,777.13c6.33,0,11.46-5.13,11.46-11.47s-5.13-11.46-11.46-11.46-11.46,5.13-11.46,11.46,5.13,11.47,11.46,11.47Z"/><path class="cls-4" d="m378.92,521.34c-9.4,0-16.97,7.46-17.59,16.69-.11-.02-.17-.05-.24-.07v-16.62c0-9.8-8.01-17.84-17.84-17.84s-17.84,8.03-17.84,17.84v-10.74c.71-8.35,1.3-18.76,1.14-15.92l3.91-71.24c.54-9.8-7.02-18.25-16.83-18.79-9.77-.54-18.25,7.04-18.79,16.83l-4.2,76.43c-.04.14-.09.27-.13.4.04-.01.07-.02.11-.03l-.07,1.36c-.15.08-.29.16-.44.23-.25,1.17-.38,2.39-.38,3.63v-3.44c-.57.28-1.15.54-1.72.8l-3.92-71.27c-.54-9.79-9.01-17.37-18.79-16.83-9.81.54-17.37,9-16.83,18.79l3.91,71.24c-.19-3.46.73,12.69,1.61,20.89.02.21.04.42.06.63v27.76c0,2.17-1.99,4.11-4.08,4.74-2.09.63-4.6-.17-5.82-1.99-13.14-17.11-12.3-34.03-31.22-34.03-4.39,0-8.46,2.32-10.7,6.1-2.19,3.79-2.26,8.46-.14,12.3l55.88,120.28c1.57,2.82,4.57,4.58,7.8,4.58h104.2c14.77,0,26.76-11.97,26.76-26.76v-98.11c0-9.81-8.01-17.84-17.84-17.84h0Z"/></g><path class="cls-4" d="m400.8,439.6c-.66.32-1.35.36-2.06.11-.71-.25-1.23-.7-1.55-1.36l-28.18-58.13c-.32-.66-.36-1.35-.11-2.06.25-.71.7-1.23,1.36-1.55l27.26-13.22c5.46-2.65,10.59-4.13,15.4-4.46,4.83-.42,9.16.48,12.98,2.71,3.85,2.13,6.98,5.69,9.4,10.67s3.25,9.61,2.51,13.89c-.71,4.2-2.74,8.03-6.09,11.51-3.32,3.39-7.71,6.41-13.17,9.05l-6.3,3.05,8.33,17.19c.32.66.36,1.35.11,2.06-.25.71-.7,1.23-1.36,1.55l-18.54,8.99Zm2.94-46.21l6.3-3.05c.96-.47,1.71-1.28,2.27-2.43.52-1.22.36-2.69-.48-4.43-.55-1.14-1.4-2.13-2.56-2.98-1.09-.88-2.45-.93-4.07-.14l-6.3,3.05,4.84,9.99Z"/><path class="cls-4" d="m475.88,471.93c-6.53-.23-12.22-1.43-17.08-3.6-4.79-2.17-8.55-5.3-11.28-9.4-2.65-4.16-4.01-9.21-4.07-15.15.03-2.73.1-5.63.21-8.7.11-3.07.24-6.03.41-8.89.47-5.85,2.18-10.76,5.12-14.73,2.94-3.97,6.91-6.93,11.92-8.89,5.01-1.96,10.77-2.82,17.3-2.59,6.53.23,12.22,1.5,17.08,3.8,4.86,2.31,8.61,5.54,11.27,9.7,2.72,4.17,4.08,9.18,4.07,15.05.03,2.87,0,5.84-.11,8.9-.11,3.06-.28,5.96-.51,8.69-.48,5.92-2.22,10.86-5.22,14.83-2.94,3.9-6.91,6.76-11.91,8.59-4.93,1.83-10.67,2.63-17.2,2.4Zm.68-19.49c2.2.08,3.99-.49,5.36-1.71,1.38-1.29,2.15-3.33,2.32-6.12.23-2.86.4-5.69.5-8.49.1-2.8.13-5.57.09-8.3,0-1.87-.31-3.41-.94-4.64-.56-1.22-1.36-2.11-2.41-2.69-1.05-.64-2.3-.98-3.77-1.03-1.4-.05-2.68.21-3.83.77-1.08.49-1.98,1.33-2.69,2.51-.64,1.18-1.03,2.7-1.16,4.56-.16,2.73-.29,5.49-.39,8.29-.1,2.8-.16,5.63-.2,8.5.04,2.8.66,4.89,1.88,6.27,1.29,1.31,3.03,2.01,5.23,2.09Z"/><path class="cls-4" d="m518.93,409.54c-.54.1-1.04-.01-1.51-.33-.47-.32-.75-.75-.85-1.29l-8.7-47.66c-.1-.54.01-1.04.33-1.51.32-.47.75-.75,1.29-.85l15.05-2.75c.54-.1,1.04.01,1.51.33.47.32.75.75.85,1.29l8.7,47.66c.1.54-.01,1.04-.33,1.51-.32.47-.75.75-1.29.85l-15.05,2.75Z"/><path class="cls-4" d="m551.6,425.05c-.55-.05-1-.3-1.36-.74-.36-.44-.51-.93-.46-1.48l4.76-48.22c.05-.55.3-1,.74-1.36.44-.36.93-.51,1.48-.46l11.79,1.17c.99.1,1.69.39,2.1.89s.67.87.79,1.13l10.57,21.92,2.01-20.38c.05-.55.3-1,.74-1.36.44-.36.93-.51,1.48-.46l13.51,1.33c.55.05,1,.3,1.36.74.36.44.51.93.46,1.48l-4.76,48.21c-.05.55-.3,1-.74,1.36-.44.36-.93.51-1.48.46l-11.79-1.17c-.99-.1-1.7-.39-2.1-.89-.4-.54-.66-.92-.79-1.13l-10.73-20.28-1.85,18.73c-.05.55-.3,1-.74,1.36-.44.36-.93.51-1.48.46l-13.51-1.33Z"/><path class="cls-4" d="m625.61,399.61c-.55.05-1.04-.1-1.48-.46-.44-.36-.68-.81-.74-1.36l-3.33-34.19-12.39,1.21c-.55.05-1.04-.1-1.48-.46s-.68-.81-.74-1.36l-1.17-12.02c-.05-.55.1-1.04.46-1.48.36-.44.81-.68,1.36-.73l43.74-4.27c.55-.05,1.04.1,1.48.46.44.36.68.81.73,1.36l1.17,12.02c.05.55-.1,1.04-.46,1.48-.36.44-.81.68-1.36.73l-12.39,1.21,3.34,34.19c.05.55-.1,1.04-.46,1.48-.36.44-.81.68-1.36.74l-14.93,1.46Z"/><path class="cls-4" d="m693.9,419.55c-5.52.54-10.15.24-13.88-.91-3.73-1.14-6.61-2.85-8.64-5.11-2.03-2.26-3.23-4.76-3.59-7.49-.04-.45.07-.83.34-1.16.32-.38.7-.6,1.14-.64l14.18-1.38c.8-.08,1.41-.01,1.83.2.47.15.97.41,1.51.76.53.3,1.06.58,1.59.83.57.2,1.19.34,1.85.42.71.03,1.46,0,2.25-.07,1.69-.17,3.02-.47,3.98-.92,1.01-.5,1.48-1.07,1.41-1.72-.06-.6-.41-1.07-1.04-1.41-.59-.34-1.59-.6-3.01-.76-1.43-.21-3.4-.35-5.92-.4-3.98-.16-7.48-.75-10.5-1.76-3.01-1.01-5.42-2.56-7.23-4.65-1.77-2.14-2.81-4.85-3.13-8.13-.33-3.38.32-6.46,1.96-9.24,1.69-2.78,4.15-5.05,7.4-6.83,3.29-1.78,7.2-2.89,11.73-3.33,3.73-.36,7.09-.19,10.07.52,2.98.66,5.54,1.7,7.69,3.09,2.14,1.35,3.82,2.87,5.04,4.56,1.22,1.69,1.93,3.35,2.14,4.99.04.45-.09.86-.41,1.25-.27.33-.6.51-1,.55l-14.93,1.46c-.7.07-1.28.02-1.75-.13-.42-.16-.87-.42-1.36-.77-.27-.22-.77-.45-1.5-.68-.68-.29-1.54-.38-2.59-.27-1.24.12-2.15.41-2.7.87-.51.4-.74.93-.67,1.57.04.45.31.85.79,1.2.49.35,1.34.62,2.57.8,1.22.18,2.97.31,5.24.39,5.04.11,9.11.69,12.23,1.75,3.16,1,5.52,2.53,7.08,4.58,1.61,2.05,2.57,4.7,2.88,7.93.35,3.63-.43,6.87-2.37,9.73-1.88,2.85-4.62,5.17-8.21,6.98-3.6,1.76-7.76,2.87-12.49,3.33Z"/></g></g></g></svg>