<?xml version="1.0" encoding="UTF-8"?><svg id="Calque_2" xmlns="http://www.w3.org/2000/svg" xmlns:xlink="http://www.w3.org/1999/xlink" viewBox="0 0 800 800"><defs><style>.cls-1{fill:none;}.cls-2{clip-path:url(#clippath);}.cls-3{fill:#000030;}.cls-4{fill:#fff;}.cls-5{fill:#8b4e93;}.cls-6{fill:#9cb5de;}.cls-7{fill:#b0d236;}.cls-8{fill:#ae7ab1;}.cls-9{fill:#748dc7;}.cls-10{clip-path:url(#clippath-1);}</style><clipPath id="clippath"><rect class="cls-1" width="800" height="800"/></clipPath><clipPath id="clippath-1"><rect class="cls-1" x="229.58" y="385.61" width="180" height="1318.45"/></clipPath></defs><g id="SCORE_PAS_LOIN"><g id="pas_loin"><g class="cls-2"><rect class="cls-3" width="800" height="800"/><path class="cls-7" d="m184.14,101.61c-.59,0-1.09-.21-1.52-.64-.43-.43-.64-.93-.64-1.52v-51.68c0-.59.21-1.09.64-1.52.43-.43.93-.64,1.52-.64h24.24c4.85,0,9.07.72,12.64,2.16,3.63,1.39,6.43,3.55,8.4,6.48,2.03,2.88,3.04,6.53,3.04,10.96s-1.01,8.05-3.04,10.88c-1.97,2.77-4.77,4.83-8.4,6.16-3.57,1.28-7.79,1.92-12.64,1.92h-5.6v15.28c0,.59-.21,1.09-.64,1.52-.43.43-.93.64-1.52.64h-16.48Zm18.24-32.24h5.6c.85,0,1.68-.32,2.48-.96.8-.69,1.2-1.81,1.2-3.36,0-1.01-.27-2.03-.8-3.04-.48-1.01-1.44-1.52-2.88-1.52h-5.6v8.88Zm28.99,32.24c-.48,0-.91-.16-1.28-.48-.32-.37-.48-.8-.48-1.28,0-.21.03-.4.08-.56l17.84-51.04c.16-.59.53-1.17,1.12-1.76.59-.59,1.41-.88,2.48-.88h17.36c1.07,0,1.89.29,2.48.88.59.59.96,1.17,1.12,1.76l17.84,51.04c.05.16.08.35.08.56,0,.48-.19.91-.56,1.28-.32.32-.72.48-1.2.48h-14.8c-1.01,0-1.76-.21-2.24-.64-.43-.48-.72-.93-.88-1.36l-1.92-5.28h-17.2l-1.92,5.28c-.16.43-.45.88-.88,1.36-.43.43-1.17.64-2.24.64h-14.8Zm23.92-22.88h9.04l-4.56-14.88-4.48,14.88Zm61.61,23.68c-5.92,0-10.8-.8-14.64-2.4s-6.72-3.71-8.64-6.32c-1.92-2.61-2.93-5.39-3.04-8.32,0-.48.16-.88.48-1.2.37-.37.8-.56,1.28-.56h15.2c.85,0,1.49.13,1.92.4.48.21.99.53,1.52.96.53.37,1.07.72,1.6,1.04.59.27,1.23.48,1.92.64.75.11,1.55.16,2.4.16,1.81,0,3.25-.19,4.32-.56,1.12-.43,1.68-.99,1.68-1.68,0-.64-.32-1.17-.96-1.6-.59-.43-1.63-.8-3.12-1.12-1.49-.37-3.57-.72-6.24-1.04-4.21-.59-7.87-1.57-10.96-2.96-3.09-1.39-5.49-3.28-7.2-5.68-1.65-2.45-2.48-5.44-2.48-8.96s1.01-6.83,3.04-9.6c2.08-2.77,4.93-4.93,8.56-6.48,3.68-1.55,7.95-2.32,12.8-2.32,4,0,7.55.53,10.64,1.6,3.09,1.01,5.71,2.37,7.84,4.08,2.13,1.65,3.76,3.44,4.88,5.36,1.12,1.92,1.71,3.76,1.76,5.52,0,.48-.19.91-.56,1.28-.32.32-.69.48-1.12.48h-16c-.75,0-1.36-.11-1.84-.32-.43-.21-.88-.53-1.36-.96-.27-.27-.77-.56-1.52-.88-.69-.37-1.6-.56-2.72-.56-1.33,0-2.32.21-2.96.64-.59.37-.88.91-.88,1.6,0,.48.24.93.72,1.36.48.43,1.36.8,2.64,1.12s3.12.64,5.52.96c5.33.64,9.6,1.68,12.8,3.12,3.25,1.39,5.6,3.25,7.04,5.6,1.49,2.35,2.24,5.25,2.24,8.72,0,3.89-1.17,7.25-3.52,10.08-2.29,2.83-5.44,5.01-9.44,6.56-4,1.49-8.53,2.24-13.6,2.24Zm49.42-.8c-.59,0-1.09-.21-1.52-.64-.43-.43-.64-.93-.64-1.52v-51.68c0-.59.21-1.09.64-1.52.43-.43.93-.64,1.52-.64h16c.59,0,1.09.21,1.52.64.43.43.64.93.64,1.52v37.44h22.16c.59,0,1.09.21,1.52.64.43.43.64.93.64,1.52v12.08c0,.59-.21,1.09-.64,1.52-.43.43-.93.64-1.52.64h-40.32Zm72.65.8c-5.23,0-9.81-.8-13.76-2.4-3.89-1.6-6.99-4-9.28-7.2-2.24-3.25-3.47-7.25-3.68-12-.05-2.19-.08-4.51-.08-6.96s.03-4.83.08-7.12c.21-4.69,1.44-8.67,3.68-11.92,2.24-3.25,5.33-5.73,9.28-7.44,3.95-1.71,8.53-2.56,13.76-2.56s9.81.85,13.76,2.56c3.95,1.71,7.04,4.19,9.28,7.44,2.29,3.25,3.52,7.23,3.68,11.92.11,2.29.16,4.67.16,7.12s-.05,4.77-.16,6.96c-.21,4.75-1.47,8.75-3.76,12-2.24,3.2-5.33,5.6-9.28,7.2-3.89,1.6-8.45,2.4-13.68,2.4Zm0-15.6c1.76,0,3.17-.51,4.24-1.52,1.07-1.07,1.63-2.72,1.68-4.96.11-2.29.16-4.56.16-6.8s-.05-4.45-.16-6.64c-.05-1.49-.35-2.72-.88-3.68-.48-.96-1.15-1.65-2-2.08-.85-.48-1.87-.72-3.04-.72s-2.13.24-3.04.72c-.85.43-1.55,1.12-2.08,2.08-.48.96-.75,2.19-.8,3.68-.05,2.19-.08,4.4-.08,6.64s.03,4.51.08,6.8c.11,2.24.67,3.89,1.68,4.96,1.07,1.01,2.48,1.52,4.24,1.52Zm36.26,14.8c-.59,0-1.09-.21-1.52-.64-.43-.43-.64-.93-.64-1.52v-51.68c0-.59.21-1.09.64-1.52.43-.43.93-.64,1.52-.64h16.32c.59,0,1.09.21,1.52.64.43.43.64.93.64,1.52v51.68c0,.59-.21,1.09-.64,1.52-.43.43-.93.64-1.52.64h-16.32Zm29.45,0c-.59,0-1.09-.21-1.52-.64-.43-.43-.64-.93-.64-1.52v-51.68c0-.59.21-1.09.64-1.52.43-.43.93-.64,1.52-.64h12.64c1.07,0,1.84.24,2.32.72.48.48.8.85.96,1.12l13.52,22.16v-21.84c0-.59.21-1.09.64-1.52.43-.43.93-.64,1.52-.64h14.48c.59,0,1.09.21,1.52.64.43.43.64.93.64,1.52v51.68c0,.59-.21,1.09-.64,1.52-.43.43-.93.64-1.52.64h-12.64c-1.07,0-1.84-.24-2.32-.72-.48-.53-.8-.91-.96-1.12l-13.52-20.4v20.08c0,.59-.21,1.09-.64,1.52-.43.43-.93.64-1.52.64h-14.48Zm58.1,0c-.59,0-1.09-.21-1.52-.64-.43-.43-.64-.93-.64-1.52v-12.32c0-.59.21-1.09.64-1.52.43-.43.93-.64,1.52-.64h12.32c.59,0,1.09.21,1.52.64.43.43.64.93.64,1.52v12.32c0,.59-.21,1.09-.64,1.52-.43.43-.93.64-1.52.64h-12.32Zm22.24,0c-.59,0-1.09-.21-1.52-.64-.43-.43-.64-.93-.64-1.52v-12.32c0-.59.21-1.09.64-1.52.43-.43.93-.64,1.52-.64h12.32c.59,0,1.09.21,1.52.64.43.43.64.93.64,1.52v12.32c0,.59-.21,1.09-.64,1.52-.43.43-.93.64-1.52.64h-12.32Zm22.24,0c-.59,0-1.09-.21-1.52-.64-.43-.43-.64-.93-.64-1.52v-12.32c0-.59.21-1.09.64-1.52.43-.43.93-.64,1.52-.64h12.32c.59,0,1.09.21,1.52.64.43.43.64.93.64,1.52v12.32c0,.59-.21,1.09-.64,1.52-.43.43-.93.64-1.52.64h-12.32Z"/><rect class="cls-7" x="50.58" y="43.61" width="85" height="939"/><rect class="cls-7" x="177.58" y="173.61" width="85" height="685"/><path class="cls-4" d="m400.82,439.6c-.66.32-1.35.36-2.06.11-.71-.25-1.23-.7-1.55-1.36l-28.18-58.13c-.32-.66-.36-1.35-.11-2.06.25-.71.7-1.23,1.36-1.55l27.26-13.22c5.46-2.65,10.59-4.13,15.4-4.46,4.83-.42,9.16.48,12.98,2.71,3.85,2.13,6.98,5.69,9.4,10.67s3.25,9.61,2.51,13.89c-.71,4.2-2.74,8.03-6.09,11.51-3.32,3.39-7.71,6.41-13.17,9.05l-6.3,3.05,8.33,17.19c.32.66.36,1.35.11,2.06-.25.71-.7,1.23-1.36,1.55l-18.54,8.99Zm2.94-46.21l6.3-3.05c.96-.47,1.71-1.28,2.27-2.43.52-1.22.36-2.69-.48-4.43-.55-1.14-1.4-2.13-2.56-2.98-1.09-.88-2.45-.93-4.07-.14l-6.3,3.05,4.84,9.99Z"/><path class="cls-4" d="m475.91,471.93c-6.53-.23-12.22-1.43-17.08-3.6-4.79-2.17-8.55-5.3-11.28-9.4-2.65-4.16-4.01-9.21-4.07-15.15.03-2.73.1-5.63.21-8.7.11-3.07.24-6.03.41-8.89.47-5.85,2.18-10.76,5.12-14.73,2.94-3.97,6.91-6.93,11.92-8.89,5.01-1.96,10.77-2.82,17.3-2.59,6.53.23,12.22,1.5,17.08,3.8,4.86,2.31,8.61,5.54,11.27,9.7,2.72,4.17,4.08,9.18,4.07,15.05.03,2.87,0,5.84-.11,8.9-.11,3.06-.28,5.96-.51,8.69-.48,5.92-2.22,10.86-5.22,14.83-2.94,3.9-6.91,6.76-11.91,8.59-4.93,1.83-10.67,2.63-17.2,2.4Zm.68-19.49c2.2.08,3.99-.49,5.36-1.71,1.38-1.29,2.15-3.33,2.32-6.12.23-2.86.4-5.69.5-8.49.1-2.8.13-5.57.09-8.3,0-1.87-.31-3.41-.94-4.64-.56-1.22-1.36-2.11-2.41-2.69-1.05-.64-2.3-.98-3.77-1.03-1.4-.05-2.68.21-3.83.77-1.08.49-1.98,1.33-2.69,2.51-.64,1.18-1.03,2.7-1.16,4.56-.16,2.73-.29,5.49-.39,8.29-.1,2.8-.16,5.63-.2,8.5.04,2.8.66,4.89,1.88,6.27,1.29,1.31,3.03,2.01,5.23,2.09Z"/><path class="cls-4" d="m518.96,409.54c-.54.1-1.04-.01-1.51-.33-.47-.32-.75-.75-.85-1.29l-8.7-47.66c-.1-.54.01-1.04.33-1.51.32-.47.75-.75,1.29-.85l15.05-2.75c.54-.1,1.04.01,1.51.33.47.32.75.75.85,1.29l8.7,47.66c.1.54-.01,1.04-.33,1.51-.32.47-.75.75-1.29.85l-15.05,2.75Z"/><path class="cls-4" d="m551.62,425.05c-.55-.05-1-.3-1.36-.74-.36-.44-.51-.93-.46-1.48l4.76-48.22c.05-.55.3-1,.74-1.36.44-.36.93-.51,1.48-.46l11.79,1.17c.99.1,1.69.39,2.1.89s.67.87.79,1.13l10.57,21.92,2.01-20.38c.05-.55.3-1,.74-1.36.44-.36.93-.51,1.48-.46l13.51,1.33c.55.05,1,.3,1.36.74.36.44.51.93.46,1.48l-4.76,48.21c-.05.55-.3,1-.74,1.36-.44.36-.93.51-1.48.46l-11.79-1.17c-.99-.1-1.7-.39-2.1-.89-.4-.54-.66-.92-.79-1.13l-10.73-20.28-1.85,18.73c-.05.55-.3,1-.74,1.36-.44.36-.93.51-1.48.46l-13.51-1.33Z"/><path class="cls-4" d="m625.64,399.61c-.55.05-1.04-.1-1.48-.46-.44-.36-.68-.81-.74-1.36l-3.33-34.19-12.39,1.21c-.55.05-1.04-.1-1.48-.46s-.68-.81-.74-1.36l-1.17-12.02c-.05-.55.1-1.04.46-1.48.36-.44.81-.68,1.36-.73l43.74-4.27c.55-.05,1.04.1,1.48.46.44.36.68.81.73,1.36l1.17,12.02c.05.55-.1,1.04-.46,1.48-.36.44-.81.68-1.36.73l-12.39,1.21,3.34,34.19c.05.55-.1,1.04-.46,1.48-.36.44-.81.68-1.36.74l-14.93,1.46Z"/><path class="cls-4" d="m693.92,419.55c-5.52.54-10.15.24-13.88-.91-3.73-1.14-6.61-2.85-8.64-5.11-2.03-2.26-3.23-4.76-3.59-7.49-.04-.45.07-.83.34-1.16.32-.38.7-.6,1.14-.64l14.18-1.38c.8-.08,1.41-.01,1.83.2.47.15.97.41,1.51.76.53.3,1.06.58,1.59.83.57.2,1.19.34,1.85.42.71.03,1.46,0,2.25-.07,1.69-.17,3.02-.47,3.98-.92,1.01-.5,1.48-1.07,1.41-1.72-.06-.6-.41-1.07-1.04-1.41-.59-.34-1.59-.6-3.01-.76-1.43-.21-3.4-.35-5.92-.4-3.98-.16-7.48-.75-10.5-1.76-3.01-1.01-5.42-2.56-7.23-4.65-1.77-2.14-2.81-4.85-3.13-8.13-.33-3.38.32-6.46,1.96-9.24,1.69-2.78,4.15-5.05,7.4-6.83,3.29-1.78,7.2-2.89,11.73-3.33,3.73-.36,7.09-.19,10.07.52,2.98.66,5.54,1.7,7.69,3.09,2.14,1.35,3.82,2.87,5.04,4.56,1.22,1.69,1.93,3.35,2.14,4.99.04.45-.09.86-.41,1.25-.27.33-.6.51-1,.55l-14.93,1.46c-.7.07-1.28.02-1.75-.13-.42-.16-.87-.42-1.36-.77-.27-.22-.77-.45-1.5-.68-.68-.29-1.54-.38-2.59-.27-1.24.12-2.15.41-2.7.87-.51.4-.74.93-.67,1.57.04.45.31.85.79,1.2.49.35,1.34.62,2.57.8,1.22.18,2.97.31,5.24.39,5.04.11,9.11.69,12.23,1.75,3.16,1,5.52,2.53,7.08,4.58,1.61,2.05,2.57,4.7,2.88,7.93.35,3.63-.43,6.87-2.37,9.73-1.88,2.85-4.62,5.17-8.21,6.98-3.6,1.76-7.76,2.87-12.49,3.33Z"/><g class="cls-10"><path class="cls-4" d="m372.61,514.14c1.99-6.26,3.94-12.49,2.41-19.04-4.56-9.36-17.41-14.57-27.58-11.86-3.29.87-6.3,2.57-8.66,5.22-.72,1.69-1.31,3.42-1.82,5.17-.94-2.25-1.85-4.5-2.71-6.78,1.39-9.93,2.92-19.87,4.46-29.81,2.76-17.75,5.54-35.53,7.62-53.44,1.81-19.93-35.03-25.37-39.25-5.74-.54,3.3-1.04,6.6-1.56,9.89-2.79,17.97-5.35,35.99-7.94,54-.23,1.63-.47,3.25-.71,4.88-2.38,16.45-4.84,32.89-7.61,49.29-6.95-37.44-6.34-76.09-12.08-113.84-.91-2-2.18-3.66-3.71-5.02-11.61-10.33-38.07-2.57-34.33,15.58,1.71,27.38,3.9,54.76,5.89,82.07,1.1,15.16,2.14,30.29,3.01,45.39.05.89.11,1.79.16,2.69-3.85,11.32-13.48,21.29-17.16,32.96-1.23,3.89-1.79,7.96-1.26,12.34,3.4,23.26,12,47.86,29.32,64.44.36.35.72.68,1.08,1.02l2.26,4.92c1.18,2.12,3.34,3.5,5.73,3.74.24.02.48.05.72.05h85.35s.08,0,.12,0c7.86-.04,14.75-4.19,18.64-10.41,1.5-4.46,2.56-9.14,3.35-13.87.2-1.19.37-2.38.53-3.58,18.77-31.92,25.1-70.89,32.55-107,2.43-21.03-28.12-30.24-36.83-13.27h0Zm-42.28,5.42c.91-9.71,2.09-19.4,3.42-29.09.8,1.92,1.64,3.83,2.52,5.72-1.97,7.79-2.77,15.92-5.93,23.36h0Z"/><path class="cls-8" d="m317.82,668.96h-61.47c-6.47,0-11.72,5.25-11.72,11.72v46.76c0,6.47,5.24,11.72,11.72,11.72h61.47v-70.2h0Z"/><path class="cls-5" d="m379.29,668.96h-61.47v70.2h61.47c6.47,0,11.72-5.25,11.72-11.72v-46.76c0-6.47-5.25-11.72-11.72-11.72h0Z"/><path class="cls-9" d="m388.14,694.48h-71.11v1009.58h71.11c6.28,0,11.38-3.51,11.38-7.85v-993.88c0-4.34-5.09-7.85-11.38-7.85Z"/><path class="cls-6" d="m245.93,694.48c-6.28,0-11.38,3.51-11.38,7.85v993.88c0,4.34,5.09,7.85,11.38,7.85h71.1v-1009.58h-71.1Z"/><path class="cls-5" d="m391.01,732.71c0,6.28-5.09,11.38-11.38,11.38s-11.38-5.09-11.38-11.38,5.09-11.38,11.38-11.38,11.38,5.09,11.38,11.38Z"/><path class="cls-5" d="m391.01,794.47c0,6.28-5.09,11.38-11.38,11.38s-11.38-5.09-11.38-11.38,5.09-11.38,11.38-11.38,11.38,5.09,11.38,11.38Z"/><path class="cls-5" d="m383.99,774.09c5.8-2.41,8.56-9.06,6.16-14.86-2.4-5.8-9.06-8.56-14.86-6.16-5.8,2.4-8.56,9.06-6.16,14.86,2.4,5.8,9.06,8.56,14.86,6.16Z"/></g></g></g></g></svg>