<?xml version="1.0" encoding="UTF-8"?><svg id="Calque_2" xmlns="http://www.w3.org/2000/svg" xmlns:xlink="http://www.w3.org/1999/xlink" viewBox="0 0 800 800"><defs><style>.cls-1{fill:none;}.cls-2{clip-path:url(#clippath);}.cls-3{fill:#000030;}.cls-4{fill:#fff;}.cls-5{fill:#b0d236;}.cls-6{fill:#c2e1db;}.cls-7{fill:#154f78;}.cls-8{fill:#0f3754;}.cls-9{fill:#99d2d9;}.cls-10{clip-path:url(#clippath-1);}</style><clipPath id="clippath"><rect class="cls-1" width="800" height="800"/></clipPath><clipPath id="clippath-1"><rect class="cls-1" x="190.58" y="416.66" width="200" height="1002.23"/></clipPath></defs><g id="SCORE_PRESQUE"><g id="presque"><g class="cls-2"><rect class="cls-3" width="800" height="800"/><path class="cls-5" d="m184.14,101.66c-.59,0-1.09-.21-1.52-.64-.43-.43-.64-.93-.64-1.52v-51.68c0-.59.21-1.09.64-1.52.43-.43.93-.64,1.52-.64h24.24c4.85,0,9.07.72,12.64,2.16,3.63,1.39,6.43,3.55,8.4,6.48,2.03,2.88,3.04,6.53,3.04,10.96s-1.01,8.05-3.04,10.88c-1.97,2.77-4.77,4.83-8.4,6.16-3.57,1.28-7.79,1.92-12.64,1.92h-5.6v15.28c0,.59-.21,1.09-.64,1.52-.43.43-.93.64-1.52.64h-16.48Zm18.24-32.24h5.6c.85,0,1.68-.32,2.48-.96.8-.69,1.2-1.81,1.2-3.36,0-1.01-.27-2.03-.8-3.04-.48-1.01-1.44-1.52-2.88-1.52h-5.6v8.88Zm38.17,32.24c-.59,0-1.09-.21-1.52-.64-.43-.43-.64-.93-.64-1.52v-51.68c0-.59.21-1.09.64-1.52.43-.43.93-.64,1.52-.64h23.68c7.68,0,13.68,1.73,18,5.2,4.32,3.47,6.48,8.21,6.48,14.24,0,3.57-.83,6.69-2.48,9.36-1.6,2.61-3.65,4.72-6.16,6.32l9.84,18.24c.16.32.24.61.24.88,0,.48-.19.91-.56,1.28-.32.32-.72.48-1.2.48h-16.4c-1.07,0-1.87-.27-2.4-.8-.53-.53-.88-.99-1.04-1.36l-6.88-15.28h-3.28v15.28c0,.59-.21,1.09-.64,1.52-.43.43-.93.64-1.52.64h-15.68Zm17.84-32.64h5.84c1.23,0,2.13-.4,2.72-1.2.64-.85.96-1.81.96-2.88s-.29-2.05-.88-2.96c-.53-.96-1.47-1.44-2.8-1.44h-5.84v8.48Zm39.9,32.64c-.59,0-1.09-.21-1.52-.64-.43-.43-.64-.93-.64-1.52v-51.68c0-.59.21-1.09.64-1.52.43-.43.93-.64,1.52-.64h41.04c.59,0,1.09.21,1.52.64.43.43.64.93.64,1.52v11.28c0,.59-.21,1.09-.64,1.52-.43.43-.93.64-1.52.64h-24v5.04h22.24c.59,0,1.09.21,1.52.64.43.43.64.93.64,1.52v10.4c0,.59-.21,1.09-.64,1.52-.43.43-.93.64-1.52.64h-22.24v5.04h24.64c.59,0,1.09.21,1.52.64.43.43.64.93.64,1.52v11.28c0,.59-.21,1.09-.64,1.52-.43.43-.93.64-1.52.64h-41.68Zm74.56.8c-5.92,0-10.8-.8-14.64-2.4s-6.72-3.71-8.64-6.32c-1.92-2.61-2.93-5.39-3.04-8.32,0-.48.16-.88.48-1.2.37-.37.8-.56,1.28-.56h15.2c.85,0,1.49.13,1.92.4.48.21.99.53,1.52.96.53.37,1.07.72,1.6,1.04.59.27,1.23.48,1.92.64.75.11,1.55.16,2.4.16,1.81,0,3.25-.19,4.32-.56,1.12-.43,1.68-.99,1.68-1.68,0-.64-.32-1.17-.96-1.6-.59-.43-1.63-.8-3.12-1.12-1.49-.37-3.57-.72-6.24-1.04-4.21-.59-7.87-1.57-10.96-2.96-3.09-1.39-5.49-3.28-7.2-5.68-1.65-2.45-2.48-5.44-2.48-8.96s1.01-6.83,3.04-9.6c2.08-2.77,4.93-4.93,8.56-6.48,3.68-1.55,7.95-2.32,12.8-2.32,4,0,7.55.53,10.64,1.6,3.09,1.01,5.71,2.37,7.84,4.08,2.13,1.65,3.76,3.44,4.88,5.36s1.71,3.76,1.76,5.52c0,.48-.19.91-.56,1.28-.32.32-.69.48-1.12.48h-16c-.75,0-1.36-.11-1.84-.32-.43-.21-.88-.53-1.36-.96-.27-.27-.77-.56-1.52-.88-.69-.37-1.6-.56-2.72-.56-1.33,0-2.32.21-2.96.64-.59.37-.88.91-.88,1.6,0,.48.24.93.72,1.36.48.43,1.36.8,2.64,1.12s3.12.64,5.52.96c5.33.64,9.6,1.68,12.8,3.12,3.25,1.39,5.6,3.25,7.04,5.6,1.49,2.35,2.24,5.25,2.24,8.72,0,3.89-1.17,7.25-3.52,10.08-2.29,2.83-5.44,5.01-9.44,6.56-4,1.49-8.53,2.24-13.6,2.24Zm67.86,4.4c-1.01,0-1.76-.24-2.24-.72-.48-.43-.85-.8-1.12-1.12l-2.24-2.8c-1.44.16-2.99.24-4.64.24-5.23,0-9.81-.8-13.76-2.4-3.89-1.6-6.99-4-9.28-7.2-2.24-3.25-3.47-7.25-3.68-12-.05-2.19-.08-4.51-.08-6.96s.03-4.83.08-7.12c.21-4.69,1.44-8.67,3.68-11.92,2.24-3.25,5.33-5.73,9.28-7.44,3.95-1.71,8.53-2.56,13.76-2.56s9.81.85,13.76,2.56c3.95,1.71,7.04,4.19,9.28,7.44,2.29,3.25,3.52,7.23,3.68,11.92.11,2.29.16,4.67.16,7.12s-.05,4.77-.16,6.96c-.32,6.03-2.24,10.85-5.76,14.48l6.32,9.04c.05.05.11.16.16.32.05.16.08.29.08.4.11.48-.03.88-.4,1.2-.32.37-.72.56-1.2.56h-15.68Zm-10.24-20c1.76,0,3.17-.51,4.24-1.52,1.07-1.07,1.63-2.72,1.68-4.96.11-2.29.16-4.56.16-6.8s-.05-4.45-.16-6.64c-.05-1.49-.35-2.72-.88-3.68-.48-.96-1.15-1.65-2-2.08-.85-.48-1.87-.72-3.04-.72s-2.13.24-3.04.72c-.85.43-1.55,1.12-2.08,2.08-.48.96-.75,2.19-.8,3.68-.05,2.19-.08,4.4-.08,6.64s.03,4.51.08,6.8c.11,2.24.67,3.89,1.68,4.96,1.07,1.01,2.48,1.52,4.24,1.52Zm59.69,15.6c-5.12,0-9.65-.77-13.6-2.32-3.89-1.55-6.93-3.95-9.12-7.2-2.19-3.25-3.28-7.39-3.28-12.4v-32.72c0-.59.21-1.09.64-1.52.43-.43.93-.64,1.52-.64h15.68c.59,0,1.09.21,1.52.64.43.43.64.93.64,1.52v32.4c0,1.97.48,3.49,1.44,4.56,1.01,1.07,2.51,1.6,4.48,1.6s3.44-.53,4.4-1.6c1.01-1.07,1.52-2.59,1.52-4.56v-32.4c0-.59.21-1.09.64-1.52.43-.43.93-.64,1.52-.64h15.68c.59,0,1.09.21,1.52.64.43.43.64.93.64,1.52v32.72c0,5.01-1.09,9.15-3.28,12.4-2.19,3.25-5.23,5.65-9.12,7.2-3.89,1.55-8.37,2.32-13.44,2.32Zm36.33-.8c-.59,0-1.09-.21-1.52-.64-.43-.43-.64-.93-.64-1.52v-51.68c0-.59.21-1.09.64-1.52.43-.43.93-.64,1.52-.64h41.04c.59,0,1.09.21,1.52.64.43.43.64.93.64,1.52v11.28c0,.59-.21,1.09-.64,1.52-.43.43-.93.64-1.52.64h-24v5.04h22.24c.59,0,1.09.21,1.52.64.43.43.64.93.64,1.52v10.4c0,.59-.21,1.09-.64,1.52-.43.43-.93.64-1.52.64h-22.24v5.04h24.64c.59,0,1.09.21,1.52.64.43.43.64.93.64,1.52v11.28c0,.59-.21,1.09-.64,1.52-.43.43-.93.64-1.52.64h-41.68Zm67.88-21.44c-.59,0-1.09-.21-1.52-.64-.43-.43-.64-.93-.64-1.52v-30.24c0-.59.21-1.09.64-1.52.43-.43.93-.64,1.52-.64h13.92c.59,0,1.09.21,1.52.64.43.43.64.93.64,1.52v30.24c0,.59-.21,1.09-.64,1.52-.43.43-.93.64-1.52.64h-13.92Zm0,21.44c-.59,0-1.09-.21-1.52-.64-.43-.43-.64-.93-.64-1.52v-13.92c0-.59.21-1.09.64-1.52.43-.43.93-.64,1.52-.64h13.92c.59,0,1.09.21,1.52.64.43.43.64.93.64,1.52v13.92c0,.59-.21,1.09-.64,1.52-.43.43-.93.64-1.52.64h-13.92Z"/><g id="POINT"><path class="cls-4" d="m400.82,439.65c-.66.32-1.35.36-2.06.11-.71-.25-1.23-.7-1.55-1.36l-28.18-58.13c-.32-.66-.36-1.35-.11-2.06.25-.71.7-1.23,1.36-1.55l27.26-13.22c5.46-2.65,10.59-4.13,15.4-4.46,4.83-.42,9.16.48,12.98,2.71,3.85,2.13,6.98,5.69,9.4,10.67s3.25,9.61,2.51,13.89c-.71,4.2-2.74,8.03-6.09,11.51-3.32,3.39-7.71,6.41-13.17,9.05l-6.3,3.05,8.33,17.19c.32.66.36,1.35.11,2.06-.25.71-.7,1.23-1.36,1.55l-18.54,8.99Zm2.94-46.21l6.3-3.05c.96-.47,1.71-1.28,2.27-2.43.52-1.22.36-2.69-.48-4.43-.55-1.14-1.4-2.13-2.56-2.98-1.09-.88-2.45-.93-4.07-.14l-6.3,3.05,4.84,9.99Z"/><path class="cls-4" d="m475.91,471.98c-6.53-.23-12.22-1.43-17.08-3.6-4.79-2.17-8.55-5.3-11.28-9.4-2.65-4.16-4.01-9.21-4.07-15.15.03-2.73.1-5.63.21-8.7.11-3.07.24-6.03.41-8.89.47-5.85,2.18-10.76,5.12-14.73,2.94-3.97,6.91-6.93,11.92-8.89,5.01-1.96,10.77-2.82,17.3-2.59,6.53.23,12.22,1.5,17.08,3.8,4.86,2.31,8.61,5.54,11.27,9.7,2.72,4.17,4.08,9.18,4.07,15.05.03,2.87,0,5.84-.11,8.9-.11,3.06-.28,5.96-.51,8.69-.48,5.92-2.22,10.86-5.22,14.83-2.94,3.9-6.91,6.76-11.91,8.59-4.93,1.83-10.67,2.63-17.2,2.4Zm.68-19.49c2.2.08,3.99-.49,5.36-1.71,1.38-1.29,2.15-3.33,2.32-6.12.23-2.86.4-5.69.5-8.49.1-2.8.13-5.57.09-8.3,0-1.87-.31-3.41-.94-4.64-.56-1.22-1.36-2.11-2.41-2.69-1.05-.64-2.3-.98-3.77-1.03-1.4-.05-2.68.21-3.83.77-1.08.49-1.98,1.33-2.69,2.51-.64,1.18-1.03,2.7-1.16,4.56-.16,2.73-.29,5.49-.39,8.29-.1,2.8-.16,5.63-.2,8.5.04,2.8.66,4.89,1.88,6.27,1.29,1.31,3.03,2.01,5.23,2.09Z"/><path class="cls-4" d="m518.96,409.59c-.54.1-1.04-.01-1.51-.33-.47-.32-.75-.75-.85-1.29l-8.7-47.66c-.1-.54.01-1.04.33-1.51.32-.47.75-.75,1.29-.85l15.05-2.75c.54-.1,1.04.01,1.51.33.47.32.75.75.85,1.29l8.7,47.66c.1.54-.01,1.04-.33,1.51-.32.47-.75.75-1.29.85l-15.05,2.75Z"/><path class="cls-4" d="m551.62,425.1c-.55-.05-1-.3-1.36-.74-.36-.44-.51-.93-.46-1.48l4.76-48.22c.05-.55.3-1,.74-1.36.44-.36.93-.51,1.48-.46l11.79,1.17c.99.1,1.69.39,2.1.89s.67.87.79,1.13l10.57,21.92,2.01-20.38c.05-.55.3-1,.74-1.36.44-.36.93-.51,1.48-.46l13.51,1.33c.55.05,1,.3,1.36.74.36.44.51.93.46,1.48l-4.76,48.21c-.05.55-.3,1-.74,1.36-.44.36-.93.51-1.48.46l-11.79-1.17c-.99-.1-1.7-.39-2.1-.89-.4-.54-.66-.92-.79-1.13l-10.73-20.28-1.85,18.73c-.05.55-.3,1-.74,1.36-.44.36-.93.51-1.48.46l-13.51-1.33Z"/><path class="cls-4" d="m625.64,399.66c-.55.05-1.04-.1-1.48-.46-.44-.36-.68-.81-.74-1.36l-3.33-34.19-12.39,1.21c-.55.05-1.04-.1-1.48-.46s-.68-.81-.74-1.36l-1.17-12.02c-.05-.55.1-1.04.46-1.48.36-.44.81-.68,1.36-.73l43.74-4.27c.55-.05,1.04.1,1.48.46.44.36.68.81.73,1.36l1.17,12.02c.05.55-.1,1.04-.46,1.48-.36.44-.81.68-1.36.73l-12.39,1.21,3.34,34.19c.05.55-.1,1.04-.46,1.48-.36.44-.81.68-1.36.74l-14.93,1.46Z"/></g><rect class="cls-5" x="50.58" y="43.66" width="85" height="939"/><rect class="cls-5" x="177.58" y="173.66" width="85" height="685"/><g class="cls-10"><path class="cls-4" d="m364.82,521.21c-9.19,0-16.58,7.28-17.19,16.3-.1-.02-.17-.05-.24-.07v-16.23c0-9.58-7.83-17.42-17.43-17.42s-17.42,7.85-17.42,17.42v-17.42c0-9.58-7.83-17.42-17.43-17.42s-17.42,7.85-17.42,17.42v-69.7c0-9.58-7.83-17.42-17.43-17.42s-17.42,7.84-17.42,17.42v117.14c0,2.13-1.94,4.02-3.98,4.63-2.04.61-4.49-.17-5.68-1.95-12.83-16.72-12.01-33.24-30.49-33.24-4.29,0-8.27,2.26-10.45,5.95-2.14,3.7-2.21,8.27-.14,12.01l54.59,117.5c1.53,2.76,4.46,4.48,7.62,4.48h101.79c14.43,0,26.14-11.69,26.14-26.14v-95.84c0-9.58-7.83-17.42-17.42-17.42h0Z"/><path class="cls-7" d="m310.52,670.86h-60.24c-6.34,0-11.48,5.14-11.48,11.48v45.83c0,6.34,5.14,11.48,11.48,11.48h60.24v-68.8h0Z"/><path class="cls-8" d="m370.76,670.86h-60.24v68.8h60.24c6.34,0,11.48-5.14,11.48-11.48v-45.83c0-6.34-5.14-11.48-11.48-11.48h0Z"/><path class="cls-9" d="m379.43,695.87h-69.68v723.02h69.68c6.16,0,11.15-3.44,11.15-7.69v-707.64c0-4.25-4.99-7.69-11.15-7.69Z"/><path class="cls-6" d="m240.06,695.87c-6.16,0-11.15,3.44-11.15,7.69v707.64c0,4.25,4.99,7.69,11.15,7.69h69.68v-723.02h-69.68Z"/><path class="cls-7" d="m371.09,744.48c6.16,0,11.15-4.99,11.15-11.15s-4.99-11.15-11.15-11.15-11.15,4.99-11.15,11.15,4.99,11.15,11.15,11.15Z"/><path class="cls-7" d="m371.09,805c6.16,0,11.15-4.99,11.15-11.15s-4.99-11.15-11.15-11.15-11.15,4.99-11.15,11.15,4.99,11.15,11.15,11.15Z"/><path class="cls-7" d="m371.09,774.74c6.16,0,11.15-4.99,11.15-11.15s-4.99-11.15-11.15-11.15-11.15,4.99-11.15,11.15,4.99,11.15,11.15,11.15Z"/></g></g></g></g></svg>