<?xml version="1.0" encoding="UTF-8"?><svg id="Calque_2" xmlns="http://www.w3.org/2000/svg" xmlns:xlink="http://www.w3.org/1999/xlink" viewBox="0 0 800 800"><defs><style>.cls-1{fill:none;}.cls-2{clip-path:url(#clippath);}.cls-3{fill:#000030;}.cls-4{fill:#fff;}.cls-5{fill:#f5a425;}.cls-6{fill:#ec5039;}.cls-7{fill:#8c2b3d;}.cls-8{fill:#b82025;}.cls-9{fill:#db6a27;}.cls-10{fill:#42130d;}.cls-11{clip-path:url(#clippath-1);}</style><clipPath id="clippath"><rect class="cls-1" width="800" height="800"/></clipPath><clipPath id="clippath-1"><rect class="cls-1" x="177.54" y="424.74" width="230" height="1634.49"/></clipPath></defs><g id="SCORE_RETENTEZ"><g class="cls-2"><rect class="cls-3" width="800" height="800"/><path class="cls-6" d="m163.1,101.74c-.59,0-1.09-.21-1.52-.64-.43-.43-.64-.93-.64-1.52v-51.68c0-.59.21-1.09.64-1.52.43-.43.93-.64,1.52-.64h23.68c7.68,0,13.68,1.73,18,5.2,4.32,3.47,6.48,8.21,6.48,14.24,0,3.57-.83,6.69-2.48,9.36-1.6,2.61-3.65,4.72-6.16,6.32l9.84,18.24c.16.32.24.61.24.88,0,.48-.19.91-.56,1.28-.32.32-.72.48-1.2.48h-16.4c-1.07,0-1.87-.27-2.4-.8-.53-.53-.88-.99-1.04-1.36l-6.88-15.28h-3.28v15.28c0,.59-.21,1.09-.64,1.52-.43.43-.93.64-1.52.64h-15.68Zm17.84-32.64h5.84c1.23,0,2.13-.4,2.72-1.2.64-.85.96-1.81.96-2.88s-.29-2.05-.88-2.96c-.53-.96-1.47-1.44-2.8-1.44h-5.84v8.48Zm39.89,32.64c-.59,0-1.09-.21-1.52-.64-.43-.43-.64-.93-.64-1.52v-51.68c0-.59.21-1.09.64-1.52.43-.43.93-.64,1.52-.64h41.04c.59,0,1.09.21,1.52.64.43.43.64.93.64,1.52v11.28c0,.59-.21,1.09-.64,1.52-.43.43-.93.64-1.52.64h-24v5.04h22.24c.59,0,1.09.21,1.52.64.43.43.64.93.64,1.52v10.4c0,.59-.21,1.09-.64,1.52-.43.43-.93.64-1.52.64h-22.24v5.04h24.64c.59,0,1.09.21,1.52.64.43.43.64.93.64,1.52v11.28c0,.59-.21,1.09-.64,1.52-.43.43-.93.64-1.52.64h-41.68Zm65.76,0c-.59,0-1.09-.21-1.52-.64-.43-.43-.64-.93-.64-1.52v-36.64h-13.28c-.59,0-1.09-.21-1.52-.64-.43-.43-.64-.93-.64-1.52v-12.88c0-.59.21-1.09.64-1.52.43-.43.93-.64,1.52-.64h46.88c.59,0,1.09.21,1.52.64.43.43.64.93.64,1.52v12.88c0,.59-.21,1.09-.64,1.52-.43.43-.93.64-1.52.64h-13.28v36.64c0,.59-.21,1.09-.64,1.52-.43.43-.93.64-1.52.64h-16Zm41.51,0c-.59,0-1.09-.21-1.52-.64-.43-.43-.64-.93-.64-1.52v-51.68c0-.59.21-1.09.64-1.52.43-.43.93-.64,1.52-.64h41.04c.59,0,1.09.21,1.52.64.43.43.64.93.64,1.52v11.28c0,.59-.21,1.09-.64,1.52s-.93.64-1.52.64h-24v5.04h22.24c.59,0,1.09.21,1.52.64.43.43.64.93.64,1.52v10.4c0,.59-.21,1.09-.64,1.52-.43.43-.93.64-1.52.64h-22.24v5.04h24.64c.59,0,1.09.21,1.52.64s.64.93.64,1.52v11.28c0,.59-.21,1.09-.64,1.52-.43.43-.93.64-1.52.64h-41.68Zm53.36,0c-.59,0-1.09-.21-1.52-.64-.43-.43-.64-.93-.64-1.52v-51.68c0-.59.21-1.09.64-1.52.43-.43.93-.64,1.52-.64h12.64c1.07,0,1.84.24,2.32.72.48.48.8.85.96,1.12l13.52,22.16v-21.84c0-.59.21-1.09.64-1.52.43-.43.93-.64,1.52-.64h14.48c.59,0,1.09.21,1.52.64.43.43.64.93.64,1.52v51.68c0,.59-.21,1.09-.64,1.52-.43.43-.93.64-1.52.64h-12.64c-1.07,0-1.84-.24-2.32-.72-.48-.53-.8-.91-.96-1.12l-13.52-20.4v20.08c0,.59-.21,1.09-.64,1.52-.43.43-.93.64-1.52.64h-14.48Zm71.62,0c-.59,0-1.09-.21-1.52-.64-.43-.43-.64-.93-.64-1.52v-36.64h-13.28c-.59,0-1.09-.21-1.52-.64-.43-.43-.64-.93-.64-1.52v-12.88c0-.59.21-1.09.64-1.52.43-.43.93-.64,1.52-.64h46.88c.59,0,1.09.21,1.52.64.43.43.64.93.64,1.52v12.88c0,.59-.21,1.09-.64,1.52-.43.43-.93.64-1.52.64h-13.28v36.64c0,.59-.21,1.09-.64,1.52-.43.43-.93.64-1.52.64h-16Zm41.51,0c-.59,0-1.09-.21-1.52-.64-.43-.43-.64-.93-.64-1.52v-51.68c0-.59.21-1.09.64-1.52.43-.43.93-.64,1.52-.64h41.04c.59,0,1.09.21,1.52.64.43.43.64.93.64,1.52v11.28c0,.59-.21,1.09-.64,1.52-.43.43-.93.64-1.52.64h-24v5.04h22.24c.59,0,1.09.21,1.52.64.43.43.64.93.64,1.52v10.4c0,.59-.21,1.09-.64,1.52-.43.43-.93.64-1.52.64h-22.24v5.04h24.64c.59,0,1.09.21,1.52.64.43.43.64.93.64,1.52v11.28c0,.59-.21,1.09-.64,1.52-.43.43-.93.64-1.52.64h-41.68Zm51.76,0c-.59,0-1.09-.21-1.52-.64-.43-.43-.64-.93-.64-1.52v-11.52c0-.75.13-1.33.4-1.76.32-.48.59-.83.8-1.04l22.4-23.28h-20.64c-.59,0-1.09-.21-1.52-.64-.43-.43-.64-.93-.64-1.52v-11.92c0-.59.21-1.09.64-1.52.43-.43.93-.64,1.52-.64h43.84c.59,0,1.09.21,1.52.64.43.43.64.93.64,1.52v11.36c0,.53-.11,1.04-.32,1.52-.16.43-.4.8-.72,1.12l-21.2,23.44h21.12c.59,0,1.09.21,1.52.64.43.43.64.93.64,1.52v12.08c0,.59-.21,1.09-.64,1.52-.43.43-.93.64-1.52.64h-45.68Zm70.79,0c-.59,0-1.09-.21-1.52-.64-.43-.43-.64-.93-.64-1.52v-12.32c0-.59.21-1.09.64-1.52.43-.43.93-.64,1.52-.64h12.32c.59,0,1.09.21,1.52.64.43.43.64.93.64,1.52v12.32c0,.59-.21,1.09-.64,1.52-.43.43-.93.64-1.52.64h-12.32Zm22.24,0c-.59,0-1.09-.21-1.52-.64-.43-.43-.64-.93-.64-1.52v-12.32c0-.59.21-1.09.64-1.52.43-.43.93-.64,1.52-.64h12.32c.59,0,1.09.21,1.52.64.43.43.64.93.64,1.52v12.32c0,.59-.21,1.09-.64,1.52-.43.43-.93.64-1.52.64h-12.32Zm22.24,0c-.59,0-1.09-.21-1.52-.64-.43-.43-.64-.93-.64-1.52v-12.32c0-.59.21-1.09.64-1.52.43-.43.93-.64,1.52-.64h12.32c.59,0,1.09.21,1.52.64.43.43.64.93.64,1.52v12.32c0,.59-.21,1.09-.64,1.52-.43.43-.93.64-1.52.64h-12.32Z"/><rect class="cls-6" x="50.54" y="43.74" width="85" height="939"/><rect class="cls-6" x="177.54" y="173.74" width="85" height="685"/><path class="cls-4" d="m400.78,439.72c-.66.32-1.35.36-2.06.11-.71-.25-1.23-.7-1.55-1.36l-28.18-58.13c-.32-.66-.36-1.35-.11-2.06.25-.71.7-1.23,1.36-1.55l27.26-13.22c5.46-2.65,10.59-4.13,15.4-4.46,4.83-.42,9.16.48,12.98,2.71,3.85,2.13,6.98,5.69,9.4,10.67s3.25,9.61,2.51,13.89c-.71,4.2-2.74,8.03-6.09,11.51-3.32,3.39-7.71,6.41-13.17,9.05l-6.3,3.05,8.33,17.19c.32.66.36,1.35.11,2.06-.25.71-.7,1.23-1.36,1.55l-18.54,8.99Zm2.94-46.21l6.3-3.05c.96-.47,1.71-1.28,2.27-2.43.52-1.22.36-2.69-.48-4.43-.55-1.14-1.4-2.13-2.56-2.98-1.09-.88-2.45-.93-4.07-.14l-6.3,3.05,4.84,9.99Z"/><path class="cls-4" d="m475.86,472.05c-6.53-.23-12.22-1.43-17.08-3.6-4.79-2.17-8.55-5.3-11.28-9.4-2.65-4.16-4.01-9.21-4.07-15.15.03-2.73.1-5.63.21-8.7.11-3.07.24-6.03.41-8.89.47-5.85,2.18-10.76,5.12-14.73,2.94-3.97,6.91-6.93,11.92-8.89,5.01-1.96,10.77-2.82,17.3-2.59,6.53.23,12.22,1.5,17.08,3.8,4.86,2.31,8.61,5.54,11.27,9.7,2.72,4.17,4.08,9.18,4.07,15.05.03,2.87,0,5.84-.11,8.9-.11,3.06-.28,5.96-.51,8.69-.48,5.92-2.22,10.86-5.22,14.83-2.94,3.9-6.91,6.76-11.91,8.59-4.93,1.83-10.67,2.63-17.2,2.4Zm.68-19.49c2.2.08,3.99-.49,5.36-1.71,1.38-1.29,2.15-3.33,2.32-6.12.23-2.86.4-5.69.5-8.49.1-2.8.13-5.57.09-8.3,0-1.87-.31-3.41-.94-4.64-.56-1.22-1.36-2.11-2.41-2.69-1.05-.64-2.3-.98-3.77-1.03-1.4-.05-2.68.21-3.83.77-1.08.49-1.98,1.33-2.69,2.51-.64,1.18-1.03,2.7-1.16,4.56-.16,2.73-.29,5.49-.39,8.29-.1,2.8-.16,5.63-.2,8.5.04,2.8.66,4.89,1.88,6.27,1.29,1.31,3.03,2.01,5.23,2.09Z"/><path class="cls-4" d="m518.92,409.67c-.54.1-1.04-.01-1.51-.33-.47-.32-.75-.75-.85-1.29l-8.7-47.66c-.1-.54.01-1.04.33-1.51.32-.47.75-.75,1.29-.85l15.05-2.75c.54-.1,1.04.01,1.51.33.47.32.75.75.85,1.29l8.7,47.66c.1.54-.01,1.04-.33,1.51-.32.47-.75.75-1.29.85l-15.05,2.75Z"/><path class="cls-4" d="m551.58,425.18c-.55-.05-1-.3-1.36-.74-.36-.44-.51-.93-.46-1.48l4.76-48.22c.05-.55.3-1,.74-1.36.44-.36.93-.51,1.48-.46l11.79,1.17c.99.1,1.69.39,2.1.89s.67.87.79,1.13l10.57,21.92,2.01-20.38c.05-.55.3-1,.74-1.36.44-.36.93-.51,1.48-.46l13.51,1.33c.55.05,1,.3,1.36.74.36.44.51.93.46,1.48l-4.76,48.21c-.05.55-.3,1-.74,1.36-.44.36-.93.51-1.48.46l-11.79-1.17c-.99-.1-1.7-.39-2.1-.89-.4-.54-.66-.92-.79-1.13l-10.73-20.28-1.85,18.73c-.05.55-.3,1-.74,1.36-.44.36-.93.51-1.48.46l-13.51-1.33Z"/><path class="cls-4" d="m625.59,399.73c-.55.05-1.04-.1-1.48-.46-.44-.36-.68-.81-.74-1.36l-3.33-34.19-12.39,1.21c-.55.05-1.04-.1-1.48-.46s-.68-.81-.74-1.36l-1.17-12.02c-.05-.55.1-1.04.46-1.48.36-.44.81-.68,1.36-.73l43.74-4.27c.55-.05,1.04.1,1.48.46.44.36.68.81.73,1.36l1.17,12.02c.05.55-.1,1.04-.46,1.48-.36.44-.81.68-1.36.73l-12.39,1.21,3.34,34.19c.05.55-.1,1.04-.46,1.48-.36.44-.81.68-1.36.74l-14.93,1.46Z"/><g class="cls-11"><path class="cls-7" d="m308.73,718.78h-61.95c-6.52,0-11.81,5.29-11.81,11.81v47.13c0,6.52,5.29,11.81,11.81,11.81h61.95v-70.75h0Z"/><path class="cls-10" d="m370.68,718.78h-61.95v70.75h61.95c6.52,0,11.81-5.29,11.81-11.81v-47.13c0-6.52-5.29-11.81-11.81-11.81h0Z"/><path class="cls-9" d="m379.61,744.5h-71.67v1314.72h71.67c6.33,0,11.46-3.54,11.46-7.91V752.41c0-4.37-5.13-7.91-11.46-7.91h0Z"/><path class="cls-5" d="m236.28,744.5c-6.33,0-11.47,3.54-11.47,7.91v1298.9c0,4.37,5.13,7.91,11.47,7.91h71.66V744.5h-71.66Z"/><path class="cls-8" d="m382.5,783.03c0,6.33-5.13,11.47-11.46,11.47s-11.47-5.13-11.47-11.47,5.13-11.46,11.47-11.46,11.46,5.13,11.46,11.46Z"/><path class="cls-4" d="m403.39,474.76c-2.51-20.71-40.16-13.49-36.71,6.28,1.88,20.4,8.79,43.3-6.59,60.24,0-24.47,12.86-53.34-5.33-74.36-11.61-13.49-21.34-28.87-34.2-40.79-9.61-4.27-21.14,1.86-26.86,10.77-4.36,6.8-5.34,15.21.49,21.86,6.59,8.63,13.49,16.92,20.26,25.25.93,1.14,1.84,2.29,2.76,3.44,1.64,2.04,3.29,4.08,4.91,6.14-.4,2.98-.79,5.92-1.18,8.85-.21,1.62-.43,3.24-.63,4.86-.6,4.72-1.16,9.42-1.64,14.22-8.16-16.95-7.53-40.16-22.91-52.4-4.87-.49-9.74-.76-14.61-.88-.63-.02-1.25-.04-1.88-.05-13.44-.24-26.88.56-40.32.84-2.71.06-5.43.09-8.14.09-24.16-1.57-22.28,41.42,0,42.04,6.07.15,12.15.02,18.25-.13,6.83-.16,13.7-.35,20.65-.18,2.2,6.9,4.39,13.81,6.59,20.71-8.1-6.98-15.46-21.16-27.15-20.21-1.44.12-2.95.45-4.54,1.07-18.83,10.98-35.77,25.41-53.65,38.28-8.49,5.61-8.03,15.18-3.35,22.79,5,8.13,14.83,14.03,23.74,10.47,11.61-6.28,21.96-14.43,32.95-21.65,13.49,15.37,26.04,32,32.63,51.14.32,3.64-.21,6.98-1.35,9.97-5.65,14.8-26.81,20.92-40.38,10.73-15.32-3.89-14.06-20.03-18.99-31.91-1.43-3.45-3.39-6.55-6.42-8.88-10.19-6.59-23.17-1.98-29.08,6.93-3.36,5.08-4.44,11.56-1.36,18.17.25,3.76.79,7.37,1.58,10.87,1.51,6.71,3.97,12.94,7.15,18.78,12,22.07,34.2,38.51,54.34,53.5,1.19.69,2.41,1.35,3.65,2.01.57.55,1.14,1.09,1.71,1.64l1.98,4.26c1.28,2.31,3.62,3.81,6.23,4.06.26.02.52.05.78.05h92.75c8.6,0,16.14-4.52,20.39-11.32,1.62-4.85,2.79-9.93,3.64-15.07,1.31-7.91,1.89-15.96,2.32-23.58,0-2.12.03-4.24.07-6.36,8.51-34.01,5.33-71.69,22.43-103.78,15.69-23.85,6.9-52.4,5.02-78.76h0Z"/></g></g></g></svg>