<?xml version="1.0" encoding="UTF-8"?><svg id="Calque_2" xmlns="http://www.w3.org/2000/svg" xmlns:xlink="http://www.w3.org/1999/xlink" viewBox="0 0 600 600"><defs><style>.cls-1{fill:none;}.cls-2{clip-path:url(#clippath);}.cls-3{fill:#000030;}.cls-4{fill:#fff;}.cls-5{fill:#ec5039;}.cls-6{fill:#8b4e93;}.cls-7{fill:#9cb5de;}.cls-8{fill:#b0d236;}.cls-9{fill:#ae7ab1;}.cls-10{fill:#c2e1db;}.cls-11{fill:#154f78;}.cls-12{fill:#0f3754;}.cls-13{fill:#99d2d9;}.cls-14{fill:#748dc7;}</style><clipPath id="clippath"><rect class="cls-1" width="600" height="600"/></clipPath></defs><g id="Calque_2-2"><g id="Calque_1-2"><g id="bravo1point"><g class="cls-2"><rect class="cls-3" width="600" height="600"/><rect class="cls-8" x="8.9" y="70.1" width="85" height="685"/><rect class="cls-5" x="115.9" y="140.1" width="85" height="685"/><path class="cls-4" d="m317.59,151.37c.73-2.29,1.44-4.57.88-6.96-1.67-3.42-6.36-5.33-10.08-4.34-1.2.32-2.3.94-3.16,1.91-.26.62-.48,1.25-.67,1.89-.34-.82-.68-1.65-.99-2.48.51-3.63,1.07-7.26,1.63-10.89,1.01-6.49,2.02-12.99,2.79-19.53.66-7.29-12.8-9.27-14.35-2.1-.19,1.2-.38,2.41-.57,3.62-1.02,6.57-1.95,13.15-2.9,19.74-.09.59-.17,1.19-.26,1.78-.87,6.01-1.77,12.02-2.78,18.02-2.54-13.69-2.32-27.81-4.41-41.61-.33-.73-.8-1.34-1.36-1.83-4.25-3.78-13.92-.94-12.55,5.7.62,10.01,1.43,20.02,2.15,30,.4,5.54.78,11.07,1.1,16.59.02.33.04.66.06.98-1.41,4.14-4.93,7.78-6.27,12.05-.45,1.42-.66,2.91-.46,4.51,1.24,8.5,4.39,17.49,10.72,23.55.13.13.26.25.4.37l.83,1.8c.43.78,1.22,1.28,2.09,1.37.09,0,.17.02.26.02h31.2s.03,0,.05,0c2.87-.02,5.39-1.53,6.81-3.8.55-1.63.94-3.34,1.22-5.07.07-.43.13-.87.19-1.31,6.86-11.67,9.17-25.91,11.9-39.11.89-7.69-10.28-11.05-13.46-4.85Zm-15.45,1.98c.33-3.55.76-7.09,1.25-10.63.29.7.6,1.4.92,2.09-.72,2.85-1.01,5.82-2.17,8.54Z"/><path class="cls-9" d="m297.56,207.96h-22.47c-2.37,0-4.28,1.92-4.28,4.28v17.09c0,2.37,1.92,4.28,4.28,4.28h22.47v-25.66Z"/><path class="cls-6" d="m320.03,207.96h-22.47v25.66h22.47c2.37,0,4.28-1.92,4.28-4.28v-17.09c0-2.37-1.92-4.28-4.28-4.28Z"/><path class="cls-14" d="m323.27,217.29h-25.99v399.02h25.99c2.3,0,4.16-1.28,4.16-2.87V220.16c0-1.58-1.86-2.87-4.16-2.87Z"/><path class="cls-7" d="m271.28,217.29c-2.3,0-4.16,1.28-4.16,2.87v393.28c0,1.59,1.86,2.87,4.16,2.87h25.99V217.29h-25.99Z"/><path class="cls-6" d="m324.31,231.26c0,2.3-1.86,4.16-4.16,4.16s-4.16-1.86-4.16-4.16,1.86-4.16,4.16-4.16,4.16,1.86,4.16,4.16Z"/><path class="cls-6" d="m324.31,253.84c0,2.3-1.86,4.16-4.16,4.16s-4.16-1.86-4.16-4.16,1.86-4.16,4.16-4.16,4.16,1.86,4.16,4.16Z"/><circle class="cls-6" cx="320.16" cy="242.55" r="4.16"/><path class="cls-10" d="m393.64,213.81h-27.3c-2.87,0-5.2,2.33-5.2,5.2v20.77c0,2.87,2.33,5.21,5.2,5.21h27.3v-31.18Z"/><path class="cls-13" d="m420.94,213.81h-27.3v31.18h27.3c2.87,0,5.2-2.33,5.2-5.21v-20.77c0-2.87-2.33-5.2-5.2-5.2Z"/><path class="cls-12" d="m424.87,225.15h-31.58v387.68h31.58c2.79,0,5.05-1.56,5.05-3.49V228.63c0-1.93-2.26-3.49-5.05-3.49Z"/><path class="cls-11" d="m361.71,225.15c-2.79,0-5.05,1.56-5.05,3.49v380.71c0,1.93,2.26,3.49,5.05,3.49h31.58V225.15h-31.58Z"/><circle class="cls-10" cx="421.09" cy="242.12" r="5.05"/><circle class="cls-10" cx="421.09" cy="269.56" r="5.05"/><circle class="cls-10" cx="421.09" cy="255.84" r="5.05"/><path class="cls-4" d="m420.39,148.17c-4.14,0-7.48,3.29-7.75,7.35-.05,0-.08-.02-.11-.03v-7.32c0-4.32-3.53-7.86-7.86-7.86s-7.86,3.54-7.86,7.86v-4.74c.31-3.68.57-8.27.5-7.02l1.72-31.4c.24-4.32-3.1-8.04-7.42-8.28-4.31-.24-8.04,3.1-8.28,7.42l-1.85,33.68c-.02.06-.04.12-.06.18.02,0,.03-.01.05-.01l-.03.6c-.06.03-.13.07-.19.1-.11.52-.17,1.05-.17,1.6v-1.52c-.25.12-.5.24-.76.35l-1.72-31.41c-.24-4.32-3.97-7.65-8.28-7.42-4.32.24-7.65,3.96-7.42,8.28l1.72,31.4c-.08-1.52.32,5.59.71,9.21,0,.09.02.18.03.28v12.24c0,.96-.88,1.81-1.8,2.09-.92.28-2.03-.08-2.56-.88-5.79-7.54-5.42-15-13.76-15-1.94,0-3.73,1.02-4.71,2.69-.97,1.67-1,3.73-.06,5.42l24.63,53.01c.69,1.24,2.01,2.02,3.44,2.02h45.92c6.51,0,11.79-5.27,11.79-11.79v-43.23c0-4.32-3.53-7.86-7.86-7.86Z"/><path class="cls-4" d="m248.35,123.14c-5.35,0-9.64,4.24-10,9.48-.06-.01-.1-.03-.14-.04v-9.45c0-5.57-4.55-10.14-10.14-10.14s-10.14,4.56-10.14,10.14v-10.14c0-5.57-4.55-10.14-10.14-10.14s-10.14,4.56-10.14,10.14v-40.55c0-5.57-4.55-10.14-10.14-10.14s-10.14,4.56-10.14,10.14v68.16c0,1.24-1.13,2.34-2.32,2.69-1.19.36-2.61-.1-3.31-1.13-7.47-9.73-6.99-19.34-17.74-19.34-2.49,0-4.81,1.32-6.08,3.47-1.25,2.15-1.29,4.81-.08,6.99l31.76,68.36c.89,1.6,2.59,2.6,4.44,2.6h59.23c8.4,0,15.21-6.8,15.21-15.21v-55.76c0-5.57-4.55-10.14-10.14-10.14Z"/><path class="cls-11" d="m216.75,210.21h-35.05c-3.69,0-6.68,2.99-6.68,6.68v26.66c0,3.69,2.99,6.68,6.68,6.68h35.05v-40.03Z"/><path class="cls-12" d="m251.8,210.21h-35.05v40.03h35.05c3.69,0,6.68-2.99,6.68-6.68v-26.66c0-3.69-2.99-6.68-6.68-6.68Z"/><path class="cls-13" d="m256.85,224.76h-40.54v420.68h40.54c3.58,0,6.49-2,6.49-4.48V229.24c0-2.47-2.9-4.48-6.49-4.48Z"/><path class="cls-10" d="m175.76,224.76c-3.58,0-6.49,2-6.49,4.48v411.72c0,2.47,2.9,4.48,6.49,4.48h40.54V224.76h-40.54Z"/><circle class="cls-11" cx="252" cy="246.56" r="6.49"/><circle class="cls-11" cx="252" cy="281.78" r="6.49"/><circle class="cls-11" cx="252" cy="264.17" r="6.49"/></g></g></g></g></svg>